%FSLAX46Y46*%
G04 Gerber Fmt 4.6, Leading zero omitted, Abs format (unit mm)*
G04 Created by KiCad (PCBNEW (2014-jul-16 BZR unknown)-product) date Fri 02 Oct 2015 04:50:24 PM CEST*
%MOMM*%
G01*
G04 APERTURE LIST*
%ADD10C,0.100000*%
%ADD11R,0.600000X0.500000*%
%ADD12R,1.600000X1.000000*%
%ADD13R,1.000000X1.600000*%
%ADD14R,0.500000X0.600000*%
%ADD15R,2.600000X3.200000*%
%ADD16R,3.200000X2.600000*%
%ADD17R,0.910000X1.220000*%
%ADD18R,1.676400X1.524000*%
%ADD19R,1.524000X1.676400*%
%ADD20R,0.800000X0.800000*%
%ADD21R,0.450000X0.590000*%
%ADD22R,1.220000X0.910000*%
%ADD23R,3.810000X4.240000*%
%ADD24R,5.180000X1.430000*%
%ADD25R,5.200000X1.450000*%
%ADD26O,3.014980X1.506220*%
%ADD27R,0.900000X0.800000*%
%ADD28R,0.800000X0.900000*%
%ADD29R,0.500000X0.900000*%
%ADD30R,0.900000X0.500000*%
%ADD31C,1.524000*%
%ADD32C,1.500000*%
%ADD33R,2.150000X3.250000*%
%ADD34R,2.150000X0.950000*%
%ADD35O,1.998980X1.998980*%
%ADD36R,1.998980X1.998980*%
%ADD37R,2.400000X3.100000*%
%ADD38R,2.150000X0.450000*%
%ADD39R,1.300000X0.700000*%
%ADD40O,1.500000X2.000000*%
%ADD41R,1.500000X2.000000*%
%ADD42R,3.400000X4.100000*%
%ADD43R,0.700000X1.300000*%
%ADD44C,5.000000*%
%ADD45R,2.180000X1.620000*%
%ADD46R,1.620000X2.180000*%
%ADD47R,1.700000X0.900000*%
G04 APERTURE END LIST*
D10*
D11*
X119450000Y-121500000D03*
X120550000Y-121500000D03*
D12*
X89750000Y-118750000D03*
X89750000Y-121750000D03*
D11*
X98800000Y-118250000D03*
X97700000Y-118250000D03*
X112700000Y-127500000D03*
X113800000Y-127500000D03*
X112700000Y-126000000D03*
X113800000Y-126000000D03*
D13*
X99750000Y-129000000D03*
X102750000Y-129000000D03*
X99750000Y-131500000D03*
X102750000Y-131500000D03*
D12*
X86360000Y-80030000D03*
X86360000Y-83030000D03*
X89250000Y-80000000D03*
X89250000Y-83000000D03*
D13*
X96250000Y-92750000D03*
X99250000Y-92750000D03*
X96250000Y-90250000D03*
X99250000Y-90250000D03*
D14*
X86125000Y-71675000D03*
X86125000Y-70575000D03*
D15*
X118600000Y-134750000D03*
X111400000Y-134750000D03*
D16*
X119250000Y-117350000D03*
X119250000Y-110150000D03*
D17*
X122885000Y-125250000D03*
X119615000Y-125250000D03*
D18*
X74750000Y-115298200D03*
X74750000Y-118701800D03*
D19*
X74798200Y-92500000D03*
X78201800Y-92500000D03*
D20*
X183460000Y-78241000D03*
X183460000Y-76564000D03*
D19*
X201372800Y-94459000D03*
X197969200Y-94459000D03*
D21*
X200000000Y-111805000D03*
X200000000Y-109695000D03*
D20*
X194917000Y-104079000D03*
X196594000Y-104079000D03*
D19*
X86298200Y-101750000D03*
X89701800Y-101750000D03*
X86298200Y-96500000D03*
X89701800Y-96500000D03*
D22*
X83125000Y-68330000D03*
X83125000Y-71600000D03*
D20*
X193835000Y-78224000D03*
X193835000Y-76547000D03*
D19*
X201372800Y-87601000D03*
X197969200Y-87601000D03*
D23*
X65500000Y-92560000D03*
X65500000Y-98940000D03*
D24*
X95500000Y-125730000D03*
X95500000Y-129770000D03*
D25*
X92000000Y-86980000D03*
D24*
X92000000Y-91020000D03*
D26*
X65465000Y-46920000D03*
X65465000Y-49460000D03*
X65465000Y-52000000D03*
D27*
X192575000Y-93509000D03*
X192575000Y-95409000D03*
X194575000Y-94459000D03*
X193210000Y-111035000D03*
X193210000Y-112935000D03*
X195210000Y-111985000D03*
D28*
X95550000Y-70250000D03*
X97450000Y-70250000D03*
X96500000Y-68250000D03*
D27*
X105000000Y-74700000D03*
X105000000Y-72800000D03*
X103000000Y-73750000D03*
D28*
X80800000Y-52750000D03*
X82700000Y-52750000D03*
X81750000Y-50750000D03*
D27*
X192575000Y-86651000D03*
X192575000Y-88551000D03*
X194575000Y-87601000D03*
D29*
X119500000Y-129250000D03*
X121000000Y-129250000D03*
X122750000Y-129250000D03*
X124250000Y-129250000D03*
D30*
X114000000Y-118500000D03*
X114000000Y-117000000D03*
D29*
X107250000Y-116750000D03*
X108750000Y-116750000D03*
D30*
X110500000Y-126000000D03*
X110500000Y-127500000D03*
D29*
X107250000Y-133000000D03*
X108750000Y-133000000D03*
X108750000Y-130500000D03*
X107250000Y-130500000D03*
D30*
X113500000Y-130500000D03*
X113500000Y-129000000D03*
X110250000Y-79500000D03*
X110250000Y-78000000D03*
D29*
X103250000Y-78250000D03*
X104750000Y-78250000D03*
D30*
X106250000Y-86250000D03*
X106250000Y-87750000D03*
D29*
X104250000Y-94500000D03*
X105750000Y-94500000D03*
X105750000Y-92500000D03*
X104250000Y-92500000D03*
X108500000Y-90000000D03*
X110000000Y-90000000D03*
D30*
X185574000Y-95209000D03*
X185574000Y-93709000D03*
X187860000Y-93709000D03*
X187860000Y-95209000D03*
X190273000Y-93709000D03*
X190273000Y-95209000D03*
X73500000Y-53750000D03*
X73500000Y-52250000D03*
X75750000Y-53750000D03*
X75750000Y-52250000D03*
D29*
X200000000Y-117500000D03*
X201500000Y-117500000D03*
D30*
X190273000Y-126832000D03*
X190273000Y-125332000D03*
X201449000Y-126832000D03*
X201449000Y-125332000D03*
D29*
X202389500Y-60994500D03*
X200889500Y-60994500D03*
X71750000Y-46750000D03*
X73250000Y-46750000D03*
D30*
X73500000Y-66250000D03*
X73500000Y-64750000D03*
D29*
X202389500Y-66074500D03*
X200889500Y-66074500D03*
D30*
X185193000Y-126832000D03*
X185193000Y-125332000D03*
X196369000Y-126832000D03*
X196369000Y-125332000D03*
X89500000Y-49250000D03*
X89500000Y-50750000D03*
D29*
X73500000Y-61000000D03*
X75000000Y-61000000D03*
D30*
X92000000Y-49250000D03*
X92000000Y-50750000D03*
D29*
X202389500Y-71154500D03*
X200889500Y-71154500D03*
X188229000Y-112620000D03*
X186729000Y-112620000D03*
D30*
X191289000Y-115045000D03*
X191289000Y-116545000D03*
D29*
X186229000Y-104079000D03*
X187729000Y-104079000D03*
D30*
X96250000Y-97750000D03*
X96250000Y-99250000D03*
D29*
X83000000Y-97750000D03*
X81500000Y-97750000D03*
X93250000Y-68000000D03*
X91750000Y-68000000D03*
X93250000Y-70250000D03*
X91750000Y-70250000D03*
X100750000Y-68250000D03*
X99250000Y-68250000D03*
X79875000Y-68375000D03*
X78375000Y-68375000D03*
X202389500Y-77377500D03*
X200889500Y-77377500D03*
X202389500Y-82457500D03*
X200889500Y-82457500D03*
D30*
X185574000Y-88351000D03*
X185574000Y-86851000D03*
X187860000Y-86851000D03*
X187860000Y-88351000D03*
X190273000Y-86851000D03*
X190273000Y-88351000D03*
X110500000Y-129000000D03*
X110500000Y-130500000D03*
D31*
X67000000Y-119250000D03*
X67000000Y-124330000D03*
X67000000Y-114170000D03*
D32*
X175820400Y-122449800D03*
D31*
X178360400Y-66569800D03*
X175820400Y-66569800D03*
X178360400Y-69109800D03*
X175820400Y-69109800D03*
X178360400Y-71649800D03*
X175820400Y-71649800D03*
X178360400Y-86889800D03*
X178360400Y-74189800D03*
X175820400Y-74189800D03*
X175820400Y-112289800D03*
X175820400Y-114829800D03*
X175820400Y-117369800D03*
X175820400Y-119909800D03*
X175820400Y-76729800D03*
X175820400Y-79269800D03*
X178360400Y-76729800D03*
X178360400Y-79269800D03*
X178360400Y-81809800D03*
X178360400Y-84349800D03*
X178360400Y-89429800D03*
X175820400Y-81809800D03*
X178360400Y-91969800D03*
X178360400Y-94509800D03*
X175820400Y-84349800D03*
X178360400Y-97049800D03*
X175820400Y-86889800D03*
X178360400Y-99589800D03*
X175820400Y-89429800D03*
X178360400Y-102129800D03*
X175820400Y-91969800D03*
X178360400Y-104669800D03*
X175820400Y-94509800D03*
X178360400Y-107209800D03*
X175820400Y-97049800D03*
X178360400Y-109749800D03*
X175820400Y-99589800D03*
X178360400Y-112289800D03*
X175820400Y-102129800D03*
X178360400Y-114829800D03*
X175820400Y-104669800D03*
X178360400Y-117369800D03*
X175820400Y-107209800D03*
X178360400Y-119909800D03*
X175820400Y-109749800D03*
X178360400Y-122449800D03*
X130100400Y-122449800D03*
X127560400Y-109749800D03*
X130100400Y-119909800D03*
X127560400Y-107209800D03*
X130100400Y-117369800D03*
X127560400Y-104669800D03*
X130100400Y-114829800D03*
X127560400Y-102129800D03*
X130100400Y-112289800D03*
X127560400Y-99589800D03*
X130100400Y-109749800D03*
X127560400Y-97049800D03*
X130100400Y-107209800D03*
X127560400Y-94509800D03*
X130100400Y-104669800D03*
X127560400Y-91969800D03*
X130100400Y-102129800D03*
X127560400Y-89429800D03*
X130100400Y-99589800D03*
X127560400Y-86889800D03*
X130100400Y-97049800D03*
X127560400Y-84349800D03*
X130100400Y-94509800D03*
X130100400Y-91969800D03*
X127560400Y-81809800D03*
X130100400Y-89429800D03*
X130100400Y-84349800D03*
X130100400Y-81809800D03*
X130100400Y-79269800D03*
X130100400Y-76729800D03*
X127560400Y-79269800D03*
X127560400Y-76729800D03*
X127560400Y-119909800D03*
X127560400Y-117369800D03*
X127560400Y-114829800D03*
X127560400Y-112289800D03*
X127560400Y-74189800D03*
X130100400Y-74189800D03*
X130100400Y-86889800D03*
X127560400Y-71649800D03*
X130100400Y-71649800D03*
X127560400Y-69109800D03*
X130100400Y-69109800D03*
X127560400Y-66569800D03*
X130100400Y-66569800D03*
D32*
X127560400Y-122449800D03*
D33*
X106400000Y-107500000D03*
D34*
X100600000Y-105200000D03*
X100600000Y-107500000D03*
X100600000Y-109800000D03*
D35*
X65500000Y-79230000D03*
D36*
X65500000Y-81770000D03*
D35*
X210466000Y-97126000D03*
D36*
X210466000Y-94586000D03*
D35*
X66250000Y-128230000D03*
D36*
X66250000Y-130770000D03*
D35*
X210466000Y-108302000D03*
D36*
X210466000Y-100682000D03*
D35*
X210466000Y-103222000D03*
X210466000Y-105762000D03*
X210466000Y-130654000D03*
D36*
X210466000Y-123034000D03*
D35*
X210466000Y-125574000D03*
X210466000Y-128114000D03*
X82755000Y-41840000D03*
D36*
X75135000Y-41840000D03*
D35*
X77675000Y-41840000D03*
X80215000Y-41840000D03*
X85295000Y-41840000D03*
X87835000Y-41840000D03*
X210529500Y-68614500D03*
D36*
X210529500Y-60994500D03*
D35*
X210529500Y-63534500D03*
X210529500Y-66074500D03*
X210529500Y-71154500D03*
X210529500Y-73694500D03*
X210529500Y-84997500D03*
D36*
X210529500Y-77377500D03*
D35*
X210529500Y-79917500D03*
X210529500Y-82457500D03*
X182653000Y-135607000D03*
D36*
X190273000Y-135607000D03*
D35*
X187733000Y-135607000D03*
X185193000Y-135607000D03*
X65500000Y-64210000D03*
D36*
X65500000Y-69290000D03*
D35*
X65500000Y-66750000D03*
X193829000Y-135607000D03*
D36*
X201449000Y-135607000D03*
D35*
X198909000Y-135607000D03*
X196369000Y-135607000D03*
X210466000Y-119478000D03*
D36*
X210466000Y-111858000D03*
D35*
X210466000Y-114398000D03*
X210466000Y-116938000D03*
X65500000Y-55460000D03*
D36*
X65500000Y-60540000D03*
D35*
X65500000Y-58000000D03*
X210466000Y-91030000D03*
D36*
X210466000Y-88490000D03*
D35*
X65500000Y-72980000D03*
D36*
X65500000Y-75520000D03*
D12*
X84750000Y-115250000D03*
X84750000Y-118250000D03*
D37*
X103500000Y-120250000D03*
D38*
X106375000Y-119600000D03*
X106375000Y-118300000D03*
X106375000Y-120900000D03*
X106375000Y-122200000D03*
X100625000Y-122200000D03*
X100625000Y-120900000D03*
X100625000Y-119600000D03*
X100625000Y-118300000D03*
D12*
X92750000Y-118750000D03*
X92750000Y-121750000D03*
D39*
X111250000Y-121550000D03*
X111250000Y-123450000D03*
D40*
X208490000Y-44020000D03*
X208490000Y-40980000D03*
X205950000Y-40980000D03*
X205950000Y-44020000D03*
X203410000Y-44020000D03*
X203410000Y-40980000D03*
X200870000Y-40980000D03*
X200870000Y-44020000D03*
X198330000Y-44020000D03*
X198330000Y-40980000D03*
X195790000Y-40980000D03*
X195790000Y-44020000D03*
X193250000Y-44020000D03*
X193250000Y-40980000D03*
X190710000Y-40980000D03*
X190710000Y-44020000D03*
X188170000Y-44020000D03*
X188170000Y-40980000D03*
X185630000Y-40980000D03*
X185630000Y-44020000D03*
D41*
X178010000Y-44020000D03*
D40*
X178010000Y-40980000D03*
X180550000Y-44020000D03*
X180550000Y-40980000D03*
X183090000Y-44020000D03*
X183090000Y-40980000D03*
D42*
X100000000Y-81500000D03*
D38*
X102875000Y-80850000D03*
X102875000Y-79550000D03*
X102875000Y-82150000D03*
X102875000Y-83450000D03*
X97125000Y-83450000D03*
X97125000Y-82150000D03*
X97125000Y-80850000D03*
X97125000Y-79550000D03*
D13*
X74750000Y-81250000D03*
X77750000Y-81250000D03*
D11*
X95300000Y-79500000D03*
X94200000Y-79500000D03*
X108700000Y-86250000D03*
X109800000Y-86250000D03*
X108700000Y-88000000D03*
X109800000Y-88000000D03*
D39*
X107500000Y-81300000D03*
X107500000Y-83200000D03*
D43*
X80325000Y-71375000D03*
X78425000Y-71375000D03*
D44*
X66250000Y-41500000D03*
X209500000Y-136000000D03*
X69000000Y-135500000D03*
X212250000Y-51750000D03*
D39*
X102750000Y-69950000D03*
X102750000Y-68050000D03*
X93250000Y-99700000D03*
X93250000Y-97800000D03*
D11*
X79050000Y-54750000D03*
X77950000Y-54750000D03*
D17*
X75865000Y-57000000D03*
X79135000Y-57000000D03*
D27*
X100000000Y-56800000D03*
X100000000Y-58700000D03*
X102000000Y-57750000D03*
D29*
X98000000Y-56750000D03*
X96500000Y-56750000D03*
X102000000Y-54500000D03*
X100500000Y-54500000D03*
D14*
X73500000Y-68450000D03*
X73500000Y-69550000D03*
X71250000Y-60800000D03*
X71250000Y-59700000D03*
D45*
X79750000Y-119610000D03*
X79750000Y-115390000D03*
D46*
X79050000Y-86530000D03*
X74830000Y-86530000D03*
D18*
X72500000Y-102798200D03*
X72500000Y-106201800D03*
D47*
X89750000Y-104800000D03*
X89750000Y-107700000D03*
D29*
X81000000Y-54750000D03*
X82500000Y-54750000D03*
X82500000Y-57000000D03*
X81000000Y-57000000D03*
D12*
X95250000Y-107750000D03*
X95250000Y-104750000D03*
D33*
X85650000Y-106000000D03*
D34*
X79850000Y-103700000D03*
X79850000Y-106000000D03*
X79850000Y-108300000D03*
M02*
