G04 #@! TF.FileFunction,Copper,L1,Top,Signal*
%FSLAX46Y46*%
G04 Gerber Fmt 4.6, Leading zero omitted, Abs format (unit mm)*
G04 Created by KiCad (PCBNEW 4.0.2-stable) date Vendredi 08 juillet 2016 18:35:17*
%MOMM*%
G01*
G04 APERTURE LIST*
%ADD10C,0.100000*%
%ADD11R,0.700000X1.300000*%
%ADD12R,0.800000X1.000000*%
%ADD13R,0.500000X1.800000*%
%ADD14R,0.250000X1.800000*%
%ADD15R,5.970000X1.780000*%
%ADD16C,0.800000*%
%ADD17C,0.300000*%
%ADD18C,0.600000*%
%ADD19C,0.254000*%
G04 APERTURE END LIST*
D10*
D11*
X152640000Y-77650000D03*
X154540000Y-77650000D03*
D12*
X154740000Y-81720000D03*
X157140000Y-81720000D03*
D13*
X73994200Y-85489700D03*
D14*
X74744200Y-85489700D03*
X73244200Y-85489700D03*
D13*
X69694200Y-85489700D03*
D14*
X70444200Y-85489700D03*
X68944200Y-85489700D03*
D13*
X73994200Y-89789700D03*
D14*
X74744200Y-89789700D03*
X73244200Y-89789700D03*
D13*
X69694200Y-89789700D03*
D14*
X70444200Y-89789700D03*
X68944200Y-89789700D03*
D13*
X131076700Y-85153500D03*
D14*
X131826700Y-85153500D03*
X130326700Y-85153500D03*
D13*
X126784100Y-85153500D03*
D14*
X127534100Y-85153500D03*
X126034100Y-85153500D03*
D13*
X131076700Y-89458800D03*
D14*
X131826700Y-89458800D03*
X130326700Y-89458800D03*
D13*
X126784100Y-89458800D03*
D14*
X127534100Y-89458800D03*
X126034100Y-89458800D03*
D13*
X184280000Y-85370000D03*
D14*
X185030000Y-85370000D03*
X183530000Y-85370000D03*
D13*
X180010000Y-85370000D03*
D14*
X180760000Y-85370000D03*
X179260000Y-85370000D03*
D13*
X184300000Y-89660000D03*
D14*
X185050000Y-89660000D03*
X183550000Y-89660000D03*
D13*
X179990000Y-89660000D03*
D14*
X180740000Y-89660000D03*
X179240000Y-89660000D03*
D13*
X238190000Y-85370000D03*
D14*
X238940000Y-85370000D03*
X237440000Y-85370000D03*
D13*
X233890000Y-85360000D03*
D14*
X234640000Y-85360000D03*
X233140000Y-85360000D03*
D13*
X238170000Y-89630000D03*
D14*
X238920000Y-89630000D03*
X237420000Y-89630000D03*
D13*
X233890000Y-89640000D03*
D14*
X234640000Y-89640000D03*
X233140000Y-89640000D03*
D15*
X47165000Y-91300000D03*
X44235000Y-83680000D03*
X44235000Y-88760000D03*
X47165000Y-86220000D03*
X44255000Y-73470000D03*
X44255000Y-78550000D03*
X47185000Y-76010000D03*
X262645000Y-83550000D03*
X265575000Y-91170000D03*
X265575000Y-86090000D03*
X262645000Y-88630000D03*
D16*
X117335300Y-82753200D02*
X117335300Y-82600800D01*
X118884700Y-81051400D02*
X128905000Y-81051400D01*
X130200400Y-83248500D02*
X130200400Y-82346800D01*
X130200400Y-82346800D02*
X128905000Y-81051400D01*
D17*
X75038300Y-85489700D02*
X74744200Y-85489700D01*
X82054700Y-82740500D02*
X82067400Y-82753200D01*
D16*
X77787500Y-82740500D02*
X82054700Y-82740500D01*
X76060300Y-84467700D02*
X77787500Y-82740500D01*
X75038300Y-85489700D02*
X76060300Y-84467700D01*
X82067400Y-82753200D02*
X117335300Y-82753200D01*
X117335300Y-82600800D02*
X118884700Y-81051400D01*
D17*
X130326700Y-85153500D02*
X130326700Y-84073300D01*
X130200400Y-83947000D02*
X130200400Y-83248500D01*
X130200400Y-83248500D02*
X130200400Y-83185000D01*
X130326700Y-84073300D02*
X130200400Y-83947000D01*
D16*
X45700000Y-83720000D02*
X63057800Y-83919300D01*
X72394200Y-82689700D02*
X73244200Y-83539700D01*
D17*
X73244200Y-83539700D02*
X73244200Y-85489700D01*
D16*
X71704200Y-82689700D02*
X72344200Y-82689700D01*
X72344200Y-82689700D02*
X72394200Y-82689700D01*
X64287400Y-82689700D02*
X71704200Y-82689700D01*
X63057800Y-83919300D02*
X64287400Y-82689700D01*
D17*
X73244200Y-85489700D02*
X73244200Y-84229700D01*
X70444200Y-85489700D02*
X70644200Y-85489700D01*
D16*
X72694200Y-87639700D02*
X78644200Y-87639700D01*
D18*
X70794200Y-85639700D02*
X72694200Y-87639700D01*
D16*
X81066900Y-85217000D02*
X78644200Y-87639700D01*
X125590300Y-85217000D02*
X81066900Y-85217000D01*
D17*
X125653800Y-85153500D02*
X125590300Y-85217000D01*
X125653800Y-85153500D02*
X126034100Y-85153500D01*
X70644200Y-85489700D02*
X70794200Y-85639700D01*
D18*
X65020000Y-86325900D02*
X47270900Y-86325900D01*
X47270900Y-86325900D02*
X47165000Y-86220000D01*
D16*
X65706200Y-85639700D02*
X68494200Y-85639700D01*
X64886600Y-86459300D02*
X65020000Y-86325900D01*
X65020000Y-86325900D02*
X65706200Y-85639700D01*
D17*
X68944200Y-85489700D02*
X68494200Y-85639700D01*
D16*
X68494200Y-85639700D02*
X68444200Y-85689700D01*
X123571000Y-87350600D02*
X128067600Y-87390600D01*
D17*
X130073400Y-89458800D02*
X129591600Y-89194000D01*
X129591600Y-89194000D02*
X129591600Y-88914600D01*
D18*
X129591600Y-88914600D02*
X128080300Y-87403300D01*
D16*
X79629000Y-89979500D02*
X80987900Y-89979500D01*
X122796300Y-88125300D02*
X123571000Y-87350600D01*
X82842100Y-88125300D02*
X122796300Y-88125300D01*
X80987900Y-89979500D02*
X82842100Y-88125300D01*
D17*
X130073400Y-89458800D02*
X130326700Y-89458800D01*
D16*
X128067600Y-87390600D02*
X128080300Y-87403300D01*
D17*
X74744200Y-89789700D02*
X74892600Y-89789700D01*
D16*
X75082400Y-89979500D02*
X79629000Y-89979500D01*
X79629000Y-89979500D02*
X79667100Y-89979500D01*
D17*
X74892600Y-89789700D02*
X75082400Y-89979500D01*
D16*
X45700000Y-88760000D02*
X65955300Y-88959300D01*
X65980700Y-88984700D02*
X67335400Y-87630000D01*
X67335400Y-87630000D02*
X70719950Y-87610950D01*
D18*
X70719950Y-87610950D02*
X72879650Y-89770650D01*
D17*
X72879650Y-89770650D02*
X73244200Y-89789700D01*
D16*
X65955300Y-88959300D02*
X65980700Y-88984700D01*
D17*
X126034100Y-89458800D02*
X124802900Y-90690000D01*
D16*
X76187300Y-93052900D02*
X83083400Y-93052900D01*
X72847200Y-93052900D02*
X76187300Y-93052900D01*
X70713600Y-90919300D02*
X72847200Y-93052900D01*
D17*
X70713600Y-90817700D02*
X70713600Y-90919300D01*
X70713600Y-90817700D02*
X70444200Y-90548300D01*
D16*
X85064600Y-91071700D02*
X124802900Y-91071700D01*
X83083400Y-93052900D02*
X85064600Y-91071700D01*
D17*
X124802900Y-91071700D02*
X124802900Y-90690000D01*
X70444200Y-89789700D02*
X70444200Y-90548300D01*
D16*
X45700000Y-91260000D02*
X56166000Y-91459300D01*
X66125500Y-92608400D02*
X67479750Y-91254150D01*
D17*
X67479750Y-91254150D02*
X68944200Y-89789700D01*
D16*
X57315100Y-92608400D02*
X66125500Y-92608400D01*
X56166000Y-91459300D02*
X57315100Y-92608400D01*
D17*
X68934900Y-89789700D02*
X68944200Y-89789700D01*
X183530000Y-85370000D02*
X183530000Y-85220000D01*
X183530000Y-85220000D02*
X183300000Y-84990000D01*
D16*
X183300000Y-84990000D02*
X183300000Y-83550000D01*
X183300000Y-83550000D02*
X183070000Y-83320000D01*
X183070000Y-83320000D02*
X165850000Y-83320000D01*
X165850000Y-83320000D02*
X164562600Y-84607400D01*
X164562600Y-84607400D02*
X139026900Y-84607400D01*
D17*
X131826700Y-85153500D02*
X132168900Y-85153500D01*
D16*
X132715000Y-84607400D02*
X139026900Y-84607400D01*
X132168900Y-85153500D02*
X132715000Y-84607400D01*
D17*
X179260000Y-85370000D02*
X178930000Y-85370000D01*
D16*
X165086700Y-87363300D02*
X167070000Y-85380000D01*
X167070000Y-85380000D02*
X178550000Y-85380000D01*
D17*
X178550000Y-85380000D02*
X178570000Y-85400000D01*
X178570000Y-85400000D02*
X178900000Y-85400000D01*
D16*
X165086700Y-87363300D02*
X138920000Y-87383300D01*
D17*
X178930000Y-85370000D02*
X178900000Y-85400000D01*
X127534100Y-85153500D02*
X127876300Y-85153500D01*
D16*
X130056100Y-87383300D02*
X138920000Y-87383300D01*
X138920000Y-87383300D02*
X139289000Y-87383300D01*
D18*
X127876300Y-85153500D02*
X130056100Y-87383300D01*
D17*
X183020000Y-89420000D02*
X183020000Y-89560000D01*
X132371200Y-89458800D02*
X132380000Y-89450000D01*
D16*
X132380000Y-89450000D02*
X166740000Y-89450000D01*
X166740000Y-89450000D02*
X168680000Y-87510000D01*
X168680000Y-87510000D02*
X181110000Y-87510000D01*
X181110000Y-87510000D02*
X183020000Y-89420000D01*
D17*
X131826700Y-89458800D02*
X132371200Y-89458800D01*
X183120000Y-89660000D02*
X183550000Y-89660000D01*
X183020000Y-89560000D02*
X183120000Y-89660000D01*
D16*
X138240000Y-93065600D02*
X166974400Y-93065600D01*
D17*
X178510000Y-90390000D02*
X179240000Y-89660000D01*
X178510000Y-90400000D02*
X178510000Y-90390000D01*
D16*
X178120000Y-90790000D02*
X178510000Y-90400000D01*
X169250000Y-90790000D02*
X178120000Y-90790000D01*
X166974400Y-93065600D02*
X169250000Y-90790000D01*
D17*
X127534100Y-89458800D02*
X127534100Y-89853200D01*
X127534100Y-89853200D02*
X128270000Y-90589100D01*
X128270000Y-90589100D02*
X128270000Y-91059000D01*
D16*
X128270000Y-91059000D02*
X130276600Y-93065600D01*
X130276600Y-93065600D02*
X138240000Y-93065600D01*
X138240000Y-93065600D02*
X138391900Y-93065600D01*
X191290000Y-85370000D02*
X191290000Y-85270000D01*
D17*
X237290000Y-85220000D02*
X237440000Y-85370000D01*
X237290000Y-83330000D02*
X237290000Y-85220000D01*
D16*
X236460000Y-82500000D02*
X237290000Y-83330000D01*
X194060000Y-82500000D02*
X236460000Y-82500000D01*
X191290000Y-85270000D02*
X194060000Y-82500000D01*
D17*
X185030000Y-85370000D02*
X185410000Y-85370000D01*
D16*
X191290000Y-85370000D02*
X191290000Y-85380000D01*
X185410000Y-85370000D02*
X191290000Y-85370000D01*
X191170000Y-87520000D02*
X193050000Y-87520000D01*
X181030000Y-85370000D02*
X183180000Y-87520000D01*
X183180000Y-87520000D02*
X191170000Y-87520000D01*
D17*
X180760000Y-85370000D02*
X181030000Y-85370000D01*
X232760000Y-85360000D02*
X233140000Y-85360000D01*
X232750000Y-85370000D02*
X232760000Y-85360000D01*
D16*
X195200000Y-85370000D02*
X232750000Y-85370000D01*
X193050000Y-87520000D02*
X195200000Y-85370000D01*
X190960000Y-89660000D02*
X194460000Y-89660000D01*
D17*
X237020000Y-89630000D02*
X237420000Y-89630000D01*
X236770000Y-89420000D02*
X237020000Y-89630000D01*
D16*
X236770000Y-89150000D02*
X236770000Y-89420000D01*
X235080000Y-87510000D02*
X236770000Y-89150000D01*
X196660000Y-87490000D02*
X235080000Y-87510000D01*
X194460000Y-89660000D02*
X196660000Y-87490000D01*
D17*
X185050000Y-89660000D02*
X185380000Y-89660000D01*
D16*
X185380000Y-89660000D02*
X190960000Y-89660000D01*
X190960000Y-89660000D02*
X191120000Y-89660000D01*
D17*
X233140000Y-89640000D02*
X233010000Y-89640000D01*
D16*
X230100000Y-92770000D02*
X232520000Y-90350000D01*
D17*
X232520000Y-90350000D02*
X232520000Y-90130000D01*
X232520000Y-90130000D02*
X232870000Y-89780000D01*
D16*
X230100000Y-92770000D02*
X191080000Y-92770000D01*
D17*
X233010000Y-89640000D02*
X232870000Y-89780000D01*
X180740000Y-89660000D02*
X180740000Y-89990000D01*
X180740000Y-89990000D02*
X181300000Y-90550000D01*
D16*
X181300000Y-90550000D02*
X181300000Y-91380000D01*
X181300000Y-91380000D02*
X182690000Y-92770000D01*
X182690000Y-92770000D02*
X191080000Y-92770000D01*
X191080000Y-92770000D02*
X191220000Y-92770000D01*
D17*
X238940000Y-85370000D02*
X239200000Y-85370000D01*
D16*
X241020000Y-83550000D02*
X262645000Y-83550000D01*
X239200000Y-85370000D02*
X241020000Y-83550000D01*
D17*
X234640000Y-85360000D02*
X235040000Y-85360000D01*
D16*
X237050000Y-87300000D02*
X240240000Y-87300000D01*
X240240000Y-87300000D02*
X241720000Y-86030000D01*
X241720000Y-86030000D02*
X266075000Y-86030000D01*
D17*
X236990000Y-87300000D02*
X237050000Y-87300000D01*
D18*
X235040000Y-85360000D02*
X236990000Y-87300000D01*
D16*
X262645000Y-88630000D02*
X242260000Y-88630000D01*
D17*
X239440000Y-89630000D02*
X238920000Y-89630000D01*
X239450000Y-89640000D02*
X239440000Y-89630000D01*
D16*
X239560000Y-89640000D02*
X239450000Y-89640000D01*
X239580000Y-89660000D02*
X239560000Y-89640000D01*
X241230000Y-89660000D02*
X239580000Y-89660000D01*
X242260000Y-88630000D02*
X241230000Y-89660000D01*
X265575000Y-91170000D02*
X243440000Y-91170000D01*
D17*
X235210000Y-90570000D02*
X234640000Y-90000000D01*
D16*
X235210000Y-91290000D02*
X235210000Y-90570000D01*
X236650000Y-92730000D02*
X235210000Y-91290000D01*
X241880000Y-92730000D02*
X236650000Y-92730000D01*
X243440000Y-91170000D02*
X241880000Y-92730000D01*
D17*
X234640000Y-90000000D02*
X234640000Y-89640000D01*
D18*
X157140000Y-81720000D02*
X157140000Y-76080000D01*
X154530000Y-73470000D02*
X44255000Y-73470000D01*
X157140000Y-76080000D02*
X154530000Y-73470000D01*
X157140000Y-81720000D02*
X157280000Y-81720000D01*
X154540000Y-77650000D02*
X154540000Y-81520000D01*
X154540000Y-81520000D02*
X154740000Y-81720000D01*
X154540000Y-77650000D02*
X154540000Y-76160000D01*
X154390000Y-76010000D02*
X47185000Y-76010000D01*
X154540000Y-76160000D02*
X154390000Y-76010000D01*
X154740000Y-77390000D02*
X154510000Y-77160000D01*
X152640000Y-77650000D02*
X52890000Y-77650000D01*
X51990000Y-78550000D02*
X44255000Y-78550000D01*
X52890000Y-77650000D02*
X51990000Y-78550000D01*
D19*
G36*
X73096760Y-90551000D02*
X72631300Y-90551000D01*
X72631300Y-89014300D01*
X73096760Y-89014300D01*
X73096760Y-90551000D01*
X73096760Y-90551000D01*
G37*
X73096760Y-90551000D02*
X72631300Y-90551000D01*
X72631300Y-89014300D01*
X73096760Y-89014300D01*
X73096760Y-90551000D01*
G36*
X68796760Y-90689700D02*
X68841038Y-90925017D01*
X68947030Y-91089733D01*
X68947754Y-91202711D01*
X67348100Y-91860103D01*
X67348100Y-90973507D01*
X68279038Y-89027000D01*
X68796760Y-89027000D01*
X68796760Y-90689700D01*
X68796760Y-90689700D01*
G37*
X68796760Y-90689700D02*
X68841038Y-90925017D01*
X68947030Y-91089733D01*
X68947754Y-91202711D01*
X67348100Y-91860103D01*
X67348100Y-90973507D01*
X68279038Y-89027000D01*
X68796760Y-89027000D01*
X68796760Y-90689700D01*
G36*
X75311897Y-86245700D02*
X74891640Y-86245700D01*
X74891640Y-84709000D01*
X75322796Y-84709000D01*
X75311897Y-86245700D01*
X75311897Y-86245700D01*
G37*
X75311897Y-86245700D02*
X74891640Y-86245700D01*
X74891640Y-84709000D01*
X75322796Y-84709000D01*
X75311897Y-86245700D01*
G36*
X75488800Y-90563700D02*
X74891640Y-90563700D01*
X74891640Y-89027000D01*
X75488800Y-89027000D01*
X75488800Y-90563700D01*
X75488800Y-90563700D01*
G37*
X75488800Y-90563700D02*
X74891640Y-90563700D01*
X74891640Y-89027000D01*
X75488800Y-89027000D01*
X75488800Y-90563700D01*
G36*
X71440016Y-91349092D02*
X71256740Y-91779391D01*
X70566051Y-90816062D01*
X70591640Y-90689700D01*
X70591640Y-89183501D01*
X71440016Y-91349092D01*
X71440016Y-91349092D01*
G37*
X71440016Y-91349092D02*
X71256740Y-91779391D01*
X70566051Y-90816062D01*
X70591640Y-90689700D01*
X70591640Y-89183501D01*
X71440016Y-91349092D01*
G36*
X125886660Y-85930100D02*
X125455920Y-85930100D01*
X125434104Y-84384100D01*
X125886660Y-84384100D01*
X125886660Y-85930100D01*
X125886660Y-85930100D01*
G37*
X125886660Y-85930100D02*
X125455920Y-85930100D01*
X125434104Y-84384100D01*
X125886660Y-84384100D01*
X125886660Y-85930100D01*
G36*
X130354500Y-83819792D02*
X130230269Y-84001610D01*
X130179260Y-84253500D01*
X130179260Y-84271505D01*
X130068396Y-82933359D01*
X130354500Y-82926762D01*
X130354500Y-83819792D01*
X130354500Y-83819792D01*
G37*
X130354500Y-83819792D02*
X130230269Y-84001610D01*
X130179260Y-84253500D01*
X130179260Y-84271505D01*
X130068396Y-82933359D01*
X130354500Y-82926762D01*
X130354500Y-83819792D01*
G36*
X130179260Y-90220800D02*
X129717800Y-90220800D01*
X129717800Y-88684100D01*
X130179260Y-88684100D01*
X130179260Y-90220800D01*
X130179260Y-90220800D01*
G37*
X130179260Y-90220800D02*
X129717800Y-90220800D01*
X129717800Y-88684100D01*
X130179260Y-88684100D01*
X130179260Y-90220800D01*
G36*
X127865377Y-85940900D02*
X127681540Y-85940900D01*
X127681540Y-84391500D01*
X127887199Y-84391500D01*
X127865377Y-85940900D01*
X127865377Y-85940900D01*
G37*
X127865377Y-85940900D02*
X127681540Y-85940900D01*
X127681540Y-84391500D01*
X127887199Y-84391500D01*
X127865377Y-85940900D01*
G36*
X132398397Y-85915500D02*
X131974140Y-85915500D01*
X131974140Y-84378800D01*
X132409296Y-84378800D01*
X132398397Y-85915500D01*
X132398397Y-85915500D01*
G37*
X132398397Y-85915500D02*
X131974140Y-85915500D01*
X131974140Y-84378800D01*
X132409296Y-84378800D01*
X132398397Y-85915500D01*
G36*
X132575300Y-90233500D02*
X131974140Y-90233500D01*
X131974140Y-88696800D01*
X132575300Y-88696800D01*
X132575300Y-90233500D01*
X132575300Y-90233500D01*
G37*
X132575300Y-90233500D02*
X131974140Y-90233500D01*
X131974140Y-88696800D01*
X132575300Y-88696800D01*
X132575300Y-90233500D01*
G36*
X128526516Y-91018892D02*
X128343240Y-91449191D01*
X127655092Y-90489405D01*
X127681540Y-90358800D01*
X127681540Y-88861980D01*
X128526516Y-91018892D01*
X128526516Y-91018892D01*
G37*
X128526516Y-91018892D02*
X128343240Y-91449191D01*
X127655092Y-90489405D01*
X127681540Y-90358800D01*
X127681540Y-88861980D01*
X128526516Y-91018892D01*
G36*
X235636970Y-91193173D02*
X235454240Y-91622191D01*
X234763410Y-90658664D01*
X234787440Y-90540000D01*
X234787440Y-89138711D01*
X235636970Y-91193173D01*
X235636970Y-91193173D01*
G37*
X235636970Y-91193173D02*
X235454240Y-91622191D01*
X234763410Y-90658664D01*
X234787440Y-90540000D01*
X234787440Y-89138711D01*
X235636970Y-91193173D01*
G36*
X239686300Y-90406500D02*
X239067440Y-90406500D01*
X239067440Y-88869800D01*
X239686300Y-88869800D01*
X239686300Y-90406500D01*
X239686300Y-90406500D01*
G37*
X239686300Y-90406500D02*
X239067440Y-90406500D01*
X239067440Y-88869800D01*
X239686300Y-88869800D01*
X239686300Y-90406500D01*
G36*
X239519397Y-86138500D02*
X239087440Y-86138500D01*
X239087440Y-84601800D01*
X239530296Y-84601800D01*
X239519397Y-86138500D01*
X239519397Y-86138500D01*
G37*
X239519397Y-86138500D02*
X239087440Y-86138500D01*
X239087440Y-84601800D01*
X239530296Y-84601800D01*
X239519397Y-86138500D01*
G36*
X232992560Y-90540000D02*
X233036838Y-90775317D01*
X233144799Y-90943093D01*
X233145299Y-91036803D01*
X231545600Y-91529861D01*
X231545600Y-90816563D01*
X232476753Y-88888651D01*
X232992560Y-88881175D01*
X232992560Y-90540000D01*
X232992560Y-90540000D01*
G37*
X232992560Y-90540000D02*
X233036838Y-90775317D01*
X233144799Y-90943093D01*
X233145299Y-91036803D01*
X231545600Y-91529861D01*
X231545600Y-90816563D01*
X232476753Y-88888651D01*
X232992560Y-88881175D01*
X232992560Y-90540000D01*
G36*
X237272560Y-90393800D02*
X236828800Y-90393800D01*
X236828800Y-88857100D01*
X237272560Y-88857100D01*
X237272560Y-90393800D01*
X237272560Y-90393800D01*
G37*
X237272560Y-90393800D02*
X236828800Y-90393800D01*
X236828800Y-88857100D01*
X237272560Y-88857100D01*
X237272560Y-90393800D01*
G36*
X237435500Y-84083564D02*
X237343569Y-84218110D01*
X237292560Y-84470000D01*
X237292560Y-84642194D01*
X237150986Y-83146322D01*
X237435500Y-83139762D01*
X237435500Y-84083564D01*
X237435500Y-84083564D01*
G37*
X237435500Y-84083564D02*
X237343569Y-84218110D01*
X237292560Y-84470000D01*
X237292560Y-84642194D01*
X237150986Y-83146322D01*
X237435500Y-83139762D01*
X237435500Y-84083564D01*
G36*
X183402560Y-90421900D02*
X182966000Y-90421900D01*
X182966000Y-88885200D01*
X183402560Y-88885200D01*
X183402560Y-90421900D01*
X183402560Y-90421900D01*
G37*
X183402560Y-90421900D02*
X182966000Y-90421900D01*
X182966000Y-88885200D01*
X183402560Y-88885200D01*
X183402560Y-90421900D01*
G36*
X181754518Y-91220456D02*
X181571440Y-91650291D01*
X180865919Y-90666274D01*
X180887440Y-90560000D01*
X180887440Y-89050667D01*
X181754518Y-91220456D01*
X181754518Y-91220456D01*
G37*
X181754518Y-91220456D02*
X181571440Y-91650291D01*
X180865919Y-90666274D01*
X180887440Y-90560000D01*
X180887440Y-89050667D01*
X181754518Y-91220456D01*
G36*
X73250325Y-84187714D02*
X73147769Y-84337810D01*
X73096760Y-84589700D01*
X73096760Y-86273000D01*
X73047000Y-86273000D01*
X73047000Y-83507000D01*
X73252579Y-83507000D01*
X73250325Y-84187714D01*
X73250325Y-84187714D01*
G37*
X73250325Y-84187714D02*
X73147769Y-84337810D01*
X73096760Y-84589700D01*
X73096760Y-86273000D01*
X73047000Y-86273000D01*
X73047000Y-83507000D01*
X73252579Y-83507000D01*
X73250325Y-84187714D01*
G36*
X68796760Y-86273000D02*
X68376300Y-86273000D01*
X68367704Y-84717000D01*
X68796760Y-84717000D01*
X68796760Y-86273000D01*
X68796760Y-86273000D01*
G37*
X68796760Y-86273000D02*
X68376300Y-86273000D01*
X68367704Y-84717000D01*
X68796760Y-84717000D01*
X68796760Y-86273000D01*
G36*
X70794403Y-86263000D02*
X70591640Y-86263000D01*
X70591640Y-84717000D01*
X70811581Y-84717000D01*
X70794403Y-86263000D01*
X70794403Y-86263000D01*
G37*
X70794403Y-86263000D02*
X70591640Y-86263000D01*
X70591640Y-84717000D01*
X70811581Y-84717000D01*
X70794403Y-86263000D01*
G36*
X179112560Y-86143000D02*
X178676296Y-86143000D01*
X178667707Y-84597000D01*
X179112560Y-84597000D01*
X179112560Y-86143000D01*
X179112560Y-86143000D01*
G37*
X179112560Y-86143000D02*
X178676296Y-86143000D01*
X178667707Y-84597000D01*
X179112560Y-84597000D01*
X179112560Y-86143000D01*
G36*
X181113000Y-86143000D02*
X180907440Y-86143000D01*
X180907440Y-84597000D01*
X181113000Y-84597000D01*
X181113000Y-86143000D01*
X181113000Y-86143000D01*
G37*
X181113000Y-86143000D02*
X180907440Y-86143000D01*
X180907440Y-84597000D01*
X181113000Y-84597000D01*
X181113000Y-86143000D01*
G36*
X183533000Y-84072588D02*
X183433569Y-84218110D01*
X183382560Y-84470000D01*
X183382560Y-86037808D01*
X183236426Y-85846322D01*
X183198717Y-83037000D01*
X183533000Y-83037000D01*
X183533000Y-84072588D01*
X183533000Y-84072588D01*
G37*
X183533000Y-84072588D02*
X183433569Y-84218110D01*
X183382560Y-84470000D01*
X183382560Y-86037808D01*
X183236426Y-85846322D01*
X183198717Y-83037000D01*
X183533000Y-83037000D01*
X183533000Y-84072588D01*
G36*
X185623000Y-86143000D02*
X185177440Y-86143000D01*
X185177440Y-84597000D01*
X185623000Y-84597000D01*
X185623000Y-86143000D01*
X185623000Y-86143000D01*
G37*
X185623000Y-86143000D02*
X185177440Y-86143000D01*
X185177440Y-84597000D01*
X185623000Y-84597000D01*
X185623000Y-86143000D01*
G36*
X185633000Y-90433000D02*
X185197440Y-90433000D01*
X185197440Y-88887000D01*
X185633000Y-88887000D01*
X185633000Y-90433000D01*
X185633000Y-90433000D01*
G37*
X185633000Y-90433000D02*
X185197440Y-90433000D01*
X185197440Y-88887000D01*
X185633000Y-88887000D01*
X185633000Y-90433000D01*
G36*
X232992560Y-86133000D02*
X232567000Y-86133000D01*
X232567000Y-84587000D01*
X232992560Y-84587000D01*
X232992560Y-86133000D01*
X232992560Y-86133000D01*
G37*
X232992560Y-86133000D02*
X232567000Y-86133000D01*
X232567000Y-84587000D01*
X232992560Y-84587000D01*
X232992560Y-86133000D01*
G36*
X235073000Y-86133000D02*
X234787440Y-86133000D01*
X234787440Y-84587000D01*
X235073000Y-84587000D01*
X235073000Y-86133000D01*
X235073000Y-86133000D01*
G37*
X235073000Y-86133000D02*
X234787440Y-86133000D01*
X234787440Y-84587000D01*
X235073000Y-84587000D01*
X235073000Y-86133000D01*
G36*
X125886660Y-90358800D02*
X125930938Y-90594117D01*
X126047191Y-90774779D01*
X126047754Y-90862711D01*
X124448100Y-91520103D01*
X124448100Y-90633507D01*
X125379038Y-88687000D01*
X125886660Y-88687000D01*
X125886660Y-90358800D01*
X125886660Y-90358800D01*
G37*
X125886660Y-90358800D02*
X125930938Y-90594117D01*
X126047191Y-90774779D01*
X126047754Y-90862711D01*
X124448100Y-91520103D01*
X124448100Y-90633507D01*
X125379038Y-88687000D01*
X125886660Y-88687000D01*
X125886660Y-90358800D01*
G36*
X179092560Y-90560000D02*
X179136838Y-90795317D01*
X179241994Y-90958734D01*
X179242503Y-91054901D01*
X177642800Y-91547961D01*
X177642800Y-90834407D01*
X178574290Y-88886746D01*
X179092560Y-88879234D01*
X179092560Y-90560000D01*
X179092560Y-90560000D01*
G37*
X179092560Y-90560000D02*
X179136838Y-90795317D01*
X179241994Y-90958734D01*
X179242503Y-91054901D01*
X177642800Y-91547961D01*
X177642800Y-90834407D01*
X178574290Y-88886746D01*
X179092560Y-88879234D01*
X179092560Y-90560000D01*
G36*
X269955000Y-104315000D02*
X41325000Y-104315000D01*
X41325000Y-90297440D01*
X43555354Y-90297440D01*
X43532560Y-90410000D01*
X43532560Y-92190000D01*
X43576838Y-92425317D01*
X43715910Y-92641441D01*
X43928110Y-92786431D01*
X44180000Y-92837440D01*
X50150000Y-92837440D01*
X50385317Y-92793162D01*
X50601441Y-92654090D01*
X50746431Y-92441890D01*
X50756640Y-92391479D01*
X55729157Y-92486169D01*
X56583242Y-93340253D01*
X56583244Y-93340256D01*
X56825097Y-93501856D01*
X56919023Y-93564615D01*
X57315100Y-93643401D01*
X57315105Y-93643400D01*
X65863000Y-93643400D01*
X65863000Y-94910000D01*
X65873006Y-94959410D01*
X65901447Y-95001035D01*
X65943841Y-95028315D01*
X65990000Y-95037000D01*
X77300000Y-95037000D01*
X77349410Y-95026994D01*
X77391035Y-94998553D01*
X77418315Y-94956159D01*
X77427000Y-94910000D01*
X77427000Y-94087900D01*
X83083395Y-94087900D01*
X83083400Y-94087901D01*
X83479477Y-94009115D01*
X83815256Y-93784756D01*
X85493311Y-92106700D01*
X122533000Y-92106700D01*
X122533000Y-94150000D01*
X122543006Y-94199410D01*
X122571447Y-94241035D01*
X122613841Y-94268315D01*
X122660000Y-94277000D01*
X134590000Y-94277000D01*
X134639410Y-94266994D01*
X134681035Y-94238553D01*
X134708315Y-94196159D01*
X134717000Y-94150000D01*
X134717000Y-94100600D01*
X166974395Y-94100600D01*
X166974400Y-94100601D01*
X167370477Y-94021815D01*
X167706256Y-93797456D01*
X169678711Y-91825000D01*
X176453000Y-91825000D01*
X176453000Y-95000000D01*
X176463006Y-95049410D01*
X176491447Y-95091035D01*
X176533841Y-95118315D01*
X176580000Y-95127000D01*
X187650000Y-95127000D01*
X187699410Y-95116994D01*
X187741035Y-95088553D01*
X187768315Y-95046159D01*
X187777000Y-95000000D01*
X187777000Y-93805000D01*
X230099995Y-93805000D01*
X230100000Y-93805001D01*
X230153000Y-93794458D01*
X230153000Y-94940000D01*
X230163006Y-94989410D01*
X230191447Y-95031035D01*
X230233841Y-95058315D01*
X230280000Y-95067000D01*
X241630000Y-95067000D01*
X241679410Y-95056994D01*
X241721035Y-95028553D01*
X241748315Y-94986159D01*
X241757000Y-94940000D01*
X241757000Y-93765000D01*
X241879995Y-93765000D01*
X241880000Y-93765001D01*
X242276077Y-93686215D01*
X242611856Y-93461856D01*
X243868711Y-92205000D01*
X261969844Y-92205000D01*
X261986838Y-92295317D01*
X262125910Y-92511441D01*
X262338110Y-92656431D01*
X262590000Y-92707440D01*
X268560000Y-92707440D01*
X268795317Y-92663162D01*
X269011441Y-92524090D01*
X269156431Y-92311890D01*
X269207440Y-92060000D01*
X269207440Y-90280000D01*
X269163162Y-90044683D01*
X269024090Y-89828559D01*
X268811890Y-89683569D01*
X268560000Y-89632560D01*
X266254646Y-89632560D01*
X266277440Y-89520000D01*
X266277440Y-87740000D01*
X266256260Y-87627440D01*
X268560000Y-87627440D01*
X268795317Y-87583162D01*
X269011441Y-87444090D01*
X269156431Y-87231890D01*
X269207440Y-86980000D01*
X269207440Y-85200000D01*
X269163162Y-84964683D01*
X269024090Y-84748559D01*
X268811890Y-84603569D01*
X268560000Y-84552560D01*
X266254646Y-84552560D01*
X266277440Y-84440000D01*
X266277440Y-82660000D01*
X266233162Y-82424683D01*
X266094090Y-82208559D01*
X265881890Y-82063569D01*
X265630000Y-82012560D01*
X259660000Y-82012560D01*
X259424683Y-82056838D01*
X259208559Y-82195910D01*
X259063569Y-82408110D01*
X259041923Y-82515000D01*
X241757000Y-82515000D01*
X241757000Y-81190000D01*
X241746994Y-81140590D01*
X241718553Y-81098965D01*
X241676159Y-81071685D01*
X241630000Y-81063000D01*
X230280000Y-81063000D01*
X230230590Y-81073006D01*
X230188965Y-81101447D01*
X230161685Y-81143841D01*
X230153000Y-81190000D01*
X230153000Y-81465000D01*
X194060005Y-81465000D01*
X194060000Y-81464999D01*
X193663923Y-81543785D01*
X193328144Y-81768144D01*
X193328142Y-81768147D01*
X190761288Y-84335000D01*
X187777000Y-84335000D01*
X187777000Y-80970000D01*
X187766994Y-80920590D01*
X187738553Y-80878965D01*
X187696159Y-80851685D01*
X187650000Y-80843000D01*
X176580000Y-80843000D01*
X176530590Y-80853006D01*
X176488965Y-80881447D01*
X176461685Y-80923841D01*
X176453000Y-80970000D01*
X176453000Y-82285000D01*
X165850005Y-82285000D01*
X165850000Y-82284999D01*
X165487415Y-82357123D01*
X165453923Y-82363785D01*
X165118144Y-82588144D01*
X165118142Y-82588147D01*
X164133888Y-83572400D01*
X134717000Y-83572400D01*
X134717000Y-80370000D01*
X134706994Y-80320590D01*
X134678553Y-80278965D01*
X134636159Y-80251685D01*
X134590000Y-80243000D01*
X129522299Y-80243000D01*
X129301077Y-80095185D01*
X128905000Y-80016399D01*
X128904995Y-80016400D01*
X118884700Y-80016400D01*
X118488623Y-80095185D01*
X118152844Y-80319544D01*
X118152842Y-80319547D01*
X116754188Y-81718200D01*
X82118547Y-81718200D01*
X82054700Y-81705500D01*
X77787505Y-81705500D01*
X77787500Y-81705499D01*
X77427000Y-81777208D01*
X77427000Y-81030000D01*
X77416994Y-80980590D01*
X77388553Y-80938965D01*
X77346159Y-80911685D01*
X77300000Y-80903000D01*
X65990000Y-80903000D01*
X65940590Y-80913006D01*
X65898965Y-80941447D01*
X65871685Y-80983841D01*
X65863000Y-81030000D01*
X65863000Y-81654700D01*
X64287405Y-81654700D01*
X64287400Y-81654699D01*
X63891323Y-81733485D01*
X63555544Y-81957844D01*
X62634022Y-82879366D01*
X47852320Y-82709644D01*
X47823162Y-82554683D01*
X47684090Y-82338559D01*
X47471890Y-82193569D01*
X47220000Y-82142560D01*
X41325000Y-82142560D01*
X41325000Y-80087440D01*
X47240000Y-80087440D01*
X47475317Y-80043162D01*
X47691441Y-79904090D01*
X47836431Y-79691890D01*
X47878327Y-79485000D01*
X51990000Y-79485000D01*
X52347809Y-79413827D01*
X52651145Y-79211145D01*
X53277290Y-78585000D01*
X151718808Y-78585000D01*
X151825910Y-78751441D01*
X152038110Y-78896431D01*
X152290000Y-78947440D01*
X152990000Y-78947440D01*
X153225317Y-78903162D01*
X153441441Y-78764090D01*
X153586431Y-78551890D01*
X153589081Y-78538803D01*
X153605000Y-78563542D01*
X153605000Y-81520000D01*
X153676173Y-81877809D01*
X153692560Y-81902334D01*
X153692560Y-82220000D01*
X153736838Y-82455317D01*
X153875910Y-82671441D01*
X154088110Y-82816431D01*
X154340000Y-82867440D01*
X155140000Y-82867440D01*
X155375317Y-82823162D01*
X155591441Y-82684090D01*
X155736431Y-82471890D01*
X155787440Y-82220000D01*
X155787440Y-81220000D01*
X155743162Y-80984683D01*
X155604090Y-80768559D01*
X155475000Y-80680356D01*
X155475000Y-78568620D01*
X155486431Y-78551890D01*
X155537440Y-78300000D01*
X155537440Y-77847164D01*
X155603827Y-77747809D01*
X155675000Y-77390000D01*
X155603827Y-77032191D01*
X155519848Y-76906507D01*
X155493162Y-76764683D01*
X155475000Y-76736458D01*
X155475000Y-76160000D01*
X155403827Y-75802191D01*
X155201145Y-75498855D01*
X155051145Y-75348855D01*
X154747809Y-75146173D01*
X154390000Y-75075000D01*
X50808973Y-75075000D01*
X50773162Y-74884683D01*
X50634090Y-74668559D01*
X50421890Y-74523569D01*
X50170000Y-74472560D01*
X44200000Y-74472560D01*
X43964683Y-74516838D01*
X43748559Y-74655910D01*
X43603569Y-74868110D01*
X43552560Y-75120000D01*
X43552560Y-76900000D01*
X43573740Y-77012560D01*
X41325000Y-77012560D01*
X41325000Y-70685000D01*
X269955000Y-70685000D01*
X269955000Y-104315000D01*
X269955000Y-104315000D01*
G37*
X269955000Y-104315000D02*
X41325000Y-104315000D01*
X41325000Y-90297440D01*
X43555354Y-90297440D01*
X43532560Y-90410000D01*
X43532560Y-92190000D01*
X43576838Y-92425317D01*
X43715910Y-92641441D01*
X43928110Y-92786431D01*
X44180000Y-92837440D01*
X50150000Y-92837440D01*
X50385317Y-92793162D01*
X50601441Y-92654090D01*
X50746431Y-92441890D01*
X50756640Y-92391479D01*
X55729157Y-92486169D01*
X56583242Y-93340253D01*
X56583244Y-93340256D01*
X56825097Y-93501856D01*
X56919023Y-93564615D01*
X57315100Y-93643401D01*
X57315105Y-93643400D01*
X65863000Y-93643400D01*
X65863000Y-94910000D01*
X65873006Y-94959410D01*
X65901447Y-95001035D01*
X65943841Y-95028315D01*
X65990000Y-95037000D01*
X77300000Y-95037000D01*
X77349410Y-95026994D01*
X77391035Y-94998553D01*
X77418315Y-94956159D01*
X77427000Y-94910000D01*
X77427000Y-94087900D01*
X83083395Y-94087900D01*
X83083400Y-94087901D01*
X83479477Y-94009115D01*
X83815256Y-93784756D01*
X85493311Y-92106700D01*
X122533000Y-92106700D01*
X122533000Y-94150000D01*
X122543006Y-94199410D01*
X122571447Y-94241035D01*
X122613841Y-94268315D01*
X122660000Y-94277000D01*
X134590000Y-94277000D01*
X134639410Y-94266994D01*
X134681035Y-94238553D01*
X134708315Y-94196159D01*
X134717000Y-94150000D01*
X134717000Y-94100600D01*
X166974395Y-94100600D01*
X166974400Y-94100601D01*
X167370477Y-94021815D01*
X167706256Y-93797456D01*
X169678711Y-91825000D01*
X176453000Y-91825000D01*
X176453000Y-95000000D01*
X176463006Y-95049410D01*
X176491447Y-95091035D01*
X176533841Y-95118315D01*
X176580000Y-95127000D01*
X187650000Y-95127000D01*
X187699410Y-95116994D01*
X187741035Y-95088553D01*
X187768315Y-95046159D01*
X187777000Y-95000000D01*
X187777000Y-93805000D01*
X230099995Y-93805000D01*
X230100000Y-93805001D01*
X230153000Y-93794458D01*
X230153000Y-94940000D01*
X230163006Y-94989410D01*
X230191447Y-95031035D01*
X230233841Y-95058315D01*
X230280000Y-95067000D01*
X241630000Y-95067000D01*
X241679410Y-95056994D01*
X241721035Y-95028553D01*
X241748315Y-94986159D01*
X241757000Y-94940000D01*
X241757000Y-93765000D01*
X241879995Y-93765000D01*
X241880000Y-93765001D01*
X242276077Y-93686215D01*
X242611856Y-93461856D01*
X243868711Y-92205000D01*
X261969844Y-92205000D01*
X261986838Y-92295317D01*
X262125910Y-92511441D01*
X262338110Y-92656431D01*
X262590000Y-92707440D01*
X268560000Y-92707440D01*
X268795317Y-92663162D01*
X269011441Y-92524090D01*
X269156431Y-92311890D01*
X269207440Y-92060000D01*
X269207440Y-90280000D01*
X269163162Y-90044683D01*
X269024090Y-89828559D01*
X268811890Y-89683569D01*
X268560000Y-89632560D01*
X266254646Y-89632560D01*
X266277440Y-89520000D01*
X266277440Y-87740000D01*
X266256260Y-87627440D01*
X268560000Y-87627440D01*
X268795317Y-87583162D01*
X269011441Y-87444090D01*
X269156431Y-87231890D01*
X269207440Y-86980000D01*
X269207440Y-85200000D01*
X269163162Y-84964683D01*
X269024090Y-84748559D01*
X268811890Y-84603569D01*
X268560000Y-84552560D01*
X266254646Y-84552560D01*
X266277440Y-84440000D01*
X266277440Y-82660000D01*
X266233162Y-82424683D01*
X266094090Y-82208559D01*
X265881890Y-82063569D01*
X265630000Y-82012560D01*
X259660000Y-82012560D01*
X259424683Y-82056838D01*
X259208559Y-82195910D01*
X259063569Y-82408110D01*
X259041923Y-82515000D01*
X241757000Y-82515000D01*
X241757000Y-81190000D01*
X241746994Y-81140590D01*
X241718553Y-81098965D01*
X241676159Y-81071685D01*
X241630000Y-81063000D01*
X230280000Y-81063000D01*
X230230590Y-81073006D01*
X230188965Y-81101447D01*
X230161685Y-81143841D01*
X230153000Y-81190000D01*
X230153000Y-81465000D01*
X194060005Y-81465000D01*
X194060000Y-81464999D01*
X193663923Y-81543785D01*
X193328144Y-81768144D01*
X193328142Y-81768147D01*
X190761288Y-84335000D01*
X187777000Y-84335000D01*
X187777000Y-80970000D01*
X187766994Y-80920590D01*
X187738553Y-80878965D01*
X187696159Y-80851685D01*
X187650000Y-80843000D01*
X176580000Y-80843000D01*
X176530590Y-80853006D01*
X176488965Y-80881447D01*
X176461685Y-80923841D01*
X176453000Y-80970000D01*
X176453000Y-82285000D01*
X165850005Y-82285000D01*
X165850000Y-82284999D01*
X165487415Y-82357123D01*
X165453923Y-82363785D01*
X165118144Y-82588144D01*
X165118142Y-82588147D01*
X164133888Y-83572400D01*
X134717000Y-83572400D01*
X134717000Y-80370000D01*
X134706994Y-80320590D01*
X134678553Y-80278965D01*
X134636159Y-80251685D01*
X134590000Y-80243000D01*
X129522299Y-80243000D01*
X129301077Y-80095185D01*
X128905000Y-80016399D01*
X128904995Y-80016400D01*
X118884700Y-80016400D01*
X118488623Y-80095185D01*
X118152844Y-80319544D01*
X118152842Y-80319547D01*
X116754188Y-81718200D01*
X82118547Y-81718200D01*
X82054700Y-81705500D01*
X77787505Y-81705500D01*
X77787500Y-81705499D01*
X77427000Y-81777208D01*
X77427000Y-81030000D01*
X77416994Y-80980590D01*
X77388553Y-80938965D01*
X77346159Y-80911685D01*
X77300000Y-80903000D01*
X65990000Y-80903000D01*
X65940590Y-80913006D01*
X65898965Y-80941447D01*
X65871685Y-80983841D01*
X65863000Y-81030000D01*
X65863000Y-81654700D01*
X64287405Y-81654700D01*
X64287400Y-81654699D01*
X63891323Y-81733485D01*
X63555544Y-81957844D01*
X62634022Y-82879366D01*
X47852320Y-82709644D01*
X47823162Y-82554683D01*
X47684090Y-82338559D01*
X47471890Y-82193569D01*
X47220000Y-82142560D01*
X41325000Y-82142560D01*
X41325000Y-80087440D01*
X47240000Y-80087440D01*
X47475317Y-80043162D01*
X47691441Y-79904090D01*
X47836431Y-79691890D01*
X47878327Y-79485000D01*
X51990000Y-79485000D01*
X52347809Y-79413827D01*
X52651145Y-79211145D01*
X53277290Y-78585000D01*
X151718808Y-78585000D01*
X151825910Y-78751441D01*
X152038110Y-78896431D01*
X152290000Y-78947440D01*
X152990000Y-78947440D01*
X153225317Y-78903162D01*
X153441441Y-78764090D01*
X153586431Y-78551890D01*
X153589081Y-78538803D01*
X153605000Y-78563542D01*
X153605000Y-81520000D01*
X153676173Y-81877809D01*
X153692560Y-81902334D01*
X153692560Y-82220000D01*
X153736838Y-82455317D01*
X153875910Y-82671441D01*
X154088110Y-82816431D01*
X154340000Y-82867440D01*
X155140000Y-82867440D01*
X155375317Y-82823162D01*
X155591441Y-82684090D01*
X155736431Y-82471890D01*
X155787440Y-82220000D01*
X155787440Y-81220000D01*
X155743162Y-80984683D01*
X155604090Y-80768559D01*
X155475000Y-80680356D01*
X155475000Y-78568620D01*
X155486431Y-78551890D01*
X155537440Y-78300000D01*
X155537440Y-77847164D01*
X155603827Y-77747809D01*
X155675000Y-77390000D01*
X155603827Y-77032191D01*
X155519848Y-76906507D01*
X155493162Y-76764683D01*
X155475000Y-76736458D01*
X155475000Y-76160000D01*
X155403827Y-75802191D01*
X155201145Y-75498855D01*
X155051145Y-75348855D01*
X154747809Y-75146173D01*
X154390000Y-75075000D01*
X50808973Y-75075000D01*
X50773162Y-74884683D01*
X50634090Y-74668559D01*
X50421890Y-74523569D01*
X50170000Y-74472560D01*
X44200000Y-74472560D01*
X43964683Y-74516838D01*
X43748559Y-74655910D01*
X43603569Y-74868110D01*
X43552560Y-75120000D01*
X43552560Y-76900000D01*
X43573740Y-77012560D01*
X41325000Y-77012560D01*
X41325000Y-70685000D01*
X269955000Y-70685000D01*
X269955000Y-104315000D01*
M02*
