G04 #@! TF.FileFunction,Legend,Top*
%FSLAX46Y46*%
G04 Gerber Fmt 4.6, Leading zero omitted, Abs format (unit mm)*
G04 Created by KiCad (PCBNEW 4.0.2-stable) date Vendredi 01 juillet 2016 23:27:03*
%MOMM*%
G01*
G04 APERTURE LIST*
%ADD10C,0.100000*%
%ADD11C,0.200000*%
%ADD12C,0.150000*%
G04 APERTURE END LIST*
D10*
D11*
X89212084Y-87500000D02*
G75*
G03X89212084Y-87500000I-17492084J0D01*
G01*
X146897901Y-87500000D02*
G75*
G03X146897901Y-87500000I-17507901J0D01*
G01*
X253839184Y-87500000D02*
G75*
G03X253839184Y-87500000I-17579184J0D01*
G01*
X199707901Y-87500000D02*
G75*
G03X199707901Y-87500000I-17507901J0D01*
G01*
X178648900Y-91000000D02*
X178648900Y-84000000D01*
X185648900Y-91000000D02*
X178648900Y-91000000D01*
X185648900Y-84000000D02*
X185648900Y-91000000D01*
X178648900Y-84000000D02*
X185648900Y-84000000D01*
X232541700Y-91000000D02*
X232541700Y-84000000D01*
X239541700Y-91000000D02*
X232541700Y-91000000D01*
X239541700Y-84000000D02*
X239541700Y-91000000D01*
X232541700Y-84000000D02*
X239541700Y-84000000D01*
X42235200Y-87500000D02*
X276235200Y-87500000D01*
X182308600Y-99949000D02*
X235638600Y-99949000D01*
X128955900Y-100977700D02*
X182285900Y-100977700D01*
X75615900Y-99923600D02*
X128945900Y-99923600D01*
X125430700Y-90809500D02*
X125430700Y-83809500D01*
X132430700Y-90809500D02*
X125430700Y-90809500D01*
X132430700Y-83809500D02*
X132430700Y-90809500D01*
X125430700Y-83809500D02*
X132430700Y-83809500D01*
X68344200Y-91139700D02*
X68344200Y-84139700D01*
X75344200Y-91139700D02*
X68344200Y-91139700D01*
X75344200Y-84139700D02*
X75344200Y-91139700D01*
X68344200Y-84139700D02*
X75344200Y-84139700D01*
D12*
X156125000Y-74650000D02*
X156125000Y-73450000D01*
X157875000Y-73450000D02*
X157875000Y-74650000D01*
X155127200Y-81102400D02*
X156727200Y-81102400D01*
X155127200Y-82321600D02*
X156727200Y-82321600D01*
X75354200Y-85489700D02*
X75834200Y-85489700D01*
X72114200Y-85489700D02*
X72644200Y-85489700D01*
X72374200Y-85239700D02*
X72374200Y-85749700D01*
X72844200Y-84339700D02*
X72844200Y-86639700D01*
X72844200Y-86639700D02*
X75144200Y-86639700D01*
X75144200Y-86639700D02*
X75144200Y-84339700D01*
X75144200Y-84339700D02*
X72844200Y-84339700D01*
X71054200Y-85489700D02*
X71534200Y-85489700D01*
X67814200Y-85489700D02*
X68344200Y-85489700D01*
X68074200Y-85239700D02*
X68074200Y-85749700D01*
X68544200Y-84339700D02*
X68544200Y-86639700D01*
X68544200Y-86639700D02*
X70844200Y-86639700D01*
X70844200Y-86639700D02*
X70844200Y-84339700D01*
X70844200Y-84339700D02*
X68544200Y-84339700D01*
X75354200Y-89789700D02*
X75834200Y-89789700D01*
X72114200Y-89789700D02*
X72644200Y-89789700D01*
X72374200Y-89539700D02*
X72374200Y-90049700D01*
X72844200Y-88639700D02*
X72844200Y-90939700D01*
X72844200Y-90939700D02*
X75144200Y-90939700D01*
X75144200Y-90939700D02*
X75144200Y-88639700D01*
X75144200Y-88639700D02*
X72844200Y-88639700D01*
X71054200Y-89789700D02*
X71534200Y-89789700D01*
X67814200Y-89789700D02*
X68344200Y-89789700D01*
X68074200Y-89539700D02*
X68074200Y-90049700D01*
X68544200Y-88639700D02*
X68544200Y-90939700D01*
X68544200Y-90939700D02*
X70844200Y-90939700D01*
X70844200Y-90939700D02*
X70844200Y-88639700D01*
X70844200Y-88639700D02*
X68544200Y-88639700D01*
X132436700Y-85153500D02*
X132916700Y-85153500D01*
X129196700Y-85153500D02*
X129726700Y-85153500D01*
X129456700Y-84903500D02*
X129456700Y-85413500D01*
X129926700Y-84003500D02*
X129926700Y-86303500D01*
X129926700Y-86303500D02*
X132226700Y-86303500D01*
X132226700Y-86303500D02*
X132226700Y-84003500D01*
X132226700Y-84003500D02*
X129926700Y-84003500D01*
X128144100Y-85153500D02*
X128624100Y-85153500D01*
X124904100Y-85153500D02*
X125434100Y-85153500D01*
X125164100Y-84903500D02*
X125164100Y-85413500D01*
X125634100Y-84003500D02*
X125634100Y-86303500D01*
X125634100Y-86303500D02*
X127934100Y-86303500D01*
X127934100Y-86303500D02*
X127934100Y-84003500D01*
X127934100Y-84003500D02*
X125634100Y-84003500D01*
X132436700Y-89458800D02*
X132916700Y-89458800D01*
X129196700Y-89458800D02*
X129726700Y-89458800D01*
X129456700Y-89208800D02*
X129456700Y-89718800D01*
X129926700Y-88308800D02*
X129926700Y-90608800D01*
X129926700Y-90608800D02*
X132226700Y-90608800D01*
X132226700Y-90608800D02*
X132226700Y-88308800D01*
X132226700Y-88308800D02*
X129926700Y-88308800D01*
X128144100Y-89458800D02*
X128624100Y-89458800D01*
X124904100Y-89458800D02*
X125434100Y-89458800D01*
X125164100Y-89208800D02*
X125164100Y-89718800D01*
X125634100Y-88308800D02*
X125634100Y-90608800D01*
X125634100Y-90608800D02*
X127934100Y-90608800D01*
X127934100Y-90608800D02*
X127934100Y-88308800D01*
X127934100Y-88308800D02*
X125634100Y-88308800D01*
X185640000Y-85370000D02*
X186120000Y-85370000D01*
X182400000Y-85370000D02*
X182930000Y-85370000D01*
X182660000Y-85120000D02*
X182660000Y-85630000D01*
X183130000Y-84220000D02*
X183130000Y-86520000D01*
X183130000Y-86520000D02*
X185430000Y-86520000D01*
X185430000Y-86520000D02*
X185430000Y-84220000D01*
X185430000Y-84220000D02*
X183130000Y-84220000D01*
X181370000Y-85370000D02*
X181850000Y-85370000D01*
X178130000Y-85370000D02*
X178660000Y-85370000D01*
X178390000Y-85120000D02*
X178390000Y-85630000D01*
X178860000Y-84220000D02*
X178860000Y-86520000D01*
X178860000Y-86520000D02*
X181160000Y-86520000D01*
X181160000Y-86520000D02*
X181160000Y-84220000D01*
X181160000Y-84220000D02*
X178860000Y-84220000D01*
X185660000Y-89660000D02*
X186140000Y-89660000D01*
X182420000Y-89660000D02*
X182950000Y-89660000D01*
X182680000Y-89410000D02*
X182680000Y-89920000D01*
X183150000Y-88510000D02*
X183150000Y-90810000D01*
X183150000Y-90810000D02*
X185450000Y-90810000D01*
X185450000Y-90810000D02*
X185450000Y-88510000D01*
X185450000Y-88510000D02*
X183150000Y-88510000D01*
X181350000Y-89660000D02*
X181830000Y-89660000D01*
X178110000Y-89660000D02*
X178640000Y-89660000D01*
X178370000Y-89410000D02*
X178370000Y-89920000D01*
X178840000Y-88510000D02*
X178840000Y-90810000D01*
X178840000Y-90810000D02*
X181140000Y-90810000D01*
X181140000Y-90810000D02*
X181140000Y-88510000D01*
X181140000Y-88510000D02*
X178840000Y-88510000D01*
X239550000Y-85370000D02*
X240030000Y-85370000D01*
X236310000Y-85370000D02*
X236840000Y-85370000D01*
X236570000Y-85120000D02*
X236570000Y-85630000D01*
X237040000Y-84220000D02*
X237040000Y-86520000D01*
X237040000Y-86520000D02*
X239340000Y-86520000D01*
X239340000Y-86520000D02*
X239340000Y-84220000D01*
X239340000Y-84220000D02*
X237040000Y-84220000D01*
X235250000Y-85360000D02*
X235730000Y-85360000D01*
X232010000Y-85360000D02*
X232540000Y-85360000D01*
X232270000Y-85110000D02*
X232270000Y-85620000D01*
X232740000Y-84210000D02*
X232740000Y-86510000D01*
X232740000Y-86510000D02*
X235040000Y-86510000D01*
X235040000Y-86510000D02*
X235040000Y-84210000D01*
X235040000Y-84210000D02*
X232740000Y-84210000D01*
X239530000Y-89630000D02*
X240010000Y-89630000D01*
X236290000Y-89630000D02*
X236820000Y-89630000D01*
X236550000Y-89380000D02*
X236550000Y-89890000D01*
X237020000Y-88480000D02*
X237020000Y-90780000D01*
X237020000Y-90780000D02*
X239320000Y-90780000D01*
X239320000Y-90780000D02*
X239320000Y-88480000D01*
X239320000Y-88480000D02*
X237020000Y-88480000D01*
X235250000Y-89640000D02*
X235730000Y-89640000D01*
X232010000Y-89640000D02*
X232540000Y-89640000D01*
X232270000Y-89390000D02*
X232270000Y-89900000D01*
X232740000Y-88490000D02*
X232740000Y-90790000D01*
X232740000Y-90790000D02*
X235040000Y-90790000D01*
X235040000Y-90790000D02*
X235040000Y-88490000D01*
X235040000Y-88490000D02*
X232740000Y-88490000D01*
X48875000Y-92570000D02*
X42525000Y-92570000D01*
X48875000Y-82410000D02*
X42525000Y-82410000D01*
X42525000Y-82410000D02*
X42525000Y-92570000D01*
X48875000Y-82410000D02*
X48875000Y-92570000D01*
X42545000Y-72200000D02*
X48895000Y-72200000D01*
X42545000Y-79820000D02*
X48895000Y-79820000D01*
X48895000Y-79820000D02*
X48895000Y-72200000D01*
X42545000Y-79820000D02*
X42545000Y-72200000D01*
X260935000Y-82280000D02*
X267285000Y-82280000D01*
X260935000Y-92440000D02*
X267285000Y-92440000D01*
X267285000Y-92440000D02*
X267285000Y-82280000D01*
X260935000Y-92440000D02*
X260935000Y-82280000D01*
X159552381Y-74216666D02*
X159076190Y-74550000D01*
X159552381Y-74788095D02*
X158552381Y-74788095D01*
X158552381Y-74407142D01*
X158600000Y-74311904D01*
X158647619Y-74264285D01*
X158742857Y-74216666D01*
X158885714Y-74216666D01*
X158980952Y-74264285D01*
X159028571Y-74311904D01*
X159076190Y-74407142D01*
X159076190Y-74788095D01*
X159552381Y-73264285D02*
X159552381Y-73835714D01*
X159552381Y-73550000D02*
X158552381Y-73550000D01*
X158695238Y-73645238D01*
X158790476Y-73740476D01*
X158838095Y-73835714D01*
X154654286Y-79394381D02*
X155225715Y-79394381D01*
X154940000Y-80394381D02*
X154940000Y-79394381D01*
X155559048Y-80394381D02*
X155559048Y-79394381D01*
X155559048Y-79870571D02*
X156130477Y-79870571D01*
X156130477Y-80394381D02*
X156130477Y-79394381D01*
X157130477Y-80394381D02*
X156559048Y-80394381D01*
X156844762Y-80394381D02*
X156844762Y-79394381D01*
X156749524Y-79537238D01*
X156654286Y-79632476D01*
X156559048Y-79680095D01*
X72908458Y-83050771D02*
X72908458Y-81550771D01*
X73265601Y-81550771D01*
X73479886Y-81622200D01*
X73622744Y-81765057D01*
X73694172Y-81907914D01*
X73765601Y-82193629D01*
X73765601Y-82407914D01*
X73694172Y-82693629D01*
X73622744Y-82836486D01*
X73479886Y-82979343D01*
X73265601Y-83050771D01*
X72908458Y-83050771D01*
X75194172Y-83050771D02*
X74337029Y-83050771D01*
X74765601Y-83050771D02*
X74765601Y-81550771D01*
X74622744Y-81765057D01*
X74479886Y-81907914D01*
X74337029Y-81979343D01*
X68577758Y-83101571D02*
X68577758Y-81601571D01*
X68934901Y-81601571D01*
X69149186Y-81673000D01*
X69292044Y-81815857D01*
X69363472Y-81958714D01*
X69434901Y-82244429D01*
X69434901Y-82458714D01*
X69363472Y-82744429D01*
X69292044Y-82887286D01*
X69149186Y-83030143D01*
X68934901Y-83101571D01*
X68577758Y-83101571D01*
X70006329Y-81744429D02*
X70077758Y-81673000D01*
X70220615Y-81601571D01*
X70577758Y-81601571D01*
X70720615Y-81673000D01*
X70792044Y-81744429D01*
X70863472Y-81887286D01*
X70863472Y-82030143D01*
X70792044Y-82244429D01*
X69934901Y-83101571D01*
X70863472Y-83101571D01*
X72883058Y-93604471D02*
X72883058Y-92104471D01*
X73240201Y-92104471D01*
X73454486Y-92175900D01*
X73597344Y-92318757D01*
X73668772Y-92461614D01*
X73740201Y-92747329D01*
X73740201Y-92961614D01*
X73668772Y-93247329D01*
X73597344Y-93390186D01*
X73454486Y-93533043D01*
X73240201Y-93604471D01*
X72883058Y-93604471D01*
X74240201Y-92104471D02*
X75168772Y-92104471D01*
X74668772Y-92675900D01*
X74883058Y-92675900D01*
X75025915Y-92747329D01*
X75097344Y-92818757D01*
X75168772Y-92961614D01*
X75168772Y-93318757D01*
X75097344Y-93461614D01*
X75025915Y-93533043D01*
X74883058Y-93604471D01*
X74454486Y-93604471D01*
X74311629Y-93533043D01*
X74240201Y-93461614D01*
X68552358Y-93667971D02*
X68552358Y-92167971D01*
X68909501Y-92167971D01*
X69123786Y-92239400D01*
X69266644Y-92382257D01*
X69338072Y-92525114D01*
X69409501Y-92810829D01*
X69409501Y-93025114D01*
X69338072Y-93310829D01*
X69266644Y-93453686D01*
X69123786Y-93596543D01*
X68909501Y-93667971D01*
X68552358Y-93667971D01*
X70695215Y-92667971D02*
X70695215Y-93667971D01*
X70338072Y-92096543D02*
X69980929Y-93167971D01*
X70909501Y-93167971D01*
X129880658Y-82720571D02*
X129880658Y-81220571D01*
X130237801Y-81220571D01*
X130452086Y-81292000D01*
X130594944Y-81434857D01*
X130666372Y-81577714D01*
X130737801Y-81863429D01*
X130737801Y-82077714D01*
X130666372Y-82363429D01*
X130594944Y-82506286D01*
X130452086Y-82649143D01*
X130237801Y-82720571D01*
X129880658Y-82720571D01*
X132094944Y-81220571D02*
X131380658Y-81220571D01*
X131309229Y-81934857D01*
X131380658Y-81863429D01*
X131523515Y-81792000D01*
X131880658Y-81792000D01*
X132023515Y-81863429D01*
X132094944Y-81934857D01*
X132166372Y-82077714D01*
X132166372Y-82434857D01*
X132094944Y-82577714D01*
X132023515Y-82649143D01*
X131880658Y-82720571D01*
X131523515Y-82720571D01*
X131380658Y-82649143D01*
X131309229Y-82577714D01*
X125689658Y-82657071D02*
X125689658Y-81157071D01*
X126046801Y-81157071D01*
X126261086Y-81228500D01*
X126403944Y-81371357D01*
X126475372Y-81514214D01*
X126546801Y-81799929D01*
X126546801Y-82014214D01*
X126475372Y-82299929D01*
X126403944Y-82442786D01*
X126261086Y-82585643D01*
X126046801Y-82657071D01*
X125689658Y-82657071D01*
X127832515Y-81157071D02*
X127546801Y-81157071D01*
X127403944Y-81228500D01*
X127332515Y-81299929D01*
X127189658Y-81514214D01*
X127118229Y-81799929D01*
X127118229Y-82371357D01*
X127189658Y-82514214D01*
X127261086Y-82585643D01*
X127403944Y-82657071D01*
X127689658Y-82657071D01*
X127832515Y-82585643D01*
X127903944Y-82514214D01*
X127975372Y-82371357D01*
X127975372Y-82014214D01*
X127903944Y-81871357D01*
X127832515Y-81799929D01*
X127689658Y-81728500D01*
X127403944Y-81728500D01*
X127261086Y-81799929D01*
X127189658Y-81871357D01*
X127118229Y-82014214D01*
X129994958Y-93109171D02*
X129994958Y-91609171D01*
X130352101Y-91609171D01*
X130566386Y-91680600D01*
X130709244Y-91823457D01*
X130780672Y-91966314D01*
X130852101Y-92252029D01*
X130852101Y-92466314D01*
X130780672Y-92752029D01*
X130709244Y-92894886D01*
X130566386Y-93037743D01*
X130352101Y-93109171D01*
X129994958Y-93109171D01*
X131352101Y-91609171D02*
X132352101Y-91609171D01*
X131709244Y-93109171D01*
X125664258Y-93071071D02*
X125664258Y-91571071D01*
X126021401Y-91571071D01*
X126235686Y-91642500D01*
X126378544Y-91785357D01*
X126449972Y-91928214D01*
X126521401Y-92213929D01*
X126521401Y-92428214D01*
X126449972Y-92713929D01*
X126378544Y-92856786D01*
X126235686Y-92999643D01*
X126021401Y-93071071D01*
X125664258Y-93071071D01*
X127378544Y-92213929D02*
X127235686Y-92142500D01*
X127164258Y-92071071D01*
X127092829Y-91928214D01*
X127092829Y-91856786D01*
X127164258Y-91713929D01*
X127235686Y-91642500D01*
X127378544Y-91571071D01*
X127664258Y-91571071D01*
X127807115Y-91642500D01*
X127878544Y-91713929D01*
X127949972Y-91856786D01*
X127949972Y-91928214D01*
X127878544Y-92071071D01*
X127807115Y-92142500D01*
X127664258Y-92213929D01*
X127378544Y-92213929D01*
X127235686Y-92285357D01*
X127164258Y-92356786D01*
X127092829Y-92499643D01*
X127092829Y-92785357D01*
X127164258Y-92928214D01*
X127235686Y-92999643D01*
X127378544Y-93071071D01*
X127664258Y-93071071D01*
X127807115Y-92999643D01*
X127878544Y-92928214D01*
X127949972Y-92785357D01*
X127949972Y-92499643D01*
X127878544Y-92356786D01*
X127807115Y-92285357D01*
X127664258Y-92213929D01*
X183202858Y-77328571D02*
X183202858Y-75828571D01*
X183560001Y-75828571D01*
X183774286Y-75900000D01*
X183917144Y-76042857D01*
X183988572Y-76185714D01*
X184060001Y-76471429D01*
X184060001Y-76685714D01*
X183988572Y-76971429D01*
X183917144Y-77114286D01*
X183774286Y-77257143D01*
X183560001Y-77328571D01*
X183202858Y-77328571D01*
X184774286Y-77328571D02*
X185060001Y-77328571D01*
X185202858Y-77257143D01*
X185274286Y-77185714D01*
X185417144Y-76971429D01*
X185488572Y-76685714D01*
X185488572Y-76114286D01*
X185417144Y-75971429D01*
X185345715Y-75900000D01*
X185202858Y-75828571D01*
X184917144Y-75828571D01*
X184774286Y-75900000D01*
X184702858Y-75971429D01*
X184631429Y-76114286D01*
X184631429Y-76471429D01*
X184702858Y-76614286D01*
X184774286Y-76685714D01*
X184917144Y-76757143D01*
X185202858Y-76757143D01*
X185345715Y-76685714D01*
X185417144Y-76614286D01*
X185488572Y-76471429D01*
X178218572Y-77328571D02*
X178218572Y-75828571D01*
X178575715Y-75828571D01*
X178790000Y-75900000D01*
X178932858Y-76042857D01*
X179004286Y-76185714D01*
X179075715Y-76471429D01*
X179075715Y-76685714D01*
X179004286Y-76971429D01*
X178932858Y-77114286D01*
X178790000Y-77257143D01*
X178575715Y-77328571D01*
X178218572Y-77328571D01*
X180504286Y-77328571D02*
X179647143Y-77328571D01*
X180075715Y-77328571D02*
X180075715Y-75828571D01*
X179932858Y-76042857D01*
X179790000Y-76185714D01*
X179647143Y-76257143D01*
X181432857Y-75828571D02*
X181575714Y-75828571D01*
X181718571Y-75900000D01*
X181790000Y-75971429D01*
X181861429Y-76114286D01*
X181932857Y-76400000D01*
X181932857Y-76757143D01*
X181861429Y-77042857D01*
X181790000Y-77185714D01*
X181718571Y-77257143D01*
X181575714Y-77328571D01*
X181432857Y-77328571D01*
X181290000Y-77257143D01*
X181218571Y-77185714D01*
X181147143Y-77042857D01*
X181075714Y-76757143D01*
X181075714Y-76400000D01*
X181147143Y-76114286D01*
X181218571Y-75971429D01*
X181290000Y-75900000D01*
X181432857Y-75828571D01*
X179075715Y-94258571D02*
X178361429Y-94258571D01*
X178361429Y-92758571D01*
X179575715Y-93472857D02*
X180075715Y-93472857D01*
X180290001Y-94258571D02*
X179575715Y-94258571D01*
X179575715Y-92758571D01*
X180290001Y-92758571D01*
X180932858Y-94258571D02*
X180932858Y-92758571D01*
X181290001Y-92758571D01*
X181504286Y-92830000D01*
X181647144Y-92972857D01*
X181718572Y-93115714D01*
X181790001Y-93401429D01*
X181790001Y-93615714D01*
X181718572Y-93901429D01*
X181647144Y-94044286D01*
X181504286Y-94187143D01*
X181290001Y-94258571D01*
X180932858Y-94258571D01*
X182508572Y-81618571D02*
X182508572Y-80118571D01*
X182865715Y-80118571D01*
X183080000Y-80190000D01*
X183222858Y-80332857D01*
X183294286Y-80475714D01*
X183365715Y-80761429D01*
X183365715Y-80975714D01*
X183294286Y-81261429D01*
X183222858Y-81404286D01*
X183080000Y-81547143D01*
X182865715Y-81618571D01*
X182508572Y-81618571D01*
X184794286Y-81618571D02*
X183937143Y-81618571D01*
X184365715Y-81618571D02*
X184365715Y-80118571D01*
X184222858Y-80332857D01*
X184080000Y-80475714D01*
X183937143Y-80547143D01*
X186222857Y-81618571D02*
X185365714Y-81618571D01*
X185794286Y-81618571D02*
X185794286Y-80118571D01*
X185651429Y-80332857D01*
X185508571Y-80475714D01*
X185365714Y-80547143D01*
X183365715Y-98548571D02*
X182651429Y-98548571D01*
X182651429Y-97048571D01*
X183865715Y-97762857D02*
X184365715Y-97762857D01*
X184580001Y-98548571D02*
X183865715Y-98548571D01*
X183865715Y-97048571D01*
X184580001Y-97048571D01*
X185222858Y-98548571D02*
X185222858Y-97048571D01*
X185580001Y-97048571D01*
X185794286Y-97120000D01*
X185937144Y-97262857D01*
X186008572Y-97405714D01*
X186080001Y-97691429D01*
X186080001Y-97905714D01*
X186008572Y-98191429D01*
X185937144Y-98334286D01*
X185794286Y-98477143D01*
X185580001Y-98548571D01*
X185222858Y-98548571D01*
X178198572Y-81618571D02*
X178198572Y-80118571D01*
X178555715Y-80118571D01*
X178770000Y-80190000D01*
X178912858Y-80332857D01*
X178984286Y-80475714D01*
X179055715Y-80761429D01*
X179055715Y-80975714D01*
X178984286Y-81261429D01*
X178912858Y-81404286D01*
X178770000Y-81547143D01*
X178555715Y-81618571D01*
X178198572Y-81618571D01*
X180484286Y-81618571D02*
X179627143Y-81618571D01*
X180055715Y-81618571D02*
X180055715Y-80118571D01*
X179912858Y-80332857D01*
X179770000Y-80475714D01*
X179627143Y-80547143D01*
X181055714Y-80261429D02*
X181127143Y-80190000D01*
X181270000Y-80118571D01*
X181627143Y-80118571D01*
X181770000Y-80190000D01*
X181841429Y-80261429D01*
X181912857Y-80404286D01*
X181912857Y-80547143D01*
X181841429Y-80761429D01*
X180984286Y-81618571D01*
X181912857Y-81618571D01*
X179055715Y-98548571D02*
X178341429Y-98548571D01*
X178341429Y-97048571D01*
X179555715Y-97762857D02*
X180055715Y-97762857D01*
X180270001Y-98548571D02*
X179555715Y-98548571D01*
X179555715Y-97048571D01*
X180270001Y-97048571D01*
X180912858Y-98548571D02*
X180912858Y-97048571D01*
X181270001Y-97048571D01*
X181484286Y-97120000D01*
X181627144Y-97262857D01*
X181698572Y-97405714D01*
X181770001Y-97691429D01*
X181770001Y-97905714D01*
X181698572Y-98191429D01*
X181627144Y-98334286D01*
X181484286Y-98477143D01*
X181270001Y-98548571D01*
X180912858Y-98548571D01*
X236398572Y-77328571D02*
X236398572Y-75828571D01*
X236755715Y-75828571D01*
X236970000Y-75900000D01*
X237112858Y-76042857D01*
X237184286Y-76185714D01*
X237255715Y-76471429D01*
X237255715Y-76685714D01*
X237184286Y-76971429D01*
X237112858Y-77114286D01*
X236970000Y-77257143D01*
X236755715Y-77328571D01*
X236398572Y-77328571D01*
X238684286Y-77328571D02*
X237827143Y-77328571D01*
X238255715Y-77328571D02*
X238255715Y-75828571D01*
X238112858Y-76042857D01*
X237970000Y-76185714D01*
X237827143Y-76257143D01*
X239184286Y-75828571D02*
X240112857Y-75828571D01*
X239612857Y-76400000D01*
X239827143Y-76400000D01*
X239970000Y-76471429D01*
X240041429Y-76542857D01*
X240112857Y-76685714D01*
X240112857Y-77042857D01*
X240041429Y-77185714D01*
X239970000Y-77257143D01*
X239827143Y-77328571D01*
X239398571Y-77328571D01*
X239255714Y-77257143D01*
X239184286Y-77185714D01*
X232098572Y-77318571D02*
X232098572Y-75818571D01*
X232455715Y-75818571D01*
X232670000Y-75890000D01*
X232812858Y-76032857D01*
X232884286Y-76175714D01*
X232955715Y-76461429D01*
X232955715Y-76675714D01*
X232884286Y-76961429D01*
X232812858Y-77104286D01*
X232670000Y-77247143D01*
X232455715Y-77318571D01*
X232098572Y-77318571D01*
X234384286Y-77318571D02*
X233527143Y-77318571D01*
X233955715Y-77318571D02*
X233955715Y-75818571D01*
X233812858Y-76032857D01*
X233670000Y-76175714D01*
X233527143Y-76247143D01*
X235670000Y-76318571D02*
X235670000Y-77318571D01*
X235312857Y-75747143D02*
X234955714Y-76818571D01*
X235884286Y-76818571D01*
X232955715Y-94248571D02*
X232241429Y-94248571D01*
X232241429Y-92748571D01*
X233455715Y-93462857D02*
X233955715Y-93462857D01*
X234170001Y-94248571D02*
X233455715Y-94248571D01*
X233455715Y-92748571D01*
X234170001Y-92748571D01*
X234812858Y-94248571D02*
X234812858Y-92748571D01*
X235170001Y-92748571D01*
X235384286Y-92820000D01*
X235527144Y-92962857D01*
X235598572Y-93105714D01*
X235670001Y-93391429D01*
X235670001Y-93605714D01*
X235598572Y-93891429D01*
X235527144Y-94034286D01*
X235384286Y-94177143D01*
X235170001Y-94248571D01*
X234812858Y-94248571D01*
X236378572Y-81588571D02*
X236378572Y-80088571D01*
X236735715Y-80088571D01*
X236950000Y-80160000D01*
X237092858Y-80302857D01*
X237164286Y-80445714D01*
X237235715Y-80731429D01*
X237235715Y-80945714D01*
X237164286Y-81231429D01*
X237092858Y-81374286D01*
X236950000Y-81517143D01*
X236735715Y-81588571D01*
X236378572Y-81588571D01*
X238664286Y-81588571D02*
X237807143Y-81588571D01*
X238235715Y-81588571D02*
X238235715Y-80088571D01*
X238092858Y-80302857D01*
X237950000Y-80445714D01*
X237807143Y-80517143D01*
X240021429Y-80088571D02*
X239307143Y-80088571D01*
X239235714Y-80802857D01*
X239307143Y-80731429D01*
X239450000Y-80660000D01*
X239807143Y-80660000D01*
X239950000Y-80731429D01*
X240021429Y-80802857D01*
X240092857Y-80945714D01*
X240092857Y-81302857D01*
X240021429Y-81445714D01*
X239950000Y-81517143D01*
X239807143Y-81588571D01*
X239450000Y-81588571D01*
X239307143Y-81517143D01*
X239235714Y-81445714D01*
X237235715Y-98518571D02*
X236521429Y-98518571D01*
X236521429Y-97018571D01*
X237735715Y-97732857D02*
X238235715Y-97732857D01*
X238450001Y-98518571D02*
X237735715Y-98518571D01*
X237735715Y-97018571D01*
X238450001Y-97018571D01*
X239092858Y-98518571D02*
X239092858Y-97018571D01*
X239450001Y-97018571D01*
X239664286Y-97090000D01*
X239807144Y-97232857D01*
X239878572Y-97375714D01*
X239950001Y-97661429D01*
X239950001Y-97875714D01*
X239878572Y-98161429D01*
X239807144Y-98304286D01*
X239664286Y-98447143D01*
X239450001Y-98518571D01*
X239092858Y-98518571D01*
X232098572Y-81598571D02*
X232098572Y-80098571D01*
X232455715Y-80098571D01*
X232670000Y-80170000D01*
X232812858Y-80312857D01*
X232884286Y-80455714D01*
X232955715Y-80741429D01*
X232955715Y-80955714D01*
X232884286Y-81241429D01*
X232812858Y-81384286D01*
X232670000Y-81527143D01*
X232455715Y-81598571D01*
X232098572Y-81598571D01*
X234384286Y-81598571D02*
X233527143Y-81598571D01*
X233955715Y-81598571D02*
X233955715Y-80098571D01*
X233812858Y-80312857D01*
X233670000Y-80455714D01*
X233527143Y-80527143D01*
X235670000Y-80098571D02*
X235384286Y-80098571D01*
X235241429Y-80170000D01*
X235170000Y-80241429D01*
X235027143Y-80455714D01*
X234955714Y-80741429D01*
X234955714Y-81312857D01*
X235027143Y-81455714D01*
X235098571Y-81527143D01*
X235241429Y-81598571D01*
X235527143Y-81598571D01*
X235670000Y-81527143D01*
X235741429Y-81455714D01*
X235812857Y-81312857D01*
X235812857Y-80955714D01*
X235741429Y-80812857D01*
X235670000Y-80741429D01*
X235527143Y-80670000D01*
X235241429Y-80670000D01*
X235098571Y-80741429D01*
X235027143Y-80812857D01*
X234955714Y-80955714D01*
X232955715Y-98528571D02*
X232241429Y-98528571D01*
X232241429Y-97028571D01*
X233455715Y-97742857D02*
X233955715Y-97742857D01*
X234170001Y-98528571D02*
X233455715Y-98528571D01*
X233455715Y-97028571D01*
X234170001Y-97028571D01*
X234812858Y-98528571D02*
X234812858Y-97028571D01*
X235170001Y-97028571D01*
X235384286Y-97100000D01*
X235527144Y-97242857D01*
X235598572Y-97385714D01*
X235670001Y-97671429D01*
X235670001Y-97885714D01*
X235598572Y-98171429D01*
X235527144Y-98314286D01*
X235384286Y-98457143D01*
X235170001Y-98528571D01*
X234812858Y-98528571D01*
X37752381Y-88278095D02*
X36752381Y-88278095D01*
X36752381Y-87897142D01*
X36800000Y-87801904D01*
X36847619Y-87754285D01*
X36942857Y-87706666D01*
X37085714Y-87706666D01*
X37180952Y-87754285D01*
X37228571Y-87801904D01*
X37276190Y-87897142D01*
X37276190Y-88278095D01*
X37752381Y-86754285D02*
X37752381Y-87325714D01*
X37752381Y-87040000D02*
X36752381Y-87040000D01*
X36895238Y-87135238D01*
X36990476Y-87230476D01*
X37038095Y-87325714D01*
X54572381Y-76698095D02*
X53572381Y-76698095D01*
X53572381Y-76317142D01*
X53620000Y-76221904D01*
X53667619Y-76174285D01*
X53762857Y-76126666D01*
X53905714Y-76126666D01*
X54000952Y-76174285D01*
X54048571Y-76221904D01*
X54096190Y-76317142D01*
X54096190Y-76698095D01*
X53667619Y-75745714D02*
X53620000Y-75698095D01*
X53572381Y-75602857D01*
X53572381Y-75364761D01*
X53620000Y-75269523D01*
X53667619Y-75221904D01*
X53762857Y-75174285D01*
X53858095Y-75174285D01*
X54000952Y-75221904D01*
X54572381Y-75793333D01*
X54572381Y-75174285D01*
X272962381Y-88048095D02*
X271962381Y-88048095D01*
X271962381Y-87667142D01*
X272010000Y-87571904D01*
X272057619Y-87524285D01*
X272152857Y-87476666D01*
X272295714Y-87476666D01*
X272390952Y-87524285D01*
X272438571Y-87571904D01*
X272486190Y-87667142D01*
X272486190Y-88048095D01*
X271962381Y-87143333D02*
X271962381Y-86524285D01*
X272343333Y-86857619D01*
X272343333Y-86714761D01*
X272390952Y-86619523D01*
X272438571Y-86571904D01*
X272533810Y-86524285D01*
X272771905Y-86524285D01*
X272867143Y-86571904D01*
X272914762Y-86619523D01*
X272962381Y-86714761D01*
X272962381Y-87000476D01*
X272914762Y-87095714D01*
X272867143Y-87143333D01*
M02*
