G04 #@! TF.FileFunction,Legend,Top*
%FSLAX46Y46*%
G04 Gerber Fmt 4.6, Leading zero omitted, Abs format (unit mm)*
G04 Created by KiCad (PCBNEW 4.0.2-stable) date Mardi 05 juillet 2016 16:32:51*
%MOMM*%
G01*
G04 APERTURE LIST*
%ADD10C,0.100000*%
%ADD11C,0.300000*%
%ADD12C,0.200000*%
%ADD13C,0.150000*%
G04 APERTURE END LIST*
D10*
D11*
X91205179Y-99778571D02*
X90794464Y-99064286D01*
X90348036Y-99778571D02*
X90535536Y-98278571D01*
X91106964Y-98278571D01*
X91240893Y-98350000D01*
X91303392Y-98421429D01*
X91356964Y-98564286D01*
X91330179Y-98778571D01*
X91240892Y-98921429D01*
X91160536Y-98992857D01*
X91008749Y-99064286D01*
X90437321Y-99064286D01*
X91848036Y-99778571D02*
X91973036Y-98778571D01*
X92035536Y-98278571D02*
X91955178Y-98350000D01*
X92017678Y-98421429D01*
X92098035Y-98350000D01*
X92035536Y-98278571D01*
X92017678Y-98421429D01*
X92499821Y-99707143D02*
X92633750Y-99778571D01*
X92919465Y-99778571D01*
X93071250Y-99707143D01*
X93160535Y-99564286D01*
X93169464Y-99492857D01*
X93115893Y-99350000D01*
X92981965Y-99278571D01*
X92767679Y-99278571D01*
X92633750Y-99207143D01*
X92580178Y-99064286D01*
X92589107Y-98992857D01*
X92678393Y-98850000D01*
X92830179Y-98778571D01*
X93044465Y-98778571D01*
X93178393Y-98850000D01*
X94356964Y-99707143D02*
X94205179Y-99778571D01*
X93919465Y-99778571D01*
X93785536Y-99707143D01*
X93731964Y-99564286D01*
X93803393Y-98992857D01*
X93892679Y-98850000D01*
X94044465Y-98778571D01*
X94330179Y-98778571D01*
X94464107Y-98850000D01*
X94517679Y-98992857D01*
X94499822Y-99135714D01*
X93767679Y-99278571D01*
X95062322Y-99778571D02*
X95249822Y-98278571D01*
X95178393Y-98850000D02*
X95330179Y-98778571D01*
X95615893Y-98778571D01*
X95749821Y-98850000D01*
X95812321Y-98921429D01*
X95865893Y-99064286D01*
X95812322Y-99492857D01*
X95723036Y-99635714D01*
X95642678Y-99707143D01*
X95490893Y-99778571D01*
X95205179Y-99778571D01*
X95071250Y-99707143D01*
X96633751Y-99778571D02*
X96499821Y-99707143D01*
X96437322Y-99635714D01*
X96383750Y-99492857D01*
X96437321Y-99064286D01*
X96526607Y-98921429D01*
X96606964Y-98850000D01*
X96758751Y-98778571D01*
X96973036Y-98778571D01*
X97106964Y-98850000D01*
X97169464Y-98921429D01*
X97223036Y-99064286D01*
X97169465Y-99492857D01*
X97080179Y-99635714D01*
X96999821Y-99707143D01*
X96848036Y-99778571D01*
X96633751Y-99778571D01*
X97633751Y-99778571D02*
X98544465Y-98778571D01*
X97758751Y-98778571D02*
X98419465Y-99778571D01*
X100848037Y-99778571D02*
X100133751Y-99778571D01*
X100321251Y-98278571D01*
X101446251Y-98992857D02*
X101946251Y-98992857D01*
X102062323Y-99778571D02*
X101348037Y-99778571D01*
X101535537Y-98278571D01*
X102249823Y-98278571D01*
X102705180Y-99778571D02*
X102892680Y-98278571D01*
X103249823Y-98278571D01*
X103455179Y-98350000D01*
X103580180Y-98492857D01*
X103633751Y-98635714D01*
X103669465Y-98921429D01*
X103642680Y-99135714D01*
X103535536Y-99421429D01*
X103446251Y-99564286D01*
X103285536Y-99707143D01*
X103062323Y-99778571D01*
X102705180Y-99778571D01*
X104142679Y-99707143D02*
X104276608Y-99778571D01*
X104562323Y-99778571D01*
X104714108Y-99707143D01*
X104803393Y-99564286D01*
X104812322Y-99492857D01*
X104758751Y-99350000D01*
X104624823Y-99278571D01*
X104410537Y-99278571D01*
X104276608Y-99207143D01*
X104223036Y-99064286D01*
X104231965Y-98992857D01*
X104321251Y-98850000D01*
X104473037Y-98778571D01*
X104687323Y-98778571D01*
X104821251Y-98850000D01*
X106544466Y-98778571D02*
X106776609Y-99778571D01*
X107258751Y-98778571D01*
X108178394Y-98278571D02*
X108321251Y-98278571D01*
X108455179Y-98350000D01*
X108517679Y-98421429D01*
X108571251Y-98564286D01*
X108606965Y-98850000D01*
X108562322Y-99207143D01*
X108455180Y-99492857D01*
X108365894Y-99635714D01*
X108285536Y-99707143D01*
X108133751Y-99778571D01*
X107990894Y-99778571D01*
X107856965Y-99707143D01*
X107794465Y-99635714D01*
X107740894Y-99492857D01*
X107705179Y-99207143D01*
X107749822Y-98850000D01*
X107856965Y-98564286D01*
X107946250Y-98421429D01*
X108026608Y-98350000D01*
X108178394Y-98278571D01*
X109151608Y-99635714D02*
X109214107Y-99707143D01*
X109133751Y-99778571D01*
X109071250Y-99707143D01*
X109151608Y-99635714D01*
X109133751Y-99778571D01*
X110633751Y-99778571D02*
X109776608Y-99778571D01*
X110205180Y-99778571D02*
X110392680Y-98278571D01*
X110223037Y-98492857D01*
X110062322Y-98635714D01*
X109910536Y-98707143D01*
X95785537Y-100678571D02*
X95651608Y-101750000D01*
X95553394Y-101964286D01*
X95392680Y-102107143D01*
X95169466Y-102178571D01*
X95026609Y-102178571D01*
X97080180Y-101178571D02*
X96955180Y-102178571D01*
X96437323Y-101178571D02*
X96339108Y-101964286D01*
X96392679Y-102107143D01*
X96526609Y-102178571D01*
X96740894Y-102178571D01*
X96892679Y-102107143D01*
X96973037Y-102035714D01*
X97883752Y-102178571D02*
X97749822Y-102107143D01*
X97696251Y-101964286D01*
X97856966Y-100678571D01*
X98437323Y-101178571D02*
X98669466Y-102178571D01*
X99151608Y-101178571D02*
X98669466Y-102178571D01*
X98481965Y-102535714D01*
X98401608Y-102607143D01*
X98249823Y-102678571D01*
X100839107Y-100821429D02*
X100919465Y-100750000D01*
X101071251Y-100678571D01*
X101428394Y-100678571D01*
X101562322Y-100750000D01*
X101624822Y-100821429D01*
X101678393Y-100964286D01*
X101660536Y-101107143D01*
X101562322Y-101321429D01*
X100598037Y-102178571D01*
X101526608Y-102178571D01*
X102642679Y-100678571D02*
X102785536Y-100678571D01*
X102919464Y-100750000D01*
X102981964Y-100821429D01*
X103035536Y-100964286D01*
X103071250Y-101250000D01*
X103026607Y-101607143D01*
X102919465Y-101892857D01*
X102830179Y-102035714D01*
X102749821Y-102107143D01*
X102598036Y-102178571D01*
X102455179Y-102178571D01*
X102321250Y-102107143D01*
X102258750Y-102035714D01*
X102205179Y-101892857D01*
X102169464Y-101607143D01*
X102214107Y-101250000D01*
X102321250Y-100964286D01*
X102410535Y-100821429D01*
X102490893Y-100750000D01*
X102642679Y-100678571D01*
X104383750Y-102178571D02*
X103526607Y-102178571D01*
X103955179Y-102178571D02*
X104142679Y-100678571D01*
X103973036Y-100892857D01*
X103812321Y-101035714D01*
X103660535Y-101107143D01*
X105856964Y-100678571D02*
X105571250Y-100678571D01*
X105419464Y-100750000D01*
X105339106Y-100821429D01*
X105169464Y-101035714D01*
X105062320Y-101321429D01*
X104990892Y-101892857D01*
X105044464Y-102035714D01*
X105106963Y-102107143D01*
X105240893Y-102178571D01*
X105526607Y-102178571D01*
X105678392Y-102107143D01*
X105758750Y-102035714D01*
X105848035Y-101892857D01*
X105892678Y-101535714D01*
X105839107Y-101392857D01*
X105776606Y-101321429D01*
X105642678Y-101250000D01*
X105356964Y-101250000D01*
X105205177Y-101321429D01*
X105124821Y-101392857D01*
X105035535Y-101535714D01*
D12*
X89212084Y-87500000D02*
G75*
G03X89212084Y-87500000I-17492084J0D01*
G01*
X146897901Y-87500000D02*
G75*
G03X146897901Y-87500000I-17507901J0D01*
G01*
X253839184Y-87500000D02*
G75*
G03X253839184Y-87500000I-17579184J0D01*
G01*
X199707901Y-87500000D02*
G75*
G03X199707901Y-87500000I-17507901J0D01*
G01*
X178648900Y-91000000D02*
X178648900Y-84000000D01*
X185648900Y-91000000D02*
X178648900Y-91000000D01*
X185648900Y-84000000D02*
X185648900Y-91000000D01*
X178648900Y-84000000D02*
X185648900Y-84000000D01*
X232541700Y-91000000D02*
X232541700Y-84000000D01*
X239541700Y-91000000D02*
X232541700Y-91000000D01*
X239541700Y-84000000D02*
X239541700Y-91000000D01*
X232541700Y-84000000D02*
X239541700Y-84000000D01*
X125430700Y-90809500D02*
X125430700Y-83809500D01*
X132430700Y-90809500D02*
X125430700Y-90809500D01*
X132430700Y-83809500D02*
X132430700Y-90809500D01*
X125430700Y-83809500D02*
X132430700Y-83809500D01*
X68344200Y-91139700D02*
X68344200Y-84139700D01*
X75344200Y-91139700D02*
X68344200Y-91139700D01*
X75344200Y-84139700D02*
X75344200Y-91139700D01*
X68344200Y-84139700D02*
X75344200Y-84139700D01*
D13*
X154190000Y-78525000D02*
X152990000Y-78525000D01*
X152990000Y-76775000D02*
X154190000Y-76775000D01*
X156752800Y-82337600D02*
X155152800Y-82337600D01*
X156752800Y-81118400D02*
X155152800Y-81118400D01*
X75354200Y-85489700D02*
X75834200Y-85489700D01*
X72114200Y-85489700D02*
X72644200Y-85489700D01*
X72374200Y-85239700D02*
X72374200Y-85749700D01*
X72844200Y-84339700D02*
X72844200Y-86639700D01*
X72844200Y-86639700D02*
X75144200Y-86639700D01*
X75144200Y-86639700D02*
X75144200Y-84339700D01*
X75144200Y-84339700D02*
X72844200Y-84339700D01*
X71054200Y-85489700D02*
X71534200Y-85489700D01*
X67814200Y-85489700D02*
X68344200Y-85489700D01*
X68074200Y-85239700D02*
X68074200Y-85749700D01*
X68544200Y-84339700D02*
X68544200Y-86639700D01*
X68544200Y-86639700D02*
X70844200Y-86639700D01*
X70844200Y-86639700D02*
X70844200Y-84339700D01*
X70844200Y-84339700D02*
X68544200Y-84339700D01*
X75354200Y-89789700D02*
X75834200Y-89789700D01*
X72114200Y-89789700D02*
X72644200Y-89789700D01*
X72374200Y-89539700D02*
X72374200Y-90049700D01*
X72844200Y-88639700D02*
X72844200Y-90939700D01*
X72844200Y-90939700D02*
X75144200Y-90939700D01*
X75144200Y-90939700D02*
X75144200Y-88639700D01*
X75144200Y-88639700D02*
X72844200Y-88639700D01*
X71054200Y-89789700D02*
X71534200Y-89789700D01*
X67814200Y-89789700D02*
X68344200Y-89789700D01*
X68074200Y-89539700D02*
X68074200Y-90049700D01*
X68544200Y-88639700D02*
X68544200Y-90939700D01*
X68544200Y-90939700D02*
X70844200Y-90939700D01*
X70844200Y-90939700D02*
X70844200Y-88639700D01*
X70844200Y-88639700D02*
X68544200Y-88639700D01*
X132436700Y-85153500D02*
X132916700Y-85153500D01*
X129196700Y-85153500D02*
X129726700Y-85153500D01*
X129456700Y-84903500D02*
X129456700Y-85413500D01*
X129926700Y-84003500D02*
X129926700Y-86303500D01*
X129926700Y-86303500D02*
X132226700Y-86303500D01*
X132226700Y-86303500D02*
X132226700Y-84003500D01*
X132226700Y-84003500D02*
X129926700Y-84003500D01*
X128144100Y-85153500D02*
X128624100Y-85153500D01*
X124904100Y-85153500D02*
X125434100Y-85153500D01*
X125164100Y-84903500D02*
X125164100Y-85413500D01*
X125634100Y-84003500D02*
X125634100Y-86303500D01*
X125634100Y-86303500D02*
X127934100Y-86303500D01*
X127934100Y-86303500D02*
X127934100Y-84003500D01*
X127934100Y-84003500D02*
X125634100Y-84003500D01*
X132436700Y-89458800D02*
X132916700Y-89458800D01*
X129196700Y-89458800D02*
X129726700Y-89458800D01*
X129456700Y-89208800D02*
X129456700Y-89718800D01*
X129926700Y-88308800D02*
X129926700Y-90608800D01*
X129926700Y-90608800D02*
X132226700Y-90608800D01*
X132226700Y-90608800D02*
X132226700Y-88308800D01*
X132226700Y-88308800D02*
X129926700Y-88308800D01*
X128144100Y-89458800D02*
X128624100Y-89458800D01*
X124904100Y-89458800D02*
X125434100Y-89458800D01*
X125164100Y-89208800D02*
X125164100Y-89718800D01*
X125634100Y-88308800D02*
X125634100Y-90608800D01*
X125634100Y-90608800D02*
X127934100Y-90608800D01*
X127934100Y-90608800D02*
X127934100Y-88308800D01*
X127934100Y-88308800D02*
X125634100Y-88308800D01*
X185640000Y-85370000D02*
X186120000Y-85370000D01*
X182400000Y-85370000D02*
X182930000Y-85370000D01*
X182660000Y-85120000D02*
X182660000Y-85630000D01*
X183130000Y-84220000D02*
X183130000Y-86520000D01*
X183130000Y-86520000D02*
X185430000Y-86520000D01*
X185430000Y-86520000D02*
X185430000Y-84220000D01*
X185430000Y-84220000D02*
X183130000Y-84220000D01*
X181370000Y-85370000D02*
X181850000Y-85370000D01*
X178130000Y-85370000D02*
X178660000Y-85370000D01*
X178390000Y-85120000D02*
X178390000Y-85630000D01*
X178860000Y-84220000D02*
X178860000Y-86520000D01*
X178860000Y-86520000D02*
X181160000Y-86520000D01*
X181160000Y-86520000D02*
X181160000Y-84220000D01*
X181160000Y-84220000D02*
X178860000Y-84220000D01*
X185660000Y-89660000D02*
X186140000Y-89660000D01*
X182420000Y-89660000D02*
X182950000Y-89660000D01*
X182680000Y-89410000D02*
X182680000Y-89920000D01*
X183150000Y-88510000D02*
X183150000Y-90810000D01*
X183150000Y-90810000D02*
X185450000Y-90810000D01*
X185450000Y-90810000D02*
X185450000Y-88510000D01*
X185450000Y-88510000D02*
X183150000Y-88510000D01*
X181350000Y-89660000D02*
X181830000Y-89660000D01*
X178110000Y-89660000D02*
X178640000Y-89660000D01*
X178370000Y-89410000D02*
X178370000Y-89920000D01*
X178840000Y-88510000D02*
X178840000Y-90810000D01*
X178840000Y-90810000D02*
X181140000Y-90810000D01*
X181140000Y-90810000D02*
X181140000Y-88510000D01*
X181140000Y-88510000D02*
X178840000Y-88510000D01*
X239550000Y-85370000D02*
X240030000Y-85370000D01*
X236310000Y-85370000D02*
X236840000Y-85370000D01*
X236570000Y-85120000D02*
X236570000Y-85630000D01*
X237040000Y-84220000D02*
X237040000Y-86520000D01*
X237040000Y-86520000D02*
X239340000Y-86520000D01*
X239340000Y-86520000D02*
X239340000Y-84220000D01*
X239340000Y-84220000D02*
X237040000Y-84220000D01*
X235250000Y-85360000D02*
X235730000Y-85360000D01*
X232010000Y-85360000D02*
X232540000Y-85360000D01*
X232270000Y-85110000D02*
X232270000Y-85620000D01*
X232740000Y-84210000D02*
X232740000Y-86510000D01*
X232740000Y-86510000D02*
X235040000Y-86510000D01*
X235040000Y-86510000D02*
X235040000Y-84210000D01*
X235040000Y-84210000D02*
X232740000Y-84210000D01*
X239530000Y-89630000D02*
X240010000Y-89630000D01*
X236290000Y-89630000D02*
X236820000Y-89630000D01*
X236550000Y-89380000D02*
X236550000Y-89890000D01*
X237020000Y-88480000D02*
X237020000Y-90780000D01*
X237020000Y-90780000D02*
X239320000Y-90780000D01*
X239320000Y-90780000D02*
X239320000Y-88480000D01*
X239320000Y-88480000D02*
X237020000Y-88480000D01*
X235250000Y-89640000D02*
X235730000Y-89640000D01*
X232010000Y-89640000D02*
X232540000Y-89640000D01*
X232270000Y-89390000D02*
X232270000Y-89900000D01*
X232740000Y-88490000D02*
X232740000Y-90790000D01*
X232740000Y-90790000D02*
X235040000Y-90790000D01*
X235040000Y-90790000D02*
X235040000Y-88490000D01*
X235040000Y-88490000D02*
X232740000Y-88490000D01*
X48875000Y-92570000D02*
X42525000Y-92570000D01*
X48875000Y-82410000D02*
X42525000Y-82410000D01*
X42525000Y-82410000D02*
X42525000Y-92570000D01*
X48875000Y-82410000D02*
X48875000Y-92570000D01*
X48895000Y-79820000D02*
X42545000Y-79820000D01*
X48895000Y-72200000D02*
X42545000Y-72200000D01*
X42545000Y-72200000D02*
X42545000Y-79820000D01*
X48895000Y-72200000D02*
X48895000Y-79820000D01*
X260935000Y-82280000D02*
X267285000Y-82280000D01*
X260935000Y-92440000D02*
X267285000Y-92440000D01*
X267285000Y-92440000D02*
X267285000Y-82280000D01*
X260935000Y-92440000D02*
X260935000Y-82280000D01*
X153423334Y-76002381D02*
X153090000Y-75526190D01*
X152851905Y-76002381D02*
X152851905Y-75002381D01*
X153232858Y-75002381D01*
X153328096Y-75050000D01*
X153375715Y-75097619D01*
X153423334Y-75192857D01*
X153423334Y-75335714D01*
X153375715Y-75430952D01*
X153328096Y-75478571D01*
X153232858Y-75526190D01*
X152851905Y-75526190D01*
X154375715Y-76002381D02*
X153804286Y-76002381D01*
X154090000Y-76002381D02*
X154090000Y-75002381D01*
X153994762Y-75145238D01*
X153899524Y-75240476D01*
X153804286Y-75288095D01*
X154654286Y-82950381D02*
X155225715Y-82950381D01*
X154940000Y-83950381D02*
X154940000Y-82950381D01*
X155559048Y-83950381D02*
X155559048Y-82950381D01*
X155559048Y-83426571D02*
X156130477Y-83426571D01*
X156130477Y-83950381D02*
X156130477Y-82950381D01*
X157130477Y-83950381D02*
X156559048Y-83950381D01*
X156844762Y-83950381D02*
X156844762Y-82950381D01*
X156749524Y-83093238D01*
X156654286Y-83188476D01*
X156559048Y-83236095D01*
X72908458Y-83050771D02*
X72908458Y-81550771D01*
X73265601Y-81550771D01*
X73479886Y-81622200D01*
X73622744Y-81765057D01*
X73694172Y-81907914D01*
X73765601Y-82193629D01*
X73765601Y-82407914D01*
X73694172Y-82693629D01*
X73622744Y-82836486D01*
X73479886Y-82979343D01*
X73265601Y-83050771D01*
X72908458Y-83050771D01*
X75194172Y-83050771D02*
X74337029Y-83050771D01*
X74765601Y-83050771D02*
X74765601Y-81550771D01*
X74622744Y-81765057D01*
X74479886Y-81907914D01*
X74337029Y-81979343D01*
X68577758Y-83101571D02*
X68577758Y-81601571D01*
X68934901Y-81601571D01*
X69149186Y-81673000D01*
X69292044Y-81815857D01*
X69363472Y-81958714D01*
X69434901Y-82244429D01*
X69434901Y-82458714D01*
X69363472Y-82744429D01*
X69292044Y-82887286D01*
X69149186Y-83030143D01*
X68934901Y-83101571D01*
X68577758Y-83101571D01*
X70006329Y-81744429D02*
X70077758Y-81673000D01*
X70220615Y-81601571D01*
X70577758Y-81601571D01*
X70720615Y-81673000D01*
X70792044Y-81744429D01*
X70863472Y-81887286D01*
X70863472Y-82030143D01*
X70792044Y-82244429D01*
X69934901Y-83101571D01*
X70863472Y-83101571D01*
X72883058Y-93604471D02*
X72883058Y-92104471D01*
X73240201Y-92104471D01*
X73454486Y-92175900D01*
X73597344Y-92318757D01*
X73668772Y-92461614D01*
X73740201Y-92747329D01*
X73740201Y-92961614D01*
X73668772Y-93247329D01*
X73597344Y-93390186D01*
X73454486Y-93533043D01*
X73240201Y-93604471D01*
X72883058Y-93604471D01*
X74240201Y-92104471D02*
X75168772Y-92104471D01*
X74668772Y-92675900D01*
X74883058Y-92675900D01*
X75025915Y-92747329D01*
X75097344Y-92818757D01*
X75168772Y-92961614D01*
X75168772Y-93318757D01*
X75097344Y-93461614D01*
X75025915Y-93533043D01*
X74883058Y-93604471D01*
X74454486Y-93604471D01*
X74311629Y-93533043D01*
X74240201Y-93461614D01*
X68552358Y-93667971D02*
X68552358Y-92167971D01*
X68909501Y-92167971D01*
X69123786Y-92239400D01*
X69266644Y-92382257D01*
X69338072Y-92525114D01*
X69409501Y-92810829D01*
X69409501Y-93025114D01*
X69338072Y-93310829D01*
X69266644Y-93453686D01*
X69123786Y-93596543D01*
X68909501Y-93667971D01*
X68552358Y-93667971D01*
X70695215Y-92667971D02*
X70695215Y-93667971D01*
X70338072Y-92096543D02*
X69980929Y-93167971D01*
X70909501Y-93167971D01*
X129880658Y-82720571D02*
X129880658Y-81220571D01*
X130237801Y-81220571D01*
X130452086Y-81292000D01*
X130594944Y-81434857D01*
X130666372Y-81577714D01*
X130737801Y-81863429D01*
X130737801Y-82077714D01*
X130666372Y-82363429D01*
X130594944Y-82506286D01*
X130452086Y-82649143D01*
X130237801Y-82720571D01*
X129880658Y-82720571D01*
X132094944Y-81220571D02*
X131380658Y-81220571D01*
X131309229Y-81934857D01*
X131380658Y-81863429D01*
X131523515Y-81792000D01*
X131880658Y-81792000D01*
X132023515Y-81863429D01*
X132094944Y-81934857D01*
X132166372Y-82077714D01*
X132166372Y-82434857D01*
X132094944Y-82577714D01*
X132023515Y-82649143D01*
X131880658Y-82720571D01*
X131523515Y-82720571D01*
X131380658Y-82649143D01*
X131309229Y-82577714D01*
X125689658Y-82657071D02*
X125689658Y-81157071D01*
X126046801Y-81157071D01*
X126261086Y-81228500D01*
X126403944Y-81371357D01*
X126475372Y-81514214D01*
X126546801Y-81799929D01*
X126546801Y-82014214D01*
X126475372Y-82299929D01*
X126403944Y-82442786D01*
X126261086Y-82585643D01*
X126046801Y-82657071D01*
X125689658Y-82657071D01*
X127832515Y-81157071D02*
X127546801Y-81157071D01*
X127403944Y-81228500D01*
X127332515Y-81299929D01*
X127189658Y-81514214D01*
X127118229Y-81799929D01*
X127118229Y-82371357D01*
X127189658Y-82514214D01*
X127261086Y-82585643D01*
X127403944Y-82657071D01*
X127689658Y-82657071D01*
X127832515Y-82585643D01*
X127903944Y-82514214D01*
X127975372Y-82371357D01*
X127975372Y-82014214D01*
X127903944Y-81871357D01*
X127832515Y-81799929D01*
X127689658Y-81728500D01*
X127403944Y-81728500D01*
X127261086Y-81799929D01*
X127189658Y-81871357D01*
X127118229Y-82014214D01*
X129994958Y-93109171D02*
X129994958Y-91609171D01*
X130352101Y-91609171D01*
X130566386Y-91680600D01*
X130709244Y-91823457D01*
X130780672Y-91966314D01*
X130852101Y-92252029D01*
X130852101Y-92466314D01*
X130780672Y-92752029D01*
X130709244Y-92894886D01*
X130566386Y-93037743D01*
X130352101Y-93109171D01*
X129994958Y-93109171D01*
X131352101Y-91609171D02*
X132352101Y-91609171D01*
X131709244Y-93109171D01*
X125664258Y-93071071D02*
X125664258Y-91571071D01*
X126021401Y-91571071D01*
X126235686Y-91642500D01*
X126378544Y-91785357D01*
X126449972Y-91928214D01*
X126521401Y-92213929D01*
X126521401Y-92428214D01*
X126449972Y-92713929D01*
X126378544Y-92856786D01*
X126235686Y-92999643D01*
X126021401Y-93071071D01*
X125664258Y-93071071D01*
X127378544Y-92213929D02*
X127235686Y-92142500D01*
X127164258Y-92071071D01*
X127092829Y-91928214D01*
X127092829Y-91856786D01*
X127164258Y-91713929D01*
X127235686Y-91642500D01*
X127378544Y-91571071D01*
X127664258Y-91571071D01*
X127807115Y-91642500D01*
X127878544Y-91713929D01*
X127949972Y-91856786D01*
X127949972Y-91928214D01*
X127878544Y-92071071D01*
X127807115Y-92142500D01*
X127664258Y-92213929D01*
X127378544Y-92213929D01*
X127235686Y-92285357D01*
X127164258Y-92356786D01*
X127092829Y-92499643D01*
X127092829Y-92785357D01*
X127164258Y-92928214D01*
X127235686Y-92999643D01*
X127378544Y-93071071D01*
X127664258Y-93071071D01*
X127807115Y-92999643D01*
X127878544Y-92928214D01*
X127949972Y-92785357D01*
X127949972Y-92499643D01*
X127878544Y-92356786D01*
X127807115Y-92285357D01*
X127664258Y-92213929D01*
X183182858Y-82998571D02*
X183182858Y-81498571D01*
X183540001Y-81498571D01*
X183754286Y-81570000D01*
X183897144Y-81712857D01*
X183968572Y-81855714D01*
X184040001Y-82141429D01*
X184040001Y-82355714D01*
X183968572Y-82641429D01*
X183897144Y-82784286D01*
X183754286Y-82927143D01*
X183540001Y-82998571D01*
X183182858Y-82998571D01*
X184754286Y-82998571D02*
X185040001Y-82998571D01*
X185182858Y-82927143D01*
X185254286Y-82855714D01*
X185397144Y-82641429D01*
X185468572Y-82355714D01*
X185468572Y-81784286D01*
X185397144Y-81641429D01*
X185325715Y-81570000D01*
X185182858Y-81498571D01*
X184897144Y-81498571D01*
X184754286Y-81570000D01*
X184682858Y-81641429D01*
X184611429Y-81784286D01*
X184611429Y-82141429D01*
X184682858Y-82284286D01*
X184754286Y-82355714D01*
X184897144Y-82427143D01*
X185182858Y-82427143D01*
X185325715Y-82355714D01*
X185397144Y-82284286D01*
X185468572Y-82141429D01*
X178198572Y-82998571D02*
X178198572Y-81498571D01*
X178555715Y-81498571D01*
X178770000Y-81570000D01*
X178912858Y-81712857D01*
X178984286Y-81855714D01*
X179055715Y-82141429D01*
X179055715Y-82355714D01*
X178984286Y-82641429D01*
X178912858Y-82784286D01*
X178770000Y-82927143D01*
X178555715Y-82998571D01*
X178198572Y-82998571D01*
X180484286Y-82998571D02*
X179627143Y-82998571D01*
X180055715Y-82998571D02*
X180055715Y-81498571D01*
X179912858Y-81712857D01*
X179770000Y-81855714D01*
X179627143Y-81927143D01*
X181412857Y-81498571D02*
X181555714Y-81498571D01*
X181698571Y-81570000D01*
X181770000Y-81641429D01*
X181841429Y-81784286D01*
X181912857Y-82070000D01*
X181912857Y-82427143D01*
X181841429Y-82712857D01*
X181770000Y-82855714D01*
X181698571Y-82927143D01*
X181555714Y-82998571D01*
X181412857Y-82998571D01*
X181270000Y-82927143D01*
X181198571Y-82855714D01*
X181127143Y-82712857D01*
X181055714Y-82427143D01*
X181055714Y-82070000D01*
X181127143Y-81784286D01*
X181198571Y-81641429D01*
X181270000Y-81570000D01*
X181412857Y-81498571D01*
X182408572Y-93158571D02*
X182408572Y-91658571D01*
X182765715Y-91658571D01*
X182980000Y-91730000D01*
X183122858Y-91872857D01*
X183194286Y-92015714D01*
X183265715Y-92301429D01*
X183265715Y-92515714D01*
X183194286Y-92801429D01*
X183122858Y-92944286D01*
X182980000Y-93087143D01*
X182765715Y-93158571D01*
X182408572Y-93158571D01*
X184694286Y-93158571D02*
X183837143Y-93158571D01*
X184265715Y-93158571D02*
X184265715Y-91658571D01*
X184122858Y-91872857D01*
X183980000Y-92015714D01*
X183837143Y-92087143D01*
X186122857Y-93158571D02*
X185265714Y-93158571D01*
X185694286Y-93158571D02*
X185694286Y-91658571D01*
X185551429Y-91872857D01*
X185408571Y-92015714D01*
X185265714Y-92087143D01*
X178118572Y-93248571D02*
X178118572Y-91748571D01*
X178475715Y-91748571D01*
X178690000Y-91820000D01*
X178832858Y-91962857D01*
X178904286Y-92105714D01*
X178975715Y-92391429D01*
X178975715Y-92605714D01*
X178904286Y-92891429D01*
X178832858Y-93034286D01*
X178690000Y-93177143D01*
X178475715Y-93248571D01*
X178118572Y-93248571D01*
X180404286Y-93248571D02*
X179547143Y-93248571D01*
X179975715Y-93248571D02*
X179975715Y-91748571D01*
X179832858Y-91962857D01*
X179690000Y-92105714D01*
X179547143Y-92177143D01*
X180975714Y-91891429D02*
X181047143Y-91820000D01*
X181190000Y-91748571D01*
X181547143Y-91748571D01*
X181690000Y-91820000D01*
X181761429Y-91891429D01*
X181832857Y-92034286D01*
X181832857Y-92177143D01*
X181761429Y-92391429D01*
X180904286Y-93248571D01*
X181832857Y-93248571D01*
X236338572Y-83168571D02*
X236338572Y-81668571D01*
X236695715Y-81668571D01*
X236910000Y-81740000D01*
X237052858Y-81882857D01*
X237124286Y-82025714D01*
X237195715Y-82311429D01*
X237195715Y-82525714D01*
X237124286Y-82811429D01*
X237052858Y-82954286D01*
X236910000Y-83097143D01*
X236695715Y-83168571D01*
X236338572Y-83168571D01*
X238624286Y-83168571D02*
X237767143Y-83168571D01*
X238195715Y-83168571D02*
X238195715Y-81668571D01*
X238052858Y-81882857D01*
X237910000Y-82025714D01*
X237767143Y-82097143D01*
X239124286Y-81668571D02*
X240052857Y-81668571D01*
X239552857Y-82240000D01*
X239767143Y-82240000D01*
X239910000Y-82311429D01*
X239981429Y-82382857D01*
X240052857Y-82525714D01*
X240052857Y-82882857D01*
X239981429Y-83025714D01*
X239910000Y-83097143D01*
X239767143Y-83168571D01*
X239338571Y-83168571D01*
X239195714Y-83097143D01*
X239124286Y-83025714D01*
X232078572Y-83198571D02*
X232078572Y-81698571D01*
X232435715Y-81698571D01*
X232650000Y-81770000D01*
X232792858Y-81912857D01*
X232864286Y-82055714D01*
X232935715Y-82341429D01*
X232935715Y-82555714D01*
X232864286Y-82841429D01*
X232792858Y-82984286D01*
X232650000Y-83127143D01*
X232435715Y-83198571D01*
X232078572Y-83198571D01*
X234364286Y-83198571D02*
X233507143Y-83198571D01*
X233935715Y-83198571D02*
X233935715Y-81698571D01*
X233792858Y-81912857D01*
X233650000Y-82055714D01*
X233507143Y-82127143D01*
X235650000Y-82198571D02*
X235650000Y-83198571D01*
X235292857Y-81627143D02*
X234935714Y-82698571D01*
X235864286Y-82698571D01*
X236338572Y-93308571D02*
X236338572Y-91808571D01*
X236695715Y-91808571D01*
X236910000Y-91880000D01*
X237052858Y-92022857D01*
X237124286Y-92165714D01*
X237195715Y-92451429D01*
X237195715Y-92665714D01*
X237124286Y-92951429D01*
X237052858Y-93094286D01*
X236910000Y-93237143D01*
X236695715Y-93308571D01*
X236338572Y-93308571D01*
X238624286Y-93308571D02*
X237767143Y-93308571D01*
X238195715Y-93308571D02*
X238195715Y-91808571D01*
X238052858Y-92022857D01*
X237910000Y-92165714D01*
X237767143Y-92237143D01*
X239981429Y-91808571D02*
X239267143Y-91808571D01*
X239195714Y-92522857D01*
X239267143Y-92451429D01*
X239410000Y-92380000D01*
X239767143Y-92380000D01*
X239910000Y-92451429D01*
X239981429Y-92522857D01*
X240052857Y-92665714D01*
X240052857Y-93022857D01*
X239981429Y-93165714D01*
X239910000Y-93237143D01*
X239767143Y-93308571D01*
X239410000Y-93308571D01*
X239267143Y-93237143D01*
X239195714Y-93165714D01*
X232078572Y-93218571D02*
X232078572Y-91718571D01*
X232435715Y-91718571D01*
X232650000Y-91790000D01*
X232792858Y-91932857D01*
X232864286Y-92075714D01*
X232935715Y-92361429D01*
X232935715Y-92575714D01*
X232864286Y-92861429D01*
X232792858Y-93004286D01*
X232650000Y-93147143D01*
X232435715Y-93218571D01*
X232078572Y-93218571D01*
X234364286Y-93218571D02*
X233507143Y-93218571D01*
X233935715Y-93218571D02*
X233935715Y-91718571D01*
X233792858Y-91932857D01*
X233650000Y-92075714D01*
X233507143Y-92147143D01*
X235650000Y-91718571D02*
X235364286Y-91718571D01*
X235221429Y-91790000D01*
X235150000Y-91861429D01*
X235007143Y-92075714D01*
X234935714Y-92361429D01*
X234935714Y-92932857D01*
X235007143Y-93075714D01*
X235078571Y-93147143D01*
X235221429Y-93218571D01*
X235507143Y-93218571D01*
X235650000Y-93147143D01*
X235721429Y-93075714D01*
X235792857Y-92932857D01*
X235792857Y-92575714D01*
X235721429Y-92432857D01*
X235650000Y-92361429D01*
X235507143Y-92290000D01*
X235221429Y-92290000D01*
X235078571Y-92361429D01*
X235007143Y-92432857D01*
X234935714Y-92575714D01*
X44961905Y-94682381D02*
X44961905Y-93682381D01*
X45342858Y-93682381D01*
X45438096Y-93730000D01*
X45485715Y-93777619D01*
X45533334Y-93872857D01*
X45533334Y-94015714D01*
X45485715Y-94110952D01*
X45438096Y-94158571D01*
X45342858Y-94206190D01*
X44961905Y-94206190D01*
X46485715Y-94682381D02*
X45914286Y-94682381D01*
X46200000Y-94682381D02*
X46200000Y-93682381D01*
X46104762Y-93825238D01*
X46009524Y-93920476D01*
X45914286Y-93968095D01*
X44961905Y-81352381D02*
X44961905Y-80352381D01*
X45342858Y-80352381D01*
X45438096Y-80400000D01*
X45485715Y-80447619D01*
X45533334Y-80542857D01*
X45533334Y-80685714D01*
X45485715Y-80780952D01*
X45438096Y-80828571D01*
X45342858Y-80876190D01*
X44961905Y-80876190D01*
X45914286Y-80447619D02*
X45961905Y-80400000D01*
X46057143Y-80352381D01*
X46295239Y-80352381D01*
X46390477Y-80400000D01*
X46438096Y-80447619D01*
X46485715Y-80542857D01*
X46485715Y-80638095D01*
X46438096Y-80780952D01*
X45866667Y-81352381D01*
X46485715Y-81352381D01*
X263311905Y-95342381D02*
X263311905Y-94342381D01*
X263692858Y-94342381D01*
X263788096Y-94390000D01*
X263835715Y-94437619D01*
X263883334Y-94532857D01*
X263883334Y-94675714D01*
X263835715Y-94770952D01*
X263788096Y-94818571D01*
X263692858Y-94866190D01*
X263311905Y-94866190D01*
X264216667Y-94342381D02*
X264835715Y-94342381D01*
X264502381Y-94723333D01*
X264645239Y-94723333D01*
X264740477Y-94770952D01*
X264788096Y-94818571D01*
X264835715Y-94913810D01*
X264835715Y-95151905D01*
X264788096Y-95247143D01*
X264740477Y-95294762D01*
X264645239Y-95342381D01*
X264359524Y-95342381D01*
X264264286Y-95294762D01*
X264216667Y-95247143D01*
M02*
