G04 #@! TF.FileFunction,Soldermask,Top*
%FSLAX46Y46*%
G04 Gerber Fmt 4.6, Leading zero omitted, Abs format (unit mm)*
G04 Created by KiCad (PCBNEW 4.0.2-stable) date 08/07/2016 18:20:32*
%MOMM*%
G01*
G04 APERTURE LIST*
%ADD10C,0.100000*%
%ADD11R,1.600000X1.000000*%
%ADD12R,1.000000X1.600000*%
%ADD13R,1.250000X1.000000*%
%ADD14R,1.300000X1.300000*%
%ADD15C,1.300000*%
%ADD16R,4.100000X2.000000*%
%ADD17R,1.676400X1.524000*%
%ADD18R,2.180000X1.620000*%
%ADD19R,1.220000X0.910000*%
%ADD20R,1.524000X1.676400*%
%ADD21R,1.100000X1.250000*%
%ADD22R,5.180000X1.430000*%
%ADD23R,5.300000X2.800000*%
%ADD24O,1.998980X1.998980*%
%ADD25R,1.998980X1.998980*%
%ADD26C,1.800000*%
%ADD27R,1.800000X2.200000*%
%ADD28R,0.900000X0.800000*%
%ADD29R,1.300000X0.700000*%
%ADD30R,0.700000X1.300000*%
%ADD31R,1.700000X0.900000*%
%ADD32R,0.900000X0.500000*%
%ADD33R,0.800000X1.000000*%
%ADD34R,0.300000X1.450000*%
%ADD35R,2.270000X2.210000*%
%ADD36R,1.100000X4.600000*%
%ADD37R,10.800000X9.400000*%
%ADD38R,2.850000X1.250000*%
%ADD39R,6.500000X5.600000*%
%ADD40C,1.506220*%
%ADD41O,1.506220X3.014980*%
%ADD42C,5.000000*%
G04 APERTURE END LIST*
D10*
D11*
X108673900Y-69658100D03*
X108673900Y-72658100D03*
D12*
X151647800Y-96027400D03*
X148647800Y-96027400D03*
D13*
X158397800Y-88177400D03*
X158397800Y-86177400D03*
X154987800Y-95127400D03*
X154987800Y-93127400D03*
D12*
X151187800Y-80367400D03*
X154187800Y-80367400D03*
X174227800Y-95597400D03*
X171227800Y-95597400D03*
D13*
X181347800Y-87947400D03*
X181347800Y-85947400D03*
X177517800Y-94697400D03*
X177517800Y-92697400D03*
D12*
X173977800Y-80097400D03*
X176977800Y-80097400D03*
X196064000Y-95313500D03*
X193064000Y-95313500D03*
D13*
X203238100Y-87588600D03*
X203238100Y-85588600D03*
X199364600Y-94510100D03*
X199364600Y-92510100D03*
D12*
X195692900Y-79756000D03*
X198692900Y-79756000D03*
X129707800Y-96057400D03*
X126707800Y-96057400D03*
D13*
X136617800Y-88297400D03*
X136617800Y-86297400D03*
X132977800Y-95317400D03*
X132977800Y-93317400D03*
D12*
X128687800Y-80527400D03*
X131687800Y-80527400D03*
D14*
X98640900Y-96443800D03*
D15*
X93640900Y-96443800D03*
D16*
X101903500Y-121945400D03*
X106503500Y-121945400D03*
D12*
X187199400Y-72961500D03*
X184199400Y-72961500D03*
D11*
X147561300Y-66572000D03*
X147561300Y-69572000D03*
D12*
X151647800Y-93647400D03*
X148647800Y-93647400D03*
X174227800Y-93207400D03*
X171227800Y-93207400D03*
X196089400Y-92722700D03*
X193089400Y-92722700D03*
X129707800Y-93687400D03*
X126707800Y-93687400D03*
D17*
X105168700Y-69380100D03*
X105168700Y-72783700D03*
D18*
X112712500Y-73166500D03*
X112712500Y-68946500D03*
D19*
X155087800Y-86282400D03*
X155087800Y-89552400D03*
X132967800Y-86462400D03*
X132967800Y-89732400D03*
X177517800Y-85842400D03*
X177517800Y-89112400D03*
X199517000Y-85550500D03*
X199517000Y-88820500D03*
D20*
X126276100Y-74358500D03*
X122872500Y-74358500D03*
X104533700Y-101790500D03*
X107937300Y-101790500D03*
D21*
X129882900Y-114228700D03*
X129882900Y-116428700D03*
D22*
X150467800Y-87517400D03*
X150467800Y-83477400D03*
X172927800Y-87337400D03*
X172927800Y-83297400D03*
X128427800Y-87897400D03*
X128427800Y-83857400D03*
X194830700Y-87033800D03*
X194830700Y-82993800D03*
D23*
X107924600Y-113619300D03*
X107924600Y-106319300D03*
D24*
X95046800Y-72301100D03*
D25*
X95046800Y-69761100D03*
D26*
X156211900Y-113777000D03*
X161211900Y-113777000D03*
D27*
X153411900Y-120777000D03*
X164011900Y-120777000D03*
D26*
X158711900Y-113777000D03*
X178449600Y-114285000D03*
X183449600Y-114285000D03*
D27*
X175649600Y-121285000D03*
X186249600Y-121285000D03*
D26*
X180949600Y-114285000D03*
X200458700Y-114158000D03*
X205458700Y-114158000D03*
D27*
X197658700Y-121158000D03*
X208258700Y-121158000D03*
D26*
X202958700Y-114158000D03*
X134367900Y-114005600D03*
X139367900Y-114005600D03*
D27*
X131567900Y-121005600D03*
X142167900Y-121005600D03*
D26*
X136867900Y-114005600D03*
D28*
X125447300Y-80274200D03*
X125447300Y-78374200D03*
X123447300Y-79324200D03*
D29*
X195332350Y-73371750D03*
X195332350Y-71471750D03*
X197872350Y-73371750D03*
X197872350Y-71471750D03*
X200412350Y-73371750D03*
X200412350Y-71471750D03*
X202952350Y-73371750D03*
X202952350Y-71471750D03*
X205492350Y-73371750D03*
X205492350Y-71471750D03*
D30*
X151677800Y-98497400D03*
X153577800Y-98497400D03*
X160962300Y-97231200D03*
X162862300Y-97231200D03*
D29*
X160827800Y-95337400D03*
X160827800Y-93437400D03*
X160957800Y-81497400D03*
X160957800Y-83397400D03*
D31*
X156507800Y-81587400D03*
X156507800Y-84487400D03*
D30*
X174187800Y-97967400D03*
X176087800Y-97967400D03*
X129657800Y-98487400D03*
X131557800Y-98487400D03*
X138965900Y-97409000D03*
X140865900Y-97409000D03*
D29*
X138867800Y-95367400D03*
X138867800Y-93467400D03*
X139277800Y-81627400D03*
X139277800Y-83527400D03*
D31*
X134567800Y-81667400D03*
X134567800Y-84567400D03*
D30*
X183504800Y-97104200D03*
X185404800Y-97104200D03*
D29*
X183557800Y-95027400D03*
X183557800Y-93127400D03*
X183717800Y-81257400D03*
X183717800Y-83157400D03*
D31*
X179397800Y-81137400D03*
X179397800Y-84037400D03*
D30*
X196166700Y-97764600D03*
X198066700Y-97764600D03*
X205386900Y-97790000D03*
X207286900Y-97790000D03*
D29*
X205562200Y-94739500D03*
X205562200Y-92839500D03*
X205536800Y-80863400D03*
X205536800Y-82763400D03*
D31*
X201612500Y-80820600D03*
X201612500Y-83720600D03*
D29*
X126644400Y-118602800D03*
X126644400Y-116702800D03*
D32*
X129578100Y-71704900D03*
X129578100Y-70204900D03*
X132118100Y-71704900D03*
X132118100Y-70204900D03*
D30*
X121879400Y-105181400D03*
X119979400Y-105181400D03*
X117891600Y-105168700D03*
X115991600Y-105168700D03*
X121942900Y-109067600D03*
X120042900Y-109067600D03*
X117929700Y-109080300D03*
X116029700Y-109080300D03*
X121981000Y-113068100D03*
X120081000Y-113068100D03*
X117967800Y-113080800D03*
X116067800Y-113080800D03*
X122006400Y-117106700D03*
X120106400Y-117106700D03*
X118005900Y-117094000D03*
X116105900Y-117094000D03*
D29*
X186461400Y-86133900D03*
X186461400Y-88033900D03*
D33*
X187077500Y-82499200D03*
X189477500Y-82499200D03*
D34*
X157117800Y-90787400D03*
X157617800Y-90787400D03*
X158117800Y-90787400D03*
X158617800Y-90787400D03*
X159117800Y-90787400D03*
X159141800Y-95187400D03*
X158633800Y-95187400D03*
X158117800Y-95187400D03*
D35*
X158117800Y-92987400D03*
D34*
X157117800Y-95187400D03*
X157617800Y-95187400D03*
X179657800Y-90397400D03*
X180157800Y-90397400D03*
X180657800Y-90397400D03*
X181157800Y-90397400D03*
X181657800Y-90397400D03*
X181681800Y-94797400D03*
X181173800Y-94797400D03*
X180657800Y-94797400D03*
D35*
X180657800Y-92597400D03*
D34*
X179657800Y-94797400D03*
X180157800Y-94797400D03*
X201552300Y-90103600D03*
X202052300Y-90103600D03*
X202552300Y-90103600D03*
X203052300Y-90103600D03*
X203552300Y-90103600D03*
X203576300Y-94503600D03*
X203068300Y-94503600D03*
X202552300Y-94503600D03*
D35*
X202552300Y-92303600D03*
D34*
X201552300Y-94503600D03*
X202052300Y-94503600D03*
X135127800Y-90987400D03*
X135627800Y-90987400D03*
X136127800Y-90987400D03*
X136627800Y-90987400D03*
X137127800Y-90987400D03*
X137151800Y-95387400D03*
X136643800Y-95387400D03*
X136127800Y-95387400D03*
D35*
X136127800Y-93187400D03*
D34*
X135127800Y-95387400D03*
X135627800Y-95387400D03*
D36*
X113051800Y-96545400D03*
X111351800Y-96545400D03*
X107951800Y-96545400D03*
D37*
X109651800Y-87395400D03*
D36*
X109651800Y-96545400D03*
X106251800Y-96545400D03*
D38*
X111646100Y-126562200D03*
D39*
X118046100Y-124282200D03*
D38*
X111646100Y-122002200D03*
D40*
X126868600Y-104786700D03*
X126868600Y-107286700D03*
X129618600Y-104786700D03*
X129618600Y-107286700D03*
X132398600Y-104786700D03*
X132398600Y-107286700D03*
X135138600Y-104786700D03*
X135138600Y-107286700D03*
X140578600Y-104786700D03*
X140578600Y-107286700D03*
X148675100Y-104781600D03*
X148675100Y-107281600D03*
X151475100Y-104781600D03*
X151475100Y-107281600D03*
X154265100Y-104781600D03*
X154265100Y-107281600D03*
X157065100Y-104731600D03*
X157065100Y-107231600D03*
X162425100Y-104671600D03*
X162425100Y-107171600D03*
X170842400Y-104668600D03*
X170842400Y-107168600D03*
X173662400Y-104668600D03*
X173662400Y-107168600D03*
X176512400Y-104668600D03*
X176512400Y-107168600D03*
X179332400Y-104668600D03*
X179332400Y-107168600D03*
X184772400Y-104658600D03*
X184772400Y-107158600D03*
X192989200Y-104673400D03*
X192989200Y-107173400D03*
X195834000Y-104673400D03*
X195834000Y-107173400D03*
X198678800Y-104673400D03*
X198678800Y-107173400D03*
X201523600Y-104673400D03*
X201523600Y-107173400D03*
X206768700Y-104673400D03*
X206768700Y-107173400D03*
D41*
X185172350Y-67341750D03*
X187712350Y-67341750D03*
X190212350Y-67341750D03*
X202952350Y-67341750D03*
X207992350Y-67341750D03*
X205452350Y-67341750D03*
X200412350Y-67341750D03*
X192792350Y-67341750D03*
X195332350Y-67341750D03*
X197832350Y-67341750D03*
X123685300Y-67056000D03*
X126185300Y-67056000D03*
X155221300Y-67462400D03*
X157721300Y-67462400D03*
X162761300Y-67462400D03*
X160221300Y-67462400D03*
X168238800Y-67462400D03*
X170738800Y-67462400D03*
X175778800Y-67462400D03*
X173238800Y-67462400D03*
X138010900Y-67411600D03*
X143090900Y-67411600D03*
X140550900Y-67411600D03*
D42*
X93345500Y-125121600D03*
M02*
