M48
METRIC,TZ
T1C0.400
T2C0.800
T3C0.998
T4C1.000
T5C1.097
T6C3.200
%
G90
G05
T1
X95707Y-98489
X95745Y-94463
X97727Y-72873
X98590Y-69863
X100406Y-69863
X100661Y-96448
X102298Y-96520
X102362Y-69469
X104165Y-96482
X104737Y-125082
X105601Y-83782
X106274Y-88875
X107874Y-78219
X109652Y-87395
X110198Y-78245
X112331Y-88671
X112446Y-125108
X112586Y-83896
X112674Y-78207
X120968Y-107086
X120968Y-119126
X120993Y-111112
X121056Y-115138
X121996Y-120269
X122999Y-107086
X123012Y-111087
X123088Y-119075
X123152Y-115100
X123469Y-95352
X123596Y-71006
X123685Y-69748
X123698Y-70371
X125082Y-94272
X125362Y-109563
X125806Y-77114
X126251Y-71069
X126276Y-71653
X126327Y-70472
X127178Y-110376
X129045Y-111138
X129057Y-85865
X129870Y-117742
X130772Y-111963
X132842Y-85039
X133286Y-70155
X134861Y-86309
X135098Y-92537
X135098Y-93887
X135138Y-93857
X136128Y-93187
X136385Y-106083
X137288Y-92527
X137298Y-93837
X137757Y-96698
X139014Y-63462
X139344Y-63170
X139408Y-106020
X141122Y-95834
X141224Y-98908
X141834Y-69558
X142380Y-96952
X143129Y-97854
X143180Y-113246
X145694Y-95771
X146507Y-94348
X146964Y-109588
X147218Y-65342
X149200Y-110350
X151105Y-65722
X151422Y-111176
X151511Y-78473
X152260Y-77749
X152273Y-85789
X152705Y-72161
X152730Y-77254
X153086Y-64084
X153340Y-71501
X153645Y-111951
X154038Y-70828
X154673Y-84950
X156731Y-85928
X157168Y-92497
X157378Y-93577
X157408Y-93577
X158118Y-92987
X158306Y-106032
X159118Y-92507
X159118Y-93547
X159677Y-96571
X159804Y-98577
X161201Y-105956
X163703Y-95415
X164516Y-97803
X165430Y-98781
X165811Y-114351
X166199Y-79064
X166700Y-79540
X167221Y-80086
X167373Y-117272
X168237Y-72187
X168239Y-70409
X168262Y-71323
X168516Y-95237
X168923Y-109601
X169329Y-93866
X169659Y-117081
X170713Y-71171
X170726Y-72047
X170739Y-70028
X171158Y-110363
X173239Y-70396
X173241Y-72161
X173266Y-71374
X173330Y-111176
X173838Y-74968
X174600Y-75019
X174818Y-85327
X175362Y-74968
X175920Y-111951
X176035Y-71018
X176428Y-71653
X176898Y-72441
X177668Y-84377
X179448Y-84177
X179448Y-85667
X179845Y-91986
X179921Y-93231
X180404Y-105918
X180658Y-92597
X181445Y-92024
X181445Y-93205
X182194Y-96380
X182194Y-97968
X183718Y-105842
X184137Y-70599
X185268Y-89129
X185763Y-75540
X185788Y-80797
X186030Y-95745
X186741Y-97676
X186957Y-64046
X187782Y-98781
X187846Y-113043
X189484Y-80772
X189509Y-75844
X189751Y-94513
X190233Y-69901
X190995Y-63170
X191199Y-93421
X191414Y-63551
X192837Y-69761
X192976Y-108776
X194056Y-63919
X194615Y-63919
X195123Y-63919
X195326Y-69736
X195656Y-85039
X195821Y-108725
X196926Y-84988
X197891Y-69698
X198679Y-108737
X199466Y-84188
X200406Y-69710
X201155Y-85014
X201524Y-108737
X201905Y-92888
X201930Y-91707
X202552Y-92304
X202616Y-105943
X202946Y-69736
X203162Y-91707
X203175Y-92926
X203403Y-76911
X203492Y-79400
X203772Y-96761
X204038Y-92926
X204064Y-91694
X204076Y-98793
X205423Y-69787
X205613Y-105918
X207836Y-96126
X208585Y-98958
X209563Y-77699
X209563Y-82664
T2
X93641Y-96444
X98641Y-96444
T3
X123685Y-67056
X126185Y-67056
X126869Y-104787
X126869Y-107287
X129619Y-104787
X129619Y-107287
X132399Y-104787
X132399Y-107287
X135139Y-104787
X135139Y-107287
X138011Y-67412
X140551Y-67412
X140579Y-104787
X140579Y-107287
X143091Y-67412
X148675Y-104782
X148675Y-107282
X151475Y-104782
X151475Y-107282
X154265Y-104782
X154265Y-107282
X155221Y-67462
X157065Y-104732
X157065Y-107232
X157721Y-67462
X160221Y-67462
X162425Y-104672
X162425Y-107172
X162761Y-67462
X168239Y-67462
X170739Y-67462
X170842Y-104669
X170842Y-107169
X173239Y-67462
X173662Y-104669
X173662Y-107169
X175779Y-67462
X176512Y-104669
X176512Y-107169
X179332Y-104669
X179332Y-107169
X184772Y-104659
X184772Y-107159
X185172Y-67342
X187712Y-67342
X190212Y-67342
X192792Y-67342
X192989Y-104673
X192989Y-107173
X195332Y-67342
X195834Y-104673
X195834Y-107173
X197832Y-67342
X198679Y-104673
X198679Y-107173
X200412Y-67342
X201524Y-104673
X201524Y-107173
X202952Y-67342
X205452Y-67342
X206769Y-104673
X206769Y-107173
X207992Y-67342
T4
X134368Y-114006
X136868Y-114006
X139368Y-114006
X156212Y-113777
X158712Y-113777
X161212Y-113777
X178450Y-114285
X180950Y-114285
X183450Y-114285
X200459Y-114158
X202959Y-114158
X205459Y-114158
T5
X95047Y-69761
X95047Y-72301
T6
X93346Y-125122
T0
M30
