G04 #@! TF.FileFunction,Legend,Top*
%FSLAX46Y46*%
G04 Gerber Fmt 4.6, Leading zero omitted, Abs format (unit mm)*
G04 Created by KiCad (PCBNEW 4.0.2-stable) date 08/07/2016 16:35:56*
%MOMM*%
G01*
G04 APERTURE LIST*
%ADD10C,0.100000*%
%ADD11C,0.150000*%
%ADD12C,0.300000*%
%ADD13C,0.127000*%
%ADD14C,0.076200*%
G04 APERTURE END LIST*
D10*
D11*
X90676929Y-72882552D02*
X90676929Y-72120647D01*
X90294548Y-69683029D02*
X91056453Y-69683029D01*
X90675501Y-70063981D02*
X90675501Y-69302076D01*
D12*
X100256929Y-64300171D02*
X99542643Y-64300171D01*
X99542643Y-62800171D01*
X100756929Y-63514457D02*
X101256929Y-63514457D01*
X101471215Y-64300171D02*
X100756929Y-64300171D01*
X100756929Y-62800171D01*
X101471215Y-62800171D01*
X102114072Y-64300171D02*
X102114072Y-62800171D01*
X102471215Y-62800171D01*
X102685500Y-62871600D01*
X102828358Y-63014457D01*
X102899786Y-63157314D01*
X102971215Y-63443029D01*
X102971215Y-63657314D01*
X102899786Y-63943029D01*
X102828358Y-64085886D01*
X102685500Y-64228743D01*
X102471215Y-64300171D01*
X102114072Y-64300171D01*
X103542643Y-64228743D02*
X103685500Y-64300171D01*
X103971215Y-64300171D01*
X104114072Y-64228743D01*
X104185500Y-64085886D01*
X104185500Y-64014457D01*
X104114072Y-63871600D01*
X103971215Y-63800171D01*
X103756929Y-63800171D01*
X103614072Y-63728743D01*
X103542643Y-63585886D01*
X103542643Y-63514457D01*
X103614072Y-63371600D01*
X103756929Y-63300171D01*
X103971215Y-63300171D01*
X104114072Y-63371600D01*
X106828358Y-64157314D02*
X106756929Y-64228743D01*
X106542643Y-64300171D01*
X106399786Y-64300171D01*
X106185501Y-64228743D01*
X106042643Y-64085886D01*
X105971215Y-63943029D01*
X105899786Y-63657314D01*
X105899786Y-63443029D01*
X105971215Y-63157314D01*
X106042643Y-63014457D01*
X106185501Y-62871600D01*
X106399786Y-62800171D01*
X106542643Y-62800171D01*
X106756929Y-62871600D01*
X106828358Y-62943029D01*
X107256929Y-63300171D02*
X107828358Y-63300171D01*
X107471215Y-62800171D02*
X107471215Y-64085886D01*
X107542643Y-64228743D01*
X107685501Y-64300171D01*
X107828358Y-64300171D01*
X108328358Y-64300171D02*
X108328358Y-63300171D01*
X108328358Y-63585886D02*
X108399786Y-63443029D01*
X108471215Y-63371600D01*
X108614072Y-63300171D01*
X108756929Y-63300171D01*
X109471215Y-64300171D02*
X109328357Y-64228743D01*
X109256929Y-64085886D01*
X109256929Y-62800171D01*
X111042643Y-63300171D02*
X111399786Y-64300171D01*
X111756928Y-63300171D01*
X112614071Y-62800171D02*
X112756928Y-62800171D01*
X112899785Y-62871600D01*
X112971214Y-62943029D01*
X113042643Y-63085886D01*
X113114071Y-63371600D01*
X113114071Y-63728743D01*
X113042643Y-64014457D01*
X112971214Y-64157314D01*
X112899785Y-64228743D01*
X112756928Y-64300171D01*
X112614071Y-64300171D01*
X112471214Y-64228743D01*
X112399785Y-64157314D01*
X112328357Y-64014457D01*
X112256928Y-63728743D01*
X112256928Y-63371600D01*
X112328357Y-63085886D01*
X112399785Y-62943029D01*
X112471214Y-62871600D01*
X112614071Y-62800171D01*
X113756928Y-64157314D02*
X113828356Y-64228743D01*
X113756928Y-64300171D01*
X113685499Y-64228743D01*
X113756928Y-64157314D01*
X113756928Y-64300171D01*
X115256928Y-64300171D02*
X114399785Y-64300171D01*
X114828357Y-64300171D02*
X114828357Y-62800171D01*
X114685500Y-63014457D01*
X114542642Y-63157314D01*
X114399785Y-63228743D01*
X99542643Y-66700171D02*
X99542643Y-65200171D01*
X99899786Y-65200171D01*
X100114071Y-65271600D01*
X100256929Y-65414457D01*
X100328357Y-65557314D01*
X100399786Y-65843029D01*
X100399786Y-66057314D01*
X100328357Y-66343029D01*
X100256929Y-66485886D01*
X100114071Y-66628743D01*
X99899786Y-66700171D01*
X99542643Y-66700171D01*
X101614071Y-66628743D02*
X101471214Y-66700171D01*
X101185500Y-66700171D01*
X101042643Y-66628743D01*
X100971214Y-66485886D01*
X100971214Y-65914457D01*
X101042643Y-65771600D01*
X101185500Y-65700171D01*
X101471214Y-65700171D01*
X101614071Y-65771600D01*
X101685500Y-65914457D01*
X101685500Y-66057314D01*
X100971214Y-66200171D01*
X102256928Y-66628743D02*
X102399785Y-66700171D01*
X102685500Y-66700171D01*
X102828357Y-66628743D01*
X102899785Y-66485886D01*
X102899785Y-66414457D01*
X102828357Y-66271600D01*
X102685500Y-66200171D01*
X102471214Y-66200171D01*
X102328357Y-66128743D01*
X102256928Y-65985886D01*
X102256928Y-65914457D01*
X102328357Y-65771600D01*
X102471214Y-65700171D01*
X102685500Y-65700171D01*
X102828357Y-65771600D01*
X103542643Y-66700171D02*
X103542643Y-65700171D01*
X103542643Y-65200171D02*
X103471214Y-65271600D01*
X103542643Y-65343029D01*
X103614071Y-65271600D01*
X103542643Y-65200171D01*
X103542643Y-65343029D01*
X104899786Y-65700171D02*
X104899786Y-66914457D01*
X104828357Y-67057314D01*
X104756929Y-67128743D01*
X104614072Y-67200171D01*
X104399786Y-67200171D01*
X104256929Y-67128743D01*
X104899786Y-66628743D02*
X104756929Y-66700171D01*
X104471215Y-66700171D01*
X104328357Y-66628743D01*
X104256929Y-66557314D01*
X104185500Y-66414457D01*
X104185500Y-65985886D01*
X104256929Y-65843029D01*
X104328357Y-65771600D01*
X104471215Y-65700171D01*
X104756929Y-65700171D01*
X104899786Y-65771600D01*
X105614072Y-65700171D02*
X105614072Y-66700171D01*
X105614072Y-65843029D02*
X105685500Y-65771600D01*
X105828358Y-65700171D01*
X106042643Y-65700171D01*
X106185500Y-65771600D01*
X106256929Y-65914457D01*
X106256929Y-66700171D01*
X108114072Y-66700171D02*
X108114072Y-65200171D01*
X108114072Y-65771600D02*
X108256929Y-65700171D01*
X108542643Y-65700171D01*
X108685500Y-65771600D01*
X108756929Y-65843029D01*
X108828358Y-65985886D01*
X108828358Y-66414457D01*
X108756929Y-66557314D01*
X108685500Y-66628743D01*
X108542643Y-66700171D01*
X108256929Y-66700171D01*
X108114072Y-66628743D01*
X109328358Y-65700171D02*
X109685501Y-66700171D01*
X110042643Y-65700171D02*
X109685501Y-66700171D01*
X109542643Y-67057314D01*
X109471215Y-67128743D01*
X109328358Y-67200171D01*
X112614072Y-66700171D02*
X112114072Y-65985886D01*
X111756929Y-66700171D02*
X111756929Y-65200171D01*
X112328357Y-65200171D01*
X112471215Y-65271600D01*
X112542643Y-65343029D01*
X112614072Y-65485886D01*
X112614072Y-65700171D01*
X112542643Y-65843029D01*
X112471215Y-65914457D01*
X112328357Y-65985886D01*
X111756929Y-65985886D01*
X113256929Y-66700171D02*
X113256929Y-65700171D01*
X113256929Y-65200171D02*
X113185500Y-65271600D01*
X113256929Y-65343029D01*
X113328357Y-65271600D01*
X113256929Y-65200171D01*
X113256929Y-65343029D01*
X113899786Y-66628743D02*
X114042643Y-66700171D01*
X114328358Y-66700171D01*
X114471215Y-66628743D01*
X114542643Y-66485886D01*
X114542643Y-66414457D01*
X114471215Y-66271600D01*
X114328358Y-66200171D01*
X114114072Y-66200171D01*
X113971215Y-66128743D01*
X113899786Y-65985886D01*
X113899786Y-65914457D01*
X113971215Y-65771600D01*
X114114072Y-65700171D01*
X114328358Y-65700171D01*
X114471215Y-65771600D01*
X115756929Y-66628743D02*
X115614072Y-66700171D01*
X115328358Y-66700171D01*
X115185501Y-66628743D01*
X115114072Y-66485886D01*
X115114072Y-65914457D01*
X115185501Y-65771600D01*
X115328358Y-65700171D01*
X115614072Y-65700171D01*
X115756929Y-65771600D01*
X115828358Y-65914457D01*
X115828358Y-66057314D01*
X115114072Y-66200171D01*
X116471215Y-66700171D02*
X116471215Y-65200171D01*
X116471215Y-65771600D02*
X116614072Y-65700171D01*
X116899786Y-65700171D01*
X117042643Y-65771600D01*
X117114072Y-65843029D01*
X117185501Y-65985886D01*
X117185501Y-66414457D01*
X117114072Y-66557314D01*
X117042643Y-66628743D01*
X116899786Y-66700171D01*
X116614072Y-66700171D01*
X116471215Y-66628743D01*
X118042644Y-66700171D02*
X117899786Y-66628743D01*
X117828358Y-66557314D01*
X117756929Y-66414457D01*
X117756929Y-65985886D01*
X117828358Y-65843029D01*
X117899786Y-65771600D01*
X118042644Y-65700171D01*
X118256929Y-65700171D01*
X118399786Y-65771600D01*
X118471215Y-65843029D01*
X118542644Y-65985886D01*
X118542644Y-66414457D01*
X118471215Y-66557314D01*
X118399786Y-66628743D01*
X118256929Y-66700171D01*
X118042644Y-66700171D01*
X119042644Y-66700171D02*
X119828358Y-65700171D01*
X119042644Y-65700171D02*
X119828358Y-66700171D01*
D11*
X201021690Y-127928743D02*
X200974071Y-127976362D01*
X200831214Y-128023981D01*
X200735976Y-128023981D01*
X200593118Y-127976362D01*
X200497880Y-127881124D01*
X200450261Y-127785886D01*
X200402642Y-127595410D01*
X200402642Y-127452552D01*
X200450261Y-127262076D01*
X200497880Y-127166838D01*
X200593118Y-127071600D01*
X200735976Y-127023981D01*
X200831214Y-127023981D01*
X200974071Y-127071600D01*
X201021690Y-127119219D01*
X201593118Y-128023981D02*
X201497880Y-127976362D01*
X201450261Y-127928743D01*
X201402642Y-127833505D01*
X201402642Y-127547790D01*
X201450261Y-127452552D01*
X201497880Y-127404933D01*
X201593118Y-127357314D01*
X201735976Y-127357314D01*
X201831214Y-127404933D01*
X201878833Y-127452552D01*
X201926452Y-127547790D01*
X201926452Y-127833505D01*
X201878833Y-127928743D01*
X201831214Y-127976362D01*
X201735976Y-128023981D01*
X201593118Y-128023981D01*
X202497880Y-128023981D02*
X202402642Y-127976362D01*
X202355023Y-127881124D01*
X202355023Y-127023981D01*
X203021690Y-128023981D02*
X202926452Y-127976362D01*
X202878833Y-127928743D01*
X202831214Y-127833505D01*
X202831214Y-127547790D01*
X202878833Y-127452552D01*
X202926452Y-127404933D01*
X203021690Y-127357314D01*
X203164548Y-127357314D01*
X203259786Y-127404933D01*
X203307405Y-127452552D01*
X203355024Y-127547790D01*
X203355024Y-127833505D01*
X203307405Y-127928743D01*
X203259786Y-127976362D01*
X203164548Y-128023981D01*
X203021690Y-128023981D01*
X203783595Y-128023981D02*
X203783595Y-127357314D01*
X203783595Y-127547790D02*
X203831214Y-127452552D01*
X203878833Y-127404933D01*
X203974071Y-127357314D01*
X204069310Y-127357314D01*
X205593120Y-127357314D02*
X205593120Y-128023981D01*
X205355024Y-126976362D02*
X205116929Y-127690648D01*
X205735977Y-127690648D01*
X178891690Y-128018743D02*
X178844071Y-128066362D01*
X178701214Y-128113981D01*
X178605976Y-128113981D01*
X178463118Y-128066362D01*
X178367880Y-127971124D01*
X178320261Y-127875886D01*
X178272642Y-127685410D01*
X178272642Y-127542552D01*
X178320261Y-127352076D01*
X178367880Y-127256838D01*
X178463118Y-127161600D01*
X178605976Y-127113981D01*
X178701214Y-127113981D01*
X178844071Y-127161600D01*
X178891690Y-127209219D01*
X179463118Y-128113981D02*
X179367880Y-128066362D01*
X179320261Y-128018743D01*
X179272642Y-127923505D01*
X179272642Y-127637790D01*
X179320261Y-127542552D01*
X179367880Y-127494933D01*
X179463118Y-127447314D01*
X179605976Y-127447314D01*
X179701214Y-127494933D01*
X179748833Y-127542552D01*
X179796452Y-127637790D01*
X179796452Y-127923505D01*
X179748833Y-128018743D01*
X179701214Y-128066362D01*
X179605976Y-128113981D01*
X179463118Y-128113981D01*
X180367880Y-128113981D02*
X180272642Y-128066362D01*
X180225023Y-127971124D01*
X180225023Y-127113981D01*
X180891690Y-128113981D02*
X180796452Y-128066362D01*
X180748833Y-128018743D01*
X180701214Y-127923505D01*
X180701214Y-127637790D01*
X180748833Y-127542552D01*
X180796452Y-127494933D01*
X180891690Y-127447314D01*
X181034548Y-127447314D01*
X181129786Y-127494933D01*
X181177405Y-127542552D01*
X181225024Y-127637790D01*
X181225024Y-127923505D01*
X181177405Y-128018743D01*
X181129786Y-128066362D01*
X181034548Y-128113981D01*
X180891690Y-128113981D01*
X181653595Y-128113981D02*
X181653595Y-127447314D01*
X181653595Y-127637790D02*
X181701214Y-127542552D01*
X181748833Y-127494933D01*
X181844071Y-127447314D01*
X181939310Y-127447314D01*
X182939310Y-127113981D02*
X183558358Y-127113981D01*
X183225024Y-127494933D01*
X183367882Y-127494933D01*
X183463120Y-127542552D01*
X183510739Y-127590171D01*
X183558358Y-127685410D01*
X183558358Y-127923505D01*
X183510739Y-128018743D01*
X183463120Y-128066362D01*
X183367882Y-128113981D01*
X183082167Y-128113981D01*
X182986929Y-128066362D01*
X182939310Y-128018743D01*
X157181690Y-127878743D02*
X157134071Y-127926362D01*
X156991214Y-127973981D01*
X156895976Y-127973981D01*
X156753118Y-127926362D01*
X156657880Y-127831124D01*
X156610261Y-127735886D01*
X156562642Y-127545410D01*
X156562642Y-127402552D01*
X156610261Y-127212076D01*
X156657880Y-127116838D01*
X156753118Y-127021600D01*
X156895976Y-126973981D01*
X156991214Y-126973981D01*
X157134071Y-127021600D01*
X157181690Y-127069219D01*
X157753118Y-127973981D02*
X157657880Y-127926362D01*
X157610261Y-127878743D01*
X157562642Y-127783505D01*
X157562642Y-127497790D01*
X157610261Y-127402552D01*
X157657880Y-127354933D01*
X157753118Y-127307314D01*
X157895976Y-127307314D01*
X157991214Y-127354933D01*
X158038833Y-127402552D01*
X158086452Y-127497790D01*
X158086452Y-127783505D01*
X158038833Y-127878743D01*
X157991214Y-127926362D01*
X157895976Y-127973981D01*
X157753118Y-127973981D01*
X158657880Y-127973981D02*
X158562642Y-127926362D01*
X158515023Y-127831124D01*
X158515023Y-126973981D01*
X159181690Y-127973981D02*
X159086452Y-127926362D01*
X159038833Y-127878743D01*
X158991214Y-127783505D01*
X158991214Y-127497790D01*
X159038833Y-127402552D01*
X159086452Y-127354933D01*
X159181690Y-127307314D01*
X159324548Y-127307314D01*
X159419786Y-127354933D01*
X159467405Y-127402552D01*
X159515024Y-127497790D01*
X159515024Y-127783505D01*
X159467405Y-127878743D01*
X159419786Y-127926362D01*
X159324548Y-127973981D01*
X159181690Y-127973981D01*
X159943595Y-127973981D02*
X159943595Y-127307314D01*
X159943595Y-127497790D02*
X159991214Y-127402552D01*
X160038833Y-127354933D01*
X160134071Y-127307314D01*
X160229310Y-127307314D01*
X161276929Y-127069219D02*
X161324548Y-127021600D01*
X161419786Y-126973981D01*
X161657882Y-126973981D01*
X161753120Y-127021600D01*
X161800739Y-127069219D01*
X161848358Y-127164457D01*
X161848358Y-127259695D01*
X161800739Y-127402552D01*
X161229310Y-127973981D01*
X161848358Y-127973981D01*
X135000738Y-127928743D02*
X134953119Y-127976362D01*
X134810262Y-128023981D01*
X134715024Y-128023981D01*
X134572166Y-127976362D01*
X134476928Y-127881124D01*
X134429309Y-127785886D01*
X134381690Y-127595410D01*
X134381690Y-127452552D01*
X134429309Y-127262076D01*
X134476928Y-127166838D01*
X134572166Y-127071600D01*
X134715024Y-127023981D01*
X134810262Y-127023981D01*
X134953119Y-127071600D01*
X135000738Y-127119219D01*
X135572166Y-128023981D02*
X135476928Y-127976362D01*
X135429309Y-127928743D01*
X135381690Y-127833505D01*
X135381690Y-127547790D01*
X135429309Y-127452552D01*
X135476928Y-127404933D01*
X135572166Y-127357314D01*
X135715024Y-127357314D01*
X135810262Y-127404933D01*
X135857881Y-127452552D01*
X135905500Y-127547790D01*
X135905500Y-127833505D01*
X135857881Y-127928743D01*
X135810262Y-127976362D01*
X135715024Y-128023981D01*
X135572166Y-128023981D01*
X136476928Y-128023981D02*
X136381690Y-127976362D01*
X136334071Y-127881124D01*
X136334071Y-127023981D01*
X137000738Y-128023981D02*
X136905500Y-127976362D01*
X136857881Y-127928743D01*
X136810262Y-127833505D01*
X136810262Y-127547790D01*
X136857881Y-127452552D01*
X136905500Y-127404933D01*
X137000738Y-127357314D01*
X137143596Y-127357314D01*
X137238834Y-127404933D01*
X137286453Y-127452552D01*
X137334072Y-127547790D01*
X137334072Y-127833505D01*
X137286453Y-127928743D01*
X137238834Y-127976362D01*
X137143596Y-128023981D01*
X137000738Y-128023981D01*
X137762643Y-128023981D02*
X137762643Y-127357314D01*
X137762643Y-127547790D02*
X137810262Y-127452552D01*
X137857881Y-127404933D01*
X137953119Y-127357314D01*
X138048358Y-127357314D01*
X139667406Y-128023981D02*
X139095977Y-128023981D01*
X139381691Y-128023981D02*
X139381691Y-127023981D01*
X139286453Y-127166838D01*
X139191215Y-127262076D01*
X139095977Y-127309695D01*
X193407881Y-111328742D02*
X193407881Y-111900171D01*
X193407881Y-111614457D02*
X192407881Y-111614457D01*
X192550738Y-111709695D01*
X192645976Y-111804933D01*
X192693595Y-111900171D01*
X193312643Y-110900171D02*
X193360262Y-110852552D01*
X193407881Y-110900171D01*
X193360262Y-110947790D01*
X193312643Y-110900171D01*
X193407881Y-110900171D01*
X192503119Y-110471600D02*
X192455500Y-110423981D01*
X192407881Y-110328743D01*
X192407881Y-110090647D01*
X192455500Y-109995409D01*
X192503119Y-109947790D01*
X192598357Y-109900171D01*
X192693595Y-109900171D01*
X192836452Y-109947790D01*
X193407881Y-110519219D01*
X193407881Y-109900171D01*
X193122167Y-109519219D02*
X193122167Y-109043028D01*
X193407881Y-109614457D02*
X192407881Y-109281124D01*
X193407881Y-108947790D01*
X196307881Y-111278742D02*
X196307881Y-111850171D01*
X196307881Y-111564457D02*
X195307881Y-111564457D01*
X195450738Y-111659695D01*
X195545976Y-111754933D01*
X195593595Y-111850171D01*
X196212643Y-110850171D02*
X196260262Y-110802552D01*
X196307881Y-110850171D01*
X196260262Y-110897790D01*
X196212643Y-110850171D01*
X196307881Y-110850171D01*
X195307881Y-110183505D02*
X195307881Y-110088266D01*
X195355500Y-109993028D01*
X195403119Y-109945409D01*
X195498357Y-109897790D01*
X195688833Y-109850171D01*
X195926929Y-109850171D01*
X196117405Y-109897790D01*
X196212643Y-109945409D01*
X196260262Y-109993028D01*
X196307881Y-110088266D01*
X196307881Y-110183505D01*
X196260262Y-110278743D01*
X196212643Y-110326362D01*
X196117405Y-110373981D01*
X195926929Y-110421600D01*
X195688833Y-110421600D01*
X195498357Y-110373981D01*
X195403119Y-110326362D01*
X195355500Y-110278743D01*
X195307881Y-110183505D01*
X196022167Y-109469219D02*
X196022167Y-108993028D01*
X196307881Y-109564457D02*
X195307881Y-109231124D01*
X196307881Y-108897790D01*
X198972643Y-111752552D02*
X199020262Y-111704933D01*
X199067881Y-111752552D01*
X199020262Y-111800171D01*
X198972643Y-111752552D01*
X199067881Y-111752552D01*
X198067881Y-111371600D02*
X198067881Y-110704933D01*
X199067881Y-111133505D01*
X198067881Y-110133505D02*
X198067881Y-110038266D01*
X198115500Y-109943028D01*
X198163119Y-109895409D01*
X198258357Y-109847790D01*
X198448833Y-109800171D01*
X198686929Y-109800171D01*
X198877405Y-109847790D01*
X198972643Y-109895409D01*
X199020262Y-109943028D01*
X199067881Y-110038266D01*
X199067881Y-110133505D01*
X199020262Y-110228743D01*
X198972643Y-110276362D01*
X198877405Y-110323981D01*
X198686929Y-110371600D01*
X198448833Y-110371600D01*
X198258357Y-110323981D01*
X198163119Y-110276362D01*
X198115500Y-110228743D01*
X198067881Y-110133505D01*
X198782167Y-109419219D02*
X198782167Y-108943028D01*
X199067881Y-109514457D02*
X198067881Y-109181124D01*
X199067881Y-108847790D01*
X201872643Y-111792552D02*
X201920262Y-111744933D01*
X201967881Y-111792552D01*
X201920262Y-111840171D01*
X201872643Y-111792552D01*
X201967881Y-111792552D01*
X200967881Y-111411600D02*
X200967881Y-110792552D01*
X201348833Y-111125886D01*
X201348833Y-110983028D01*
X201396452Y-110887790D01*
X201444071Y-110840171D01*
X201539310Y-110792552D01*
X201777405Y-110792552D01*
X201872643Y-110840171D01*
X201920262Y-110887790D01*
X201967881Y-110983028D01*
X201967881Y-111268743D01*
X201920262Y-111363981D01*
X201872643Y-111411600D01*
X200967881Y-109887790D02*
X200967881Y-110363981D01*
X201444071Y-110411600D01*
X201396452Y-110363981D01*
X201348833Y-110268743D01*
X201348833Y-110030647D01*
X201396452Y-109935409D01*
X201444071Y-109887790D01*
X201539310Y-109840171D01*
X201777405Y-109840171D01*
X201872643Y-109887790D01*
X201920262Y-109935409D01*
X201967881Y-110030647D01*
X201967881Y-110268743D01*
X201920262Y-110363981D01*
X201872643Y-110411600D01*
X201682167Y-109459219D02*
X201682167Y-108983028D01*
X201967881Y-109554457D02*
X200967881Y-109221124D01*
X201967881Y-108887790D01*
X208017881Y-114464933D02*
X207017881Y-114464933D01*
X208017881Y-113893504D01*
X207017881Y-113893504D01*
X207017881Y-113226838D02*
X207017881Y-113036361D01*
X207065500Y-112941123D01*
X207160738Y-112845885D01*
X207351214Y-112798266D01*
X207684548Y-112798266D01*
X207875024Y-112845885D01*
X207970262Y-112941123D01*
X208017881Y-113036361D01*
X208017881Y-113226838D01*
X207970262Y-113322076D01*
X207875024Y-113417314D01*
X207684548Y-113464933D01*
X207351214Y-113464933D01*
X207160738Y-113417314D01*
X207065500Y-113322076D01*
X207017881Y-113226838D01*
X208017881Y-111607790D02*
X207017881Y-111607790D01*
X207017881Y-111226837D01*
X207065500Y-111131599D01*
X207113119Y-111083980D01*
X207208357Y-111036361D01*
X207351214Y-111036361D01*
X207446452Y-111083980D01*
X207494071Y-111131599D01*
X207541690Y-111226837D01*
X207541690Y-111607790D01*
X207017881Y-110417314D02*
X207017881Y-110226837D01*
X207065500Y-110131599D01*
X207160738Y-110036361D01*
X207351214Y-109988742D01*
X207684548Y-109988742D01*
X207875024Y-110036361D01*
X207970262Y-110131599D01*
X208017881Y-110226837D01*
X208017881Y-110417314D01*
X207970262Y-110512552D01*
X207875024Y-110607790D01*
X207684548Y-110655409D01*
X207351214Y-110655409D01*
X207160738Y-110607790D01*
X207065500Y-110512552D01*
X207017881Y-110417314D01*
X207017881Y-109703028D02*
X207017881Y-109131599D01*
X208017881Y-109417314D02*
X207017881Y-109417314D01*
X207922643Y-108798266D02*
X207970262Y-108750647D01*
X208017881Y-108798266D01*
X207970262Y-108845885D01*
X207922643Y-108798266D01*
X208017881Y-108798266D01*
X179672643Y-111692552D02*
X179720262Y-111644933D01*
X179767881Y-111692552D01*
X179720262Y-111740171D01*
X179672643Y-111692552D01*
X179767881Y-111692552D01*
X178767881Y-111311600D02*
X178767881Y-110692552D01*
X179148833Y-111025886D01*
X179148833Y-110883028D01*
X179196452Y-110787790D01*
X179244071Y-110740171D01*
X179339310Y-110692552D01*
X179577405Y-110692552D01*
X179672643Y-110740171D01*
X179720262Y-110787790D01*
X179767881Y-110883028D01*
X179767881Y-111168743D01*
X179720262Y-111263981D01*
X179672643Y-111311600D01*
X178767881Y-109787790D02*
X178767881Y-110263981D01*
X179244071Y-110311600D01*
X179196452Y-110263981D01*
X179148833Y-110168743D01*
X179148833Y-109930647D01*
X179196452Y-109835409D01*
X179244071Y-109787790D01*
X179339310Y-109740171D01*
X179577405Y-109740171D01*
X179672643Y-109787790D01*
X179720262Y-109835409D01*
X179767881Y-109930647D01*
X179767881Y-110168743D01*
X179720262Y-110263981D01*
X179672643Y-110311600D01*
X179482167Y-109359219D02*
X179482167Y-108883028D01*
X179767881Y-109454457D02*
X178767881Y-109121124D01*
X179767881Y-108787790D01*
X176822643Y-111692552D02*
X176870262Y-111644933D01*
X176917881Y-111692552D01*
X176870262Y-111740171D01*
X176822643Y-111692552D01*
X176917881Y-111692552D01*
X175917881Y-111311600D02*
X175917881Y-110644933D01*
X176917881Y-111073505D01*
X175917881Y-110073505D02*
X175917881Y-109978266D01*
X175965500Y-109883028D01*
X176013119Y-109835409D01*
X176108357Y-109787790D01*
X176298833Y-109740171D01*
X176536929Y-109740171D01*
X176727405Y-109787790D01*
X176822643Y-109835409D01*
X176870262Y-109883028D01*
X176917881Y-109978266D01*
X176917881Y-110073505D01*
X176870262Y-110168743D01*
X176822643Y-110216362D01*
X176727405Y-110263981D01*
X176536929Y-110311600D01*
X176298833Y-110311600D01*
X176108357Y-110263981D01*
X176013119Y-110216362D01*
X175965500Y-110168743D01*
X175917881Y-110073505D01*
X176632167Y-109359219D02*
X176632167Y-108883028D01*
X176917881Y-109454457D02*
X175917881Y-109121124D01*
X176917881Y-108787790D01*
X174127881Y-111278742D02*
X174127881Y-111850171D01*
X174127881Y-111564457D02*
X173127881Y-111564457D01*
X173270738Y-111659695D01*
X173365976Y-111754933D01*
X173413595Y-111850171D01*
X174032643Y-110850171D02*
X174080262Y-110802552D01*
X174127881Y-110850171D01*
X174080262Y-110897790D01*
X174032643Y-110850171D01*
X174127881Y-110850171D01*
X173127881Y-110183505D02*
X173127881Y-110088266D01*
X173175500Y-109993028D01*
X173223119Y-109945409D01*
X173318357Y-109897790D01*
X173508833Y-109850171D01*
X173746929Y-109850171D01*
X173937405Y-109897790D01*
X174032643Y-109945409D01*
X174080262Y-109993028D01*
X174127881Y-110088266D01*
X174127881Y-110183505D01*
X174080262Y-110278743D01*
X174032643Y-110326362D01*
X173937405Y-110373981D01*
X173746929Y-110421600D01*
X173508833Y-110421600D01*
X173318357Y-110373981D01*
X173223119Y-110326362D01*
X173175500Y-110278743D01*
X173127881Y-110183505D01*
X173842167Y-109469219D02*
X173842167Y-108993028D01*
X174127881Y-109564457D02*
X173127881Y-109231124D01*
X174127881Y-108897790D01*
X171217881Y-111328742D02*
X171217881Y-111900171D01*
X171217881Y-111614457D02*
X170217881Y-111614457D01*
X170360738Y-111709695D01*
X170455976Y-111804933D01*
X170503595Y-111900171D01*
X171122643Y-110900171D02*
X171170262Y-110852552D01*
X171217881Y-110900171D01*
X171170262Y-110947790D01*
X171122643Y-110900171D01*
X171217881Y-110900171D01*
X170313119Y-110471600D02*
X170265500Y-110423981D01*
X170217881Y-110328743D01*
X170217881Y-110090647D01*
X170265500Y-109995409D01*
X170313119Y-109947790D01*
X170408357Y-109900171D01*
X170503595Y-109900171D01*
X170646452Y-109947790D01*
X171217881Y-110519219D01*
X171217881Y-109900171D01*
X170932167Y-109519219D02*
X170932167Y-109043028D01*
X171217881Y-109614457D02*
X170217881Y-109281124D01*
X171217881Y-108947790D01*
X185977881Y-114484933D02*
X184977881Y-114484933D01*
X185977881Y-113913504D01*
X184977881Y-113913504D01*
X184977881Y-113246838D02*
X184977881Y-113056361D01*
X185025500Y-112961123D01*
X185120738Y-112865885D01*
X185311214Y-112818266D01*
X185644548Y-112818266D01*
X185835024Y-112865885D01*
X185930262Y-112961123D01*
X185977881Y-113056361D01*
X185977881Y-113246838D01*
X185930262Y-113342076D01*
X185835024Y-113437314D01*
X185644548Y-113484933D01*
X185311214Y-113484933D01*
X185120738Y-113437314D01*
X185025500Y-113342076D01*
X184977881Y-113246838D01*
X185977881Y-111627790D02*
X184977881Y-111627790D01*
X184977881Y-111246837D01*
X185025500Y-111151599D01*
X185073119Y-111103980D01*
X185168357Y-111056361D01*
X185311214Y-111056361D01*
X185406452Y-111103980D01*
X185454071Y-111151599D01*
X185501690Y-111246837D01*
X185501690Y-111627790D01*
X184977881Y-110437314D02*
X184977881Y-110246837D01*
X185025500Y-110151599D01*
X185120738Y-110056361D01*
X185311214Y-110008742D01*
X185644548Y-110008742D01*
X185835024Y-110056361D01*
X185930262Y-110151599D01*
X185977881Y-110246837D01*
X185977881Y-110437314D01*
X185930262Y-110532552D01*
X185835024Y-110627790D01*
X185644548Y-110675409D01*
X185311214Y-110675409D01*
X185120738Y-110627790D01*
X185025500Y-110532552D01*
X184977881Y-110437314D01*
X184977881Y-109723028D02*
X184977881Y-109151599D01*
X185977881Y-109437314D02*
X184977881Y-109437314D01*
X185882643Y-108818266D02*
X185930262Y-108770647D01*
X185977881Y-108818266D01*
X185930262Y-108865885D01*
X185882643Y-108818266D01*
X185977881Y-108818266D01*
X141777881Y-114534933D02*
X140777881Y-114534933D01*
X141777881Y-113963504D01*
X140777881Y-113963504D01*
X140777881Y-113296838D02*
X140777881Y-113106361D01*
X140825500Y-113011123D01*
X140920738Y-112915885D01*
X141111214Y-112868266D01*
X141444548Y-112868266D01*
X141635024Y-112915885D01*
X141730262Y-113011123D01*
X141777881Y-113106361D01*
X141777881Y-113296838D01*
X141730262Y-113392076D01*
X141635024Y-113487314D01*
X141444548Y-113534933D01*
X141111214Y-113534933D01*
X140920738Y-113487314D01*
X140825500Y-113392076D01*
X140777881Y-113296838D01*
X141777881Y-111677790D02*
X140777881Y-111677790D01*
X140777881Y-111296837D01*
X140825500Y-111201599D01*
X140873119Y-111153980D01*
X140968357Y-111106361D01*
X141111214Y-111106361D01*
X141206452Y-111153980D01*
X141254071Y-111201599D01*
X141301690Y-111296837D01*
X141301690Y-111677790D01*
X140777881Y-110487314D02*
X140777881Y-110296837D01*
X140825500Y-110201599D01*
X140920738Y-110106361D01*
X141111214Y-110058742D01*
X141444548Y-110058742D01*
X141635024Y-110106361D01*
X141730262Y-110201599D01*
X141777881Y-110296837D01*
X141777881Y-110487314D01*
X141730262Y-110582552D01*
X141635024Y-110677790D01*
X141444548Y-110725409D01*
X141111214Y-110725409D01*
X140920738Y-110677790D01*
X140825500Y-110582552D01*
X140777881Y-110487314D01*
X140777881Y-109773028D02*
X140777881Y-109201599D01*
X141777881Y-109487314D02*
X140777881Y-109487314D01*
X141682643Y-108868266D02*
X141730262Y-108820647D01*
X141777881Y-108868266D01*
X141730262Y-108915885D01*
X141682643Y-108868266D01*
X141777881Y-108868266D01*
X135362643Y-111882552D02*
X135410262Y-111834933D01*
X135457881Y-111882552D01*
X135410262Y-111930171D01*
X135362643Y-111882552D01*
X135457881Y-111882552D01*
X134457881Y-111501600D02*
X134457881Y-110882552D01*
X134838833Y-111215886D01*
X134838833Y-111073028D01*
X134886452Y-110977790D01*
X134934071Y-110930171D01*
X135029310Y-110882552D01*
X135267405Y-110882552D01*
X135362643Y-110930171D01*
X135410262Y-110977790D01*
X135457881Y-111073028D01*
X135457881Y-111358743D01*
X135410262Y-111453981D01*
X135362643Y-111501600D01*
X134457881Y-109977790D02*
X134457881Y-110453981D01*
X134934071Y-110501600D01*
X134886452Y-110453981D01*
X134838833Y-110358743D01*
X134838833Y-110120647D01*
X134886452Y-110025409D01*
X134934071Y-109977790D01*
X135029310Y-109930171D01*
X135267405Y-109930171D01*
X135362643Y-109977790D01*
X135410262Y-110025409D01*
X135457881Y-110120647D01*
X135457881Y-110358743D01*
X135410262Y-110453981D01*
X135362643Y-110501600D01*
X135172167Y-109549219D02*
X135172167Y-109073028D01*
X135457881Y-109644457D02*
X134457881Y-109311124D01*
X135457881Y-108977790D01*
X132712643Y-111942552D02*
X132760262Y-111894933D01*
X132807881Y-111942552D01*
X132760262Y-111990171D01*
X132712643Y-111942552D01*
X132807881Y-111942552D01*
X131807881Y-111561600D02*
X131807881Y-110894933D01*
X132807881Y-111323505D01*
X131807881Y-110323505D02*
X131807881Y-110228266D01*
X131855500Y-110133028D01*
X131903119Y-110085409D01*
X131998357Y-110037790D01*
X132188833Y-109990171D01*
X132426929Y-109990171D01*
X132617405Y-110037790D01*
X132712643Y-110085409D01*
X132760262Y-110133028D01*
X132807881Y-110228266D01*
X132807881Y-110323505D01*
X132760262Y-110418743D01*
X132712643Y-110466362D01*
X132617405Y-110513981D01*
X132426929Y-110561600D01*
X132188833Y-110561600D01*
X131998357Y-110513981D01*
X131903119Y-110466362D01*
X131855500Y-110418743D01*
X131807881Y-110323505D01*
X132522167Y-109609219D02*
X132522167Y-109133028D01*
X132807881Y-109704457D02*
X131807881Y-109371124D01*
X132807881Y-109037790D01*
X129947881Y-111358742D02*
X129947881Y-111930171D01*
X129947881Y-111644457D02*
X128947881Y-111644457D01*
X129090738Y-111739695D01*
X129185976Y-111834933D01*
X129233595Y-111930171D01*
X129852643Y-110930171D02*
X129900262Y-110882552D01*
X129947881Y-110930171D01*
X129900262Y-110977790D01*
X129852643Y-110930171D01*
X129947881Y-110930171D01*
X128947881Y-110263505D02*
X128947881Y-110168266D01*
X128995500Y-110073028D01*
X129043119Y-110025409D01*
X129138357Y-109977790D01*
X129328833Y-109930171D01*
X129566929Y-109930171D01*
X129757405Y-109977790D01*
X129852643Y-110025409D01*
X129900262Y-110073028D01*
X129947881Y-110168266D01*
X129947881Y-110263505D01*
X129900262Y-110358743D01*
X129852643Y-110406362D01*
X129757405Y-110453981D01*
X129566929Y-110501600D01*
X129328833Y-110501600D01*
X129138357Y-110453981D01*
X129043119Y-110406362D01*
X128995500Y-110358743D01*
X128947881Y-110263505D01*
X129662167Y-109549219D02*
X129662167Y-109073028D01*
X129947881Y-109644457D02*
X128947881Y-109311124D01*
X129947881Y-108977790D01*
X127277881Y-111358742D02*
X127277881Y-111930171D01*
X127277881Y-111644457D02*
X126277881Y-111644457D01*
X126420738Y-111739695D01*
X126515976Y-111834933D01*
X126563595Y-111930171D01*
X127182643Y-110930171D02*
X127230262Y-110882552D01*
X127277881Y-110930171D01*
X127230262Y-110977790D01*
X127182643Y-110930171D01*
X127277881Y-110930171D01*
X126373119Y-110501600D02*
X126325500Y-110453981D01*
X126277881Y-110358743D01*
X126277881Y-110120647D01*
X126325500Y-110025409D01*
X126373119Y-109977790D01*
X126468357Y-109930171D01*
X126563595Y-109930171D01*
X126706452Y-109977790D01*
X127277881Y-110549219D01*
X127277881Y-109930171D01*
X126992167Y-109549219D02*
X126992167Y-109073028D01*
X127277881Y-109644457D02*
X126277881Y-109311124D01*
X127277881Y-108977790D01*
X163597881Y-114504933D02*
X162597881Y-114504933D01*
X163597881Y-113933504D01*
X162597881Y-113933504D01*
X162597881Y-113266838D02*
X162597881Y-113076361D01*
X162645500Y-112981123D01*
X162740738Y-112885885D01*
X162931214Y-112838266D01*
X163264548Y-112838266D01*
X163455024Y-112885885D01*
X163550262Y-112981123D01*
X163597881Y-113076361D01*
X163597881Y-113266838D01*
X163550262Y-113362076D01*
X163455024Y-113457314D01*
X163264548Y-113504933D01*
X162931214Y-113504933D01*
X162740738Y-113457314D01*
X162645500Y-113362076D01*
X162597881Y-113266838D01*
X163597881Y-111647790D02*
X162597881Y-111647790D01*
X162597881Y-111266837D01*
X162645500Y-111171599D01*
X162693119Y-111123980D01*
X162788357Y-111076361D01*
X162931214Y-111076361D01*
X163026452Y-111123980D01*
X163074071Y-111171599D01*
X163121690Y-111266837D01*
X163121690Y-111647790D01*
X162597881Y-110457314D02*
X162597881Y-110266837D01*
X162645500Y-110171599D01*
X162740738Y-110076361D01*
X162931214Y-110028742D01*
X163264548Y-110028742D01*
X163455024Y-110076361D01*
X163550262Y-110171599D01*
X163597881Y-110266837D01*
X163597881Y-110457314D01*
X163550262Y-110552552D01*
X163455024Y-110647790D01*
X163264548Y-110695409D01*
X162931214Y-110695409D01*
X162740738Y-110647790D01*
X162645500Y-110552552D01*
X162597881Y-110457314D01*
X162597881Y-109743028D02*
X162597881Y-109171599D01*
X163597881Y-109457314D02*
X162597881Y-109457314D01*
X163502643Y-108838266D02*
X163550262Y-108790647D01*
X163597881Y-108838266D01*
X163550262Y-108885885D01*
X163502643Y-108838266D01*
X163597881Y-108838266D01*
X157402643Y-111942552D02*
X157450262Y-111894933D01*
X157497881Y-111942552D01*
X157450262Y-111990171D01*
X157402643Y-111942552D01*
X157497881Y-111942552D01*
X156497881Y-111561600D02*
X156497881Y-110942552D01*
X156878833Y-111275886D01*
X156878833Y-111133028D01*
X156926452Y-111037790D01*
X156974071Y-110990171D01*
X157069310Y-110942552D01*
X157307405Y-110942552D01*
X157402643Y-110990171D01*
X157450262Y-111037790D01*
X157497881Y-111133028D01*
X157497881Y-111418743D01*
X157450262Y-111513981D01*
X157402643Y-111561600D01*
X156497881Y-110037790D02*
X156497881Y-110513981D01*
X156974071Y-110561600D01*
X156926452Y-110513981D01*
X156878833Y-110418743D01*
X156878833Y-110180647D01*
X156926452Y-110085409D01*
X156974071Y-110037790D01*
X157069310Y-109990171D01*
X157307405Y-109990171D01*
X157402643Y-110037790D01*
X157450262Y-110085409D01*
X157497881Y-110180647D01*
X157497881Y-110418743D01*
X157450262Y-110513981D01*
X157402643Y-110561600D01*
X157212167Y-109609219D02*
X157212167Y-109133028D01*
X157497881Y-109704457D02*
X156497881Y-109371124D01*
X157497881Y-109037790D01*
X154622643Y-111942552D02*
X154670262Y-111894933D01*
X154717881Y-111942552D01*
X154670262Y-111990171D01*
X154622643Y-111942552D01*
X154717881Y-111942552D01*
X153717881Y-111561600D02*
X153717881Y-110894933D01*
X154717881Y-111323505D01*
X153717881Y-110323505D02*
X153717881Y-110228266D01*
X153765500Y-110133028D01*
X153813119Y-110085409D01*
X153908357Y-110037790D01*
X154098833Y-109990171D01*
X154336929Y-109990171D01*
X154527405Y-110037790D01*
X154622643Y-110085409D01*
X154670262Y-110133028D01*
X154717881Y-110228266D01*
X154717881Y-110323505D01*
X154670262Y-110418743D01*
X154622643Y-110466362D01*
X154527405Y-110513981D01*
X154336929Y-110561600D01*
X154098833Y-110561600D01*
X153908357Y-110513981D01*
X153813119Y-110466362D01*
X153765500Y-110418743D01*
X153717881Y-110323505D01*
X154432167Y-109609219D02*
X154432167Y-109133028D01*
X154717881Y-109704457D02*
X153717881Y-109371124D01*
X154717881Y-109037790D01*
X151857881Y-111398742D02*
X151857881Y-111970171D01*
X151857881Y-111684457D02*
X150857881Y-111684457D01*
X151000738Y-111779695D01*
X151095976Y-111874933D01*
X151143595Y-111970171D01*
X151762643Y-110970171D02*
X151810262Y-110922552D01*
X151857881Y-110970171D01*
X151810262Y-111017790D01*
X151762643Y-110970171D01*
X151857881Y-110970171D01*
X150857881Y-110303505D02*
X150857881Y-110208266D01*
X150905500Y-110113028D01*
X150953119Y-110065409D01*
X151048357Y-110017790D01*
X151238833Y-109970171D01*
X151476929Y-109970171D01*
X151667405Y-110017790D01*
X151762643Y-110065409D01*
X151810262Y-110113028D01*
X151857881Y-110208266D01*
X151857881Y-110303505D01*
X151810262Y-110398743D01*
X151762643Y-110446362D01*
X151667405Y-110493981D01*
X151476929Y-110541600D01*
X151238833Y-110541600D01*
X151048357Y-110493981D01*
X150953119Y-110446362D01*
X150905500Y-110398743D01*
X150857881Y-110303505D01*
X151572167Y-109589219D02*
X151572167Y-109113028D01*
X151857881Y-109684457D02*
X150857881Y-109351124D01*
X151857881Y-109017790D01*
X149047881Y-111398742D02*
X149047881Y-111970171D01*
X149047881Y-111684457D02*
X148047881Y-111684457D01*
X148190738Y-111779695D01*
X148285976Y-111874933D01*
X148333595Y-111970171D01*
X148952643Y-110970171D02*
X149000262Y-110922552D01*
X149047881Y-110970171D01*
X149000262Y-111017790D01*
X148952643Y-110970171D01*
X149047881Y-110970171D01*
X148143119Y-110541600D02*
X148095500Y-110493981D01*
X148047881Y-110398743D01*
X148047881Y-110160647D01*
X148095500Y-110065409D01*
X148143119Y-110017790D01*
X148238357Y-109970171D01*
X148333595Y-109970171D01*
X148476452Y-110017790D01*
X149047881Y-110589219D01*
X149047881Y-109970171D01*
X148762167Y-109589219D02*
X148762167Y-109113028D01*
X149047881Y-109684457D02*
X148047881Y-109351124D01*
X149047881Y-109017790D01*
D12*
X124782971Y-114996243D02*
X124782971Y-115710529D01*
X123282971Y-115710529D01*
X123997257Y-114496243D02*
X123997257Y-113996243D01*
X124782971Y-113781957D02*
X124782971Y-114496243D01*
X123282971Y-114496243D01*
X123282971Y-113781957D01*
X124782971Y-113139100D02*
X123282971Y-113139100D01*
X123282971Y-112781957D01*
X123354400Y-112567672D01*
X123497257Y-112424814D01*
X123640114Y-112353386D01*
X123925829Y-112281957D01*
X124140114Y-112281957D01*
X124425829Y-112353386D01*
X124568686Y-112424814D01*
X124711543Y-112567672D01*
X124782971Y-112781957D01*
X124782971Y-113139100D01*
X124782971Y-110496243D02*
X123282971Y-110496243D01*
X123282971Y-109924815D01*
X123354400Y-109781957D01*
X123425829Y-109710529D01*
X123568686Y-109639100D01*
X123782971Y-109639100D01*
X123925829Y-109710529D01*
X123997257Y-109781957D01*
X124068686Y-109924815D01*
X124068686Y-110496243D01*
X123282971Y-108710529D02*
X123282971Y-108424815D01*
X123354400Y-108281957D01*
X123497257Y-108139100D01*
X123782971Y-108067672D01*
X124282971Y-108067672D01*
X124568686Y-108139100D01*
X124711543Y-108281957D01*
X124782971Y-108424815D01*
X124782971Y-108710529D01*
X124711543Y-108853386D01*
X124568686Y-108996243D01*
X124282971Y-109067672D01*
X123782971Y-109067672D01*
X123497257Y-108996243D01*
X123354400Y-108853386D01*
X123282971Y-108710529D01*
X123282971Y-107567671D02*
X124782971Y-107210528D01*
X123711543Y-106924814D01*
X124782971Y-106639100D01*
X123282971Y-106281957D01*
X123997257Y-105710528D02*
X123997257Y-105210528D01*
X124782971Y-104996242D02*
X124782971Y-105710528D01*
X123282971Y-105710528D01*
X123282971Y-104996242D01*
X124782971Y-103496242D02*
X124068686Y-103996242D01*
X124782971Y-104353385D02*
X123282971Y-104353385D01*
X123282971Y-103781957D01*
X123354400Y-103639099D01*
X123425829Y-103567671D01*
X123568686Y-103496242D01*
X123782971Y-103496242D01*
X123925829Y-103567671D01*
X123997257Y-103639099D01*
X124068686Y-103781957D01*
X124068686Y-104353385D01*
X146380271Y-115620043D02*
X146380271Y-116334329D01*
X144880271Y-116334329D01*
X145594557Y-115120043D02*
X145594557Y-114620043D01*
X146380271Y-114405757D02*
X146380271Y-115120043D01*
X144880271Y-115120043D01*
X144880271Y-114405757D01*
X146380271Y-113762900D02*
X144880271Y-113762900D01*
X144880271Y-113405757D01*
X144951700Y-113191472D01*
X145094557Y-113048614D01*
X145237414Y-112977186D01*
X145523129Y-112905757D01*
X145737414Y-112905757D01*
X146023129Y-112977186D01*
X146165986Y-113048614D01*
X146308843Y-113191472D01*
X146380271Y-113405757D01*
X146380271Y-113762900D01*
X146380271Y-111120043D02*
X144880271Y-111120043D01*
X144880271Y-110548615D01*
X144951700Y-110405757D01*
X145023129Y-110334329D01*
X145165986Y-110262900D01*
X145380271Y-110262900D01*
X145523129Y-110334329D01*
X145594557Y-110405757D01*
X145665986Y-110548615D01*
X145665986Y-111120043D01*
X144880271Y-109334329D02*
X144880271Y-109048615D01*
X144951700Y-108905757D01*
X145094557Y-108762900D01*
X145380271Y-108691472D01*
X145880271Y-108691472D01*
X146165986Y-108762900D01*
X146308843Y-108905757D01*
X146380271Y-109048615D01*
X146380271Y-109334329D01*
X146308843Y-109477186D01*
X146165986Y-109620043D01*
X145880271Y-109691472D01*
X145380271Y-109691472D01*
X145094557Y-109620043D01*
X144951700Y-109477186D01*
X144880271Y-109334329D01*
X144880271Y-108191471D02*
X146380271Y-107834328D01*
X145308843Y-107548614D01*
X146380271Y-107262900D01*
X144880271Y-106905757D01*
X145594557Y-106334328D02*
X145594557Y-105834328D01*
X146380271Y-105620042D02*
X146380271Y-106334328D01*
X144880271Y-106334328D01*
X144880271Y-105620042D01*
X146380271Y-104120042D02*
X145665986Y-104620042D01*
X146380271Y-104977185D02*
X144880271Y-104977185D01*
X144880271Y-104405757D01*
X144951700Y-104262899D01*
X145023129Y-104191471D01*
X145165986Y-104120042D01*
X145380271Y-104120042D01*
X145523129Y-104191471D01*
X145594557Y-104262899D01*
X145665986Y-104405757D01*
X145665986Y-104977185D01*
X168864071Y-115171943D02*
X168864071Y-115886229D01*
X167364071Y-115886229D01*
X168078357Y-114671943D02*
X168078357Y-114171943D01*
X168864071Y-113957657D02*
X168864071Y-114671943D01*
X167364071Y-114671943D01*
X167364071Y-113957657D01*
X168864071Y-113314800D02*
X167364071Y-113314800D01*
X167364071Y-112957657D01*
X167435500Y-112743372D01*
X167578357Y-112600514D01*
X167721214Y-112529086D01*
X168006929Y-112457657D01*
X168221214Y-112457657D01*
X168506929Y-112529086D01*
X168649786Y-112600514D01*
X168792643Y-112743372D01*
X168864071Y-112957657D01*
X168864071Y-113314800D01*
X168864071Y-110671943D02*
X167364071Y-110671943D01*
X167364071Y-110100515D01*
X167435500Y-109957657D01*
X167506929Y-109886229D01*
X167649786Y-109814800D01*
X167864071Y-109814800D01*
X168006929Y-109886229D01*
X168078357Y-109957657D01*
X168149786Y-110100515D01*
X168149786Y-110671943D01*
X167364071Y-108886229D02*
X167364071Y-108600515D01*
X167435500Y-108457657D01*
X167578357Y-108314800D01*
X167864071Y-108243372D01*
X168364071Y-108243372D01*
X168649786Y-108314800D01*
X168792643Y-108457657D01*
X168864071Y-108600515D01*
X168864071Y-108886229D01*
X168792643Y-109029086D01*
X168649786Y-109171943D01*
X168364071Y-109243372D01*
X167864071Y-109243372D01*
X167578357Y-109171943D01*
X167435500Y-109029086D01*
X167364071Y-108886229D01*
X167364071Y-107743371D02*
X168864071Y-107386228D01*
X167792643Y-107100514D01*
X168864071Y-106814800D01*
X167364071Y-106457657D01*
X168078357Y-105886228D02*
X168078357Y-105386228D01*
X168864071Y-105171942D02*
X168864071Y-105886228D01*
X167364071Y-105886228D01*
X167364071Y-105171942D01*
X168864071Y-103671942D02*
X168149786Y-104171942D01*
X168864071Y-104529085D02*
X167364071Y-104529085D01*
X167364071Y-103957657D01*
X167435500Y-103814799D01*
X167506929Y-103743371D01*
X167649786Y-103671942D01*
X167864071Y-103671942D01*
X168006929Y-103743371D01*
X168078357Y-103814799D01*
X168149786Y-103957657D01*
X168149786Y-104529085D01*
X190810271Y-115034343D02*
X190810271Y-115748629D01*
X189310271Y-115748629D01*
X190024557Y-114534343D02*
X190024557Y-114034343D01*
X190810271Y-113820057D02*
X190810271Y-114534343D01*
X189310271Y-114534343D01*
X189310271Y-113820057D01*
X190810271Y-113177200D02*
X189310271Y-113177200D01*
X189310271Y-112820057D01*
X189381700Y-112605772D01*
X189524557Y-112462914D01*
X189667414Y-112391486D01*
X189953129Y-112320057D01*
X190167414Y-112320057D01*
X190453129Y-112391486D01*
X190595986Y-112462914D01*
X190738843Y-112605772D01*
X190810271Y-112820057D01*
X190810271Y-113177200D01*
X190810271Y-110534343D02*
X189310271Y-110534343D01*
X189310271Y-109962915D01*
X189381700Y-109820057D01*
X189453129Y-109748629D01*
X189595986Y-109677200D01*
X189810271Y-109677200D01*
X189953129Y-109748629D01*
X190024557Y-109820057D01*
X190095986Y-109962915D01*
X190095986Y-110534343D01*
X189310271Y-108748629D02*
X189310271Y-108462915D01*
X189381700Y-108320057D01*
X189524557Y-108177200D01*
X189810271Y-108105772D01*
X190310271Y-108105772D01*
X190595986Y-108177200D01*
X190738843Y-108320057D01*
X190810271Y-108462915D01*
X190810271Y-108748629D01*
X190738843Y-108891486D01*
X190595986Y-109034343D01*
X190310271Y-109105772D01*
X189810271Y-109105772D01*
X189524557Y-109034343D01*
X189381700Y-108891486D01*
X189310271Y-108748629D01*
X189310271Y-107605771D02*
X190810271Y-107248628D01*
X189738843Y-106962914D01*
X190810271Y-106677200D01*
X189310271Y-106320057D01*
X190024557Y-105748628D02*
X190024557Y-105248628D01*
X190810271Y-105034342D02*
X190810271Y-105748628D01*
X189310271Y-105748628D01*
X189310271Y-105034342D01*
X190810271Y-103534342D02*
X190095986Y-104034342D01*
X190810271Y-104391485D02*
X189310271Y-104391485D01*
X189310271Y-103820057D01*
X189381700Y-103677199D01*
X189453129Y-103605771D01*
X189595986Y-103534342D01*
X189810271Y-103534342D01*
X189953129Y-103605771D01*
X190024557Y-103677199D01*
X190095986Y-103820057D01*
X190095986Y-104391485D01*
D11*
X109698900Y-72158100D02*
X109698900Y-70158100D01*
X107648900Y-70158100D02*
X107648900Y-72158100D01*
X149147800Y-97052400D02*
X151147800Y-97052400D01*
X151147800Y-95002400D02*
X149147800Y-95002400D01*
X157547800Y-86677400D02*
X157547800Y-87677400D01*
X159247800Y-87677400D02*
X159247800Y-86677400D01*
X154137800Y-93627400D02*
X154137800Y-94627400D01*
X155837800Y-94627400D02*
X155837800Y-93627400D01*
X153687800Y-79342400D02*
X151687800Y-79342400D01*
X151687800Y-81392400D02*
X153687800Y-81392400D01*
X171727800Y-96622400D02*
X173727800Y-96622400D01*
X173727800Y-94572400D02*
X171727800Y-94572400D01*
X180497800Y-86447400D02*
X180497800Y-87447400D01*
X182197800Y-87447400D02*
X182197800Y-86447400D01*
X176667800Y-93197400D02*
X176667800Y-94197400D01*
X178367800Y-94197400D02*
X178367800Y-93197400D01*
X176477800Y-79072400D02*
X174477800Y-79072400D01*
X174477800Y-81122400D02*
X176477800Y-81122400D01*
X193564000Y-96338500D02*
X195564000Y-96338500D01*
X195564000Y-94288500D02*
X193564000Y-94288500D01*
X202388100Y-86088600D02*
X202388100Y-87088600D01*
X204088100Y-87088600D02*
X204088100Y-86088600D01*
X198514600Y-93010100D02*
X198514600Y-94010100D01*
X200214600Y-94010100D02*
X200214600Y-93010100D01*
X198192900Y-78731000D02*
X196192900Y-78731000D01*
X196192900Y-80781000D02*
X198192900Y-80781000D01*
X127207800Y-97082400D02*
X129207800Y-97082400D01*
X129207800Y-95032400D02*
X127207800Y-95032400D01*
X135767800Y-86797400D02*
X135767800Y-87797400D01*
X137467800Y-87797400D02*
X137467800Y-86797400D01*
X132127800Y-93817400D02*
X132127800Y-94817400D01*
X133827800Y-94817400D02*
X133827800Y-93817400D01*
X131187800Y-79502400D02*
X129187800Y-79502400D01*
X129187800Y-81552400D02*
X131187800Y-81552400D01*
X96065900Y-101442800D02*
X96065900Y-91444800D01*
X95925900Y-101438800D02*
X95925900Y-91448800D01*
X95785900Y-101430800D02*
X95785900Y-91456800D01*
X95645900Y-101418800D02*
X95645900Y-91468800D01*
X95505900Y-101403800D02*
X95505900Y-91483800D01*
X95365900Y-101383800D02*
X95365900Y-91503800D01*
X95225900Y-101359800D02*
X95225900Y-91527800D01*
X95085900Y-101330800D02*
X95085900Y-91556800D01*
X94945900Y-101298800D02*
X94945900Y-91588800D01*
X94805900Y-101261800D02*
X94805900Y-91625800D01*
X94665900Y-101220800D02*
X94665900Y-91666800D01*
X94525900Y-101175800D02*
X94525900Y-96909800D01*
X94525900Y-95977800D02*
X94525900Y-91711800D01*
X94385900Y-101125800D02*
X94385900Y-97110800D01*
X94385900Y-95776800D02*
X94385900Y-91761800D01*
X94245900Y-101070800D02*
X94245900Y-97239800D01*
X94245900Y-95647800D02*
X94245900Y-91816800D01*
X94105900Y-101010800D02*
X94105900Y-97328800D01*
X94105900Y-95558800D02*
X94105900Y-91876800D01*
X93965900Y-100945800D02*
X93965900Y-97389800D01*
X93965900Y-95497800D02*
X93965900Y-91941800D01*
X93825900Y-100875800D02*
X93825900Y-97426800D01*
X93825900Y-95460800D02*
X93825900Y-92011800D01*
X93685900Y-100799800D02*
X93685900Y-97442800D01*
X93685900Y-95444800D02*
X93685900Y-92087800D01*
X93545900Y-100717800D02*
X93545900Y-97438800D01*
X93545900Y-95448800D02*
X93545900Y-92169800D01*
X93405900Y-100629800D02*
X93405900Y-97415800D01*
X93405900Y-95471800D02*
X93405900Y-92257800D01*
X93265900Y-100534800D02*
X93265900Y-97370800D01*
X93265900Y-95516800D02*
X93265900Y-92352800D01*
X93125900Y-100432800D02*
X93125900Y-97300800D01*
X93125900Y-95586800D02*
X93125900Y-92454800D01*
X92985900Y-100322800D02*
X92985900Y-97199800D01*
X92985900Y-95687800D02*
X92985900Y-92564800D01*
X92845900Y-100204800D02*
X92845900Y-97050800D01*
X92845900Y-95836800D02*
X92845900Y-92682800D01*
X92705900Y-100076800D02*
X92705900Y-96798800D01*
X92705900Y-96088800D02*
X92705900Y-92810800D01*
X92565900Y-99939800D02*
X92565900Y-92947800D01*
X92425900Y-99789800D02*
X92425900Y-93097800D01*
X92285900Y-99627800D02*
X92285900Y-93259800D01*
X92145900Y-99450800D02*
X92145900Y-93436800D01*
X92005900Y-99254800D02*
X92005900Y-93632800D01*
X91865900Y-99036800D02*
X91865900Y-93850800D01*
X91725900Y-98790800D02*
X91725900Y-94096800D01*
X91585900Y-98505800D02*
X91585900Y-94381800D01*
X91445900Y-98163800D02*
X91445900Y-94723800D01*
X91305900Y-97717800D02*
X91305900Y-95169800D01*
X91165900Y-96942800D02*
X91165900Y-95944800D01*
X94640900Y-96443800D02*
G75*
G03X94640900Y-96443800I-1000000J0D01*
G01*
X101178400Y-96443800D02*
G75*
G03X101178400Y-96443800I-5037500J0D01*
G01*
X99053500Y-125095400D02*
X101053500Y-127095400D01*
X101053500Y-116795400D02*
X99053500Y-118795400D01*
X109353500Y-127095400D02*
X101053500Y-127095400D01*
X109353500Y-116795400D02*
X101053500Y-116795400D01*
X99053500Y-118795400D02*
X99053500Y-125095400D01*
X109353500Y-116795400D02*
X109353500Y-127095400D01*
X184699400Y-73986500D02*
X186699400Y-73986500D01*
X186699400Y-71936500D02*
X184699400Y-71936500D01*
X148586300Y-69072000D02*
X148586300Y-67072000D01*
X146536300Y-67072000D02*
X146536300Y-69072000D01*
X149147800Y-94672400D02*
X151147800Y-94672400D01*
X151147800Y-92622400D02*
X149147800Y-92622400D01*
X171727800Y-94232400D02*
X173727800Y-94232400D01*
X173727800Y-92182400D02*
X171727800Y-92182400D01*
X193589400Y-93747700D02*
X195589400Y-93747700D01*
X195589400Y-91697700D02*
X193589400Y-91697700D01*
X127207800Y-94712400D02*
X129207800Y-94712400D01*
X129207800Y-92662400D02*
X127207800Y-92662400D01*
D13*
X105168700Y-70573900D02*
X105930700Y-71335900D01*
X105930700Y-71335900D02*
X104406700Y-71335900D01*
X104406700Y-71335900D02*
X105168700Y-70573900D01*
X106438700Y-69557900D02*
X103898700Y-69557900D01*
X103898700Y-69811900D02*
X106438700Y-69811900D01*
X106438700Y-69684900D02*
X103898700Y-69684900D01*
X105829100Y-73367900D02*
X105829100Y-73202800D01*
X104508300Y-73367900D02*
X105829100Y-73367900D01*
X104508300Y-73202800D02*
X104508300Y-73367900D01*
X105829100Y-73279000D02*
X104508300Y-73279000D01*
X104508300Y-68884800D02*
X105829100Y-68884800D01*
X105829100Y-68961000D02*
X105829100Y-68795900D01*
X105829100Y-68795900D02*
X104508300Y-68795900D01*
X104508300Y-68795900D02*
X104508300Y-68961000D01*
X106451400Y-68961000D02*
X106451400Y-73202800D01*
X106451400Y-73202800D02*
X103886000Y-73202800D01*
X103886000Y-73202800D02*
X103886000Y-68961000D01*
X103886000Y-68961000D02*
X106451400Y-68961000D01*
D11*
X114642500Y-68976500D02*
X110802500Y-68986500D01*
X110802500Y-68986500D02*
X110782500Y-69486500D01*
X110782500Y-69486500D02*
X114682500Y-69476500D01*
X114682500Y-69476500D02*
X114702500Y-68976500D01*
X114702500Y-68976500D02*
X114452500Y-68976500D01*
X113812500Y-71446500D02*
X112712500Y-70616500D01*
X112712500Y-70616500D02*
X111622500Y-71426500D01*
X111622500Y-71426500D02*
X113812500Y-71446500D01*
X114692500Y-68756500D02*
X114692500Y-73356500D01*
X114692500Y-73356500D02*
X110732500Y-73356500D01*
X110732500Y-73356500D02*
X110732500Y-68756500D01*
X110732500Y-68756500D02*
X114692500Y-68756500D01*
X155087800Y-88234900D02*
X155087800Y-88615900D01*
X155087800Y-87218900D02*
X155087800Y-87599900D01*
X155087800Y-87599900D02*
X155468800Y-88234900D01*
X155468800Y-88234900D02*
X154706800Y-88234900D01*
X154706800Y-88234900D02*
X155087800Y-87599900D01*
X155595800Y-87599900D02*
X154579800Y-87599900D01*
X154187800Y-85917400D02*
X154187800Y-89457400D01*
X155987800Y-85917400D02*
X155987800Y-89457400D01*
X132967800Y-88414900D02*
X132967800Y-88795900D01*
X132967800Y-87398900D02*
X132967800Y-87779900D01*
X132967800Y-87779900D02*
X133348800Y-88414900D01*
X133348800Y-88414900D02*
X132586800Y-88414900D01*
X132586800Y-88414900D02*
X132967800Y-87779900D01*
X133475800Y-87779900D02*
X132459800Y-87779900D01*
X132067800Y-86097400D02*
X132067800Y-89637400D01*
X133867800Y-86097400D02*
X133867800Y-89637400D01*
X177517800Y-87794900D02*
X177517800Y-88175900D01*
X177517800Y-86778900D02*
X177517800Y-87159900D01*
X177517800Y-87159900D02*
X177898800Y-87794900D01*
X177898800Y-87794900D02*
X177136800Y-87794900D01*
X177136800Y-87794900D02*
X177517800Y-87159900D01*
X178025800Y-87159900D02*
X177009800Y-87159900D01*
X176617800Y-85477400D02*
X176617800Y-89017400D01*
X178417800Y-85477400D02*
X178417800Y-89017400D01*
X199517000Y-87503000D02*
X199517000Y-87884000D01*
X199517000Y-86487000D02*
X199517000Y-86868000D01*
X199517000Y-86868000D02*
X199898000Y-87503000D01*
X199898000Y-87503000D02*
X199136000Y-87503000D01*
X199136000Y-87503000D02*
X199517000Y-86868000D01*
X200025000Y-86868000D02*
X199009000Y-86868000D01*
X198617000Y-85185500D02*
X198617000Y-88725500D01*
X200417000Y-85185500D02*
X200417000Y-88725500D01*
D13*
X125082300Y-74358500D02*
X124320300Y-75120500D01*
X124320300Y-75120500D02*
X124320300Y-73596500D01*
X124320300Y-73596500D02*
X125082300Y-74358500D01*
X126098300Y-75628500D02*
X126098300Y-73088500D01*
X125844300Y-73088500D02*
X125844300Y-75628500D01*
X125971300Y-75628500D02*
X125971300Y-73088500D01*
X122288300Y-75018900D02*
X122453400Y-75018900D01*
X122288300Y-73698100D02*
X122288300Y-75018900D01*
X122453400Y-73698100D02*
X122288300Y-73698100D01*
X122377200Y-75018900D02*
X122377200Y-73698100D01*
X126771400Y-73698100D02*
X126771400Y-75018900D01*
X126695200Y-75018900D02*
X126860300Y-75018900D01*
X126860300Y-75018900D02*
X126860300Y-73698100D01*
X126860300Y-73698100D02*
X126695200Y-73698100D01*
X126695200Y-75641200D02*
X122453400Y-75641200D01*
X122453400Y-75641200D02*
X122453400Y-73075800D01*
X122453400Y-73075800D02*
X126695200Y-73075800D01*
X126695200Y-73075800D02*
X126695200Y-75641200D01*
X105727500Y-101790500D02*
X106489500Y-101028500D01*
X106489500Y-101028500D02*
X106489500Y-102552500D01*
X106489500Y-102552500D02*
X105727500Y-101790500D01*
X104711500Y-100520500D02*
X104711500Y-103060500D01*
X104965500Y-103060500D02*
X104965500Y-100520500D01*
X104838500Y-100520500D02*
X104838500Y-103060500D01*
X108521500Y-101130100D02*
X108356400Y-101130100D01*
X108521500Y-102450900D02*
X108521500Y-101130100D01*
X108356400Y-102450900D02*
X108521500Y-102450900D01*
X108432600Y-101130100D02*
X108432600Y-102450900D01*
X104038400Y-102450900D02*
X104038400Y-101130100D01*
X104114600Y-101130100D02*
X103949500Y-101130100D01*
X103949500Y-101130100D02*
X103949500Y-102450900D01*
X103949500Y-102450900D02*
X104114600Y-102450900D01*
X104114600Y-100507800D02*
X108356400Y-100507800D01*
X108356400Y-100507800D02*
X108356400Y-103073200D01*
X108356400Y-103073200D02*
X104114600Y-103073200D01*
X104114600Y-103073200D02*
X104114600Y-100507800D01*
D11*
X127850900Y-115836700D02*
X128866900Y-115836700D01*
X128866900Y-115836700D02*
X128358900Y-114820700D01*
X128358900Y-114820700D02*
X127850900Y-115836700D01*
X127850900Y-115836700D02*
X128866900Y-115836700D01*
X147187800Y-88677400D02*
X153747800Y-88677400D01*
X153747800Y-88677400D02*
X153747800Y-82317400D01*
X153747800Y-82317400D02*
X147187800Y-82317400D01*
X147187800Y-82317400D02*
X147187800Y-88677400D01*
X169647800Y-88497400D02*
X176207800Y-88497400D01*
X176207800Y-88497400D02*
X176207800Y-82137400D01*
X176207800Y-82137400D02*
X169647800Y-82137400D01*
X169647800Y-82137400D02*
X169647800Y-88497400D01*
X125147800Y-89057400D02*
X131707800Y-89057400D01*
X131707800Y-89057400D02*
X131707800Y-82697400D01*
X131707800Y-82697400D02*
X125147800Y-82697400D01*
X125147800Y-82697400D02*
X125147800Y-89057400D01*
X191550700Y-88193800D02*
X198110700Y-88193800D01*
X198110700Y-88193800D02*
X198110700Y-81833800D01*
X198110700Y-81833800D02*
X191550700Y-81833800D01*
X191550700Y-81833800D02*
X191550700Y-88193800D01*
X101924600Y-103969300D02*
X101924600Y-115969300D01*
X113924600Y-103969300D02*
X113924600Y-115969300D01*
X101924600Y-115969300D02*
X113924600Y-115969300D01*
X101924600Y-103969300D02*
X113924600Y-103969300D01*
X92445840Y-73830180D02*
X92445840Y-68232020D01*
X91948000Y-68430140D02*
X92445840Y-68430140D01*
X92445840Y-73632060D02*
X91948000Y-73632060D01*
X91948000Y-71031100D02*
X92445840Y-71031100D01*
X97746820Y-68232020D02*
X97746820Y-73830180D01*
X91948000Y-68232020D02*
X91948000Y-73830180D01*
X91948000Y-73830180D02*
X98145600Y-73830180D01*
X98145600Y-73830180D02*
X98145600Y-68232020D01*
X98145600Y-68232020D02*
X91948000Y-68232020D01*
X158711900Y-123277000D02*
X156211900Y-120777000D01*
X161211900Y-120777000D02*
G75*
G03X161211900Y-120777000I-2500000J0D01*
G01*
X163711900Y-115277000D02*
X153711900Y-115277000D01*
X163711900Y-126277000D02*
X163711900Y-115277000D01*
X153711900Y-126277000D02*
X153711900Y-115277000D01*
X163711900Y-126277000D02*
X153711900Y-126277000D01*
X180949600Y-123785000D02*
X178449600Y-121285000D01*
X183449600Y-121285000D02*
G75*
G03X183449600Y-121285000I-2500000J0D01*
G01*
X185949600Y-115785000D02*
X175949600Y-115785000D01*
X185949600Y-126785000D02*
X185949600Y-115785000D01*
X175949600Y-126785000D02*
X175949600Y-115785000D01*
X185949600Y-126785000D02*
X175949600Y-126785000D01*
X202958700Y-123658000D02*
X200458700Y-121158000D01*
X205458700Y-121158000D02*
G75*
G03X205458700Y-121158000I-2500000J0D01*
G01*
X207958700Y-115658000D02*
X197958700Y-115658000D01*
X207958700Y-126658000D02*
X207958700Y-115658000D01*
X197958700Y-126658000D02*
X197958700Y-115658000D01*
X207958700Y-126658000D02*
X197958700Y-126658000D01*
X136867900Y-123505600D02*
X134367900Y-121005600D01*
X139367900Y-121005600D02*
G75*
G03X139367900Y-121005600I-2500000J0D01*
G01*
X141867900Y-115505600D02*
X131867900Y-115505600D01*
X141867900Y-126505600D02*
X141867900Y-115505600D01*
X131867900Y-126505600D02*
X131867900Y-115505600D01*
X141867900Y-126505600D02*
X131867900Y-126505600D01*
X124147300Y-80824200D02*
X124147300Y-77824200D01*
X124147300Y-77824200D02*
X124747300Y-77824200D01*
X124747300Y-77824200D02*
X124747300Y-80824200D01*
X124747300Y-80824200D02*
X124147300Y-80824200D01*
X196207350Y-71821750D02*
X196207350Y-73021750D01*
X194457350Y-73021750D02*
X194457350Y-71821750D01*
X198747350Y-71821750D02*
X198747350Y-73021750D01*
X196997350Y-73021750D02*
X196997350Y-71821750D01*
X201287350Y-71821750D02*
X201287350Y-73021750D01*
X199537350Y-73021750D02*
X199537350Y-71821750D01*
X203827350Y-71821750D02*
X203827350Y-73021750D01*
X202077350Y-73021750D02*
X202077350Y-71821750D01*
X206367350Y-71821750D02*
X206367350Y-73021750D01*
X204617350Y-73021750D02*
X204617350Y-71821750D01*
X153227800Y-99372400D02*
X152027800Y-99372400D01*
X152027800Y-97622400D02*
X153227800Y-97622400D01*
X162512300Y-98106200D02*
X161312300Y-98106200D01*
X161312300Y-96356200D02*
X162512300Y-96356200D01*
X161702800Y-93787400D02*
X161702800Y-94987400D01*
X159952800Y-94987400D02*
X159952800Y-93787400D01*
X160082800Y-83047400D02*
X160082800Y-81847400D01*
X161832800Y-81847400D02*
X161832800Y-83047400D01*
X155432800Y-84037400D02*
X155432800Y-82037400D01*
X157582800Y-82037400D02*
X157582800Y-84037400D01*
X175737800Y-98842400D02*
X174537800Y-98842400D01*
X174537800Y-97092400D02*
X175737800Y-97092400D01*
X131207800Y-99362400D02*
X130007800Y-99362400D01*
X130007800Y-97612400D02*
X131207800Y-97612400D01*
X140515900Y-98284000D02*
X139315900Y-98284000D01*
X139315900Y-96534000D02*
X140515900Y-96534000D01*
X139742800Y-93817400D02*
X139742800Y-95017400D01*
X137992800Y-95017400D02*
X137992800Y-93817400D01*
X138402800Y-83177400D02*
X138402800Y-81977400D01*
X140152800Y-81977400D02*
X140152800Y-83177400D01*
X133492800Y-84117400D02*
X133492800Y-82117400D01*
X135642800Y-82117400D02*
X135642800Y-84117400D01*
X185054800Y-97979200D02*
X183854800Y-97979200D01*
X183854800Y-96229200D02*
X185054800Y-96229200D01*
X184432800Y-93477400D02*
X184432800Y-94677400D01*
X182682800Y-94677400D02*
X182682800Y-93477400D01*
X182842800Y-82807400D02*
X182842800Y-81607400D01*
X184592800Y-81607400D02*
X184592800Y-82807400D01*
X178322800Y-83587400D02*
X178322800Y-81587400D01*
X180472800Y-81587400D02*
X180472800Y-83587400D01*
X197716700Y-98639600D02*
X196516700Y-98639600D01*
X196516700Y-96889600D02*
X197716700Y-96889600D01*
X206936900Y-98665000D02*
X205736900Y-98665000D01*
X205736900Y-96915000D02*
X206936900Y-96915000D01*
X206437200Y-93189500D02*
X206437200Y-94389500D01*
X204687200Y-94389500D02*
X204687200Y-93189500D01*
X204661800Y-82413400D02*
X204661800Y-81213400D01*
X206411800Y-81213400D02*
X206411800Y-82413400D01*
X200537500Y-83270600D02*
X200537500Y-81270600D01*
X202687500Y-81270600D02*
X202687500Y-83270600D01*
X127519400Y-117052800D02*
X127519400Y-118252800D01*
X125769400Y-118252800D02*
X125769400Y-117052800D01*
X130253100Y-70454900D02*
X130253100Y-71454900D01*
X128903100Y-71454900D02*
X128903100Y-70454900D01*
X132793100Y-70454900D02*
X132793100Y-71454900D01*
X131443100Y-71454900D02*
X131443100Y-70454900D01*
X120329400Y-104306400D02*
X121529400Y-104306400D01*
X121529400Y-106056400D02*
X120329400Y-106056400D01*
X116341600Y-104293700D02*
X117541600Y-104293700D01*
X117541600Y-106043700D02*
X116341600Y-106043700D01*
X120392900Y-108192600D02*
X121592900Y-108192600D01*
X121592900Y-109942600D02*
X120392900Y-109942600D01*
X116379700Y-108205300D02*
X117579700Y-108205300D01*
X117579700Y-109955300D02*
X116379700Y-109955300D01*
X120431000Y-112193100D02*
X121631000Y-112193100D01*
X121631000Y-113943100D02*
X120431000Y-113943100D01*
X116417800Y-112205800D02*
X117617800Y-112205800D01*
X117617800Y-113955800D02*
X116417800Y-113955800D01*
X120456400Y-116231700D02*
X121656400Y-116231700D01*
X121656400Y-117981700D02*
X120456400Y-117981700D01*
X116455900Y-116219000D02*
X117655900Y-116219000D01*
X117655900Y-117969000D02*
X116455900Y-117969000D01*
X185586400Y-87683900D02*
X185586400Y-86483900D01*
X187336400Y-86483900D02*
X187336400Y-87683900D01*
X189090300Y-83116800D02*
X187490300Y-83116800D01*
X189090300Y-81897600D02*
X187490300Y-81897600D01*
X159665800Y-91887400D02*
X159665800Y-94087400D01*
X156567000Y-91887400D02*
X156567000Y-94087400D01*
X156567800Y-94087400D02*
X159667800Y-94087400D01*
X156567800Y-91887400D02*
X159667800Y-91887400D01*
X182205800Y-91497400D02*
X182205800Y-93697400D01*
X179107000Y-91497400D02*
X179107000Y-93697400D01*
X179107800Y-93697400D02*
X182207800Y-93697400D01*
X179107800Y-91497400D02*
X182207800Y-91497400D01*
X204100300Y-91203600D02*
X204100300Y-93403600D01*
X201001500Y-91203600D02*
X201001500Y-93403600D01*
X201002300Y-93403600D02*
X204102300Y-93403600D01*
X201002300Y-91203600D02*
X204102300Y-91203600D01*
X137675800Y-92087400D02*
X137675800Y-94287400D01*
X134577000Y-92087400D02*
X134577000Y-94287400D01*
X134577800Y-94287400D02*
X137677800Y-94287400D01*
X134577800Y-92087400D02*
X137677800Y-92087400D01*
X114651800Y-94045400D02*
X113401800Y-94045400D01*
X114651800Y-94045400D02*
X114651800Y-92545400D01*
X104651800Y-94045400D02*
X104651800Y-92545400D01*
X104651800Y-94045400D02*
X105901800Y-94045400D01*
X125598600Y-108616700D02*
X128138600Y-108616700D01*
X125598600Y-103516700D02*
X128138600Y-103516700D01*
X128138600Y-108596700D02*
X128138600Y-103516700D01*
X125598600Y-108596700D02*
X125598600Y-103516700D01*
X128348600Y-108616700D02*
X130888600Y-108616700D01*
X128348600Y-103516700D02*
X130888600Y-103516700D01*
X130888600Y-108596700D02*
X130888600Y-103516700D01*
X128348600Y-108596700D02*
X128348600Y-103516700D01*
X131128600Y-108616700D02*
X133668600Y-108616700D01*
X131128600Y-103516700D02*
X133668600Y-103516700D01*
X133668600Y-108596700D02*
X133668600Y-103516700D01*
X131128600Y-108596700D02*
X131128600Y-103516700D01*
X133868600Y-108616700D02*
X136408600Y-108616700D01*
X133868600Y-103516700D02*
X136408600Y-103516700D01*
X136408600Y-108596700D02*
X136408600Y-103516700D01*
X133868600Y-108596700D02*
X133868600Y-103516700D01*
X139308600Y-108616700D02*
X141848600Y-108616700D01*
X139308600Y-103516700D02*
X141848600Y-103516700D01*
X141848600Y-108596700D02*
X141848600Y-103516700D01*
X139308600Y-108596700D02*
X139308600Y-103516700D01*
X147405100Y-108611600D02*
X149945100Y-108611600D01*
X147405100Y-103511600D02*
X149945100Y-103511600D01*
X149945100Y-108591600D02*
X149945100Y-103511600D01*
X147405100Y-108591600D02*
X147405100Y-103511600D01*
X150205100Y-108611600D02*
X152745100Y-108611600D01*
X150205100Y-103511600D02*
X152745100Y-103511600D01*
X152745100Y-108591600D02*
X152745100Y-103511600D01*
X150205100Y-108591600D02*
X150205100Y-103511600D01*
X152995100Y-108611600D02*
X155535100Y-108611600D01*
X152995100Y-103511600D02*
X155535100Y-103511600D01*
X155535100Y-108591600D02*
X155535100Y-103511600D01*
X152995100Y-108591600D02*
X152995100Y-103511600D01*
X155795100Y-108561600D02*
X158335100Y-108561600D01*
X155795100Y-103461600D02*
X158335100Y-103461600D01*
X158335100Y-108541600D02*
X158335100Y-103461600D01*
X155795100Y-108541600D02*
X155795100Y-103461600D01*
X161155100Y-108501600D02*
X163695100Y-108501600D01*
X161155100Y-103401600D02*
X163695100Y-103401600D01*
X163695100Y-108481600D02*
X163695100Y-103401600D01*
X161155100Y-108481600D02*
X161155100Y-103401600D01*
X169572400Y-108498600D02*
X172112400Y-108498600D01*
X169572400Y-103398600D02*
X172112400Y-103398600D01*
X172112400Y-108478600D02*
X172112400Y-103398600D01*
X169572400Y-108478600D02*
X169572400Y-103398600D01*
X172392400Y-108498600D02*
X174932400Y-108498600D01*
X172392400Y-103398600D02*
X174932400Y-103398600D01*
X174932400Y-108478600D02*
X174932400Y-103398600D01*
X172392400Y-108478600D02*
X172392400Y-103398600D01*
X175242400Y-108498600D02*
X177782400Y-108498600D01*
X175242400Y-103398600D02*
X177782400Y-103398600D01*
X177782400Y-108478600D02*
X177782400Y-103398600D01*
X175242400Y-108478600D02*
X175242400Y-103398600D01*
X178062400Y-108498600D02*
X180602400Y-108498600D01*
X178062400Y-103398600D02*
X180602400Y-103398600D01*
X180602400Y-108478600D02*
X180602400Y-103398600D01*
X178062400Y-108478600D02*
X178062400Y-103398600D01*
X183502400Y-108488600D02*
X186042400Y-108488600D01*
X183502400Y-103388600D02*
X186042400Y-103388600D01*
X186042400Y-108468600D02*
X186042400Y-103388600D01*
X183502400Y-108468600D02*
X183502400Y-103388600D01*
X191719200Y-108503400D02*
X194259200Y-108503400D01*
X191719200Y-103403400D02*
X194259200Y-103403400D01*
X194259200Y-108483400D02*
X194259200Y-103403400D01*
X191719200Y-108483400D02*
X191719200Y-103403400D01*
X194564000Y-108503400D02*
X197104000Y-108503400D01*
X194564000Y-103403400D02*
X197104000Y-103403400D01*
X197104000Y-108483400D02*
X197104000Y-103403400D01*
X194564000Y-108483400D02*
X194564000Y-103403400D01*
X197408800Y-108503400D02*
X199948800Y-108503400D01*
X197408800Y-103403400D02*
X199948800Y-103403400D01*
X199948800Y-108483400D02*
X199948800Y-103403400D01*
X197408800Y-108483400D02*
X197408800Y-103403400D01*
X200253600Y-108503400D02*
X202793600Y-108503400D01*
X200253600Y-103403400D02*
X202793600Y-103403400D01*
X202793600Y-108483400D02*
X202793600Y-103403400D01*
X200253600Y-108483400D02*
X200253600Y-103403400D01*
X205498700Y-108503400D02*
X208038700Y-108503400D01*
X205498700Y-103403400D02*
X208038700Y-103403400D01*
X208038700Y-108483400D02*
X208038700Y-103403400D01*
X205498700Y-108483400D02*
X205498700Y-103403400D01*
X183942350Y-64801750D02*
X209262350Y-64801750D01*
X196642350Y-70516750D02*
X183942350Y-70516750D01*
X184042350Y-69011750D02*
X209162350Y-69011750D01*
X209262350Y-70516750D02*
X196562350Y-70516750D01*
X209262350Y-70516750D02*
X209262350Y-64801750D01*
X183942350Y-70516750D02*
X183942350Y-64801750D01*
X127475300Y-68731000D02*
X122435300Y-68731000D01*
X122435300Y-64516000D02*
X127475300Y-64516000D01*
X127475300Y-70231000D02*
X122435300Y-70231000D01*
X127475300Y-70231000D02*
X127475300Y-64516000D01*
X122435300Y-70231000D02*
X122435300Y-64516000D01*
X164031300Y-69137400D02*
X153951300Y-69137400D01*
X153951300Y-64922400D02*
X164031300Y-64922400D01*
X164031300Y-70637400D02*
X153951300Y-70637400D01*
X164031300Y-70637400D02*
X164031300Y-64922400D01*
X153951300Y-70637400D02*
X153951300Y-64922400D01*
X177048800Y-69137400D02*
X166968800Y-69137400D01*
X166968800Y-64922400D02*
X177048800Y-64922400D01*
X177048800Y-70637400D02*
X166968800Y-70637400D01*
X177048800Y-70637400D02*
X177048800Y-64922400D01*
X166968800Y-70637400D02*
X166968800Y-64922400D01*
X144390900Y-69086600D02*
X136710900Y-69086600D01*
X136710900Y-64871600D02*
X144390900Y-64871600D01*
X144390900Y-70586600D02*
X136710900Y-70586600D01*
X144390900Y-70586600D02*
X144390900Y-64871600D01*
X136710900Y-70586600D02*
X136710900Y-64871600D01*
X95631500Y-125121600D02*
G75*
G03X95631500Y-125121600I-2286000J0D01*
G01*
X109052643Y-75298266D02*
X109100262Y-75345885D01*
X109147881Y-75488742D01*
X109147881Y-75583980D01*
X109100262Y-75726838D01*
X109005024Y-75822076D01*
X108909786Y-75869695D01*
X108719310Y-75917314D01*
X108576452Y-75917314D01*
X108385976Y-75869695D01*
X108290738Y-75822076D01*
X108195500Y-75726838D01*
X108147881Y-75583980D01*
X108147881Y-75488742D01*
X108195500Y-75345885D01*
X108243119Y-75298266D01*
X109147881Y-74345885D02*
X109147881Y-74917314D01*
X109147881Y-74631600D02*
X108147881Y-74631600D01*
X108290738Y-74726838D01*
X108385976Y-74822076D01*
X108433595Y-74917314D01*
X146561134Y-96384543D02*
X146513515Y-96432162D01*
X146370658Y-96479781D01*
X146275420Y-96479781D01*
X146132562Y-96432162D01*
X146037324Y-96336924D01*
X145989705Y-96241686D01*
X145942086Y-96051210D01*
X145942086Y-95908352D01*
X145989705Y-95717876D01*
X146037324Y-95622638D01*
X146132562Y-95527400D01*
X146275420Y-95479781D01*
X146370658Y-95479781D01*
X146513515Y-95527400D01*
X146561134Y-95575019D01*
X146942086Y-95575019D02*
X146989705Y-95527400D01*
X147084943Y-95479781D01*
X147323039Y-95479781D01*
X147418277Y-95527400D01*
X147465896Y-95575019D01*
X147513515Y-95670257D01*
X147513515Y-95765495D01*
X147465896Y-95908352D01*
X146894467Y-96479781D01*
X147513515Y-96479781D01*
X160804943Y-87314066D02*
X160852562Y-87361685D01*
X160900181Y-87504542D01*
X160900181Y-87599780D01*
X160852562Y-87742638D01*
X160757324Y-87837876D01*
X160662086Y-87885495D01*
X160471610Y-87933114D01*
X160328752Y-87933114D01*
X160138276Y-87885495D01*
X160043038Y-87837876D01*
X159947800Y-87742638D01*
X159900181Y-87599780D01*
X159900181Y-87504542D01*
X159947800Y-87361685D01*
X159995419Y-87314066D01*
X159900181Y-86980733D02*
X159900181Y-86361685D01*
X160281133Y-86695019D01*
X160281133Y-86552161D01*
X160328752Y-86456923D01*
X160376371Y-86409304D01*
X160471610Y-86361685D01*
X160709705Y-86361685D01*
X160804943Y-86409304D01*
X160852562Y-86456923D01*
X160900181Y-86552161D01*
X160900181Y-86837876D01*
X160852562Y-86933114D01*
X160804943Y-86980733D01*
X153694943Y-94554066D02*
X153742562Y-94601685D01*
X153790181Y-94744542D01*
X153790181Y-94839780D01*
X153742562Y-94982638D01*
X153647324Y-95077876D01*
X153552086Y-95125495D01*
X153361610Y-95173114D01*
X153218752Y-95173114D01*
X153028276Y-95125495D01*
X152933038Y-95077876D01*
X152837800Y-94982638D01*
X152790181Y-94839780D01*
X152790181Y-94744542D01*
X152837800Y-94601685D01*
X152885419Y-94554066D01*
X153123514Y-93696923D02*
X153790181Y-93696923D01*
X152742562Y-93935019D02*
X153456848Y-94173114D01*
X153456848Y-93554066D01*
X152521134Y-78424543D02*
X152473515Y-78472162D01*
X152330658Y-78519781D01*
X152235420Y-78519781D01*
X152092562Y-78472162D01*
X151997324Y-78376924D01*
X151949705Y-78281686D01*
X151902086Y-78091210D01*
X151902086Y-77948352D01*
X151949705Y-77757876D01*
X151997324Y-77662638D01*
X152092562Y-77567400D01*
X152235420Y-77519781D01*
X152330658Y-77519781D01*
X152473515Y-77567400D01*
X152521134Y-77615019D01*
X153425896Y-77519781D02*
X152949705Y-77519781D01*
X152902086Y-77995971D01*
X152949705Y-77948352D01*
X153044943Y-77900733D01*
X153283039Y-77900733D01*
X153378277Y-77948352D01*
X153425896Y-77995971D01*
X153473515Y-78091210D01*
X153473515Y-78329305D01*
X153425896Y-78424543D01*
X153378277Y-78472162D01*
X153283039Y-78519781D01*
X153044943Y-78519781D01*
X152949705Y-78472162D01*
X152902086Y-78424543D01*
X169011134Y-95954543D02*
X168963515Y-96002162D01*
X168820658Y-96049781D01*
X168725420Y-96049781D01*
X168582562Y-96002162D01*
X168487324Y-95906924D01*
X168439705Y-95811686D01*
X168392086Y-95621210D01*
X168392086Y-95478352D01*
X168439705Y-95287876D01*
X168487324Y-95192638D01*
X168582562Y-95097400D01*
X168725420Y-95049781D01*
X168820658Y-95049781D01*
X168963515Y-95097400D01*
X169011134Y-95145019D01*
X169868277Y-95049781D02*
X169677800Y-95049781D01*
X169582562Y-95097400D01*
X169534943Y-95145019D01*
X169439705Y-95287876D01*
X169392086Y-95478352D01*
X169392086Y-95859305D01*
X169439705Y-95954543D01*
X169487324Y-96002162D01*
X169582562Y-96049781D01*
X169773039Y-96049781D01*
X169868277Y-96002162D01*
X169915896Y-95954543D01*
X169963515Y-95859305D01*
X169963515Y-95621210D01*
X169915896Y-95525971D01*
X169868277Y-95478352D01*
X169773039Y-95430733D01*
X169582562Y-95430733D01*
X169487324Y-95478352D01*
X169439705Y-95525971D01*
X169392086Y-95621210D01*
X183604943Y-87114066D02*
X183652562Y-87161685D01*
X183700181Y-87304542D01*
X183700181Y-87399780D01*
X183652562Y-87542638D01*
X183557324Y-87637876D01*
X183462086Y-87685495D01*
X183271610Y-87733114D01*
X183128752Y-87733114D01*
X182938276Y-87685495D01*
X182843038Y-87637876D01*
X182747800Y-87542638D01*
X182700181Y-87399780D01*
X182700181Y-87304542D01*
X182747800Y-87161685D01*
X182795419Y-87114066D01*
X182700181Y-86780733D02*
X182700181Y-86114066D01*
X183700181Y-86542638D01*
X176014943Y-94044066D02*
X176062562Y-94091685D01*
X176110181Y-94234542D01*
X176110181Y-94329780D01*
X176062562Y-94472638D01*
X175967324Y-94567876D01*
X175872086Y-94615495D01*
X175681610Y-94663114D01*
X175538752Y-94663114D01*
X175348276Y-94615495D01*
X175253038Y-94567876D01*
X175157800Y-94472638D01*
X175110181Y-94329780D01*
X175110181Y-94234542D01*
X175157800Y-94091685D01*
X175205419Y-94044066D01*
X175538752Y-93472638D02*
X175491133Y-93567876D01*
X175443514Y-93615495D01*
X175348276Y-93663114D01*
X175300657Y-93663114D01*
X175205419Y-93615495D01*
X175157800Y-93567876D01*
X175110181Y-93472638D01*
X175110181Y-93282161D01*
X175157800Y-93186923D01*
X175205419Y-93139304D01*
X175300657Y-93091685D01*
X175348276Y-93091685D01*
X175443514Y-93139304D01*
X175491133Y-93186923D01*
X175538752Y-93282161D01*
X175538752Y-93472638D01*
X175586371Y-93567876D01*
X175633990Y-93615495D01*
X175729229Y-93663114D01*
X175919705Y-93663114D01*
X176014943Y-93615495D01*
X176062562Y-93567876D01*
X176110181Y-93472638D01*
X176110181Y-93282161D01*
X176062562Y-93186923D01*
X176014943Y-93139304D01*
X175919705Y-93091685D01*
X175729229Y-93091685D01*
X175633990Y-93139304D01*
X175586371Y-93186923D01*
X175538752Y-93282161D01*
X175311134Y-78154543D02*
X175263515Y-78202162D01*
X175120658Y-78249781D01*
X175025420Y-78249781D01*
X174882562Y-78202162D01*
X174787324Y-78106924D01*
X174739705Y-78011686D01*
X174692086Y-77821210D01*
X174692086Y-77678352D01*
X174739705Y-77487876D01*
X174787324Y-77392638D01*
X174882562Y-77297400D01*
X175025420Y-77249781D01*
X175120658Y-77249781D01*
X175263515Y-77297400D01*
X175311134Y-77345019D01*
X175787324Y-78249781D02*
X175977800Y-78249781D01*
X176073039Y-78202162D01*
X176120658Y-78154543D01*
X176215896Y-78011686D01*
X176263515Y-77821210D01*
X176263515Y-77440257D01*
X176215896Y-77345019D01*
X176168277Y-77297400D01*
X176073039Y-77249781D01*
X175882562Y-77249781D01*
X175787324Y-77297400D01*
X175739705Y-77345019D01*
X175692086Y-77440257D01*
X175692086Y-77678352D01*
X175739705Y-77773590D01*
X175787324Y-77821210D01*
X175882562Y-77868829D01*
X176073039Y-77868829D01*
X176168277Y-77821210D01*
X176215896Y-77773590D01*
X176263515Y-77678352D01*
X190047643Y-95873843D02*
X190000024Y-95921462D01*
X189857167Y-95969081D01*
X189761929Y-95969081D01*
X189619071Y-95921462D01*
X189523833Y-95826224D01*
X189476214Y-95730986D01*
X189428595Y-95540510D01*
X189428595Y-95397652D01*
X189476214Y-95207176D01*
X189523833Y-95111938D01*
X189619071Y-95016700D01*
X189761929Y-94969081D01*
X189857167Y-94969081D01*
X190000024Y-95016700D01*
X190047643Y-95064319D01*
X191000024Y-95969081D02*
X190428595Y-95969081D01*
X190714309Y-95969081D02*
X190714309Y-94969081D01*
X190619071Y-95111938D01*
X190523833Y-95207176D01*
X190428595Y-95254795D01*
X191619071Y-94969081D02*
X191714310Y-94969081D01*
X191809548Y-95016700D01*
X191857167Y-95064319D01*
X191904786Y-95159557D01*
X191952405Y-95350033D01*
X191952405Y-95588129D01*
X191904786Y-95778605D01*
X191857167Y-95873843D01*
X191809548Y-95921462D01*
X191714310Y-95969081D01*
X191619071Y-95969081D01*
X191523833Y-95921462D01*
X191476214Y-95873843D01*
X191428595Y-95778605D01*
X191380976Y-95588129D01*
X191380976Y-95350033D01*
X191428595Y-95159557D01*
X191476214Y-95064319D01*
X191523833Y-95016700D01*
X191619071Y-94969081D01*
X205614543Y-87231457D02*
X205662162Y-87279076D01*
X205709781Y-87421933D01*
X205709781Y-87517171D01*
X205662162Y-87660029D01*
X205566924Y-87755267D01*
X205471686Y-87802886D01*
X205281210Y-87850505D01*
X205138352Y-87850505D01*
X204947876Y-87802886D01*
X204852638Y-87755267D01*
X204757400Y-87660029D01*
X204709781Y-87517171D01*
X204709781Y-87421933D01*
X204757400Y-87279076D01*
X204805019Y-87231457D01*
X205709781Y-86279076D02*
X205709781Y-86850505D01*
X205709781Y-86564791D02*
X204709781Y-86564791D01*
X204852638Y-86660029D01*
X204947876Y-86755267D01*
X204995495Y-86850505D01*
X205709781Y-85326695D02*
X205709781Y-85898124D01*
X205709781Y-85612410D02*
X204709781Y-85612410D01*
X204852638Y-85707648D01*
X204947876Y-85802886D01*
X204995495Y-85898124D01*
X198019943Y-94229157D02*
X198067562Y-94276776D01*
X198115181Y-94419633D01*
X198115181Y-94514871D01*
X198067562Y-94657729D01*
X197972324Y-94752967D01*
X197877086Y-94800586D01*
X197686610Y-94848205D01*
X197543752Y-94848205D01*
X197353276Y-94800586D01*
X197258038Y-94752967D01*
X197162800Y-94657729D01*
X197115181Y-94514871D01*
X197115181Y-94419633D01*
X197162800Y-94276776D01*
X197210419Y-94229157D01*
X198115181Y-93276776D02*
X198115181Y-93848205D01*
X198115181Y-93562491D02*
X197115181Y-93562491D01*
X197258038Y-93657729D01*
X197353276Y-93752967D01*
X197400895Y-93848205D01*
X197210419Y-92895824D02*
X197162800Y-92848205D01*
X197115181Y-92752967D01*
X197115181Y-92514871D01*
X197162800Y-92419633D01*
X197210419Y-92372014D01*
X197305657Y-92324395D01*
X197400895Y-92324395D01*
X197543752Y-92372014D01*
X198115181Y-92943443D01*
X198115181Y-92324395D01*
X196550043Y-77813143D02*
X196502424Y-77860762D01*
X196359567Y-77908381D01*
X196264329Y-77908381D01*
X196121471Y-77860762D01*
X196026233Y-77765524D01*
X195978614Y-77670286D01*
X195930995Y-77479810D01*
X195930995Y-77336952D01*
X195978614Y-77146476D01*
X196026233Y-77051238D01*
X196121471Y-76956000D01*
X196264329Y-76908381D01*
X196359567Y-76908381D01*
X196502424Y-76956000D01*
X196550043Y-77003619D01*
X197502424Y-77908381D02*
X196930995Y-77908381D01*
X197216709Y-77908381D02*
X197216709Y-76908381D01*
X197121471Y-77051238D01*
X197026233Y-77146476D01*
X196930995Y-77194095D01*
X197835757Y-76908381D02*
X198454805Y-76908381D01*
X198121471Y-77289333D01*
X198264329Y-77289333D01*
X198359567Y-77336952D01*
X198407186Y-77384571D01*
X198454805Y-77479810D01*
X198454805Y-77717905D01*
X198407186Y-77813143D01*
X198359567Y-77860762D01*
X198264329Y-77908381D01*
X197978614Y-77908381D01*
X197883376Y-77860762D01*
X197835757Y-77813143D01*
X123684943Y-96384543D02*
X123637324Y-96432162D01*
X123494467Y-96479781D01*
X123399229Y-96479781D01*
X123256371Y-96432162D01*
X123161133Y-96336924D01*
X123113514Y-96241686D01*
X123065895Y-96051210D01*
X123065895Y-95908352D01*
X123113514Y-95717876D01*
X123161133Y-95622638D01*
X123256371Y-95527400D01*
X123399229Y-95479781D01*
X123494467Y-95479781D01*
X123637324Y-95527400D01*
X123684943Y-95575019D01*
X124637324Y-96479781D02*
X124065895Y-96479781D01*
X124351609Y-96479781D02*
X124351609Y-95479781D01*
X124256371Y-95622638D01*
X124161133Y-95717876D01*
X124065895Y-95765495D01*
X125494467Y-95813114D02*
X125494467Y-96479781D01*
X125256371Y-95432162D02*
X125018276Y-96146448D01*
X125637324Y-96146448D01*
X138924943Y-88120257D02*
X138972562Y-88167876D01*
X139020181Y-88310733D01*
X139020181Y-88405971D01*
X138972562Y-88548829D01*
X138877324Y-88644067D01*
X138782086Y-88691686D01*
X138591610Y-88739305D01*
X138448752Y-88739305D01*
X138258276Y-88691686D01*
X138163038Y-88644067D01*
X138067800Y-88548829D01*
X138020181Y-88405971D01*
X138020181Y-88310733D01*
X138067800Y-88167876D01*
X138115419Y-88120257D01*
X139020181Y-87167876D02*
X139020181Y-87739305D01*
X139020181Y-87453591D02*
X138020181Y-87453591D01*
X138163038Y-87548829D01*
X138258276Y-87644067D01*
X138305895Y-87739305D01*
X138020181Y-86263114D02*
X138020181Y-86739305D01*
X138496371Y-86786924D01*
X138448752Y-86739305D01*
X138401133Y-86644067D01*
X138401133Y-86405971D01*
X138448752Y-86310733D01*
X138496371Y-86263114D01*
X138591610Y-86215495D01*
X138829705Y-86215495D01*
X138924943Y-86263114D01*
X138972562Y-86310733D01*
X139020181Y-86405971D01*
X139020181Y-86644067D01*
X138972562Y-86739305D01*
X138924943Y-86786924D01*
X131554943Y-95130257D02*
X131602562Y-95177876D01*
X131650181Y-95320733D01*
X131650181Y-95415971D01*
X131602562Y-95558829D01*
X131507324Y-95654067D01*
X131412086Y-95701686D01*
X131221610Y-95749305D01*
X131078752Y-95749305D01*
X130888276Y-95701686D01*
X130793038Y-95654067D01*
X130697800Y-95558829D01*
X130650181Y-95415971D01*
X130650181Y-95320733D01*
X130697800Y-95177876D01*
X130745419Y-95130257D01*
X131650181Y-94177876D02*
X131650181Y-94749305D01*
X131650181Y-94463591D02*
X130650181Y-94463591D01*
X130793038Y-94558829D01*
X130888276Y-94654067D01*
X130935895Y-94749305D01*
X130650181Y-93320733D02*
X130650181Y-93511210D01*
X130697800Y-93606448D01*
X130745419Y-93654067D01*
X130888276Y-93749305D01*
X131078752Y-93796924D01*
X131459705Y-93796924D01*
X131554943Y-93749305D01*
X131602562Y-93701686D01*
X131650181Y-93606448D01*
X131650181Y-93415971D01*
X131602562Y-93320733D01*
X131554943Y-93273114D01*
X131459705Y-93225495D01*
X131221610Y-93225495D01*
X131126371Y-93273114D01*
X131078752Y-93320733D01*
X131031133Y-93415971D01*
X131031133Y-93606448D01*
X131078752Y-93701686D01*
X131126371Y-93749305D01*
X131221610Y-93796924D01*
X129544943Y-78584543D02*
X129497324Y-78632162D01*
X129354467Y-78679781D01*
X129259229Y-78679781D01*
X129116371Y-78632162D01*
X129021133Y-78536924D01*
X128973514Y-78441686D01*
X128925895Y-78251210D01*
X128925895Y-78108352D01*
X128973514Y-77917876D01*
X129021133Y-77822638D01*
X129116371Y-77727400D01*
X129259229Y-77679781D01*
X129354467Y-77679781D01*
X129497324Y-77727400D01*
X129544943Y-77775019D01*
X130497324Y-78679781D02*
X129925895Y-78679781D01*
X130211609Y-78679781D02*
X130211609Y-77679781D01*
X130116371Y-77822638D01*
X130021133Y-77917876D01*
X129925895Y-77965495D01*
X130830657Y-77679781D02*
X131497324Y-77679781D01*
X131068752Y-78679781D01*
X95498043Y-103100943D02*
X95450424Y-103148562D01*
X95307567Y-103196181D01*
X95212329Y-103196181D01*
X95069471Y-103148562D01*
X94974233Y-103053324D01*
X94926614Y-102958086D01*
X94878995Y-102767610D01*
X94878995Y-102624752D01*
X94926614Y-102434276D01*
X94974233Y-102339038D01*
X95069471Y-102243800D01*
X95212329Y-102196181D01*
X95307567Y-102196181D01*
X95450424Y-102243800D01*
X95498043Y-102291419D01*
X96450424Y-103196181D02*
X95878995Y-103196181D01*
X96164709Y-103196181D02*
X96164709Y-102196181D01*
X96069471Y-102339038D01*
X95974233Y-102434276D01*
X95878995Y-102481895D01*
X97021852Y-102624752D02*
X96926614Y-102577133D01*
X96878995Y-102529514D01*
X96831376Y-102434276D01*
X96831376Y-102386657D01*
X96878995Y-102291419D01*
X96926614Y-102243800D01*
X97021852Y-102196181D01*
X97212329Y-102196181D01*
X97307567Y-102243800D01*
X97355186Y-102291419D01*
X97402805Y-102386657D01*
X97402805Y-102434276D01*
X97355186Y-102529514D01*
X97307567Y-102577133D01*
X97212329Y-102624752D01*
X97021852Y-102624752D01*
X96926614Y-102672371D01*
X96878995Y-102719990D01*
X96831376Y-102815229D01*
X96831376Y-103005705D01*
X96878995Y-103100943D01*
X96926614Y-103148562D01*
X97021852Y-103196181D01*
X97212329Y-103196181D01*
X97307567Y-103148562D01*
X97355186Y-103100943D01*
X97402805Y-103005705D01*
X97402805Y-102815229D01*
X97355186Y-102719990D01*
X97307567Y-102672371D01*
X97212329Y-102624752D01*
X97812643Y-122604457D02*
X97860262Y-122652076D01*
X97907881Y-122794933D01*
X97907881Y-122890171D01*
X97860262Y-123033029D01*
X97765024Y-123128267D01*
X97669786Y-123175886D01*
X97479310Y-123223505D01*
X97336452Y-123223505D01*
X97145976Y-123175886D01*
X97050738Y-123128267D01*
X96955500Y-123033029D01*
X96907881Y-122890171D01*
X96907881Y-122794933D01*
X96955500Y-122652076D01*
X97003119Y-122604457D01*
X97907881Y-121652076D02*
X97907881Y-122223505D01*
X97907881Y-121937791D02*
X96907881Y-121937791D01*
X97050738Y-122033029D01*
X97145976Y-122128267D01*
X97193595Y-122223505D01*
X97907881Y-121175886D02*
X97907881Y-120985410D01*
X97860262Y-120890171D01*
X97812643Y-120842552D01*
X97669786Y-120747314D01*
X97479310Y-120699695D01*
X97098357Y-120699695D01*
X97003119Y-120747314D01*
X96955500Y-120794933D01*
X96907881Y-120890171D01*
X96907881Y-121080648D01*
X96955500Y-121175886D01*
X97003119Y-121223505D01*
X97098357Y-121271124D01*
X97336452Y-121271124D01*
X97431690Y-121223505D01*
X97479310Y-121175886D01*
X97526929Y-121080648D01*
X97526929Y-120890171D01*
X97479310Y-120794933D01*
X97431690Y-120747314D01*
X97336452Y-120699695D01*
X98086929Y-118792552D02*
X98086929Y-118030647D01*
X98467881Y-118411599D02*
X97705976Y-118411599D01*
X110606929Y-119242552D02*
X110606929Y-118480647D01*
X185056543Y-75618643D02*
X185008924Y-75666262D01*
X184866067Y-75713881D01*
X184770829Y-75713881D01*
X184627971Y-75666262D01*
X184532733Y-75571024D01*
X184485114Y-75475786D01*
X184437495Y-75285310D01*
X184437495Y-75142452D01*
X184485114Y-74951976D01*
X184532733Y-74856738D01*
X184627971Y-74761500D01*
X184770829Y-74713881D01*
X184866067Y-74713881D01*
X185008924Y-74761500D01*
X185056543Y-74809119D01*
X185437495Y-74809119D02*
X185485114Y-74761500D01*
X185580352Y-74713881D01*
X185818448Y-74713881D01*
X185913686Y-74761500D01*
X185961305Y-74809119D01*
X186008924Y-74904357D01*
X186008924Y-74999595D01*
X185961305Y-75142452D01*
X185389876Y-75713881D01*
X186008924Y-75713881D01*
X186627971Y-74713881D02*
X186723210Y-74713881D01*
X186818448Y-74761500D01*
X186866067Y-74809119D01*
X186913686Y-74904357D01*
X186961305Y-75094833D01*
X186961305Y-75332929D01*
X186913686Y-75523405D01*
X186866067Y-75618643D01*
X186818448Y-75666262D01*
X186723210Y-75713881D01*
X186627971Y-75713881D01*
X186532733Y-75666262D01*
X186485114Y-75618643D01*
X186437495Y-75523405D01*
X186389876Y-75332929D01*
X186389876Y-75094833D01*
X186437495Y-74904357D01*
X186485114Y-74809119D01*
X186532733Y-74761500D01*
X186627971Y-74713881D01*
X150218443Y-68714857D02*
X150266062Y-68762476D01*
X150313681Y-68905333D01*
X150313681Y-69000571D01*
X150266062Y-69143429D01*
X150170824Y-69238667D01*
X150075586Y-69286286D01*
X149885110Y-69333905D01*
X149742252Y-69333905D01*
X149551776Y-69286286D01*
X149456538Y-69238667D01*
X149361300Y-69143429D01*
X149313681Y-69000571D01*
X149313681Y-68905333D01*
X149361300Y-68762476D01*
X149408919Y-68714857D01*
X149408919Y-68333905D02*
X149361300Y-68286286D01*
X149313681Y-68191048D01*
X149313681Y-67952952D01*
X149361300Y-67857714D01*
X149408919Y-67810095D01*
X149504157Y-67762476D01*
X149599395Y-67762476D01*
X149742252Y-67810095D01*
X150313681Y-68381524D01*
X150313681Y-67762476D01*
X150313681Y-66810095D02*
X150313681Y-67381524D01*
X150313681Y-67095810D02*
X149313681Y-67095810D01*
X149456538Y-67191048D01*
X149551776Y-67286286D01*
X149599395Y-67381524D01*
X145584943Y-94044543D02*
X145537324Y-94092162D01*
X145394467Y-94139781D01*
X145299229Y-94139781D01*
X145156371Y-94092162D01*
X145061133Y-93996924D01*
X145013514Y-93901686D01*
X144965895Y-93711210D01*
X144965895Y-93568352D01*
X145013514Y-93377876D01*
X145061133Y-93282638D01*
X145156371Y-93187400D01*
X145299229Y-93139781D01*
X145394467Y-93139781D01*
X145537324Y-93187400D01*
X145584943Y-93235019D01*
X145965895Y-93235019D02*
X146013514Y-93187400D01*
X146108752Y-93139781D01*
X146346848Y-93139781D01*
X146442086Y-93187400D01*
X146489705Y-93235019D01*
X146537324Y-93330257D01*
X146537324Y-93425495D01*
X146489705Y-93568352D01*
X145918276Y-94139781D01*
X146537324Y-94139781D01*
X146918276Y-93235019D02*
X146965895Y-93187400D01*
X147061133Y-93139781D01*
X147299229Y-93139781D01*
X147394467Y-93187400D01*
X147442086Y-93235019D01*
X147489705Y-93330257D01*
X147489705Y-93425495D01*
X147442086Y-93568352D01*
X146870657Y-94139781D01*
X147489705Y-94139781D01*
X168404943Y-93434543D02*
X168357324Y-93482162D01*
X168214467Y-93529781D01*
X168119229Y-93529781D01*
X167976371Y-93482162D01*
X167881133Y-93386924D01*
X167833514Y-93291686D01*
X167785895Y-93101210D01*
X167785895Y-92958352D01*
X167833514Y-92767876D01*
X167881133Y-92672638D01*
X167976371Y-92577400D01*
X168119229Y-92529781D01*
X168214467Y-92529781D01*
X168357324Y-92577400D01*
X168404943Y-92625019D01*
X168785895Y-92625019D02*
X168833514Y-92577400D01*
X168928752Y-92529781D01*
X169166848Y-92529781D01*
X169262086Y-92577400D01*
X169309705Y-92625019D01*
X169357324Y-92720257D01*
X169357324Y-92815495D01*
X169309705Y-92958352D01*
X168738276Y-93529781D01*
X169357324Y-93529781D01*
X169690657Y-92529781D02*
X170309705Y-92529781D01*
X169976371Y-92910733D01*
X170119229Y-92910733D01*
X170214467Y-92958352D01*
X170262086Y-93005971D01*
X170309705Y-93101210D01*
X170309705Y-93339305D01*
X170262086Y-93434543D01*
X170214467Y-93482162D01*
X170119229Y-93529781D01*
X169833514Y-93529781D01*
X169738276Y-93482162D01*
X169690657Y-93434543D01*
X190034943Y-92381343D02*
X189987324Y-92428962D01*
X189844467Y-92476581D01*
X189749229Y-92476581D01*
X189606371Y-92428962D01*
X189511133Y-92333724D01*
X189463514Y-92238486D01*
X189415895Y-92048010D01*
X189415895Y-91905152D01*
X189463514Y-91714676D01*
X189511133Y-91619438D01*
X189606371Y-91524200D01*
X189749229Y-91476581D01*
X189844467Y-91476581D01*
X189987324Y-91524200D01*
X190034943Y-91571819D01*
X190415895Y-91571819D02*
X190463514Y-91524200D01*
X190558752Y-91476581D01*
X190796848Y-91476581D01*
X190892086Y-91524200D01*
X190939705Y-91571819D01*
X190987324Y-91667057D01*
X190987324Y-91762295D01*
X190939705Y-91905152D01*
X190368276Y-92476581D01*
X190987324Y-92476581D01*
X191844467Y-91809914D02*
X191844467Y-92476581D01*
X191606371Y-91428962D02*
X191368276Y-92143248D01*
X191987324Y-92143248D01*
X123704943Y-94044543D02*
X123657324Y-94092162D01*
X123514467Y-94139781D01*
X123419229Y-94139781D01*
X123276371Y-94092162D01*
X123181133Y-93996924D01*
X123133514Y-93901686D01*
X123085895Y-93711210D01*
X123085895Y-93568352D01*
X123133514Y-93377876D01*
X123181133Y-93282638D01*
X123276371Y-93187400D01*
X123419229Y-93139781D01*
X123514467Y-93139781D01*
X123657324Y-93187400D01*
X123704943Y-93235019D01*
X124085895Y-93235019D02*
X124133514Y-93187400D01*
X124228752Y-93139781D01*
X124466848Y-93139781D01*
X124562086Y-93187400D01*
X124609705Y-93235019D01*
X124657324Y-93330257D01*
X124657324Y-93425495D01*
X124609705Y-93568352D01*
X124038276Y-94139781D01*
X124657324Y-94139781D01*
X125562086Y-93139781D02*
X125085895Y-93139781D01*
X125038276Y-93615971D01*
X125085895Y-93568352D01*
X125181133Y-93520733D01*
X125419229Y-93520733D01*
X125514467Y-93568352D01*
X125562086Y-93615971D01*
X125609705Y-93711210D01*
X125609705Y-93949305D01*
X125562086Y-94044543D01*
X125514467Y-94092162D01*
X125419229Y-94139781D01*
X125181133Y-94139781D01*
X125085895Y-94092162D01*
X125038276Y-94044543D01*
X105607881Y-75829695D02*
X104607881Y-75829695D01*
X104607881Y-75591600D01*
X104655500Y-75448742D01*
X104750738Y-75353504D01*
X104845976Y-75305885D01*
X105036452Y-75258266D01*
X105179310Y-75258266D01*
X105369786Y-75305885D01*
X105465024Y-75353504D01*
X105560262Y-75448742D01*
X105607881Y-75591600D01*
X105607881Y-75829695D01*
X105607881Y-74305885D02*
X105607881Y-74877314D01*
X105607881Y-74591600D02*
X104607881Y-74591600D01*
X104750738Y-74686838D01*
X104845976Y-74782076D01*
X104893595Y-74877314D01*
D14*
X102957690Y-72475271D02*
X102996395Y-72359157D01*
X102996395Y-72165633D01*
X102957690Y-72088223D01*
X102918986Y-72049519D01*
X102841576Y-72010814D01*
X102764167Y-72010814D01*
X102686757Y-72049519D01*
X102648052Y-72088223D01*
X102609348Y-72165633D01*
X102570643Y-72320452D01*
X102531938Y-72397861D01*
X102493233Y-72436566D01*
X102415824Y-72475271D01*
X102338414Y-72475271D01*
X102261005Y-72436566D01*
X102222300Y-72397861D01*
X102183595Y-72320452D01*
X102183595Y-72126928D01*
X102222300Y-72010814D01*
X102957690Y-71701176D02*
X102996395Y-71585062D01*
X102996395Y-71391538D01*
X102957690Y-71314128D01*
X102918986Y-71275424D01*
X102841576Y-71236719D01*
X102764167Y-71236719D01*
X102686757Y-71275424D01*
X102648052Y-71314128D01*
X102609348Y-71391538D01*
X102570643Y-71546357D01*
X102531938Y-71623766D01*
X102493233Y-71662471D01*
X102415824Y-71701176D01*
X102338414Y-71701176D01*
X102261005Y-71662471D01*
X102222300Y-71623766D01*
X102183595Y-71546357D01*
X102183595Y-71352833D01*
X102222300Y-71236719D01*
X102996395Y-70462624D02*
X102996395Y-70927081D01*
X102996395Y-70694852D02*
X102183595Y-70694852D01*
X102299710Y-70772262D01*
X102377119Y-70849671D01*
X102415824Y-70927081D01*
X102183595Y-69765938D02*
X102183595Y-69920757D01*
X102222300Y-69998167D01*
X102261005Y-70036872D01*
X102377119Y-70114281D01*
X102531938Y-70152986D01*
X102841576Y-70152986D01*
X102918986Y-70114281D01*
X102957690Y-70075576D01*
X102996395Y-69998167D01*
X102996395Y-69843348D01*
X102957690Y-69765938D01*
X102918986Y-69727234D01*
X102841576Y-69688529D01*
X102648052Y-69688529D01*
X102570643Y-69727234D01*
X102531938Y-69765938D01*
X102493233Y-69843348D01*
X102493233Y-69998167D01*
X102531938Y-70075576D01*
X102570643Y-70114281D01*
X102648052Y-70152986D01*
D11*
X113077881Y-75949695D02*
X112077881Y-75949695D01*
X112077881Y-75711600D01*
X112125500Y-75568742D01*
X112220738Y-75473504D01*
X112315976Y-75425885D01*
X112506452Y-75378266D01*
X112649310Y-75378266D01*
X112839786Y-75425885D01*
X112935024Y-75473504D01*
X113030262Y-75568742D01*
X113077881Y-75711600D01*
X113077881Y-75949695D01*
X112173119Y-74997314D02*
X112125500Y-74949695D01*
X112077881Y-74854457D01*
X112077881Y-74616361D01*
X112125500Y-74521123D01*
X112173119Y-74473504D01*
X112268357Y-74425885D01*
X112363595Y-74425885D01*
X112506452Y-74473504D01*
X113077881Y-75044933D01*
X113077881Y-74425885D01*
X108619643Y-75627928D02*
X108691071Y-75413642D01*
X108691071Y-75056499D01*
X108619643Y-74913642D01*
X108548214Y-74842213D01*
X108405357Y-74770785D01*
X108262500Y-74770785D01*
X108119643Y-74842213D01*
X108048214Y-74913642D01*
X107976786Y-75056499D01*
X107905357Y-75342213D01*
X107833929Y-75485071D01*
X107762500Y-75556499D01*
X107619643Y-75627928D01*
X107476786Y-75627928D01*
X107333929Y-75556499D01*
X107262500Y-75485071D01*
X107191071Y-75342213D01*
X107191071Y-74985071D01*
X107262500Y-74770785D01*
X108691071Y-74127928D02*
X107191071Y-74127928D01*
X108262500Y-73627928D01*
X107191071Y-73127928D01*
X108691071Y-73127928D01*
X108262500Y-72485071D02*
X108262500Y-71770785D01*
X108691071Y-72627928D02*
X107191071Y-72127928D01*
X108691071Y-71627928D01*
X107191071Y-70699357D02*
X108262500Y-70699357D01*
X108476786Y-70770785D01*
X108619643Y-70913642D01*
X108691071Y-71127928D01*
X108691071Y-71270785D01*
X107191071Y-69270785D02*
X107191071Y-69985071D01*
X107905357Y-70056500D01*
X107833929Y-69985071D01*
X107762500Y-69842214D01*
X107762500Y-69485071D01*
X107833929Y-69342214D01*
X107905357Y-69270785D01*
X108048214Y-69199357D01*
X108405357Y-69199357D01*
X108548214Y-69270785D01*
X108619643Y-69342214D01*
X108691071Y-69485071D01*
X108691071Y-69842214D01*
X108619643Y-69985071D01*
X108548214Y-70056500D01*
X107691071Y-67913643D02*
X108691071Y-67913643D01*
X107119643Y-68270786D02*
X108191071Y-68627929D01*
X108191071Y-67699357D01*
X108262500Y-67199358D02*
X108262500Y-66485072D01*
X108691071Y-67342215D02*
X107191071Y-66842215D01*
X108691071Y-66342215D01*
X155010181Y-85285495D02*
X154010181Y-85285495D01*
X154010181Y-85047400D01*
X154057800Y-84904542D01*
X154153038Y-84809304D01*
X154248276Y-84761685D01*
X154438752Y-84714066D01*
X154581610Y-84714066D01*
X154772086Y-84761685D01*
X154867324Y-84809304D01*
X154962562Y-84904542D01*
X155010181Y-85047400D01*
X155010181Y-85285495D01*
X154010181Y-84380733D02*
X154010181Y-83761685D01*
X154391133Y-84095019D01*
X154391133Y-83952161D01*
X154438752Y-83856923D01*
X154486371Y-83809304D01*
X154581610Y-83761685D01*
X154819705Y-83761685D01*
X154914943Y-83809304D01*
X154962562Y-83856923D01*
X155010181Y-83952161D01*
X155010181Y-84237876D01*
X154962562Y-84333114D01*
X154914943Y-84380733D01*
X133510181Y-85545495D02*
X132510181Y-85545495D01*
X132510181Y-85307400D01*
X132557800Y-85164542D01*
X132653038Y-85069304D01*
X132748276Y-85021685D01*
X132938752Y-84974066D01*
X133081610Y-84974066D01*
X133272086Y-85021685D01*
X133367324Y-85069304D01*
X133462562Y-85164542D01*
X133510181Y-85307400D01*
X133510181Y-85545495D01*
X132843514Y-84116923D02*
X133510181Y-84116923D01*
X132462562Y-84355019D02*
X133176848Y-84593114D01*
X133176848Y-83974066D01*
X177920181Y-84965495D02*
X176920181Y-84965495D01*
X176920181Y-84727400D01*
X176967800Y-84584542D01*
X177063038Y-84489304D01*
X177158276Y-84441685D01*
X177348752Y-84394066D01*
X177491610Y-84394066D01*
X177682086Y-84441685D01*
X177777324Y-84489304D01*
X177872562Y-84584542D01*
X177920181Y-84727400D01*
X177920181Y-84965495D01*
X176920181Y-83489304D02*
X176920181Y-83965495D01*
X177396371Y-84013114D01*
X177348752Y-83965495D01*
X177301133Y-83870257D01*
X177301133Y-83632161D01*
X177348752Y-83536923D01*
X177396371Y-83489304D01*
X177491610Y-83441685D01*
X177729705Y-83441685D01*
X177824943Y-83489304D01*
X177872562Y-83536923D01*
X177920181Y-83632161D01*
X177920181Y-83870257D01*
X177872562Y-83965495D01*
X177824943Y-84013114D01*
X199816981Y-84456495D02*
X198816981Y-84456495D01*
X198816981Y-84218400D01*
X198864600Y-84075542D01*
X198959838Y-83980304D01*
X199055076Y-83932685D01*
X199245552Y-83885066D01*
X199388410Y-83885066D01*
X199578886Y-83932685D01*
X199674124Y-83980304D01*
X199769362Y-84075542D01*
X199816981Y-84218400D01*
X199816981Y-84456495D01*
X198816981Y-83027923D02*
X198816981Y-83218400D01*
X198864600Y-83313638D01*
X198912219Y-83361257D01*
X199055076Y-83456495D01*
X199245552Y-83504114D01*
X199626505Y-83504114D01*
X199721743Y-83456495D01*
X199769362Y-83408876D01*
X199816981Y-83313638D01*
X199816981Y-83123161D01*
X199769362Y-83027923D01*
X199721743Y-82980304D01*
X199626505Y-82932685D01*
X199388410Y-82932685D01*
X199293171Y-82980304D01*
X199245552Y-83027923D01*
X199197933Y-83123161D01*
X199197933Y-83313638D01*
X199245552Y-83408876D01*
X199293171Y-83456495D01*
X199388410Y-83504114D01*
D14*
X123974377Y-77266195D02*
X123974377Y-76453395D01*
X124167901Y-76453395D01*
X124284015Y-76492100D01*
X124361424Y-76569510D01*
X124400129Y-76646919D01*
X124438834Y-76801738D01*
X124438834Y-76917852D01*
X124400129Y-77072671D01*
X124361424Y-77150081D01*
X124284015Y-77227490D01*
X124167901Y-77266195D01*
X123974377Y-77266195D01*
X124709767Y-76453395D02*
X125251634Y-76453395D01*
X124903291Y-77266195D01*
X118091254Y-72147490D02*
X118207368Y-72186195D01*
X118400892Y-72186195D01*
X118478302Y-72147490D01*
X118517006Y-72108786D01*
X118555711Y-72031376D01*
X118555711Y-71953967D01*
X118517006Y-71876557D01*
X118478302Y-71837852D01*
X118400892Y-71799148D01*
X118246073Y-71760443D01*
X118168664Y-71721738D01*
X118129959Y-71683033D01*
X118091254Y-71605624D01*
X118091254Y-71528214D01*
X118129959Y-71450805D01*
X118168664Y-71412100D01*
X118246073Y-71373395D01*
X118439597Y-71373395D01*
X118555711Y-71412100D01*
X119329806Y-72186195D02*
X118865349Y-72186195D01*
X119097578Y-72186195D02*
X119097578Y-71373395D01*
X119020168Y-71489510D01*
X118942759Y-71566919D01*
X118865349Y-71605624D01*
X119639444Y-71953967D02*
X120026492Y-71953967D01*
X119562035Y-72186195D02*
X119832968Y-71373395D01*
X120103901Y-72186195D01*
X120994111Y-72186195D02*
X120994111Y-71373395D01*
X121265044Y-71953967D01*
X121535977Y-71373395D01*
X121535977Y-72186195D01*
X122271368Y-71644329D02*
X122271368Y-72186195D01*
X121923025Y-71644329D02*
X121923025Y-72070081D01*
X121961730Y-72147490D01*
X122039139Y-72186195D01*
X122155253Y-72186195D01*
X122232663Y-72147490D01*
X122271368Y-72108786D01*
X122774529Y-72186195D02*
X122697120Y-72147490D01*
X122658415Y-72070081D01*
X122658415Y-71373395D01*
X122968053Y-71644329D02*
X123277691Y-71644329D01*
X123084167Y-71373395D02*
X123084167Y-72070081D01*
X123122872Y-72147490D01*
X123200281Y-72186195D01*
X123277691Y-72186195D01*
X123548624Y-72186195D02*
X123548624Y-71644329D01*
X123548624Y-71373395D02*
X123509919Y-71412100D01*
X123548624Y-71450805D01*
X123587329Y-71412100D01*
X123548624Y-71373395D01*
X123548624Y-71450805D01*
X124284015Y-72147490D02*
X124206605Y-72186195D01*
X124051786Y-72186195D01*
X123974377Y-72147490D01*
X123935672Y-72108786D01*
X123896967Y-72031376D01*
X123896967Y-71799148D01*
X123935672Y-71721738D01*
X123974377Y-71683033D01*
X124051786Y-71644329D01*
X124206605Y-71644329D01*
X124284015Y-71683033D01*
X124748472Y-72186195D02*
X124671063Y-72147490D01*
X124632358Y-72108786D01*
X124593653Y-72031376D01*
X124593653Y-71799148D01*
X124632358Y-71721738D01*
X124671063Y-71683033D01*
X124748472Y-71644329D01*
X124864586Y-71644329D01*
X124941996Y-71683033D01*
X124980701Y-71721738D01*
X125019405Y-71799148D01*
X125019405Y-72031376D01*
X124980701Y-72108786D01*
X124941996Y-72147490D01*
X124864586Y-72186195D01*
X124748472Y-72186195D01*
X125367748Y-72186195D02*
X125367748Y-71644329D01*
X125367748Y-71721738D02*
X125406453Y-71683033D01*
X125483862Y-71644329D01*
X125599976Y-71644329D01*
X125677386Y-71683033D01*
X125716091Y-71760443D01*
X125716091Y-72186195D01*
X125716091Y-71760443D02*
X125754795Y-71683033D01*
X125832205Y-71644329D01*
X125948319Y-71644329D01*
X126025729Y-71683033D01*
X126064434Y-71760443D01*
X126064434Y-72186195D01*
X126451481Y-71644329D02*
X126451481Y-72457129D01*
X126451481Y-71683033D02*
X126528890Y-71644329D01*
X126683709Y-71644329D01*
X126761119Y-71683033D01*
X126799824Y-71721738D01*
X126838528Y-71799148D01*
X126838528Y-72031376D01*
X126799824Y-72108786D01*
X126761119Y-72147490D01*
X126683709Y-72186195D01*
X126528890Y-72186195D01*
X126451481Y-72147490D01*
X127806147Y-72186195D02*
X127806147Y-71373395D01*
X127999671Y-71373395D01*
X128115785Y-71412100D01*
X128193194Y-71489510D01*
X128231899Y-71566919D01*
X128270604Y-71721738D01*
X128270604Y-71837852D01*
X128231899Y-71992671D01*
X128193194Y-72070081D01*
X128115785Y-72147490D01*
X127999671Y-72186195D01*
X127806147Y-72186195D01*
X128618947Y-72186195D02*
X128618947Y-71373395D01*
X129160814Y-71373395D02*
X129315633Y-71373395D01*
X129393042Y-71412100D01*
X129470452Y-71489510D01*
X129509157Y-71644329D01*
X129509157Y-71915262D01*
X129470452Y-72070081D01*
X129393042Y-72147490D01*
X129315633Y-72186195D01*
X129160814Y-72186195D01*
X129083404Y-72147490D01*
X129005995Y-72070081D01*
X128967290Y-71915262D01*
X128967290Y-71644329D01*
X129005995Y-71489510D01*
X129083404Y-71412100D01*
X129160814Y-71373395D01*
X129857500Y-72186195D02*
X129857500Y-71373395D01*
X130051024Y-71373395D01*
X130167138Y-71412100D01*
X130244547Y-71489510D01*
X130283252Y-71566919D01*
X130321957Y-71721738D01*
X130321957Y-71837852D01*
X130283252Y-71992671D01*
X130244547Y-72070081D01*
X130167138Y-72147490D01*
X130051024Y-72186195D01*
X129857500Y-72186195D01*
X130670300Y-71760443D02*
X130941233Y-71760443D01*
X131057347Y-72186195D02*
X130670300Y-72186195D01*
X130670300Y-71373395D01*
X131057347Y-71373395D01*
X105655577Y-100249295D02*
X105655577Y-99436495D01*
X105849101Y-99436495D01*
X105965215Y-99475200D01*
X106042624Y-99552610D01*
X106081329Y-99630019D01*
X106120034Y-99784838D01*
X106120034Y-99900952D01*
X106081329Y-100055771D01*
X106042624Y-100133181D01*
X105965215Y-100210590D01*
X105849101Y-100249295D01*
X105655577Y-100249295D01*
X106584491Y-99784838D02*
X106507082Y-99746133D01*
X106468377Y-99707429D01*
X106429672Y-99630019D01*
X106429672Y-99591314D01*
X106468377Y-99513905D01*
X106507082Y-99475200D01*
X106584491Y-99436495D01*
X106739310Y-99436495D01*
X106816720Y-99475200D01*
X106855424Y-99513905D01*
X106894129Y-99591314D01*
X106894129Y-99630019D01*
X106855424Y-99707429D01*
X106816720Y-99746133D01*
X106739310Y-99784838D01*
X106584491Y-99784838D01*
X106507082Y-99823543D01*
X106468377Y-99862248D01*
X106429672Y-99939657D01*
X106429672Y-100094476D01*
X106468377Y-100171886D01*
X106507082Y-100210590D01*
X106584491Y-100249295D01*
X106739310Y-100249295D01*
X106816720Y-100210590D01*
X106855424Y-100171886D01*
X106894129Y-100094476D01*
X106894129Y-99939657D01*
X106855424Y-99862248D01*
X106816720Y-99823543D01*
X106739310Y-99784838D01*
X101823158Y-104620786D02*
X101784453Y-104659490D01*
X101668339Y-104698195D01*
X101590929Y-104698195D01*
X101474815Y-104659490D01*
X101397406Y-104582081D01*
X101358701Y-104504671D01*
X101319996Y-104349852D01*
X101319996Y-104233738D01*
X101358701Y-104078919D01*
X101397406Y-104001510D01*
X101474815Y-103924100D01*
X101590929Y-103885395D01*
X101668339Y-103885395D01*
X101784453Y-103924100D01*
X101823158Y-103962805D01*
X102171501Y-104698195D02*
X102171501Y-103885395D01*
X102365025Y-103885395D01*
X102481139Y-103924100D01*
X102558548Y-104001510D01*
X102597253Y-104078919D01*
X102635958Y-104233738D01*
X102635958Y-104349852D01*
X102597253Y-104504671D01*
X102558548Y-104582081D01*
X102481139Y-104659490D01*
X102365025Y-104698195D01*
X102171501Y-104698195D01*
X102945596Y-103962805D02*
X102984301Y-103924100D01*
X103061710Y-103885395D01*
X103255234Y-103885395D01*
X103332644Y-103924100D01*
X103371348Y-103962805D01*
X103410053Y-104040214D01*
X103410053Y-104117624D01*
X103371348Y-104233738D01*
X102906891Y-104698195D01*
X103410053Y-104698195D01*
X104184148Y-104698195D02*
X103719691Y-104698195D01*
X103951920Y-104698195D02*
X103951920Y-103885395D01*
X103874510Y-104001510D01*
X103797101Y-104078919D01*
X103719691Y-104117624D01*
X104880834Y-104156329D02*
X104880834Y-104698195D01*
X104687310Y-103846690D02*
X104493786Y-104427262D01*
X104996948Y-104427262D01*
X105267881Y-104465967D02*
X105654929Y-104465967D01*
X105190472Y-104698195D02*
X105461405Y-103885395D01*
X105732338Y-104698195D01*
X106003272Y-104388557D02*
X106622548Y-104388557D01*
X107280529Y-104272443D02*
X107396643Y-104311148D01*
X107435348Y-104349852D01*
X107474053Y-104427262D01*
X107474053Y-104543376D01*
X107435348Y-104620786D01*
X107396643Y-104659490D01*
X107319234Y-104698195D01*
X107009596Y-104698195D01*
X107009596Y-103885395D01*
X107280529Y-103885395D01*
X107357939Y-103924100D01*
X107396643Y-103962805D01*
X107435348Y-104040214D01*
X107435348Y-104117624D01*
X107396643Y-104195033D01*
X107357939Y-104233738D01*
X107280529Y-104272443D01*
X107009596Y-104272443D01*
X108248148Y-104698195D02*
X107783691Y-104698195D01*
X108015920Y-104698195D02*
X108015920Y-103885395D01*
X107938510Y-104001510D01*
X107861101Y-104078919D01*
X107783691Y-104117624D01*
X108944834Y-103885395D02*
X108790015Y-103885395D01*
X108712605Y-103924100D01*
X108673900Y-103962805D01*
X108596491Y-104078919D01*
X108557786Y-104233738D01*
X108557786Y-104543376D01*
X108596491Y-104620786D01*
X108635196Y-104659490D01*
X108712605Y-104698195D01*
X108867424Y-104698195D01*
X108944834Y-104659490D01*
X108983538Y-104620786D01*
X109022243Y-104543376D01*
X109022243Y-104349852D01*
X108983538Y-104272443D01*
X108944834Y-104233738D01*
X108867424Y-104195033D01*
X108712605Y-104195033D01*
X108635196Y-104233738D01*
X108596491Y-104272443D01*
X108557786Y-104349852D01*
X109525405Y-103885395D02*
X109602814Y-103885395D01*
X109680224Y-103924100D01*
X109718929Y-103962805D01*
X109757633Y-104040214D01*
X109796338Y-104195033D01*
X109796338Y-104388557D01*
X109757633Y-104543376D01*
X109718929Y-104620786D01*
X109680224Y-104659490D01*
X109602814Y-104698195D01*
X109525405Y-104698195D01*
X109447995Y-104659490D01*
X109409291Y-104620786D01*
X109370586Y-104543376D01*
X109331881Y-104388557D01*
X109331881Y-104195033D01*
X109370586Y-104040214D01*
X109409291Y-103962805D01*
X109447995Y-103924100D01*
X109525405Y-103885395D01*
X110531728Y-104698195D02*
X110144681Y-104698195D01*
X110144681Y-103885395D01*
X111073595Y-104272443D02*
X110802662Y-104272443D01*
X110802662Y-104698195D02*
X110802662Y-103885395D01*
X111189709Y-103885395D01*
D11*
X126525281Y-116066795D02*
X125525281Y-116066795D01*
X125525281Y-115828700D01*
X125572900Y-115685842D01*
X125668138Y-115590604D01*
X125763376Y-115542985D01*
X125953852Y-115495366D01*
X126096710Y-115495366D01*
X126287186Y-115542985D01*
X126382424Y-115590604D01*
X126477662Y-115685842D01*
X126525281Y-115828700D01*
X126525281Y-116066795D01*
X126525281Y-115019176D02*
X126525281Y-114828700D01*
X126477662Y-114733461D01*
X126430043Y-114685842D01*
X126287186Y-114590604D01*
X126096710Y-114542985D01*
X125715757Y-114542985D01*
X125620519Y-114590604D01*
X125572900Y-114638223D01*
X125525281Y-114733461D01*
X125525281Y-114923938D01*
X125572900Y-115019176D01*
X125620519Y-115066795D01*
X125715757Y-115114414D01*
X125953852Y-115114414D01*
X126049090Y-115066795D01*
X126096710Y-115019176D01*
X126144329Y-114923938D01*
X126144329Y-114733461D01*
X126096710Y-114638223D01*
X126049090Y-114590604D01*
X125953852Y-114542985D01*
X146216371Y-85757399D02*
X146216371Y-86471685D01*
X144716371Y-86471685D01*
X146216371Y-84471685D02*
X146216371Y-85328828D01*
X146216371Y-84900256D02*
X144716371Y-84900256D01*
X144930657Y-85043113D01*
X145073514Y-85185971D01*
X145144943Y-85328828D01*
X154396371Y-103871683D02*
X155896371Y-102871683D01*
X154396371Y-102871683D02*
X155896371Y-103871683D01*
X155467800Y-102371684D02*
X155467800Y-101657398D01*
X155896371Y-102514541D02*
X154396371Y-102014541D01*
X155896371Y-101514541D01*
X155896371Y-100300255D02*
X155896371Y-101014541D01*
X154396371Y-101014541D01*
X154396371Y-99157398D02*
X154396371Y-99443112D01*
X154467800Y-99585969D01*
X154539229Y-99657398D01*
X154753514Y-99800255D01*
X155039229Y-99871684D01*
X155610657Y-99871684D01*
X155753514Y-99800255D01*
X155824943Y-99728827D01*
X155896371Y-99585969D01*
X155896371Y-99300255D01*
X155824943Y-99157398D01*
X155753514Y-99085969D01*
X155610657Y-99014541D01*
X155253514Y-99014541D01*
X155110657Y-99085969D01*
X155039229Y-99157398D01*
X154967800Y-99300255D01*
X154967800Y-99585969D01*
X155039229Y-99728827D01*
X155110657Y-99800255D01*
X155253514Y-99871684D01*
X154396371Y-98085970D02*
X154396371Y-97943113D01*
X154467800Y-97800256D01*
X154539229Y-97728827D01*
X154682086Y-97657398D01*
X154967800Y-97585970D01*
X155324943Y-97585970D01*
X155610657Y-97657398D01*
X155753514Y-97728827D01*
X155824943Y-97800256D01*
X155896371Y-97943113D01*
X155896371Y-98085970D01*
X155824943Y-98228827D01*
X155753514Y-98300256D01*
X155610657Y-98371684D01*
X155324943Y-98443113D01*
X154967800Y-98443113D01*
X154682086Y-98371684D01*
X154539229Y-98300256D01*
X154467800Y-98228827D01*
X154396371Y-98085970D01*
X154396371Y-96300256D02*
X154396371Y-96585970D01*
X154467800Y-96728827D01*
X154539229Y-96800256D01*
X154753514Y-96943113D01*
X155039229Y-97014542D01*
X155610657Y-97014542D01*
X155753514Y-96943113D01*
X155824943Y-96871685D01*
X155896371Y-96728827D01*
X155896371Y-96443113D01*
X155824943Y-96300256D01*
X155753514Y-96228827D01*
X155610657Y-96157399D01*
X155253514Y-96157399D01*
X155110657Y-96228827D01*
X155039229Y-96300256D01*
X154967800Y-96443113D01*
X154967800Y-96728827D01*
X155039229Y-96871685D01*
X155110657Y-96943113D01*
X155253514Y-97014542D01*
X154396371Y-95228828D02*
X154396371Y-95085971D01*
X154467800Y-94943114D01*
X154539229Y-94871685D01*
X154682086Y-94800256D01*
X154967800Y-94728828D01*
X155324943Y-94728828D01*
X155610657Y-94800256D01*
X155753514Y-94871685D01*
X155824943Y-94943114D01*
X155896371Y-95085971D01*
X155896371Y-95228828D01*
X155824943Y-95371685D01*
X155753514Y-95443114D01*
X155610657Y-95514542D01*
X155324943Y-95585971D01*
X154967800Y-95585971D01*
X154682086Y-95514542D01*
X154539229Y-95443114D01*
X154467800Y-95371685D01*
X154396371Y-95228828D01*
X155324943Y-94085971D02*
X155324943Y-92943114D01*
X155896371Y-91443114D02*
X155896371Y-92300257D01*
X155896371Y-91871685D02*
X154396371Y-91871685D01*
X154610657Y-92014542D01*
X154753514Y-92157400D01*
X154824943Y-92300257D01*
X154396371Y-90085971D02*
X154396371Y-90800257D01*
X155110657Y-90871686D01*
X155039229Y-90800257D01*
X154967800Y-90657400D01*
X154967800Y-90300257D01*
X155039229Y-90157400D01*
X155110657Y-90085971D01*
X155253514Y-90014543D01*
X155610657Y-90014543D01*
X155753514Y-90085971D01*
X155824943Y-90157400D01*
X155896371Y-90300257D01*
X155896371Y-90657400D01*
X155824943Y-90800257D01*
X155753514Y-90871686D01*
X154396371Y-89514543D02*
X154396371Y-88585972D01*
X154967800Y-89085972D01*
X154967800Y-88871686D01*
X155039229Y-88728829D01*
X155110657Y-88657400D01*
X155253514Y-88585972D01*
X155610657Y-88585972D01*
X155753514Y-88657400D01*
X155824943Y-88728829D01*
X155896371Y-88871686D01*
X155896371Y-89300258D01*
X155824943Y-89443115D01*
X155753514Y-89514543D01*
X155896371Y-87943115D02*
X154396371Y-87943115D01*
X155467800Y-87443115D01*
X154396371Y-86943115D01*
X155896371Y-86943115D01*
X155110657Y-86228829D02*
X155110657Y-85728829D01*
X155896371Y-85514543D02*
X155896371Y-86228829D01*
X154396371Y-86228829D01*
X154396371Y-85514543D01*
X155753514Y-84014543D02*
X155824943Y-84085972D01*
X155896371Y-84300258D01*
X155896371Y-84443115D01*
X155824943Y-84657400D01*
X155682086Y-84800258D01*
X155539229Y-84871686D01*
X155253514Y-84943115D01*
X155039229Y-84943115D01*
X154753514Y-84871686D01*
X154610657Y-84800258D01*
X154467800Y-84657400D01*
X154396371Y-84443115D01*
X154396371Y-84300258D01*
X154467800Y-84085972D01*
X154539229Y-84014543D01*
X155324943Y-82228829D02*
X155324943Y-81085972D01*
X155896371Y-78443115D02*
X155896371Y-79300258D01*
X155896371Y-78871686D02*
X154396371Y-78871686D01*
X154610657Y-79014543D01*
X154753514Y-79157401D01*
X154824943Y-79300258D01*
X154396371Y-77085972D02*
X154396371Y-77800258D01*
X155110657Y-77871687D01*
X155039229Y-77800258D01*
X154967800Y-77657401D01*
X154967800Y-77300258D01*
X155039229Y-77157401D01*
X155110657Y-77085972D01*
X155253514Y-77014544D01*
X155610657Y-77014544D01*
X155753514Y-77085972D01*
X155824943Y-77157401D01*
X155896371Y-77300258D01*
X155896371Y-77657401D01*
X155824943Y-77800258D01*
X155753514Y-77871687D01*
X154896371Y-76371687D02*
X156396371Y-76371687D01*
X155682086Y-75657401D02*
X155824943Y-75585973D01*
X155896371Y-75443116D01*
X155682086Y-76371687D02*
X155824943Y-76300259D01*
X155896371Y-76157401D01*
X155896371Y-75871687D01*
X155824943Y-75728830D01*
X155682086Y-75657401D01*
X154896371Y-75657401D01*
X155896371Y-74800258D02*
X154396371Y-74800258D01*
X155110657Y-74800258D02*
X155110657Y-73943115D01*
X155896371Y-73943115D02*
X154396371Y-73943115D01*
X155324943Y-72085972D02*
X155324943Y-70943115D01*
X154396371Y-68443115D02*
X154396371Y-68728829D01*
X154467800Y-68871686D01*
X154539229Y-68943115D01*
X154753514Y-69085972D01*
X155039229Y-69157401D01*
X155610657Y-69157401D01*
X155753514Y-69085972D01*
X155824943Y-69014544D01*
X155896371Y-68871686D01*
X155896371Y-68585972D01*
X155824943Y-68443115D01*
X155753514Y-68371686D01*
X155610657Y-68300258D01*
X155253514Y-68300258D01*
X155110657Y-68371686D01*
X155039229Y-68443115D01*
X154967800Y-68585972D01*
X154967800Y-68871686D01*
X155039229Y-69014544D01*
X155110657Y-69085972D01*
X155253514Y-69157401D01*
X155467800Y-67728830D02*
X155467800Y-67014544D01*
X155896371Y-67871687D02*
X154396371Y-67371687D01*
X155896371Y-66871687D01*
X168676371Y-85577399D02*
X168676371Y-86291685D01*
X167176371Y-86291685D01*
X167319229Y-85148828D02*
X167247800Y-85077399D01*
X167176371Y-84934542D01*
X167176371Y-84577399D01*
X167247800Y-84434542D01*
X167319229Y-84363113D01*
X167462086Y-84291685D01*
X167604943Y-84291685D01*
X167819229Y-84363113D01*
X168676371Y-85220256D01*
X168676371Y-84291685D01*
X176856371Y-103691683D02*
X178356371Y-102691683D01*
X176856371Y-102691683D02*
X178356371Y-103691683D01*
X177927800Y-102191684D02*
X177927800Y-101477398D01*
X178356371Y-102334541D02*
X176856371Y-101834541D01*
X178356371Y-101334541D01*
X178356371Y-100120255D02*
X178356371Y-100834541D01*
X176856371Y-100834541D01*
X176856371Y-98977398D02*
X176856371Y-99263112D01*
X176927800Y-99405969D01*
X176999229Y-99477398D01*
X177213514Y-99620255D01*
X177499229Y-99691684D01*
X178070657Y-99691684D01*
X178213514Y-99620255D01*
X178284943Y-99548827D01*
X178356371Y-99405969D01*
X178356371Y-99120255D01*
X178284943Y-98977398D01*
X178213514Y-98905969D01*
X178070657Y-98834541D01*
X177713514Y-98834541D01*
X177570657Y-98905969D01*
X177499229Y-98977398D01*
X177427800Y-99120255D01*
X177427800Y-99405969D01*
X177499229Y-99548827D01*
X177570657Y-99620255D01*
X177713514Y-99691684D01*
X176856371Y-97905970D02*
X176856371Y-97763113D01*
X176927800Y-97620256D01*
X176999229Y-97548827D01*
X177142086Y-97477398D01*
X177427800Y-97405970D01*
X177784943Y-97405970D01*
X178070657Y-97477398D01*
X178213514Y-97548827D01*
X178284943Y-97620256D01*
X178356371Y-97763113D01*
X178356371Y-97905970D01*
X178284943Y-98048827D01*
X178213514Y-98120256D01*
X178070657Y-98191684D01*
X177784943Y-98263113D01*
X177427800Y-98263113D01*
X177142086Y-98191684D01*
X176999229Y-98120256D01*
X176927800Y-98048827D01*
X176856371Y-97905970D01*
X176856371Y-96120256D02*
X176856371Y-96405970D01*
X176927800Y-96548827D01*
X176999229Y-96620256D01*
X177213514Y-96763113D01*
X177499229Y-96834542D01*
X178070657Y-96834542D01*
X178213514Y-96763113D01*
X178284943Y-96691685D01*
X178356371Y-96548827D01*
X178356371Y-96263113D01*
X178284943Y-96120256D01*
X178213514Y-96048827D01*
X178070657Y-95977399D01*
X177713514Y-95977399D01*
X177570657Y-96048827D01*
X177499229Y-96120256D01*
X177427800Y-96263113D01*
X177427800Y-96548827D01*
X177499229Y-96691685D01*
X177570657Y-96763113D01*
X177713514Y-96834542D01*
X176856371Y-95048828D02*
X176856371Y-94905971D01*
X176927800Y-94763114D01*
X176999229Y-94691685D01*
X177142086Y-94620256D01*
X177427800Y-94548828D01*
X177784943Y-94548828D01*
X178070657Y-94620256D01*
X178213514Y-94691685D01*
X178284943Y-94763114D01*
X178356371Y-94905971D01*
X178356371Y-95048828D01*
X178284943Y-95191685D01*
X178213514Y-95263114D01*
X178070657Y-95334542D01*
X177784943Y-95405971D01*
X177427800Y-95405971D01*
X177142086Y-95334542D01*
X176999229Y-95263114D01*
X176927800Y-95191685D01*
X176856371Y-95048828D01*
X177784943Y-93905971D02*
X177784943Y-92763114D01*
X178356371Y-91263114D02*
X178356371Y-92120257D01*
X178356371Y-91691685D02*
X176856371Y-91691685D01*
X177070657Y-91834542D01*
X177213514Y-91977400D01*
X177284943Y-92120257D01*
X176856371Y-89905971D02*
X176856371Y-90620257D01*
X177570657Y-90691686D01*
X177499229Y-90620257D01*
X177427800Y-90477400D01*
X177427800Y-90120257D01*
X177499229Y-89977400D01*
X177570657Y-89905971D01*
X177713514Y-89834543D01*
X178070657Y-89834543D01*
X178213514Y-89905971D01*
X178284943Y-89977400D01*
X178356371Y-90120257D01*
X178356371Y-90477400D01*
X178284943Y-90620257D01*
X178213514Y-90691686D01*
X176856371Y-89334543D02*
X176856371Y-88405972D01*
X177427800Y-88905972D01*
X177427800Y-88691686D01*
X177499229Y-88548829D01*
X177570657Y-88477400D01*
X177713514Y-88405972D01*
X178070657Y-88405972D01*
X178213514Y-88477400D01*
X178284943Y-88548829D01*
X178356371Y-88691686D01*
X178356371Y-89120258D01*
X178284943Y-89263115D01*
X178213514Y-89334543D01*
X178356371Y-87763115D02*
X176856371Y-87763115D01*
X177927800Y-87263115D01*
X176856371Y-86763115D01*
X178356371Y-86763115D01*
X177570657Y-86048829D02*
X177570657Y-85548829D01*
X178356371Y-85334543D02*
X178356371Y-86048829D01*
X176856371Y-86048829D01*
X176856371Y-85334543D01*
X178213514Y-83834543D02*
X178284943Y-83905972D01*
X178356371Y-84120258D01*
X178356371Y-84263115D01*
X178284943Y-84477400D01*
X178142086Y-84620258D01*
X177999229Y-84691686D01*
X177713514Y-84763115D01*
X177499229Y-84763115D01*
X177213514Y-84691686D01*
X177070657Y-84620258D01*
X176927800Y-84477400D01*
X176856371Y-84263115D01*
X176856371Y-84120258D01*
X176927800Y-83905972D01*
X176999229Y-83834543D01*
X177784943Y-82048829D02*
X177784943Y-80905972D01*
X178356371Y-78263115D02*
X178356371Y-79120258D01*
X178356371Y-78691686D02*
X176856371Y-78691686D01*
X177070657Y-78834543D01*
X177213514Y-78977401D01*
X177284943Y-79120258D01*
X176856371Y-76905972D02*
X176856371Y-77620258D01*
X177570657Y-77691687D01*
X177499229Y-77620258D01*
X177427800Y-77477401D01*
X177427800Y-77120258D01*
X177499229Y-76977401D01*
X177570657Y-76905972D01*
X177713514Y-76834544D01*
X178070657Y-76834544D01*
X178213514Y-76905972D01*
X178284943Y-76977401D01*
X178356371Y-77120258D01*
X178356371Y-77477401D01*
X178284943Y-77620258D01*
X178213514Y-77691687D01*
X177356371Y-76191687D02*
X178856371Y-76191687D01*
X178142086Y-75477401D02*
X178284943Y-75405973D01*
X178356371Y-75263116D01*
X178142086Y-76191687D02*
X178284943Y-76120259D01*
X178356371Y-75977401D01*
X178356371Y-75691687D01*
X178284943Y-75548830D01*
X178142086Y-75477401D01*
X177356371Y-75477401D01*
X178356371Y-74620258D02*
X176856371Y-74620258D01*
X177570657Y-74620258D02*
X177570657Y-73763115D01*
X178356371Y-73763115D02*
X176856371Y-73763115D01*
X177784943Y-71905972D02*
X177784943Y-70763115D01*
X176856371Y-68263115D02*
X176856371Y-68548829D01*
X176927800Y-68691686D01*
X176999229Y-68763115D01*
X177213514Y-68905972D01*
X177499229Y-68977401D01*
X178070657Y-68977401D01*
X178213514Y-68905972D01*
X178284943Y-68834544D01*
X178356371Y-68691686D01*
X178356371Y-68405972D01*
X178284943Y-68263115D01*
X178213514Y-68191686D01*
X178070657Y-68120258D01*
X177713514Y-68120258D01*
X177570657Y-68191686D01*
X177499229Y-68263115D01*
X177427800Y-68405972D01*
X177427800Y-68691686D01*
X177499229Y-68834544D01*
X177570657Y-68905972D01*
X177713514Y-68977401D01*
X177927800Y-67548830D02*
X177927800Y-66834544D01*
X178356371Y-67691687D02*
X176856371Y-67191687D01*
X178356371Y-66691687D01*
X124176371Y-86137399D02*
X124176371Y-86851685D01*
X122676371Y-86851685D01*
X122676371Y-85780256D02*
X122676371Y-84851685D01*
X123247800Y-85351685D01*
X123247800Y-85137399D01*
X123319229Y-84994542D01*
X123390657Y-84923113D01*
X123533514Y-84851685D01*
X123890657Y-84851685D01*
X124033514Y-84923113D01*
X124104943Y-84994542D01*
X124176371Y-85137399D01*
X124176371Y-85565971D01*
X124104943Y-85708828D01*
X124033514Y-85780256D01*
X132356371Y-104251683D02*
X133856371Y-103251683D01*
X132356371Y-103251683D02*
X133856371Y-104251683D01*
X133427800Y-102751684D02*
X133427800Y-102037398D01*
X133856371Y-102894541D02*
X132356371Y-102394541D01*
X133856371Y-101894541D01*
X133856371Y-100680255D02*
X133856371Y-101394541D01*
X132356371Y-101394541D01*
X132356371Y-99537398D02*
X132356371Y-99823112D01*
X132427800Y-99965969D01*
X132499229Y-100037398D01*
X132713514Y-100180255D01*
X132999229Y-100251684D01*
X133570657Y-100251684D01*
X133713514Y-100180255D01*
X133784943Y-100108827D01*
X133856371Y-99965969D01*
X133856371Y-99680255D01*
X133784943Y-99537398D01*
X133713514Y-99465969D01*
X133570657Y-99394541D01*
X133213514Y-99394541D01*
X133070657Y-99465969D01*
X132999229Y-99537398D01*
X132927800Y-99680255D01*
X132927800Y-99965969D01*
X132999229Y-100108827D01*
X133070657Y-100180255D01*
X133213514Y-100251684D01*
X132356371Y-98465970D02*
X132356371Y-98323113D01*
X132427800Y-98180256D01*
X132499229Y-98108827D01*
X132642086Y-98037398D01*
X132927800Y-97965970D01*
X133284943Y-97965970D01*
X133570657Y-98037398D01*
X133713514Y-98108827D01*
X133784943Y-98180256D01*
X133856371Y-98323113D01*
X133856371Y-98465970D01*
X133784943Y-98608827D01*
X133713514Y-98680256D01*
X133570657Y-98751684D01*
X133284943Y-98823113D01*
X132927800Y-98823113D01*
X132642086Y-98751684D01*
X132499229Y-98680256D01*
X132427800Y-98608827D01*
X132356371Y-98465970D01*
X132356371Y-96680256D02*
X132356371Y-96965970D01*
X132427800Y-97108827D01*
X132499229Y-97180256D01*
X132713514Y-97323113D01*
X132999229Y-97394542D01*
X133570657Y-97394542D01*
X133713514Y-97323113D01*
X133784943Y-97251685D01*
X133856371Y-97108827D01*
X133856371Y-96823113D01*
X133784943Y-96680256D01*
X133713514Y-96608827D01*
X133570657Y-96537399D01*
X133213514Y-96537399D01*
X133070657Y-96608827D01*
X132999229Y-96680256D01*
X132927800Y-96823113D01*
X132927800Y-97108827D01*
X132999229Y-97251685D01*
X133070657Y-97323113D01*
X133213514Y-97394542D01*
X132356371Y-95608828D02*
X132356371Y-95465971D01*
X132427800Y-95323114D01*
X132499229Y-95251685D01*
X132642086Y-95180256D01*
X132927800Y-95108828D01*
X133284943Y-95108828D01*
X133570657Y-95180256D01*
X133713514Y-95251685D01*
X133784943Y-95323114D01*
X133856371Y-95465971D01*
X133856371Y-95608828D01*
X133784943Y-95751685D01*
X133713514Y-95823114D01*
X133570657Y-95894542D01*
X133284943Y-95965971D01*
X132927800Y-95965971D01*
X132642086Y-95894542D01*
X132499229Y-95823114D01*
X132427800Y-95751685D01*
X132356371Y-95608828D01*
X133284943Y-94465971D02*
X133284943Y-93323114D01*
X133856371Y-91823114D02*
X133856371Y-92680257D01*
X133856371Y-92251685D02*
X132356371Y-92251685D01*
X132570657Y-92394542D01*
X132713514Y-92537400D01*
X132784943Y-92680257D01*
X132356371Y-90465971D02*
X132356371Y-91180257D01*
X133070657Y-91251686D01*
X132999229Y-91180257D01*
X132927800Y-91037400D01*
X132927800Y-90680257D01*
X132999229Y-90537400D01*
X133070657Y-90465971D01*
X133213514Y-90394543D01*
X133570657Y-90394543D01*
X133713514Y-90465971D01*
X133784943Y-90537400D01*
X133856371Y-90680257D01*
X133856371Y-91037400D01*
X133784943Y-91180257D01*
X133713514Y-91251686D01*
X132356371Y-89894543D02*
X132356371Y-88965972D01*
X132927800Y-89465972D01*
X132927800Y-89251686D01*
X132999229Y-89108829D01*
X133070657Y-89037400D01*
X133213514Y-88965972D01*
X133570657Y-88965972D01*
X133713514Y-89037400D01*
X133784943Y-89108829D01*
X133856371Y-89251686D01*
X133856371Y-89680258D01*
X133784943Y-89823115D01*
X133713514Y-89894543D01*
X133856371Y-88323115D02*
X132356371Y-88323115D01*
X133427800Y-87823115D01*
X132356371Y-87323115D01*
X133856371Y-87323115D01*
X133070657Y-86608829D02*
X133070657Y-86108829D01*
X133856371Y-85894543D02*
X133856371Y-86608829D01*
X132356371Y-86608829D01*
X132356371Y-85894543D01*
X133713514Y-84394543D02*
X133784943Y-84465972D01*
X133856371Y-84680258D01*
X133856371Y-84823115D01*
X133784943Y-85037400D01*
X133642086Y-85180258D01*
X133499229Y-85251686D01*
X133213514Y-85323115D01*
X132999229Y-85323115D01*
X132713514Y-85251686D01*
X132570657Y-85180258D01*
X132427800Y-85037400D01*
X132356371Y-84823115D01*
X132356371Y-84680258D01*
X132427800Y-84465972D01*
X132499229Y-84394543D01*
X133284943Y-82608829D02*
X133284943Y-81465972D01*
X133856371Y-78823115D02*
X133856371Y-79680258D01*
X133856371Y-79251686D02*
X132356371Y-79251686D01*
X132570657Y-79394543D01*
X132713514Y-79537401D01*
X132784943Y-79680258D01*
X132356371Y-77465972D02*
X132356371Y-78180258D01*
X133070657Y-78251687D01*
X132999229Y-78180258D01*
X132927800Y-78037401D01*
X132927800Y-77680258D01*
X132999229Y-77537401D01*
X133070657Y-77465972D01*
X133213514Y-77394544D01*
X133570657Y-77394544D01*
X133713514Y-77465972D01*
X133784943Y-77537401D01*
X133856371Y-77680258D01*
X133856371Y-78037401D01*
X133784943Y-78180258D01*
X133713514Y-78251687D01*
X132856371Y-76751687D02*
X134356371Y-76751687D01*
X133642086Y-76037401D02*
X133784943Y-75965973D01*
X133856371Y-75823116D01*
X133642086Y-76751687D02*
X133784943Y-76680259D01*
X133856371Y-76537401D01*
X133856371Y-76251687D01*
X133784943Y-76108830D01*
X133642086Y-76037401D01*
X132856371Y-76037401D01*
X133856371Y-75180258D02*
X132356371Y-75180258D01*
X133070657Y-75180258D02*
X133070657Y-74323115D01*
X133856371Y-74323115D02*
X132356371Y-74323115D01*
X133284943Y-72465972D02*
X133284943Y-71323115D01*
X132356371Y-68823115D02*
X132356371Y-69108829D01*
X132427800Y-69251686D01*
X132499229Y-69323115D01*
X132713514Y-69465972D01*
X132999229Y-69537401D01*
X133570657Y-69537401D01*
X133713514Y-69465972D01*
X133784943Y-69394544D01*
X133856371Y-69251686D01*
X133856371Y-68965972D01*
X133784943Y-68823115D01*
X133713514Y-68751686D01*
X133570657Y-68680258D01*
X133213514Y-68680258D01*
X133070657Y-68751686D01*
X132999229Y-68823115D01*
X132927800Y-68965972D01*
X132927800Y-69251686D01*
X132999229Y-69394544D01*
X133070657Y-69465972D01*
X133213514Y-69537401D01*
X133427800Y-68108830D02*
X133427800Y-67394544D01*
X133856371Y-68251687D02*
X132356371Y-67751687D01*
X133856371Y-67251687D01*
X190579271Y-85273799D02*
X190579271Y-85988085D01*
X189079271Y-85988085D01*
X189579271Y-84130942D02*
X190579271Y-84130942D01*
X189007843Y-84488085D02*
X190079271Y-84845228D01*
X190079271Y-83916656D01*
X110358834Y-103513981D02*
X109882643Y-103513981D01*
X109882643Y-102513981D01*
X111168358Y-102513981D02*
X110692167Y-102513981D01*
X110644548Y-102990171D01*
X110692167Y-102942552D01*
X110787405Y-102894933D01*
X111025501Y-102894933D01*
X111120739Y-102942552D01*
X111168358Y-102990171D01*
X111215977Y-103085410D01*
X111215977Y-103323505D01*
X111168358Y-103418743D01*
X111120739Y-103466362D01*
X111025501Y-103513981D01*
X110787405Y-103513981D01*
X110692167Y-103466362D01*
X110644548Y-103418743D01*
X100000061Y-71769195D02*
X99000061Y-71769195D01*
X99000061Y-71388242D01*
X99047680Y-71293004D01*
X99095299Y-71245385D01*
X99190537Y-71197766D01*
X99333394Y-71197766D01*
X99428632Y-71245385D01*
X99476251Y-71293004D01*
X99523870Y-71388242D01*
X99523870Y-71769195D01*
X100000061Y-70245385D02*
X100000061Y-70816814D01*
X100000061Y-70531100D02*
X99000061Y-70531100D01*
X99142918Y-70626338D01*
X99238156Y-70721576D01*
X99285775Y-70816814D01*
X149947405Y-121263981D02*
X149947405Y-120263981D01*
X150328358Y-120263981D01*
X150423596Y-120311600D01*
X150471215Y-120359219D01*
X150518834Y-120454457D01*
X150518834Y-120597314D01*
X150471215Y-120692552D01*
X150423596Y-120740171D01*
X150328358Y-120787790D01*
X149947405Y-120787790D01*
X151375977Y-120597314D02*
X151375977Y-121263981D01*
X151137881Y-120216362D02*
X150899786Y-120930648D01*
X151518834Y-120930648D01*
X172437405Y-121623981D02*
X172437405Y-120623981D01*
X172818358Y-120623981D01*
X172913596Y-120671600D01*
X172961215Y-120719219D01*
X173008834Y-120814457D01*
X173008834Y-120957314D01*
X172961215Y-121052552D01*
X172913596Y-121100171D01*
X172818358Y-121147790D01*
X172437405Y-121147790D01*
X173913596Y-120623981D02*
X173437405Y-120623981D01*
X173389786Y-121100171D01*
X173437405Y-121052552D01*
X173532643Y-121004933D01*
X173770739Y-121004933D01*
X173865977Y-121052552D01*
X173913596Y-121100171D01*
X173961215Y-121195410D01*
X173961215Y-121433505D01*
X173913596Y-121528743D01*
X173865977Y-121576362D01*
X173770739Y-121623981D01*
X173532643Y-121623981D01*
X173437405Y-121576362D01*
X173389786Y-121528743D01*
X194507405Y-121543981D02*
X194507405Y-120543981D01*
X194888358Y-120543981D01*
X194983596Y-120591600D01*
X195031215Y-120639219D01*
X195078834Y-120734457D01*
X195078834Y-120877314D01*
X195031215Y-120972552D01*
X194983596Y-121020171D01*
X194888358Y-121067790D01*
X194507405Y-121067790D01*
X195935977Y-120543981D02*
X195745500Y-120543981D01*
X195650262Y-120591600D01*
X195602643Y-120639219D01*
X195507405Y-120782076D01*
X195459786Y-120972552D01*
X195459786Y-121353505D01*
X195507405Y-121448743D01*
X195555024Y-121496362D01*
X195650262Y-121543981D01*
X195840739Y-121543981D01*
X195935977Y-121496362D01*
X195983596Y-121448743D01*
X196031215Y-121353505D01*
X196031215Y-121115410D01*
X195983596Y-121020171D01*
X195935977Y-120972552D01*
X195840739Y-120924933D01*
X195650262Y-120924933D01*
X195555024Y-120972552D01*
X195507405Y-121020171D01*
X195459786Y-121115410D01*
X128437405Y-121533981D02*
X128437405Y-120533981D01*
X128818358Y-120533981D01*
X128913596Y-120581600D01*
X128961215Y-120629219D01*
X129008834Y-120724457D01*
X129008834Y-120867314D01*
X128961215Y-120962552D01*
X128913596Y-121010171D01*
X128818358Y-121057790D01*
X128437405Y-121057790D01*
X129342167Y-120533981D02*
X130008834Y-120533981D01*
X129580262Y-121533981D01*
X124370157Y-79767771D02*
X124293014Y-79729200D01*
X124215871Y-79652057D01*
X124100157Y-79536343D01*
X124023014Y-79497771D01*
X123945871Y-79497771D01*
X123984443Y-79690629D02*
X123907300Y-79652057D01*
X123830157Y-79574914D01*
X123791586Y-79420629D01*
X123791586Y-79150629D01*
X123830157Y-78996343D01*
X123907300Y-78919200D01*
X123984443Y-78880629D01*
X124138729Y-78880629D01*
X124215871Y-78919200D01*
X124293014Y-78996343D01*
X124331586Y-79150629D01*
X124331586Y-79420629D01*
X124293014Y-79574914D01*
X124215871Y-79652057D01*
X124138729Y-79690629D01*
X123984443Y-79690629D01*
X125103014Y-79690629D02*
X124640157Y-79690629D01*
X124871585Y-79690629D02*
X124871585Y-78880629D01*
X124794442Y-78996343D01*
X124717300Y-79073486D01*
X124640157Y-79112057D01*
X195807881Y-75378266D02*
X195331690Y-75711600D01*
X195807881Y-75949695D02*
X194807881Y-75949695D01*
X194807881Y-75568742D01*
X194855500Y-75473504D01*
X194903119Y-75425885D01*
X194998357Y-75378266D01*
X195141214Y-75378266D01*
X195236452Y-75425885D01*
X195284071Y-75473504D01*
X195331690Y-75568742D01*
X195331690Y-75949695D01*
X195807881Y-74425885D02*
X195807881Y-74997314D01*
X195807881Y-74711600D02*
X194807881Y-74711600D01*
X194950738Y-74806838D01*
X195045976Y-74902076D01*
X195093595Y-74997314D01*
X198327881Y-75438266D02*
X197851690Y-75771600D01*
X198327881Y-76009695D02*
X197327881Y-76009695D01*
X197327881Y-75628742D01*
X197375500Y-75533504D01*
X197423119Y-75485885D01*
X197518357Y-75438266D01*
X197661214Y-75438266D01*
X197756452Y-75485885D01*
X197804071Y-75533504D01*
X197851690Y-75628742D01*
X197851690Y-76009695D01*
X197423119Y-75057314D02*
X197375500Y-75009695D01*
X197327881Y-74914457D01*
X197327881Y-74676361D01*
X197375500Y-74581123D01*
X197423119Y-74533504D01*
X197518357Y-74485885D01*
X197613595Y-74485885D01*
X197756452Y-74533504D01*
X198327881Y-75104933D01*
X198327881Y-74485885D01*
X200947881Y-75438266D02*
X200471690Y-75771600D01*
X200947881Y-76009695D02*
X199947881Y-76009695D01*
X199947881Y-75628742D01*
X199995500Y-75533504D01*
X200043119Y-75485885D01*
X200138357Y-75438266D01*
X200281214Y-75438266D01*
X200376452Y-75485885D01*
X200424071Y-75533504D01*
X200471690Y-75628742D01*
X200471690Y-76009695D01*
X199947881Y-75104933D02*
X199947881Y-74485885D01*
X200328833Y-74819219D01*
X200328833Y-74676361D01*
X200376452Y-74581123D01*
X200424071Y-74533504D01*
X200519310Y-74485885D01*
X200757405Y-74485885D01*
X200852643Y-74533504D01*
X200900262Y-74581123D01*
X200947881Y-74676361D01*
X200947881Y-74962076D01*
X200900262Y-75057314D01*
X200852643Y-75104933D01*
X203467881Y-75378266D02*
X202991690Y-75711600D01*
X203467881Y-75949695D02*
X202467881Y-75949695D01*
X202467881Y-75568742D01*
X202515500Y-75473504D01*
X202563119Y-75425885D01*
X202658357Y-75378266D01*
X202801214Y-75378266D01*
X202896452Y-75425885D01*
X202944071Y-75473504D01*
X202991690Y-75568742D01*
X202991690Y-75949695D01*
X202801214Y-74521123D02*
X203467881Y-74521123D01*
X202420262Y-74759219D02*
X203134548Y-74997314D01*
X203134548Y-74378266D01*
X205927881Y-75328266D02*
X205451690Y-75661600D01*
X205927881Y-75899695D02*
X204927881Y-75899695D01*
X204927881Y-75518742D01*
X204975500Y-75423504D01*
X205023119Y-75375885D01*
X205118357Y-75328266D01*
X205261214Y-75328266D01*
X205356452Y-75375885D01*
X205404071Y-75423504D01*
X205451690Y-75518742D01*
X205451690Y-75899695D01*
X204927881Y-74423504D02*
X204927881Y-74899695D01*
X205404071Y-74947314D01*
X205356452Y-74899695D01*
X205308833Y-74804457D01*
X205308833Y-74566361D01*
X205356452Y-74471123D01*
X205404071Y-74423504D01*
X205499310Y-74375885D01*
X205737405Y-74375885D01*
X205832643Y-74423504D01*
X205880262Y-74471123D01*
X205927881Y-74566361D01*
X205927881Y-74804457D01*
X205880262Y-74899695D01*
X205832643Y-74947314D01*
X148971134Y-99049781D02*
X148637800Y-98573590D01*
X148399705Y-99049781D02*
X148399705Y-98049781D01*
X148780658Y-98049781D01*
X148875896Y-98097400D01*
X148923515Y-98145019D01*
X148971134Y-98240257D01*
X148971134Y-98383114D01*
X148923515Y-98478352D01*
X148875896Y-98525971D01*
X148780658Y-98573590D01*
X148399705Y-98573590D01*
X149304467Y-98049781D02*
X149971134Y-98049781D01*
X149542562Y-99049781D01*
X164665634Y-97553581D02*
X164332300Y-97077390D01*
X164094205Y-97553581D02*
X164094205Y-96553581D01*
X164475158Y-96553581D01*
X164570396Y-96601200D01*
X164618015Y-96648819D01*
X164665634Y-96744057D01*
X164665634Y-96886914D01*
X164618015Y-96982152D01*
X164570396Y-97029771D01*
X164475158Y-97077390D01*
X164094205Y-97077390D01*
X165237062Y-96982152D02*
X165141824Y-96934533D01*
X165094205Y-96886914D01*
X165046586Y-96791676D01*
X165046586Y-96744057D01*
X165094205Y-96648819D01*
X165141824Y-96601200D01*
X165237062Y-96553581D01*
X165427539Y-96553581D01*
X165522777Y-96601200D01*
X165570396Y-96648819D01*
X165618015Y-96744057D01*
X165618015Y-96791676D01*
X165570396Y-96886914D01*
X165522777Y-96934533D01*
X165427539Y-96982152D01*
X165237062Y-96982152D01*
X165141824Y-97029771D01*
X165094205Y-97077390D01*
X165046586Y-97172629D01*
X165046586Y-97363105D01*
X165094205Y-97458343D01*
X165141824Y-97505962D01*
X165237062Y-97553581D01*
X165427539Y-97553581D01*
X165522777Y-97505962D01*
X165570396Y-97458343D01*
X165618015Y-97363105D01*
X165618015Y-97172629D01*
X165570396Y-97077390D01*
X165522777Y-97029771D01*
X165427539Y-96982152D01*
X163000181Y-94494066D02*
X162523990Y-94827400D01*
X163000181Y-95065495D02*
X162000181Y-95065495D01*
X162000181Y-94684542D01*
X162047800Y-94589304D01*
X162095419Y-94541685D01*
X162190657Y-94494066D01*
X162333514Y-94494066D01*
X162428752Y-94541685D01*
X162476371Y-94589304D01*
X162523990Y-94684542D01*
X162523990Y-95065495D01*
X163000181Y-94017876D02*
X163000181Y-93827400D01*
X162952562Y-93732161D01*
X162904943Y-93684542D01*
X162762086Y-93589304D01*
X162571610Y-93541685D01*
X162190657Y-93541685D01*
X162095419Y-93589304D01*
X162047800Y-93636923D01*
X162000181Y-93732161D01*
X162000181Y-93922638D01*
X162047800Y-94017876D01*
X162095419Y-94065495D01*
X162190657Y-94113114D01*
X162428752Y-94113114D01*
X162523990Y-94065495D01*
X162571610Y-94017876D01*
X162619229Y-93922638D01*
X162619229Y-93732161D01*
X162571610Y-93636923D01*
X162523990Y-93589304D01*
X162428752Y-93541685D01*
X161350181Y-79850257D02*
X160873990Y-80183591D01*
X161350181Y-80421686D02*
X160350181Y-80421686D01*
X160350181Y-80040733D01*
X160397800Y-79945495D01*
X160445419Y-79897876D01*
X160540657Y-79850257D01*
X160683514Y-79850257D01*
X160778752Y-79897876D01*
X160826371Y-79945495D01*
X160873990Y-80040733D01*
X160873990Y-80421686D01*
X161350181Y-78897876D02*
X161350181Y-79469305D01*
X161350181Y-79183591D02*
X160350181Y-79183591D01*
X160493038Y-79278829D01*
X160588276Y-79374067D01*
X160635895Y-79469305D01*
X160350181Y-78278829D02*
X160350181Y-78183590D01*
X160397800Y-78088352D01*
X160445419Y-78040733D01*
X160540657Y-77993114D01*
X160731133Y-77945495D01*
X160969229Y-77945495D01*
X161159705Y-77993114D01*
X161254943Y-78040733D01*
X161302562Y-78088352D01*
X161350181Y-78183590D01*
X161350181Y-78278829D01*
X161302562Y-78374067D01*
X161254943Y-78421686D01*
X161159705Y-78469305D01*
X160969229Y-78516924D01*
X160731133Y-78516924D01*
X160540657Y-78469305D01*
X160445419Y-78421686D01*
X160397800Y-78374067D01*
X160350181Y-78278829D01*
X159260181Y-83680257D02*
X158783990Y-84013591D01*
X159260181Y-84251686D02*
X158260181Y-84251686D01*
X158260181Y-83870733D01*
X158307800Y-83775495D01*
X158355419Y-83727876D01*
X158450657Y-83680257D01*
X158593514Y-83680257D01*
X158688752Y-83727876D01*
X158736371Y-83775495D01*
X158783990Y-83870733D01*
X158783990Y-84251686D01*
X159260181Y-82727876D02*
X159260181Y-83299305D01*
X159260181Y-83013591D02*
X158260181Y-83013591D01*
X158403038Y-83108829D01*
X158498276Y-83204067D01*
X158545895Y-83299305D01*
X159260181Y-81775495D02*
X159260181Y-82346924D01*
X159260181Y-82061210D02*
X158260181Y-82061210D01*
X158403038Y-82156448D01*
X158498276Y-82251686D01*
X158545895Y-82346924D01*
X170834943Y-98419781D02*
X170501609Y-97943590D01*
X170263514Y-98419781D02*
X170263514Y-97419781D01*
X170644467Y-97419781D01*
X170739705Y-97467400D01*
X170787324Y-97515019D01*
X170834943Y-97610257D01*
X170834943Y-97753114D01*
X170787324Y-97848352D01*
X170739705Y-97895971D01*
X170644467Y-97943590D01*
X170263514Y-97943590D01*
X171787324Y-98419781D02*
X171215895Y-98419781D01*
X171501609Y-98419781D02*
X171501609Y-97419781D01*
X171406371Y-97562638D01*
X171311133Y-97657876D01*
X171215895Y-97705495D01*
X172644467Y-97753114D02*
X172644467Y-98419781D01*
X172406371Y-97372162D02*
X172168276Y-98086448D01*
X172787324Y-98086448D01*
X126634943Y-98969781D02*
X126301609Y-98493590D01*
X126063514Y-98969781D02*
X126063514Y-97969781D01*
X126444467Y-97969781D01*
X126539705Y-98017400D01*
X126587324Y-98065019D01*
X126634943Y-98160257D01*
X126634943Y-98303114D01*
X126587324Y-98398352D01*
X126539705Y-98445971D01*
X126444467Y-98493590D01*
X126063514Y-98493590D01*
X127587324Y-98969781D02*
X127015895Y-98969781D01*
X127301609Y-98969781D02*
X127301609Y-97969781D01*
X127206371Y-98112638D01*
X127111133Y-98207876D01*
X127015895Y-98255495D01*
X128492086Y-97969781D02*
X128015895Y-97969781D01*
X127968276Y-98445971D01*
X128015895Y-98398352D01*
X128111133Y-98350733D01*
X128349229Y-98350733D01*
X128444467Y-98398352D01*
X128492086Y-98445971D01*
X128539705Y-98541210D01*
X128539705Y-98779305D01*
X128492086Y-98874543D01*
X128444467Y-98922162D01*
X128349229Y-98969781D01*
X128111133Y-98969781D01*
X128015895Y-98922162D01*
X127968276Y-98874543D01*
X136043043Y-97961381D02*
X135709709Y-97485190D01*
X135471614Y-97961381D02*
X135471614Y-96961381D01*
X135852567Y-96961381D01*
X135947805Y-97009000D01*
X135995424Y-97056619D01*
X136043043Y-97151857D01*
X136043043Y-97294714D01*
X135995424Y-97389952D01*
X135947805Y-97437571D01*
X135852567Y-97485190D01*
X135471614Y-97485190D01*
X136995424Y-97961381D02*
X136423995Y-97961381D01*
X136709709Y-97961381D02*
X136709709Y-96961381D01*
X136614471Y-97104238D01*
X136519233Y-97199476D01*
X136423995Y-97247095D01*
X137852567Y-96961381D02*
X137662090Y-96961381D01*
X137566852Y-97009000D01*
X137519233Y-97056619D01*
X137423995Y-97199476D01*
X137376376Y-97389952D01*
X137376376Y-97770905D01*
X137423995Y-97866143D01*
X137471614Y-97913762D01*
X137566852Y-97961381D01*
X137757329Y-97961381D01*
X137852567Y-97913762D01*
X137900186Y-97866143D01*
X137947805Y-97770905D01*
X137947805Y-97532810D01*
X137900186Y-97437571D01*
X137852567Y-97389952D01*
X137757329Y-97342333D01*
X137566852Y-97342333D01*
X137471614Y-97389952D01*
X137423995Y-97437571D01*
X137376376Y-97532810D01*
X141070181Y-95150257D02*
X140593990Y-95483591D01*
X141070181Y-95721686D02*
X140070181Y-95721686D01*
X140070181Y-95340733D01*
X140117800Y-95245495D01*
X140165419Y-95197876D01*
X140260657Y-95150257D01*
X140403514Y-95150257D01*
X140498752Y-95197876D01*
X140546371Y-95245495D01*
X140593990Y-95340733D01*
X140593990Y-95721686D01*
X141070181Y-94197876D02*
X141070181Y-94769305D01*
X141070181Y-94483591D02*
X140070181Y-94483591D01*
X140213038Y-94578829D01*
X140308276Y-94674067D01*
X140355895Y-94769305D01*
X140070181Y-93864543D02*
X140070181Y-93197876D01*
X141070181Y-93626448D01*
X139720181Y-79830257D02*
X139243990Y-80163591D01*
X139720181Y-80401686D02*
X138720181Y-80401686D01*
X138720181Y-80020733D01*
X138767800Y-79925495D01*
X138815419Y-79877876D01*
X138910657Y-79830257D01*
X139053514Y-79830257D01*
X139148752Y-79877876D01*
X139196371Y-79925495D01*
X139243990Y-80020733D01*
X139243990Y-80401686D01*
X139720181Y-78877876D02*
X139720181Y-79449305D01*
X139720181Y-79163591D02*
X138720181Y-79163591D01*
X138863038Y-79258829D01*
X138958276Y-79354067D01*
X139005895Y-79449305D01*
X139148752Y-78306448D02*
X139101133Y-78401686D01*
X139053514Y-78449305D01*
X138958276Y-78496924D01*
X138910657Y-78496924D01*
X138815419Y-78449305D01*
X138767800Y-78401686D01*
X138720181Y-78306448D01*
X138720181Y-78115971D01*
X138767800Y-78020733D01*
X138815419Y-77973114D01*
X138910657Y-77925495D01*
X138958276Y-77925495D01*
X139053514Y-77973114D01*
X139101133Y-78020733D01*
X139148752Y-78115971D01*
X139148752Y-78306448D01*
X139196371Y-78401686D01*
X139243990Y-78449305D01*
X139339229Y-78496924D01*
X139529705Y-78496924D01*
X139624943Y-78449305D01*
X139672562Y-78401686D01*
X139720181Y-78306448D01*
X139720181Y-78115971D01*
X139672562Y-78020733D01*
X139624943Y-77973114D01*
X139529705Y-77925495D01*
X139339229Y-77925495D01*
X139243990Y-77973114D01*
X139196371Y-78020733D01*
X139148752Y-78115971D01*
X137320181Y-83760257D02*
X136843990Y-84093591D01*
X137320181Y-84331686D02*
X136320181Y-84331686D01*
X136320181Y-83950733D01*
X136367800Y-83855495D01*
X136415419Y-83807876D01*
X136510657Y-83760257D01*
X136653514Y-83760257D01*
X136748752Y-83807876D01*
X136796371Y-83855495D01*
X136843990Y-83950733D01*
X136843990Y-84331686D01*
X137320181Y-82807876D02*
X137320181Y-83379305D01*
X137320181Y-83093591D02*
X136320181Y-83093591D01*
X136463038Y-83188829D01*
X136558276Y-83284067D01*
X136605895Y-83379305D01*
X137320181Y-82331686D02*
X137320181Y-82141210D01*
X137272562Y-82045971D01*
X137224943Y-81998352D01*
X137082086Y-81903114D01*
X136891610Y-81855495D01*
X136510657Y-81855495D01*
X136415419Y-81903114D01*
X136367800Y-81950733D01*
X136320181Y-82045971D01*
X136320181Y-82236448D01*
X136367800Y-82331686D01*
X136415419Y-82379305D01*
X136510657Y-82426924D01*
X136748752Y-82426924D01*
X136843990Y-82379305D01*
X136891610Y-82331686D01*
X136939229Y-82236448D01*
X136939229Y-82045971D01*
X136891610Y-81950733D01*
X136843990Y-81903114D01*
X136748752Y-81855495D01*
X180241943Y-97536581D02*
X179908609Y-97060390D01*
X179670514Y-97536581D02*
X179670514Y-96536581D01*
X180051467Y-96536581D01*
X180146705Y-96584200D01*
X180194324Y-96631819D01*
X180241943Y-96727057D01*
X180241943Y-96869914D01*
X180194324Y-96965152D01*
X180146705Y-97012771D01*
X180051467Y-97060390D01*
X179670514Y-97060390D01*
X180622895Y-96631819D02*
X180670514Y-96584200D01*
X180765752Y-96536581D01*
X181003848Y-96536581D01*
X181099086Y-96584200D01*
X181146705Y-96631819D01*
X181194324Y-96727057D01*
X181194324Y-96822295D01*
X181146705Y-96965152D01*
X180575276Y-97536581D01*
X181194324Y-97536581D01*
X181813371Y-96536581D02*
X181908610Y-96536581D01*
X182003848Y-96584200D01*
X182051467Y-96631819D01*
X182099086Y-96727057D01*
X182146705Y-96917533D01*
X182146705Y-97155629D01*
X182099086Y-97346105D01*
X182051467Y-97441343D01*
X182003848Y-97488962D01*
X181908610Y-97536581D01*
X181813371Y-97536581D01*
X181718133Y-97488962D01*
X181670514Y-97441343D01*
X181622895Y-97346105D01*
X181575276Y-97155629D01*
X181575276Y-96917533D01*
X181622895Y-96727057D01*
X181670514Y-96631819D01*
X181718133Y-96584200D01*
X181813371Y-96536581D01*
X185880181Y-94790257D02*
X185403990Y-95123591D01*
X185880181Y-95361686D02*
X184880181Y-95361686D01*
X184880181Y-94980733D01*
X184927800Y-94885495D01*
X184975419Y-94837876D01*
X185070657Y-94790257D01*
X185213514Y-94790257D01*
X185308752Y-94837876D01*
X185356371Y-94885495D01*
X185403990Y-94980733D01*
X185403990Y-95361686D01*
X184975419Y-94409305D02*
X184927800Y-94361686D01*
X184880181Y-94266448D01*
X184880181Y-94028352D01*
X184927800Y-93933114D01*
X184975419Y-93885495D01*
X185070657Y-93837876D01*
X185165895Y-93837876D01*
X185308752Y-93885495D01*
X185880181Y-94456924D01*
X185880181Y-93837876D01*
X185880181Y-92885495D02*
X185880181Y-93456924D01*
X185880181Y-93171210D02*
X184880181Y-93171210D01*
X185023038Y-93266448D01*
X185118276Y-93361686D01*
X185165895Y-93456924D01*
X184280181Y-79500257D02*
X183803990Y-79833591D01*
X184280181Y-80071686D02*
X183280181Y-80071686D01*
X183280181Y-79690733D01*
X183327800Y-79595495D01*
X183375419Y-79547876D01*
X183470657Y-79500257D01*
X183613514Y-79500257D01*
X183708752Y-79547876D01*
X183756371Y-79595495D01*
X183803990Y-79690733D01*
X183803990Y-80071686D01*
X183375419Y-79119305D02*
X183327800Y-79071686D01*
X183280181Y-78976448D01*
X183280181Y-78738352D01*
X183327800Y-78643114D01*
X183375419Y-78595495D01*
X183470657Y-78547876D01*
X183565895Y-78547876D01*
X183708752Y-78595495D01*
X184280181Y-79166924D01*
X184280181Y-78547876D01*
X183375419Y-78166924D02*
X183327800Y-78119305D01*
X183280181Y-78024067D01*
X183280181Y-77785971D01*
X183327800Y-77690733D01*
X183375419Y-77643114D01*
X183470657Y-77595495D01*
X183565895Y-77595495D01*
X183708752Y-77643114D01*
X184280181Y-78214543D01*
X184280181Y-77595495D01*
X182150181Y-83230257D02*
X181673990Y-83563591D01*
X182150181Y-83801686D02*
X181150181Y-83801686D01*
X181150181Y-83420733D01*
X181197800Y-83325495D01*
X181245419Y-83277876D01*
X181340657Y-83230257D01*
X181483514Y-83230257D01*
X181578752Y-83277876D01*
X181626371Y-83325495D01*
X181673990Y-83420733D01*
X181673990Y-83801686D01*
X181245419Y-82849305D02*
X181197800Y-82801686D01*
X181150181Y-82706448D01*
X181150181Y-82468352D01*
X181197800Y-82373114D01*
X181245419Y-82325495D01*
X181340657Y-82277876D01*
X181435895Y-82277876D01*
X181578752Y-82325495D01*
X182150181Y-82896924D01*
X182150181Y-82277876D01*
X181150181Y-81944543D02*
X181150181Y-81325495D01*
X181531133Y-81658829D01*
X181531133Y-81515971D01*
X181578752Y-81420733D01*
X181626371Y-81373114D01*
X181721610Y-81325495D01*
X181959705Y-81325495D01*
X182054943Y-81373114D01*
X182102562Y-81420733D01*
X182150181Y-81515971D01*
X182150181Y-81801686D01*
X182102562Y-81896924D01*
X182054943Y-81944543D01*
X193121043Y-98153481D02*
X192787709Y-97677290D01*
X192549614Y-98153481D02*
X192549614Y-97153481D01*
X192930567Y-97153481D01*
X193025805Y-97201100D01*
X193073424Y-97248719D01*
X193121043Y-97343957D01*
X193121043Y-97486814D01*
X193073424Y-97582052D01*
X193025805Y-97629671D01*
X192930567Y-97677290D01*
X192549614Y-97677290D01*
X193501995Y-97248719D02*
X193549614Y-97201100D01*
X193644852Y-97153481D01*
X193882948Y-97153481D01*
X193978186Y-97201100D01*
X194025805Y-97248719D01*
X194073424Y-97343957D01*
X194073424Y-97439195D01*
X194025805Y-97582052D01*
X193454376Y-98153481D01*
X194073424Y-98153481D01*
X194978186Y-97153481D02*
X194501995Y-97153481D01*
X194454376Y-97629671D01*
X194501995Y-97582052D01*
X194597233Y-97534433D01*
X194835329Y-97534433D01*
X194930567Y-97582052D01*
X194978186Y-97629671D01*
X195025805Y-97724910D01*
X195025805Y-97963005D01*
X194978186Y-98058243D01*
X194930567Y-98105862D01*
X194835329Y-98153481D01*
X194597233Y-98153481D01*
X194501995Y-98105862D01*
X194454376Y-98058243D01*
X202138043Y-98242381D02*
X201804709Y-97766190D01*
X201566614Y-98242381D02*
X201566614Y-97242381D01*
X201947567Y-97242381D01*
X202042805Y-97290000D01*
X202090424Y-97337619D01*
X202138043Y-97432857D01*
X202138043Y-97575714D01*
X202090424Y-97670952D01*
X202042805Y-97718571D01*
X201947567Y-97766190D01*
X201566614Y-97766190D01*
X202518995Y-97337619D02*
X202566614Y-97290000D01*
X202661852Y-97242381D01*
X202899948Y-97242381D01*
X202995186Y-97290000D01*
X203042805Y-97337619D01*
X203090424Y-97432857D01*
X203090424Y-97528095D01*
X203042805Y-97670952D01*
X202471376Y-98242381D01*
X203090424Y-98242381D01*
X203947567Y-97242381D02*
X203757090Y-97242381D01*
X203661852Y-97290000D01*
X203614233Y-97337619D01*
X203518995Y-97480476D01*
X203471376Y-97670952D01*
X203471376Y-98051905D01*
X203518995Y-98147143D01*
X203566614Y-98194762D01*
X203661852Y-98242381D01*
X203852329Y-98242381D01*
X203947567Y-98194762D01*
X203995186Y-98147143D01*
X204042805Y-98051905D01*
X204042805Y-97813810D01*
X203995186Y-97718571D01*
X203947567Y-97670952D01*
X203852329Y-97623333D01*
X203661852Y-97623333D01*
X203566614Y-97670952D01*
X203518995Y-97718571D01*
X203471376Y-97813810D01*
X208008481Y-94229157D02*
X207532290Y-94562491D01*
X208008481Y-94800586D02*
X207008481Y-94800586D01*
X207008481Y-94419633D01*
X207056100Y-94324395D01*
X207103719Y-94276776D01*
X207198957Y-94229157D01*
X207341814Y-94229157D01*
X207437052Y-94276776D01*
X207484671Y-94324395D01*
X207532290Y-94419633D01*
X207532290Y-94800586D01*
X207103719Y-93848205D02*
X207056100Y-93800586D01*
X207008481Y-93705348D01*
X207008481Y-93467252D01*
X207056100Y-93372014D01*
X207103719Y-93324395D01*
X207198957Y-93276776D01*
X207294195Y-93276776D01*
X207437052Y-93324395D01*
X208008481Y-93895824D01*
X208008481Y-93276776D01*
X207008481Y-92943443D02*
X207008481Y-92276776D01*
X208008481Y-92705348D01*
X206103481Y-79014557D02*
X205627290Y-79347891D01*
X206103481Y-79585986D02*
X205103481Y-79585986D01*
X205103481Y-79205033D01*
X205151100Y-79109795D01*
X205198719Y-79062176D01*
X205293957Y-79014557D01*
X205436814Y-79014557D01*
X205532052Y-79062176D01*
X205579671Y-79109795D01*
X205627290Y-79205033D01*
X205627290Y-79585986D01*
X205198719Y-78633605D02*
X205151100Y-78585986D01*
X205103481Y-78490748D01*
X205103481Y-78252652D01*
X205151100Y-78157414D01*
X205198719Y-78109795D01*
X205293957Y-78062176D01*
X205389195Y-78062176D01*
X205532052Y-78109795D01*
X206103481Y-78681224D01*
X206103481Y-78062176D01*
X205532052Y-77490748D02*
X205484433Y-77585986D01*
X205436814Y-77633605D01*
X205341576Y-77681224D01*
X205293957Y-77681224D01*
X205198719Y-77633605D01*
X205151100Y-77585986D01*
X205103481Y-77490748D01*
X205103481Y-77300271D01*
X205151100Y-77205033D01*
X205198719Y-77157414D01*
X205293957Y-77109795D01*
X205341576Y-77109795D01*
X205436814Y-77157414D01*
X205484433Y-77205033D01*
X205532052Y-77300271D01*
X205532052Y-77490748D01*
X205579671Y-77585986D01*
X205627290Y-77633605D01*
X205722529Y-77681224D01*
X205913005Y-77681224D01*
X206008243Y-77633605D01*
X206055862Y-77585986D01*
X206103481Y-77490748D01*
X206103481Y-77300271D01*
X206055862Y-77205033D01*
X206008243Y-77157414D01*
X205913005Y-77109795D01*
X205722529Y-77109795D01*
X205627290Y-77157414D01*
X205579671Y-77205033D01*
X205532052Y-77300271D01*
X202166481Y-79078057D02*
X201690290Y-79411391D01*
X202166481Y-79649486D02*
X201166481Y-79649486D01*
X201166481Y-79268533D01*
X201214100Y-79173295D01*
X201261719Y-79125676D01*
X201356957Y-79078057D01*
X201499814Y-79078057D01*
X201595052Y-79125676D01*
X201642671Y-79173295D01*
X201690290Y-79268533D01*
X201690290Y-79649486D01*
X201261719Y-78697105D02*
X201214100Y-78649486D01*
X201166481Y-78554248D01*
X201166481Y-78316152D01*
X201214100Y-78220914D01*
X201261719Y-78173295D01*
X201356957Y-78125676D01*
X201452195Y-78125676D01*
X201595052Y-78173295D01*
X202166481Y-78744724D01*
X202166481Y-78125676D01*
X202166481Y-77649486D02*
X202166481Y-77459010D01*
X202118862Y-77363771D01*
X202071243Y-77316152D01*
X201928386Y-77220914D01*
X201737910Y-77173295D01*
X201356957Y-77173295D01*
X201261719Y-77220914D01*
X201214100Y-77268533D01*
X201166481Y-77363771D01*
X201166481Y-77554248D01*
X201214100Y-77649486D01*
X201261719Y-77697105D01*
X201356957Y-77744724D01*
X201595052Y-77744724D01*
X201690290Y-77697105D01*
X201737910Y-77649486D01*
X201785529Y-77554248D01*
X201785529Y-77363771D01*
X201737910Y-77268533D01*
X201690290Y-77220914D01*
X201595052Y-77173295D01*
X124996781Y-118295657D02*
X124520590Y-118628991D01*
X124996781Y-118867086D02*
X123996781Y-118867086D01*
X123996781Y-118486133D01*
X124044400Y-118390895D01*
X124092019Y-118343276D01*
X124187257Y-118295657D01*
X124330114Y-118295657D01*
X124425352Y-118343276D01*
X124472971Y-118390895D01*
X124520590Y-118486133D01*
X124520590Y-118867086D01*
X123996781Y-117962324D02*
X123996781Y-117343276D01*
X124377733Y-117676610D01*
X124377733Y-117533752D01*
X124425352Y-117438514D01*
X124472971Y-117390895D01*
X124568210Y-117343276D01*
X124806305Y-117343276D01*
X124901543Y-117390895D01*
X124949162Y-117438514D01*
X124996781Y-117533752D01*
X124996781Y-117819467D01*
X124949162Y-117914705D01*
X124901543Y-117962324D01*
X123996781Y-116724229D02*
X123996781Y-116628990D01*
X124044400Y-116533752D01*
X124092019Y-116486133D01*
X124187257Y-116438514D01*
X124377733Y-116390895D01*
X124615829Y-116390895D01*
X124806305Y-116438514D01*
X124901543Y-116486133D01*
X124949162Y-116533752D01*
X124996781Y-116628990D01*
X124996781Y-116724229D01*
X124949162Y-116819467D01*
X124901543Y-116867086D01*
X124806305Y-116914705D01*
X124615829Y-116962324D01*
X124377733Y-116962324D01*
X124187257Y-116914705D01*
X124092019Y-116867086D01*
X124044400Y-116819467D01*
X123996781Y-116724229D01*
X129867881Y-74464457D02*
X129391690Y-74797791D01*
X129867881Y-75035886D02*
X128867881Y-75035886D01*
X128867881Y-74654933D01*
X128915500Y-74559695D01*
X128963119Y-74512076D01*
X129058357Y-74464457D01*
X129201214Y-74464457D01*
X129296452Y-74512076D01*
X129344071Y-74559695D01*
X129391690Y-74654933D01*
X129391690Y-75035886D01*
X128867881Y-74131124D02*
X128867881Y-73512076D01*
X129248833Y-73845410D01*
X129248833Y-73702552D01*
X129296452Y-73607314D01*
X129344071Y-73559695D01*
X129439310Y-73512076D01*
X129677405Y-73512076D01*
X129772643Y-73559695D01*
X129820262Y-73607314D01*
X129867881Y-73702552D01*
X129867881Y-73988267D01*
X129820262Y-74083505D01*
X129772643Y-74131124D01*
X128963119Y-73131124D02*
X128915500Y-73083505D01*
X128867881Y-72988267D01*
X128867881Y-72750171D01*
X128915500Y-72654933D01*
X128963119Y-72607314D01*
X129058357Y-72559695D01*
X129153595Y-72559695D01*
X129296452Y-72607314D01*
X129867881Y-73178743D01*
X129867881Y-72559695D01*
X132667881Y-74464457D02*
X132191690Y-74797791D01*
X132667881Y-75035886D02*
X131667881Y-75035886D01*
X131667881Y-74654933D01*
X131715500Y-74559695D01*
X131763119Y-74512076D01*
X131858357Y-74464457D01*
X132001214Y-74464457D01*
X132096452Y-74512076D01*
X132144071Y-74559695D01*
X132191690Y-74654933D01*
X132191690Y-75035886D01*
X131667881Y-74131124D02*
X131667881Y-73512076D01*
X132048833Y-73845410D01*
X132048833Y-73702552D01*
X132096452Y-73607314D01*
X132144071Y-73559695D01*
X132239310Y-73512076D01*
X132477405Y-73512076D01*
X132572643Y-73559695D01*
X132620262Y-73607314D01*
X132667881Y-73702552D01*
X132667881Y-73988267D01*
X132620262Y-74083505D01*
X132572643Y-74131124D01*
X131667881Y-73178743D02*
X131667881Y-72559695D01*
X132048833Y-72893029D01*
X132048833Y-72750171D01*
X132096452Y-72654933D01*
X132144071Y-72607314D01*
X132239310Y-72559695D01*
X132477405Y-72559695D01*
X132572643Y-72607314D01*
X132620262Y-72654933D01*
X132667881Y-72750171D01*
X132667881Y-73035886D01*
X132620262Y-73131124D01*
X132572643Y-73178743D01*
X120286543Y-107733781D02*
X119953209Y-107257590D01*
X119715114Y-107733781D02*
X119715114Y-106733781D01*
X120096067Y-106733781D01*
X120191305Y-106781400D01*
X120238924Y-106829019D01*
X120286543Y-106924257D01*
X120286543Y-107067114D01*
X120238924Y-107162352D01*
X120191305Y-107209971D01*
X120096067Y-107257590D01*
X119715114Y-107257590D01*
X120619876Y-106733781D02*
X121238924Y-106733781D01*
X120905590Y-107114733D01*
X121048448Y-107114733D01*
X121143686Y-107162352D01*
X121191305Y-107209971D01*
X121238924Y-107305210D01*
X121238924Y-107543305D01*
X121191305Y-107638543D01*
X121143686Y-107686162D01*
X121048448Y-107733781D01*
X120762733Y-107733781D01*
X120667495Y-107686162D01*
X120619876Y-107638543D01*
X122096067Y-107067114D02*
X122096067Y-107733781D01*
X121857971Y-106686162D02*
X121619876Y-107400448D01*
X122238924Y-107400448D01*
X116298743Y-107721081D02*
X115965409Y-107244890D01*
X115727314Y-107721081D02*
X115727314Y-106721081D01*
X116108267Y-106721081D01*
X116203505Y-106768700D01*
X116251124Y-106816319D01*
X116298743Y-106911557D01*
X116298743Y-107054414D01*
X116251124Y-107149652D01*
X116203505Y-107197271D01*
X116108267Y-107244890D01*
X115727314Y-107244890D01*
X116632076Y-106721081D02*
X117251124Y-106721081D01*
X116917790Y-107102033D01*
X117060648Y-107102033D01*
X117155886Y-107149652D01*
X117203505Y-107197271D01*
X117251124Y-107292510D01*
X117251124Y-107530605D01*
X117203505Y-107625843D01*
X117155886Y-107673462D01*
X117060648Y-107721081D01*
X116774933Y-107721081D01*
X116679695Y-107673462D01*
X116632076Y-107625843D01*
X118155886Y-106721081D02*
X117679695Y-106721081D01*
X117632076Y-107197271D01*
X117679695Y-107149652D01*
X117774933Y-107102033D01*
X118013029Y-107102033D01*
X118108267Y-107149652D01*
X118155886Y-107197271D01*
X118203505Y-107292510D01*
X118203505Y-107530605D01*
X118155886Y-107625843D01*
X118108267Y-107673462D01*
X118013029Y-107721081D01*
X117774933Y-107721081D01*
X117679695Y-107673462D01*
X117632076Y-107625843D01*
X120350043Y-111619981D02*
X120016709Y-111143790D01*
X119778614Y-111619981D02*
X119778614Y-110619981D01*
X120159567Y-110619981D01*
X120254805Y-110667600D01*
X120302424Y-110715219D01*
X120350043Y-110810457D01*
X120350043Y-110953314D01*
X120302424Y-111048552D01*
X120254805Y-111096171D01*
X120159567Y-111143790D01*
X119778614Y-111143790D01*
X120683376Y-110619981D02*
X121302424Y-110619981D01*
X120969090Y-111000933D01*
X121111948Y-111000933D01*
X121207186Y-111048552D01*
X121254805Y-111096171D01*
X121302424Y-111191410D01*
X121302424Y-111429505D01*
X121254805Y-111524743D01*
X121207186Y-111572362D01*
X121111948Y-111619981D01*
X120826233Y-111619981D01*
X120730995Y-111572362D01*
X120683376Y-111524743D01*
X122159567Y-110619981D02*
X121969090Y-110619981D01*
X121873852Y-110667600D01*
X121826233Y-110715219D01*
X121730995Y-110858076D01*
X121683376Y-111048552D01*
X121683376Y-111429505D01*
X121730995Y-111524743D01*
X121778614Y-111572362D01*
X121873852Y-111619981D01*
X122064329Y-111619981D01*
X122159567Y-111572362D01*
X122207186Y-111524743D01*
X122254805Y-111429505D01*
X122254805Y-111191410D01*
X122207186Y-111096171D01*
X122159567Y-111048552D01*
X122064329Y-111000933D01*
X121873852Y-111000933D01*
X121778614Y-111048552D01*
X121730995Y-111096171D01*
X121683376Y-111191410D01*
X116336843Y-111632681D02*
X116003509Y-111156490D01*
X115765414Y-111632681D02*
X115765414Y-110632681D01*
X116146367Y-110632681D01*
X116241605Y-110680300D01*
X116289224Y-110727919D01*
X116336843Y-110823157D01*
X116336843Y-110966014D01*
X116289224Y-111061252D01*
X116241605Y-111108871D01*
X116146367Y-111156490D01*
X115765414Y-111156490D01*
X116670176Y-110632681D02*
X117289224Y-110632681D01*
X116955890Y-111013633D01*
X117098748Y-111013633D01*
X117193986Y-111061252D01*
X117241605Y-111108871D01*
X117289224Y-111204110D01*
X117289224Y-111442205D01*
X117241605Y-111537443D01*
X117193986Y-111585062D01*
X117098748Y-111632681D01*
X116813033Y-111632681D01*
X116717795Y-111585062D01*
X116670176Y-111537443D01*
X117622557Y-110632681D02*
X118289224Y-110632681D01*
X117860652Y-111632681D01*
X120388143Y-115620481D02*
X120054809Y-115144290D01*
X119816714Y-115620481D02*
X119816714Y-114620481D01*
X120197667Y-114620481D01*
X120292905Y-114668100D01*
X120340524Y-114715719D01*
X120388143Y-114810957D01*
X120388143Y-114953814D01*
X120340524Y-115049052D01*
X120292905Y-115096671D01*
X120197667Y-115144290D01*
X119816714Y-115144290D01*
X120721476Y-114620481D02*
X121340524Y-114620481D01*
X121007190Y-115001433D01*
X121150048Y-115001433D01*
X121245286Y-115049052D01*
X121292905Y-115096671D01*
X121340524Y-115191910D01*
X121340524Y-115430005D01*
X121292905Y-115525243D01*
X121245286Y-115572862D01*
X121150048Y-115620481D01*
X120864333Y-115620481D01*
X120769095Y-115572862D01*
X120721476Y-115525243D01*
X121911952Y-115049052D02*
X121816714Y-115001433D01*
X121769095Y-114953814D01*
X121721476Y-114858576D01*
X121721476Y-114810957D01*
X121769095Y-114715719D01*
X121816714Y-114668100D01*
X121911952Y-114620481D01*
X122102429Y-114620481D01*
X122197667Y-114668100D01*
X122245286Y-114715719D01*
X122292905Y-114810957D01*
X122292905Y-114858576D01*
X122245286Y-114953814D01*
X122197667Y-115001433D01*
X122102429Y-115049052D01*
X121911952Y-115049052D01*
X121816714Y-115096671D01*
X121769095Y-115144290D01*
X121721476Y-115239529D01*
X121721476Y-115430005D01*
X121769095Y-115525243D01*
X121816714Y-115572862D01*
X121911952Y-115620481D01*
X122102429Y-115620481D01*
X122197667Y-115572862D01*
X122245286Y-115525243D01*
X122292905Y-115430005D01*
X122292905Y-115239529D01*
X122245286Y-115144290D01*
X122197667Y-115096671D01*
X122102429Y-115049052D01*
X116374943Y-115633181D02*
X116041609Y-115156990D01*
X115803514Y-115633181D02*
X115803514Y-114633181D01*
X116184467Y-114633181D01*
X116279705Y-114680800D01*
X116327324Y-114728419D01*
X116374943Y-114823657D01*
X116374943Y-114966514D01*
X116327324Y-115061752D01*
X116279705Y-115109371D01*
X116184467Y-115156990D01*
X115803514Y-115156990D01*
X116708276Y-114633181D02*
X117327324Y-114633181D01*
X116993990Y-115014133D01*
X117136848Y-115014133D01*
X117232086Y-115061752D01*
X117279705Y-115109371D01*
X117327324Y-115204610D01*
X117327324Y-115442705D01*
X117279705Y-115537943D01*
X117232086Y-115585562D01*
X117136848Y-115633181D01*
X116851133Y-115633181D01*
X116755895Y-115585562D01*
X116708276Y-115537943D01*
X117803514Y-115633181D02*
X117993990Y-115633181D01*
X118089229Y-115585562D01*
X118136848Y-115537943D01*
X118232086Y-115395086D01*
X118279705Y-115204610D01*
X118279705Y-114823657D01*
X118232086Y-114728419D01*
X118184467Y-114680800D01*
X118089229Y-114633181D01*
X117898752Y-114633181D01*
X117803514Y-114680800D01*
X117755895Y-114728419D01*
X117708276Y-114823657D01*
X117708276Y-115061752D01*
X117755895Y-115156990D01*
X117803514Y-115204610D01*
X117898752Y-115252229D01*
X118089229Y-115252229D01*
X118184467Y-115204610D01*
X118232086Y-115156990D01*
X118279705Y-115061752D01*
X120413543Y-119659081D02*
X120080209Y-119182890D01*
X119842114Y-119659081D02*
X119842114Y-118659081D01*
X120223067Y-118659081D01*
X120318305Y-118706700D01*
X120365924Y-118754319D01*
X120413543Y-118849557D01*
X120413543Y-118992414D01*
X120365924Y-119087652D01*
X120318305Y-119135271D01*
X120223067Y-119182890D01*
X119842114Y-119182890D01*
X121270686Y-118992414D02*
X121270686Y-119659081D01*
X121032590Y-118611462D02*
X120794495Y-119325748D01*
X121413543Y-119325748D01*
X121984971Y-118659081D02*
X122080210Y-118659081D01*
X122175448Y-118706700D01*
X122223067Y-118754319D01*
X122270686Y-118849557D01*
X122318305Y-119040033D01*
X122318305Y-119278129D01*
X122270686Y-119468605D01*
X122223067Y-119563843D01*
X122175448Y-119611462D01*
X122080210Y-119659081D01*
X121984971Y-119659081D01*
X121889733Y-119611462D01*
X121842114Y-119563843D01*
X121794495Y-119468605D01*
X121746876Y-119278129D01*
X121746876Y-119040033D01*
X121794495Y-118849557D01*
X121842114Y-118754319D01*
X121889733Y-118706700D01*
X121984971Y-118659081D01*
X116413043Y-119646381D02*
X116079709Y-119170190D01*
X115841614Y-119646381D02*
X115841614Y-118646381D01*
X116222567Y-118646381D01*
X116317805Y-118694000D01*
X116365424Y-118741619D01*
X116413043Y-118836857D01*
X116413043Y-118979714D01*
X116365424Y-119074952D01*
X116317805Y-119122571D01*
X116222567Y-119170190D01*
X115841614Y-119170190D01*
X117270186Y-118979714D02*
X117270186Y-119646381D01*
X117032090Y-118598762D02*
X116793995Y-119313048D01*
X117413043Y-119313048D01*
X118317805Y-119646381D02*
X117746376Y-119646381D01*
X118032090Y-119646381D02*
X118032090Y-118646381D01*
X117936852Y-118789238D01*
X117841614Y-118884476D01*
X117746376Y-118932095D01*
X189013781Y-87726757D02*
X188537590Y-88060091D01*
X189013781Y-88298186D02*
X188013781Y-88298186D01*
X188013781Y-87917233D01*
X188061400Y-87821995D01*
X188109019Y-87774376D01*
X188204257Y-87726757D01*
X188347114Y-87726757D01*
X188442352Y-87774376D01*
X188489971Y-87821995D01*
X188537590Y-87917233D01*
X188537590Y-88298186D01*
X188347114Y-86869614D02*
X189013781Y-86869614D01*
X187966162Y-87107710D02*
X188680448Y-87345805D01*
X188680448Y-86726757D01*
X188109019Y-86393424D02*
X188061400Y-86345805D01*
X188013781Y-86250567D01*
X188013781Y-86012471D01*
X188061400Y-85917233D01*
X188109019Y-85869614D01*
X188204257Y-85821995D01*
X188299495Y-85821995D01*
X188442352Y-85869614D01*
X189013781Y-86441043D01*
X189013781Y-85821995D01*
X186991786Y-83729581D02*
X187563215Y-83729581D01*
X187277500Y-84729581D02*
X187277500Y-83729581D01*
X187896548Y-84729581D02*
X187896548Y-83729581D01*
X187896548Y-84205771D02*
X188467977Y-84205771D01*
X188467977Y-84729581D02*
X188467977Y-83729581D01*
X189467977Y-84729581D02*
X188896548Y-84729581D01*
X189182262Y-84729581D02*
X189182262Y-83729581D01*
X189087024Y-83872438D01*
X188991786Y-83967676D01*
X188896548Y-84015295D01*
X159860181Y-91739305D02*
X160669705Y-91739305D01*
X160764943Y-91691686D01*
X160812562Y-91644067D01*
X160860181Y-91548829D01*
X160860181Y-91358352D01*
X160812562Y-91263114D01*
X160764943Y-91215495D01*
X160669705Y-91167876D01*
X159860181Y-91167876D01*
X160860181Y-90167876D02*
X160860181Y-90739305D01*
X160860181Y-90453591D02*
X159860181Y-90453591D01*
X160003038Y-90548829D01*
X160098276Y-90644067D01*
X160145895Y-90739305D01*
X182640181Y-91589305D02*
X183449705Y-91589305D01*
X183544943Y-91541686D01*
X183592562Y-91494067D01*
X183640181Y-91398829D01*
X183640181Y-91208352D01*
X183592562Y-91113114D01*
X183544943Y-91065495D01*
X183449705Y-91017876D01*
X182640181Y-91017876D01*
X182735419Y-90589305D02*
X182687800Y-90541686D01*
X182640181Y-90446448D01*
X182640181Y-90208352D01*
X182687800Y-90113114D01*
X182735419Y-90065495D01*
X182830657Y-90017876D01*
X182925895Y-90017876D01*
X183068752Y-90065495D01*
X183640181Y-90636924D01*
X183640181Y-90017876D01*
X204608181Y-91490705D02*
X205417705Y-91490705D01*
X205512943Y-91443086D01*
X205560562Y-91395467D01*
X205608181Y-91300229D01*
X205608181Y-91109752D01*
X205560562Y-91014514D01*
X205512943Y-90966895D01*
X205417705Y-90919276D01*
X204608181Y-90919276D01*
X204608181Y-90538324D02*
X204608181Y-89919276D01*
X204989133Y-90252610D01*
X204989133Y-90109752D01*
X205036752Y-90014514D01*
X205084371Y-89966895D01*
X205179610Y-89919276D01*
X205417705Y-89919276D01*
X205512943Y-89966895D01*
X205560562Y-90014514D01*
X205608181Y-90109752D01*
X205608181Y-90395467D01*
X205560562Y-90490705D01*
X205512943Y-90538324D01*
X137810181Y-91909305D02*
X138619705Y-91909305D01*
X138714943Y-91861686D01*
X138762562Y-91814067D01*
X138810181Y-91718829D01*
X138810181Y-91528352D01*
X138762562Y-91433114D01*
X138714943Y-91385495D01*
X138619705Y-91337876D01*
X137810181Y-91337876D01*
X138143514Y-90433114D02*
X138810181Y-90433114D01*
X137762562Y-90671210D02*
X138476848Y-90909305D01*
X138476848Y-90290257D01*
X108889895Y-92497781D02*
X108889895Y-93307305D01*
X108937514Y-93402543D01*
X108985133Y-93450162D01*
X109080371Y-93497781D01*
X109270848Y-93497781D01*
X109366086Y-93450162D01*
X109413705Y-93402543D01*
X109461324Y-93307305D01*
X109461324Y-92497781D01*
X110413705Y-92497781D02*
X109937514Y-92497781D01*
X109889895Y-92973971D01*
X109937514Y-92926352D01*
X110032752Y-92878733D01*
X110270848Y-92878733D01*
X110366086Y-92926352D01*
X110413705Y-92973971D01*
X110461324Y-93069210D01*
X110461324Y-93307305D01*
X110413705Y-93402543D01*
X110366086Y-93450162D01*
X110270848Y-93497781D01*
X110032752Y-93497781D01*
X109937514Y-93450162D01*
X109889895Y-93402543D01*
X122159781Y-125869605D02*
X122969305Y-125869605D01*
X123064543Y-125821986D01*
X123112162Y-125774367D01*
X123159781Y-125679129D01*
X123159781Y-125488652D01*
X123112162Y-125393414D01*
X123064543Y-125345795D01*
X122969305Y-125298176D01*
X122159781Y-125298176D01*
X122159781Y-124393414D02*
X122159781Y-124583891D01*
X122207400Y-124679129D01*
X122255019Y-124726748D01*
X122397876Y-124821986D01*
X122588352Y-124869605D01*
X122969305Y-124869605D01*
X123064543Y-124821986D01*
X123112162Y-124774367D01*
X123159781Y-124679129D01*
X123159781Y-124488652D01*
X123112162Y-124393414D01*
X123064543Y-124345795D01*
X122969305Y-124298176D01*
X122731210Y-124298176D01*
X122635971Y-124345795D01*
X122588352Y-124393414D01*
X122540733Y-124488652D01*
X122540733Y-124679129D01*
X122588352Y-124774367D01*
X122635971Y-124821986D01*
X122731210Y-124869605D01*
X126287881Y-102864933D02*
X127002167Y-102864933D01*
X127145024Y-102912553D01*
X127240262Y-103007791D01*
X127287881Y-103150648D01*
X127287881Y-103245886D01*
X127287881Y-102388743D02*
X126287881Y-102388743D01*
X126287881Y-102007790D01*
X126335500Y-101912552D01*
X126383119Y-101864933D01*
X126478357Y-101817314D01*
X126621214Y-101817314D01*
X126716452Y-101864933D01*
X126764071Y-101912552D01*
X126811690Y-102007790D01*
X126811690Y-102388743D01*
X127287881Y-100864933D02*
X127287881Y-101436362D01*
X127287881Y-101150648D02*
X126287881Y-101150648D01*
X126430738Y-101245886D01*
X126525976Y-101341124D01*
X126573595Y-101436362D01*
X129107881Y-102904933D02*
X129822167Y-102904933D01*
X129965024Y-102952553D01*
X130060262Y-103047791D01*
X130107881Y-103190648D01*
X130107881Y-103285886D01*
X130107881Y-102428743D02*
X129107881Y-102428743D01*
X129107881Y-102047790D01*
X129155500Y-101952552D01*
X129203119Y-101904933D01*
X129298357Y-101857314D01*
X129441214Y-101857314D01*
X129536452Y-101904933D01*
X129584071Y-101952552D01*
X129631690Y-102047790D01*
X129631690Y-102428743D01*
X129203119Y-101476362D02*
X129155500Y-101428743D01*
X129107881Y-101333505D01*
X129107881Y-101095409D01*
X129155500Y-101000171D01*
X129203119Y-100952552D01*
X129298357Y-100904933D01*
X129393595Y-100904933D01*
X129536452Y-100952552D01*
X130107881Y-101523981D01*
X130107881Y-100904933D01*
X131887881Y-102904933D02*
X132602167Y-102904933D01*
X132745024Y-102952553D01*
X132840262Y-103047791D01*
X132887881Y-103190648D01*
X132887881Y-103285886D01*
X132887881Y-102428743D02*
X131887881Y-102428743D01*
X131887881Y-102047790D01*
X131935500Y-101952552D01*
X131983119Y-101904933D01*
X132078357Y-101857314D01*
X132221214Y-101857314D01*
X132316452Y-101904933D01*
X132364071Y-101952552D01*
X132411690Y-102047790D01*
X132411690Y-102428743D01*
X131887881Y-101523981D02*
X131887881Y-100904933D01*
X132268833Y-101238267D01*
X132268833Y-101095409D01*
X132316452Y-101000171D01*
X132364071Y-100952552D01*
X132459310Y-100904933D01*
X132697405Y-100904933D01*
X132792643Y-100952552D01*
X132840262Y-101000171D01*
X132887881Y-101095409D01*
X132887881Y-101381124D01*
X132840262Y-101476362D01*
X132792643Y-101523981D01*
X134557881Y-102824933D02*
X135272167Y-102824933D01*
X135415024Y-102872553D01*
X135510262Y-102967791D01*
X135557881Y-103110648D01*
X135557881Y-103205886D01*
X135557881Y-102348743D02*
X134557881Y-102348743D01*
X134557881Y-101967790D01*
X134605500Y-101872552D01*
X134653119Y-101824933D01*
X134748357Y-101777314D01*
X134891214Y-101777314D01*
X134986452Y-101824933D01*
X135034071Y-101872552D01*
X135081690Y-101967790D01*
X135081690Y-102348743D01*
X134891214Y-100920171D02*
X135557881Y-100920171D01*
X134510262Y-101158267D02*
X135224548Y-101396362D01*
X135224548Y-100777314D01*
X140047881Y-102814933D02*
X140762167Y-102814933D01*
X140905024Y-102862553D01*
X141000262Y-102957791D01*
X141047881Y-103100648D01*
X141047881Y-103195886D01*
X141047881Y-102338743D02*
X140047881Y-102338743D01*
X140047881Y-101957790D01*
X140095500Y-101862552D01*
X140143119Y-101814933D01*
X140238357Y-101767314D01*
X140381214Y-101767314D01*
X140476452Y-101814933D01*
X140524071Y-101862552D01*
X140571690Y-101957790D01*
X140571690Y-102338743D01*
X140047881Y-100862552D02*
X140047881Y-101338743D01*
X140524071Y-101386362D01*
X140476452Y-101338743D01*
X140428833Y-101243505D01*
X140428833Y-101005409D01*
X140476452Y-100910171D01*
X140524071Y-100862552D01*
X140619310Y-100814933D01*
X140857405Y-100814933D01*
X140952643Y-100862552D01*
X141000262Y-100910171D01*
X141047881Y-101005409D01*
X141047881Y-101243505D01*
X141000262Y-101338743D01*
X140952643Y-101386362D01*
X148157881Y-102904933D02*
X148872167Y-102904933D01*
X149015024Y-102952553D01*
X149110262Y-103047791D01*
X149157881Y-103190648D01*
X149157881Y-103285886D01*
X149157881Y-102428743D02*
X148157881Y-102428743D01*
X148157881Y-102047790D01*
X148205500Y-101952552D01*
X148253119Y-101904933D01*
X148348357Y-101857314D01*
X148491214Y-101857314D01*
X148586452Y-101904933D01*
X148634071Y-101952552D01*
X148681690Y-102047790D01*
X148681690Y-102428743D01*
X148157881Y-101000171D02*
X148157881Y-101190648D01*
X148205500Y-101285886D01*
X148253119Y-101333505D01*
X148395976Y-101428743D01*
X148586452Y-101476362D01*
X148967405Y-101476362D01*
X149062643Y-101428743D01*
X149110262Y-101381124D01*
X149157881Y-101285886D01*
X149157881Y-101095409D01*
X149110262Y-101000171D01*
X149062643Y-100952552D01*
X148967405Y-100904933D01*
X148729310Y-100904933D01*
X148634071Y-100952552D01*
X148586452Y-101000171D01*
X148538833Y-101095409D01*
X148538833Y-101285886D01*
X148586452Y-101381124D01*
X148634071Y-101428743D01*
X148729310Y-101476362D01*
X150937881Y-102944933D02*
X151652167Y-102944933D01*
X151795024Y-102992553D01*
X151890262Y-103087791D01*
X151937881Y-103230648D01*
X151937881Y-103325886D01*
X151937881Y-102468743D02*
X150937881Y-102468743D01*
X150937881Y-102087790D01*
X150985500Y-101992552D01*
X151033119Y-101944933D01*
X151128357Y-101897314D01*
X151271214Y-101897314D01*
X151366452Y-101944933D01*
X151414071Y-101992552D01*
X151461690Y-102087790D01*
X151461690Y-102468743D01*
X150937881Y-101563981D02*
X150937881Y-100897314D01*
X151937881Y-101325886D01*
X153567881Y-102864933D02*
X154282167Y-102864933D01*
X154425024Y-102912553D01*
X154520262Y-103007791D01*
X154567881Y-103150648D01*
X154567881Y-103245886D01*
X154567881Y-102388743D02*
X153567881Y-102388743D01*
X153567881Y-102007790D01*
X153615500Y-101912552D01*
X153663119Y-101864933D01*
X153758357Y-101817314D01*
X153901214Y-101817314D01*
X153996452Y-101864933D01*
X154044071Y-101912552D01*
X154091690Y-102007790D01*
X154091690Y-102388743D01*
X153996452Y-101245886D02*
X153948833Y-101341124D01*
X153901214Y-101388743D01*
X153805976Y-101436362D01*
X153758357Y-101436362D01*
X153663119Y-101388743D01*
X153615500Y-101341124D01*
X153567881Y-101245886D01*
X153567881Y-101055409D01*
X153615500Y-100960171D01*
X153663119Y-100912552D01*
X153758357Y-100864933D01*
X153805976Y-100864933D01*
X153901214Y-100912552D01*
X153948833Y-100960171D01*
X153996452Y-101055409D01*
X153996452Y-101245886D01*
X154044071Y-101341124D01*
X154091690Y-101388743D01*
X154186929Y-101436362D01*
X154377405Y-101436362D01*
X154472643Y-101388743D01*
X154520262Y-101341124D01*
X154567881Y-101245886D01*
X154567881Y-101055409D01*
X154520262Y-100960171D01*
X154472643Y-100912552D01*
X154377405Y-100864933D01*
X154186929Y-100864933D01*
X154091690Y-100912552D01*
X154044071Y-100960171D01*
X153996452Y-101055409D01*
X156537881Y-102824933D02*
X157252167Y-102824933D01*
X157395024Y-102872553D01*
X157490262Y-102967791D01*
X157537881Y-103110648D01*
X157537881Y-103205886D01*
X157537881Y-102348743D02*
X156537881Y-102348743D01*
X156537881Y-101967790D01*
X156585500Y-101872552D01*
X156633119Y-101824933D01*
X156728357Y-101777314D01*
X156871214Y-101777314D01*
X156966452Y-101824933D01*
X157014071Y-101872552D01*
X157061690Y-101967790D01*
X157061690Y-102348743D01*
X157537881Y-101301124D02*
X157537881Y-101110648D01*
X157490262Y-101015409D01*
X157442643Y-100967790D01*
X157299786Y-100872552D01*
X157109310Y-100824933D01*
X156728357Y-100824933D01*
X156633119Y-100872552D01*
X156585500Y-100920171D01*
X156537881Y-101015409D01*
X156537881Y-101205886D01*
X156585500Y-101301124D01*
X156633119Y-101348743D01*
X156728357Y-101396362D01*
X156966452Y-101396362D01*
X157061690Y-101348743D01*
X157109310Y-101301124D01*
X157156929Y-101205886D01*
X157156929Y-101015409D01*
X157109310Y-100920171D01*
X157061690Y-100872552D01*
X156966452Y-100824933D01*
X161867881Y-102771123D02*
X162582167Y-102771123D01*
X162725024Y-102818743D01*
X162820262Y-102913981D01*
X162867881Y-103056838D01*
X162867881Y-103152076D01*
X162867881Y-102294933D02*
X161867881Y-102294933D01*
X161867881Y-101913980D01*
X161915500Y-101818742D01*
X161963119Y-101771123D01*
X162058357Y-101723504D01*
X162201214Y-101723504D01*
X162296452Y-101771123D01*
X162344071Y-101818742D01*
X162391690Y-101913980D01*
X162391690Y-102294933D01*
X162867881Y-100771123D02*
X162867881Y-101342552D01*
X162867881Y-101056838D02*
X161867881Y-101056838D01*
X162010738Y-101152076D01*
X162105976Y-101247314D01*
X162153595Y-101342552D01*
X161867881Y-100152076D02*
X161867881Y-100056837D01*
X161915500Y-99961599D01*
X161963119Y-99913980D01*
X162058357Y-99866361D01*
X162248833Y-99818742D01*
X162486929Y-99818742D01*
X162677405Y-99866361D01*
X162772643Y-99913980D01*
X162820262Y-99961599D01*
X162867881Y-100056837D01*
X162867881Y-100152076D01*
X162820262Y-100247314D01*
X162772643Y-100294933D01*
X162677405Y-100342552D01*
X162486929Y-100390171D01*
X162248833Y-100390171D01*
X162058357Y-100342552D01*
X161963119Y-100294933D01*
X161915500Y-100247314D01*
X161867881Y-100152076D01*
X170277881Y-102731123D02*
X170992167Y-102731123D01*
X171135024Y-102778743D01*
X171230262Y-102873981D01*
X171277881Y-103016838D01*
X171277881Y-103112076D01*
X171277881Y-102254933D02*
X170277881Y-102254933D01*
X170277881Y-101873980D01*
X170325500Y-101778742D01*
X170373119Y-101731123D01*
X170468357Y-101683504D01*
X170611214Y-101683504D01*
X170706452Y-101731123D01*
X170754071Y-101778742D01*
X170801690Y-101873980D01*
X170801690Y-102254933D01*
X171277881Y-100731123D02*
X171277881Y-101302552D01*
X171277881Y-101016838D02*
X170277881Y-101016838D01*
X170420738Y-101112076D01*
X170515976Y-101207314D01*
X170563595Y-101302552D01*
X171277881Y-99778742D02*
X171277881Y-100350171D01*
X171277881Y-100064457D02*
X170277881Y-100064457D01*
X170420738Y-100159695D01*
X170515976Y-100254933D01*
X170563595Y-100350171D01*
X173127881Y-102841123D02*
X173842167Y-102841123D01*
X173985024Y-102888743D01*
X174080262Y-102983981D01*
X174127881Y-103126838D01*
X174127881Y-103222076D01*
X174127881Y-102364933D02*
X173127881Y-102364933D01*
X173127881Y-101983980D01*
X173175500Y-101888742D01*
X173223119Y-101841123D01*
X173318357Y-101793504D01*
X173461214Y-101793504D01*
X173556452Y-101841123D01*
X173604071Y-101888742D01*
X173651690Y-101983980D01*
X173651690Y-102364933D01*
X174127881Y-100841123D02*
X174127881Y-101412552D01*
X174127881Y-101126838D02*
X173127881Y-101126838D01*
X173270738Y-101222076D01*
X173365976Y-101317314D01*
X173413595Y-101412552D01*
X173223119Y-100460171D02*
X173175500Y-100412552D01*
X173127881Y-100317314D01*
X173127881Y-100079218D01*
X173175500Y-99983980D01*
X173223119Y-99936361D01*
X173318357Y-99888742D01*
X173413595Y-99888742D01*
X173556452Y-99936361D01*
X174127881Y-100507790D01*
X174127881Y-99888742D01*
X175917881Y-102791123D02*
X176632167Y-102791123D01*
X176775024Y-102838743D01*
X176870262Y-102933981D01*
X176917881Y-103076838D01*
X176917881Y-103172076D01*
X176917881Y-102314933D02*
X175917881Y-102314933D01*
X175917881Y-101933980D01*
X175965500Y-101838742D01*
X176013119Y-101791123D01*
X176108357Y-101743504D01*
X176251214Y-101743504D01*
X176346452Y-101791123D01*
X176394071Y-101838742D01*
X176441690Y-101933980D01*
X176441690Y-102314933D01*
X176917881Y-100791123D02*
X176917881Y-101362552D01*
X176917881Y-101076838D02*
X175917881Y-101076838D01*
X176060738Y-101172076D01*
X176155976Y-101267314D01*
X176203595Y-101362552D01*
X175917881Y-100457790D02*
X175917881Y-99838742D01*
X176298833Y-100172076D01*
X176298833Y-100029218D01*
X176346452Y-99933980D01*
X176394071Y-99886361D01*
X176489310Y-99838742D01*
X176727405Y-99838742D01*
X176822643Y-99886361D01*
X176870262Y-99933980D01*
X176917881Y-100029218D01*
X176917881Y-100314933D01*
X176870262Y-100410171D01*
X176822643Y-100457790D01*
X178827881Y-102791123D02*
X179542167Y-102791123D01*
X179685024Y-102838743D01*
X179780262Y-102933981D01*
X179827881Y-103076838D01*
X179827881Y-103172076D01*
X179827881Y-102314933D02*
X178827881Y-102314933D01*
X178827881Y-101933980D01*
X178875500Y-101838742D01*
X178923119Y-101791123D01*
X179018357Y-101743504D01*
X179161214Y-101743504D01*
X179256452Y-101791123D01*
X179304071Y-101838742D01*
X179351690Y-101933980D01*
X179351690Y-102314933D01*
X179827881Y-100791123D02*
X179827881Y-101362552D01*
X179827881Y-101076838D02*
X178827881Y-101076838D01*
X178970738Y-101172076D01*
X179065976Y-101267314D01*
X179113595Y-101362552D01*
X179161214Y-99933980D02*
X179827881Y-99933980D01*
X178780262Y-100172076D02*
X179494548Y-100410171D01*
X179494548Y-99791123D01*
X184307881Y-102731123D02*
X185022167Y-102731123D01*
X185165024Y-102778743D01*
X185260262Y-102873981D01*
X185307881Y-103016838D01*
X185307881Y-103112076D01*
X185307881Y-102254933D02*
X184307881Y-102254933D01*
X184307881Y-101873980D01*
X184355500Y-101778742D01*
X184403119Y-101731123D01*
X184498357Y-101683504D01*
X184641214Y-101683504D01*
X184736452Y-101731123D01*
X184784071Y-101778742D01*
X184831690Y-101873980D01*
X184831690Y-102254933D01*
X185307881Y-100731123D02*
X185307881Y-101302552D01*
X185307881Y-101016838D02*
X184307881Y-101016838D01*
X184450738Y-101112076D01*
X184545976Y-101207314D01*
X184593595Y-101302552D01*
X184307881Y-99826361D02*
X184307881Y-100302552D01*
X184784071Y-100350171D01*
X184736452Y-100302552D01*
X184688833Y-100207314D01*
X184688833Y-99969218D01*
X184736452Y-99873980D01*
X184784071Y-99826361D01*
X184879310Y-99778742D01*
X185117405Y-99778742D01*
X185212643Y-99826361D01*
X185260262Y-99873980D01*
X185307881Y-99969218D01*
X185307881Y-100207314D01*
X185260262Y-100302552D01*
X185212643Y-100350171D01*
X192387881Y-102771123D02*
X193102167Y-102771123D01*
X193245024Y-102818743D01*
X193340262Y-102913981D01*
X193387881Y-103056838D01*
X193387881Y-103152076D01*
X193387881Y-102294933D02*
X192387881Y-102294933D01*
X192387881Y-101913980D01*
X192435500Y-101818742D01*
X192483119Y-101771123D01*
X192578357Y-101723504D01*
X192721214Y-101723504D01*
X192816452Y-101771123D01*
X192864071Y-101818742D01*
X192911690Y-101913980D01*
X192911690Y-102294933D01*
X193387881Y-100771123D02*
X193387881Y-101342552D01*
X193387881Y-101056838D02*
X192387881Y-101056838D01*
X192530738Y-101152076D01*
X192625976Y-101247314D01*
X192673595Y-101342552D01*
X192387881Y-99913980D02*
X192387881Y-100104457D01*
X192435500Y-100199695D01*
X192483119Y-100247314D01*
X192625976Y-100342552D01*
X192816452Y-100390171D01*
X193197405Y-100390171D01*
X193292643Y-100342552D01*
X193340262Y-100294933D01*
X193387881Y-100199695D01*
X193387881Y-100009218D01*
X193340262Y-99913980D01*
X193292643Y-99866361D01*
X193197405Y-99818742D01*
X192959310Y-99818742D01*
X192864071Y-99866361D01*
X192816452Y-99913980D01*
X192768833Y-100009218D01*
X192768833Y-100199695D01*
X192816452Y-100294933D01*
X192864071Y-100342552D01*
X192959310Y-100390171D01*
X195207881Y-102691123D02*
X195922167Y-102691123D01*
X196065024Y-102738743D01*
X196160262Y-102833981D01*
X196207881Y-102976838D01*
X196207881Y-103072076D01*
X196207881Y-102214933D02*
X195207881Y-102214933D01*
X195207881Y-101833980D01*
X195255500Y-101738742D01*
X195303119Y-101691123D01*
X195398357Y-101643504D01*
X195541214Y-101643504D01*
X195636452Y-101691123D01*
X195684071Y-101738742D01*
X195731690Y-101833980D01*
X195731690Y-102214933D01*
X196207881Y-100691123D02*
X196207881Y-101262552D01*
X196207881Y-100976838D02*
X195207881Y-100976838D01*
X195350738Y-101072076D01*
X195445976Y-101167314D01*
X195493595Y-101262552D01*
X195207881Y-100357790D02*
X195207881Y-99691123D01*
X196207881Y-100119695D01*
X198107881Y-102771123D02*
X198822167Y-102771123D01*
X198965024Y-102818743D01*
X199060262Y-102913981D01*
X199107881Y-103056838D01*
X199107881Y-103152076D01*
X199107881Y-102294933D02*
X198107881Y-102294933D01*
X198107881Y-101913980D01*
X198155500Y-101818742D01*
X198203119Y-101771123D01*
X198298357Y-101723504D01*
X198441214Y-101723504D01*
X198536452Y-101771123D01*
X198584071Y-101818742D01*
X198631690Y-101913980D01*
X198631690Y-102294933D01*
X199107881Y-100771123D02*
X199107881Y-101342552D01*
X199107881Y-101056838D02*
X198107881Y-101056838D01*
X198250738Y-101152076D01*
X198345976Y-101247314D01*
X198393595Y-101342552D01*
X198536452Y-100199695D02*
X198488833Y-100294933D01*
X198441214Y-100342552D01*
X198345976Y-100390171D01*
X198298357Y-100390171D01*
X198203119Y-100342552D01*
X198155500Y-100294933D01*
X198107881Y-100199695D01*
X198107881Y-100009218D01*
X198155500Y-99913980D01*
X198203119Y-99866361D01*
X198298357Y-99818742D01*
X198345976Y-99818742D01*
X198441214Y-99866361D01*
X198488833Y-99913980D01*
X198536452Y-100009218D01*
X198536452Y-100199695D01*
X198584071Y-100294933D01*
X198631690Y-100342552D01*
X198726929Y-100390171D01*
X198917405Y-100390171D01*
X199012643Y-100342552D01*
X199060262Y-100294933D01*
X199107881Y-100199695D01*
X199107881Y-100009218D01*
X199060262Y-99913980D01*
X199012643Y-99866361D01*
X198917405Y-99818742D01*
X198726929Y-99818742D01*
X198631690Y-99866361D01*
X198584071Y-99913980D01*
X198536452Y-100009218D01*
X200967881Y-102771123D02*
X201682167Y-102771123D01*
X201825024Y-102818743D01*
X201920262Y-102913981D01*
X201967881Y-103056838D01*
X201967881Y-103152076D01*
X201967881Y-102294933D02*
X200967881Y-102294933D01*
X200967881Y-101913980D01*
X201015500Y-101818742D01*
X201063119Y-101771123D01*
X201158357Y-101723504D01*
X201301214Y-101723504D01*
X201396452Y-101771123D01*
X201444071Y-101818742D01*
X201491690Y-101913980D01*
X201491690Y-102294933D01*
X201967881Y-100771123D02*
X201967881Y-101342552D01*
X201967881Y-101056838D02*
X200967881Y-101056838D01*
X201110738Y-101152076D01*
X201205976Y-101247314D01*
X201253595Y-101342552D01*
X201967881Y-100294933D02*
X201967881Y-100104457D01*
X201920262Y-100009218D01*
X201872643Y-99961599D01*
X201729786Y-99866361D01*
X201539310Y-99818742D01*
X201158357Y-99818742D01*
X201063119Y-99866361D01*
X201015500Y-99913980D01*
X200967881Y-100009218D01*
X200967881Y-100199695D01*
X201015500Y-100294933D01*
X201063119Y-100342552D01*
X201158357Y-100390171D01*
X201396452Y-100390171D01*
X201491690Y-100342552D01*
X201539310Y-100294933D01*
X201586929Y-100199695D01*
X201586929Y-100009218D01*
X201539310Y-99913980D01*
X201491690Y-99866361D01*
X201396452Y-99818742D01*
X206257881Y-102771123D02*
X206972167Y-102771123D01*
X207115024Y-102818743D01*
X207210262Y-102913981D01*
X207257881Y-103056838D01*
X207257881Y-103152076D01*
X207257881Y-102294933D02*
X206257881Y-102294933D01*
X206257881Y-101913980D01*
X206305500Y-101818742D01*
X206353119Y-101771123D01*
X206448357Y-101723504D01*
X206591214Y-101723504D01*
X206686452Y-101771123D01*
X206734071Y-101818742D01*
X206781690Y-101913980D01*
X206781690Y-102294933D01*
X206353119Y-101342552D02*
X206305500Y-101294933D01*
X206257881Y-101199695D01*
X206257881Y-100961599D01*
X206305500Y-100866361D01*
X206353119Y-100818742D01*
X206448357Y-100771123D01*
X206543595Y-100771123D01*
X206686452Y-100818742D01*
X207257881Y-101390171D01*
X207257881Y-100771123D01*
X206257881Y-100152076D02*
X206257881Y-100056837D01*
X206305500Y-99961599D01*
X206353119Y-99913980D01*
X206448357Y-99866361D01*
X206638833Y-99818742D01*
X206876929Y-99818742D01*
X207067405Y-99866361D01*
X207162643Y-99913980D01*
X207210262Y-99961599D01*
X207257881Y-100056837D01*
X207257881Y-100152076D01*
X207210262Y-100247314D01*
X207162643Y-100294933D01*
X207067405Y-100342552D01*
X206876929Y-100390171D01*
X206638833Y-100390171D01*
X206448357Y-100342552D01*
X206353119Y-100294933D01*
X206305500Y-100247314D01*
X206257881Y-100152076D01*
X190767405Y-72763981D02*
X190767405Y-71763981D01*
X191148358Y-71763981D01*
X191243596Y-71811600D01*
X191291215Y-71859219D01*
X191338834Y-71954457D01*
X191338834Y-72097314D01*
X191291215Y-72192552D01*
X191243596Y-72240171D01*
X191148358Y-72287790D01*
X190767405Y-72287790D01*
X191719786Y-71859219D02*
X191767405Y-71811600D01*
X191862643Y-71763981D01*
X192100739Y-71763981D01*
X192195977Y-71811600D01*
X192243596Y-71859219D01*
X192291215Y-71954457D01*
X192291215Y-72049695D01*
X192243596Y-72192552D01*
X191672167Y-72763981D01*
X192291215Y-72763981D01*
X124217205Y-72508381D02*
X124217205Y-71508381D01*
X124598158Y-71508381D01*
X124693396Y-71556000D01*
X124741015Y-71603619D01*
X124788634Y-71698857D01*
X124788634Y-71841714D01*
X124741015Y-71936952D01*
X124693396Y-71984571D01*
X124598158Y-72032190D01*
X124217205Y-72032190D01*
X125121967Y-71508381D02*
X125741015Y-71508381D01*
X125407681Y-71889333D01*
X125550539Y-71889333D01*
X125645777Y-71936952D01*
X125693396Y-71984571D01*
X125741015Y-72079810D01*
X125741015Y-72317905D01*
X125693396Y-72413143D01*
X125645777Y-72460762D01*
X125550539Y-72508381D01*
X125264824Y-72508381D01*
X125169586Y-72460762D01*
X125121967Y-72413143D01*
X158253205Y-72914781D02*
X158253205Y-71914781D01*
X158634158Y-71914781D01*
X158729396Y-71962400D01*
X158777015Y-72010019D01*
X158824634Y-72105257D01*
X158824634Y-72248114D01*
X158777015Y-72343352D01*
X158729396Y-72390971D01*
X158634158Y-72438590D01*
X158253205Y-72438590D01*
X159396062Y-72343352D02*
X159300824Y-72295733D01*
X159253205Y-72248114D01*
X159205586Y-72152876D01*
X159205586Y-72105257D01*
X159253205Y-72010019D01*
X159300824Y-71962400D01*
X159396062Y-71914781D01*
X159586539Y-71914781D01*
X159681777Y-71962400D01*
X159729396Y-72010019D01*
X159777015Y-72105257D01*
X159777015Y-72152876D01*
X159729396Y-72248114D01*
X159681777Y-72295733D01*
X159586539Y-72343352D01*
X159396062Y-72343352D01*
X159300824Y-72390971D01*
X159253205Y-72438590D01*
X159205586Y-72533829D01*
X159205586Y-72724305D01*
X159253205Y-72819543D01*
X159300824Y-72867162D01*
X159396062Y-72914781D01*
X159586539Y-72914781D01*
X159681777Y-72867162D01*
X159729396Y-72819543D01*
X159777015Y-72724305D01*
X159777015Y-72533829D01*
X159729396Y-72438590D01*
X159681777Y-72390971D01*
X159586539Y-72343352D01*
X171270705Y-72914781D02*
X171270705Y-71914781D01*
X171651658Y-71914781D01*
X171746896Y-71962400D01*
X171794515Y-72010019D01*
X171842134Y-72105257D01*
X171842134Y-72248114D01*
X171794515Y-72343352D01*
X171746896Y-72390971D01*
X171651658Y-72438590D01*
X171270705Y-72438590D01*
X172318324Y-72914781D02*
X172508800Y-72914781D01*
X172604039Y-72867162D01*
X172651658Y-72819543D01*
X172746896Y-72676686D01*
X172794515Y-72486210D01*
X172794515Y-72105257D01*
X172746896Y-72010019D01*
X172699277Y-71962400D01*
X172604039Y-71914781D01*
X172413562Y-71914781D01*
X172318324Y-71962400D01*
X172270705Y-72010019D01*
X172223086Y-72105257D01*
X172223086Y-72343352D01*
X172270705Y-72438590D01*
X172318324Y-72486210D01*
X172413562Y-72533829D01*
X172604039Y-72533829D01*
X172699277Y-72486210D01*
X172746896Y-72438590D01*
X172794515Y-72343352D01*
X139336614Y-72863981D02*
X139336614Y-71863981D01*
X139717567Y-71863981D01*
X139812805Y-71911600D01*
X139860424Y-71959219D01*
X139908043Y-72054457D01*
X139908043Y-72197314D01*
X139860424Y-72292552D01*
X139812805Y-72340171D01*
X139717567Y-72387790D01*
X139336614Y-72387790D01*
X140860424Y-72863981D02*
X140288995Y-72863981D01*
X140574709Y-72863981D02*
X140574709Y-71863981D01*
X140479471Y-72006838D01*
X140384233Y-72102076D01*
X140288995Y-72149695D01*
X141479471Y-71863981D02*
X141574710Y-71863981D01*
X141669948Y-71911600D01*
X141717567Y-71959219D01*
X141765186Y-72054457D01*
X141812805Y-72244933D01*
X141812805Y-72483029D01*
X141765186Y-72673505D01*
X141717567Y-72768743D01*
X141669948Y-72816362D01*
X141574710Y-72863981D01*
X141479471Y-72863981D01*
X141384233Y-72816362D01*
X141336614Y-72768743D01*
X141288995Y-72673505D01*
X141241376Y-72483029D01*
X141241376Y-72244933D01*
X141288995Y-72054457D01*
X141336614Y-71959219D01*
X141384233Y-71911600D01*
X141479471Y-71863981D01*
M02*
