G04 #@! TF.FileFunction,Copper,L2,Bot,Signal*
%FSLAX46Y46*%
G04 Gerber Fmt 4.6, Leading zero omitted, Abs format (unit mm)*
G04 Created by KiCad (PCBNEW 4.0.2-stable) date 08/07/2016 18:20:31*
%MOMM*%
G01*
G04 APERTURE LIST*
%ADD10C,0.100000*%
%ADD11R,1.300000X1.300000*%
%ADD12C,1.300000*%
%ADD13O,1.998980X1.998980*%
%ADD14R,1.998980X1.998980*%
%ADD15C,1.800000*%
%ADD16R,1.800000X2.200000*%
%ADD17C,1.506220*%
%ADD18O,1.506220X3.014980*%
%ADD19C,5.000000*%
%ADD20C,0.600000*%
%ADD21C,1.000000*%
%ADD22C,0.250000*%
%ADD23C,0.500000*%
%ADD24C,2.500000*%
%ADD25C,1.500000*%
%ADD26C,0.800000*%
%ADD27C,0.254000*%
G04 APERTURE END LIST*
D10*
D11*
X98640900Y-96443800D03*
D12*
X93640900Y-96443800D03*
D13*
X95046800Y-72301100D03*
D14*
X95046800Y-69761100D03*
D15*
X156211900Y-113777000D03*
X161211900Y-113777000D03*
D16*
X153411900Y-120777000D03*
X164011900Y-120777000D03*
D15*
X158711900Y-113777000D03*
X178449600Y-114285000D03*
X183449600Y-114285000D03*
D16*
X175649600Y-121285000D03*
X186249600Y-121285000D03*
D15*
X180949600Y-114285000D03*
X200458700Y-114158000D03*
X205458700Y-114158000D03*
D16*
X197658700Y-121158000D03*
X208258700Y-121158000D03*
D15*
X202958700Y-114158000D03*
X134367900Y-114005600D03*
X139367900Y-114005600D03*
D16*
X131567900Y-121005600D03*
X142167900Y-121005600D03*
D15*
X136867900Y-114005600D03*
D17*
X126868600Y-104786700D03*
X126868600Y-107286700D03*
X129618600Y-104786700D03*
X129618600Y-107286700D03*
X132398600Y-104786700D03*
X132398600Y-107286700D03*
X135138600Y-104786700D03*
X135138600Y-107286700D03*
X140578600Y-104786700D03*
X140578600Y-107286700D03*
X148675100Y-104781600D03*
X148675100Y-107281600D03*
X151475100Y-104781600D03*
X151475100Y-107281600D03*
X154265100Y-104781600D03*
X154265100Y-107281600D03*
X157065100Y-104731600D03*
X157065100Y-107231600D03*
X162425100Y-104671600D03*
X162425100Y-107171600D03*
X170842400Y-104668600D03*
X170842400Y-107168600D03*
X173662400Y-104668600D03*
X173662400Y-107168600D03*
X176512400Y-104668600D03*
X176512400Y-107168600D03*
X179332400Y-104668600D03*
X179332400Y-107168600D03*
X184772400Y-104658600D03*
X184772400Y-107158600D03*
X192989200Y-104673400D03*
X192989200Y-107173400D03*
X195834000Y-104673400D03*
X195834000Y-107173400D03*
X198678800Y-104673400D03*
X198678800Y-107173400D03*
X201523600Y-104673400D03*
X201523600Y-107173400D03*
X206768700Y-104673400D03*
X206768700Y-107173400D03*
D18*
X185172350Y-67341750D03*
X187712350Y-67341750D03*
X190212350Y-67341750D03*
X202952350Y-67341750D03*
X207992350Y-67341750D03*
X205452350Y-67341750D03*
X200412350Y-67341750D03*
X192792350Y-67341750D03*
X195332350Y-67341750D03*
X197832350Y-67341750D03*
X123685300Y-67056000D03*
X126185300Y-67056000D03*
X155221300Y-67462400D03*
X157721300Y-67462400D03*
X162761300Y-67462400D03*
X160221300Y-67462400D03*
X168238800Y-67462400D03*
X170738800Y-67462400D03*
X175778800Y-67462400D03*
X173238800Y-67462400D03*
X138010900Y-67411600D03*
X143090900Y-67411600D03*
X140550900Y-67411600D03*
D19*
X93345500Y-125121600D03*
D20*
X135445500Y-68046600D03*
X133540500Y-64236600D03*
X129730500Y-64236600D03*
X130365500Y-67411600D03*
X126555500Y-62966600D03*
X120205500Y-62966600D03*
X114490500Y-62966600D03*
X109410500Y-62966600D03*
X103060500Y-62966600D03*
X97980500Y-62966600D03*
X90995500Y-65506600D03*
X93535500Y-63601600D03*
X212280500Y-64236600D03*
X101155500Y-127736600D03*
X97980500Y-127101600D03*
X91630500Y-120751600D03*
X93535500Y-120751600D03*
X137985500Y-104241600D03*
X137985500Y-107416600D03*
X137350500Y-108051600D03*
X159575500Y-104876600D03*
X159575500Y-107416600D03*
X158940500Y-108051600D03*
X142430500Y-117576600D03*
X145605500Y-104241600D03*
X144970500Y-108051600D03*
X146240500Y-114401600D03*
X151955500Y-114401600D03*
X182435500Y-104241600D03*
X181800500Y-107416600D03*
X181165500Y-108051600D03*
X167195500Y-104876600D03*
X167195500Y-108051600D03*
X170370500Y-114401600D03*
X174815500Y-114401600D03*
X195770500Y-114401600D03*
X192595500Y-114401600D03*
X190055500Y-104876600D03*
X190055500Y-108051600D03*
X197040500Y-102971600D03*
X204025500Y-103606600D03*
X204025500Y-108051600D03*
X202755500Y-110591600D03*
X208508600Y-69900800D03*
X208470500Y-73126600D03*
X211010500Y-76301600D03*
X211645500Y-73761600D03*
X211010500Y-69316600D03*
X178625500Y-70586600D03*
X179260500Y-66776600D03*
X181800500Y-68681600D03*
X181165500Y-73126600D03*
X183070500Y-75666600D03*
X152590500Y-66776600D03*
X151320500Y-69951600D03*
X148780500Y-71856600D03*
X144335500Y-71856600D03*
X139255500Y-71856600D03*
X135445500Y-71856600D03*
X96710500Y-66141600D03*
X99885500Y-66141600D03*
X107505500Y-66141600D03*
X116395500Y-66141600D03*
X120205500Y-68046600D03*
X115760500Y-73761600D03*
X112585500Y-75031600D03*
X108775500Y-75031600D03*
X122745500Y-102971600D03*
X118935500Y-102336600D03*
X115125500Y-119481600D03*
X115125500Y-115036600D03*
X115125500Y-111226600D03*
X115125500Y-107416600D03*
X101790500Y-85191600D03*
X102425500Y-82016600D03*
X103695500Y-80746600D03*
X108775500Y-80746600D03*
X113855500Y-81381600D03*
X116395500Y-101701600D03*
X116395500Y-96621600D03*
X116395500Y-90271600D03*
X116395500Y-85826600D03*
X116395500Y-82016600D03*
X101790500Y-92176600D03*
X101790500Y-89636600D03*
X103695500Y-75031600D03*
X100520500Y-75031600D03*
X93535500Y-75031600D03*
X96710500Y-77571600D03*
X93535500Y-80111600D03*
X95440500Y-83921600D03*
X93535500Y-85826600D03*
X92900500Y-89001600D03*
X207274200Y-91970900D03*
X207200500Y-93446600D03*
X189934198Y-92052182D03*
X190055500Y-89001600D03*
X168465500Y-87731600D03*
X167830500Y-90906600D03*
X177667800Y-84377400D03*
X174817800Y-85327400D03*
X185610500Y-93446600D03*
X184975500Y-92176600D03*
X162750500Y-92811600D03*
X145605500Y-88366600D03*
X145605500Y-90906600D03*
X123380500Y-88366600D03*
X124015500Y-90906600D03*
X141160500Y-94716600D03*
X140525500Y-92811600D03*
X124015500Y-124561600D03*
X129095500Y-127101600D03*
X134175500Y-127101600D03*
X139255500Y-127101600D03*
X144335500Y-127101600D03*
X149415500Y-127101600D03*
X154495500Y-127101600D03*
X159575500Y-127101600D03*
X164655500Y-127101600D03*
X169735500Y-127101600D03*
X174815500Y-127101600D03*
X179895500Y-127101600D03*
X184975500Y-127101600D03*
X190055500Y-127101600D03*
X195135500Y-127101600D03*
X200215500Y-127101600D03*
X205295500Y-127101600D03*
X210375500Y-127101600D03*
X212915500Y-124561600D03*
X210375500Y-119481600D03*
X205295500Y-119481600D03*
X200215500Y-122021600D03*
X192595500Y-119481600D03*
X190055500Y-122021600D03*
X184975500Y-119481600D03*
X179895500Y-122021600D03*
X174180500Y-119481600D03*
X169735500Y-122021600D03*
X167195500Y-119481600D03*
X136080500Y-118211600D03*
X139255500Y-123291600D03*
X144335500Y-123291600D03*
X148780500Y-118846600D03*
X155130500Y-118846600D03*
X157670500Y-122021600D03*
X161480500Y-118846600D03*
X95835500Y-116941600D03*
X95736400Y-111941600D03*
X95835500Y-106941600D03*
X95835500Y-101941600D03*
X100835500Y-101941600D03*
X100835500Y-106941600D03*
X100835500Y-111941600D03*
X100835500Y-116941600D03*
X185267600Y-89128600D03*
X141122400Y-95834200D03*
X207835500Y-96126300D03*
X186029600Y-95745300D03*
X163703000Y-95415100D03*
X169329100Y-93865700D03*
X168516300Y-95237300D03*
X152273000Y-85788500D03*
X154673300Y-84950300D03*
X156730700Y-85928200D03*
X146507200Y-94348300D03*
X145694400Y-95770700D03*
X109651800Y-87395400D03*
X106273600Y-88874600D03*
X112331500Y-88671400D03*
X112585500Y-83896200D03*
X105600500Y-83781900D03*
X129057400Y-85864700D03*
X132842000Y-85039200D03*
X134861300Y-86309200D03*
X123469400Y-95351600D03*
X125082300Y-94272100D03*
X180657800Y-92597400D03*
X179844700Y-91986100D03*
X179920900Y-93230700D03*
X181444900Y-93205300D03*
X181444900Y-92024200D03*
X191198500Y-93421200D03*
X189750700Y-94513400D03*
X195656200Y-85039200D03*
X196926200Y-84988400D03*
X199466200Y-84188300D03*
X201155300Y-85013800D03*
X184137300Y-70599300D03*
X133286500Y-70154800D03*
X125806200Y-77114400D03*
X129870200Y-117741700D03*
X147218400Y-65341500D03*
X97726500Y-72872600D03*
X95707200Y-98488500D03*
X95745300Y-94462600D03*
X137297800Y-93837400D03*
X137287800Y-92527400D03*
X135097800Y-92537400D03*
X135137800Y-93857400D03*
X136127800Y-93187400D03*
X135097800Y-93887400D03*
X158117800Y-92987400D03*
X157377800Y-93577400D03*
X159117800Y-93547400D03*
X159117800Y-92507400D03*
X157167800Y-92497400D03*
X157407800Y-93577400D03*
X179447800Y-85667400D03*
X179447800Y-84177400D03*
X202552300Y-92303600D03*
X201930000Y-91706700D03*
X201904600Y-92887800D03*
X203174600Y-92925900D03*
X204063600Y-91694000D03*
X203161900Y-91706700D03*
X204038200Y-92925900D03*
X126276100Y-71653400D03*
X126250700Y-71069200D03*
X126326900Y-70472300D03*
X104736900Y-125082300D03*
X186956700Y-64046100D03*
X153085800Y-64084200D03*
X151104600Y-65722500D03*
X141833600Y-69557900D03*
X123685300Y-69748400D03*
X123698000Y-70370700D03*
X123596400Y-71005700D03*
X136385300Y-106083100D03*
X139407900Y-106019600D03*
X142379700Y-96951800D03*
X161201100Y-105956100D03*
X158305500Y-106032300D03*
X164515800Y-97802700D03*
X183718200Y-105841800D03*
X180403500Y-105918000D03*
X186740800Y-97675700D03*
X205613000Y-105918000D03*
X202615800Y-105943400D03*
X208584800Y-98958400D03*
X202946000Y-69735700D03*
X205422500Y-69786500D03*
X200406000Y-69710300D03*
X195122800Y-63919100D03*
X194614800Y-63919100D03*
X191414400Y-63550800D03*
X190995300Y-63169800D03*
X139014200Y-63461900D03*
X139344400Y-63169800D03*
X192836800Y-69761100D03*
X189509400Y-75844400D03*
X189484000Y-80772000D03*
X194056000Y-63919100D03*
X121996200Y-120269000D03*
X112445800Y-125107700D03*
X195326000Y-69735700D03*
X197891400Y-69697600D03*
D21*
X114223800Y-78219300D03*
X116954400Y-79222700D03*
X116135500Y-78241600D03*
X112674400Y-78206600D03*
X110197900Y-78244700D03*
X107873800Y-78219300D03*
X100660629Y-96448465D03*
X102298500Y-96520000D03*
X98590100Y-69862700D03*
X100406200Y-69862700D03*
X102362000Y-69469000D03*
X104165400Y-96481900D03*
X152260300Y-77749400D03*
X151511000Y-78473300D03*
X152730200Y-77254100D03*
X170726100Y-72047100D03*
X170713400Y-71170800D03*
X170738800Y-70027800D03*
X167220900Y-80086200D03*
X166700200Y-79540100D03*
X166198550Y-79063850D03*
X173240700Y-72161400D03*
X173266100Y-71374000D03*
X173238800Y-70396100D03*
X174599600Y-75018900D03*
X173837600Y-74968100D03*
X175361600Y-74968100D03*
X176898300Y-72440800D03*
X176428400Y-71653400D03*
X176034700Y-71018400D03*
X153339800Y-71501000D03*
X154038300Y-70827900D03*
X152704800Y-72161400D03*
X168236900Y-72186800D03*
X168262300Y-71323200D03*
X168238800Y-70408800D03*
D20*
X190233300Y-69900800D03*
X185788300Y-80797400D03*
X185762900Y-75539600D03*
X122999500Y-107086400D03*
X120967500Y-107086400D03*
X125361700Y-109562900D03*
X168922700Y-109601000D03*
X146964400Y-109588300D03*
X192976500Y-108775500D03*
X171157900Y-110363000D03*
X127177800Y-110375700D03*
X149199600Y-110350300D03*
X195821300Y-108724700D03*
X120992900Y-111112300D03*
X123012200Y-111086900D03*
X173329600Y-111175800D03*
X129044700Y-111137700D03*
X151422100Y-111175800D03*
X123151900Y-115100100D03*
X198678800Y-108737400D03*
X121056400Y-115138200D03*
X175920400Y-111950500D03*
X130771900Y-111963200D03*
X153644600Y-111950500D03*
X123088400Y-119075200D03*
X120967500Y-119126000D03*
X201523600Y-108737400D03*
X143129000Y-97853500D03*
X141224000Y-98907600D03*
X137756900Y-96697800D03*
X143179800Y-113245900D03*
X169659300Y-117081300D03*
X167373300Y-117271800D03*
X165811200Y-114350800D03*
X165430200Y-98780600D03*
X159804100Y-98577400D03*
X159677100Y-96570800D03*
X187845700Y-113042700D03*
X187782200Y-98780600D03*
X182194200Y-96380300D03*
X182194200Y-97967800D03*
X203492100Y-79400400D03*
X203403200Y-76911200D03*
X209562700Y-77698600D03*
X209562700Y-82664300D03*
X204076300Y-98793300D03*
X203771500Y-96761300D03*
D22*
X135445500Y-68046600D02*
X133540500Y-66141600D01*
X133540500Y-66141600D02*
X133540500Y-64236600D01*
X129730500Y-64236600D02*
X130365500Y-64871600D01*
X130365500Y-64871600D02*
X130365500Y-67411600D01*
X126555500Y-62966600D02*
X120205500Y-62966600D01*
X114490500Y-62966600D02*
X109410500Y-62966600D01*
X103060500Y-62966600D02*
X97980500Y-62966600D01*
X91630500Y-65506600D02*
X90995500Y-65506600D01*
X93535500Y-63601600D02*
X91630500Y-65506600D01*
X211010500Y-69316600D02*
X211010500Y-65506600D01*
X211010500Y-65506600D02*
X212280500Y-64236600D01*
X101155500Y-127736600D02*
X100520500Y-127101600D01*
X100520500Y-127101600D02*
X97980500Y-127101600D01*
X93535500Y-120751600D02*
X91630500Y-120751600D01*
X134367900Y-114005600D02*
X134367900Y-111034200D01*
X137985500Y-107416600D02*
X137985500Y-104241600D01*
X134367900Y-111034200D02*
X137350500Y-108051600D01*
X156211900Y-113777000D02*
X156211900Y-110780200D01*
X159575500Y-107416600D02*
X159575500Y-104876600D01*
X156211900Y-110780200D02*
X158940500Y-108051600D01*
X136080500Y-118211600D02*
X141795500Y-118211600D01*
X141795500Y-118211600D02*
X142430500Y-117576600D01*
X155130500Y-113777000D02*
X152580100Y-113777000D01*
X145605500Y-104241600D02*
X144970500Y-104241600D01*
X144970500Y-113131600D02*
X144970500Y-108051600D01*
X146240500Y-114401600D02*
X144970500Y-113131600D01*
X152580100Y-113777000D02*
X151955500Y-114401600D01*
X178449600Y-114285000D02*
X178449600Y-110767500D01*
X181800500Y-107416600D02*
X182435500Y-104241600D01*
X178449600Y-110767500D02*
X181165500Y-108051600D01*
X177355500Y-114285000D02*
X174932100Y-114285000D01*
X167195500Y-104876600D02*
X167830500Y-104241600D01*
X167195500Y-111226600D02*
X167195500Y-108051600D01*
X170370500Y-114401600D02*
X167195500Y-111226600D01*
X174932100Y-114285000D02*
X174815500Y-114401600D01*
X191325500Y-113766600D02*
X191325500Y-109321600D01*
X196014100Y-114158000D02*
X195770500Y-114401600D01*
X192595500Y-114401600D02*
X191960500Y-113766600D01*
X191960500Y-113766600D02*
X191325500Y-113766600D01*
X200458700Y-114158000D02*
X196014100Y-114158000D01*
X191325500Y-109321600D02*
X190055500Y-108051600D01*
X200458700Y-114158000D02*
X200458700Y-112888400D01*
X204025500Y-108051600D02*
X204025500Y-103606600D01*
X200458700Y-112888400D02*
X202755500Y-110591600D01*
X207992350Y-69384550D02*
X208508600Y-69900800D01*
X207992350Y-67341750D02*
X207992350Y-69384550D01*
X208470500Y-73761600D02*
X208470500Y-73126600D01*
X211010500Y-76301600D02*
X208470500Y-73761600D01*
X211645500Y-69951600D02*
X211645500Y-73761600D01*
X211010500Y-69316600D02*
X211645500Y-69951600D01*
X178625500Y-70586600D02*
X179260500Y-71221600D01*
X179895500Y-66776600D02*
X179260500Y-66776600D01*
X181800500Y-68681600D02*
X179895500Y-66776600D01*
X181165500Y-73761600D02*
X181165500Y-73126600D01*
X183070500Y-75666600D02*
X181165500Y-73761600D01*
X150685500Y-69951600D02*
X151320500Y-69951600D01*
X148780500Y-71856600D02*
X150685500Y-69951600D01*
X139255500Y-71856600D02*
X144335500Y-71856600D01*
X133540500Y-70154800D02*
X133743700Y-70154800D01*
X133743700Y-70154800D02*
X135445500Y-71856600D01*
X99885500Y-66141600D02*
X96710500Y-66141600D01*
X116395500Y-66141600D02*
X107505500Y-66141600D01*
X120205500Y-69316600D02*
X120205500Y-68046600D01*
X115760500Y-73761600D02*
X120205500Y-69316600D01*
X108775500Y-75031600D02*
X112585500Y-75031600D01*
X119570500Y-102971600D02*
X122745500Y-102971600D01*
X118935500Y-102336600D02*
X119570500Y-102971600D01*
X115125500Y-115036600D02*
X115125500Y-119481600D01*
X115125500Y-107416600D02*
X115125500Y-111226600D01*
X115125500Y-81381600D02*
X115760500Y-81381600D01*
X101790500Y-85191600D02*
X102425500Y-84556600D01*
X102425500Y-84556600D02*
X102425500Y-82016600D01*
X103695500Y-80746600D02*
X108775500Y-80746600D01*
X113855500Y-81381600D02*
X115125500Y-81381600D01*
X116395500Y-96621600D02*
X116395500Y-101701600D01*
X116395500Y-85826600D02*
X116395500Y-90271600D01*
X115760500Y-81381600D02*
X116395500Y-82016600D01*
X101790500Y-89636600D02*
X101790500Y-92176600D01*
X100520500Y-75031600D02*
X103695500Y-75031600D01*
X94170500Y-75031600D02*
X93535500Y-75031600D01*
X96710500Y-77571600D02*
X94170500Y-75031600D01*
X93535500Y-82016600D02*
X93535500Y-80111600D01*
X95440500Y-83921600D02*
X93535500Y-82016600D01*
X93535500Y-88366600D02*
X93535500Y-85826600D01*
X92900500Y-89001600D02*
X93535500Y-88366600D01*
X207200500Y-92044600D02*
X207200500Y-93446600D01*
X207274200Y-91970900D02*
X207200500Y-92044600D01*
X190055500Y-91930880D02*
X190055500Y-89001600D01*
X190055500Y-91930880D02*
X189934198Y-92052182D01*
X167830500Y-90906600D02*
X168465500Y-90271600D01*
X168465500Y-90271600D02*
X168465500Y-87731600D01*
X177667800Y-84377400D02*
X176717800Y-85327400D01*
X176717800Y-85327400D02*
X174817800Y-85327400D01*
X185610500Y-92811600D02*
X185610500Y-93446600D01*
X184975500Y-92176600D02*
X185610500Y-92811600D01*
X145605500Y-90906600D02*
X145605500Y-88366600D01*
X123380500Y-90271600D02*
X123380500Y-88366600D01*
X124015500Y-90906600D02*
X123380500Y-90271600D01*
X141160500Y-93446600D02*
X141160500Y-94716600D01*
X140525500Y-92811600D02*
X141160500Y-93446600D01*
X167195500Y-119481600D02*
X166560500Y-119481600D01*
X124015500Y-124561600D02*
X126555500Y-127101600D01*
X126555500Y-127101600D02*
X129095500Y-127101600D01*
X134175500Y-127101600D02*
X139255500Y-127101600D01*
X144335500Y-127101600D02*
X149415500Y-127101600D01*
X154495500Y-127101600D02*
X159575500Y-127101600D01*
X164655500Y-127101600D02*
X169735500Y-127101600D01*
X174815500Y-127101600D02*
X179895500Y-127101600D01*
X184975500Y-127101600D02*
X190055500Y-127101600D01*
X195135500Y-127101600D02*
X200215500Y-127101600D01*
X205295500Y-127101600D02*
X210375500Y-127101600D01*
X212915500Y-124561600D02*
X210375500Y-122021600D01*
X210375500Y-122021600D02*
X210375500Y-119481600D01*
X205295500Y-119481600D02*
X202755500Y-122021600D01*
X202755500Y-122021600D02*
X200215500Y-122021600D01*
X192595500Y-119481600D02*
X190055500Y-122021600D01*
X184975500Y-119481600D02*
X182435500Y-122021600D01*
X182435500Y-122021600D02*
X179895500Y-122021600D01*
X174180500Y-119481600D02*
X172275500Y-122021600D01*
X172275500Y-122021600D02*
X169735500Y-122021600D01*
X136080500Y-120116600D02*
X136080500Y-118211600D01*
X139255500Y-123291600D02*
X136080500Y-120116600D01*
X148780500Y-118846600D02*
X144335500Y-123291600D01*
X155130500Y-119481600D02*
X155130500Y-118846600D01*
X157670500Y-122021600D02*
X155130500Y-119481600D01*
X165925500Y-118846600D02*
X161480500Y-118846600D01*
X166560500Y-119481600D02*
X165925500Y-118846600D01*
X95835500Y-112040700D02*
X95835500Y-116941600D01*
X95736400Y-111941600D02*
X95835500Y-112040700D01*
X95835500Y-101941600D02*
X95835500Y-106941600D01*
X100835500Y-106941600D02*
X100835500Y-101941600D01*
X100835500Y-116941600D02*
X100835500Y-111941600D01*
X185267600Y-89128600D02*
X185242200Y-89154000D01*
X141084300Y-95796100D02*
X141084300Y-95542100D01*
X141122400Y-95834200D02*
X141084300Y-95796100D01*
X207873600Y-96088200D02*
X207873600Y-95707200D01*
X207835500Y-96126300D02*
X207873600Y-96088200D01*
X186080400Y-95694500D02*
X186080400Y-95465900D01*
X186029600Y-95745300D02*
X186080400Y-95694500D01*
X163703000Y-95415100D02*
X163703000Y-95300800D01*
X169329100Y-94424500D02*
X169329100Y-93865700D01*
X168516300Y-95237300D02*
X169329100Y-94424500D01*
X152260300Y-85775800D02*
X151701500Y-85775800D01*
X152273000Y-85788500D02*
X152260300Y-85775800D01*
X155752800Y-84950300D02*
X154673300Y-84950300D01*
X156730700Y-85928200D02*
X155752800Y-84950300D01*
X145669000Y-95186500D02*
X146507200Y-94348300D01*
X145669000Y-95745300D02*
X145669000Y-95186500D01*
X145694400Y-95770700D02*
X145669000Y-95745300D01*
X105664000Y-83807300D02*
X105600500Y-83845400D01*
X105600500Y-87871300D02*
X105600500Y-83845400D01*
X106273600Y-88874600D02*
X105600500Y-87871300D01*
X112501332Y-85379490D02*
X112331500Y-88671400D01*
X112585500Y-83896200D02*
X112501332Y-85379490D01*
X105644600Y-83781900D02*
X105600500Y-83781900D01*
X105644600Y-83781900D02*
X109651800Y-87395400D01*
X129044700Y-85877400D02*
X128041400Y-85877400D01*
X129057400Y-85864700D02*
X129044700Y-85877400D01*
X133591300Y-85039200D02*
X132842000Y-85039200D01*
X134861300Y-86309200D02*
X133591300Y-85039200D01*
X123469400Y-95351600D02*
X124142500Y-94678500D01*
X124142500Y-94678500D02*
X124675900Y-94678500D01*
X124675900Y-94678500D02*
X125082300Y-94272100D01*
X181432200Y-92024200D02*
X179920900Y-92062300D01*
X179844700Y-91986100D02*
X179920900Y-92062300D01*
X181406800Y-93243400D02*
X179920900Y-93230700D01*
X181444900Y-93205300D02*
X181406800Y-93243400D01*
X181243700Y-92024200D02*
X181444900Y-92024200D01*
X181243700Y-92024200D02*
X180657800Y-92597400D01*
X190842900Y-93421200D02*
X191198500Y-93421200D01*
X189750700Y-94513400D02*
X190842900Y-93421200D01*
X196875400Y-85039200D02*
X195656200Y-85039200D01*
X196926200Y-84988400D02*
X196875400Y-85039200D01*
X200329800Y-84188300D02*
X199466200Y-84188300D01*
X201155300Y-85013800D02*
X200329800Y-84188300D01*
X200458700Y-114158000D02*
X200365600Y-114297700D01*
X200365600Y-114297700D02*
X200355200Y-114287300D01*
X178449600Y-114285000D02*
X177355500Y-114285000D01*
X177355500Y-114285000D02*
X177200800Y-114285000D01*
X177200800Y-114285000D02*
X177190400Y-114274600D01*
X156211900Y-113777000D02*
X155130500Y-113777000D01*
X155130500Y-113777000D02*
X154929600Y-113777000D01*
X154929600Y-113777000D02*
X154914600Y-113792000D01*
X134367900Y-114005600D02*
X133055600Y-114005600D01*
X133055600Y-114005600D02*
X133007100Y-113957100D01*
X184150000Y-70586600D02*
X184150000Y-69049900D01*
X184137300Y-70599300D02*
X184150000Y-70586600D01*
X185172350Y-67341750D02*
X185172350Y-68027550D01*
X185172350Y-68027550D02*
X184150000Y-69049900D01*
X184150000Y-69049900D02*
X184086500Y-69113400D01*
X133286500Y-70154800D02*
X133540500Y-70154800D01*
X133540500Y-70154800D02*
X133705600Y-70154800D01*
X125806200Y-77114400D02*
X125818900Y-77101700D01*
X129870200Y-117741700D02*
X129844800Y-117767100D01*
X95046800Y-72301100D02*
X97155000Y-72301100D01*
X97155000Y-72301100D02*
X97726500Y-72872600D01*
X95736400Y-98459300D02*
X93640900Y-96443800D01*
X95707200Y-98488500D02*
X95736400Y-98459300D01*
X95736400Y-94471500D02*
X93640900Y-96443800D01*
X95745300Y-94462600D02*
X95736400Y-94471500D01*
X137297800Y-92537400D02*
X137297800Y-93837400D01*
X137287800Y-92527400D02*
X137297800Y-92537400D01*
X135097800Y-93817400D02*
X135097800Y-92537400D01*
X135137800Y-93857400D02*
X135097800Y-93817400D01*
X136127800Y-93187400D02*
X135427800Y-93887400D01*
X135427800Y-93887400D02*
X135097800Y-93887400D01*
X157527800Y-93577400D02*
X157377800Y-93577400D01*
X158117800Y-92987400D02*
X157527800Y-93577400D01*
X159117800Y-92507400D02*
X159117800Y-93547400D01*
X157167800Y-92497400D02*
X157407800Y-92737400D01*
X157407800Y-92737400D02*
X157407800Y-93577400D01*
X179447800Y-84177400D02*
X179447800Y-85667400D01*
X201955400Y-91706700D02*
X201930000Y-91706700D01*
X201955400Y-91706700D02*
X202552300Y-92303600D01*
X201904600Y-92887800D02*
X201917300Y-92900500D01*
X201917300Y-92900500D02*
X203174600Y-92925900D01*
X204063600Y-91694000D02*
X203161900Y-91706700D01*
X204038200Y-92925900D02*
X204089000Y-92735400D01*
X204089000Y-92735400D02*
X204190600Y-92735400D01*
X200458700Y-114158000D02*
X200458700Y-114069500D01*
D23*
X126326900Y-70472300D02*
X126326900Y-70993000D01*
X126288800Y-71666100D02*
X126288800Y-71869300D01*
X126276100Y-71653400D02*
X126288800Y-71666100D01*
X126326900Y-70993000D02*
X126250700Y-71069200D01*
X126185300Y-70330700D02*
X126185300Y-67056000D01*
X126326900Y-70472300D02*
X126185300Y-70330700D01*
D22*
X104736900Y-125082300D02*
X104711500Y-125107700D01*
D23*
X104711500Y-125107700D02*
X99758500Y-125107700D01*
X99758500Y-125107700D02*
X91503500Y-116852700D01*
X91503500Y-116852700D02*
X91503500Y-68097400D01*
X91503500Y-68097400D02*
X95542100Y-64058800D01*
X95542100Y-64058800D02*
X123990100Y-64058800D01*
X123990100Y-64058800D02*
X124828300Y-64058800D01*
X124828300Y-64058800D02*
X126185300Y-65415800D01*
X126185300Y-65415800D02*
X126185300Y-67056000D01*
D22*
X187712350Y-64649350D02*
X187712350Y-67341750D01*
X186956700Y-64046100D02*
X187712350Y-64649350D01*
X152819100Y-64084200D02*
X153085800Y-64084200D01*
X151104600Y-65722500D02*
X152819100Y-64084200D01*
X140550900Y-67411600D02*
X140550900Y-68275200D01*
X140550900Y-68275200D02*
X141833600Y-69557900D01*
D23*
X123685300Y-70358000D02*
X123685300Y-69748400D01*
X123698000Y-70370700D02*
X123685300Y-70358000D01*
X123685300Y-70916800D02*
X123685300Y-67056000D01*
X123596400Y-71005700D02*
X123685300Y-70916800D01*
D22*
X136867900Y-114005600D02*
X136867900Y-110997400D01*
X136867900Y-110997400D02*
X140578600Y-107286700D01*
X126868600Y-104786700D02*
X129618600Y-104786700D01*
X129618600Y-104786700D02*
X132398600Y-104786700D01*
X132398600Y-104786700D02*
X135138600Y-104786700D01*
X135138600Y-104786700D02*
X136385300Y-106033400D01*
X136385300Y-106033400D02*
X136385300Y-106083100D01*
X139407900Y-106019600D02*
X140578600Y-107190300D01*
X140578600Y-107190300D02*
X140578600Y-107286700D01*
X140578600Y-107286700D02*
X139995000Y-107286700D01*
X140578600Y-104786700D02*
X141045200Y-104786700D01*
X141045200Y-104786700D02*
X142252700Y-105994200D01*
X142252700Y-111120800D02*
X139367900Y-114005600D01*
X142252700Y-105994200D02*
X142252700Y-111120800D01*
X142290800Y-103074500D02*
X140578600Y-104786700D01*
X142328900Y-97002600D02*
X142290800Y-103074500D01*
X142379700Y-96951800D02*
X142328900Y-97002600D01*
X162425100Y-107171600D02*
X161763600Y-107171600D01*
X161763600Y-107171600D02*
X158711900Y-110223300D01*
X158711900Y-110223300D02*
X158711900Y-113777000D01*
X157065100Y-104731600D02*
X157065100Y-104791900D01*
X157065100Y-104791900D02*
X158305500Y-106032300D01*
X161201100Y-105956100D02*
X162416600Y-107171600D01*
X162416600Y-107171600D02*
X162425100Y-107171600D01*
X157065100Y-104731600D02*
X154315100Y-104731600D01*
X154315100Y-104731600D02*
X154265100Y-104781600D01*
X148675100Y-104781600D02*
X151475100Y-104781600D01*
X151475100Y-104781600D02*
X154265100Y-104781600D01*
X162425100Y-107171600D02*
X162258900Y-107171600D01*
X162425100Y-104671600D02*
X163002700Y-104671600D01*
X163002700Y-104671600D02*
X164363400Y-106032300D01*
X164363400Y-110625500D02*
X161211900Y-113777000D01*
X164363400Y-106032300D02*
X164363400Y-110625500D01*
X162425100Y-104671600D02*
X162425100Y-104729000D01*
X164579300Y-102517400D02*
X162425100Y-104671600D01*
X164579300Y-97866200D02*
X164579300Y-102517400D01*
X164515800Y-97802700D02*
X164579300Y-97866200D01*
X161201900Y-114277000D02*
X161781900Y-114277000D01*
X184772400Y-107158600D02*
X183785700Y-107158600D01*
X180949600Y-109994700D02*
X180949600Y-114285000D01*
X183785700Y-107158600D02*
X180949600Y-109994700D01*
X179332400Y-104668600D02*
X179332400Y-104846900D01*
X179332400Y-104846900D02*
X180403500Y-105918000D01*
X183718200Y-105841800D02*
X184772400Y-106896000D01*
X184772400Y-106896000D02*
X184772400Y-107158600D01*
X176512400Y-104668600D02*
X179332400Y-104668600D01*
X173662400Y-104668600D02*
X176512400Y-104668600D01*
X170842400Y-104668600D02*
X173662400Y-104668600D01*
X184772400Y-104658600D02*
X184897200Y-104658600D01*
X184897200Y-104658600D02*
X186651900Y-106413300D01*
X186651900Y-111082700D02*
X183449600Y-114285000D01*
X186651900Y-106413300D02*
X186651900Y-111082700D01*
X184772400Y-104658600D02*
X184772400Y-104571700D01*
X184772400Y-104571700D02*
X186740800Y-102603300D01*
X186740800Y-102603300D02*
X186740800Y-97675700D01*
X183449600Y-114285000D02*
X183889600Y-114285000D01*
X201523600Y-104673400D02*
X201523600Y-104851200D01*
X201523600Y-104851200D02*
X202615800Y-105943400D01*
X205613000Y-105918000D02*
X206768700Y-107073700D01*
X206768700Y-107073700D02*
X206768700Y-107173400D01*
X206768700Y-107173400D02*
X206768700Y-109156500D01*
X202958700Y-112966500D02*
X202958700Y-114158000D01*
X206768700Y-109156500D02*
X202958700Y-112966500D01*
X195834000Y-104673400D02*
X192989200Y-104673400D01*
X198678800Y-104673400D02*
X195834000Y-104673400D01*
X201523600Y-104673400D02*
X198678800Y-104673400D01*
X206796000Y-107200700D02*
X206768700Y-107173400D01*
X206768700Y-104673400D02*
X207352900Y-104673400D01*
X207352900Y-104673400D02*
X208597500Y-105918000D01*
X208597500Y-111019200D02*
X205458700Y-114158000D01*
X208597500Y-105918000D02*
X208597500Y-111019200D01*
X208540350Y-103562150D02*
X208540350Y-99002850D01*
X208540350Y-99002850D02*
X208584800Y-98958400D01*
X208546700Y-103555800D02*
X208540350Y-103562150D01*
X208540350Y-103562150D02*
X207429100Y-104673400D01*
X207429100Y-104673400D02*
X206768700Y-104673400D01*
X205458700Y-114158000D02*
X205729600Y-114158000D01*
X202952350Y-69729350D02*
X202952350Y-67341750D01*
X202946000Y-69735700D02*
X202952350Y-69729350D01*
X205452350Y-67341750D02*
X205452350Y-69756650D01*
X205452350Y-69756650D02*
X205422500Y-69786500D01*
X200412350Y-67341750D02*
X200399650Y-69703950D01*
X200399650Y-69703950D02*
X200406000Y-69710300D01*
D23*
X194056000Y-63919100D02*
X194614800Y-63919100D01*
X195135500Y-63906400D02*
X195491100Y-63906400D01*
X195122800Y-63919100D02*
X195135500Y-63906400D01*
X191770000Y-63919100D02*
X191770000Y-63906400D01*
X191770000Y-63906400D02*
X191414400Y-63550800D01*
X190982600Y-63182500D02*
X190601600Y-63182500D01*
X190995300Y-63169800D02*
X190982600Y-63182500D01*
X192011300Y-64160400D02*
X192011300Y-64185800D01*
X191770000Y-63919100D02*
X192011300Y-64160400D01*
X138684000Y-63830200D02*
X138684000Y-63792100D01*
X138684000Y-63792100D02*
X139014200Y-63461900D01*
X139395200Y-63220600D02*
X139827000Y-63220600D01*
X139344400Y-63169800D02*
X139395200Y-63220600D01*
D22*
X192792350Y-65182750D02*
X192792350Y-64966850D01*
D23*
X192792350Y-64966850D02*
X192011300Y-64185800D01*
X138010900Y-64503300D02*
X138010900Y-67411600D01*
X138684000Y-63830200D02*
X138010900Y-64503300D01*
D22*
X192792350Y-69716650D02*
X192792350Y-67341750D01*
X192836800Y-69761100D02*
X192792350Y-69716650D01*
X189509400Y-80746600D02*
X189509400Y-75844400D01*
X189484000Y-80772000D02*
X189509400Y-80746600D01*
D23*
X194056000Y-63919100D02*
X192792350Y-65182750D01*
X192792350Y-65182750D02*
X192792350Y-67341750D01*
D22*
X192792350Y-66274950D02*
X192792350Y-67341750D01*
D23*
X119392700Y-122872500D02*
X121996200Y-120269000D01*
X114681000Y-122872500D02*
X119392700Y-122872500D01*
X112445800Y-125107700D02*
X114681000Y-122872500D01*
D22*
X195332350Y-67341750D02*
X195332350Y-69729350D01*
X195332350Y-69729350D02*
X195326000Y-69735700D01*
X197832350Y-69638550D02*
X197832350Y-67341750D01*
X197891400Y-69697600D02*
X197832350Y-69638550D01*
D24*
X116954400Y-79222700D02*
X116935500Y-79241600D01*
X114246100Y-78241600D02*
X116135500Y-78241600D01*
X114223800Y-78219300D02*
X114246100Y-78241600D01*
X110236000Y-78206600D02*
X112674400Y-78206600D01*
X110197900Y-78244700D02*
X110236000Y-78206600D01*
X98640900Y-80632300D02*
X98640900Y-81991200D01*
X101053900Y-78219300D02*
X98640900Y-80632300D01*
X107873800Y-78219300D02*
X101053900Y-78219300D01*
X98640900Y-81991200D02*
X98640900Y-96443800D01*
X102226965Y-96448465D02*
X100660629Y-96448465D01*
X102298500Y-96520000D02*
X102226965Y-96448465D01*
X100406200Y-69862700D02*
X98590100Y-69862700D01*
D25*
X101968300Y-69862700D02*
X95046800Y-69761100D01*
D24*
X102362000Y-69469000D02*
X101968300Y-69862700D01*
X104140000Y-96456500D02*
X98640900Y-96443800D01*
X104165400Y-96481900D02*
X104140000Y-96456500D01*
D26*
X152260300Y-77749400D02*
X152730200Y-77279500D01*
X152730200Y-77279500D02*
X152730200Y-77254100D01*
X157721300Y-72263000D02*
X157721300Y-67462400D01*
X151511000Y-78473300D02*
X157721300Y-72263000D01*
X170726100Y-72047100D02*
X170738800Y-72034400D01*
X170738800Y-72034400D02*
X170738800Y-67462400D01*
X170713400Y-71170800D02*
X170738800Y-71145400D01*
X170738800Y-71145400D02*
X170738800Y-70027800D01*
X166700200Y-79540100D02*
X166223950Y-79063850D01*
X166223950Y-79063850D02*
X166198550Y-79063850D01*
X160221300Y-73086600D02*
X160221300Y-67462400D01*
X167220900Y-80086200D02*
X160221300Y-73086600D01*
X173240700Y-72161400D02*
X173238800Y-72159500D01*
X173238800Y-72159500D02*
X173238800Y-67462400D01*
X173266100Y-71374000D02*
X173238800Y-71346700D01*
X173238800Y-71346700D02*
X173238800Y-70396100D01*
X174651257Y-74967243D02*
X174675849Y-74967243D01*
X174599600Y-75018900D02*
X174651257Y-74967243D01*
X173830228Y-74960728D02*
X173456548Y-74960728D01*
X173837600Y-74968100D02*
X173830228Y-74960728D01*
X173456548Y-74960728D02*
X172745630Y-74965777D01*
X162761300Y-72515100D02*
X162761300Y-67462400D01*
X175361600Y-74968100D02*
X174675849Y-74967243D01*
X174675849Y-74967243D02*
X165201600Y-74955400D01*
X165201600Y-74955400D02*
X162761300Y-72515100D01*
X162761300Y-67096000D02*
X162761300Y-67462400D01*
X176898300Y-72440800D02*
X175778800Y-70572000D01*
X175778800Y-70572000D02*
X175778800Y-67462400D01*
X176428400Y-71653400D02*
X176085500Y-71018400D01*
X176085500Y-71018400D02*
X176034700Y-71018400D01*
X175778800Y-68552700D02*
X175778800Y-67462400D01*
X153339800Y-71501000D02*
X154012900Y-70827900D01*
X154012900Y-70827900D02*
X154038300Y-70827900D01*
X155221300Y-69644900D02*
X155221300Y-67462400D01*
X152704800Y-72161400D02*
X155221300Y-69644900D01*
X168236900Y-72186800D02*
X168238800Y-72184900D01*
X168238800Y-72184900D02*
X168238800Y-67462400D01*
X168262300Y-71323200D02*
X168238800Y-71299700D01*
X168238800Y-71299700D02*
X168238800Y-70408800D01*
D22*
X190233300Y-69900800D02*
X190212350Y-69879850D01*
X190212350Y-69879850D02*
X190212350Y-67341750D01*
X185788300Y-80797400D02*
X185762900Y-80772000D01*
X185762900Y-80772000D02*
X185762900Y-75539600D01*
X120967500Y-107086400D02*
X122999500Y-107086400D01*
X126868600Y-107286700D02*
X126868600Y-108056000D01*
X126868600Y-108056000D02*
X125361700Y-109562900D01*
X168922700Y-109601000D02*
X170842400Y-107681300D01*
X170842400Y-107681300D02*
X170842400Y-107168600D01*
X146964400Y-109588300D02*
X148675100Y-107877600D01*
X148675100Y-107877600D02*
X148675100Y-107281600D01*
X192989200Y-107173400D02*
X192989200Y-108762800D01*
X192989200Y-108762800D02*
X192976500Y-108775500D01*
X171157900Y-110363000D02*
X173662400Y-107858500D01*
X173662400Y-107858500D02*
X173662400Y-107168600D01*
X127177800Y-110375700D02*
X129618600Y-107934900D01*
X129618600Y-107934900D02*
X129618600Y-107286700D01*
X151475100Y-108074800D02*
X151475100Y-107281600D01*
X149199600Y-110350300D02*
X151475100Y-108074800D01*
X195834000Y-107173400D02*
X195834000Y-108712000D01*
X195834000Y-108712000D02*
X195821300Y-108724700D01*
X120992900Y-111112300D02*
X121018300Y-111086900D01*
X121018300Y-111086900D02*
X123012200Y-111086900D01*
X176512400Y-107993000D02*
X176512400Y-107168600D01*
X173329600Y-111175800D02*
X176512400Y-107993000D01*
X129044700Y-111137700D02*
X132398600Y-107783800D01*
X132398600Y-107783800D02*
X132398600Y-107286700D01*
X154265100Y-108332800D02*
X154265100Y-107281600D01*
X151422100Y-111175800D02*
X154265100Y-108332800D01*
X198678800Y-108737400D02*
X198678800Y-107173400D01*
X121094500Y-115100100D02*
X123151900Y-115100100D01*
X121056400Y-115138200D02*
X121094500Y-115100100D01*
X179332400Y-108538500D02*
X179332400Y-107168600D01*
X175920400Y-111950500D02*
X179332400Y-108538500D01*
X130771900Y-111963200D02*
X135138600Y-107596500D01*
X135138600Y-107596500D02*
X135138600Y-107286700D01*
X157065100Y-108530000D02*
X157065100Y-107231600D01*
X153644600Y-111950500D02*
X157065100Y-108530000D01*
X121018300Y-119075200D02*
X123088400Y-119075200D01*
X120967500Y-119126000D02*
X121018300Y-119075200D01*
X201523600Y-108737400D02*
X201523600Y-107173400D01*
X143129000Y-113195100D02*
X143179800Y-113245900D01*
X143129000Y-97853500D02*
X143129000Y-113195100D01*
X139966700Y-98907600D02*
X141224000Y-98907600D01*
X137756900Y-96697800D02*
X139966700Y-98907600D01*
X167563800Y-117081300D02*
X169659300Y-117081300D01*
X167373300Y-117271800D02*
X167563800Y-117081300D01*
X165811200Y-114350800D02*
X165430200Y-114007900D01*
X165430200Y-114007900D02*
X165430200Y-98780600D01*
X159804100Y-98577400D02*
X159677100Y-98450400D01*
X159677100Y-98450400D02*
X159677100Y-96570800D01*
X187845700Y-113042700D02*
X187782200Y-112979200D01*
X187782200Y-112979200D02*
X187782200Y-98780600D01*
X182194200Y-97967800D02*
X182194200Y-96380300D01*
X203492100Y-77000100D02*
X203492100Y-79400400D01*
X203403200Y-76911200D02*
X203492100Y-77000100D01*
X209613500Y-82613500D02*
X209562700Y-77698600D01*
X209562700Y-82664300D02*
X209613500Y-82613500D01*
X204076300Y-97066100D02*
X204076300Y-98793300D01*
X203771500Y-96761300D02*
X204076300Y-97066100D01*
D27*
G36*
X138222008Y-62931573D02*
X138171634Y-63052886D01*
X138058210Y-63166310D01*
X137981489Y-63281132D01*
X137385110Y-63877510D01*
X137193267Y-64164625D01*
X137193267Y-64164626D01*
X137125899Y-64503300D01*
X137125900Y-64503305D01*
X137125900Y-65569197D01*
X137029358Y-65633704D01*
X136728454Y-66084039D01*
X136622790Y-66615246D01*
X136622790Y-68207954D01*
X136728454Y-68739161D01*
X137029358Y-69189496D01*
X137479693Y-69490400D01*
X138010900Y-69596064D01*
X138542107Y-69490400D01*
X138992442Y-69189496D01*
X139280900Y-68757788D01*
X139569358Y-69189496D01*
X140019693Y-69490400D01*
X140550900Y-69596064D01*
X140756138Y-69555240D01*
X140898478Y-69697580D01*
X140898438Y-69743067D01*
X141040483Y-70086843D01*
X141303273Y-70350092D01*
X141646801Y-70492738D01*
X142018767Y-70493062D01*
X142362543Y-70351017D01*
X142625792Y-70088227D01*
X142768438Y-69744699D01*
X142768651Y-69500288D01*
X142963900Y-69388762D01*
X142963900Y-67538600D01*
X143217900Y-67538600D01*
X143217900Y-69388762D01*
X143432574Y-69511383D01*
X143504775Y-69497027D01*
X143982640Y-69237324D01*
X144324746Y-68814519D01*
X144479010Y-68292980D01*
X144479010Y-67538600D01*
X143217900Y-67538600D01*
X142963900Y-67538600D01*
X142943900Y-67538600D01*
X142943900Y-67284600D01*
X142963900Y-67284600D01*
X142963900Y-65434438D01*
X143217900Y-65434438D01*
X143217900Y-67284600D01*
X144479010Y-67284600D01*
X144479010Y-66530220D01*
X144324746Y-66008681D01*
X144243013Y-65907667D01*
X150169438Y-65907667D01*
X150311483Y-66251443D01*
X150574273Y-66514692D01*
X150917801Y-66657338D01*
X151289767Y-66657662D01*
X151633543Y-66515617D01*
X151896792Y-66252827D01*
X152039438Y-65909299D01*
X152039463Y-65880376D01*
X152940825Y-65019074D01*
X153270967Y-65019362D01*
X153614743Y-64877317D01*
X153877992Y-64614527D01*
X154020638Y-64270999D01*
X154020962Y-63899033D01*
X153878917Y-63555257D01*
X153616127Y-63292008D01*
X153272599Y-63149362D01*
X152900633Y-63149038D01*
X152556857Y-63291083D01*
X152345658Y-63501914D01*
X152294048Y-63534727D01*
X150983118Y-64787393D01*
X150919433Y-64787338D01*
X150575657Y-64929383D01*
X150312408Y-65192173D01*
X150169762Y-65535701D01*
X150169438Y-65907667D01*
X144243013Y-65907667D01*
X143982640Y-65585876D01*
X143504775Y-65326173D01*
X143432574Y-65311817D01*
X143217900Y-65434438D01*
X142963900Y-65434438D01*
X142749226Y-65311817D01*
X142677025Y-65326173D01*
X142199160Y-65585876D01*
X141857054Y-66008681D01*
X141833916Y-66086906D01*
X141833346Y-66084039D01*
X141532442Y-65633704D01*
X141082107Y-65332800D01*
X140550900Y-65227136D01*
X140019693Y-65332800D01*
X139569358Y-65633704D01*
X139280900Y-66065412D01*
X138992442Y-65633704D01*
X138895900Y-65569197D01*
X138895900Y-64869880D01*
X139309787Y-64455992D01*
X139309790Y-64455990D01*
X139386510Y-64341170D01*
X139423035Y-64304644D01*
X139543143Y-64255017D01*
X139692821Y-64105600D01*
X139827000Y-64105600D01*
X140165675Y-64038233D01*
X140452790Y-63846390D01*
X140644633Y-63559275D01*
X140712000Y-63220600D01*
X140644633Y-62881925D01*
X140505502Y-62673700D01*
X189897640Y-62673700D01*
X189783967Y-62843825D01*
X189716600Y-63182500D01*
X189783967Y-63521175D01*
X189975810Y-63808290D01*
X190262925Y-64000133D01*
X190601600Y-64067500D01*
X190616224Y-64067500D01*
X190621283Y-64079743D01*
X190884073Y-64342992D01*
X191005387Y-64393366D01*
X191118635Y-64506614D01*
X191144210Y-64544890D01*
X191334362Y-64735041D01*
X191372020Y-64791400D01*
X191385510Y-64811590D01*
X191907350Y-65333429D01*
X191907350Y-65499347D01*
X191810808Y-65563854D01*
X191509904Y-66014189D01*
X191502350Y-66052165D01*
X191494796Y-66014189D01*
X191193892Y-65563854D01*
X190743557Y-65262950D01*
X190212350Y-65157286D01*
X189681143Y-65262950D01*
X189230808Y-65563854D01*
X188962350Y-65965630D01*
X188693892Y-65563854D01*
X188472350Y-65415824D01*
X188472350Y-64649350D01*
X188463992Y-64607333D01*
X188467615Y-64564647D01*
X188435295Y-64463063D01*
X188414498Y-64358511D01*
X188390698Y-64322891D01*
X188377709Y-64282067D01*
X188308975Y-64200584D01*
X188249751Y-64111949D01*
X188214131Y-64088149D01*
X188186509Y-64055403D01*
X187866735Y-63800121D01*
X187749817Y-63517157D01*
X187487027Y-63253908D01*
X187143499Y-63111262D01*
X186771533Y-63110938D01*
X186427757Y-63252983D01*
X186164508Y-63515773D01*
X186021862Y-63859301D01*
X186021538Y-64231267D01*
X186163583Y-64575043D01*
X186426373Y-64838292D01*
X186769901Y-64980938D01*
X186909704Y-64981060D01*
X186952350Y-65015105D01*
X186952350Y-65415824D01*
X186730808Y-65563854D01*
X186429904Y-66014189D01*
X186429334Y-66017056D01*
X186406196Y-65938831D01*
X186064090Y-65516026D01*
X185586225Y-65256323D01*
X185514024Y-65241967D01*
X185299350Y-65364588D01*
X185299350Y-67214750D01*
X185319350Y-67214750D01*
X185319350Y-67468750D01*
X185299350Y-67468750D01*
X185299350Y-69318912D01*
X185514024Y-69441533D01*
X185586225Y-69427177D01*
X186064090Y-69167474D01*
X186406196Y-68744669D01*
X186429334Y-68666444D01*
X186429904Y-68669311D01*
X186730808Y-69119646D01*
X187181143Y-69420550D01*
X187712350Y-69526214D01*
X188243557Y-69420550D01*
X188693892Y-69119646D01*
X188962350Y-68717870D01*
X189230808Y-69119646D01*
X189452350Y-69267676D01*
X189452350Y-69359251D01*
X189441108Y-69370473D01*
X189298462Y-69714001D01*
X189298138Y-70085967D01*
X189440183Y-70429743D01*
X189702973Y-70692992D01*
X190046501Y-70835638D01*
X190418467Y-70835962D01*
X190762243Y-70693917D01*
X191025492Y-70431127D01*
X191168138Y-70087599D01*
X191168462Y-69715633D01*
X191026417Y-69371857D01*
X190972350Y-69317696D01*
X190972350Y-69267676D01*
X191193892Y-69119646D01*
X191494796Y-68669311D01*
X191502350Y-68631335D01*
X191509904Y-68669311D01*
X191810808Y-69119646D01*
X192029950Y-69266072D01*
X191901962Y-69574301D01*
X191901638Y-69946267D01*
X192043683Y-70290043D01*
X192306473Y-70553292D01*
X192650001Y-70695938D01*
X193021967Y-70696262D01*
X193365743Y-70554217D01*
X193628992Y-70291427D01*
X193771638Y-69947899D01*
X193771962Y-69575933D01*
X193629917Y-69232157D01*
X193620150Y-69222373D01*
X193773892Y-69119646D01*
X194062350Y-68687938D01*
X194350808Y-69119646D01*
X194521927Y-69233984D01*
X194391162Y-69548901D01*
X194390838Y-69920867D01*
X194532883Y-70264643D01*
X194795673Y-70527892D01*
X195139201Y-70670538D01*
X195511167Y-70670862D01*
X195854943Y-70528817D01*
X196118192Y-70266027D01*
X196260838Y-69922499D01*
X196261162Y-69550533D01*
X196133051Y-69240480D01*
X196313892Y-69119646D01*
X196582350Y-68717870D01*
X196850808Y-69119646D01*
X197060739Y-69259917D01*
X196956562Y-69510801D01*
X196956238Y-69882767D01*
X197098283Y-70226543D01*
X197361073Y-70489792D01*
X197704601Y-70632438D01*
X198076567Y-70632762D01*
X198420343Y-70490717D01*
X198683592Y-70227927D01*
X198826238Y-69884399D01*
X198826562Y-69512433D01*
X198696638Y-69197992D01*
X198813892Y-69119646D01*
X199114796Y-68669311D01*
X199122350Y-68631335D01*
X199129904Y-68669311D01*
X199430808Y-69119646D01*
X199593671Y-69228468D01*
X199471162Y-69523501D01*
X199470838Y-69895467D01*
X199612883Y-70239243D01*
X199875673Y-70502492D01*
X200219201Y-70645138D01*
X200591167Y-70645462D01*
X200934943Y-70503417D01*
X201198192Y-70240627D01*
X201340838Y-69897099D01*
X201341162Y-69525133D01*
X201221275Y-69234985D01*
X201393892Y-69119646D01*
X201682350Y-68687938D01*
X201970808Y-69119646D01*
X202141927Y-69233984D01*
X202011162Y-69548901D01*
X202010838Y-69920867D01*
X202152883Y-70264643D01*
X202415673Y-70527892D01*
X202759201Y-70670538D01*
X203131167Y-70670862D01*
X203474943Y-70528817D01*
X203738192Y-70266027D01*
X203880838Y-69922499D01*
X203881162Y-69550533D01*
X203753051Y-69240480D01*
X203933892Y-69119646D01*
X204202350Y-68717870D01*
X204470808Y-69119646D01*
X204648282Y-69238230D01*
X204630308Y-69256173D01*
X204487662Y-69599701D01*
X204487338Y-69971667D01*
X204629383Y-70315443D01*
X204892173Y-70578692D01*
X205235701Y-70721338D01*
X205607667Y-70721662D01*
X205951443Y-70579617D01*
X206214692Y-70316827D01*
X206357338Y-69973299D01*
X206357662Y-69601333D01*
X206218187Y-69263776D01*
X206433892Y-69119646D01*
X206734796Y-68669311D01*
X206735366Y-68666444D01*
X206758504Y-68744669D01*
X207100610Y-69167474D01*
X207578475Y-69427177D01*
X207650676Y-69441533D01*
X207865350Y-69318912D01*
X207865350Y-67468750D01*
X208119350Y-67468750D01*
X208119350Y-69318912D01*
X208334024Y-69441533D01*
X208406225Y-69427177D01*
X208884090Y-69167474D01*
X209226196Y-68744669D01*
X209380460Y-68223130D01*
X209380460Y-67468750D01*
X208119350Y-67468750D01*
X207865350Y-67468750D01*
X207845350Y-67468750D01*
X207845350Y-67214750D01*
X207865350Y-67214750D01*
X207865350Y-65364588D01*
X208119350Y-65364588D01*
X208119350Y-67214750D01*
X209380460Y-67214750D01*
X209380460Y-66460370D01*
X209226196Y-65938831D01*
X208884090Y-65516026D01*
X208406225Y-65256323D01*
X208334024Y-65241967D01*
X208119350Y-65364588D01*
X207865350Y-65364588D01*
X207650676Y-65241967D01*
X207578475Y-65256323D01*
X207100610Y-65516026D01*
X206758504Y-65938831D01*
X206735366Y-66017056D01*
X206734796Y-66014189D01*
X206433892Y-65563854D01*
X205983557Y-65262950D01*
X205452350Y-65157286D01*
X204921143Y-65262950D01*
X204470808Y-65563854D01*
X204202350Y-65965630D01*
X203933892Y-65563854D01*
X203483557Y-65262950D01*
X202952350Y-65157286D01*
X202421143Y-65262950D01*
X201970808Y-65563854D01*
X201682350Y-65995562D01*
X201393892Y-65563854D01*
X200943557Y-65262950D01*
X200412350Y-65157286D01*
X199881143Y-65262950D01*
X199430808Y-65563854D01*
X199129904Y-66014189D01*
X199122350Y-66052165D01*
X199114796Y-66014189D01*
X198813892Y-65563854D01*
X198363557Y-65262950D01*
X197832350Y-65157286D01*
X197301143Y-65262950D01*
X196850808Y-65563854D01*
X196582350Y-65965630D01*
X196313892Y-65563854D01*
X195863557Y-65262950D01*
X195332350Y-65157286D01*
X194801143Y-65262950D01*
X194350808Y-65563854D01*
X194062350Y-65995562D01*
X193773892Y-65563854D01*
X193707313Y-65519367D01*
X194388955Y-64837724D01*
X194428001Y-64853938D01*
X194799967Y-64854262D01*
X194868543Y-64825927D01*
X194936001Y-64853938D01*
X195307967Y-64854262D01*
X195460105Y-64791400D01*
X195491100Y-64791400D01*
X195829775Y-64724033D01*
X196116890Y-64532190D01*
X196308733Y-64245075D01*
X196376100Y-63906400D01*
X196308733Y-63567725D01*
X196116890Y-63280610D01*
X195829775Y-63088767D01*
X195491100Y-63021400D01*
X195399037Y-63021400D01*
X195309599Y-62984262D01*
X194937633Y-62983938D01*
X194869057Y-63012273D01*
X194801599Y-62984262D01*
X194429633Y-62983938D01*
X194335594Y-63022794D01*
X194242799Y-62984262D01*
X193870833Y-62983938D01*
X193527057Y-63125983D01*
X193263808Y-63388773D01*
X193213434Y-63510087D01*
X192900300Y-63823220D01*
X192688236Y-63611157D01*
X192637090Y-63534610D01*
X192637087Y-63534608D01*
X192421363Y-63318883D01*
X192395790Y-63280610D01*
X192395787Y-63280608D01*
X192257145Y-63141965D01*
X192207517Y-63021857D01*
X191944727Y-62758608D01*
X191814774Y-62704647D01*
X191801987Y-62673700D01*
X213881500Y-62673700D01*
X213881500Y-128347000D01*
X90347000Y-128347000D01*
X90347000Y-126074123D01*
X90686227Y-126895115D01*
X91567347Y-127777774D01*
X92719174Y-128256054D01*
X93966354Y-128257143D01*
X95119015Y-127780873D01*
X96001674Y-126899753D01*
X96479954Y-125747926D01*
X96481043Y-124500746D01*
X96004773Y-123348085D01*
X95123653Y-122465426D01*
X93971826Y-121987146D01*
X92724646Y-121986057D01*
X91571985Y-122462327D01*
X90689326Y-123343447D01*
X90347000Y-124167860D01*
X90347000Y-68097400D01*
X90618499Y-68097400D01*
X90618500Y-68097405D01*
X90618500Y-116852695D01*
X90618499Y-116852700D01*
X90664708Y-117085001D01*
X90685867Y-117191375D01*
X90739605Y-117271800D01*
X90877710Y-117478490D01*
X99132708Y-125733487D01*
X99132710Y-125733490D01*
X99419825Y-125925333D01*
X99476016Y-125936510D01*
X99758500Y-125992701D01*
X99758505Y-125992700D01*
X104491248Y-125992700D01*
X104550101Y-126017138D01*
X104922067Y-126017462D01*
X105265843Y-125875417D01*
X105529092Y-125612627D01*
X105661868Y-125292867D01*
X111510638Y-125292867D01*
X111652683Y-125636643D01*
X111915473Y-125899892D01*
X112259001Y-126042538D01*
X112630967Y-126042862D01*
X112974743Y-125900817D01*
X113237992Y-125638027D01*
X113288366Y-125516714D01*
X115047579Y-123757500D01*
X119392695Y-123757500D01*
X119392700Y-123757501D01*
X119675184Y-123701310D01*
X119731375Y-123690133D01*
X120018490Y-123498290D01*
X122405034Y-121111745D01*
X122525143Y-121062117D01*
X122788392Y-120799327D01*
X122931038Y-120455799D01*
X122931362Y-120083833D01*
X122900719Y-120009672D01*
X122901601Y-120010038D01*
X123273567Y-120010362D01*
X123527111Y-119905600D01*
X130020460Y-119905600D01*
X130020460Y-122105600D01*
X130064738Y-122340917D01*
X130203810Y-122557041D01*
X130416010Y-122702031D01*
X130667900Y-122753040D01*
X132467900Y-122753040D01*
X132703217Y-122708762D01*
X132919341Y-122569690D01*
X133064331Y-122357490D01*
X133115340Y-122105600D01*
X133115340Y-119905600D01*
X140620460Y-119905600D01*
X140620460Y-122105600D01*
X140664738Y-122340917D01*
X140803810Y-122557041D01*
X141016010Y-122702031D01*
X141267900Y-122753040D01*
X143067900Y-122753040D01*
X143303217Y-122708762D01*
X143519341Y-122569690D01*
X143664331Y-122357490D01*
X143715340Y-122105600D01*
X143715340Y-119905600D01*
X143672326Y-119677000D01*
X151864460Y-119677000D01*
X151864460Y-121877000D01*
X151908738Y-122112317D01*
X152047810Y-122328441D01*
X152260010Y-122473431D01*
X152511900Y-122524440D01*
X154311900Y-122524440D01*
X154547217Y-122480162D01*
X154763341Y-122341090D01*
X154908331Y-122128890D01*
X154959340Y-121877000D01*
X154959340Y-119677000D01*
X162464460Y-119677000D01*
X162464460Y-121877000D01*
X162508738Y-122112317D01*
X162647810Y-122328441D01*
X162860010Y-122473431D01*
X163111900Y-122524440D01*
X164911900Y-122524440D01*
X165147217Y-122480162D01*
X165363341Y-122341090D01*
X165508331Y-122128890D01*
X165559340Y-121877000D01*
X165559340Y-120185000D01*
X174102160Y-120185000D01*
X174102160Y-122385000D01*
X174146438Y-122620317D01*
X174285510Y-122836441D01*
X174497710Y-122981431D01*
X174749600Y-123032440D01*
X176549600Y-123032440D01*
X176784917Y-122988162D01*
X177001041Y-122849090D01*
X177146031Y-122636890D01*
X177197040Y-122385000D01*
X177197040Y-120185000D01*
X184702160Y-120185000D01*
X184702160Y-122385000D01*
X184746438Y-122620317D01*
X184885510Y-122836441D01*
X185097710Y-122981431D01*
X185349600Y-123032440D01*
X187149600Y-123032440D01*
X187384917Y-122988162D01*
X187601041Y-122849090D01*
X187746031Y-122636890D01*
X187797040Y-122385000D01*
X187797040Y-120185000D01*
X187773144Y-120058000D01*
X196111260Y-120058000D01*
X196111260Y-122258000D01*
X196155538Y-122493317D01*
X196294610Y-122709441D01*
X196506810Y-122854431D01*
X196758700Y-122905440D01*
X198558700Y-122905440D01*
X198794017Y-122861162D01*
X199010141Y-122722090D01*
X199155131Y-122509890D01*
X199206140Y-122258000D01*
X199206140Y-120058000D01*
X206711260Y-120058000D01*
X206711260Y-122258000D01*
X206755538Y-122493317D01*
X206894610Y-122709441D01*
X207106810Y-122854431D01*
X207358700Y-122905440D01*
X209158700Y-122905440D01*
X209394017Y-122861162D01*
X209610141Y-122722090D01*
X209755131Y-122509890D01*
X209806140Y-122258000D01*
X209806140Y-120058000D01*
X209761862Y-119822683D01*
X209622790Y-119606559D01*
X209410590Y-119461569D01*
X209158700Y-119410560D01*
X207358700Y-119410560D01*
X207123383Y-119454838D01*
X206907259Y-119593910D01*
X206762269Y-119806110D01*
X206711260Y-120058000D01*
X199206140Y-120058000D01*
X199161862Y-119822683D01*
X199022790Y-119606559D01*
X198810590Y-119461569D01*
X198558700Y-119410560D01*
X196758700Y-119410560D01*
X196523383Y-119454838D01*
X196307259Y-119593910D01*
X196162269Y-119806110D01*
X196111260Y-120058000D01*
X187773144Y-120058000D01*
X187752762Y-119949683D01*
X187613690Y-119733559D01*
X187401490Y-119588569D01*
X187149600Y-119537560D01*
X185349600Y-119537560D01*
X185114283Y-119581838D01*
X184898159Y-119720910D01*
X184753169Y-119933110D01*
X184702160Y-120185000D01*
X177197040Y-120185000D01*
X177152762Y-119949683D01*
X177013690Y-119733559D01*
X176801490Y-119588569D01*
X176549600Y-119537560D01*
X174749600Y-119537560D01*
X174514283Y-119581838D01*
X174298159Y-119720910D01*
X174153169Y-119933110D01*
X174102160Y-120185000D01*
X165559340Y-120185000D01*
X165559340Y-119677000D01*
X165515062Y-119441683D01*
X165375990Y-119225559D01*
X165163790Y-119080569D01*
X164911900Y-119029560D01*
X163111900Y-119029560D01*
X162876583Y-119073838D01*
X162660459Y-119212910D01*
X162515469Y-119425110D01*
X162464460Y-119677000D01*
X154959340Y-119677000D01*
X154915062Y-119441683D01*
X154775990Y-119225559D01*
X154563790Y-119080569D01*
X154311900Y-119029560D01*
X152511900Y-119029560D01*
X152276583Y-119073838D01*
X152060459Y-119212910D01*
X151915469Y-119425110D01*
X151864460Y-119677000D01*
X143672326Y-119677000D01*
X143671062Y-119670283D01*
X143531990Y-119454159D01*
X143319790Y-119309169D01*
X143067900Y-119258160D01*
X141267900Y-119258160D01*
X141032583Y-119302438D01*
X140816459Y-119441510D01*
X140671469Y-119653710D01*
X140620460Y-119905600D01*
X133115340Y-119905600D01*
X133071062Y-119670283D01*
X132931990Y-119454159D01*
X132719790Y-119309169D01*
X132467900Y-119258160D01*
X130667900Y-119258160D01*
X130432583Y-119302438D01*
X130216459Y-119441510D01*
X130071469Y-119653710D01*
X130020460Y-119905600D01*
X123527111Y-119905600D01*
X123617343Y-119868317D01*
X123880592Y-119605527D01*
X124023238Y-119261999D01*
X124023562Y-118890033D01*
X123881517Y-118546257D01*
X123618727Y-118283008D01*
X123275199Y-118140362D01*
X122903233Y-118140038D01*
X122559457Y-118282083D01*
X122526282Y-118315200D01*
X121453014Y-118315200D01*
X121154299Y-118191162D01*
X120782333Y-118190838D01*
X120438557Y-118332883D01*
X120175308Y-118595673D01*
X120032662Y-118939201D01*
X120032338Y-119311167D01*
X120174383Y-119654943D01*
X120437173Y-119918192D01*
X120780701Y-120060838D01*
X120952633Y-120060988D01*
X119026120Y-121987500D01*
X114681005Y-121987500D01*
X114681000Y-121987499D01*
X114342325Y-122054867D01*
X114055210Y-122246710D01*
X114055208Y-122246713D01*
X112036964Y-124264956D01*
X111916857Y-124314583D01*
X111653608Y-124577373D01*
X111510962Y-124920901D01*
X111510638Y-125292867D01*
X105661868Y-125292867D01*
X105671738Y-125269099D01*
X105672062Y-124897133D01*
X105530017Y-124553357D01*
X105267227Y-124290108D01*
X104923699Y-124147462D01*
X104551733Y-124147138D01*
X104368859Y-124222700D01*
X100125079Y-124222700D01*
X93359347Y-117456967D01*
X166438138Y-117456967D01*
X166580183Y-117800743D01*
X166842973Y-118063992D01*
X167186501Y-118206638D01*
X167558467Y-118206962D01*
X167902243Y-118064917D01*
X168126251Y-117841300D01*
X169096837Y-117841300D01*
X169128973Y-117873492D01*
X169472501Y-118016138D01*
X169844467Y-118016462D01*
X170188243Y-117874417D01*
X170451492Y-117611627D01*
X170594138Y-117268099D01*
X170594462Y-116896133D01*
X170452417Y-116552357D01*
X170189627Y-116289108D01*
X169846099Y-116146462D01*
X169474133Y-116146138D01*
X169130357Y-116288183D01*
X169097182Y-116321300D01*
X167563800Y-116321300D01*
X167485390Y-116336897D01*
X167188133Y-116336638D01*
X166844357Y-116478683D01*
X166581108Y-116741473D01*
X166438462Y-117085001D01*
X166438138Y-117456967D01*
X93359347Y-117456967D01*
X92388500Y-116486120D01*
X92388500Y-115323367D01*
X120121238Y-115323367D01*
X120263283Y-115667143D01*
X120526073Y-115930392D01*
X120869601Y-116073038D01*
X121241567Y-116073362D01*
X121585343Y-115931317D01*
X121656684Y-115860100D01*
X122589437Y-115860100D01*
X122621573Y-115892292D01*
X122965101Y-116034938D01*
X123337067Y-116035262D01*
X123680843Y-115893217D01*
X123944092Y-115630427D01*
X124086738Y-115286899D01*
X124086913Y-115085759D01*
X133467346Y-115085759D01*
X133553752Y-115342243D01*
X134127236Y-115552058D01*
X134737360Y-115526439D01*
X135182048Y-115342243D01*
X135268454Y-115085759D01*
X134367900Y-114185205D01*
X133467346Y-115085759D01*
X124086913Y-115085759D01*
X124087062Y-114914933D01*
X123945017Y-114571157D01*
X123682227Y-114307908D01*
X123338699Y-114165262D01*
X122966733Y-114164938D01*
X122622957Y-114306983D01*
X122589782Y-114340100D01*
X121572499Y-114340100D01*
X121243199Y-114203362D01*
X120871233Y-114203038D01*
X120527457Y-114345083D01*
X120264208Y-114607873D01*
X120121562Y-114951401D01*
X120121238Y-115323367D01*
X92388500Y-115323367D01*
X92388500Y-113764936D01*
X132821442Y-113764936D01*
X132847061Y-114375060D01*
X133031257Y-114819748D01*
X133287741Y-114906154D01*
X134188295Y-114005600D01*
X134547505Y-114005600D01*
X135448059Y-114906154D01*
X135563114Y-114867393D01*
X135565832Y-114873971D01*
X135997257Y-115306151D01*
X136561230Y-115540333D01*
X137171891Y-115540865D01*
X137736271Y-115307668D01*
X138118188Y-114926418D01*
X138497257Y-115306151D01*
X139061230Y-115540333D01*
X139671891Y-115540865D01*
X140097132Y-115365159D01*
X177549046Y-115365159D01*
X177635452Y-115621643D01*
X178208936Y-115831458D01*
X178819060Y-115805839D01*
X179263748Y-115621643D01*
X179350154Y-115365159D01*
X178449600Y-114464605D01*
X177549046Y-115365159D01*
X140097132Y-115365159D01*
X140236271Y-115307668D01*
X140668451Y-114876243D01*
X140676375Y-114857159D01*
X155311346Y-114857159D01*
X155397752Y-115113643D01*
X155971236Y-115323458D01*
X156581360Y-115297839D01*
X157026048Y-115113643D01*
X157112454Y-114857159D01*
X156211900Y-113956605D01*
X155311346Y-114857159D01*
X140676375Y-114857159D01*
X140902633Y-114312270D01*
X140903165Y-113701609D01*
X140857415Y-113590887D01*
X142369000Y-112079302D01*
X142369000Y-112760386D01*
X142244962Y-113059101D01*
X142244638Y-113431067D01*
X142386683Y-113774843D01*
X142649473Y-114038092D01*
X142993001Y-114180738D01*
X143364967Y-114181062D01*
X143708743Y-114039017D01*
X143971992Y-113776227D01*
X144071603Y-113536336D01*
X154665442Y-113536336D01*
X154691061Y-114146460D01*
X154875257Y-114591148D01*
X155131741Y-114677554D01*
X156032295Y-113777000D01*
X156391505Y-113777000D01*
X157292059Y-114677554D01*
X157407114Y-114638793D01*
X157409832Y-114645371D01*
X157841257Y-115077551D01*
X158405230Y-115311733D01*
X159015891Y-115312265D01*
X159580271Y-115079068D01*
X159962188Y-114697818D01*
X160341257Y-115077551D01*
X160905230Y-115311733D01*
X161515891Y-115312265D01*
X162080271Y-115079068D01*
X162512451Y-114647643D01*
X162746633Y-114083670D01*
X162747165Y-113473009D01*
X162701415Y-113362287D01*
X164670200Y-111393502D01*
X164670200Y-114007900D01*
X164674155Y-114027784D01*
X164671251Y-114047845D01*
X164702949Y-114172539D01*
X164728052Y-114298739D01*
X164739315Y-114315595D01*
X164744309Y-114335241D01*
X164821315Y-114438317D01*
X164876052Y-114520237D01*
X164876038Y-114535967D01*
X165018083Y-114879743D01*
X165280873Y-115142992D01*
X165624401Y-115285638D01*
X165996367Y-115285962D01*
X166340143Y-115143917D01*
X166603392Y-114881127D01*
X166746038Y-114537599D01*
X166746362Y-114165633D01*
X166696244Y-114044336D01*
X176903142Y-114044336D01*
X176928761Y-114654460D01*
X177112957Y-115099148D01*
X177369441Y-115185554D01*
X178269995Y-114285000D01*
X178629205Y-114285000D01*
X179529759Y-115185554D01*
X179644814Y-115146793D01*
X179647532Y-115153371D01*
X180078957Y-115585551D01*
X180642930Y-115819733D01*
X181253591Y-115820265D01*
X181817971Y-115587068D01*
X182199888Y-115205818D01*
X182578957Y-115585551D01*
X183142930Y-115819733D01*
X183753591Y-115820265D01*
X184317971Y-115587068D01*
X184667490Y-115238159D01*
X199558146Y-115238159D01*
X199644552Y-115494643D01*
X200218036Y-115704458D01*
X200828160Y-115678839D01*
X201272848Y-115494643D01*
X201359254Y-115238159D01*
X200458700Y-114337605D01*
X199558146Y-115238159D01*
X184667490Y-115238159D01*
X184750151Y-115155643D01*
X184984333Y-114591670D01*
X184984865Y-113981009D01*
X184939115Y-113870287D01*
X187022200Y-111787202D01*
X187022200Y-112587771D01*
X186910862Y-112855901D01*
X186910538Y-113227867D01*
X187052583Y-113571643D01*
X187315373Y-113834892D01*
X187658901Y-113977538D01*
X188030867Y-113977862D01*
X188177351Y-113917336D01*
X198912242Y-113917336D01*
X198937861Y-114527460D01*
X199122057Y-114972148D01*
X199378541Y-115058554D01*
X200279095Y-114158000D01*
X200638305Y-114158000D01*
X201538859Y-115058554D01*
X201653914Y-115019793D01*
X201656632Y-115026371D01*
X202088057Y-115458551D01*
X202652030Y-115692733D01*
X203262691Y-115693265D01*
X203827071Y-115460068D01*
X204208988Y-115078818D01*
X204588057Y-115458551D01*
X205152030Y-115692733D01*
X205762691Y-115693265D01*
X206327071Y-115460068D01*
X206759251Y-115028643D01*
X206993433Y-114464670D01*
X206993965Y-113854009D01*
X206948215Y-113743287D01*
X209134901Y-111556601D01*
X209299648Y-111310039D01*
X209357500Y-111019200D01*
X209357500Y-105918000D01*
X209299648Y-105627160D01*
X209134901Y-105380599D01*
X208465802Y-104711500D01*
X209084101Y-104093201D01*
X209248848Y-103846640D01*
X209306700Y-103555800D01*
X209300350Y-103523877D01*
X209300350Y-99565235D01*
X209376992Y-99488727D01*
X209519638Y-99145199D01*
X209519962Y-98773233D01*
X209377917Y-98429457D01*
X209115127Y-98166208D01*
X208771599Y-98023562D01*
X208399633Y-98023238D01*
X208055857Y-98165283D01*
X207792608Y-98428073D01*
X207649962Y-98771601D01*
X207649638Y-99143567D01*
X207780350Y-99459915D01*
X207780350Y-103247348D01*
X207537915Y-103489783D01*
X207046024Y-103285531D01*
X206493799Y-103285049D01*
X205983426Y-103495931D01*
X205592604Y-103886072D01*
X205380831Y-104396076D01*
X205380349Y-104948301D01*
X205399463Y-104994560D01*
X205084057Y-105124883D01*
X204820808Y-105387673D01*
X204678162Y-105731201D01*
X204677838Y-106103167D01*
X204819883Y-106446943D01*
X205082673Y-106710192D01*
X205402817Y-106843128D01*
X205380831Y-106896076D01*
X205380349Y-107448301D01*
X205591231Y-107958674D01*
X205981372Y-108349496D01*
X206008700Y-108360844D01*
X206008700Y-108841698D01*
X202421299Y-112429099D01*
X202256552Y-112675661D01*
X202232368Y-112797243D01*
X202090329Y-112855932D01*
X201658149Y-113287357D01*
X201654406Y-113296372D01*
X201538859Y-113257446D01*
X200638305Y-114158000D01*
X200279095Y-114158000D01*
X199378541Y-113257446D01*
X199122057Y-113343852D01*
X198912242Y-113917336D01*
X188177351Y-113917336D01*
X188374643Y-113835817D01*
X188637892Y-113573027D01*
X188780538Y-113229499D01*
X188780670Y-113077841D01*
X199558146Y-113077841D01*
X200458700Y-113978395D01*
X201359254Y-113077841D01*
X201272848Y-112821357D01*
X200699364Y-112611542D01*
X200089240Y-112637161D01*
X199644552Y-112821357D01*
X199558146Y-113077841D01*
X188780670Y-113077841D01*
X188780862Y-112857533D01*
X188638817Y-112513757D01*
X188542200Y-112416971D01*
X188542200Y-104948301D01*
X191600849Y-104948301D01*
X191811731Y-105458674D01*
X192201872Y-105849496D01*
X192379659Y-105923320D01*
X192203926Y-105995931D01*
X191813104Y-106386072D01*
X191601331Y-106896076D01*
X191600849Y-107448301D01*
X191811731Y-107958674D01*
X192158874Y-108306423D01*
X192041662Y-108588701D01*
X192041338Y-108960667D01*
X192183383Y-109304443D01*
X192446173Y-109567692D01*
X192789701Y-109710338D01*
X193161667Y-109710662D01*
X193505443Y-109568617D01*
X193768692Y-109305827D01*
X193911338Y-108962299D01*
X193911662Y-108590333D01*
X193801550Y-108323840D01*
X194165296Y-107960728D01*
X194377069Y-107450724D01*
X194377551Y-106898499D01*
X194166669Y-106388126D01*
X193776528Y-105997304D01*
X193598741Y-105923480D01*
X193774474Y-105850869D01*
X194165296Y-105460728D01*
X194176644Y-105433400D01*
X194646088Y-105433400D01*
X194656531Y-105458674D01*
X195046672Y-105849496D01*
X195224459Y-105923320D01*
X195048726Y-105995931D01*
X194657904Y-106386072D01*
X194446131Y-106896076D01*
X194445649Y-107448301D01*
X194656531Y-107958674D01*
X194988777Y-108291500D01*
X194886462Y-108537901D01*
X194886138Y-108909867D01*
X195028183Y-109253643D01*
X195290973Y-109516892D01*
X195634501Y-109659538D01*
X196006467Y-109659862D01*
X196350243Y-109517817D01*
X196613492Y-109255027D01*
X196756138Y-108911499D01*
X196756462Y-108539533D01*
X196661210Y-108309006D01*
X197010096Y-107960728D01*
X197221869Y-107450724D01*
X197222351Y-106898499D01*
X197011469Y-106388126D01*
X196621328Y-105997304D01*
X196443541Y-105923480D01*
X196619274Y-105850869D01*
X197010096Y-105460728D01*
X197021444Y-105433400D01*
X197490888Y-105433400D01*
X197501331Y-105458674D01*
X197891472Y-105849496D01*
X198069259Y-105923320D01*
X197893526Y-105995931D01*
X197502704Y-106386072D01*
X197290931Y-106896076D01*
X197290449Y-107448301D01*
X197501331Y-107958674D01*
X197846271Y-108304216D01*
X197743962Y-108550601D01*
X197743638Y-108922567D01*
X197885683Y-109266343D01*
X198148473Y-109529592D01*
X198492001Y-109672238D01*
X198863967Y-109672562D01*
X199207743Y-109530517D01*
X199470992Y-109267727D01*
X199613638Y-108924199D01*
X199613962Y-108552233D01*
X199511287Y-108303739D01*
X199854896Y-107960728D01*
X200066669Y-107450724D01*
X200067151Y-106898499D01*
X199856269Y-106388126D01*
X199466128Y-105997304D01*
X199288341Y-105923480D01*
X199464074Y-105850869D01*
X199854896Y-105460728D01*
X199866244Y-105433400D01*
X200335688Y-105433400D01*
X200346131Y-105458674D01*
X200736272Y-105849496D01*
X200914059Y-105923320D01*
X200738326Y-105995931D01*
X200347504Y-106386072D01*
X200135731Y-106896076D01*
X200135249Y-107448301D01*
X200346131Y-107958674D01*
X200691071Y-108304216D01*
X200588762Y-108550601D01*
X200588438Y-108922567D01*
X200730483Y-109266343D01*
X200993273Y-109529592D01*
X201336801Y-109672238D01*
X201708767Y-109672562D01*
X202052543Y-109530517D01*
X202315792Y-109267727D01*
X202458438Y-108924199D01*
X202458762Y-108552233D01*
X202356087Y-108303739D01*
X202699696Y-107960728D01*
X202911469Y-107450724D01*
X202911951Y-106898499D01*
X202888730Y-106842299D01*
X203144743Y-106736517D01*
X203407992Y-106473727D01*
X203550638Y-106130199D01*
X203550962Y-105758233D01*
X203408917Y-105414457D01*
X203146127Y-105151208D01*
X202874973Y-105038615D01*
X202911469Y-104950724D01*
X202911951Y-104398499D01*
X202701069Y-103888126D01*
X202310928Y-103497304D01*
X201800924Y-103285531D01*
X201248699Y-103285049D01*
X200738326Y-103495931D01*
X200347504Y-103886072D01*
X200336156Y-103913400D01*
X199866712Y-103913400D01*
X199856269Y-103888126D01*
X199466128Y-103497304D01*
X198956124Y-103285531D01*
X198403899Y-103285049D01*
X197893526Y-103495931D01*
X197502704Y-103886072D01*
X197491356Y-103913400D01*
X197021912Y-103913400D01*
X197011469Y-103888126D01*
X196621328Y-103497304D01*
X196111324Y-103285531D01*
X195559099Y-103285049D01*
X195048726Y-103495931D01*
X194657904Y-103886072D01*
X194646556Y-103913400D01*
X194177112Y-103913400D01*
X194166669Y-103888126D01*
X193776528Y-103497304D01*
X193266524Y-103285531D01*
X192714299Y-103285049D01*
X192203926Y-103495931D01*
X191813104Y-103886072D01*
X191601331Y-104396076D01*
X191600849Y-104948301D01*
X188542200Y-104948301D01*
X188542200Y-99343063D01*
X188574392Y-99310927D01*
X188717038Y-98967399D01*
X188717362Y-98595433D01*
X188575317Y-98251657D01*
X188312527Y-97988408D01*
X187968999Y-97845762D01*
X187675653Y-97845506D01*
X187675962Y-97490533D01*
X187533917Y-97146757D01*
X187333977Y-96946467D01*
X202836338Y-96946467D01*
X202978383Y-97290243D01*
X203241173Y-97553492D01*
X203316300Y-97584688D01*
X203316300Y-98230837D01*
X203284108Y-98262973D01*
X203141462Y-98606501D01*
X203141138Y-98978467D01*
X203283183Y-99322243D01*
X203545973Y-99585492D01*
X203889501Y-99728138D01*
X204261467Y-99728462D01*
X204605243Y-99586417D01*
X204868492Y-99323627D01*
X205011138Y-98980099D01*
X205011462Y-98608133D01*
X204869417Y-98264357D01*
X204836300Y-98231182D01*
X204836300Y-97066100D01*
X204812503Y-96946467D01*
X204778448Y-96775260D01*
X204706582Y-96667705D01*
X204706662Y-96576133D01*
X204564617Y-96232357D01*
X204301827Y-95969108D01*
X203958299Y-95826462D01*
X203586333Y-95826138D01*
X203242557Y-95968183D01*
X202979308Y-96230973D01*
X202836662Y-96574501D01*
X202836338Y-96946467D01*
X187333977Y-96946467D01*
X187271127Y-96883508D01*
X186927599Y-96740862D01*
X186555633Y-96740538D01*
X186211857Y-96882583D01*
X185948608Y-97145373D01*
X185805962Y-97488901D01*
X185805638Y-97860867D01*
X185947683Y-98204643D01*
X185980800Y-98237818D01*
X185980800Y-102288498D01*
X184998612Y-103270686D01*
X184497499Y-103270249D01*
X183987126Y-103481131D01*
X183596304Y-103871272D01*
X183384531Y-104381276D01*
X183384049Y-104933501D01*
X183396294Y-104963137D01*
X183189257Y-105048683D01*
X182926008Y-105311473D01*
X182783362Y-105655001D01*
X182783038Y-106026967D01*
X182925083Y-106370743D01*
X183187873Y-106633992D01*
X183221530Y-106647968D01*
X180412199Y-109457299D01*
X180247452Y-109703861D01*
X180189600Y-109994700D01*
X180189600Y-112938154D01*
X180081229Y-112982932D01*
X179649049Y-113414357D01*
X179645306Y-113423372D01*
X179529759Y-113384446D01*
X178629205Y-114285000D01*
X178269995Y-114285000D01*
X177369441Y-113384446D01*
X177112957Y-113470852D01*
X176903142Y-114044336D01*
X166696244Y-114044336D01*
X166604317Y-113821857D01*
X166341527Y-113558608D01*
X166190200Y-113495771D01*
X166190200Y-113204841D01*
X177549046Y-113204841D01*
X178449600Y-114105395D01*
X179350154Y-113204841D01*
X179263748Y-112948357D01*
X178690264Y-112738542D01*
X178080140Y-112764161D01*
X177635452Y-112948357D01*
X177549046Y-113204841D01*
X166190200Y-113204841D01*
X166190200Y-109786167D01*
X167987538Y-109786167D01*
X168129583Y-110129943D01*
X168392373Y-110393192D01*
X168735901Y-110535838D01*
X169107867Y-110536162D01*
X169451643Y-110394117D01*
X169714892Y-110131327D01*
X169857538Y-109787799D01*
X169857579Y-109740923D01*
X171041617Y-108556885D01*
X171117301Y-108556951D01*
X171627674Y-108346069D01*
X172018496Y-107955928D01*
X172230269Y-107445924D01*
X172230751Y-106893699D01*
X172019869Y-106383326D01*
X171629728Y-105992504D01*
X171451941Y-105918680D01*
X171627674Y-105846069D01*
X172018496Y-105455928D01*
X172029844Y-105428600D01*
X172474488Y-105428600D01*
X172484931Y-105453874D01*
X172875072Y-105844696D01*
X173052859Y-105918520D01*
X172877126Y-105991131D01*
X172486304Y-106381272D01*
X172274531Y-106891276D01*
X172274049Y-107443501D01*
X172484931Y-107953874D01*
X172488574Y-107957524D01*
X171018220Y-109427878D01*
X170972733Y-109427838D01*
X170628957Y-109569883D01*
X170365708Y-109832673D01*
X170223062Y-110176201D01*
X170222738Y-110548167D01*
X170364783Y-110891943D01*
X170627573Y-111155192D01*
X170971101Y-111297838D01*
X171343067Y-111298162D01*
X171686843Y-111156117D01*
X171950092Y-110893327D01*
X172092738Y-110549799D01*
X172092779Y-110502923D01*
X174110185Y-108485517D01*
X174447674Y-108346069D01*
X174838496Y-107955928D01*
X175050269Y-107445924D01*
X175050751Y-106893699D01*
X174839869Y-106383326D01*
X174449728Y-105992504D01*
X174271941Y-105918680D01*
X174447674Y-105846069D01*
X174838496Y-105455928D01*
X174849844Y-105428600D01*
X175324488Y-105428600D01*
X175334931Y-105453874D01*
X175725072Y-105844696D01*
X175902859Y-105918520D01*
X175727126Y-105991131D01*
X175336304Y-106381272D01*
X175124531Y-106891276D01*
X175124049Y-107443501D01*
X175334931Y-107953874D01*
X175405766Y-108024832D01*
X173189920Y-110240678D01*
X173144433Y-110240638D01*
X172800657Y-110382683D01*
X172537408Y-110645473D01*
X172394762Y-110989001D01*
X172394438Y-111360967D01*
X172536483Y-111704743D01*
X172799273Y-111967992D01*
X173142801Y-112110638D01*
X173514767Y-112110962D01*
X173858543Y-111968917D01*
X174121792Y-111706127D01*
X174264438Y-111362599D01*
X174264479Y-111315723D01*
X177049801Y-108530401D01*
X177125407Y-108417248D01*
X177297674Y-108346069D01*
X177688496Y-107955928D01*
X177900269Y-107445924D01*
X177900751Y-106893699D01*
X177689869Y-106383326D01*
X177299728Y-105992504D01*
X177121941Y-105918680D01*
X177297674Y-105846069D01*
X177688496Y-105455928D01*
X177699844Y-105428600D01*
X178144488Y-105428600D01*
X178154931Y-105453874D01*
X178545072Y-105844696D01*
X178722859Y-105918520D01*
X178547126Y-105991131D01*
X178156304Y-106381272D01*
X177944531Y-106891276D01*
X177944049Y-107443501D01*
X178154931Y-107953874D01*
X178498278Y-108297820D01*
X175780720Y-111015378D01*
X175735233Y-111015338D01*
X175391457Y-111157383D01*
X175128208Y-111420173D01*
X174985562Y-111763701D01*
X174985238Y-112135667D01*
X175127283Y-112479443D01*
X175390073Y-112742692D01*
X175733601Y-112885338D01*
X176105567Y-112885662D01*
X176449343Y-112743617D01*
X176712592Y-112480827D01*
X176855238Y-112137299D01*
X176855279Y-112090423D01*
X179869801Y-109075901D01*
X180034548Y-108829339D01*
X180092400Y-108538500D01*
X180092400Y-108356512D01*
X180117674Y-108346069D01*
X180508496Y-107955928D01*
X180720269Y-107445924D01*
X180720751Y-106893699D01*
X180687182Y-106812456D01*
X180932443Y-106711117D01*
X181195692Y-106448327D01*
X181338338Y-106104799D01*
X181338662Y-105732833D01*
X181196617Y-105389057D01*
X180933827Y-105125808D01*
X180687966Y-105023717D01*
X180720269Y-104945924D01*
X180720751Y-104393699D01*
X180509869Y-103883326D01*
X180119728Y-103492504D01*
X179609724Y-103280731D01*
X179057499Y-103280249D01*
X178547126Y-103491131D01*
X178156304Y-103881272D01*
X178144956Y-103908600D01*
X177700312Y-103908600D01*
X177689869Y-103883326D01*
X177299728Y-103492504D01*
X176789724Y-103280731D01*
X176237499Y-103280249D01*
X175727126Y-103491131D01*
X175336304Y-103881272D01*
X175324956Y-103908600D01*
X174850312Y-103908600D01*
X174839869Y-103883326D01*
X174449728Y-103492504D01*
X173939724Y-103280731D01*
X173387499Y-103280249D01*
X172877126Y-103491131D01*
X172486304Y-103881272D01*
X172474956Y-103908600D01*
X172030312Y-103908600D01*
X172019869Y-103883326D01*
X171629728Y-103492504D01*
X171119724Y-103280731D01*
X170567499Y-103280249D01*
X170057126Y-103491131D01*
X169666304Y-103881272D01*
X169454531Y-104391276D01*
X169454049Y-104943501D01*
X169664931Y-105453874D01*
X170055072Y-105844696D01*
X170232859Y-105918520D01*
X170057126Y-105991131D01*
X169666304Y-106381272D01*
X169454531Y-106891276D01*
X169454049Y-107443501D01*
X169615253Y-107833645D01*
X168783020Y-108665878D01*
X168737533Y-108665838D01*
X168393757Y-108807883D01*
X168130508Y-109070673D01*
X167987862Y-109414201D01*
X167987538Y-109786167D01*
X166190200Y-109786167D01*
X166190200Y-99343063D01*
X166222392Y-99310927D01*
X166365038Y-98967399D01*
X166365362Y-98595433D01*
X166223317Y-98251657D01*
X165960527Y-97988408D01*
X165616999Y-97845762D01*
X165450763Y-97845617D01*
X165450962Y-97617533D01*
X165308917Y-97273757D01*
X165046127Y-97010508D01*
X164702599Y-96867862D01*
X164330633Y-96867538D01*
X163986857Y-97009583D01*
X163723608Y-97272373D01*
X163580962Y-97615901D01*
X163580638Y-97987867D01*
X163722683Y-98331643D01*
X163819300Y-98428429D01*
X163819300Y-102202598D01*
X162727680Y-103294218D01*
X162702424Y-103283731D01*
X162150199Y-103283249D01*
X161639826Y-103494131D01*
X161249004Y-103884272D01*
X161037231Y-104394276D01*
X161036749Y-104946501D01*
X161067524Y-105020983D01*
X161015933Y-105020938D01*
X160672157Y-105162983D01*
X160408908Y-105425773D01*
X160266262Y-105769301D01*
X160265938Y-106141267D01*
X160407983Y-106485043D01*
X160670773Y-106748292D01*
X160982617Y-106877781D01*
X158174499Y-109685899D01*
X158009752Y-109932461D01*
X157951900Y-110223300D01*
X157951900Y-112430154D01*
X157843529Y-112474932D01*
X157411349Y-112906357D01*
X157407606Y-112915372D01*
X157292059Y-112876446D01*
X156391505Y-113777000D01*
X156032295Y-113777000D01*
X155131741Y-112876446D01*
X154875257Y-112962852D01*
X154665442Y-113536336D01*
X144071603Y-113536336D01*
X144114638Y-113432699D01*
X144114962Y-113060733D01*
X143972917Y-112716957D01*
X143889000Y-112632893D01*
X143889000Y-109773467D01*
X146029238Y-109773467D01*
X146171283Y-110117243D01*
X146434073Y-110380492D01*
X146777601Y-110523138D01*
X147149567Y-110523462D01*
X147493343Y-110381417D01*
X147756592Y-110118627D01*
X147899238Y-109775099D01*
X147899279Y-109728223D01*
X148962867Y-108664635D01*
X149460374Y-108459069D01*
X149851196Y-108068928D01*
X150062969Y-107558924D01*
X150063451Y-107006699D01*
X149852569Y-106496326D01*
X149462428Y-106105504D01*
X149284641Y-106031680D01*
X149460374Y-105959069D01*
X149851196Y-105568928D01*
X149862544Y-105541600D01*
X150287188Y-105541600D01*
X150297631Y-105566874D01*
X150687772Y-105957696D01*
X150865559Y-106031520D01*
X150689826Y-106104131D01*
X150299004Y-106494272D01*
X150087231Y-107004276D01*
X150086749Y-107556501D01*
X150297631Y-108066874D01*
X150352879Y-108122219D01*
X149059920Y-109415178D01*
X149014433Y-109415138D01*
X148670657Y-109557183D01*
X148407408Y-109819973D01*
X148264762Y-110163501D01*
X148264438Y-110535467D01*
X148406483Y-110879243D01*
X148669273Y-111142492D01*
X149012801Y-111285138D01*
X149384767Y-111285462D01*
X149728543Y-111143417D01*
X149991792Y-110880627D01*
X150134438Y-110537099D01*
X150134479Y-110490223D01*
X152012501Y-108612201D01*
X152059309Y-108542147D01*
X152260374Y-108459069D01*
X152651196Y-108068928D01*
X152862969Y-107558924D01*
X152863451Y-107006699D01*
X152652569Y-106496326D01*
X152262428Y-106105504D01*
X152084641Y-106031680D01*
X152260374Y-105959069D01*
X152651196Y-105568928D01*
X152662544Y-105541600D01*
X153077188Y-105541600D01*
X153087631Y-105566874D01*
X153477772Y-105957696D01*
X153655559Y-106031520D01*
X153479826Y-106104131D01*
X153089004Y-106494272D01*
X152877231Y-107004276D01*
X152876749Y-107556501D01*
X153087631Y-108066874D01*
X153271767Y-108251331D01*
X151282420Y-110240678D01*
X151236933Y-110240638D01*
X150893157Y-110382683D01*
X150629908Y-110645473D01*
X150487262Y-110989001D01*
X150486938Y-111360967D01*
X150628983Y-111704743D01*
X150891773Y-111967992D01*
X151235301Y-112110638D01*
X151607267Y-112110962D01*
X151951043Y-111968917D01*
X152214292Y-111706127D01*
X152356938Y-111362599D01*
X152356979Y-111315723D01*
X154802501Y-108870201D01*
X154967248Y-108623639D01*
X154995471Y-108481755D01*
X155050374Y-108459069D01*
X155441196Y-108068928D01*
X155652969Y-107558924D01*
X155653451Y-107006699D01*
X155442569Y-106496326D01*
X155052428Y-106105504D01*
X154874641Y-106031680D01*
X155050374Y-105959069D01*
X155441196Y-105568928D01*
X155473306Y-105491600D01*
X155877188Y-105491600D01*
X155887631Y-105516874D01*
X156277772Y-105907696D01*
X156455559Y-105981520D01*
X156279826Y-106054131D01*
X155889004Y-106444272D01*
X155677231Y-106954276D01*
X155676749Y-107506501D01*
X155887631Y-108016874D01*
X156195259Y-108325039D01*
X153504920Y-111015378D01*
X153459433Y-111015338D01*
X153115657Y-111157383D01*
X152852408Y-111420173D01*
X152709762Y-111763701D01*
X152709438Y-112135667D01*
X152851483Y-112479443D01*
X153114273Y-112742692D01*
X153457801Y-112885338D01*
X153829767Y-112885662D01*
X154173543Y-112743617D01*
X154220400Y-112696841D01*
X155311346Y-112696841D01*
X156211900Y-113597395D01*
X157112454Y-112696841D01*
X157026048Y-112440357D01*
X156452564Y-112230542D01*
X155842440Y-112256161D01*
X155397752Y-112440357D01*
X155311346Y-112696841D01*
X154220400Y-112696841D01*
X154436792Y-112480827D01*
X154579438Y-112137299D01*
X154579479Y-112090423D01*
X157602501Y-109067402D01*
X157734265Y-108870201D01*
X157767248Y-108820839D01*
X157825100Y-108530000D01*
X157825100Y-108419512D01*
X157850374Y-108409069D01*
X158241196Y-108018928D01*
X158452969Y-107508924D01*
X158453442Y-106967430D01*
X158490667Y-106967462D01*
X158834443Y-106825417D01*
X159097692Y-106562627D01*
X159240338Y-106219099D01*
X159240662Y-105847133D01*
X159098617Y-105503357D01*
X158835827Y-105240108D01*
X158492299Y-105097462D01*
X158445424Y-105097421D01*
X158424790Y-105076787D01*
X158452969Y-105008924D01*
X158453451Y-104456699D01*
X158242569Y-103946326D01*
X157852428Y-103555504D01*
X157342424Y-103343731D01*
X156790199Y-103343249D01*
X156279826Y-103554131D01*
X155889004Y-103944272D01*
X155877656Y-103971600D01*
X155417886Y-103971600D01*
X155052428Y-103605504D01*
X154542424Y-103393731D01*
X153990199Y-103393249D01*
X153479826Y-103604131D01*
X153089004Y-103994272D01*
X153077656Y-104021600D01*
X152663012Y-104021600D01*
X152652569Y-103996326D01*
X152262428Y-103605504D01*
X151752424Y-103393731D01*
X151200199Y-103393249D01*
X150689826Y-103604131D01*
X150299004Y-103994272D01*
X150287656Y-104021600D01*
X149863012Y-104021600D01*
X149852569Y-103996326D01*
X149462428Y-103605504D01*
X148952424Y-103393731D01*
X148400199Y-103393249D01*
X147889826Y-103604131D01*
X147499004Y-103994272D01*
X147287231Y-104504276D01*
X147286749Y-105056501D01*
X147497631Y-105566874D01*
X147887772Y-105957696D01*
X148065559Y-106031520D01*
X147889826Y-106104131D01*
X147499004Y-106494272D01*
X147287231Y-107004276D01*
X147286749Y-107556501D01*
X147472309Y-108005589D01*
X146824720Y-108653178D01*
X146779233Y-108653138D01*
X146435457Y-108795183D01*
X146172208Y-109057973D01*
X146029562Y-109401501D01*
X146029238Y-109773467D01*
X143889000Y-109773467D01*
X143889000Y-98415963D01*
X143921192Y-98383827D01*
X144063838Y-98040299D01*
X144064162Y-97668333D01*
X143922117Y-97324557D01*
X143659327Y-97061308D01*
X143315799Y-96918662D01*
X143314730Y-96918661D01*
X143314862Y-96766633D01*
X143310455Y-96755967D01*
X158741938Y-96755967D01*
X158883983Y-97099743D01*
X158917100Y-97132918D01*
X158917100Y-98275395D01*
X158869262Y-98390601D01*
X158868938Y-98762567D01*
X159010983Y-99106343D01*
X159273773Y-99369592D01*
X159617301Y-99512238D01*
X159989267Y-99512562D01*
X160333043Y-99370517D01*
X160596292Y-99107727D01*
X160738938Y-98764199D01*
X160739262Y-98392233D01*
X160597217Y-98048457D01*
X160437100Y-97888060D01*
X160437100Y-97133263D01*
X160469292Y-97101127D01*
X160611938Y-96757599D01*
X160612105Y-96565467D01*
X181259038Y-96565467D01*
X181401083Y-96909243D01*
X181434200Y-96942418D01*
X181434200Y-97405337D01*
X181402008Y-97437473D01*
X181259362Y-97781001D01*
X181259038Y-98152967D01*
X181401083Y-98496743D01*
X181663873Y-98759992D01*
X182007401Y-98902638D01*
X182379367Y-98902962D01*
X182723143Y-98760917D01*
X182986392Y-98498127D01*
X183129038Y-98154599D01*
X183129362Y-97782633D01*
X182987317Y-97438857D01*
X182954200Y-97405682D01*
X182954200Y-96942763D01*
X182986392Y-96910627D01*
X183129038Y-96567099D01*
X183129362Y-96195133D01*
X182987317Y-95851357D01*
X182724527Y-95588108D01*
X182380999Y-95445462D01*
X182009033Y-95445138D01*
X181665257Y-95587183D01*
X181402008Y-95849973D01*
X181259362Y-96193501D01*
X181259038Y-96565467D01*
X160612105Y-96565467D01*
X160612262Y-96385633D01*
X160470217Y-96041857D01*
X160207427Y-95778608D01*
X159863899Y-95635962D01*
X159491933Y-95635638D01*
X159148157Y-95777683D01*
X158884908Y-96040473D01*
X158742262Y-96384001D01*
X158741938Y-96755967D01*
X143310455Y-96755967D01*
X143172817Y-96422857D01*
X142910027Y-96159608D01*
X142566499Y-96016962D01*
X142194533Y-96016638D01*
X141850757Y-96158683D01*
X141587508Y-96421473D01*
X141444862Y-96765001D01*
X141444538Y-97136967D01*
X141566194Y-97431399D01*
X141562402Y-98035714D01*
X141410799Y-97972762D01*
X141038833Y-97972438D01*
X140695057Y-98114483D01*
X140661882Y-98147600D01*
X140281502Y-98147600D01*
X138692022Y-96558120D01*
X138692062Y-96512633D01*
X138550017Y-96168857D01*
X138287227Y-95905608D01*
X137943699Y-95762962D01*
X137571733Y-95762638D01*
X137227957Y-95904683D01*
X136964708Y-96167473D01*
X136822062Y-96511001D01*
X136821738Y-96882967D01*
X136963783Y-97226743D01*
X137226573Y-97489992D01*
X137570101Y-97632638D01*
X137616977Y-97632679D01*
X139429299Y-99445001D01*
X139675861Y-99609748D01*
X139966700Y-99667600D01*
X140661537Y-99667600D01*
X140693673Y-99699792D01*
X141037201Y-99842438D01*
X141409167Y-99842762D01*
X141551432Y-99783979D01*
X141532773Y-102757725D01*
X140881180Y-103409318D01*
X140855924Y-103398831D01*
X140303699Y-103398349D01*
X139793326Y-103609231D01*
X139402504Y-103999372D01*
X139190731Y-104509376D01*
X139190249Y-105061601D01*
X139203046Y-105092572D01*
X138878957Y-105226483D01*
X138615708Y-105489273D01*
X138473062Y-105832801D01*
X138472738Y-106204767D01*
X138614783Y-106548543D01*
X138877573Y-106811792D01*
X139214655Y-106951761D01*
X139190731Y-107009376D01*
X139190249Y-107561601D01*
X139201549Y-107588949D01*
X136330499Y-110459999D01*
X136165752Y-110706561D01*
X136107900Y-110997400D01*
X136107900Y-112658754D01*
X135999529Y-112703532D01*
X135567349Y-113134957D01*
X135563606Y-113143972D01*
X135448059Y-113105046D01*
X134547505Y-114005600D01*
X134188295Y-114005600D01*
X133287741Y-113105046D01*
X133031257Y-113191452D01*
X132821442Y-113764936D01*
X92388500Y-113764936D01*
X92388500Y-112925441D01*
X133467346Y-112925441D01*
X134367900Y-113825995D01*
X135268454Y-112925441D01*
X135182048Y-112668957D01*
X134608564Y-112459142D01*
X133998440Y-112484761D01*
X133553752Y-112668957D01*
X133467346Y-112925441D01*
X92388500Y-112925441D01*
X92388500Y-111297467D01*
X120057738Y-111297467D01*
X120199783Y-111641243D01*
X120462573Y-111904492D01*
X120806101Y-112047138D01*
X121178067Y-112047462D01*
X121521843Y-111905417D01*
X121580462Y-111846900D01*
X122449737Y-111846900D01*
X122481873Y-111879092D01*
X122825401Y-112021738D01*
X123197367Y-112022062D01*
X123541143Y-111880017D01*
X123804392Y-111617227D01*
X123947038Y-111273699D01*
X123947362Y-110901733D01*
X123805317Y-110557957D01*
X123542527Y-110294708D01*
X123198999Y-110152062D01*
X122827033Y-110151738D01*
X122483257Y-110293783D01*
X122450082Y-110326900D01*
X121530007Y-110326900D01*
X121523227Y-110320108D01*
X121179699Y-110177462D01*
X120807733Y-110177138D01*
X120463957Y-110319183D01*
X120200708Y-110581973D01*
X120058062Y-110925501D01*
X120057738Y-111297467D01*
X92388500Y-111297467D01*
X92388500Y-109748067D01*
X124426538Y-109748067D01*
X124568583Y-110091843D01*
X124831373Y-110355092D01*
X125174901Y-110497738D01*
X125546867Y-110498062D01*
X125890643Y-110356017D01*
X126153892Y-110093227D01*
X126296538Y-109749699D01*
X126296579Y-109702823D01*
X127406001Y-108593401D01*
X127430750Y-108556362D01*
X127653874Y-108464169D01*
X128044696Y-108074028D01*
X128243828Y-107594466D01*
X128431071Y-108047627D01*
X127038120Y-109440578D01*
X126992633Y-109440538D01*
X126648857Y-109582583D01*
X126385608Y-109845373D01*
X126242962Y-110188901D01*
X126242638Y-110560867D01*
X126384683Y-110904643D01*
X126647473Y-111167892D01*
X126991001Y-111310538D01*
X127362967Y-111310862D01*
X127706743Y-111168817D01*
X127969992Y-110906027D01*
X128112638Y-110562499D01*
X128112679Y-110515623D01*
X129995323Y-108632979D01*
X130403874Y-108464169D01*
X130794696Y-108074028D01*
X131006469Y-107564024D01*
X131006951Y-107011799D01*
X130796069Y-106501426D01*
X130405928Y-106110604D01*
X130228141Y-106036780D01*
X130403874Y-105964169D01*
X130794696Y-105574028D01*
X130806044Y-105546700D01*
X131210688Y-105546700D01*
X131221131Y-105571974D01*
X131611272Y-105962796D01*
X131789059Y-106036620D01*
X131613326Y-106109231D01*
X131222504Y-106499372D01*
X131010731Y-107009376D01*
X131010249Y-107561601D01*
X131166892Y-107940706D01*
X128905020Y-110202578D01*
X128859533Y-110202538D01*
X128515757Y-110344583D01*
X128252508Y-110607373D01*
X128109862Y-110950901D01*
X128109538Y-111322867D01*
X128251583Y-111666643D01*
X128514373Y-111929892D01*
X128857901Y-112072538D01*
X129229867Y-112072862D01*
X129573643Y-111930817D01*
X129836892Y-111668027D01*
X129979538Y-111324499D01*
X129979579Y-111277623D01*
X132582231Y-108674971D01*
X132673501Y-108675051D01*
X133183874Y-108464169D01*
X133574696Y-108074028D01*
X133768816Y-107606537D01*
X133852129Y-107808169D01*
X130632220Y-111028078D01*
X130586733Y-111028038D01*
X130242957Y-111170083D01*
X129979708Y-111432873D01*
X129837062Y-111776401D01*
X129836738Y-112148367D01*
X129978783Y-112492143D01*
X130241573Y-112755392D01*
X130585101Y-112898038D01*
X130957067Y-112898362D01*
X131300843Y-112756317D01*
X131564092Y-112493527D01*
X131706738Y-112149999D01*
X131706779Y-112103123D01*
X135135094Y-108674808D01*
X135413501Y-108675051D01*
X135923874Y-108464169D01*
X136314696Y-108074028D01*
X136526469Y-107564024D01*
X136526945Y-107018224D01*
X136570467Y-107018262D01*
X136914243Y-106876217D01*
X137177492Y-106613427D01*
X137320138Y-106269899D01*
X137320462Y-105897933D01*
X137178417Y-105554157D01*
X136915627Y-105290908D01*
X136576998Y-105150296D01*
X136515982Y-105089280D01*
X136526469Y-105064024D01*
X136526951Y-104511799D01*
X136316069Y-104001426D01*
X135925928Y-103610604D01*
X135415924Y-103398831D01*
X134863699Y-103398349D01*
X134353326Y-103609231D01*
X133962504Y-103999372D01*
X133951156Y-104026700D01*
X133586512Y-104026700D01*
X133576069Y-104001426D01*
X133185928Y-103610604D01*
X132675924Y-103398831D01*
X132123699Y-103398349D01*
X131613326Y-103609231D01*
X131222504Y-103999372D01*
X131211156Y-104026700D01*
X130806512Y-104026700D01*
X130796069Y-104001426D01*
X130405928Y-103610604D01*
X129895924Y-103398831D01*
X129343699Y-103398349D01*
X128833326Y-103609231D01*
X128442504Y-103999372D01*
X128431156Y-104026700D01*
X128056512Y-104026700D01*
X128046069Y-104001426D01*
X127655928Y-103610604D01*
X127145924Y-103398831D01*
X126593699Y-103398349D01*
X126083326Y-103609231D01*
X125692504Y-103999372D01*
X125480731Y-104509376D01*
X125480249Y-105061601D01*
X125691131Y-105571974D01*
X126081272Y-105962796D01*
X126259059Y-106036620D01*
X126083326Y-106109231D01*
X125692504Y-106499372D01*
X125480731Y-107009376D01*
X125480249Y-107561601D01*
X125691131Y-108071974D01*
X125734440Y-108115358D01*
X125222020Y-108627778D01*
X125176533Y-108627738D01*
X124832757Y-108769783D01*
X124569508Y-109032573D01*
X124426862Y-109376101D01*
X124426538Y-109748067D01*
X92388500Y-109748067D01*
X92388500Y-107271567D01*
X120032338Y-107271567D01*
X120174383Y-107615343D01*
X120437173Y-107878592D01*
X120780701Y-108021238D01*
X121152667Y-108021562D01*
X121496443Y-107879517D01*
X121529618Y-107846400D01*
X122437037Y-107846400D01*
X122469173Y-107878592D01*
X122812701Y-108021238D01*
X123184667Y-108021562D01*
X123528443Y-107879517D01*
X123791692Y-107616727D01*
X123934338Y-107273199D01*
X123934662Y-106901233D01*
X123792617Y-106557457D01*
X123529827Y-106294208D01*
X123186299Y-106151562D01*
X122814333Y-106151238D01*
X122470557Y-106293283D01*
X122437382Y-106326400D01*
X121529963Y-106326400D01*
X121497827Y-106294208D01*
X121154299Y-106151562D01*
X120782333Y-106151238D01*
X120438557Y-106293283D01*
X120175308Y-106556073D01*
X120032662Y-106899601D01*
X120032338Y-107271567D01*
X92388500Y-107271567D01*
X92388500Y-97342816D01*
X92921490Y-97342816D01*
X92977171Y-97573411D01*
X93459978Y-97741422D01*
X93970328Y-97711883D01*
X94304629Y-97573411D01*
X94360310Y-97342816D01*
X93640900Y-96623405D01*
X92921490Y-97342816D01*
X92388500Y-97342816D01*
X92388500Y-96811090D01*
X92511289Y-97107529D01*
X92741884Y-97163210D01*
X93461295Y-96443800D01*
X93820505Y-96443800D01*
X94539916Y-97163210D01*
X94770511Y-97107529D01*
X94938522Y-96624722D01*
X94908983Y-96114372D01*
X94770511Y-95780071D01*
X94539916Y-95724390D01*
X93820505Y-96443800D01*
X93461295Y-96443800D01*
X92741884Y-95724390D01*
X92511289Y-95780071D01*
X92388500Y-96132925D01*
X92388500Y-95544784D01*
X92921490Y-95544784D01*
X93640900Y-96264195D01*
X94360310Y-95544784D01*
X94304629Y-95314189D01*
X93821822Y-95146178D01*
X93311472Y-95175717D01*
X92977171Y-95314189D01*
X92921490Y-95544784D01*
X92388500Y-95544784D01*
X92388500Y-80632300D01*
X96663900Y-80632300D01*
X96663900Y-96443800D01*
X96738712Y-96819908D01*
X96812648Y-97196145D01*
X96813936Y-97198082D01*
X96814390Y-97200365D01*
X97027409Y-97519170D01*
X97239725Y-97838518D01*
X97241658Y-97839816D01*
X97242950Y-97841750D01*
X97561728Y-98054751D01*
X97880119Y-98268558D01*
X97882400Y-98269017D01*
X97884335Y-98270310D01*
X98260340Y-98345102D01*
X98636334Y-98420795D01*
X101953910Y-98428457D01*
X102298500Y-98497000D01*
X102635181Y-98430030D01*
X104036532Y-98433267D01*
X104165400Y-98458900D01*
X104921965Y-98308410D01*
X105563350Y-97879850D01*
X105991910Y-97238465D01*
X106142400Y-96481900D01*
X105991910Y-95725335D01*
X105563350Y-95083950D01*
X105537950Y-95058550D01*
X105219273Y-94845617D01*
X104900782Y-94631742D01*
X104898499Y-94631282D01*
X104896565Y-94629990D01*
X104520602Y-94555206D01*
X104144566Y-94479505D01*
X102245334Y-94475119D01*
X102226965Y-94471465D01*
X100663246Y-94471465D01*
X100617900Y-94471360D01*
X100617900Y-81451200D01*
X101872800Y-80196300D01*
X107873800Y-80196300D01*
X108630365Y-80045810D01*
X109016843Y-79787573D01*
X109441335Y-80071210D01*
X110197900Y-80221700D01*
X110389442Y-80183600D01*
X112674400Y-80183600D01*
X113430965Y-80033110D01*
X113434059Y-80031042D01*
X113489535Y-80068110D01*
X114246100Y-80218600D01*
X115256280Y-80218600D01*
X115537550Y-80639550D01*
X116178935Y-81068110D01*
X116935500Y-81218600D01*
X117692065Y-81068110D01*
X118333450Y-80639550D01*
X118352350Y-80620650D01*
X118780910Y-79979265D01*
X118931400Y-79222700D01*
X118830671Y-78716295D01*
X150283788Y-78716295D01*
X150470194Y-79167431D01*
X150815053Y-79512893D01*
X151265864Y-79700086D01*
X151753995Y-79700512D01*
X152205131Y-79514106D01*
X152550593Y-79169247D01*
X152651229Y-78926889D01*
X152670660Y-78907458D01*
X152954431Y-78790206D01*
X153299893Y-78445347D01*
X153349527Y-78325814D01*
X153424331Y-78294906D01*
X153769793Y-77950047D01*
X153870428Y-77707690D01*
X158518209Y-73059910D01*
X158762512Y-72694285D01*
X158781110Y-72600786D01*
X158848300Y-72263000D01*
X158848300Y-69186819D01*
X158971300Y-69002736D01*
X159094300Y-69186819D01*
X159094300Y-73086600D01*
X159180088Y-73517884D01*
X159424391Y-73883509D01*
X165058378Y-79517496D01*
X165157744Y-79757981D01*
X165502603Y-80103443D01*
X165626634Y-80154945D01*
X165659394Y-80234231D01*
X166004253Y-80579693D01*
X166116440Y-80626277D01*
X166180094Y-80780331D01*
X166524953Y-81125793D01*
X166975764Y-81312986D01*
X167463895Y-81313412D01*
X167915031Y-81127006D01*
X168260493Y-80782147D01*
X168447686Y-80331336D01*
X168448112Y-79843205D01*
X168261706Y-79392069D01*
X167916847Y-79046607D01*
X167804660Y-79000023D01*
X167741006Y-78845969D01*
X167396147Y-78500507D01*
X167272116Y-78449005D01*
X167239356Y-78369719D01*
X166894497Y-78024257D01*
X166652141Y-77923622D01*
X164634400Y-75905882D01*
X164769015Y-75996072D01*
X164769719Y-75996213D01*
X164770316Y-75996612D01*
X164984969Y-76039309D01*
X165200191Y-76082399D01*
X172748862Y-76091835D01*
X172753634Y-76092749D01*
X172862355Y-76091977D01*
X173346087Y-76092582D01*
X173592464Y-76194886D01*
X174080595Y-76195312D01*
X174157061Y-76163717D01*
X174354464Y-76245686D01*
X174842595Y-76246112D01*
X175041702Y-76163842D01*
X175116464Y-76194886D01*
X175604595Y-76195312D01*
X176055731Y-76008906D01*
X176340366Y-75724767D01*
X184827738Y-75724767D01*
X184969783Y-76068543D01*
X185002900Y-76101718D01*
X185002900Y-80260293D01*
X184996108Y-80267073D01*
X184853462Y-80610601D01*
X184853138Y-80982567D01*
X184995183Y-81326343D01*
X185257973Y-81589592D01*
X185601501Y-81732238D01*
X185973467Y-81732562D01*
X186317243Y-81590517D01*
X186580492Y-81327727D01*
X186723138Y-80984199D01*
X186723161Y-80957167D01*
X188548838Y-80957167D01*
X188690883Y-81300943D01*
X188953673Y-81564192D01*
X189297201Y-81706838D01*
X189669167Y-81707162D01*
X190012943Y-81565117D01*
X190276192Y-81302327D01*
X190418838Y-80958799D01*
X190419162Y-80586833D01*
X190277117Y-80243057D01*
X190269400Y-80235327D01*
X190269400Y-77096367D01*
X202468038Y-77096367D01*
X202610083Y-77440143D01*
X202732100Y-77562373D01*
X202732100Y-78837937D01*
X202699908Y-78870073D01*
X202557262Y-79213601D01*
X202556938Y-79585567D01*
X202698983Y-79929343D01*
X202961773Y-80192592D01*
X203305301Y-80335238D01*
X203677267Y-80335562D01*
X204021043Y-80193517D01*
X204284292Y-79930727D01*
X204426938Y-79587199D01*
X204427262Y-79215233D01*
X204285217Y-78871457D01*
X204252100Y-78838282D01*
X204252100Y-77883767D01*
X208627538Y-77883767D01*
X208769583Y-78227543D01*
X208808530Y-78266558D01*
X208847707Y-82056909D01*
X208770508Y-82133973D01*
X208627862Y-82477501D01*
X208627538Y-82849467D01*
X208769583Y-83193243D01*
X209032373Y-83456492D01*
X209375901Y-83599138D01*
X209747867Y-83599462D01*
X210091643Y-83457417D01*
X210354892Y-83194627D01*
X210497538Y-82851099D01*
X210497862Y-82479133D01*
X210368926Y-82167083D01*
X210328494Y-78255279D01*
X210354892Y-78228927D01*
X210497538Y-77885399D01*
X210497862Y-77513433D01*
X210355817Y-77169657D01*
X210093027Y-76906408D01*
X209749499Y-76763762D01*
X209377533Y-76763438D01*
X209033757Y-76905483D01*
X208770508Y-77168273D01*
X208627862Y-77511801D01*
X208627538Y-77883767D01*
X204252100Y-77883767D01*
X204252100Y-77304960D01*
X204338038Y-77097999D01*
X204338362Y-76726033D01*
X204196317Y-76382257D01*
X203933527Y-76119008D01*
X203589999Y-75976362D01*
X203218033Y-75976038D01*
X202874257Y-76118083D01*
X202611008Y-76380873D01*
X202468362Y-76724401D01*
X202468038Y-77096367D01*
X190269400Y-77096367D01*
X190269400Y-76406863D01*
X190301592Y-76374727D01*
X190444238Y-76031199D01*
X190444562Y-75659233D01*
X190302517Y-75315457D01*
X190039727Y-75052208D01*
X189696199Y-74909562D01*
X189324233Y-74909238D01*
X188980457Y-75051283D01*
X188717208Y-75314073D01*
X188574562Y-75657601D01*
X188574238Y-76029567D01*
X188716283Y-76373343D01*
X188749400Y-76406518D01*
X188749400Y-80184181D01*
X188691808Y-80241673D01*
X188549162Y-80585201D01*
X188548838Y-80957167D01*
X186723161Y-80957167D01*
X186723462Y-80612233D01*
X186581417Y-80268457D01*
X186522900Y-80209838D01*
X186522900Y-76102063D01*
X186555092Y-76069927D01*
X186697738Y-75726399D01*
X186698062Y-75354433D01*
X186556017Y-75010657D01*
X186293227Y-74747408D01*
X185949699Y-74604762D01*
X185577733Y-74604438D01*
X185233957Y-74746483D01*
X184970708Y-75009273D01*
X184828062Y-75352801D01*
X184827738Y-75724767D01*
X176340366Y-75724767D01*
X176401193Y-75664047D01*
X176588386Y-75213236D01*
X176588812Y-74725105D01*
X176402406Y-74273969D01*
X176057547Y-73928507D01*
X175606736Y-73741314D01*
X175118605Y-73740888D01*
X174919498Y-73823158D01*
X174844736Y-73792114D01*
X174356605Y-73791688D01*
X174280139Y-73823283D01*
X174082736Y-73741314D01*
X173594605Y-73740888D01*
X173368471Y-73834325D01*
X172855630Y-73837967D01*
X165669002Y-73828984D01*
X163888300Y-72048282D01*
X163888300Y-69186819D01*
X164128743Y-68826970D01*
X164241410Y-68260556D01*
X164241410Y-66664244D01*
X166758690Y-66664244D01*
X166758690Y-68260556D01*
X166871357Y-68826970D01*
X167111800Y-69186819D01*
X167111800Y-69923353D01*
X167012014Y-70163664D01*
X167011588Y-70651795D01*
X167111800Y-70894326D01*
X167111800Y-70894347D01*
X167035514Y-71078064D01*
X167035088Y-71566195D01*
X167100394Y-71724246D01*
X167010114Y-71941664D01*
X167009688Y-72429795D01*
X167196094Y-72880931D01*
X167540953Y-73226393D01*
X167991764Y-73413586D01*
X168479895Y-73414012D01*
X168931031Y-73227606D01*
X169276493Y-72882747D01*
X169463686Y-72431936D01*
X169464112Y-71943805D01*
X169398806Y-71785754D01*
X169489086Y-71568336D01*
X169489214Y-71421120D01*
X169573127Y-71624203D01*
X169499314Y-71801964D01*
X169498888Y-72290095D01*
X169685294Y-72741231D01*
X170030153Y-73086693D01*
X170480964Y-73273886D01*
X170969095Y-73274312D01*
X171420231Y-73087906D01*
X171765693Y-72743047D01*
X171952886Y-72292236D01*
X171953312Y-71804105D01*
X171866373Y-71593697D01*
X171940186Y-71415936D01*
X171940612Y-70927805D01*
X171865800Y-70746747D01*
X171865800Y-70513247D01*
X171965586Y-70272936D01*
X171966012Y-69784805D01*
X171865800Y-69542274D01*
X171865800Y-69186819D01*
X171988800Y-69002736D01*
X172111800Y-69186819D01*
X172111800Y-69910653D01*
X172012014Y-70150964D01*
X172011588Y-70639095D01*
X172111800Y-70881626D01*
X172111800Y-70954298D01*
X172039314Y-71128864D01*
X172038888Y-71616995D01*
X172088412Y-71736852D01*
X172013914Y-71916264D01*
X172013488Y-72404395D01*
X172199894Y-72855531D01*
X172544753Y-73200993D01*
X172995564Y-73388186D01*
X173483695Y-73388612D01*
X173934831Y-73202206D01*
X174280293Y-72857347D01*
X174467486Y-72406536D01*
X174467912Y-71918405D01*
X174418388Y-71798548D01*
X174492886Y-71619136D01*
X174493312Y-71131005D01*
X174378049Y-70852048D01*
X174465586Y-70641236D01*
X174466012Y-70153105D01*
X174365800Y-69910574D01*
X174365800Y-69186819D01*
X174508800Y-68972804D01*
X174651800Y-69186819D01*
X174651800Y-70572000D01*
X174668071Y-70653797D01*
X174663958Y-70737095D01*
X174710575Y-70867480D01*
X174737588Y-71003284D01*
X174783921Y-71072626D01*
X174807595Y-71138841D01*
X174807488Y-71261395D01*
X174993894Y-71712531D01*
X175217962Y-71936991D01*
X175387594Y-72347531D01*
X175671134Y-72631566D01*
X175671088Y-72683795D01*
X175857494Y-73134931D01*
X176202353Y-73480393D01*
X176653164Y-73667586D01*
X177141295Y-73668012D01*
X177592431Y-73481606D01*
X177937893Y-73136747D01*
X178125086Y-72685936D01*
X178125512Y-72197805D01*
X177939106Y-71746669D01*
X177655566Y-71462634D01*
X177655612Y-71410405D01*
X177469206Y-70959269D01*
X177245138Y-70734809D01*
X177075506Y-70324269D01*
X176905800Y-70154266D01*
X176905800Y-69186819D01*
X177146243Y-68826970D01*
X177258910Y-68260556D01*
X177258910Y-67468750D01*
X183784240Y-67468750D01*
X183784240Y-68223130D01*
X183938504Y-68744669D01*
X184280610Y-69167474D01*
X184758475Y-69427177D01*
X184830676Y-69441533D01*
X185045350Y-69318912D01*
X185045350Y-67468750D01*
X183784240Y-67468750D01*
X177258910Y-67468750D01*
X177258910Y-66664244D01*
X177218357Y-66460370D01*
X183784240Y-66460370D01*
X183784240Y-67214750D01*
X185045350Y-67214750D01*
X185045350Y-65364588D01*
X184830676Y-65241967D01*
X184758475Y-65256323D01*
X184280610Y-65516026D01*
X183938504Y-65938831D01*
X183784240Y-66460370D01*
X177218357Y-66460370D01*
X177146243Y-66097830D01*
X176825396Y-65617648D01*
X176345214Y-65296801D01*
X175778800Y-65184134D01*
X175212386Y-65296801D01*
X174732204Y-65617648D01*
X174508800Y-65951996D01*
X174285396Y-65617648D01*
X173805214Y-65296801D01*
X173238800Y-65184134D01*
X172672386Y-65296801D01*
X172192204Y-65617648D01*
X171988800Y-65922064D01*
X171785396Y-65617648D01*
X171305214Y-65296801D01*
X170738800Y-65184134D01*
X170172386Y-65296801D01*
X169692204Y-65617648D01*
X169488800Y-65922064D01*
X169285396Y-65617648D01*
X168805214Y-65296801D01*
X168238800Y-65184134D01*
X167672386Y-65296801D01*
X167192204Y-65617648D01*
X166871357Y-66097830D01*
X166758690Y-66664244D01*
X164241410Y-66664244D01*
X164128743Y-66097830D01*
X163807896Y-65617648D01*
X163327714Y-65296801D01*
X162761300Y-65184134D01*
X162194886Y-65296801D01*
X161714704Y-65617648D01*
X161491300Y-65951996D01*
X161267896Y-65617648D01*
X160787714Y-65296801D01*
X160221300Y-65184134D01*
X159654886Y-65296801D01*
X159174704Y-65617648D01*
X158971300Y-65922064D01*
X158767896Y-65617648D01*
X158287714Y-65296801D01*
X157721300Y-65184134D01*
X157154886Y-65296801D01*
X156674704Y-65617648D01*
X156471300Y-65922064D01*
X156267896Y-65617648D01*
X155787714Y-65296801D01*
X155221300Y-65184134D01*
X154654886Y-65296801D01*
X154174704Y-65617648D01*
X153853857Y-66097830D01*
X153741190Y-66664244D01*
X153741190Y-68260556D01*
X153853857Y-68826970D01*
X154090800Y-69181581D01*
X153584654Y-69687727D01*
X153344169Y-69787094D01*
X152998707Y-70131953D01*
X152916108Y-70330874D01*
X152886155Y-70360827D01*
X152645669Y-70460194D01*
X152300207Y-70805053D01*
X152202012Y-71041532D01*
X152010669Y-71120594D01*
X151665207Y-71465453D01*
X151478014Y-71916264D01*
X151477588Y-72404395D01*
X151663994Y-72855531D01*
X152008853Y-73200993D01*
X152459664Y-73388186D01*
X152947795Y-73388612D01*
X153398931Y-73202206D01*
X153744393Y-72857347D01*
X153842588Y-72620868D01*
X154033931Y-72541806D01*
X154379393Y-72196947D01*
X154461992Y-71998026D01*
X154491946Y-71968073D01*
X154732431Y-71868706D01*
X155077893Y-71523847D01*
X155178528Y-71281490D01*
X156018209Y-70441810D01*
X156262512Y-70076185D01*
X156277952Y-69998560D01*
X156348300Y-69644900D01*
X156348300Y-69186819D01*
X156471300Y-69002736D01*
X156594300Y-69186819D01*
X156594300Y-71796181D01*
X152276555Y-76113927D01*
X152036069Y-76213294D01*
X151690607Y-76558153D01*
X151640973Y-76677686D01*
X151566169Y-76708594D01*
X151220707Y-77053453D01*
X151138108Y-77252374D01*
X151057355Y-77333127D01*
X150816869Y-77432494D01*
X150471407Y-77777353D01*
X150284214Y-78228164D01*
X150283788Y-78716295D01*
X118830671Y-78716295D01*
X118780910Y-78466134D01*
X118352350Y-77824750D01*
X117980109Y-77576026D01*
X117962010Y-77485035D01*
X117533450Y-76843650D01*
X116892065Y-76415090D01*
X116135500Y-76264600D01*
X114335910Y-76264600D01*
X114223800Y-76242300D01*
X113467235Y-76392790D01*
X113458603Y-76398557D01*
X113430965Y-76380090D01*
X112674400Y-76229600D01*
X110236000Y-76229600D01*
X109479435Y-76380090D01*
X109045397Y-76670105D01*
X108630365Y-76392790D01*
X107873800Y-76242300D01*
X101053900Y-76242300D01*
X100297334Y-76392790D01*
X99655950Y-76821350D01*
X97242950Y-79234350D01*
X96814390Y-79875735D01*
X96663900Y-80632300D01*
X92388500Y-80632300D01*
X92388500Y-72681455D01*
X93457173Y-72681455D01*
X93723732Y-73260826D01*
X94191716Y-73694087D01*
X94666446Y-73890719D01*
X94919800Y-73771365D01*
X94919800Y-72428100D01*
X95173800Y-72428100D01*
X95173800Y-73771365D01*
X95427154Y-73890719D01*
X95901884Y-73694087D01*
X96369868Y-73260826D01*
X96636427Y-72681455D01*
X96517607Y-72428100D01*
X95173800Y-72428100D01*
X94919800Y-72428100D01*
X93575993Y-72428100D01*
X93457173Y-72681455D01*
X92388500Y-72681455D01*
X92388500Y-68761610D01*
X93399870Y-68761610D01*
X93399870Y-70760590D01*
X93444148Y-70995907D01*
X93583220Y-71212031D01*
X93744449Y-71322194D01*
X93723732Y-71341374D01*
X93457173Y-71920745D01*
X93575993Y-72174100D01*
X94919800Y-72174100D01*
X94919800Y-72154100D01*
X95173800Y-72154100D01*
X95173800Y-72174100D01*
X96517607Y-72174100D01*
X96636427Y-71920745D01*
X96369868Y-71341374D01*
X96347937Y-71321070D01*
X96444739Y-71258779D01*
X97206076Y-71269955D01*
X97833535Y-71689210D01*
X98590100Y-71839700D01*
X100406200Y-71839700D01*
X101162765Y-71689210D01*
X101187250Y-71672850D01*
X101211735Y-71689210D01*
X101968300Y-71839700D01*
X102724865Y-71689210D01*
X103366250Y-71260650D01*
X103759950Y-70866950D01*
X104188510Y-70225565D01*
X104339000Y-69469000D01*
X104188510Y-68712435D01*
X103759950Y-68071050D01*
X103118565Y-67642490D01*
X102362000Y-67492000D01*
X101605435Y-67642490D01*
X101049839Y-68013728D01*
X100406200Y-67885700D01*
X98590100Y-67885700D01*
X97833535Y-68036190D01*
X97410816Y-68318642D01*
X96503284Y-68305320D01*
X96298180Y-68165179D01*
X96046290Y-68114170D01*
X94047310Y-68114170D01*
X93811993Y-68158448D01*
X93595869Y-68297520D01*
X93450879Y-68509720D01*
X93399870Y-68761610D01*
X92388500Y-68761610D01*
X92388500Y-68463980D01*
X95908679Y-64943800D01*
X123322006Y-64943800D01*
X123154093Y-64977200D01*
X122703758Y-65278104D01*
X122402854Y-65728439D01*
X122297190Y-66259646D01*
X122297190Y-67852354D01*
X122402854Y-68383561D01*
X122703758Y-68833896D01*
X122800300Y-68898403D01*
X122800300Y-69441578D01*
X122750462Y-69561601D01*
X122750138Y-69933567D01*
X122800300Y-70054969D01*
X122800300Y-70094463D01*
X122763162Y-70183901D01*
X122762838Y-70555867D01*
X122766801Y-70565458D01*
X122661562Y-70818901D01*
X122661238Y-71190867D01*
X122803283Y-71534643D01*
X123066073Y-71797892D01*
X123409601Y-71940538D01*
X123781567Y-71940862D01*
X124125343Y-71798817D01*
X124388592Y-71536027D01*
X124531238Y-71192499D01*
X124531307Y-71112832D01*
X124570301Y-70916800D01*
X124570300Y-70916795D01*
X124570300Y-70708106D01*
X124632838Y-70557499D01*
X124633162Y-70185533D01*
X124574820Y-70044335D01*
X124620138Y-69935199D01*
X124620462Y-69563233D01*
X124570300Y-69441831D01*
X124570300Y-68898403D01*
X124666842Y-68833896D01*
X124935300Y-68432120D01*
X125203758Y-68833896D01*
X125300300Y-68898403D01*
X125300300Y-70330695D01*
X125300299Y-70330700D01*
X125354454Y-70602948D01*
X125367667Y-70669375D01*
X125390271Y-70703205D01*
X125315862Y-70882401D01*
X125315538Y-71254367D01*
X125372323Y-71391798D01*
X125341262Y-71466601D01*
X125340938Y-71838567D01*
X125450367Y-72103405D01*
X125471167Y-72207975D01*
X125663010Y-72495090D01*
X125950125Y-72686933D01*
X126288800Y-72754300D01*
X126627475Y-72686933D01*
X126914590Y-72495090D01*
X127106433Y-72207975D01*
X127150762Y-71985117D01*
X127210938Y-71840199D01*
X127211262Y-71468233D01*
X127154477Y-71330802D01*
X127185538Y-71255999D01*
X127185652Y-71124959D01*
X127211901Y-70993000D01*
X127211900Y-70992995D01*
X127211900Y-70779122D01*
X127261738Y-70659099D01*
X127262062Y-70287133D01*
X127120017Y-69943357D01*
X127070300Y-69893553D01*
X127070300Y-68898403D01*
X127166842Y-68833896D01*
X127467746Y-68383561D01*
X127573410Y-67852354D01*
X127573410Y-66259646D01*
X127467746Y-65728439D01*
X127166842Y-65278104D01*
X127023914Y-65182603D01*
X127002933Y-65077126D01*
X127002933Y-65077125D01*
X126811090Y-64790010D01*
X126811087Y-64790008D01*
X125454090Y-63433010D01*
X125166975Y-63241167D01*
X125110784Y-63229990D01*
X124828300Y-63173799D01*
X124828295Y-63173800D01*
X95542105Y-63173800D01*
X95542100Y-63173799D01*
X95259616Y-63229990D01*
X95203425Y-63241167D01*
X94916310Y-63433010D01*
X94916308Y-63433013D01*
X90877710Y-67471610D01*
X90685867Y-67758725D01*
X90685867Y-67758726D01*
X90618499Y-68097400D01*
X90347000Y-68097400D01*
X90347000Y-62673700D01*
X138480331Y-62673700D01*
X138222008Y-62931573D01*
X138222008Y-62931573D01*
G37*
X138222008Y-62931573D02*
X138171634Y-63052886D01*
X138058210Y-63166310D01*
X137981489Y-63281132D01*
X137385110Y-63877510D01*
X137193267Y-64164625D01*
X137193267Y-64164626D01*
X137125899Y-64503300D01*
X137125900Y-64503305D01*
X137125900Y-65569197D01*
X137029358Y-65633704D01*
X136728454Y-66084039D01*
X136622790Y-66615246D01*
X136622790Y-68207954D01*
X136728454Y-68739161D01*
X137029358Y-69189496D01*
X137479693Y-69490400D01*
X138010900Y-69596064D01*
X138542107Y-69490400D01*
X138992442Y-69189496D01*
X139280900Y-68757788D01*
X139569358Y-69189496D01*
X140019693Y-69490400D01*
X140550900Y-69596064D01*
X140756138Y-69555240D01*
X140898478Y-69697580D01*
X140898438Y-69743067D01*
X141040483Y-70086843D01*
X141303273Y-70350092D01*
X141646801Y-70492738D01*
X142018767Y-70493062D01*
X142362543Y-70351017D01*
X142625792Y-70088227D01*
X142768438Y-69744699D01*
X142768651Y-69500288D01*
X142963900Y-69388762D01*
X142963900Y-67538600D01*
X143217900Y-67538600D01*
X143217900Y-69388762D01*
X143432574Y-69511383D01*
X143504775Y-69497027D01*
X143982640Y-69237324D01*
X144324746Y-68814519D01*
X144479010Y-68292980D01*
X144479010Y-67538600D01*
X143217900Y-67538600D01*
X142963900Y-67538600D01*
X142943900Y-67538600D01*
X142943900Y-67284600D01*
X142963900Y-67284600D01*
X142963900Y-65434438D01*
X143217900Y-65434438D01*
X143217900Y-67284600D01*
X144479010Y-67284600D01*
X144479010Y-66530220D01*
X144324746Y-66008681D01*
X144243013Y-65907667D01*
X150169438Y-65907667D01*
X150311483Y-66251443D01*
X150574273Y-66514692D01*
X150917801Y-66657338D01*
X151289767Y-66657662D01*
X151633543Y-66515617D01*
X151896792Y-66252827D01*
X152039438Y-65909299D01*
X152039463Y-65880376D01*
X152940825Y-65019074D01*
X153270967Y-65019362D01*
X153614743Y-64877317D01*
X153877992Y-64614527D01*
X154020638Y-64270999D01*
X154020962Y-63899033D01*
X153878917Y-63555257D01*
X153616127Y-63292008D01*
X153272599Y-63149362D01*
X152900633Y-63149038D01*
X152556857Y-63291083D01*
X152345658Y-63501914D01*
X152294048Y-63534727D01*
X150983118Y-64787393D01*
X150919433Y-64787338D01*
X150575657Y-64929383D01*
X150312408Y-65192173D01*
X150169762Y-65535701D01*
X150169438Y-65907667D01*
X144243013Y-65907667D01*
X143982640Y-65585876D01*
X143504775Y-65326173D01*
X143432574Y-65311817D01*
X143217900Y-65434438D01*
X142963900Y-65434438D01*
X142749226Y-65311817D01*
X142677025Y-65326173D01*
X142199160Y-65585876D01*
X141857054Y-66008681D01*
X141833916Y-66086906D01*
X141833346Y-66084039D01*
X141532442Y-65633704D01*
X141082107Y-65332800D01*
X140550900Y-65227136D01*
X140019693Y-65332800D01*
X139569358Y-65633704D01*
X139280900Y-66065412D01*
X138992442Y-65633704D01*
X138895900Y-65569197D01*
X138895900Y-64869880D01*
X139309787Y-64455992D01*
X139309790Y-64455990D01*
X139386510Y-64341170D01*
X139423035Y-64304644D01*
X139543143Y-64255017D01*
X139692821Y-64105600D01*
X139827000Y-64105600D01*
X140165675Y-64038233D01*
X140452790Y-63846390D01*
X140644633Y-63559275D01*
X140712000Y-63220600D01*
X140644633Y-62881925D01*
X140505502Y-62673700D01*
X189897640Y-62673700D01*
X189783967Y-62843825D01*
X189716600Y-63182500D01*
X189783967Y-63521175D01*
X189975810Y-63808290D01*
X190262925Y-64000133D01*
X190601600Y-64067500D01*
X190616224Y-64067500D01*
X190621283Y-64079743D01*
X190884073Y-64342992D01*
X191005387Y-64393366D01*
X191118635Y-64506614D01*
X191144210Y-64544890D01*
X191334362Y-64735041D01*
X191372020Y-64791400D01*
X191385510Y-64811590D01*
X191907350Y-65333429D01*
X191907350Y-65499347D01*
X191810808Y-65563854D01*
X191509904Y-66014189D01*
X191502350Y-66052165D01*
X191494796Y-66014189D01*
X191193892Y-65563854D01*
X190743557Y-65262950D01*
X190212350Y-65157286D01*
X189681143Y-65262950D01*
X189230808Y-65563854D01*
X188962350Y-65965630D01*
X188693892Y-65563854D01*
X188472350Y-65415824D01*
X188472350Y-64649350D01*
X188463992Y-64607333D01*
X188467615Y-64564647D01*
X188435295Y-64463063D01*
X188414498Y-64358511D01*
X188390698Y-64322891D01*
X188377709Y-64282067D01*
X188308975Y-64200584D01*
X188249751Y-64111949D01*
X188214131Y-64088149D01*
X188186509Y-64055403D01*
X187866735Y-63800121D01*
X187749817Y-63517157D01*
X187487027Y-63253908D01*
X187143499Y-63111262D01*
X186771533Y-63110938D01*
X186427757Y-63252983D01*
X186164508Y-63515773D01*
X186021862Y-63859301D01*
X186021538Y-64231267D01*
X186163583Y-64575043D01*
X186426373Y-64838292D01*
X186769901Y-64980938D01*
X186909704Y-64981060D01*
X186952350Y-65015105D01*
X186952350Y-65415824D01*
X186730808Y-65563854D01*
X186429904Y-66014189D01*
X186429334Y-66017056D01*
X186406196Y-65938831D01*
X186064090Y-65516026D01*
X185586225Y-65256323D01*
X185514024Y-65241967D01*
X185299350Y-65364588D01*
X185299350Y-67214750D01*
X185319350Y-67214750D01*
X185319350Y-67468750D01*
X185299350Y-67468750D01*
X185299350Y-69318912D01*
X185514024Y-69441533D01*
X185586225Y-69427177D01*
X186064090Y-69167474D01*
X186406196Y-68744669D01*
X186429334Y-68666444D01*
X186429904Y-68669311D01*
X186730808Y-69119646D01*
X187181143Y-69420550D01*
X187712350Y-69526214D01*
X188243557Y-69420550D01*
X188693892Y-69119646D01*
X188962350Y-68717870D01*
X189230808Y-69119646D01*
X189452350Y-69267676D01*
X189452350Y-69359251D01*
X189441108Y-69370473D01*
X189298462Y-69714001D01*
X189298138Y-70085967D01*
X189440183Y-70429743D01*
X189702973Y-70692992D01*
X190046501Y-70835638D01*
X190418467Y-70835962D01*
X190762243Y-70693917D01*
X191025492Y-70431127D01*
X191168138Y-70087599D01*
X191168462Y-69715633D01*
X191026417Y-69371857D01*
X190972350Y-69317696D01*
X190972350Y-69267676D01*
X191193892Y-69119646D01*
X191494796Y-68669311D01*
X191502350Y-68631335D01*
X191509904Y-68669311D01*
X191810808Y-69119646D01*
X192029950Y-69266072D01*
X191901962Y-69574301D01*
X191901638Y-69946267D01*
X192043683Y-70290043D01*
X192306473Y-70553292D01*
X192650001Y-70695938D01*
X193021967Y-70696262D01*
X193365743Y-70554217D01*
X193628992Y-70291427D01*
X193771638Y-69947899D01*
X193771962Y-69575933D01*
X193629917Y-69232157D01*
X193620150Y-69222373D01*
X193773892Y-69119646D01*
X194062350Y-68687938D01*
X194350808Y-69119646D01*
X194521927Y-69233984D01*
X194391162Y-69548901D01*
X194390838Y-69920867D01*
X194532883Y-70264643D01*
X194795673Y-70527892D01*
X195139201Y-70670538D01*
X195511167Y-70670862D01*
X195854943Y-70528817D01*
X196118192Y-70266027D01*
X196260838Y-69922499D01*
X196261162Y-69550533D01*
X196133051Y-69240480D01*
X196313892Y-69119646D01*
X196582350Y-68717870D01*
X196850808Y-69119646D01*
X197060739Y-69259917D01*
X196956562Y-69510801D01*
X196956238Y-69882767D01*
X197098283Y-70226543D01*
X197361073Y-70489792D01*
X197704601Y-70632438D01*
X198076567Y-70632762D01*
X198420343Y-70490717D01*
X198683592Y-70227927D01*
X198826238Y-69884399D01*
X198826562Y-69512433D01*
X198696638Y-69197992D01*
X198813892Y-69119646D01*
X199114796Y-68669311D01*
X199122350Y-68631335D01*
X199129904Y-68669311D01*
X199430808Y-69119646D01*
X199593671Y-69228468D01*
X199471162Y-69523501D01*
X199470838Y-69895467D01*
X199612883Y-70239243D01*
X199875673Y-70502492D01*
X200219201Y-70645138D01*
X200591167Y-70645462D01*
X200934943Y-70503417D01*
X201198192Y-70240627D01*
X201340838Y-69897099D01*
X201341162Y-69525133D01*
X201221275Y-69234985D01*
X201393892Y-69119646D01*
X201682350Y-68687938D01*
X201970808Y-69119646D01*
X202141927Y-69233984D01*
X202011162Y-69548901D01*
X202010838Y-69920867D01*
X202152883Y-70264643D01*
X202415673Y-70527892D01*
X202759201Y-70670538D01*
X203131167Y-70670862D01*
X203474943Y-70528817D01*
X203738192Y-70266027D01*
X203880838Y-69922499D01*
X203881162Y-69550533D01*
X203753051Y-69240480D01*
X203933892Y-69119646D01*
X204202350Y-68717870D01*
X204470808Y-69119646D01*
X204648282Y-69238230D01*
X204630308Y-69256173D01*
X204487662Y-69599701D01*
X204487338Y-69971667D01*
X204629383Y-70315443D01*
X204892173Y-70578692D01*
X205235701Y-70721338D01*
X205607667Y-70721662D01*
X205951443Y-70579617D01*
X206214692Y-70316827D01*
X206357338Y-69973299D01*
X206357662Y-69601333D01*
X206218187Y-69263776D01*
X206433892Y-69119646D01*
X206734796Y-68669311D01*
X206735366Y-68666444D01*
X206758504Y-68744669D01*
X207100610Y-69167474D01*
X207578475Y-69427177D01*
X207650676Y-69441533D01*
X207865350Y-69318912D01*
X207865350Y-67468750D01*
X208119350Y-67468750D01*
X208119350Y-69318912D01*
X208334024Y-69441533D01*
X208406225Y-69427177D01*
X208884090Y-69167474D01*
X209226196Y-68744669D01*
X209380460Y-68223130D01*
X209380460Y-67468750D01*
X208119350Y-67468750D01*
X207865350Y-67468750D01*
X207845350Y-67468750D01*
X207845350Y-67214750D01*
X207865350Y-67214750D01*
X207865350Y-65364588D01*
X208119350Y-65364588D01*
X208119350Y-67214750D01*
X209380460Y-67214750D01*
X209380460Y-66460370D01*
X209226196Y-65938831D01*
X208884090Y-65516026D01*
X208406225Y-65256323D01*
X208334024Y-65241967D01*
X208119350Y-65364588D01*
X207865350Y-65364588D01*
X207650676Y-65241967D01*
X207578475Y-65256323D01*
X207100610Y-65516026D01*
X206758504Y-65938831D01*
X206735366Y-66017056D01*
X206734796Y-66014189D01*
X206433892Y-65563854D01*
X205983557Y-65262950D01*
X205452350Y-65157286D01*
X204921143Y-65262950D01*
X204470808Y-65563854D01*
X204202350Y-65965630D01*
X203933892Y-65563854D01*
X203483557Y-65262950D01*
X202952350Y-65157286D01*
X202421143Y-65262950D01*
X201970808Y-65563854D01*
X201682350Y-65995562D01*
X201393892Y-65563854D01*
X200943557Y-65262950D01*
X200412350Y-65157286D01*
X199881143Y-65262950D01*
X199430808Y-65563854D01*
X199129904Y-66014189D01*
X199122350Y-66052165D01*
X199114796Y-66014189D01*
X198813892Y-65563854D01*
X198363557Y-65262950D01*
X197832350Y-65157286D01*
X197301143Y-65262950D01*
X196850808Y-65563854D01*
X196582350Y-65965630D01*
X196313892Y-65563854D01*
X195863557Y-65262950D01*
X195332350Y-65157286D01*
X194801143Y-65262950D01*
X194350808Y-65563854D01*
X194062350Y-65995562D01*
X193773892Y-65563854D01*
X193707313Y-65519367D01*
X194388955Y-64837724D01*
X194428001Y-64853938D01*
X194799967Y-64854262D01*
X194868543Y-64825927D01*
X194936001Y-64853938D01*
X195307967Y-64854262D01*
X195460105Y-64791400D01*
X195491100Y-64791400D01*
X195829775Y-64724033D01*
X196116890Y-64532190D01*
X196308733Y-64245075D01*
X196376100Y-63906400D01*
X196308733Y-63567725D01*
X196116890Y-63280610D01*
X195829775Y-63088767D01*
X195491100Y-63021400D01*
X195399037Y-63021400D01*
X195309599Y-62984262D01*
X194937633Y-62983938D01*
X194869057Y-63012273D01*
X194801599Y-62984262D01*
X194429633Y-62983938D01*
X194335594Y-63022794D01*
X194242799Y-62984262D01*
X193870833Y-62983938D01*
X193527057Y-63125983D01*
X193263808Y-63388773D01*
X193213434Y-63510087D01*
X192900300Y-63823220D01*
X192688236Y-63611157D01*
X192637090Y-63534610D01*
X192637087Y-63534608D01*
X192421363Y-63318883D01*
X192395790Y-63280610D01*
X192395787Y-63280608D01*
X192257145Y-63141965D01*
X192207517Y-63021857D01*
X191944727Y-62758608D01*
X191814774Y-62704647D01*
X191801987Y-62673700D01*
X213881500Y-62673700D01*
X213881500Y-128347000D01*
X90347000Y-128347000D01*
X90347000Y-126074123D01*
X90686227Y-126895115D01*
X91567347Y-127777774D01*
X92719174Y-128256054D01*
X93966354Y-128257143D01*
X95119015Y-127780873D01*
X96001674Y-126899753D01*
X96479954Y-125747926D01*
X96481043Y-124500746D01*
X96004773Y-123348085D01*
X95123653Y-122465426D01*
X93971826Y-121987146D01*
X92724646Y-121986057D01*
X91571985Y-122462327D01*
X90689326Y-123343447D01*
X90347000Y-124167860D01*
X90347000Y-68097400D01*
X90618499Y-68097400D01*
X90618500Y-68097405D01*
X90618500Y-116852695D01*
X90618499Y-116852700D01*
X90664708Y-117085001D01*
X90685867Y-117191375D01*
X90739605Y-117271800D01*
X90877710Y-117478490D01*
X99132708Y-125733487D01*
X99132710Y-125733490D01*
X99419825Y-125925333D01*
X99476016Y-125936510D01*
X99758500Y-125992701D01*
X99758505Y-125992700D01*
X104491248Y-125992700D01*
X104550101Y-126017138D01*
X104922067Y-126017462D01*
X105265843Y-125875417D01*
X105529092Y-125612627D01*
X105661868Y-125292867D01*
X111510638Y-125292867D01*
X111652683Y-125636643D01*
X111915473Y-125899892D01*
X112259001Y-126042538D01*
X112630967Y-126042862D01*
X112974743Y-125900817D01*
X113237992Y-125638027D01*
X113288366Y-125516714D01*
X115047579Y-123757500D01*
X119392695Y-123757500D01*
X119392700Y-123757501D01*
X119675184Y-123701310D01*
X119731375Y-123690133D01*
X120018490Y-123498290D01*
X122405034Y-121111745D01*
X122525143Y-121062117D01*
X122788392Y-120799327D01*
X122931038Y-120455799D01*
X122931362Y-120083833D01*
X122900719Y-120009672D01*
X122901601Y-120010038D01*
X123273567Y-120010362D01*
X123527111Y-119905600D01*
X130020460Y-119905600D01*
X130020460Y-122105600D01*
X130064738Y-122340917D01*
X130203810Y-122557041D01*
X130416010Y-122702031D01*
X130667900Y-122753040D01*
X132467900Y-122753040D01*
X132703217Y-122708762D01*
X132919341Y-122569690D01*
X133064331Y-122357490D01*
X133115340Y-122105600D01*
X133115340Y-119905600D01*
X140620460Y-119905600D01*
X140620460Y-122105600D01*
X140664738Y-122340917D01*
X140803810Y-122557041D01*
X141016010Y-122702031D01*
X141267900Y-122753040D01*
X143067900Y-122753040D01*
X143303217Y-122708762D01*
X143519341Y-122569690D01*
X143664331Y-122357490D01*
X143715340Y-122105600D01*
X143715340Y-119905600D01*
X143672326Y-119677000D01*
X151864460Y-119677000D01*
X151864460Y-121877000D01*
X151908738Y-122112317D01*
X152047810Y-122328441D01*
X152260010Y-122473431D01*
X152511900Y-122524440D01*
X154311900Y-122524440D01*
X154547217Y-122480162D01*
X154763341Y-122341090D01*
X154908331Y-122128890D01*
X154959340Y-121877000D01*
X154959340Y-119677000D01*
X162464460Y-119677000D01*
X162464460Y-121877000D01*
X162508738Y-122112317D01*
X162647810Y-122328441D01*
X162860010Y-122473431D01*
X163111900Y-122524440D01*
X164911900Y-122524440D01*
X165147217Y-122480162D01*
X165363341Y-122341090D01*
X165508331Y-122128890D01*
X165559340Y-121877000D01*
X165559340Y-120185000D01*
X174102160Y-120185000D01*
X174102160Y-122385000D01*
X174146438Y-122620317D01*
X174285510Y-122836441D01*
X174497710Y-122981431D01*
X174749600Y-123032440D01*
X176549600Y-123032440D01*
X176784917Y-122988162D01*
X177001041Y-122849090D01*
X177146031Y-122636890D01*
X177197040Y-122385000D01*
X177197040Y-120185000D01*
X184702160Y-120185000D01*
X184702160Y-122385000D01*
X184746438Y-122620317D01*
X184885510Y-122836441D01*
X185097710Y-122981431D01*
X185349600Y-123032440D01*
X187149600Y-123032440D01*
X187384917Y-122988162D01*
X187601041Y-122849090D01*
X187746031Y-122636890D01*
X187797040Y-122385000D01*
X187797040Y-120185000D01*
X187773144Y-120058000D01*
X196111260Y-120058000D01*
X196111260Y-122258000D01*
X196155538Y-122493317D01*
X196294610Y-122709441D01*
X196506810Y-122854431D01*
X196758700Y-122905440D01*
X198558700Y-122905440D01*
X198794017Y-122861162D01*
X199010141Y-122722090D01*
X199155131Y-122509890D01*
X199206140Y-122258000D01*
X199206140Y-120058000D01*
X206711260Y-120058000D01*
X206711260Y-122258000D01*
X206755538Y-122493317D01*
X206894610Y-122709441D01*
X207106810Y-122854431D01*
X207358700Y-122905440D01*
X209158700Y-122905440D01*
X209394017Y-122861162D01*
X209610141Y-122722090D01*
X209755131Y-122509890D01*
X209806140Y-122258000D01*
X209806140Y-120058000D01*
X209761862Y-119822683D01*
X209622790Y-119606559D01*
X209410590Y-119461569D01*
X209158700Y-119410560D01*
X207358700Y-119410560D01*
X207123383Y-119454838D01*
X206907259Y-119593910D01*
X206762269Y-119806110D01*
X206711260Y-120058000D01*
X199206140Y-120058000D01*
X199161862Y-119822683D01*
X199022790Y-119606559D01*
X198810590Y-119461569D01*
X198558700Y-119410560D01*
X196758700Y-119410560D01*
X196523383Y-119454838D01*
X196307259Y-119593910D01*
X196162269Y-119806110D01*
X196111260Y-120058000D01*
X187773144Y-120058000D01*
X187752762Y-119949683D01*
X187613690Y-119733559D01*
X187401490Y-119588569D01*
X187149600Y-119537560D01*
X185349600Y-119537560D01*
X185114283Y-119581838D01*
X184898159Y-119720910D01*
X184753169Y-119933110D01*
X184702160Y-120185000D01*
X177197040Y-120185000D01*
X177152762Y-119949683D01*
X177013690Y-119733559D01*
X176801490Y-119588569D01*
X176549600Y-119537560D01*
X174749600Y-119537560D01*
X174514283Y-119581838D01*
X174298159Y-119720910D01*
X174153169Y-119933110D01*
X174102160Y-120185000D01*
X165559340Y-120185000D01*
X165559340Y-119677000D01*
X165515062Y-119441683D01*
X165375990Y-119225559D01*
X165163790Y-119080569D01*
X164911900Y-119029560D01*
X163111900Y-119029560D01*
X162876583Y-119073838D01*
X162660459Y-119212910D01*
X162515469Y-119425110D01*
X162464460Y-119677000D01*
X154959340Y-119677000D01*
X154915062Y-119441683D01*
X154775990Y-119225559D01*
X154563790Y-119080569D01*
X154311900Y-119029560D01*
X152511900Y-119029560D01*
X152276583Y-119073838D01*
X152060459Y-119212910D01*
X151915469Y-119425110D01*
X151864460Y-119677000D01*
X143672326Y-119677000D01*
X143671062Y-119670283D01*
X143531990Y-119454159D01*
X143319790Y-119309169D01*
X143067900Y-119258160D01*
X141267900Y-119258160D01*
X141032583Y-119302438D01*
X140816459Y-119441510D01*
X140671469Y-119653710D01*
X140620460Y-119905600D01*
X133115340Y-119905600D01*
X133071062Y-119670283D01*
X132931990Y-119454159D01*
X132719790Y-119309169D01*
X132467900Y-119258160D01*
X130667900Y-119258160D01*
X130432583Y-119302438D01*
X130216459Y-119441510D01*
X130071469Y-119653710D01*
X130020460Y-119905600D01*
X123527111Y-119905600D01*
X123617343Y-119868317D01*
X123880592Y-119605527D01*
X124023238Y-119261999D01*
X124023562Y-118890033D01*
X123881517Y-118546257D01*
X123618727Y-118283008D01*
X123275199Y-118140362D01*
X122903233Y-118140038D01*
X122559457Y-118282083D01*
X122526282Y-118315200D01*
X121453014Y-118315200D01*
X121154299Y-118191162D01*
X120782333Y-118190838D01*
X120438557Y-118332883D01*
X120175308Y-118595673D01*
X120032662Y-118939201D01*
X120032338Y-119311167D01*
X120174383Y-119654943D01*
X120437173Y-119918192D01*
X120780701Y-120060838D01*
X120952633Y-120060988D01*
X119026120Y-121987500D01*
X114681005Y-121987500D01*
X114681000Y-121987499D01*
X114342325Y-122054867D01*
X114055210Y-122246710D01*
X114055208Y-122246713D01*
X112036964Y-124264956D01*
X111916857Y-124314583D01*
X111653608Y-124577373D01*
X111510962Y-124920901D01*
X111510638Y-125292867D01*
X105661868Y-125292867D01*
X105671738Y-125269099D01*
X105672062Y-124897133D01*
X105530017Y-124553357D01*
X105267227Y-124290108D01*
X104923699Y-124147462D01*
X104551733Y-124147138D01*
X104368859Y-124222700D01*
X100125079Y-124222700D01*
X93359347Y-117456967D01*
X166438138Y-117456967D01*
X166580183Y-117800743D01*
X166842973Y-118063992D01*
X167186501Y-118206638D01*
X167558467Y-118206962D01*
X167902243Y-118064917D01*
X168126251Y-117841300D01*
X169096837Y-117841300D01*
X169128973Y-117873492D01*
X169472501Y-118016138D01*
X169844467Y-118016462D01*
X170188243Y-117874417D01*
X170451492Y-117611627D01*
X170594138Y-117268099D01*
X170594462Y-116896133D01*
X170452417Y-116552357D01*
X170189627Y-116289108D01*
X169846099Y-116146462D01*
X169474133Y-116146138D01*
X169130357Y-116288183D01*
X169097182Y-116321300D01*
X167563800Y-116321300D01*
X167485390Y-116336897D01*
X167188133Y-116336638D01*
X166844357Y-116478683D01*
X166581108Y-116741473D01*
X166438462Y-117085001D01*
X166438138Y-117456967D01*
X93359347Y-117456967D01*
X92388500Y-116486120D01*
X92388500Y-115323367D01*
X120121238Y-115323367D01*
X120263283Y-115667143D01*
X120526073Y-115930392D01*
X120869601Y-116073038D01*
X121241567Y-116073362D01*
X121585343Y-115931317D01*
X121656684Y-115860100D01*
X122589437Y-115860100D01*
X122621573Y-115892292D01*
X122965101Y-116034938D01*
X123337067Y-116035262D01*
X123680843Y-115893217D01*
X123944092Y-115630427D01*
X124086738Y-115286899D01*
X124086913Y-115085759D01*
X133467346Y-115085759D01*
X133553752Y-115342243D01*
X134127236Y-115552058D01*
X134737360Y-115526439D01*
X135182048Y-115342243D01*
X135268454Y-115085759D01*
X134367900Y-114185205D01*
X133467346Y-115085759D01*
X124086913Y-115085759D01*
X124087062Y-114914933D01*
X123945017Y-114571157D01*
X123682227Y-114307908D01*
X123338699Y-114165262D01*
X122966733Y-114164938D01*
X122622957Y-114306983D01*
X122589782Y-114340100D01*
X121572499Y-114340100D01*
X121243199Y-114203362D01*
X120871233Y-114203038D01*
X120527457Y-114345083D01*
X120264208Y-114607873D01*
X120121562Y-114951401D01*
X120121238Y-115323367D01*
X92388500Y-115323367D01*
X92388500Y-113764936D01*
X132821442Y-113764936D01*
X132847061Y-114375060D01*
X133031257Y-114819748D01*
X133287741Y-114906154D01*
X134188295Y-114005600D01*
X134547505Y-114005600D01*
X135448059Y-114906154D01*
X135563114Y-114867393D01*
X135565832Y-114873971D01*
X135997257Y-115306151D01*
X136561230Y-115540333D01*
X137171891Y-115540865D01*
X137736271Y-115307668D01*
X138118188Y-114926418D01*
X138497257Y-115306151D01*
X139061230Y-115540333D01*
X139671891Y-115540865D01*
X140097132Y-115365159D01*
X177549046Y-115365159D01*
X177635452Y-115621643D01*
X178208936Y-115831458D01*
X178819060Y-115805839D01*
X179263748Y-115621643D01*
X179350154Y-115365159D01*
X178449600Y-114464605D01*
X177549046Y-115365159D01*
X140097132Y-115365159D01*
X140236271Y-115307668D01*
X140668451Y-114876243D01*
X140676375Y-114857159D01*
X155311346Y-114857159D01*
X155397752Y-115113643D01*
X155971236Y-115323458D01*
X156581360Y-115297839D01*
X157026048Y-115113643D01*
X157112454Y-114857159D01*
X156211900Y-113956605D01*
X155311346Y-114857159D01*
X140676375Y-114857159D01*
X140902633Y-114312270D01*
X140903165Y-113701609D01*
X140857415Y-113590887D01*
X142369000Y-112079302D01*
X142369000Y-112760386D01*
X142244962Y-113059101D01*
X142244638Y-113431067D01*
X142386683Y-113774843D01*
X142649473Y-114038092D01*
X142993001Y-114180738D01*
X143364967Y-114181062D01*
X143708743Y-114039017D01*
X143971992Y-113776227D01*
X144071603Y-113536336D01*
X154665442Y-113536336D01*
X154691061Y-114146460D01*
X154875257Y-114591148D01*
X155131741Y-114677554D01*
X156032295Y-113777000D01*
X156391505Y-113777000D01*
X157292059Y-114677554D01*
X157407114Y-114638793D01*
X157409832Y-114645371D01*
X157841257Y-115077551D01*
X158405230Y-115311733D01*
X159015891Y-115312265D01*
X159580271Y-115079068D01*
X159962188Y-114697818D01*
X160341257Y-115077551D01*
X160905230Y-115311733D01*
X161515891Y-115312265D01*
X162080271Y-115079068D01*
X162512451Y-114647643D01*
X162746633Y-114083670D01*
X162747165Y-113473009D01*
X162701415Y-113362287D01*
X164670200Y-111393502D01*
X164670200Y-114007900D01*
X164674155Y-114027784D01*
X164671251Y-114047845D01*
X164702949Y-114172539D01*
X164728052Y-114298739D01*
X164739315Y-114315595D01*
X164744309Y-114335241D01*
X164821315Y-114438317D01*
X164876052Y-114520237D01*
X164876038Y-114535967D01*
X165018083Y-114879743D01*
X165280873Y-115142992D01*
X165624401Y-115285638D01*
X165996367Y-115285962D01*
X166340143Y-115143917D01*
X166603392Y-114881127D01*
X166746038Y-114537599D01*
X166746362Y-114165633D01*
X166696244Y-114044336D01*
X176903142Y-114044336D01*
X176928761Y-114654460D01*
X177112957Y-115099148D01*
X177369441Y-115185554D01*
X178269995Y-114285000D01*
X178629205Y-114285000D01*
X179529759Y-115185554D01*
X179644814Y-115146793D01*
X179647532Y-115153371D01*
X180078957Y-115585551D01*
X180642930Y-115819733D01*
X181253591Y-115820265D01*
X181817971Y-115587068D01*
X182199888Y-115205818D01*
X182578957Y-115585551D01*
X183142930Y-115819733D01*
X183753591Y-115820265D01*
X184317971Y-115587068D01*
X184667490Y-115238159D01*
X199558146Y-115238159D01*
X199644552Y-115494643D01*
X200218036Y-115704458D01*
X200828160Y-115678839D01*
X201272848Y-115494643D01*
X201359254Y-115238159D01*
X200458700Y-114337605D01*
X199558146Y-115238159D01*
X184667490Y-115238159D01*
X184750151Y-115155643D01*
X184984333Y-114591670D01*
X184984865Y-113981009D01*
X184939115Y-113870287D01*
X187022200Y-111787202D01*
X187022200Y-112587771D01*
X186910862Y-112855901D01*
X186910538Y-113227867D01*
X187052583Y-113571643D01*
X187315373Y-113834892D01*
X187658901Y-113977538D01*
X188030867Y-113977862D01*
X188177351Y-113917336D01*
X198912242Y-113917336D01*
X198937861Y-114527460D01*
X199122057Y-114972148D01*
X199378541Y-115058554D01*
X200279095Y-114158000D01*
X200638305Y-114158000D01*
X201538859Y-115058554D01*
X201653914Y-115019793D01*
X201656632Y-115026371D01*
X202088057Y-115458551D01*
X202652030Y-115692733D01*
X203262691Y-115693265D01*
X203827071Y-115460068D01*
X204208988Y-115078818D01*
X204588057Y-115458551D01*
X205152030Y-115692733D01*
X205762691Y-115693265D01*
X206327071Y-115460068D01*
X206759251Y-115028643D01*
X206993433Y-114464670D01*
X206993965Y-113854009D01*
X206948215Y-113743287D01*
X209134901Y-111556601D01*
X209299648Y-111310039D01*
X209357500Y-111019200D01*
X209357500Y-105918000D01*
X209299648Y-105627160D01*
X209134901Y-105380599D01*
X208465802Y-104711500D01*
X209084101Y-104093201D01*
X209248848Y-103846640D01*
X209306700Y-103555800D01*
X209300350Y-103523877D01*
X209300350Y-99565235D01*
X209376992Y-99488727D01*
X209519638Y-99145199D01*
X209519962Y-98773233D01*
X209377917Y-98429457D01*
X209115127Y-98166208D01*
X208771599Y-98023562D01*
X208399633Y-98023238D01*
X208055857Y-98165283D01*
X207792608Y-98428073D01*
X207649962Y-98771601D01*
X207649638Y-99143567D01*
X207780350Y-99459915D01*
X207780350Y-103247348D01*
X207537915Y-103489783D01*
X207046024Y-103285531D01*
X206493799Y-103285049D01*
X205983426Y-103495931D01*
X205592604Y-103886072D01*
X205380831Y-104396076D01*
X205380349Y-104948301D01*
X205399463Y-104994560D01*
X205084057Y-105124883D01*
X204820808Y-105387673D01*
X204678162Y-105731201D01*
X204677838Y-106103167D01*
X204819883Y-106446943D01*
X205082673Y-106710192D01*
X205402817Y-106843128D01*
X205380831Y-106896076D01*
X205380349Y-107448301D01*
X205591231Y-107958674D01*
X205981372Y-108349496D01*
X206008700Y-108360844D01*
X206008700Y-108841698D01*
X202421299Y-112429099D01*
X202256552Y-112675661D01*
X202232368Y-112797243D01*
X202090329Y-112855932D01*
X201658149Y-113287357D01*
X201654406Y-113296372D01*
X201538859Y-113257446D01*
X200638305Y-114158000D01*
X200279095Y-114158000D01*
X199378541Y-113257446D01*
X199122057Y-113343852D01*
X198912242Y-113917336D01*
X188177351Y-113917336D01*
X188374643Y-113835817D01*
X188637892Y-113573027D01*
X188780538Y-113229499D01*
X188780670Y-113077841D01*
X199558146Y-113077841D01*
X200458700Y-113978395D01*
X201359254Y-113077841D01*
X201272848Y-112821357D01*
X200699364Y-112611542D01*
X200089240Y-112637161D01*
X199644552Y-112821357D01*
X199558146Y-113077841D01*
X188780670Y-113077841D01*
X188780862Y-112857533D01*
X188638817Y-112513757D01*
X188542200Y-112416971D01*
X188542200Y-104948301D01*
X191600849Y-104948301D01*
X191811731Y-105458674D01*
X192201872Y-105849496D01*
X192379659Y-105923320D01*
X192203926Y-105995931D01*
X191813104Y-106386072D01*
X191601331Y-106896076D01*
X191600849Y-107448301D01*
X191811731Y-107958674D01*
X192158874Y-108306423D01*
X192041662Y-108588701D01*
X192041338Y-108960667D01*
X192183383Y-109304443D01*
X192446173Y-109567692D01*
X192789701Y-109710338D01*
X193161667Y-109710662D01*
X193505443Y-109568617D01*
X193768692Y-109305827D01*
X193911338Y-108962299D01*
X193911662Y-108590333D01*
X193801550Y-108323840D01*
X194165296Y-107960728D01*
X194377069Y-107450724D01*
X194377551Y-106898499D01*
X194166669Y-106388126D01*
X193776528Y-105997304D01*
X193598741Y-105923480D01*
X193774474Y-105850869D01*
X194165296Y-105460728D01*
X194176644Y-105433400D01*
X194646088Y-105433400D01*
X194656531Y-105458674D01*
X195046672Y-105849496D01*
X195224459Y-105923320D01*
X195048726Y-105995931D01*
X194657904Y-106386072D01*
X194446131Y-106896076D01*
X194445649Y-107448301D01*
X194656531Y-107958674D01*
X194988777Y-108291500D01*
X194886462Y-108537901D01*
X194886138Y-108909867D01*
X195028183Y-109253643D01*
X195290973Y-109516892D01*
X195634501Y-109659538D01*
X196006467Y-109659862D01*
X196350243Y-109517817D01*
X196613492Y-109255027D01*
X196756138Y-108911499D01*
X196756462Y-108539533D01*
X196661210Y-108309006D01*
X197010096Y-107960728D01*
X197221869Y-107450724D01*
X197222351Y-106898499D01*
X197011469Y-106388126D01*
X196621328Y-105997304D01*
X196443541Y-105923480D01*
X196619274Y-105850869D01*
X197010096Y-105460728D01*
X197021444Y-105433400D01*
X197490888Y-105433400D01*
X197501331Y-105458674D01*
X197891472Y-105849496D01*
X198069259Y-105923320D01*
X197893526Y-105995931D01*
X197502704Y-106386072D01*
X197290931Y-106896076D01*
X197290449Y-107448301D01*
X197501331Y-107958674D01*
X197846271Y-108304216D01*
X197743962Y-108550601D01*
X197743638Y-108922567D01*
X197885683Y-109266343D01*
X198148473Y-109529592D01*
X198492001Y-109672238D01*
X198863967Y-109672562D01*
X199207743Y-109530517D01*
X199470992Y-109267727D01*
X199613638Y-108924199D01*
X199613962Y-108552233D01*
X199511287Y-108303739D01*
X199854896Y-107960728D01*
X200066669Y-107450724D01*
X200067151Y-106898499D01*
X199856269Y-106388126D01*
X199466128Y-105997304D01*
X199288341Y-105923480D01*
X199464074Y-105850869D01*
X199854896Y-105460728D01*
X199866244Y-105433400D01*
X200335688Y-105433400D01*
X200346131Y-105458674D01*
X200736272Y-105849496D01*
X200914059Y-105923320D01*
X200738326Y-105995931D01*
X200347504Y-106386072D01*
X200135731Y-106896076D01*
X200135249Y-107448301D01*
X200346131Y-107958674D01*
X200691071Y-108304216D01*
X200588762Y-108550601D01*
X200588438Y-108922567D01*
X200730483Y-109266343D01*
X200993273Y-109529592D01*
X201336801Y-109672238D01*
X201708767Y-109672562D01*
X202052543Y-109530517D01*
X202315792Y-109267727D01*
X202458438Y-108924199D01*
X202458762Y-108552233D01*
X202356087Y-108303739D01*
X202699696Y-107960728D01*
X202911469Y-107450724D01*
X202911951Y-106898499D01*
X202888730Y-106842299D01*
X203144743Y-106736517D01*
X203407992Y-106473727D01*
X203550638Y-106130199D01*
X203550962Y-105758233D01*
X203408917Y-105414457D01*
X203146127Y-105151208D01*
X202874973Y-105038615D01*
X202911469Y-104950724D01*
X202911951Y-104398499D01*
X202701069Y-103888126D01*
X202310928Y-103497304D01*
X201800924Y-103285531D01*
X201248699Y-103285049D01*
X200738326Y-103495931D01*
X200347504Y-103886072D01*
X200336156Y-103913400D01*
X199866712Y-103913400D01*
X199856269Y-103888126D01*
X199466128Y-103497304D01*
X198956124Y-103285531D01*
X198403899Y-103285049D01*
X197893526Y-103495931D01*
X197502704Y-103886072D01*
X197491356Y-103913400D01*
X197021912Y-103913400D01*
X197011469Y-103888126D01*
X196621328Y-103497304D01*
X196111324Y-103285531D01*
X195559099Y-103285049D01*
X195048726Y-103495931D01*
X194657904Y-103886072D01*
X194646556Y-103913400D01*
X194177112Y-103913400D01*
X194166669Y-103888126D01*
X193776528Y-103497304D01*
X193266524Y-103285531D01*
X192714299Y-103285049D01*
X192203926Y-103495931D01*
X191813104Y-103886072D01*
X191601331Y-104396076D01*
X191600849Y-104948301D01*
X188542200Y-104948301D01*
X188542200Y-99343063D01*
X188574392Y-99310927D01*
X188717038Y-98967399D01*
X188717362Y-98595433D01*
X188575317Y-98251657D01*
X188312527Y-97988408D01*
X187968999Y-97845762D01*
X187675653Y-97845506D01*
X187675962Y-97490533D01*
X187533917Y-97146757D01*
X187333977Y-96946467D01*
X202836338Y-96946467D01*
X202978383Y-97290243D01*
X203241173Y-97553492D01*
X203316300Y-97584688D01*
X203316300Y-98230837D01*
X203284108Y-98262973D01*
X203141462Y-98606501D01*
X203141138Y-98978467D01*
X203283183Y-99322243D01*
X203545973Y-99585492D01*
X203889501Y-99728138D01*
X204261467Y-99728462D01*
X204605243Y-99586417D01*
X204868492Y-99323627D01*
X205011138Y-98980099D01*
X205011462Y-98608133D01*
X204869417Y-98264357D01*
X204836300Y-98231182D01*
X204836300Y-97066100D01*
X204812503Y-96946467D01*
X204778448Y-96775260D01*
X204706582Y-96667705D01*
X204706662Y-96576133D01*
X204564617Y-96232357D01*
X204301827Y-95969108D01*
X203958299Y-95826462D01*
X203586333Y-95826138D01*
X203242557Y-95968183D01*
X202979308Y-96230973D01*
X202836662Y-96574501D01*
X202836338Y-96946467D01*
X187333977Y-96946467D01*
X187271127Y-96883508D01*
X186927599Y-96740862D01*
X186555633Y-96740538D01*
X186211857Y-96882583D01*
X185948608Y-97145373D01*
X185805962Y-97488901D01*
X185805638Y-97860867D01*
X185947683Y-98204643D01*
X185980800Y-98237818D01*
X185980800Y-102288498D01*
X184998612Y-103270686D01*
X184497499Y-103270249D01*
X183987126Y-103481131D01*
X183596304Y-103871272D01*
X183384531Y-104381276D01*
X183384049Y-104933501D01*
X183396294Y-104963137D01*
X183189257Y-105048683D01*
X182926008Y-105311473D01*
X182783362Y-105655001D01*
X182783038Y-106026967D01*
X182925083Y-106370743D01*
X183187873Y-106633992D01*
X183221530Y-106647968D01*
X180412199Y-109457299D01*
X180247452Y-109703861D01*
X180189600Y-109994700D01*
X180189600Y-112938154D01*
X180081229Y-112982932D01*
X179649049Y-113414357D01*
X179645306Y-113423372D01*
X179529759Y-113384446D01*
X178629205Y-114285000D01*
X178269995Y-114285000D01*
X177369441Y-113384446D01*
X177112957Y-113470852D01*
X176903142Y-114044336D01*
X166696244Y-114044336D01*
X166604317Y-113821857D01*
X166341527Y-113558608D01*
X166190200Y-113495771D01*
X166190200Y-113204841D01*
X177549046Y-113204841D01*
X178449600Y-114105395D01*
X179350154Y-113204841D01*
X179263748Y-112948357D01*
X178690264Y-112738542D01*
X178080140Y-112764161D01*
X177635452Y-112948357D01*
X177549046Y-113204841D01*
X166190200Y-113204841D01*
X166190200Y-109786167D01*
X167987538Y-109786167D01*
X168129583Y-110129943D01*
X168392373Y-110393192D01*
X168735901Y-110535838D01*
X169107867Y-110536162D01*
X169451643Y-110394117D01*
X169714892Y-110131327D01*
X169857538Y-109787799D01*
X169857579Y-109740923D01*
X171041617Y-108556885D01*
X171117301Y-108556951D01*
X171627674Y-108346069D01*
X172018496Y-107955928D01*
X172230269Y-107445924D01*
X172230751Y-106893699D01*
X172019869Y-106383326D01*
X171629728Y-105992504D01*
X171451941Y-105918680D01*
X171627674Y-105846069D01*
X172018496Y-105455928D01*
X172029844Y-105428600D01*
X172474488Y-105428600D01*
X172484931Y-105453874D01*
X172875072Y-105844696D01*
X173052859Y-105918520D01*
X172877126Y-105991131D01*
X172486304Y-106381272D01*
X172274531Y-106891276D01*
X172274049Y-107443501D01*
X172484931Y-107953874D01*
X172488574Y-107957524D01*
X171018220Y-109427878D01*
X170972733Y-109427838D01*
X170628957Y-109569883D01*
X170365708Y-109832673D01*
X170223062Y-110176201D01*
X170222738Y-110548167D01*
X170364783Y-110891943D01*
X170627573Y-111155192D01*
X170971101Y-111297838D01*
X171343067Y-111298162D01*
X171686843Y-111156117D01*
X171950092Y-110893327D01*
X172092738Y-110549799D01*
X172092779Y-110502923D01*
X174110185Y-108485517D01*
X174447674Y-108346069D01*
X174838496Y-107955928D01*
X175050269Y-107445924D01*
X175050751Y-106893699D01*
X174839869Y-106383326D01*
X174449728Y-105992504D01*
X174271941Y-105918680D01*
X174447674Y-105846069D01*
X174838496Y-105455928D01*
X174849844Y-105428600D01*
X175324488Y-105428600D01*
X175334931Y-105453874D01*
X175725072Y-105844696D01*
X175902859Y-105918520D01*
X175727126Y-105991131D01*
X175336304Y-106381272D01*
X175124531Y-106891276D01*
X175124049Y-107443501D01*
X175334931Y-107953874D01*
X175405766Y-108024832D01*
X173189920Y-110240678D01*
X173144433Y-110240638D01*
X172800657Y-110382683D01*
X172537408Y-110645473D01*
X172394762Y-110989001D01*
X172394438Y-111360967D01*
X172536483Y-111704743D01*
X172799273Y-111967992D01*
X173142801Y-112110638D01*
X173514767Y-112110962D01*
X173858543Y-111968917D01*
X174121792Y-111706127D01*
X174264438Y-111362599D01*
X174264479Y-111315723D01*
X177049801Y-108530401D01*
X177125407Y-108417248D01*
X177297674Y-108346069D01*
X177688496Y-107955928D01*
X177900269Y-107445924D01*
X177900751Y-106893699D01*
X177689869Y-106383326D01*
X177299728Y-105992504D01*
X177121941Y-105918680D01*
X177297674Y-105846069D01*
X177688496Y-105455928D01*
X177699844Y-105428600D01*
X178144488Y-105428600D01*
X178154931Y-105453874D01*
X178545072Y-105844696D01*
X178722859Y-105918520D01*
X178547126Y-105991131D01*
X178156304Y-106381272D01*
X177944531Y-106891276D01*
X177944049Y-107443501D01*
X178154931Y-107953874D01*
X178498278Y-108297820D01*
X175780720Y-111015378D01*
X175735233Y-111015338D01*
X175391457Y-111157383D01*
X175128208Y-111420173D01*
X174985562Y-111763701D01*
X174985238Y-112135667D01*
X175127283Y-112479443D01*
X175390073Y-112742692D01*
X175733601Y-112885338D01*
X176105567Y-112885662D01*
X176449343Y-112743617D01*
X176712592Y-112480827D01*
X176855238Y-112137299D01*
X176855279Y-112090423D01*
X179869801Y-109075901D01*
X180034548Y-108829339D01*
X180092400Y-108538500D01*
X180092400Y-108356512D01*
X180117674Y-108346069D01*
X180508496Y-107955928D01*
X180720269Y-107445924D01*
X180720751Y-106893699D01*
X180687182Y-106812456D01*
X180932443Y-106711117D01*
X181195692Y-106448327D01*
X181338338Y-106104799D01*
X181338662Y-105732833D01*
X181196617Y-105389057D01*
X180933827Y-105125808D01*
X180687966Y-105023717D01*
X180720269Y-104945924D01*
X180720751Y-104393699D01*
X180509869Y-103883326D01*
X180119728Y-103492504D01*
X179609724Y-103280731D01*
X179057499Y-103280249D01*
X178547126Y-103491131D01*
X178156304Y-103881272D01*
X178144956Y-103908600D01*
X177700312Y-103908600D01*
X177689869Y-103883326D01*
X177299728Y-103492504D01*
X176789724Y-103280731D01*
X176237499Y-103280249D01*
X175727126Y-103491131D01*
X175336304Y-103881272D01*
X175324956Y-103908600D01*
X174850312Y-103908600D01*
X174839869Y-103883326D01*
X174449728Y-103492504D01*
X173939724Y-103280731D01*
X173387499Y-103280249D01*
X172877126Y-103491131D01*
X172486304Y-103881272D01*
X172474956Y-103908600D01*
X172030312Y-103908600D01*
X172019869Y-103883326D01*
X171629728Y-103492504D01*
X171119724Y-103280731D01*
X170567499Y-103280249D01*
X170057126Y-103491131D01*
X169666304Y-103881272D01*
X169454531Y-104391276D01*
X169454049Y-104943501D01*
X169664931Y-105453874D01*
X170055072Y-105844696D01*
X170232859Y-105918520D01*
X170057126Y-105991131D01*
X169666304Y-106381272D01*
X169454531Y-106891276D01*
X169454049Y-107443501D01*
X169615253Y-107833645D01*
X168783020Y-108665878D01*
X168737533Y-108665838D01*
X168393757Y-108807883D01*
X168130508Y-109070673D01*
X167987862Y-109414201D01*
X167987538Y-109786167D01*
X166190200Y-109786167D01*
X166190200Y-99343063D01*
X166222392Y-99310927D01*
X166365038Y-98967399D01*
X166365362Y-98595433D01*
X166223317Y-98251657D01*
X165960527Y-97988408D01*
X165616999Y-97845762D01*
X165450763Y-97845617D01*
X165450962Y-97617533D01*
X165308917Y-97273757D01*
X165046127Y-97010508D01*
X164702599Y-96867862D01*
X164330633Y-96867538D01*
X163986857Y-97009583D01*
X163723608Y-97272373D01*
X163580962Y-97615901D01*
X163580638Y-97987867D01*
X163722683Y-98331643D01*
X163819300Y-98428429D01*
X163819300Y-102202598D01*
X162727680Y-103294218D01*
X162702424Y-103283731D01*
X162150199Y-103283249D01*
X161639826Y-103494131D01*
X161249004Y-103884272D01*
X161037231Y-104394276D01*
X161036749Y-104946501D01*
X161067524Y-105020983D01*
X161015933Y-105020938D01*
X160672157Y-105162983D01*
X160408908Y-105425773D01*
X160266262Y-105769301D01*
X160265938Y-106141267D01*
X160407983Y-106485043D01*
X160670773Y-106748292D01*
X160982617Y-106877781D01*
X158174499Y-109685899D01*
X158009752Y-109932461D01*
X157951900Y-110223300D01*
X157951900Y-112430154D01*
X157843529Y-112474932D01*
X157411349Y-112906357D01*
X157407606Y-112915372D01*
X157292059Y-112876446D01*
X156391505Y-113777000D01*
X156032295Y-113777000D01*
X155131741Y-112876446D01*
X154875257Y-112962852D01*
X154665442Y-113536336D01*
X144071603Y-113536336D01*
X144114638Y-113432699D01*
X144114962Y-113060733D01*
X143972917Y-112716957D01*
X143889000Y-112632893D01*
X143889000Y-109773467D01*
X146029238Y-109773467D01*
X146171283Y-110117243D01*
X146434073Y-110380492D01*
X146777601Y-110523138D01*
X147149567Y-110523462D01*
X147493343Y-110381417D01*
X147756592Y-110118627D01*
X147899238Y-109775099D01*
X147899279Y-109728223D01*
X148962867Y-108664635D01*
X149460374Y-108459069D01*
X149851196Y-108068928D01*
X150062969Y-107558924D01*
X150063451Y-107006699D01*
X149852569Y-106496326D01*
X149462428Y-106105504D01*
X149284641Y-106031680D01*
X149460374Y-105959069D01*
X149851196Y-105568928D01*
X149862544Y-105541600D01*
X150287188Y-105541600D01*
X150297631Y-105566874D01*
X150687772Y-105957696D01*
X150865559Y-106031520D01*
X150689826Y-106104131D01*
X150299004Y-106494272D01*
X150087231Y-107004276D01*
X150086749Y-107556501D01*
X150297631Y-108066874D01*
X150352879Y-108122219D01*
X149059920Y-109415178D01*
X149014433Y-109415138D01*
X148670657Y-109557183D01*
X148407408Y-109819973D01*
X148264762Y-110163501D01*
X148264438Y-110535467D01*
X148406483Y-110879243D01*
X148669273Y-111142492D01*
X149012801Y-111285138D01*
X149384767Y-111285462D01*
X149728543Y-111143417D01*
X149991792Y-110880627D01*
X150134438Y-110537099D01*
X150134479Y-110490223D01*
X152012501Y-108612201D01*
X152059309Y-108542147D01*
X152260374Y-108459069D01*
X152651196Y-108068928D01*
X152862969Y-107558924D01*
X152863451Y-107006699D01*
X152652569Y-106496326D01*
X152262428Y-106105504D01*
X152084641Y-106031680D01*
X152260374Y-105959069D01*
X152651196Y-105568928D01*
X152662544Y-105541600D01*
X153077188Y-105541600D01*
X153087631Y-105566874D01*
X153477772Y-105957696D01*
X153655559Y-106031520D01*
X153479826Y-106104131D01*
X153089004Y-106494272D01*
X152877231Y-107004276D01*
X152876749Y-107556501D01*
X153087631Y-108066874D01*
X153271767Y-108251331D01*
X151282420Y-110240678D01*
X151236933Y-110240638D01*
X150893157Y-110382683D01*
X150629908Y-110645473D01*
X150487262Y-110989001D01*
X150486938Y-111360967D01*
X150628983Y-111704743D01*
X150891773Y-111967992D01*
X151235301Y-112110638D01*
X151607267Y-112110962D01*
X151951043Y-111968917D01*
X152214292Y-111706127D01*
X152356938Y-111362599D01*
X152356979Y-111315723D01*
X154802501Y-108870201D01*
X154967248Y-108623639D01*
X154995471Y-108481755D01*
X155050374Y-108459069D01*
X155441196Y-108068928D01*
X155652969Y-107558924D01*
X155653451Y-107006699D01*
X155442569Y-106496326D01*
X155052428Y-106105504D01*
X154874641Y-106031680D01*
X155050374Y-105959069D01*
X155441196Y-105568928D01*
X155473306Y-105491600D01*
X155877188Y-105491600D01*
X155887631Y-105516874D01*
X156277772Y-105907696D01*
X156455559Y-105981520D01*
X156279826Y-106054131D01*
X155889004Y-106444272D01*
X155677231Y-106954276D01*
X155676749Y-107506501D01*
X155887631Y-108016874D01*
X156195259Y-108325039D01*
X153504920Y-111015378D01*
X153459433Y-111015338D01*
X153115657Y-111157383D01*
X152852408Y-111420173D01*
X152709762Y-111763701D01*
X152709438Y-112135667D01*
X152851483Y-112479443D01*
X153114273Y-112742692D01*
X153457801Y-112885338D01*
X153829767Y-112885662D01*
X154173543Y-112743617D01*
X154220400Y-112696841D01*
X155311346Y-112696841D01*
X156211900Y-113597395D01*
X157112454Y-112696841D01*
X157026048Y-112440357D01*
X156452564Y-112230542D01*
X155842440Y-112256161D01*
X155397752Y-112440357D01*
X155311346Y-112696841D01*
X154220400Y-112696841D01*
X154436792Y-112480827D01*
X154579438Y-112137299D01*
X154579479Y-112090423D01*
X157602501Y-109067402D01*
X157734265Y-108870201D01*
X157767248Y-108820839D01*
X157825100Y-108530000D01*
X157825100Y-108419512D01*
X157850374Y-108409069D01*
X158241196Y-108018928D01*
X158452969Y-107508924D01*
X158453442Y-106967430D01*
X158490667Y-106967462D01*
X158834443Y-106825417D01*
X159097692Y-106562627D01*
X159240338Y-106219099D01*
X159240662Y-105847133D01*
X159098617Y-105503357D01*
X158835827Y-105240108D01*
X158492299Y-105097462D01*
X158445424Y-105097421D01*
X158424790Y-105076787D01*
X158452969Y-105008924D01*
X158453451Y-104456699D01*
X158242569Y-103946326D01*
X157852428Y-103555504D01*
X157342424Y-103343731D01*
X156790199Y-103343249D01*
X156279826Y-103554131D01*
X155889004Y-103944272D01*
X155877656Y-103971600D01*
X155417886Y-103971600D01*
X155052428Y-103605504D01*
X154542424Y-103393731D01*
X153990199Y-103393249D01*
X153479826Y-103604131D01*
X153089004Y-103994272D01*
X153077656Y-104021600D01*
X152663012Y-104021600D01*
X152652569Y-103996326D01*
X152262428Y-103605504D01*
X151752424Y-103393731D01*
X151200199Y-103393249D01*
X150689826Y-103604131D01*
X150299004Y-103994272D01*
X150287656Y-104021600D01*
X149863012Y-104021600D01*
X149852569Y-103996326D01*
X149462428Y-103605504D01*
X148952424Y-103393731D01*
X148400199Y-103393249D01*
X147889826Y-103604131D01*
X147499004Y-103994272D01*
X147287231Y-104504276D01*
X147286749Y-105056501D01*
X147497631Y-105566874D01*
X147887772Y-105957696D01*
X148065559Y-106031520D01*
X147889826Y-106104131D01*
X147499004Y-106494272D01*
X147287231Y-107004276D01*
X147286749Y-107556501D01*
X147472309Y-108005589D01*
X146824720Y-108653178D01*
X146779233Y-108653138D01*
X146435457Y-108795183D01*
X146172208Y-109057973D01*
X146029562Y-109401501D01*
X146029238Y-109773467D01*
X143889000Y-109773467D01*
X143889000Y-98415963D01*
X143921192Y-98383827D01*
X144063838Y-98040299D01*
X144064162Y-97668333D01*
X143922117Y-97324557D01*
X143659327Y-97061308D01*
X143315799Y-96918662D01*
X143314730Y-96918661D01*
X143314862Y-96766633D01*
X143310455Y-96755967D01*
X158741938Y-96755967D01*
X158883983Y-97099743D01*
X158917100Y-97132918D01*
X158917100Y-98275395D01*
X158869262Y-98390601D01*
X158868938Y-98762567D01*
X159010983Y-99106343D01*
X159273773Y-99369592D01*
X159617301Y-99512238D01*
X159989267Y-99512562D01*
X160333043Y-99370517D01*
X160596292Y-99107727D01*
X160738938Y-98764199D01*
X160739262Y-98392233D01*
X160597217Y-98048457D01*
X160437100Y-97888060D01*
X160437100Y-97133263D01*
X160469292Y-97101127D01*
X160611938Y-96757599D01*
X160612105Y-96565467D01*
X181259038Y-96565467D01*
X181401083Y-96909243D01*
X181434200Y-96942418D01*
X181434200Y-97405337D01*
X181402008Y-97437473D01*
X181259362Y-97781001D01*
X181259038Y-98152967D01*
X181401083Y-98496743D01*
X181663873Y-98759992D01*
X182007401Y-98902638D01*
X182379367Y-98902962D01*
X182723143Y-98760917D01*
X182986392Y-98498127D01*
X183129038Y-98154599D01*
X183129362Y-97782633D01*
X182987317Y-97438857D01*
X182954200Y-97405682D01*
X182954200Y-96942763D01*
X182986392Y-96910627D01*
X183129038Y-96567099D01*
X183129362Y-96195133D01*
X182987317Y-95851357D01*
X182724527Y-95588108D01*
X182380999Y-95445462D01*
X182009033Y-95445138D01*
X181665257Y-95587183D01*
X181402008Y-95849973D01*
X181259362Y-96193501D01*
X181259038Y-96565467D01*
X160612105Y-96565467D01*
X160612262Y-96385633D01*
X160470217Y-96041857D01*
X160207427Y-95778608D01*
X159863899Y-95635962D01*
X159491933Y-95635638D01*
X159148157Y-95777683D01*
X158884908Y-96040473D01*
X158742262Y-96384001D01*
X158741938Y-96755967D01*
X143310455Y-96755967D01*
X143172817Y-96422857D01*
X142910027Y-96159608D01*
X142566499Y-96016962D01*
X142194533Y-96016638D01*
X141850757Y-96158683D01*
X141587508Y-96421473D01*
X141444862Y-96765001D01*
X141444538Y-97136967D01*
X141566194Y-97431399D01*
X141562402Y-98035714D01*
X141410799Y-97972762D01*
X141038833Y-97972438D01*
X140695057Y-98114483D01*
X140661882Y-98147600D01*
X140281502Y-98147600D01*
X138692022Y-96558120D01*
X138692062Y-96512633D01*
X138550017Y-96168857D01*
X138287227Y-95905608D01*
X137943699Y-95762962D01*
X137571733Y-95762638D01*
X137227957Y-95904683D01*
X136964708Y-96167473D01*
X136822062Y-96511001D01*
X136821738Y-96882967D01*
X136963783Y-97226743D01*
X137226573Y-97489992D01*
X137570101Y-97632638D01*
X137616977Y-97632679D01*
X139429299Y-99445001D01*
X139675861Y-99609748D01*
X139966700Y-99667600D01*
X140661537Y-99667600D01*
X140693673Y-99699792D01*
X141037201Y-99842438D01*
X141409167Y-99842762D01*
X141551432Y-99783979D01*
X141532773Y-102757725D01*
X140881180Y-103409318D01*
X140855924Y-103398831D01*
X140303699Y-103398349D01*
X139793326Y-103609231D01*
X139402504Y-103999372D01*
X139190731Y-104509376D01*
X139190249Y-105061601D01*
X139203046Y-105092572D01*
X138878957Y-105226483D01*
X138615708Y-105489273D01*
X138473062Y-105832801D01*
X138472738Y-106204767D01*
X138614783Y-106548543D01*
X138877573Y-106811792D01*
X139214655Y-106951761D01*
X139190731Y-107009376D01*
X139190249Y-107561601D01*
X139201549Y-107588949D01*
X136330499Y-110459999D01*
X136165752Y-110706561D01*
X136107900Y-110997400D01*
X136107900Y-112658754D01*
X135999529Y-112703532D01*
X135567349Y-113134957D01*
X135563606Y-113143972D01*
X135448059Y-113105046D01*
X134547505Y-114005600D01*
X134188295Y-114005600D01*
X133287741Y-113105046D01*
X133031257Y-113191452D01*
X132821442Y-113764936D01*
X92388500Y-113764936D01*
X92388500Y-112925441D01*
X133467346Y-112925441D01*
X134367900Y-113825995D01*
X135268454Y-112925441D01*
X135182048Y-112668957D01*
X134608564Y-112459142D01*
X133998440Y-112484761D01*
X133553752Y-112668957D01*
X133467346Y-112925441D01*
X92388500Y-112925441D01*
X92388500Y-111297467D01*
X120057738Y-111297467D01*
X120199783Y-111641243D01*
X120462573Y-111904492D01*
X120806101Y-112047138D01*
X121178067Y-112047462D01*
X121521843Y-111905417D01*
X121580462Y-111846900D01*
X122449737Y-111846900D01*
X122481873Y-111879092D01*
X122825401Y-112021738D01*
X123197367Y-112022062D01*
X123541143Y-111880017D01*
X123804392Y-111617227D01*
X123947038Y-111273699D01*
X123947362Y-110901733D01*
X123805317Y-110557957D01*
X123542527Y-110294708D01*
X123198999Y-110152062D01*
X122827033Y-110151738D01*
X122483257Y-110293783D01*
X122450082Y-110326900D01*
X121530007Y-110326900D01*
X121523227Y-110320108D01*
X121179699Y-110177462D01*
X120807733Y-110177138D01*
X120463957Y-110319183D01*
X120200708Y-110581973D01*
X120058062Y-110925501D01*
X120057738Y-111297467D01*
X92388500Y-111297467D01*
X92388500Y-109748067D01*
X124426538Y-109748067D01*
X124568583Y-110091843D01*
X124831373Y-110355092D01*
X125174901Y-110497738D01*
X125546867Y-110498062D01*
X125890643Y-110356017D01*
X126153892Y-110093227D01*
X126296538Y-109749699D01*
X126296579Y-109702823D01*
X127406001Y-108593401D01*
X127430750Y-108556362D01*
X127653874Y-108464169D01*
X128044696Y-108074028D01*
X128243828Y-107594466D01*
X128431071Y-108047627D01*
X127038120Y-109440578D01*
X126992633Y-109440538D01*
X126648857Y-109582583D01*
X126385608Y-109845373D01*
X126242962Y-110188901D01*
X126242638Y-110560867D01*
X126384683Y-110904643D01*
X126647473Y-111167892D01*
X126991001Y-111310538D01*
X127362967Y-111310862D01*
X127706743Y-111168817D01*
X127969992Y-110906027D01*
X128112638Y-110562499D01*
X128112679Y-110515623D01*
X129995323Y-108632979D01*
X130403874Y-108464169D01*
X130794696Y-108074028D01*
X131006469Y-107564024D01*
X131006951Y-107011799D01*
X130796069Y-106501426D01*
X130405928Y-106110604D01*
X130228141Y-106036780D01*
X130403874Y-105964169D01*
X130794696Y-105574028D01*
X130806044Y-105546700D01*
X131210688Y-105546700D01*
X131221131Y-105571974D01*
X131611272Y-105962796D01*
X131789059Y-106036620D01*
X131613326Y-106109231D01*
X131222504Y-106499372D01*
X131010731Y-107009376D01*
X131010249Y-107561601D01*
X131166892Y-107940706D01*
X128905020Y-110202578D01*
X128859533Y-110202538D01*
X128515757Y-110344583D01*
X128252508Y-110607373D01*
X128109862Y-110950901D01*
X128109538Y-111322867D01*
X128251583Y-111666643D01*
X128514373Y-111929892D01*
X128857901Y-112072538D01*
X129229867Y-112072862D01*
X129573643Y-111930817D01*
X129836892Y-111668027D01*
X129979538Y-111324499D01*
X129979579Y-111277623D01*
X132582231Y-108674971D01*
X132673501Y-108675051D01*
X133183874Y-108464169D01*
X133574696Y-108074028D01*
X133768816Y-107606537D01*
X133852129Y-107808169D01*
X130632220Y-111028078D01*
X130586733Y-111028038D01*
X130242957Y-111170083D01*
X129979708Y-111432873D01*
X129837062Y-111776401D01*
X129836738Y-112148367D01*
X129978783Y-112492143D01*
X130241573Y-112755392D01*
X130585101Y-112898038D01*
X130957067Y-112898362D01*
X131300843Y-112756317D01*
X131564092Y-112493527D01*
X131706738Y-112149999D01*
X131706779Y-112103123D01*
X135135094Y-108674808D01*
X135413501Y-108675051D01*
X135923874Y-108464169D01*
X136314696Y-108074028D01*
X136526469Y-107564024D01*
X136526945Y-107018224D01*
X136570467Y-107018262D01*
X136914243Y-106876217D01*
X137177492Y-106613427D01*
X137320138Y-106269899D01*
X137320462Y-105897933D01*
X137178417Y-105554157D01*
X136915627Y-105290908D01*
X136576998Y-105150296D01*
X136515982Y-105089280D01*
X136526469Y-105064024D01*
X136526951Y-104511799D01*
X136316069Y-104001426D01*
X135925928Y-103610604D01*
X135415924Y-103398831D01*
X134863699Y-103398349D01*
X134353326Y-103609231D01*
X133962504Y-103999372D01*
X133951156Y-104026700D01*
X133586512Y-104026700D01*
X133576069Y-104001426D01*
X133185928Y-103610604D01*
X132675924Y-103398831D01*
X132123699Y-103398349D01*
X131613326Y-103609231D01*
X131222504Y-103999372D01*
X131211156Y-104026700D01*
X130806512Y-104026700D01*
X130796069Y-104001426D01*
X130405928Y-103610604D01*
X129895924Y-103398831D01*
X129343699Y-103398349D01*
X128833326Y-103609231D01*
X128442504Y-103999372D01*
X128431156Y-104026700D01*
X128056512Y-104026700D01*
X128046069Y-104001426D01*
X127655928Y-103610604D01*
X127145924Y-103398831D01*
X126593699Y-103398349D01*
X126083326Y-103609231D01*
X125692504Y-103999372D01*
X125480731Y-104509376D01*
X125480249Y-105061601D01*
X125691131Y-105571974D01*
X126081272Y-105962796D01*
X126259059Y-106036620D01*
X126083326Y-106109231D01*
X125692504Y-106499372D01*
X125480731Y-107009376D01*
X125480249Y-107561601D01*
X125691131Y-108071974D01*
X125734440Y-108115358D01*
X125222020Y-108627778D01*
X125176533Y-108627738D01*
X124832757Y-108769783D01*
X124569508Y-109032573D01*
X124426862Y-109376101D01*
X124426538Y-109748067D01*
X92388500Y-109748067D01*
X92388500Y-107271567D01*
X120032338Y-107271567D01*
X120174383Y-107615343D01*
X120437173Y-107878592D01*
X120780701Y-108021238D01*
X121152667Y-108021562D01*
X121496443Y-107879517D01*
X121529618Y-107846400D01*
X122437037Y-107846400D01*
X122469173Y-107878592D01*
X122812701Y-108021238D01*
X123184667Y-108021562D01*
X123528443Y-107879517D01*
X123791692Y-107616727D01*
X123934338Y-107273199D01*
X123934662Y-106901233D01*
X123792617Y-106557457D01*
X123529827Y-106294208D01*
X123186299Y-106151562D01*
X122814333Y-106151238D01*
X122470557Y-106293283D01*
X122437382Y-106326400D01*
X121529963Y-106326400D01*
X121497827Y-106294208D01*
X121154299Y-106151562D01*
X120782333Y-106151238D01*
X120438557Y-106293283D01*
X120175308Y-106556073D01*
X120032662Y-106899601D01*
X120032338Y-107271567D01*
X92388500Y-107271567D01*
X92388500Y-97342816D01*
X92921490Y-97342816D01*
X92977171Y-97573411D01*
X93459978Y-97741422D01*
X93970328Y-97711883D01*
X94304629Y-97573411D01*
X94360310Y-97342816D01*
X93640900Y-96623405D01*
X92921490Y-97342816D01*
X92388500Y-97342816D01*
X92388500Y-96811090D01*
X92511289Y-97107529D01*
X92741884Y-97163210D01*
X93461295Y-96443800D01*
X93820505Y-96443800D01*
X94539916Y-97163210D01*
X94770511Y-97107529D01*
X94938522Y-96624722D01*
X94908983Y-96114372D01*
X94770511Y-95780071D01*
X94539916Y-95724390D01*
X93820505Y-96443800D01*
X93461295Y-96443800D01*
X92741884Y-95724390D01*
X92511289Y-95780071D01*
X92388500Y-96132925D01*
X92388500Y-95544784D01*
X92921490Y-95544784D01*
X93640900Y-96264195D01*
X94360310Y-95544784D01*
X94304629Y-95314189D01*
X93821822Y-95146178D01*
X93311472Y-95175717D01*
X92977171Y-95314189D01*
X92921490Y-95544784D01*
X92388500Y-95544784D01*
X92388500Y-80632300D01*
X96663900Y-80632300D01*
X96663900Y-96443800D01*
X96738712Y-96819908D01*
X96812648Y-97196145D01*
X96813936Y-97198082D01*
X96814390Y-97200365D01*
X97027409Y-97519170D01*
X97239725Y-97838518D01*
X97241658Y-97839816D01*
X97242950Y-97841750D01*
X97561728Y-98054751D01*
X97880119Y-98268558D01*
X97882400Y-98269017D01*
X97884335Y-98270310D01*
X98260340Y-98345102D01*
X98636334Y-98420795D01*
X101953910Y-98428457D01*
X102298500Y-98497000D01*
X102635181Y-98430030D01*
X104036532Y-98433267D01*
X104165400Y-98458900D01*
X104921965Y-98308410D01*
X105563350Y-97879850D01*
X105991910Y-97238465D01*
X106142400Y-96481900D01*
X105991910Y-95725335D01*
X105563350Y-95083950D01*
X105537950Y-95058550D01*
X105219273Y-94845617D01*
X104900782Y-94631742D01*
X104898499Y-94631282D01*
X104896565Y-94629990D01*
X104520602Y-94555206D01*
X104144566Y-94479505D01*
X102245334Y-94475119D01*
X102226965Y-94471465D01*
X100663246Y-94471465D01*
X100617900Y-94471360D01*
X100617900Y-81451200D01*
X101872800Y-80196300D01*
X107873800Y-80196300D01*
X108630365Y-80045810D01*
X109016843Y-79787573D01*
X109441335Y-80071210D01*
X110197900Y-80221700D01*
X110389442Y-80183600D01*
X112674400Y-80183600D01*
X113430965Y-80033110D01*
X113434059Y-80031042D01*
X113489535Y-80068110D01*
X114246100Y-80218600D01*
X115256280Y-80218600D01*
X115537550Y-80639550D01*
X116178935Y-81068110D01*
X116935500Y-81218600D01*
X117692065Y-81068110D01*
X118333450Y-80639550D01*
X118352350Y-80620650D01*
X118780910Y-79979265D01*
X118931400Y-79222700D01*
X118830671Y-78716295D01*
X150283788Y-78716295D01*
X150470194Y-79167431D01*
X150815053Y-79512893D01*
X151265864Y-79700086D01*
X151753995Y-79700512D01*
X152205131Y-79514106D01*
X152550593Y-79169247D01*
X152651229Y-78926889D01*
X152670660Y-78907458D01*
X152954431Y-78790206D01*
X153299893Y-78445347D01*
X153349527Y-78325814D01*
X153424331Y-78294906D01*
X153769793Y-77950047D01*
X153870428Y-77707690D01*
X158518209Y-73059910D01*
X158762512Y-72694285D01*
X158781110Y-72600786D01*
X158848300Y-72263000D01*
X158848300Y-69186819D01*
X158971300Y-69002736D01*
X159094300Y-69186819D01*
X159094300Y-73086600D01*
X159180088Y-73517884D01*
X159424391Y-73883509D01*
X165058378Y-79517496D01*
X165157744Y-79757981D01*
X165502603Y-80103443D01*
X165626634Y-80154945D01*
X165659394Y-80234231D01*
X166004253Y-80579693D01*
X166116440Y-80626277D01*
X166180094Y-80780331D01*
X166524953Y-81125793D01*
X166975764Y-81312986D01*
X167463895Y-81313412D01*
X167915031Y-81127006D01*
X168260493Y-80782147D01*
X168447686Y-80331336D01*
X168448112Y-79843205D01*
X168261706Y-79392069D01*
X167916847Y-79046607D01*
X167804660Y-79000023D01*
X167741006Y-78845969D01*
X167396147Y-78500507D01*
X167272116Y-78449005D01*
X167239356Y-78369719D01*
X166894497Y-78024257D01*
X166652141Y-77923622D01*
X164634400Y-75905882D01*
X164769015Y-75996072D01*
X164769719Y-75996213D01*
X164770316Y-75996612D01*
X164984969Y-76039309D01*
X165200191Y-76082399D01*
X172748862Y-76091835D01*
X172753634Y-76092749D01*
X172862355Y-76091977D01*
X173346087Y-76092582D01*
X173592464Y-76194886D01*
X174080595Y-76195312D01*
X174157061Y-76163717D01*
X174354464Y-76245686D01*
X174842595Y-76246112D01*
X175041702Y-76163842D01*
X175116464Y-76194886D01*
X175604595Y-76195312D01*
X176055731Y-76008906D01*
X176340366Y-75724767D01*
X184827738Y-75724767D01*
X184969783Y-76068543D01*
X185002900Y-76101718D01*
X185002900Y-80260293D01*
X184996108Y-80267073D01*
X184853462Y-80610601D01*
X184853138Y-80982567D01*
X184995183Y-81326343D01*
X185257973Y-81589592D01*
X185601501Y-81732238D01*
X185973467Y-81732562D01*
X186317243Y-81590517D01*
X186580492Y-81327727D01*
X186723138Y-80984199D01*
X186723161Y-80957167D01*
X188548838Y-80957167D01*
X188690883Y-81300943D01*
X188953673Y-81564192D01*
X189297201Y-81706838D01*
X189669167Y-81707162D01*
X190012943Y-81565117D01*
X190276192Y-81302327D01*
X190418838Y-80958799D01*
X190419162Y-80586833D01*
X190277117Y-80243057D01*
X190269400Y-80235327D01*
X190269400Y-77096367D01*
X202468038Y-77096367D01*
X202610083Y-77440143D01*
X202732100Y-77562373D01*
X202732100Y-78837937D01*
X202699908Y-78870073D01*
X202557262Y-79213601D01*
X202556938Y-79585567D01*
X202698983Y-79929343D01*
X202961773Y-80192592D01*
X203305301Y-80335238D01*
X203677267Y-80335562D01*
X204021043Y-80193517D01*
X204284292Y-79930727D01*
X204426938Y-79587199D01*
X204427262Y-79215233D01*
X204285217Y-78871457D01*
X204252100Y-78838282D01*
X204252100Y-77883767D01*
X208627538Y-77883767D01*
X208769583Y-78227543D01*
X208808530Y-78266558D01*
X208847707Y-82056909D01*
X208770508Y-82133973D01*
X208627862Y-82477501D01*
X208627538Y-82849467D01*
X208769583Y-83193243D01*
X209032373Y-83456492D01*
X209375901Y-83599138D01*
X209747867Y-83599462D01*
X210091643Y-83457417D01*
X210354892Y-83194627D01*
X210497538Y-82851099D01*
X210497862Y-82479133D01*
X210368926Y-82167083D01*
X210328494Y-78255279D01*
X210354892Y-78228927D01*
X210497538Y-77885399D01*
X210497862Y-77513433D01*
X210355817Y-77169657D01*
X210093027Y-76906408D01*
X209749499Y-76763762D01*
X209377533Y-76763438D01*
X209033757Y-76905483D01*
X208770508Y-77168273D01*
X208627862Y-77511801D01*
X208627538Y-77883767D01*
X204252100Y-77883767D01*
X204252100Y-77304960D01*
X204338038Y-77097999D01*
X204338362Y-76726033D01*
X204196317Y-76382257D01*
X203933527Y-76119008D01*
X203589999Y-75976362D01*
X203218033Y-75976038D01*
X202874257Y-76118083D01*
X202611008Y-76380873D01*
X202468362Y-76724401D01*
X202468038Y-77096367D01*
X190269400Y-77096367D01*
X190269400Y-76406863D01*
X190301592Y-76374727D01*
X190444238Y-76031199D01*
X190444562Y-75659233D01*
X190302517Y-75315457D01*
X190039727Y-75052208D01*
X189696199Y-74909562D01*
X189324233Y-74909238D01*
X188980457Y-75051283D01*
X188717208Y-75314073D01*
X188574562Y-75657601D01*
X188574238Y-76029567D01*
X188716283Y-76373343D01*
X188749400Y-76406518D01*
X188749400Y-80184181D01*
X188691808Y-80241673D01*
X188549162Y-80585201D01*
X188548838Y-80957167D01*
X186723161Y-80957167D01*
X186723462Y-80612233D01*
X186581417Y-80268457D01*
X186522900Y-80209838D01*
X186522900Y-76102063D01*
X186555092Y-76069927D01*
X186697738Y-75726399D01*
X186698062Y-75354433D01*
X186556017Y-75010657D01*
X186293227Y-74747408D01*
X185949699Y-74604762D01*
X185577733Y-74604438D01*
X185233957Y-74746483D01*
X184970708Y-75009273D01*
X184828062Y-75352801D01*
X184827738Y-75724767D01*
X176340366Y-75724767D01*
X176401193Y-75664047D01*
X176588386Y-75213236D01*
X176588812Y-74725105D01*
X176402406Y-74273969D01*
X176057547Y-73928507D01*
X175606736Y-73741314D01*
X175118605Y-73740888D01*
X174919498Y-73823158D01*
X174844736Y-73792114D01*
X174356605Y-73791688D01*
X174280139Y-73823283D01*
X174082736Y-73741314D01*
X173594605Y-73740888D01*
X173368471Y-73834325D01*
X172855630Y-73837967D01*
X165669002Y-73828984D01*
X163888300Y-72048282D01*
X163888300Y-69186819D01*
X164128743Y-68826970D01*
X164241410Y-68260556D01*
X164241410Y-66664244D01*
X166758690Y-66664244D01*
X166758690Y-68260556D01*
X166871357Y-68826970D01*
X167111800Y-69186819D01*
X167111800Y-69923353D01*
X167012014Y-70163664D01*
X167011588Y-70651795D01*
X167111800Y-70894326D01*
X167111800Y-70894347D01*
X167035514Y-71078064D01*
X167035088Y-71566195D01*
X167100394Y-71724246D01*
X167010114Y-71941664D01*
X167009688Y-72429795D01*
X167196094Y-72880931D01*
X167540953Y-73226393D01*
X167991764Y-73413586D01*
X168479895Y-73414012D01*
X168931031Y-73227606D01*
X169276493Y-72882747D01*
X169463686Y-72431936D01*
X169464112Y-71943805D01*
X169398806Y-71785754D01*
X169489086Y-71568336D01*
X169489214Y-71421120D01*
X169573127Y-71624203D01*
X169499314Y-71801964D01*
X169498888Y-72290095D01*
X169685294Y-72741231D01*
X170030153Y-73086693D01*
X170480964Y-73273886D01*
X170969095Y-73274312D01*
X171420231Y-73087906D01*
X171765693Y-72743047D01*
X171952886Y-72292236D01*
X171953312Y-71804105D01*
X171866373Y-71593697D01*
X171940186Y-71415936D01*
X171940612Y-70927805D01*
X171865800Y-70746747D01*
X171865800Y-70513247D01*
X171965586Y-70272936D01*
X171966012Y-69784805D01*
X171865800Y-69542274D01*
X171865800Y-69186819D01*
X171988800Y-69002736D01*
X172111800Y-69186819D01*
X172111800Y-69910653D01*
X172012014Y-70150964D01*
X172011588Y-70639095D01*
X172111800Y-70881626D01*
X172111800Y-70954298D01*
X172039314Y-71128864D01*
X172038888Y-71616995D01*
X172088412Y-71736852D01*
X172013914Y-71916264D01*
X172013488Y-72404395D01*
X172199894Y-72855531D01*
X172544753Y-73200993D01*
X172995564Y-73388186D01*
X173483695Y-73388612D01*
X173934831Y-73202206D01*
X174280293Y-72857347D01*
X174467486Y-72406536D01*
X174467912Y-71918405D01*
X174418388Y-71798548D01*
X174492886Y-71619136D01*
X174493312Y-71131005D01*
X174378049Y-70852048D01*
X174465586Y-70641236D01*
X174466012Y-70153105D01*
X174365800Y-69910574D01*
X174365800Y-69186819D01*
X174508800Y-68972804D01*
X174651800Y-69186819D01*
X174651800Y-70572000D01*
X174668071Y-70653797D01*
X174663958Y-70737095D01*
X174710575Y-70867480D01*
X174737588Y-71003284D01*
X174783921Y-71072626D01*
X174807595Y-71138841D01*
X174807488Y-71261395D01*
X174993894Y-71712531D01*
X175217962Y-71936991D01*
X175387594Y-72347531D01*
X175671134Y-72631566D01*
X175671088Y-72683795D01*
X175857494Y-73134931D01*
X176202353Y-73480393D01*
X176653164Y-73667586D01*
X177141295Y-73668012D01*
X177592431Y-73481606D01*
X177937893Y-73136747D01*
X178125086Y-72685936D01*
X178125512Y-72197805D01*
X177939106Y-71746669D01*
X177655566Y-71462634D01*
X177655612Y-71410405D01*
X177469206Y-70959269D01*
X177245138Y-70734809D01*
X177075506Y-70324269D01*
X176905800Y-70154266D01*
X176905800Y-69186819D01*
X177146243Y-68826970D01*
X177258910Y-68260556D01*
X177258910Y-67468750D01*
X183784240Y-67468750D01*
X183784240Y-68223130D01*
X183938504Y-68744669D01*
X184280610Y-69167474D01*
X184758475Y-69427177D01*
X184830676Y-69441533D01*
X185045350Y-69318912D01*
X185045350Y-67468750D01*
X183784240Y-67468750D01*
X177258910Y-67468750D01*
X177258910Y-66664244D01*
X177218357Y-66460370D01*
X183784240Y-66460370D01*
X183784240Y-67214750D01*
X185045350Y-67214750D01*
X185045350Y-65364588D01*
X184830676Y-65241967D01*
X184758475Y-65256323D01*
X184280610Y-65516026D01*
X183938504Y-65938831D01*
X183784240Y-66460370D01*
X177218357Y-66460370D01*
X177146243Y-66097830D01*
X176825396Y-65617648D01*
X176345214Y-65296801D01*
X175778800Y-65184134D01*
X175212386Y-65296801D01*
X174732204Y-65617648D01*
X174508800Y-65951996D01*
X174285396Y-65617648D01*
X173805214Y-65296801D01*
X173238800Y-65184134D01*
X172672386Y-65296801D01*
X172192204Y-65617648D01*
X171988800Y-65922064D01*
X171785396Y-65617648D01*
X171305214Y-65296801D01*
X170738800Y-65184134D01*
X170172386Y-65296801D01*
X169692204Y-65617648D01*
X169488800Y-65922064D01*
X169285396Y-65617648D01*
X168805214Y-65296801D01*
X168238800Y-65184134D01*
X167672386Y-65296801D01*
X167192204Y-65617648D01*
X166871357Y-66097830D01*
X166758690Y-66664244D01*
X164241410Y-66664244D01*
X164128743Y-66097830D01*
X163807896Y-65617648D01*
X163327714Y-65296801D01*
X162761300Y-65184134D01*
X162194886Y-65296801D01*
X161714704Y-65617648D01*
X161491300Y-65951996D01*
X161267896Y-65617648D01*
X160787714Y-65296801D01*
X160221300Y-65184134D01*
X159654886Y-65296801D01*
X159174704Y-65617648D01*
X158971300Y-65922064D01*
X158767896Y-65617648D01*
X158287714Y-65296801D01*
X157721300Y-65184134D01*
X157154886Y-65296801D01*
X156674704Y-65617648D01*
X156471300Y-65922064D01*
X156267896Y-65617648D01*
X155787714Y-65296801D01*
X155221300Y-65184134D01*
X154654886Y-65296801D01*
X154174704Y-65617648D01*
X153853857Y-66097830D01*
X153741190Y-66664244D01*
X153741190Y-68260556D01*
X153853857Y-68826970D01*
X154090800Y-69181581D01*
X153584654Y-69687727D01*
X153344169Y-69787094D01*
X152998707Y-70131953D01*
X152916108Y-70330874D01*
X152886155Y-70360827D01*
X152645669Y-70460194D01*
X152300207Y-70805053D01*
X152202012Y-71041532D01*
X152010669Y-71120594D01*
X151665207Y-71465453D01*
X151478014Y-71916264D01*
X151477588Y-72404395D01*
X151663994Y-72855531D01*
X152008853Y-73200993D01*
X152459664Y-73388186D01*
X152947795Y-73388612D01*
X153398931Y-73202206D01*
X153744393Y-72857347D01*
X153842588Y-72620868D01*
X154033931Y-72541806D01*
X154379393Y-72196947D01*
X154461992Y-71998026D01*
X154491946Y-71968073D01*
X154732431Y-71868706D01*
X155077893Y-71523847D01*
X155178528Y-71281490D01*
X156018209Y-70441810D01*
X156262512Y-70076185D01*
X156277952Y-69998560D01*
X156348300Y-69644900D01*
X156348300Y-69186819D01*
X156471300Y-69002736D01*
X156594300Y-69186819D01*
X156594300Y-71796181D01*
X152276555Y-76113927D01*
X152036069Y-76213294D01*
X151690607Y-76558153D01*
X151640973Y-76677686D01*
X151566169Y-76708594D01*
X151220707Y-77053453D01*
X151138108Y-77252374D01*
X151057355Y-77333127D01*
X150816869Y-77432494D01*
X150471407Y-77777353D01*
X150284214Y-78228164D01*
X150283788Y-78716295D01*
X118830671Y-78716295D01*
X118780910Y-78466134D01*
X118352350Y-77824750D01*
X117980109Y-77576026D01*
X117962010Y-77485035D01*
X117533450Y-76843650D01*
X116892065Y-76415090D01*
X116135500Y-76264600D01*
X114335910Y-76264600D01*
X114223800Y-76242300D01*
X113467235Y-76392790D01*
X113458603Y-76398557D01*
X113430965Y-76380090D01*
X112674400Y-76229600D01*
X110236000Y-76229600D01*
X109479435Y-76380090D01*
X109045397Y-76670105D01*
X108630365Y-76392790D01*
X107873800Y-76242300D01*
X101053900Y-76242300D01*
X100297334Y-76392790D01*
X99655950Y-76821350D01*
X97242950Y-79234350D01*
X96814390Y-79875735D01*
X96663900Y-80632300D01*
X92388500Y-80632300D01*
X92388500Y-72681455D01*
X93457173Y-72681455D01*
X93723732Y-73260826D01*
X94191716Y-73694087D01*
X94666446Y-73890719D01*
X94919800Y-73771365D01*
X94919800Y-72428100D01*
X95173800Y-72428100D01*
X95173800Y-73771365D01*
X95427154Y-73890719D01*
X95901884Y-73694087D01*
X96369868Y-73260826D01*
X96636427Y-72681455D01*
X96517607Y-72428100D01*
X95173800Y-72428100D01*
X94919800Y-72428100D01*
X93575993Y-72428100D01*
X93457173Y-72681455D01*
X92388500Y-72681455D01*
X92388500Y-68761610D01*
X93399870Y-68761610D01*
X93399870Y-70760590D01*
X93444148Y-70995907D01*
X93583220Y-71212031D01*
X93744449Y-71322194D01*
X93723732Y-71341374D01*
X93457173Y-71920745D01*
X93575993Y-72174100D01*
X94919800Y-72174100D01*
X94919800Y-72154100D01*
X95173800Y-72154100D01*
X95173800Y-72174100D01*
X96517607Y-72174100D01*
X96636427Y-71920745D01*
X96369868Y-71341374D01*
X96347937Y-71321070D01*
X96444739Y-71258779D01*
X97206076Y-71269955D01*
X97833535Y-71689210D01*
X98590100Y-71839700D01*
X100406200Y-71839700D01*
X101162765Y-71689210D01*
X101187250Y-71672850D01*
X101211735Y-71689210D01*
X101968300Y-71839700D01*
X102724865Y-71689210D01*
X103366250Y-71260650D01*
X103759950Y-70866950D01*
X104188510Y-70225565D01*
X104339000Y-69469000D01*
X104188510Y-68712435D01*
X103759950Y-68071050D01*
X103118565Y-67642490D01*
X102362000Y-67492000D01*
X101605435Y-67642490D01*
X101049839Y-68013728D01*
X100406200Y-67885700D01*
X98590100Y-67885700D01*
X97833535Y-68036190D01*
X97410816Y-68318642D01*
X96503284Y-68305320D01*
X96298180Y-68165179D01*
X96046290Y-68114170D01*
X94047310Y-68114170D01*
X93811993Y-68158448D01*
X93595869Y-68297520D01*
X93450879Y-68509720D01*
X93399870Y-68761610D01*
X92388500Y-68761610D01*
X92388500Y-68463980D01*
X95908679Y-64943800D01*
X123322006Y-64943800D01*
X123154093Y-64977200D01*
X122703758Y-65278104D01*
X122402854Y-65728439D01*
X122297190Y-66259646D01*
X122297190Y-67852354D01*
X122402854Y-68383561D01*
X122703758Y-68833896D01*
X122800300Y-68898403D01*
X122800300Y-69441578D01*
X122750462Y-69561601D01*
X122750138Y-69933567D01*
X122800300Y-70054969D01*
X122800300Y-70094463D01*
X122763162Y-70183901D01*
X122762838Y-70555867D01*
X122766801Y-70565458D01*
X122661562Y-70818901D01*
X122661238Y-71190867D01*
X122803283Y-71534643D01*
X123066073Y-71797892D01*
X123409601Y-71940538D01*
X123781567Y-71940862D01*
X124125343Y-71798817D01*
X124388592Y-71536027D01*
X124531238Y-71192499D01*
X124531307Y-71112832D01*
X124570301Y-70916800D01*
X124570300Y-70916795D01*
X124570300Y-70708106D01*
X124632838Y-70557499D01*
X124633162Y-70185533D01*
X124574820Y-70044335D01*
X124620138Y-69935199D01*
X124620462Y-69563233D01*
X124570300Y-69441831D01*
X124570300Y-68898403D01*
X124666842Y-68833896D01*
X124935300Y-68432120D01*
X125203758Y-68833896D01*
X125300300Y-68898403D01*
X125300300Y-70330695D01*
X125300299Y-70330700D01*
X125354454Y-70602948D01*
X125367667Y-70669375D01*
X125390271Y-70703205D01*
X125315862Y-70882401D01*
X125315538Y-71254367D01*
X125372323Y-71391798D01*
X125341262Y-71466601D01*
X125340938Y-71838567D01*
X125450367Y-72103405D01*
X125471167Y-72207975D01*
X125663010Y-72495090D01*
X125950125Y-72686933D01*
X126288800Y-72754300D01*
X126627475Y-72686933D01*
X126914590Y-72495090D01*
X127106433Y-72207975D01*
X127150762Y-71985117D01*
X127210938Y-71840199D01*
X127211262Y-71468233D01*
X127154477Y-71330802D01*
X127185538Y-71255999D01*
X127185652Y-71124959D01*
X127211901Y-70993000D01*
X127211900Y-70992995D01*
X127211900Y-70779122D01*
X127261738Y-70659099D01*
X127262062Y-70287133D01*
X127120017Y-69943357D01*
X127070300Y-69893553D01*
X127070300Y-68898403D01*
X127166842Y-68833896D01*
X127467746Y-68383561D01*
X127573410Y-67852354D01*
X127573410Y-66259646D01*
X127467746Y-65728439D01*
X127166842Y-65278104D01*
X127023914Y-65182603D01*
X127002933Y-65077126D01*
X127002933Y-65077125D01*
X126811090Y-64790010D01*
X126811087Y-64790008D01*
X125454090Y-63433010D01*
X125166975Y-63241167D01*
X125110784Y-63229990D01*
X124828300Y-63173799D01*
X124828295Y-63173800D01*
X95542105Y-63173800D01*
X95542100Y-63173799D01*
X95259616Y-63229990D01*
X95203425Y-63241167D01*
X94916310Y-63433010D01*
X94916308Y-63433013D01*
X90877710Y-67471610D01*
X90685867Y-67758725D01*
X90685867Y-67758726D01*
X90618499Y-68097400D01*
X90347000Y-68097400D01*
X90347000Y-62673700D01*
X138480331Y-62673700D01*
X138222008Y-62931573D01*
M02*
