G04 #@! TF.FileFunction,Copper,L1,Top,Signal*
%FSLAX46Y46*%
G04 Gerber Fmt 4.6, Leading zero omitted, Abs format (unit mm)*
G04 Created by KiCad (PCBNEW 4.0.2-stable) date 08/07/2016 16:35:56*
%MOMM*%
G01*
G04 APERTURE LIST*
%ADD10C,0.100000*%
%ADD11R,1.600000X1.000000*%
%ADD12R,1.000000X1.600000*%
%ADD13R,1.250000X1.000000*%
%ADD14R,1.300000X1.300000*%
%ADD15C,1.300000*%
%ADD16R,4.100000X2.000000*%
%ADD17R,1.676400X1.524000*%
%ADD18R,2.180000X1.620000*%
%ADD19R,1.220000X0.910000*%
%ADD20R,1.524000X1.676400*%
%ADD21R,1.100000X1.250000*%
%ADD22R,5.180000X1.430000*%
%ADD23R,5.300000X2.800000*%
%ADD24O,1.998980X1.998980*%
%ADD25R,1.998980X1.998980*%
%ADD26C,1.800000*%
%ADD27R,1.800000X2.200000*%
%ADD28R,0.900000X0.800000*%
%ADD29R,1.300000X0.700000*%
%ADD30R,0.700000X1.300000*%
%ADD31R,1.700000X0.900000*%
%ADD32R,0.900000X0.500000*%
%ADD33R,0.800000X1.000000*%
%ADD34R,0.300000X1.450000*%
%ADD35R,1.890000X1.830000*%
%ADD36R,1.100000X4.600000*%
%ADD37R,10.800000X9.400000*%
%ADD38R,2.850000X1.250000*%
%ADD39R,6.500000X5.600000*%
%ADD40C,1.506220*%
%ADD41O,1.506220X3.014980*%
%ADD42C,5.000000*%
%ADD43C,0.600000*%
%ADD44C,0.250000*%
%ADD45C,0.500000*%
%ADD46C,2.500000*%
%ADD47C,0.800000*%
%ADD48C,0.254000*%
G04 APERTURE END LIST*
D10*
D11*
X108673900Y-69658100D03*
X108673900Y-72658100D03*
D12*
X151647800Y-96027400D03*
X148647800Y-96027400D03*
D13*
X158397800Y-88177400D03*
X158397800Y-86177400D03*
X154987800Y-95127400D03*
X154987800Y-93127400D03*
D12*
X151187800Y-80367400D03*
X154187800Y-80367400D03*
X174227800Y-95597400D03*
X171227800Y-95597400D03*
D13*
X181347800Y-87947400D03*
X181347800Y-85947400D03*
X177517800Y-94697400D03*
X177517800Y-92697400D03*
D12*
X173977800Y-80097400D03*
X176977800Y-80097400D03*
X196064000Y-95313500D03*
X193064000Y-95313500D03*
D13*
X203238100Y-87588600D03*
X203238100Y-85588600D03*
X199364600Y-94510100D03*
X199364600Y-92510100D03*
D12*
X195692900Y-79756000D03*
X198692900Y-79756000D03*
X129707800Y-96057400D03*
X126707800Y-96057400D03*
D13*
X136617800Y-88297400D03*
X136617800Y-86297400D03*
X132977800Y-95317400D03*
X132977800Y-93317400D03*
D12*
X128687800Y-80527400D03*
X131687800Y-80527400D03*
D14*
X98640900Y-96443800D03*
D15*
X93640900Y-96443800D03*
D16*
X101903500Y-121945400D03*
X106503500Y-121945400D03*
D12*
X187199400Y-72961500D03*
X184199400Y-72961500D03*
D11*
X147561300Y-66572000D03*
X147561300Y-69572000D03*
D12*
X151647800Y-93647400D03*
X148647800Y-93647400D03*
X174227800Y-93207400D03*
X171227800Y-93207400D03*
X196089400Y-92722700D03*
X193089400Y-92722700D03*
X129707800Y-93687400D03*
X126707800Y-93687400D03*
D17*
X105168700Y-69380100D03*
X105168700Y-72783700D03*
D18*
X112712500Y-73166500D03*
X112712500Y-68946500D03*
D19*
X155087800Y-86282400D03*
X155087800Y-89552400D03*
X132967800Y-86462400D03*
X132967800Y-89732400D03*
X177517800Y-85842400D03*
X177517800Y-89112400D03*
X199517000Y-85550500D03*
X199517000Y-88820500D03*
D20*
X126276100Y-74358500D03*
X122872500Y-74358500D03*
X104533700Y-101790500D03*
X107937300Y-101790500D03*
D21*
X129882900Y-114228700D03*
X129882900Y-116428700D03*
D22*
X150467800Y-87517400D03*
X150467800Y-83477400D03*
X172927800Y-87337400D03*
X172927800Y-83297400D03*
X128427800Y-87897400D03*
X128427800Y-83857400D03*
X194830700Y-87033800D03*
X194830700Y-82993800D03*
D23*
X107924600Y-113619300D03*
X107924600Y-106319300D03*
D24*
X95046800Y-72301100D03*
D25*
X95046800Y-69761100D03*
D26*
X156211900Y-113777000D03*
X161211900Y-113777000D03*
D27*
X153411900Y-120777000D03*
X164011900Y-120777000D03*
D26*
X158711900Y-113777000D03*
X178449600Y-114285000D03*
X183449600Y-114285000D03*
D27*
X175649600Y-121285000D03*
X186249600Y-121285000D03*
D26*
X180949600Y-114285000D03*
X200458700Y-114158000D03*
X205458700Y-114158000D03*
D27*
X197658700Y-121158000D03*
X208258700Y-121158000D03*
D26*
X202958700Y-114158000D03*
X134367900Y-114005600D03*
X139367900Y-114005600D03*
D27*
X131567900Y-121005600D03*
X142167900Y-121005600D03*
D26*
X136867900Y-114005600D03*
D28*
X125447300Y-80274200D03*
X125447300Y-78374200D03*
X123447300Y-79324200D03*
D29*
X195332350Y-73371750D03*
X195332350Y-71471750D03*
X197872350Y-73371750D03*
X197872350Y-71471750D03*
X200412350Y-73371750D03*
X200412350Y-71471750D03*
X202952350Y-73371750D03*
X202952350Y-71471750D03*
X205492350Y-73371750D03*
X205492350Y-71471750D03*
D30*
X151677800Y-98497400D03*
X153577800Y-98497400D03*
X160962300Y-97231200D03*
X162862300Y-97231200D03*
D29*
X160827800Y-95337400D03*
X160827800Y-93437400D03*
X160957800Y-81497400D03*
X160957800Y-83397400D03*
D31*
X156507800Y-81587400D03*
X156507800Y-84487400D03*
D30*
X174187800Y-97967400D03*
X176087800Y-97967400D03*
X129657800Y-98487400D03*
X131557800Y-98487400D03*
X138965900Y-97409000D03*
X140865900Y-97409000D03*
D29*
X138867800Y-95367400D03*
X138867800Y-93467400D03*
X139277800Y-81627400D03*
X139277800Y-83527400D03*
D31*
X134567800Y-81667400D03*
X134567800Y-84567400D03*
D30*
X183504800Y-97104200D03*
X185404800Y-97104200D03*
D29*
X183557800Y-95027400D03*
X183557800Y-93127400D03*
X183717800Y-81257400D03*
X183717800Y-83157400D03*
D31*
X179397800Y-81137400D03*
X179397800Y-84037400D03*
D30*
X196166700Y-97764600D03*
X198066700Y-97764600D03*
X205386900Y-97790000D03*
X207286900Y-97790000D03*
D29*
X205562200Y-94739500D03*
X205562200Y-92839500D03*
X205536800Y-80863400D03*
X205536800Y-82763400D03*
D31*
X201612500Y-80820600D03*
X201612500Y-83720600D03*
D29*
X126644400Y-118602800D03*
X126644400Y-116702800D03*
D32*
X129578100Y-71704900D03*
X129578100Y-70204900D03*
X132118100Y-71704900D03*
X132118100Y-70204900D03*
D30*
X121879400Y-105181400D03*
X119979400Y-105181400D03*
X117891600Y-105168700D03*
X115991600Y-105168700D03*
X121942900Y-109067600D03*
X120042900Y-109067600D03*
X117929700Y-109080300D03*
X116029700Y-109080300D03*
X121981000Y-113068100D03*
X120081000Y-113068100D03*
X117967800Y-113080800D03*
X116067800Y-113080800D03*
X122006400Y-117106700D03*
X120106400Y-117106700D03*
X118005900Y-117094000D03*
X116105900Y-117094000D03*
D29*
X186461400Y-86133900D03*
X186461400Y-88033900D03*
D33*
X187077500Y-82499200D03*
X189477500Y-82499200D03*
D34*
X157117800Y-90787400D03*
X157617800Y-90787400D03*
X158117800Y-90787400D03*
X158617800Y-90787400D03*
X159117800Y-90787400D03*
X159141800Y-95187400D03*
X158633800Y-95187400D03*
X158117800Y-95187400D03*
D35*
X158117800Y-92987400D03*
D34*
X157117800Y-95187400D03*
X157617800Y-95187400D03*
X179657800Y-90397400D03*
X180157800Y-90397400D03*
X180657800Y-90397400D03*
X181157800Y-90397400D03*
X181657800Y-90397400D03*
X181681800Y-94797400D03*
X181173800Y-94797400D03*
X180657800Y-94797400D03*
D35*
X180657800Y-92597400D03*
D34*
X179657800Y-94797400D03*
X180157800Y-94797400D03*
X201552300Y-90103600D03*
X202052300Y-90103600D03*
X202552300Y-90103600D03*
X203052300Y-90103600D03*
X203552300Y-90103600D03*
X203576300Y-94503600D03*
X203068300Y-94503600D03*
X202552300Y-94503600D03*
D35*
X202552300Y-92303600D03*
D34*
X201552300Y-94503600D03*
X202052300Y-94503600D03*
X135127800Y-90987400D03*
X135627800Y-90987400D03*
X136127800Y-90987400D03*
X136627800Y-90987400D03*
X137127800Y-90987400D03*
X137151800Y-95387400D03*
X136643800Y-95387400D03*
X136127800Y-95387400D03*
D35*
X136127800Y-93187400D03*
D34*
X135127800Y-95387400D03*
X135627800Y-95387400D03*
D36*
X113051800Y-96545400D03*
X111351800Y-96545400D03*
X107951800Y-96545400D03*
D37*
X109651800Y-87395400D03*
D36*
X109651800Y-96545400D03*
X106251800Y-96545400D03*
D38*
X111646100Y-126562200D03*
D39*
X118046100Y-124282200D03*
D38*
X111646100Y-122002200D03*
D40*
X126868600Y-104786700D03*
X126868600Y-107286700D03*
X129618600Y-104786700D03*
X129618600Y-107286700D03*
X132398600Y-104786700D03*
X132398600Y-107286700D03*
X135138600Y-104786700D03*
X135138600Y-107286700D03*
X140578600Y-104786700D03*
X140578600Y-107286700D03*
X148675100Y-104781600D03*
X148675100Y-107281600D03*
X151475100Y-104781600D03*
X151475100Y-107281600D03*
X154265100Y-104781600D03*
X154265100Y-107281600D03*
X157065100Y-104731600D03*
X157065100Y-107231600D03*
X162425100Y-104671600D03*
X162425100Y-107171600D03*
X170842400Y-104668600D03*
X170842400Y-107168600D03*
X173662400Y-104668600D03*
X173662400Y-107168600D03*
X176512400Y-104668600D03*
X176512400Y-107168600D03*
X179332400Y-104668600D03*
X179332400Y-107168600D03*
X184772400Y-104658600D03*
X184772400Y-107158600D03*
X192989200Y-104673400D03*
X192989200Y-107173400D03*
X195834000Y-104673400D03*
X195834000Y-107173400D03*
X198678800Y-104673400D03*
X198678800Y-107173400D03*
X201523600Y-104673400D03*
X201523600Y-107173400D03*
X206768700Y-104673400D03*
X206768700Y-107173400D03*
D41*
X185172350Y-67341750D03*
X187712350Y-67341750D03*
X190212350Y-67341750D03*
X202952350Y-67341750D03*
X207992350Y-67341750D03*
X205452350Y-67341750D03*
X200412350Y-67341750D03*
X192792350Y-67341750D03*
X195332350Y-67341750D03*
X197832350Y-67341750D03*
X123685300Y-67056000D03*
X126185300Y-67056000D03*
X155221300Y-67462400D03*
X157721300Y-67462400D03*
X162761300Y-67462400D03*
X160221300Y-67462400D03*
X168238800Y-67462400D03*
X170738800Y-67462400D03*
X175778800Y-67462400D03*
X173238800Y-67462400D03*
X138010900Y-67411600D03*
X143090900Y-67411600D03*
X140550900Y-67411600D03*
D42*
X93345500Y-125121600D03*
D43*
X185267600Y-89128600D03*
X141122400Y-95834200D03*
X207835500Y-96126300D03*
X186029600Y-95745300D03*
X163703000Y-95415100D03*
X174817800Y-85327400D03*
X177667800Y-84377400D03*
X169329100Y-93865700D03*
X168516300Y-95237300D03*
X152273000Y-85788500D03*
X154673300Y-84950300D03*
X156730700Y-85928200D03*
X146507200Y-94348300D03*
X145694400Y-95770700D03*
X109651800Y-87395400D03*
X106273600Y-88874600D03*
X112331500Y-88671400D03*
X112585500Y-83896200D03*
X105600500Y-83781900D03*
X129057400Y-85864700D03*
X132842000Y-85039200D03*
X134861300Y-86309200D03*
X123469400Y-95351600D03*
X125082300Y-94272100D03*
X180657800Y-92597400D03*
X179844700Y-91986100D03*
X179920900Y-93230700D03*
X181444900Y-93205300D03*
X181444900Y-92024200D03*
X191198500Y-93421200D03*
X189750700Y-94513400D03*
X195656200Y-85039200D03*
X196926200Y-84988400D03*
X199466200Y-84188300D03*
X201155300Y-85013800D03*
X184137300Y-70599300D03*
X133286500Y-70154800D03*
X125806200Y-77114400D03*
X129870200Y-117741700D03*
X147218400Y-65341500D03*
X97726500Y-72872600D03*
X95707200Y-98488500D03*
X95745300Y-94462600D03*
X137297800Y-93837400D03*
X137287800Y-92527400D03*
X135097800Y-92537400D03*
X135137800Y-93857400D03*
X136127800Y-93187400D03*
X135097800Y-93887400D03*
X158117800Y-92987400D03*
X157377800Y-93577400D03*
X159117800Y-93547400D03*
X159117800Y-92507400D03*
X157167800Y-92497400D03*
X157407800Y-93577400D03*
X179447800Y-85667400D03*
X179447800Y-84177400D03*
X202552300Y-92303600D03*
X201930000Y-91706700D03*
X201904600Y-92887800D03*
X203174600Y-92925900D03*
X204063600Y-91694000D03*
X203161900Y-91706700D03*
X204038200Y-92925900D03*
X126276100Y-71653400D03*
X126250700Y-71069200D03*
X126326900Y-70472300D03*
X104736900Y-125082300D03*
X186956700Y-64046100D03*
X153085800Y-64084200D03*
X151104600Y-65722500D03*
X141833600Y-69557900D03*
X123685300Y-69748400D03*
X123698000Y-70370700D03*
X123596400Y-71005700D03*
X136385300Y-106083100D03*
X139407900Y-106019600D03*
X142379700Y-96951800D03*
X161201100Y-105956100D03*
X158305500Y-106032300D03*
X164515800Y-97802700D03*
X183718200Y-105841800D03*
X180403500Y-105918000D03*
X186740800Y-97675700D03*
X205613000Y-105918000D03*
X202615800Y-105943400D03*
X208584800Y-98958400D03*
X202946000Y-69735700D03*
X205422500Y-69786500D03*
X200406000Y-69710300D03*
X195122800Y-63919100D03*
X194614800Y-63919100D03*
X191414400Y-63550800D03*
X190995300Y-63169800D03*
X139014200Y-63461900D03*
X139344400Y-63169800D03*
X192836800Y-69761100D03*
X189509400Y-75844400D03*
X189484000Y-80772000D03*
X194056000Y-63919100D03*
X121996200Y-120269000D03*
X112445800Y-125107700D03*
X195326000Y-69735700D03*
X197891400Y-69697600D03*
X112674400Y-78206600D03*
X110197900Y-78244700D03*
X107873800Y-78219300D03*
X100660629Y-96448465D03*
X102298500Y-96520000D03*
X98590100Y-69862700D03*
X100406200Y-69862700D03*
X102362000Y-69469000D03*
X104165400Y-96481900D03*
X152260300Y-77749400D03*
X151511000Y-78473300D03*
X152730200Y-77254100D03*
X170726100Y-72047100D03*
X170713400Y-71170800D03*
X170738800Y-70027800D03*
X167220900Y-80086200D03*
X166700200Y-79540100D03*
X166198550Y-79063850D03*
X173240700Y-72161400D03*
X173266100Y-71374000D03*
X173238800Y-70396100D03*
X174599600Y-75018900D03*
X173837600Y-74968100D03*
X175361600Y-74968100D03*
X176898300Y-72440800D03*
X176428400Y-71653400D03*
X176034700Y-71018400D03*
X153339800Y-71501000D03*
X154038300Y-70827900D03*
X152704800Y-72161400D03*
X168236900Y-72186800D03*
X168262300Y-71323200D03*
X168238800Y-70408800D03*
X190233300Y-69900800D03*
X185788300Y-80797400D03*
X185762900Y-75539600D03*
X122999500Y-107086400D03*
X120967500Y-107086400D03*
X125361700Y-109562900D03*
X168922700Y-109601000D03*
X146964400Y-109588300D03*
X192976500Y-108775500D03*
X171157900Y-110363000D03*
X127177800Y-110375700D03*
X149199600Y-110350300D03*
X195821300Y-108724700D03*
X120992900Y-111112300D03*
X123012200Y-111086900D03*
X173329600Y-111175800D03*
X129044700Y-111137700D03*
X151422100Y-111175800D03*
X123151900Y-115100100D03*
X198678800Y-108737400D03*
X121056400Y-115138200D03*
X175920400Y-111950500D03*
X130771900Y-111963200D03*
X153644600Y-111950500D03*
X123088400Y-119075200D03*
X120967500Y-119126000D03*
X201523600Y-108737400D03*
X143129000Y-97853500D03*
X141224000Y-98907600D03*
X137756900Y-96697800D03*
X143179800Y-113245900D03*
X169659300Y-117081300D03*
X167373300Y-117271800D03*
X165811200Y-114350800D03*
X165430200Y-98780600D03*
X159804100Y-98577400D03*
X159677100Y-96570800D03*
X187845700Y-113042700D03*
X187782200Y-98780600D03*
X182194200Y-96380300D03*
X182194200Y-97967800D03*
X203492100Y-79400400D03*
X203403200Y-76911200D03*
X209562700Y-77698600D03*
X209562700Y-82664300D03*
X204076300Y-98793300D03*
X203771500Y-96761300D03*
D44*
X186461400Y-88033900D02*
X186362300Y-88033900D01*
X186362300Y-88033900D02*
X185267600Y-89128600D01*
X156507800Y-84487400D02*
X156707800Y-84487400D01*
X156707800Y-84487400D02*
X158397800Y-86177400D01*
X155087800Y-86282400D02*
X155087800Y-85907400D01*
X155087800Y-85907400D02*
X156507800Y-84487400D01*
X140865900Y-97409000D02*
X140865900Y-96090700D01*
X140865900Y-96090700D02*
X141122400Y-95834200D01*
X207286900Y-97790000D02*
X207286900Y-96674900D01*
X207286900Y-96674900D02*
X207835500Y-96126300D01*
X185404800Y-97104200D02*
X185404800Y-96370100D01*
X185404800Y-96370100D02*
X186029600Y-95745300D01*
X162862300Y-97231200D02*
X162862300Y-96255800D01*
X162862300Y-96255800D02*
X163703000Y-95415100D01*
X171227800Y-95597400D02*
X168876400Y-95597400D01*
X174817800Y-85327400D02*
X174177800Y-85327400D01*
X177667800Y-84377400D02*
X179247800Y-84377400D01*
X169218700Y-85327400D02*
X174177800Y-85327400D01*
X168414700Y-86131400D02*
X169218700Y-85327400D01*
X168414700Y-92951300D02*
X168414700Y-86131400D01*
X169329100Y-93865700D02*
X168414700Y-92951300D01*
X168876400Y-95597400D02*
X168516300Y-95237300D01*
X158397800Y-86177400D02*
X156979900Y-86177400D01*
X153835100Y-85788500D02*
X152273000Y-85788500D01*
X154673300Y-84950300D02*
X153835100Y-85788500D01*
X156979900Y-86177400D02*
X156730700Y-85928200D01*
X148647800Y-96027400D02*
X145951100Y-96027400D01*
X154593900Y-85788500D02*
X155087800Y-86282400D01*
X146735800Y-85788500D02*
X154593900Y-85788500D01*
X145834100Y-86690200D02*
X146735800Y-85788500D01*
X145834100Y-92773500D02*
X145834100Y-86690200D01*
X146507200Y-93446600D02*
X145834100Y-92773500D01*
X146507200Y-94348300D02*
X146507200Y-93446600D01*
X145951100Y-96027400D02*
X145694400Y-95770700D01*
X105689400Y-92621100D02*
X106273600Y-88874600D01*
X110909100Y-92621100D02*
X105689400Y-92621100D01*
X112331500Y-88671400D02*
X110909100Y-92621100D01*
X108356400Y-82638900D02*
X112585500Y-83896200D01*
X105600500Y-83781900D02*
X108356400Y-82638900D01*
X136617800Y-86297400D02*
X134873100Y-86297400D01*
X132016500Y-85864700D02*
X129057400Y-85864700D01*
X132842000Y-85039200D02*
X132016500Y-85864700D01*
X134873100Y-86297400D02*
X134861300Y-86309200D01*
X128231900Y-85864700D02*
X132370100Y-85864700D01*
X123781500Y-96057400D02*
X123469400Y-95745300D01*
X123469400Y-95745300D02*
X123469400Y-95351600D01*
X125082300Y-94272100D02*
X123736100Y-92925900D01*
X123736100Y-92925900D02*
X123736100Y-86931500D01*
X123736100Y-86931500D02*
X124802900Y-85864700D01*
X124802900Y-85864700D02*
X128231900Y-85864700D01*
X126707800Y-96057400D02*
X123781500Y-96057400D01*
X132370100Y-85864700D02*
X132967800Y-86462400D01*
X135627800Y-90987400D02*
X135627800Y-92687400D01*
X135627800Y-92687400D02*
X136127800Y-93187400D01*
X157617800Y-90787400D02*
X157617800Y-92487400D01*
X157617800Y-92487400D02*
X158117800Y-92987400D01*
X180157800Y-90397400D02*
X180157800Y-92097400D01*
X180157800Y-92097400D02*
X180657800Y-92597400D01*
X179832000Y-93141800D02*
X179844700Y-91986100D01*
X179920900Y-93230700D02*
X179832000Y-93141800D01*
X181597300Y-92176600D02*
X181444900Y-93205300D01*
X181444900Y-92024200D02*
X181597300Y-92176600D01*
X191058800Y-95313500D02*
X190144400Y-95554800D01*
X191541400Y-94856300D02*
X191998600Y-95313500D01*
X191541400Y-93764100D02*
X191541400Y-94856300D01*
X191198500Y-93421200D02*
X191541400Y-93764100D01*
X190144400Y-95554800D02*
X189750700Y-94513400D01*
X191998600Y-95313500D02*
X193064000Y-95313500D01*
X190766700Y-94310200D02*
X191058800Y-95313500D01*
X201777600Y-85550500D02*
X201692000Y-85550500D01*
X195656200Y-85039200D02*
X195630800Y-85039200D01*
X198666100Y-84988400D02*
X196926200Y-84988400D01*
X199466200Y-84188300D02*
X198666100Y-84988400D01*
X201692000Y-85550500D02*
X201155300Y-85013800D01*
X105168700Y-72783700D02*
X105168700Y-82912300D01*
X105168700Y-82912300D02*
X109651800Y-87395400D01*
X108673900Y-72658100D02*
X112204100Y-72658100D01*
X112204100Y-72658100D02*
X112712500Y-73166500D01*
X184199400Y-72961500D02*
X184199400Y-70661400D01*
X184199400Y-70661400D02*
X184137300Y-70599300D01*
X132118100Y-70204900D02*
X133236400Y-70204900D01*
X133236400Y-70204900D02*
X133286500Y-70154800D01*
X125447300Y-78374200D02*
X125447300Y-77473300D01*
X125447300Y-77473300D02*
X125806200Y-77114400D01*
X129882900Y-116428700D02*
X129882900Y-117729000D01*
X129882900Y-117729000D02*
X129870200Y-117741700D01*
X147561300Y-66572000D02*
X147561300Y-65684400D01*
X147561300Y-65684400D02*
X147218400Y-65341500D01*
X118046100Y-124282200D02*
X110147100Y-124282200D01*
X101903500Y-124839700D02*
X101903500Y-121945400D01*
X103403400Y-126339600D02*
X101903500Y-124839700D01*
X108089700Y-126339600D02*
X103403400Y-126339600D01*
X110147100Y-124282200D02*
X108089700Y-126339600D01*
X116029700Y-109080300D02*
X116029700Y-105206800D01*
X116029700Y-105206800D02*
X115991600Y-105168700D01*
X116067800Y-113080800D02*
X116067800Y-109118400D01*
X116067800Y-109118400D02*
X116029700Y-109080300D01*
X116105900Y-117094000D02*
X116105900Y-113118900D01*
X116105900Y-113118900D02*
X116067800Y-113080800D01*
X118046100Y-124282200D02*
X118046100Y-121551300D01*
X118046100Y-121551300D02*
X116105900Y-119611100D01*
X116105900Y-119611100D02*
X116105900Y-117094000D01*
X116042400Y-117157500D02*
X116105900Y-117094000D01*
X116080500Y-113093500D02*
X116067800Y-113080800D01*
X118046100Y-124282200D02*
X118046100Y-121741800D01*
X109651800Y-87395400D02*
X109651800Y-85610700D01*
X105130600Y-82874200D02*
X109651800Y-87395400D01*
X112712500Y-84334700D02*
X109651800Y-87395400D01*
X112293000Y-72658100D02*
X112750600Y-73115700D01*
X105168700Y-72783700D02*
X108548300Y-72783700D01*
X108548300Y-72783700D02*
X108673900Y-72658100D01*
X97726500Y-72872600D02*
X97815400Y-72783700D01*
X97815400Y-72783700D02*
X105168700Y-72783700D01*
X105195500Y-72898000D02*
X105527500Y-73230000D01*
X101903500Y-121945400D02*
X98044000Y-121945400D01*
X98044000Y-121945400D02*
X95736400Y-119637800D01*
X95736400Y-119637800D02*
X95736400Y-99076500D01*
X95736400Y-99076500D02*
X95707200Y-99047300D01*
X104533700Y-101790500D02*
X98450400Y-101790500D01*
X98450400Y-101790500D02*
X95707200Y-99047300D01*
X95707200Y-99047300D02*
X95707200Y-98488500D01*
X95736400Y-88934300D02*
X95736400Y-94453700D01*
X97275300Y-87395400D02*
X95736400Y-88934300D01*
X109651800Y-87395400D02*
X97275300Y-87395400D01*
X95736400Y-94453700D02*
X95745300Y-94462600D01*
X113051800Y-96545400D02*
X113051800Y-90795400D01*
X113051800Y-90795400D02*
X109651800Y-87395400D01*
X109651800Y-96545400D02*
X109651800Y-87395400D01*
X136127800Y-93187400D02*
X135807800Y-93187400D01*
X135807800Y-93187400D02*
X135137800Y-93857400D01*
X137297800Y-93837400D02*
X136647800Y-93187400D01*
X135107800Y-92527400D02*
X137287800Y-92527400D01*
X135097800Y-92537400D02*
X135107800Y-92527400D01*
X136647800Y-93187400D02*
X136127800Y-93187400D01*
X135097800Y-93887400D02*
X135097800Y-93877400D01*
X157997800Y-92987400D02*
X158117800Y-92987400D01*
X157377800Y-93577400D02*
X158447800Y-92507400D01*
X158447800Y-92507400D02*
X159117800Y-92507400D01*
X159117800Y-93547400D02*
X158067800Y-92497400D01*
X158067800Y-92497400D02*
X157167800Y-92497400D01*
X157407800Y-93577400D02*
X157997800Y-92987400D01*
X134567800Y-84567400D02*
X134567800Y-84862400D01*
X134567800Y-84862400D02*
X132967800Y-86462400D01*
X136617800Y-86297400D02*
X136297800Y-86297400D01*
X136297800Y-86297400D02*
X134567800Y-84567400D01*
X126707800Y-96057400D02*
X126707800Y-93687400D01*
X160827800Y-93437400D02*
X160827800Y-93267400D01*
X160827800Y-93267400D02*
X161497800Y-92597400D01*
X161497800Y-92597400D02*
X162197800Y-92597400D01*
X162197800Y-92597400D02*
X162877800Y-93277400D01*
X162877800Y-93277400D02*
X162862300Y-97231200D01*
X183557800Y-93127400D02*
X183557800Y-92597400D01*
X185417800Y-92967400D02*
X185404800Y-97104200D01*
X184677800Y-92227400D02*
X185417800Y-92967400D01*
X183927800Y-92227400D02*
X184677800Y-92227400D01*
X183557800Y-92597400D02*
X183927800Y-92227400D01*
X148647800Y-96027400D02*
X148647800Y-93647400D01*
X177517800Y-85842400D02*
X177592800Y-85842400D01*
X177592800Y-85842400D02*
X179397800Y-84037400D01*
X181347800Y-85947400D02*
X181307800Y-85947400D01*
X181307800Y-85947400D02*
X179397800Y-84037400D01*
X179247800Y-84377400D02*
X179447800Y-84177400D01*
X171227800Y-95597400D02*
X171227800Y-93207400D01*
X202526900Y-92303600D02*
X201930000Y-91706700D01*
X202526900Y-92303600D02*
X202247500Y-92303600D01*
X202247500Y-92303600D02*
X201904600Y-92887800D01*
X203174600Y-92925900D02*
X202552300Y-92367100D01*
X202552300Y-92367100D02*
X202552300Y-92303600D01*
X202552300Y-92303600D02*
X203200000Y-91706700D01*
X203200000Y-91706700D02*
X204063600Y-91694000D01*
X203161900Y-91706700D02*
X203873100Y-92494100D01*
X203873100Y-92494100D02*
X204038200Y-92925900D01*
X199517000Y-85550500D02*
X198631300Y-85550500D01*
X198631300Y-85550500D02*
X198437500Y-85356700D01*
X198437500Y-85356700D02*
X190614300Y-85356700D01*
X190614300Y-85356700D02*
X190296800Y-85674200D01*
X190296800Y-85674200D02*
X189934198Y-92052182D01*
X189934198Y-92052182D02*
X190766700Y-94310200D01*
X202552300Y-92303600D02*
X205026300Y-92303600D01*
X205026300Y-92303600D02*
X205562200Y-92839500D01*
X202052300Y-90103600D02*
X202052300Y-91803600D01*
X202052300Y-91803600D02*
X202552300Y-92303600D01*
X202052300Y-90103600D02*
X202052300Y-88933400D01*
X201625200Y-88506300D02*
X201625200Y-85550500D01*
X202052300Y-88933400D02*
X201625200Y-88506300D01*
X202069700Y-85550500D02*
X203200000Y-85550500D01*
X203200000Y-85550500D02*
X203238100Y-85588600D01*
X205562200Y-92839500D02*
X205562200Y-91960700D01*
X205562200Y-91960700D02*
X205854300Y-91668600D01*
X205854300Y-91668600D02*
X206971900Y-91668600D01*
X206971900Y-91668600D02*
X207274200Y-91970900D01*
X207274200Y-91970900D02*
X207286900Y-97790000D01*
X193064000Y-95313500D02*
X193064000Y-92748100D01*
X193064000Y-92748100D02*
X193089400Y-92722700D01*
X203073000Y-85550500D02*
X203149200Y-85626700D01*
X199517000Y-85550500D02*
X201625200Y-85550500D01*
X201625200Y-85550500D02*
X201777600Y-85550500D01*
X201777600Y-85550500D02*
X202069700Y-85550500D01*
X202069700Y-85550500D02*
X202082400Y-85550500D01*
X202082400Y-85550500D02*
X201612500Y-85080600D01*
X201612500Y-85080600D02*
X201612500Y-83720600D01*
X158117800Y-90787400D02*
X158117800Y-88457400D01*
X158117800Y-88457400D02*
X158397800Y-88177400D01*
X154987800Y-95127400D02*
X157057800Y-95127400D01*
X157057800Y-95127400D02*
X157117800Y-95187400D01*
X155087800Y-89552400D02*
X155087800Y-93027400D01*
X155087800Y-93027400D02*
X154987800Y-93127400D01*
X155087800Y-89552400D02*
X155882800Y-89552400D01*
X155882800Y-89552400D02*
X157117800Y-90787400D01*
X155087800Y-89552400D02*
X152502800Y-89552400D01*
X152502800Y-89552400D02*
X150467800Y-87517400D01*
X180657800Y-90397400D02*
X180657800Y-88637400D01*
X180657800Y-88637400D02*
X181347800Y-87947400D01*
X177517800Y-94697400D02*
X179557800Y-94697400D01*
X179557800Y-94697400D02*
X179657800Y-94797400D01*
X177517800Y-89112400D02*
X178372800Y-89112400D01*
X178372800Y-89112400D02*
X179657800Y-90397400D01*
X177517800Y-89112400D02*
X174282800Y-89112400D01*
X174282800Y-89112400D02*
X172927800Y-87757400D01*
X172927800Y-87757400D02*
X172927800Y-87337400D01*
X177517800Y-92697400D02*
X177517800Y-89112400D01*
X202552300Y-90103600D02*
X202552300Y-88274400D01*
X202552300Y-88274400D02*
X203238100Y-87588600D01*
X201552300Y-94503600D02*
X199371100Y-94503600D01*
X199371100Y-94503600D02*
X199364600Y-94510100D01*
X201552300Y-90103600D02*
X201552300Y-89335100D01*
X201037700Y-88820500D02*
X199517000Y-88820500D01*
X201552300Y-89335100D02*
X201037700Y-88820500D01*
X199517000Y-88820500D02*
X196617400Y-88820500D01*
X196617400Y-88820500D02*
X194830700Y-87033800D01*
X199364600Y-92510100D02*
X199085200Y-89252300D01*
X199085200Y-89252300D02*
X199517000Y-88820500D01*
X136127800Y-90987400D02*
X136127800Y-88787400D01*
X136127800Y-88787400D02*
X136617800Y-88297400D01*
X135127800Y-95387400D02*
X133047800Y-95387400D01*
X133047800Y-95387400D02*
X132977800Y-95317400D01*
X132967800Y-89732400D02*
X130262800Y-89732400D01*
X130262800Y-89732400D02*
X128427800Y-87897400D01*
X135127800Y-90987400D02*
X134222800Y-90987400D01*
X134222800Y-90987400D02*
X132967800Y-89732400D01*
X132977800Y-93317400D02*
X132977800Y-89742400D01*
X132977800Y-89742400D02*
X132967800Y-89732400D01*
D45*
X126276100Y-71094600D02*
X126276100Y-71653400D01*
X126250700Y-71069200D02*
X126276100Y-71094600D01*
X126276100Y-74358500D02*
X126276100Y-70523100D01*
X126276100Y-70523100D02*
X126326900Y-70472300D01*
X106503500Y-121945400D02*
X106503500Y-123315700D01*
X106503500Y-123315700D02*
X104736900Y-125082300D01*
D44*
X125857000Y-73939400D02*
X126276100Y-74358500D01*
X111646100Y-122002200D02*
X106560300Y-122002200D01*
X106560300Y-122002200D02*
X106503500Y-121945400D01*
X107924600Y-113619300D02*
X109557800Y-113619300D01*
X109557800Y-113619300D02*
X112712500Y-110464600D01*
X112712500Y-110464600D02*
X112712500Y-101777800D01*
X112712500Y-101777800D02*
X111351800Y-100417100D01*
X111351800Y-100417100D02*
X111351800Y-96545400D01*
X107913200Y-121881900D02*
X107913200Y-113630700D01*
X107913200Y-113630700D02*
X107924600Y-113619300D01*
X147561300Y-69572000D02*
X149045800Y-69572000D01*
X186804300Y-63893700D02*
X186956700Y-64046100D01*
X153276300Y-63893700D02*
X186804300Y-63893700D01*
X153085800Y-64084200D02*
X153276300Y-63893700D01*
X151104600Y-67513200D02*
X151104600Y-65722500D01*
X149045800Y-69572000D02*
X151104600Y-67513200D01*
X141833600Y-69557900D02*
X141847700Y-69572000D01*
X141847700Y-69572000D02*
X147561300Y-69572000D01*
X147407500Y-69572000D02*
X147561300Y-69572000D01*
D45*
X123596400Y-71005700D02*
X123596400Y-70472300D01*
X123685300Y-69748400D02*
X123685300Y-69342000D01*
X123596400Y-70472300D02*
X123698000Y-70370700D01*
X122872500Y-74358500D02*
X122872500Y-71920100D01*
X123596400Y-71196200D02*
X123596400Y-71005700D01*
X122872500Y-71920100D02*
X123596400Y-71196200D01*
D44*
X123447300Y-79324200D02*
X123380500Y-79324200D01*
D45*
X123380500Y-79324200D02*
X122872500Y-78816200D01*
X122872500Y-78816200D02*
X122872500Y-74358500D01*
D44*
X123342400Y-73888600D02*
X122872500Y-74358500D01*
X107924600Y-106319300D02*
X107924600Y-101803200D01*
X107924600Y-101803200D02*
X107937300Y-101790500D01*
X107951800Y-96545400D02*
X107951800Y-101776000D01*
X107951800Y-101776000D02*
X107937300Y-101790500D01*
X126644400Y-116702800D02*
X126644400Y-115328700D01*
X127744400Y-114228700D02*
X129882900Y-114228700D01*
X126644400Y-115328700D02*
X127744400Y-114228700D01*
X136385300Y-106083100D02*
X136448800Y-106019600D01*
X136448800Y-106019600D02*
X139407900Y-106019600D01*
X137127800Y-90987400D02*
X141152400Y-90987400D01*
X142341600Y-92176600D02*
X142379700Y-96951800D01*
X141152400Y-90987400D02*
X142341600Y-92176600D01*
X158381700Y-105956100D02*
X161201100Y-105956100D01*
X158305500Y-106032300D02*
X158381700Y-105956100D01*
X159117800Y-90787400D02*
X163520300Y-90787400D01*
X164515800Y-91782900D02*
X164515800Y-97802700D01*
X163520300Y-90787400D02*
X164515800Y-91782900D01*
X180479700Y-105841800D02*
X183718200Y-105841800D01*
X180403500Y-105918000D02*
X180479700Y-105841800D01*
X186687800Y-90977400D02*
X186107800Y-90397400D01*
X186107800Y-90397400D02*
X181657800Y-90397400D01*
X186687800Y-97622700D02*
X186687800Y-90977400D01*
X186740800Y-97675700D02*
X186687800Y-97622700D01*
X202641200Y-105918000D02*
X205613000Y-105918000D01*
X202615800Y-105943400D02*
X202641200Y-105918000D01*
X203974700Y-89687400D02*
X207505300Y-89687400D01*
X207505300Y-89687400D02*
X208483200Y-90665300D01*
X203974700Y-89687400D02*
X203558500Y-90103600D01*
X208483200Y-98856800D02*
X208483200Y-90665300D01*
X208584800Y-98958400D02*
X208483200Y-98856800D01*
X203552300Y-90103600D02*
X203558500Y-90103600D01*
X203552300Y-90103600D02*
X203552300Y-89512900D01*
X202952350Y-71471750D02*
X202952350Y-69742050D01*
X202952350Y-69742050D02*
X202946000Y-69735700D01*
X205492350Y-69856350D02*
X205492350Y-71471750D01*
X205422500Y-69786500D02*
X205492350Y-69856350D01*
X200399650Y-69716650D02*
X200412350Y-71471750D01*
X200406000Y-69710300D02*
X200399650Y-69716650D01*
D45*
X194614800Y-63919100D02*
X195122800Y-63919100D01*
X191033400Y-63169800D02*
X190995300Y-63169800D01*
X191414400Y-63550800D02*
X191033400Y-63169800D01*
X139306300Y-63169800D02*
X139344400Y-63169800D01*
X139014200Y-63461900D02*
X139306300Y-63169800D01*
X190995300Y-63169800D02*
X139344400Y-63169800D01*
D44*
X189477500Y-82499200D02*
X189477500Y-80778500D01*
X192836800Y-72517000D02*
X192836800Y-69761100D01*
X189509400Y-75844400D02*
X192836800Y-72517000D01*
X189477500Y-80778500D02*
X189484000Y-80772000D01*
D45*
X124510800Y-120269000D02*
X124510800Y-120281700D01*
X124510800Y-120281700D02*
X128625600Y-124396500D01*
X128625600Y-124396500D02*
X210566000Y-124396500D01*
X210566000Y-124396500D02*
X212813900Y-122148600D01*
X212813900Y-122148600D02*
X212813900Y-68059300D01*
X212813900Y-68059300D02*
X208673700Y-63919100D01*
X208673700Y-63919100D02*
X194056000Y-63919100D01*
X124510800Y-120269000D02*
X124815600Y-119964200D01*
X124815600Y-119964200D02*
X126161800Y-119964200D01*
X126161800Y-119964200D02*
X126644400Y-119481600D01*
X126644400Y-119481600D02*
X126644400Y-118602800D01*
X121996200Y-120269000D02*
X124510800Y-120269000D01*
X121942900Y-109067600D02*
X121942900Y-105244900D01*
D44*
X121942900Y-105244900D02*
X121879400Y-105181400D01*
D45*
X121981000Y-113068100D02*
X121981000Y-109105700D01*
D44*
X121981000Y-109105700D02*
X121942900Y-109067600D01*
D45*
X122006400Y-117106700D02*
X122006400Y-113093500D01*
D44*
X122006400Y-113093500D02*
X121981000Y-113068100D01*
X111646100Y-126562200D02*
X111646100Y-125907400D01*
D45*
X122006400Y-120258800D02*
X122006400Y-117106700D01*
D44*
X121996200Y-120269000D02*
X122006400Y-120258800D01*
D45*
X111646100Y-125907400D02*
X112445800Y-125107700D01*
D44*
X121968300Y-117144800D02*
X122006400Y-117106700D01*
X121993700Y-113080800D02*
X121981000Y-113068100D01*
X195332350Y-69742050D02*
X195332350Y-71471750D01*
X195326000Y-69735700D02*
X195332350Y-69742050D01*
X197872350Y-71471750D02*
X197872350Y-69716650D01*
X197872350Y-69716650D02*
X197891400Y-69697600D01*
X129578100Y-71704900D02*
X129578100Y-75361800D01*
X126075400Y-80274200D02*
X125447300Y-80274200D01*
X126796800Y-79552800D02*
X126075400Y-80274200D01*
X126796800Y-78143100D02*
X126796800Y-79552800D01*
X129578100Y-75361800D02*
X126796800Y-78143100D01*
X132118100Y-71704900D02*
X129578100Y-71704900D01*
X158117800Y-95187400D02*
X158117800Y-96370400D01*
X158117800Y-96370400D02*
X158978600Y-97231200D01*
X153577800Y-98497400D02*
X157598100Y-98497400D01*
X158864300Y-97231200D02*
X158978600Y-97231200D01*
X158978600Y-97231200D02*
X160962300Y-97231200D01*
X157598100Y-98497400D02*
X158864300Y-97231200D01*
X153707800Y-98627400D02*
X153577800Y-98497400D01*
X159141800Y-95187400D02*
X160677800Y-95187400D01*
X160677800Y-95187400D02*
X160827800Y-95337400D01*
X160957800Y-83397400D02*
X160957800Y-88337400D01*
X158617800Y-89517400D02*
X158617800Y-90787400D01*
X159777800Y-89517400D02*
X158617800Y-89517400D01*
X160957800Y-88337400D02*
X159777800Y-89517400D01*
X180657800Y-94797400D02*
X180657800Y-96037700D01*
X180657800Y-96037700D02*
X181344394Y-97073946D01*
X176087800Y-97967400D02*
X180708700Y-97967400D01*
X181317519Y-97114369D02*
X181344394Y-97073946D01*
X181344394Y-97073946D02*
X183504800Y-97104200D01*
X180708700Y-97967400D02*
X181317519Y-97114369D01*
X176197800Y-98077400D02*
X176087800Y-97967400D01*
X131557800Y-98487400D02*
X135624400Y-98487400D01*
X135624400Y-98487400D02*
X136702800Y-97409000D01*
X136127800Y-95387400D02*
X136127800Y-96884800D01*
X136652000Y-97409000D02*
X136702800Y-97409000D01*
X136702800Y-97409000D02*
X138965900Y-97409000D01*
X136127800Y-96884800D02*
X136652000Y-97409000D01*
X131807800Y-98627400D02*
X131557800Y-98377400D01*
X137151800Y-95387400D02*
X138847800Y-95387400D01*
X138847800Y-95387400D02*
X138867800Y-95367400D01*
X136627800Y-90987400D02*
X136627800Y-90003700D01*
X139277800Y-88057400D02*
X137627800Y-89707400D01*
X139277800Y-88057400D02*
X139277800Y-83527400D01*
X136924100Y-89707400D02*
X137627800Y-89707400D01*
X136627800Y-90003700D02*
X136924100Y-89707400D01*
X181681800Y-94797400D02*
X183327800Y-94797400D01*
X183327800Y-94797400D02*
X183557800Y-95027400D01*
X181157800Y-90397400D02*
X181157800Y-89517400D01*
X183717800Y-88547400D02*
X183717800Y-83157400D01*
X183087800Y-89177400D02*
X183717800Y-88547400D01*
X181497800Y-89177400D02*
X183087800Y-89177400D01*
X181157800Y-89517400D02*
X181497800Y-89177400D01*
X202552300Y-95440500D02*
X202552300Y-97028000D01*
X202552300Y-94503600D02*
X202552300Y-95440500D01*
X202552300Y-97028000D02*
X203288900Y-97764600D01*
X198066700Y-97764600D02*
X203288900Y-97764600D01*
X203288900Y-97764600D02*
X205361500Y-97764600D01*
X205361500Y-97764600D02*
X205386900Y-97790000D01*
X205386900Y-97790000D02*
X205359000Y-97790000D01*
X203576300Y-94503600D02*
X203576300Y-95359600D01*
X204645300Y-95656400D02*
X205562200Y-94739500D01*
X203873100Y-95656400D02*
X204645300Y-95656400D01*
X203576300Y-95359600D02*
X203873100Y-95656400D01*
X204660500Y-88379300D02*
X205524100Y-87515700D01*
X203052300Y-89098500D02*
X203390500Y-88760300D01*
X203390500Y-88760300D02*
X204279500Y-88760300D01*
X204279500Y-88760300D02*
X204660500Y-88379300D01*
X203052300Y-90103600D02*
X203052300Y-89098500D01*
X205524100Y-87515700D02*
X205524100Y-82776100D01*
X205524100Y-82776100D02*
X205536800Y-82763400D01*
X174227800Y-95597400D02*
X174604100Y-95597400D01*
X174604100Y-95597400D02*
X175234600Y-96227900D01*
X180157800Y-95914800D02*
X180157800Y-94797400D01*
X179844700Y-96227900D02*
X180157800Y-95914800D01*
X175234600Y-96227900D02*
X179844700Y-96227900D01*
X157617800Y-95187400D02*
X157617800Y-96331400D01*
X152869900Y-96761300D02*
X152136000Y-96027400D01*
X157187900Y-96761300D02*
X152869900Y-96761300D01*
X157617800Y-96331400D02*
X157187900Y-96761300D01*
X152136000Y-96027400D02*
X151647800Y-96027400D01*
X129707800Y-96057400D02*
X129953700Y-96057400D01*
X129953700Y-96057400D02*
X130721100Y-96824800D01*
X135627800Y-96325000D02*
X135627800Y-95387400D01*
X135128000Y-96824800D02*
X135627800Y-96325000D01*
X130721100Y-96824800D02*
X135128000Y-96824800D01*
X129707800Y-93687400D02*
X129707800Y-96057400D01*
D46*
X118910100Y-74676000D02*
X118910100Y-71983600D01*
X118910100Y-81114900D02*
X118910100Y-74676000D01*
X115873000Y-68946500D02*
X112712500Y-68946500D01*
X118910100Y-71983600D02*
X115873000Y-68946500D01*
X108673900Y-69658100D02*
X109716700Y-69658100D01*
X109716700Y-69658100D02*
X110428300Y-68946500D01*
X110428300Y-68946500D02*
X112712500Y-68946500D01*
X105168700Y-69380100D02*
X108395900Y-69380100D01*
X108395900Y-69380100D02*
X108673900Y-69658100D01*
X107873800Y-78219300D02*
X110172500Y-78219300D01*
X112687100Y-78219300D02*
X114223800Y-78219300D01*
X112674400Y-78206600D02*
X112687100Y-78219300D01*
X110172500Y-78219300D02*
X110197900Y-78244700D01*
X118910100Y-81114900D02*
X118846600Y-81114900D01*
X118846600Y-81114900D02*
X115951000Y-78219300D01*
X115951000Y-78219300D02*
X114223800Y-78219300D01*
D44*
X129657800Y-98487400D02*
X129657800Y-96107400D01*
X129657800Y-96107400D02*
X129707800Y-96057400D01*
D46*
X104165400Y-96481900D02*
X102336600Y-96481900D01*
X100627194Y-96481900D02*
X100279200Y-96481900D01*
X100660629Y-96448465D02*
X100627194Y-96481900D01*
X102336600Y-96481900D02*
X102298500Y-96520000D01*
X102362000Y-69469000D02*
X100799900Y-69469000D01*
X98552000Y-69824600D02*
X98158300Y-69824600D01*
X98590100Y-69862700D02*
X98552000Y-69824600D01*
X100799900Y-69469000D02*
X100406200Y-69862700D01*
X105168700Y-69380100D02*
X102450900Y-69380100D01*
X102450900Y-69380100D02*
X102362000Y-69469000D01*
X121310400Y-100482400D02*
X127152400Y-100482400D01*
X118910100Y-81114900D02*
X118910100Y-98082100D01*
X118910100Y-98082100D02*
X121310400Y-100482400D01*
D44*
X196014300Y-97917000D02*
X195516500Y-97917000D01*
D46*
X192163700Y-101269800D02*
X195516500Y-97917000D01*
X192163700Y-101269800D02*
X170434000Y-101269800D01*
D44*
X196014300Y-97917000D02*
X196166700Y-97764600D01*
X174035000Y-98120200D02*
X173583600Y-98120200D01*
D46*
X170434000Y-101269800D02*
X173583600Y-98120200D01*
X170434000Y-101269800D02*
X148170900Y-101269800D01*
D44*
X174035000Y-98120200D02*
X174187800Y-97967400D01*
X151605400Y-98425000D02*
X151015700Y-98425000D01*
D46*
X148170900Y-101269800D02*
X151015700Y-98425000D01*
X128790700Y-100482400D02*
X129578100Y-101269800D01*
X129578100Y-101269800D02*
X148170900Y-101269800D01*
X128790700Y-100482400D02*
X127152400Y-100482400D01*
D44*
X151605400Y-98425000D02*
X151677800Y-98497400D01*
X129006600Y-98628200D02*
X129517000Y-98628200D01*
X129517000Y-98628200D02*
X129657800Y-98487400D01*
D46*
X127152400Y-100482400D02*
X129006600Y-98628200D01*
X129006600Y-98628200D02*
X129032000Y-98602800D01*
D44*
X105371900Y-96558100D02*
X106239100Y-96558100D01*
X106239100Y-96558100D02*
X106251800Y-96545400D01*
D46*
X104165400Y-96481900D02*
X105371900Y-96558100D01*
X105371900Y-96558100D02*
X105384600Y-96545400D01*
D44*
X108395900Y-69380100D02*
X108673900Y-69658100D01*
X104800400Y-69748400D02*
X105168700Y-69380100D01*
D46*
X104178100Y-96469200D02*
X104165400Y-96481900D01*
D44*
X98653600Y-96456500D02*
X98640900Y-96443800D01*
X151687800Y-98347400D02*
X151687800Y-96067400D01*
X151687800Y-96067400D02*
X151647800Y-96027400D01*
X151647800Y-96027400D02*
X151647800Y-93647400D01*
X174187800Y-97967400D02*
X174187800Y-95637400D01*
X174187800Y-95637400D02*
X174227800Y-95597400D01*
X174227800Y-95597400D02*
X174227800Y-93207400D01*
X196064000Y-95313500D02*
X196519800Y-95313500D01*
X196519800Y-95313500D02*
X197243700Y-96037400D01*
X202018900Y-95796100D02*
X202052300Y-94503600D01*
X201472800Y-96177100D02*
X202018900Y-95796100D01*
X197243700Y-96037400D02*
X201472800Y-96177100D01*
X196166700Y-97764600D02*
X196166700Y-95416200D01*
X196166700Y-95416200D02*
X196064000Y-95313500D01*
X196064000Y-95313500D02*
X196064000Y-92748100D01*
X196064000Y-92748100D02*
X196089400Y-92722700D01*
D47*
X151187800Y-80367400D02*
X151187800Y-78796500D01*
X151187800Y-78796500D02*
X151511000Y-78473300D01*
X151511000Y-78473300D02*
X151536400Y-78473300D01*
X151536400Y-78473300D02*
X152260300Y-77749400D01*
X152730200Y-77254100D02*
X152806400Y-77254100D01*
X152730200Y-77254100D02*
X152730200Y-77254100D01*
X151187800Y-80367400D02*
X151187800Y-82757400D01*
D44*
X151187800Y-82757400D02*
X150467800Y-83477400D01*
D47*
X155333700Y-77304900D02*
X165468300Y-77304900D01*
X165468300Y-77304900D02*
X170726100Y-72047100D01*
X170726100Y-72047100D02*
X170726100Y-71183500D01*
X170726100Y-71183500D02*
X170713400Y-71170800D01*
X170738800Y-70027800D02*
X170738800Y-69494400D01*
X154187800Y-80367400D02*
X154187800Y-78450800D01*
X154187800Y-78450800D02*
X155333700Y-77304900D01*
X156507800Y-81587400D02*
X155407800Y-81587400D01*
X155407800Y-81587400D02*
X154187800Y-80367400D01*
X160957800Y-81497400D02*
X156597800Y-81497400D01*
D44*
X156597800Y-81497400D02*
X156507800Y-81587400D01*
D47*
X173977800Y-80097400D02*
X167232100Y-80097400D01*
X167220900Y-80086200D02*
X167220900Y-80060800D01*
X167232100Y-80097400D02*
X167220900Y-80086200D01*
X167220900Y-80060800D02*
X166700200Y-79540100D01*
X166198550Y-79063850D02*
X166039800Y-78905100D01*
X166039800Y-78905100D02*
X166039800Y-78841600D01*
X173977800Y-80097400D02*
X173977800Y-82247400D01*
X173977800Y-82247400D02*
X172927800Y-83297400D01*
X170395900Y-75006200D02*
X173240700Y-72161400D01*
X170395900Y-76022200D02*
X170395900Y-75006200D01*
X171450000Y-77076300D02*
X170395900Y-76022200D01*
X175806100Y-77076300D02*
X171450000Y-77076300D01*
X173240700Y-72161400D02*
X173240700Y-71399400D01*
X173240700Y-71399400D02*
X173266100Y-71374000D01*
X173238800Y-70396100D02*
X173266100Y-70368800D01*
X173266100Y-70368800D02*
X173266100Y-69507100D01*
X176977800Y-80097400D02*
X176977800Y-78248000D01*
X176977800Y-78248000D02*
X175806100Y-77076300D01*
X179397800Y-81137400D02*
X178017800Y-81137400D01*
X178017800Y-81137400D02*
X176977800Y-80097400D01*
X183717800Y-81257400D02*
X179517800Y-81257400D01*
D44*
X179517800Y-81257400D02*
X179397800Y-81137400D01*
D47*
X174561500Y-75018900D02*
X174599600Y-75018900D01*
X174561500Y-75018900D02*
X173888400Y-75018900D01*
X173888400Y-75018900D02*
X173837600Y-74968100D01*
X180975000Y-79349600D02*
X176579836Y-74954436D01*
X176579836Y-74954436D02*
X175361600Y-74968100D01*
X175361600Y-74968100D02*
X174663100Y-74955400D01*
X174663100Y-74955400D02*
X174599600Y-75018900D01*
X195692900Y-79756000D02*
X195692900Y-79640300D01*
X195692900Y-79640300D02*
X195402200Y-79349600D01*
X195402200Y-79349600D02*
X180975000Y-79349600D01*
X194830700Y-82993800D02*
X194830700Y-80618200D01*
X194830700Y-80618200D02*
X195692900Y-79756000D01*
D44*
X195692900Y-79756000D02*
X195465700Y-79756000D01*
D47*
X181737000Y-77381100D02*
X176898300Y-72440800D01*
X176898300Y-72440800D02*
X176898300Y-72390000D01*
X176898300Y-72390000D02*
X176428400Y-71653400D01*
X176034700Y-71018400D02*
X175958500Y-70751700D01*
X175958500Y-70751700D02*
X175958500Y-70675500D01*
X198692900Y-79756000D02*
X198692900Y-78868400D01*
X197205600Y-77381100D02*
X181737000Y-77381100D01*
X198692900Y-78868400D02*
X197205600Y-77381100D01*
X205536800Y-80863400D02*
X201655300Y-80863400D01*
D44*
X201655300Y-80863400D02*
X201612500Y-80820600D01*
X201612500Y-80820600D02*
X201612500Y-80302100D01*
D47*
X201066400Y-79756000D02*
X198692900Y-79756000D01*
X201612500Y-80302100D02*
X201066400Y-79756000D01*
D44*
X198692900Y-79756000D02*
X198704200Y-79756000D01*
D47*
X133972300Y-73444100D02*
X151422100Y-73444100D01*
X151422100Y-73444100D02*
X152704800Y-72161400D01*
X128687800Y-78728600D02*
X133972300Y-73444100D01*
X128687800Y-80527400D02*
X128687800Y-78728600D01*
X152704800Y-72161400D02*
X152704800Y-72136000D01*
X152704800Y-72136000D02*
X153339800Y-71501000D01*
X154038300Y-70827900D02*
X154368500Y-70497700D01*
X154368500Y-70497700D02*
X154457400Y-70497700D01*
X128427800Y-83857400D02*
X128427800Y-80787400D01*
D44*
X128427800Y-80787400D02*
X128687800Y-80527400D01*
D47*
X134658100Y-75323700D02*
X165100000Y-75323700D01*
X165100000Y-75323700D02*
X168236900Y-72186800D01*
X168236900Y-72186800D02*
X168236900Y-71348600D01*
X168236900Y-71348600D02*
X168262300Y-71323200D01*
X168238800Y-70408800D02*
X168249600Y-70398000D01*
X168249600Y-70398000D02*
X168249600Y-69773800D01*
X131687800Y-80527400D02*
X131687800Y-78294000D01*
X131687800Y-78294000D02*
X134658100Y-75323700D01*
X134567800Y-81667400D02*
X139237800Y-81667400D01*
D44*
X139237800Y-81667400D02*
X139277800Y-81627400D01*
D47*
X131687800Y-80527400D02*
X133427800Y-80527400D01*
X133427800Y-80527400D02*
X134567800Y-81667400D01*
D44*
X187199400Y-72961500D02*
X188341000Y-72961500D01*
X190233300Y-71069200D02*
X190233300Y-69900800D01*
X188341000Y-72961500D02*
X190233300Y-71069200D01*
X185762900Y-75539600D02*
X186131200Y-75539600D01*
X185788300Y-85267800D02*
X185788300Y-80797400D01*
X186461400Y-85940900D02*
X185788300Y-85267800D01*
X187199400Y-74471400D02*
X187199400Y-72961500D01*
X186131200Y-75539600D02*
X187199400Y-74471400D01*
X186461400Y-86133900D02*
X186461400Y-85940900D01*
X186461400Y-86133900D02*
X186461400Y-85813900D01*
X186461400Y-85813900D02*
X187077500Y-85197800D01*
X187077500Y-85197800D02*
X187077500Y-82499200D01*
X119979400Y-105181400D02*
X119979400Y-106098300D01*
X125361700Y-109448600D02*
X125361700Y-109562900D01*
X122999500Y-107086400D02*
X125361700Y-109448600D01*
X119979400Y-106098300D02*
X120967500Y-107086400D01*
X125323600Y-109601000D02*
X125361700Y-109562900D01*
X125209300Y-109601000D02*
X125323600Y-109601000D01*
X125209300Y-109601000D02*
X146824700Y-109601000D01*
X168452800Y-109601000D02*
X168922700Y-109601000D01*
X146824700Y-109601000D02*
X146951700Y-109601000D01*
X146951700Y-109601000D02*
X146964400Y-109588300D01*
X192163700Y-109601000D02*
X192163700Y-109588300D01*
X192151000Y-109601000D02*
X192163700Y-109601000D01*
X146824700Y-109601000D02*
X168452800Y-109601000D01*
X168452800Y-109601000D02*
X192151000Y-109601000D01*
X192163700Y-109588300D02*
X192976500Y-108775500D01*
X192976500Y-108775500D02*
X193027300Y-108826300D01*
X119979400Y-105181400D02*
X117904300Y-105181400D01*
X117904300Y-105181400D02*
X117891600Y-105168700D01*
X170929300Y-110388400D02*
X171132500Y-110388400D01*
X171132500Y-110388400D02*
X171157900Y-110363000D01*
X126974600Y-110388400D02*
X127165100Y-110388400D01*
X127165100Y-110388400D02*
X127177800Y-110375700D01*
X148818600Y-110388400D02*
X149161500Y-110388400D01*
X149161500Y-110388400D02*
X149199600Y-110350300D01*
X123012200Y-111086900D02*
X124561600Y-111086900D01*
X194157600Y-110388400D02*
X195821300Y-108724700D01*
X125260100Y-110388400D02*
X126974600Y-110388400D01*
X126974600Y-110388400D02*
X148818600Y-110388400D01*
X148818600Y-110388400D02*
X170929300Y-110388400D01*
X170929300Y-110388400D02*
X194157600Y-110388400D01*
X124561600Y-111086900D02*
X125260100Y-110388400D01*
X195821300Y-108724700D02*
X195922900Y-108826300D01*
X120042900Y-110162300D02*
X120992900Y-111112300D01*
X123012200Y-111086900D02*
X123101100Y-110998000D01*
X120042900Y-109067600D02*
X120042900Y-110162300D01*
X117929700Y-109080300D02*
X120042900Y-109067600D01*
X173037500Y-111175800D02*
X173329600Y-111175800D01*
X128841500Y-111175800D02*
X129006600Y-111175800D01*
X129006600Y-111175800D02*
X129044700Y-111137700D01*
X151180800Y-111175800D02*
X151422100Y-111175800D01*
X123151900Y-115100100D02*
X123151900Y-113919000D01*
X196240400Y-111175800D02*
X198678800Y-108737400D01*
X125895100Y-111175800D02*
X128841500Y-111175800D01*
X128841500Y-111175800D02*
X151180800Y-111175800D01*
X151180800Y-111175800D02*
X173037500Y-111175800D01*
X173037500Y-111175800D02*
X196240400Y-111175800D01*
X123151900Y-113919000D02*
X125895100Y-111175800D01*
X120081000Y-113068100D02*
X120081000Y-114162800D01*
X120081000Y-114162800D02*
X121056400Y-115138200D01*
X117967800Y-113080800D02*
X120081000Y-113068100D01*
X175628300Y-111950500D02*
X175920400Y-111950500D01*
X130619500Y-111950500D02*
X130759200Y-111950500D01*
X130759200Y-111950500D02*
X130771900Y-111963200D01*
X153479500Y-111950500D02*
X153644600Y-111950500D01*
X126555500Y-111950500D02*
X130619500Y-111950500D01*
X130619500Y-111950500D02*
X153479500Y-111950500D01*
X153479500Y-111950500D02*
X175628300Y-111950500D01*
X175628300Y-111950500D02*
X198310500Y-111950500D01*
X198310500Y-111950500D02*
X201523600Y-108737400D01*
X124231400Y-114274600D02*
X126555500Y-111950500D01*
X124231400Y-117932200D02*
X124231400Y-114274600D01*
X123088400Y-119075200D02*
X124231400Y-117932200D01*
X120106400Y-118264900D02*
X120967500Y-119126000D01*
X120106400Y-117106700D02*
X120106400Y-118264900D01*
X118005900Y-117094000D02*
X120081000Y-117081300D01*
X120081000Y-117081300D02*
X120106400Y-117106700D01*
X143179800Y-113245900D02*
X143179800Y-114604800D01*
X142278100Y-97853500D02*
X143129000Y-97853500D01*
X141224000Y-98907600D02*
X142278100Y-97853500D01*
X136867900Y-96697800D02*
X137756900Y-96697800D01*
X136643800Y-96473700D02*
X136867900Y-96697800D01*
X136643800Y-95387400D02*
X136643800Y-96473700D01*
X209867500Y-116903500D02*
X211188300Y-115582700D01*
X195332350Y-75393550D02*
X195332350Y-73371750D01*
X208051400Y-78371700D02*
X211188300Y-81508600D01*
X200787000Y-78371700D02*
X208051400Y-78371700D01*
X198272400Y-75857100D02*
X200787000Y-78371700D01*
X195795900Y-75857100D02*
X198272400Y-75857100D01*
X195332350Y-75393550D02*
X195795900Y-75857100D01*
X211188300Y-115582700D02*
X211188300Y-81508600D01*
X169837100Y-116903500D02*
X209867500Y-116903500D01*
X169659300Y-117081300D02*
X169837100Y-116903500D01*
X145846800Y-117271800D02*
X167373300Y-117271800D01*
X143179800Y-114604800D02*
X145846800Y-117271800D01*
X210064350Y-117760750D02*
X169640250Y-117760750D01*
X197872350Y-74453750D02*
X201129900Y-77711300D01*
X201129900Y-77711300D02*
X208419700Y-77711300D01*
X208419700Y-77711300D02*
X211937600Y-81229200D01*
X211937600Y-81229200D02*
X211937600Y-115887500D01*
X211937600Y-115887500D02*
X210064350Y-117760750D01*
X165430200Y-98780600D02*
X165227000Y-98577400D01*
X165227000Y-98577400D02*
X159804100Y-98577400D01*
X159677100Y-96570800D02*
X159575500Y-96469200D01*
X159575500Y-96469200D02*
X159054800Y-96469200D01*
X159054800Y-96469200D02*
X158633800Y-96048200D01*
X158633800Y-95187400D02*
X158633800Y-96048200D01*
X197872350Y-74453750D02*
X197872350Y-73371750D01*
X169176700Y-117754400D02*
X165811200Y-114350800D01*
X169633900Y-117754400D02*
X169176700Y-117754400D01*
X169640250Y-117760750D02*
X169633900Y-117754400D01*
X187782200Y-98780600D02*
X187667900Y-98780600D01*
X190881000Y-116078000D02*
X187845700Y-113042700D01*
X209372200Y-116078000D02*
X190881000Y-116078000D01*
X181173800Y-95702800D02*
X181173800Y-94797400D01*
X181648100Y-96177100D02*
X181173800Y-95702800D01*
X181991000Y-96177100D02*
X181648100Y-96177100D01*
X182194200Y-96380300D02*
X181991000Y-96177100D01*
X182664100Y-98437700D02*
X182194200Y-97967800D01*
X187325000Y-98437700D02*
X182664100Y-98437700D01*
X187667900Y-98780600D02*
X187325000Y-98437700D01*
X200406000Y-74333100D02*
X200825100Y-74333100D01*
X210362800Y-115087400D02*
X209372200Y-116078000D01*
X209372200Y-116078000D02*
X209365850Y-116084350D01*
X210362800Y-81902300D02*
X210362800Y-115087400D01*
X207899000Y-79438500D02*
X210362800Y-81902300D01*
X203530200Y-79438500D02*
X207899000Y-79438500D01*
X203492100Y-79400400D02*
X203530200Y-79438500D01*
X200825100Y-74333100D02*
X203403200Y-76911200D01*
X200412350Y-73371750D02*
X200412350Y-74326750D01*
X200412350Y-74326750D02*
X200406000Y-74333100D01*
X203068300Y-94503600D02*
X203068300Y-96058100D01*
X202952350Y-74936350D02*
X202952350Y-73371750D01*
X204647800Y-76631800D02*
X202952350Y-74936350D01*
X208495900Y-76631800D02*
X204647800Y-76631800D01*
X209562700Y-77698600D02*
X208495900Y-76631800D01*
X209511900Y-99491800D02*
X209562700Y-82664300D01*
X208953100Y-100050600D02*
X209511900Y-99491800D01*
X205333600Y-100050600D02*
X208953100Y-100050600D01*
X204076300Y-98793300D02*
X205333600Y-100050600D01*
X203068300Y-96058100D02*
X203771500Y-96761300D01*
X205492350Y-73371750D02*
X205792350Y-73371750D01*
X130278100Y-70204900D02*
X129578100Y-70204900D01*
X205792350Y-73371750D02*
X206733670Y-72430430D01*
X206733670Y-72430430D02*
X206733670Y-65759799D01*
X206733670Y-65759799D02*
X205690370Y-64716499D01*
X205690370Y-64716499D02*
X135766501Y-64716499D01*
X135766501Y-64716499D02*
X130278100Y-70204900D01*
D48*
G36*
X198607415Y-88253159D02*
X198641081Y-88290684D01*
X198690470Y-88313019D01*
X200921161Y-88787634D01*
X200923052Y-88797139D01*
X201087799Y-89043701D01*
X201283124Y-89239026D01*
X201254860Y-89378600D01*
X201254860Y-90703400D01*
X192379600Y-90703400D01*
X192379600Y-86436200D01*
X197539338Y-86436200D01*
X198607415Y-88253159D01*
X198607415Y-88253159D01*
G37*
X198607415Y-88253159D02*
X198641081Y-88290684D01*
X198690470Y-88313019D01*
X200921161Y-88787634D01*
X200923052Y-88797139D01*
X201087799Y-89043701D01*
X201283124Y-89239026D01*
X201254860Y-89378600D01*
X201254860Y-90703400D01*
X192379600Y-90703400D01*
X192379600Y-86436200D01*
X197539338Y-86436200D01*
X198607415Y-88253159D01*
G36*
X196538572Y-95036458D02*
X196548674Y-95085848D01*
X196581366Y-95131283D01*
X197324594Y-95789571D01*
X197368217Y-95814841D01*
X197412931Y-95821433D01*
X201705531Y-95681733D01*
X201754589Y-95670125D01*
X201795267Y-95640345D01*
X201814992Y-95611596D01*
X201864332Y-95512917D01*
X201934774Y-95467588D01*
X202009438Y-95358314D01*
X202035706Y-95228600D01*
X202035706Y-93891100D01*
X202068894Y-93891100D01*
X202068894Y-95228600D01*
X202069700Y-95232884D01*
X202069700Y-95918632D01*
X201662315Y-96190222D01*
X197129769Y-96240030D01*
X196756133Y-95874887D01*
X196713802Y-95847509D01*
X196664155Y-95838757D01*
X196615014Y-95850010D01*
X196574123Y-95879495D01*
X196547924Y-95922566D01*
X196540369Y-95965962D01*
X196544954Y-98336100D01*
X195707246Y-98336100D01*
X195719455Y-92024200D01*
X196532745Y-92024200D01*
X196538572Y-95036458D01*
X196538572Y-95036458D01*
G37*
X196538572Y-95036458D02*
X196548674Y-95085848D01*
X196581366Y-95131283D01*
X197324594Y-95789571D01*
X197368217Y-95814841D01*
X197412931Y-95821433D01*
X201705531Y-95681733D01*
X201754589Y-95670125D01*
X201795267Y-95640345D01*
X201814992Y-95611596D01*
X201864332Y-95512917D01*
X201934774Y-95467588D01*
X202009438Y-95358314D01*
X202035706Y-95228600D01*
X202035706Y-93891100D01*
X202068894Y-93891100D01*
X202068894Y-95228600D01*
X202069700Y-95232884D01*
X202069700Y-95918632D01*
X201662315Y-96190222D01*
X197129769Y-96240030D01*
X196756133Y-95874887D01*
X196713802Y-95847509D01*
X196664155Y-95838757D01*
X196615014Y-95850010D01*
X196574123Y-95879495D01*
X196547924Y-95922566D01*
X196540369Y-95965962D01*
X196544954Y-98336100D01*
X195707246Y-98336100D01*
X195719455Y-92024200D01*
X196532745Y-92024200D01*
X196538572Y-95036458D01*
G36*
X176737415Y-88543159D02*
X176771081Y-88580684D01*
X176820470Y-88603019D01*
X179170545Y-89103035D01*
X179440052Y-89378531D01*
X179411369Y-89420510D01*
X179360360Y-89672400D01*
X179360360Y-90993400D01*
X170509600Y-90993400D01*
X170509600Y-86726200D01*
X175669338Y-86726200D01*
X176737415Y-88543159D01*
X176737415Y-88543159D01*
G37*
X176737415Y-88543159D02*
X176771081Y-88580684D01*
X176820470Y-88603019D01*
X179170545Y-89103035D01*
X179440052Y-89378531D01*
X179411369Y-89420510D01*
X179360360Y-89672400D01*
X179360360Y-90993400D01*
X170509600Y-90993400D01*
X170509600Y-86726200D01*
X175669338Y-86726200D01*
X176737415Y-88543159D01*
G36*
X174668572Y-95326458D02*
X174678674Y-95375848D01*
X174711366Y-95421283D01*
X175454594Y-96079571D01*
X175498217Y-96104841D01*
X175542931Y-96111433D01*
X179835531Y-95971733D01*
X179884589Y-95960125D01*
X179925267Y-95930345D01*
X179944992Y-95901596D01*
X180003152Y-95785275D01*
X180040274Y-95761388D01*
X180114938Y-95652114D01*
X180141206Y-95522400D01*
X180141206Y-95496870D01*
X180148895Y-95464944D01*
X180160461Y-94181100D01*
X180174394Y-94181100D01*
X180174394Y-95522400D01*
X180197195Y-95643579D01*
X180199700Y-95647472D01*
X180199700Y-96208632D01*
X179792315Y-96480222D01*
X175259769Y-96530030D01*
X174886133Y-96164887D01*
X174843802Y-96137509D01*
X174794155Y-96128757D01*
X174745014Y-96140010D01*
X174704123Y-96169495D01*
X174677924Y-96212566D01*
X174670369Y-96255962D01*
X174674954Y-98626100D01*
X173837246Y-98626100D01*
X173849455Y-92314200D01*
X174662745Y-92314200D01*
X174668572Y-95326458D01*
X174668572Y-95326458D01*
G37*
X174668572Y-95326458D02*
X174678674Y-95375848D01*
X174711366Y-95421283D01*
X175454594Y-96079571D01*
X175498217Y-96104841D01*
X175542931Y-96111433D01*
X179835531Y-95971733D01*
X179884589Y-95960125D01*
X179925267Y-95930345D01*
X179944992Y-95901596D01*
X180003152Y-95785275D01*
X180040274Y-95761388D01*
X180114938Y-95652114D01*
X180141206Y-95522400D01*
X180141206Y-95496870D01*
X180148895Y-95464944D01*
X180160461Y-94181100D01*
X180174394Y-94181100D01*
X180174394Y-95522400D01*
X180197195Y-95643579D01*
X180199700Y-95647472D01*
X180199700Y-96208632D01*
X179792315Y-96480222D01*
X175259769Y-96530030D01*
X174886133Y-96164887D01*
X174843802Y-96137509D01*
X174794155Y-96128757D01*
X174745014Y-96140010D01*
X174704123Y-96169495D01*
X174677924Y-96212566D01*
X174670369Y-96255962D01*
X174674954Y-98626100D01*
X173837246Y-98626100D01*
X173849455Y-92314200D01*
X174662745Y-92314200D01*
X174668572Y-95326458D01*
G36*
X154177415Y-88953159D02*
X154211081Y-88990684D01*
X154260470Y-89013019D01*
X156610545Y-89513035D01*
X156883782Y-89792344D01*
X156871369Y-89810510D01*
X156820360Y-90062400D01*
X156820360Y-91403400D01*
X147949600Y-91403400D01*
X147949600Y-87136200D01*
X153109338Y-87136200D01*
X154177415Y-88953159D01*
X154177415Y-88953159D01*
G37*
X154177415Y-88953159D02*
X154211081Y-88990684D01*
X154260470Y-89013019D01*
X156610545Y-89513035D01*
X156883782Y-89792344D01*
X156871369Y-89810510D01*
X156820360Y-90062400D01*
X156820360Y-91403400D01*
X147949600Y-91403400D01*
X147949600Y-87136200D01*
X153109338Y-87136200D01*
X154177415Y-88953159D01*
G36*
X152108572Y-95736458D02*
X152118674Y-95785848D01*
X152151366Y-95831283D01*
X152894594Y-96489571D01*
X152938217Y-96514841D01*
X152982931Y-96521433D01*
X157275531Y-96381733D01*
X157324589Y-96370125D01*
X157365267Y-96340345D01*
X157384992Y-96311596D01*
X157448409Y-96184763D01*
X157500274Y-96151388D01*
X157574938Y-96042114D01*
X157601206Y-95912400D01*
X157601206Y-94591100D01*
X157634394Y-94591100D01*
X157634394Y-95912400D01*
X157639700Y-95940599D01*
X157639700Y-96618632D01*
X157232315Y-96890222D01*
X152699769Y-96940030D01*
X152326133Y-96574887D01*
X152283802Y-96547509D01*
X152234155Y-96538757D01*
X152185014Y-96550010D01*
X152144123Y-96579495D01*
X152117924Y-96622566D01*
X152110369Y-96665962D01*
X152114954Y-99036100D01*
X151277246Y-99036100D01*
X151289455Y-92724200D01*
X152102745Y-92724200D01*
X152108572Y-95736458D01*
X152108572Y-95736458D01*
G37*
X152108572Y-95736458D02*
X152118674Y-95785848D01*
X152151366Y-95831283D01*
X152894594Y-96489571D01*
X152938217Y-96514841D01*
X152982931Y-96521433D01*
X157275531Y-96381733D01*
X157324589Y-96370125D01*
X157365267Y-96340345D01*
X157384992Y-96311596D01*
X157448409Y-96184763D01*
X157500274Y-96151388D01*
X157574938Y-96042114D01*
X157601206Y-95912400D01*
X157601206Y-94591100D01*
X157634394Y-94591100D01*
X157634394Y-95912400D01*
X157639700Y-95940599D01*
X157639700Y-96618632D01*
X157232315Y-96890222D01*
X152699769Y-96940030D01*
X152326133Y-96574887D01*
X152283802Y-96547509D01*
X152234155Y-96538757D01*
X152185014Y-96550010D01*
X152144123Y-96579495D01*
X152117924Y-96622566D01*
X152110369Y-96665962D01*
X152114954Y-99036100D01*
X151277246Y-99036100D01*
X151289455Y-92724200D01*
X152102745Y-92724200D01*
X152108572Y-95736458D01*
G36*
X132177415Y-89083159D02*
X132211081Y-89120684D01*
X132260470Y-89143019D01*
X134610545Y-89643035D01*
X134917830Y-89957148D01*
X134881369Y-90010510D01*
X134830360Y-90262400D01*
X134830360Y-91533400D01*
X125949600Y-91533400D01*
X125949600Y-87266200D01*
X131109338Y-87266200D01*
X132177415Y-89083159D01*
X132177415Y-89083159D01*
G37*
X132177415Y-89083159D02*
X132211081Y-89120684D01*
X132260470Y-89143019D01*
X134610545Y-89643035D01*
X134917830Y-89957148D01*
X134881369Y-90010510D01*
X134830360Y-90262400D01*
X134830360Y-91533400D01*
X125949600Y-91533400D01*
X125949600Y-87266200D01*
X131109338Y-87266200D01*
X132177415Y-89083159D01*
G36*
X130108572Y-95866458D02*
X130118674Y-95915848D01*
X130151366Y-95961283D01*
X130894594Y-96619571D01*
X130938217Y-96644841D01*
X130979718Y-96651497D01*
X135116218Y-96621597D01*
X135165554Y-96611234D01*
X135193763Y-96594462D01*
X135470807Y-96376784D01*
X135510274Y-96351388D01*
X135518555Y-96339268D01*
X135549363Y-96315062D01*
X135582034Y-96276668D01*
X135597900Y-96215490D01*
X135597986Y-96177680D01*
X135611206Y-96112400D01*
X135611206Y-94721100D01*
X135639700Y-94721100D01*
X135639700Y-96748632D01*
X135232315Y-97020222D01*
X130699769Y-97070030D01*
X130326133Y-96704887D01*
X130283802Y-96677509D01*
X130234155Y-96668757D01*
X130185014Y-96680010D01*
X130144123Y-96709495D01*
X130117924Y-96752566D01*
X130110369Y-96795962D01*
X130114954Y-99166100D01*
X129277246Y-99166100D01*
X129289455Y-92854200D01*
X130102745Y-92854200D01*
X130108572Y-95866458D01*
X130108572Y-95866458D01*
G37*
X130108572Y-95866458D02*
X130118674Y-95915848D01*
X130151366Y-95961283D01*
X130894594Y-96619571D01*
X130938217Y-96644841D01*
X130979718Y-96651497D01*
X135116218Y-96621597D01*
X135165554Y-96611234D01*
X135193763Y-96594462D01*
X135470807Y-96376784D01*
X135510274Y-96351388D01*
X135518555Y-96339268D01*
X135549363Y-96315062D01*
X135582034Y-96276668D01*
X135597900Y-96215490D01*
X135597986Y-96177680D01*
X135611206Y-96112400D01*
X135611206Y-94721100D01*
X135639700Y-94721100D01*
X135639700Y-96748632D01*
X135232315Y-97020222D01*
X130699769Y-97070030D01*
X130326133Y-96704887D01*
X130283802Y-96677509D01*
X130234155Y-96668757D01*
X130185014Y-96680010D01*
X130144123Y-96709495D01*
X130117924Y-96752566D01*
X130110369Y-96795962D01*
X130114954Y-99166100D01*
X129277246Y-99166100D01*
X129289455Y-92854200D01*
X130102745Y-92854200D01*
X130108572Y-95866458D01*
G36*
X108343700Y-104927250D02*
X108353647Y-104976672D01*
X108382039Y-105018330D01*
X108424401Y-105045660D01*
X108470700Y-105054400D01*
X110464600Y-105054400D01*
X110464600Y-107581700D01*
X105410000Y-107581700D01*
X105410000Y-105041700D01*
X107403900Y-105041700D01*
X107453310Y-105031694D01*
X107494935Y-105003253D01*
X107522215Y-104960859D01*
X107530900Y-104914700D01*
X107530900Y-98905359D01*
X107543042Y-98845400D01*
X107543042Y-94322900D01*
X108356250Y-94322900D01*
X108343700Y-104927250D01*
X108343700Y-104927250D01*
G37*
X108343700Y-104927250D02*
X108353647Y-104976672D01*
X108382039Y-105018330D01*
X108424401Y-105045660D01*
X108470700Y-105054400D01*
X110464600Y-105054400D01*
X110464600Y-107581700D01*
X105410000Y-107581700D01*
X105410000Y-105041700D01*
X107403900Y-105041700D01*
X107453310Y-105031694D01*
X107494935Y-105003253D01*
X107522215Y-104960859D01*
X107530900Y-104914700D01*
X107530900Y-98905359D01*
X107543042Y-98845400D01*
X107543042Y-94322900D01*
X108356250Y-94322900D01*
X108343700Y-104927250D01*
G36*
X111734603Y-99871940D02*
X111744274Y-99921417D01*
X111774559Y-99965281D01*
X113245835Y-101350012D01*
X113220650Y-122770033D01*
X105966588Y-122720601D01*
X105105200Y-121213173D01*
X105105200Y-115334134D01*
X105987680Y-112306739D01*
X109689051Y-112331497D01*
X109738526Y-112321822D01*
X109777884Y-112296085D01*
X112038484Y-110124385D01*
X112067184Y-110082939D01*
X112077490Y-110034428D01*
X112179090Y-102109628D01*
X112169718Y-102060094D01*
X112136414Y-102013026D01*
X110934500Y-100946021D01*
X110934500Y-94373700D01*
X111771837Y-94373700D01*
X111734603Y-99871940D01*
X111734603Y-99871940D01*
G37*
X111734603Y-99871940D02*
X111744274Y-99921417D01*
X111774559Y-99965281D01*
X113245835Y-101350012D01*
X113220650Y-122770033D01*
X105966588Y-122720601D01*
X105105200Y-121213173D01*
X105105200Y-115334134D01*
X105987680Y-112306739D01*
X109689051Y-112331497D01*
X109738526Y-112321822D01*
X109777884Y-112296085D01*
X112038484Y-110124385D01*
X112067184Y-110082939D01*
X112077490Y-110034428D01*
X112179090Y-102109628D01*
X112169718Y-102060094D01*
X112136414Y-102013026D01*
X110934500Y-100946021D01*
X110934500Y-94373700D01*
X111771837Y-94373700D01*
X111734603Y-99871940D01*
G36*
X158914505Y-86626700D02*
X154584400Y-86626700D01*
X154584400Y-85953600D01*
X154574394Y-85904190D01*
X154545953Y-85862565D01*
X154503559Y-85835285D01*
X154457176Y-85826600D01*
X147243576Y-85839300D01*
X147194184Y-85849393D01*
X147167163Y-85865029D01*
X146227363Y-86576229D01*
X146194001Y-86614024D01*
X146177000Y-86677500D01*
X146177000Y-92837000D01*
X146187006Y-92886410D01*
X146215447Y-92928035D01*
X146257841Y-92955315D01*
X146303433Y-92963999D01*
X149021800Y-92976135D01*
X149021800Y-96697800D01*
X144805400Y-96697800D01*
X144805400Y-85255290D01*
X153199911Y-85267800D01*
X153252517Y-85256478D01*
X155665931Y-84162900D01*
X158902992Y-84162900D01*
X158914505Y-86626700D01*
X158914505Y-86626700D01*
G37*
X158914505Y-86626700D02*
X154584400Y-86626700D01*
X154584400Y-85953600D01*
X154574394Y-85904190D01*
X154545953Y-85862565D01*
X154503559Y-85835285D01*
X154457176Y-85826600D01*
X147243576Y-85839300D01*
X147194184Y-85849393D01*
X147167163Y-85865029D01*
X146227363Y-86576229D01*
X146194001Y-86614024D01*
X146177000Y-86677500D01*
X146177000Y-92837000D01*
X146187006Y-92886410D01*
X146215447Y-92928035D01*
X146257841Y-92955315D01*
X146303433Y-92963999D01*
X149021800Y-92976135D01*
X149021800Y-96697800D01*
X144805400Y-96697800D01*
X144805400Y-85255290D01*
X153199911Y-85267800D01*
X153252517Y-85256478D01*
X155665931Y-84162900D01*
X158902992Y-84162900D01*
X158914505Y-86626700D01*
G36*
X163093122Y-92227154D02*
X163080977Y-97777300D01*
X162622693Y-97777300D01*
X162598097Y-93915691D01*
X162587777Y-93866346D01*
X162559072Y-93824903D01*
X162516505Y-93797894D01*
X162471100Y-93789500D01*
X160173563Y-93789500D01*
X159488951Y-93776822D01*
X159486600Y-93776800D01*
X156781500Y-93776800D01*
X156781500Y-92214946D01*
X163093122Y-92227154D01*
X163093122Y-92227154D01*
G37*
X163093122Y-92227154D02*
X163080977Y-97777300D01*
X162622693Y-97777300D01*
X162598097Y-93915691D01*
X162587777Y-93866346D01*
X162559072Y-93824903D01*
X162516505Y-93797894D01*
X162471100Y-93789500D01*
X160173563Y-93789500D01*
X159488951Y-93776822D01*
X159486600Y-93776800D01*
X156781500Y-93776800D01*
X156781500Y-92214946D01*
X163093122Y-92227154D01*
G36*
X203745545Y-85946105D02*
X203565653Y-85953600D01*
X199026036Y-85953600D01*
X198996006Y-85513161D01*
X198982662Y-85464546D01*
X198951456Y-85424953D01*
X198907304Y-85400620D01*
X198869074Y-85394800D01*
X191731674Y-85407500D01*
X191673208Y-85421875D01*
X190771508Y-85891775D01*
X190732315Y-85923483D01*
X190708546Y-85967941D01*
X190703201Y-86003848D01*
X190677801Y-91845848D01*
X190687592Y-91895301D01*
X190715852Y-91937049D01*
X190758127Y-91964513D01*
X190804233Y-91973399D01*
X193523346Y-91985538D01*
X193547246Y-96024700D01*
X189332157Y-96024700D01*
X189381845Y-84658389D01*
X197776911Y-84670900D01*
X197836274Y-84656272D01*
X200196301Y-83413492D01*
X203733978Y-83401335D01*
X203745545Y-85946105D01*
X203745545Y-85946105D01*
G37*
X203745545Y-85946105D02*
X203565653Y-85953600D01*
X199026036Y-85953600D01*
X198996006Y-85513161D01*
X198982662Y-85464546D01*
X198951456Y-85424953D01*
X198907304Y-85400620D01*
X198869074Y-85394800D01*
X191731674Y-85407500D01*
X191673208Y-85421875D01*
X190771508Y-85891775D01*
X190732315Y-85923483D01*
X190708546Y-85967941D01*
X190703201Y-86003848D01*
X190677801Y-91845848D01*
X190687592Y-91895301D01*
X190715852Y-91937049D01*
X190758127Y-91964513D01*
X190804233Y-91973399D01*
X193523346Y-91985538D01*
X193547246Y-96024700D01*
X189332157Y-96024700D01*
X189381845Y-84658389D01*
X197776911Y-84670900D01*
X197836274Y-84656272D01*
X200196301Y-83413492D01*
X203733978Y-83401335D01*
X203745545Y-85946105D01*
G36*
X207618911Y-91554053D02*
X207582187Y-98323400D01*
X207035400Y-98323400D01*
X207035400Y-93243400D01*
X207025394Y-93193990D01*
X206996953Y-93152365D01*
X206954559Y-93125085D01*
X206908400Y-93116400D01*
X204699763Y-93116400D01*
X204015151Y-93103722D01*
X204012800Y-93103700D01*
X201307700Y-93103700D01*
X201307700Y-91541846D01*
X207618911Y-91554053D01*
X207618911Y-91554053D01*
G37*
X207618911Y-91554053D02*
X207582187Y-98323400D01*
X207035400Y-98323400D01*
X207035400Y-93243400D01*
X207025394Y-93193990D01*
X206996953Y-93152365D01*
X206954559Y-93125085D01*
X206908400Y-93116400D01*
X204699763Y-93116400D01*
X204015151Y-93103722D01*
X204012800Y-93103700D01*
X201307700Y-93103700D01*
X201307700Y-91541846D01*
X207618911Y-91554053D01*
G36*
X137147877Y-84263574D02*
X137159300Y-86753867D01*
X132481597Y-86766080D01*
X132460906Y-86228119D01*
X132449009Y-86179130D01*
X132418989Y-86138629D01*
X132375578Y-86112999D01*
X132334000Y-86106000D01*
X125399800Y-86106000D01*
X125332490Y-86125304D01*
X124418090Y-86696804D01*
X124381494Y-86731476D01*
X124361270Y-86777655D01*
X124358400Y-86804500D01*
X124358400Y-92862400D01*
X124368406Y-92911810D01*
X124396847Y-92953435D01*
X124439241Y-92980715D01*
X124484833Y-92989399D01*
X127203200Y-93001535D01*
X127203200Y-96774000D01*
X122986939Y-96774000D01*
X122999361Y-85445789D01*
X131394011Y-85458300D01*
X131451234Y-85444773D01*
X133849579Y-84239322D01*
X137147877Y-84263574D01*
X137147877Y-84263574D01*
G37*
X137147877Y-84263574D02*
X137159300Y-86753867D01*
X132481597Y-86766080D01*
X132460906Y-86228119D01*
X132449009Y-86179130D01*
X132418989Y-86138629D01*
X132375578Y-86112999D01*
X132334000Y-86106000D01*
X125399800Y-86106000D01*
X125332490Y-86125304D01*
X124418090Y-86696804D01*
X124381494Y-86731476D01*
X124361270Y-86777655D01*
X124358400Y-86804500D01*
X124358400Y-92862400D01*
X124368406Y-92911810D01*
X124396847Y-92953435D01*
X124439241Y-92980715D01*
X124484833Y-92989399D01*
X127203200Y-93001535D01*
X127203200Y-96774000D01*
X122986939Y-96774000D01*
X122999361Y-85445789D01*
X131394011Y-85458300D01*
X131451234Y-85444773D01*
X133849579Y-84239322D01*
X137147877Y-84263574D01*
G36*
X141210967Y-92404807D02*
X141199034Y-97857764D01*
X141127098Y-97929700D01*
X140651683Y-97929700D01*
X140627097Y-94118881D01*
X140616773Y-94069536D01*
X140588064Y-94028096D01*
X140545495Y-94001090D01*
X140501603Y-93992709D01*
X138355707Y-93967314D01*
X137670351Y-93954622D01*
X137668000Y-93954600D01*
X134963791Y-93954600D01*
X134974713Y-92392744D01*
X141210967Y-92404807D01*
X141210967Y-92404807D01*
G37*
X141210967Y-92404807D02*
X141199034Y-97857764D01*
X141127098Y-97929700D01*
X140651683Y-97929700D01*
X140627097Y-94118881D01*
X140616773Y-94069536D01*
X140588064Y-94028096D01*
X140545495Y-94001090D01*
X140501603Y-93992709D01*
X138355707Y-93967314D01*
X137670351Y-93954622D01*
X137668000Y-93954600D01*
X134963791Y-93954600D01*
X134974713Y-92392744D01*
X141210967Y-92404807D01*
G36*
X182052202Y-86314391D02*
X181700520Y-86460925D01*
X177061211Y-86337866D01*
X177050680Y-85748133D01*
X177039793Y-85698909D01*
X177010614Y-85657799D01*
X176967739Y-85631280D01*
X176923244Y-85623401D01*
X169849344Y-85648801D01*
X169794242Y-85661597D01*
X168854442Y-86118797D01*
X168814388Y-86149410D01*
X168789399Y-86193194D01*
X168783000Y-86233000D01*
X168783000Y-92392500D01*
X168793006Y-92441910D01*
X168821447Y-92483535D01*
X168863841Y-92510815D01*
X168909433Y-92519499D01*
X171627800Y-92531635D01*
X171627800Y-96253300D01*
X167411400Y-96253300D01*
X167411400Y-84975890D01*
X175805911Y-84988400D01*
X175864766Y-84974038D01*
X178275984Y-83718195D01*
X181981693Y-83693816D01*
X182052202Y-86314391D01*
X182052202Y-86314391D01*
G37*
X182052202Y-86314391D02*
X181700520Y-86460925D01*
X177061211Y-86337866D01*
X177050680Y-85748133D01*
X177039793Y-85698909D01*
X177010614Y-85657799D01*
X176967739Y-85631280D01*
X176923244Y-85623401D01*
X169849344Y-85648801D01*
X169794242Y-85661597D01*
X168854442Y-86118797D01*
X168814388Y-86149410D01*
X168789399Y-86193194D01*
X168783000Y-86233000D01*
X168783000Y-92392500D01*
X168793006Y-92441910D01*
X168821447Y-92483535D01*
X168863841Y-92510815D01*
X168909433Y-92519499D01*
X171627800Y-92531635D01*
X171627800Y-96253300D01*
X167411400Y-96253300D01*
X167411400Y-84975890D01*
X175805911Y-84988400D01*
X175864766Y-84974038D01*
X178275984Y-83718195D01*
X181981693Y-83693816D01*
X182052202Y-86314391D01*
G36*
X185660366Y-91846080D02*
X185624005Y-97660767D01*
X185153300Y-97652509D01*
X185153300Y-93459300D01*
X185143294Y-93409890D01*
X185114853Y-93368265D01*
X185072459Y-93340985D01*
X185021997Y-93332373D01*
X182777421Y-93408460D01*
X182095238Y-93395827D01*
X179387500Y-93335116D01*
X179387500Y-91833946D01*
X185660366Y-91846080D01*
X185660366Y-91846080D01*
G37*
X185660366Y-91846080D02*
X185624005Y-97660767D01*
X185153300Y-97652509D01*
X185153300Y-93459300D01*
X185143294Y-93409890D01*
X185114853Y-93368265D01*
X185072459Y-93340985D01*
X185021997Y-93332373D01*
X182777421Y-93408460D01*
X182095238Y-93395827D01*
X179387500Y-93335116D01*
X179387500Y-91833946D01*
X185660366Y-91846080D01*
G36*
X138222008Y-62931573D02*
X138079362Y-63275101D01*
X138079038Y-63647067D01*
X138206892Y-63956499D01*
X135766501Y-63956499D01*
X135475662Y-64014351D01*
X135229100Y-64179098D01*
X130088506Y-69319692D01*
X130028100Y-69307460D01*
X129128100Y-69307460D01*
X128892783Y-69351738D01*
X128676659Y-69490810D01*
X128531669Y-69703010D01*
X128480660Y-69954900D01*
X128480660Y-70454900D01*
X128524938Y-70690217D01*
X128664010Y-70906341D01*
X128733811Y-70954034D01*
X128676659Y-70990810D01*
X128531669Y-71203010D01*
X128480660Y-71454900D01*
X128480660Y-71954900D01*
X128524938Y-72190217D01*
X128664010Y-72406341D01*
X128818100Y-72511626D01*
X128818100Y-75046998D01*
X126259399Y-77605699D01*
X126094652Y-77852261D01*
X126036800Y-78143100D01*
X126036800Y-79237998D01*
X126022653Y-79252145D01*
X125897300Y-79226760D01*
X124997300Y-79226760D01*
X124761983Y-79271038D01*
X124545859Y-79410110D01*
X124544740Y-79411748D01*
X124544740Y-78924200D01*
X124500462Y-78688883D01*
X124361390Y-78472759D01*
X124149190Y-78327769D01*
X123897300Y-78276760D01*
X123757500Y-78276760D01*
X123757500Y-75820996D01*
X123869817Y-75799862D01*
X124085941Y-75660790D01*
X124230931Y-75448590D01*
X124281940Y-75196700D01*
X124281940Y-73520300D01*
X124866660Y-73520300D01*
X124866660Y-75196700D01*
X124910938Y-75432017D01*
X125050010Y-75648141D01*
X125262210Y-75793131D01*
X125514100Y-75844140D01*
X127038100Y-75844140D01*
X127273417Y-75799862D01*
X127489541Y-75660790D01*
X127634531Y-75448590D01*
X127685540Y-75196700D01*
X127685540Y-73520300D01*
X127641262Y-73284983D01*
X127502190Y-73068859D01*
X127289990Y-72923869D01*
X127161100Y-72897768D01*
X127161100Y-71960222D01*
X127210938Y-71840199D01*
X127211262Y-71468233D01*
X127161100Y-71346831D01*
X127161100Y-71314852D01*
X127185538Y-71255999D01*
X127185862Y-70884033D01*
X127177121Y-70862878D01*
X127261738Y-70659099D01*
X127262062Y-70287133D01*
X127120017Y-69943357D01*
X126857227Y-69680108D01*
X126513699Y-69537462D01*
X126141733Y-69537138D01*
X125797957Y-69679183D01*
X125534708Y-69941973D01*
X125392062Y-70285501D01*
X125391858Y-70519283D01*
X125391099Y-70523100D01*
X125391100Y-70523105D01*
X125391100Y-70701209D01*
X125315862Y-70882401D01*
X125315538Y-71254367D01*
X125372323Y-71391798D01*
X125341262Y-71466601D01*
X125340938Y-71838567D01*
X125391100Y-71959969D01*
X125391100Y-72896004D01*
X125278783Y-72917138D01*
X125062659Y-73056210D01*
X124917669Y-73268410D01*
X124866660Y-73520300D01*
X124281940Y-73520300D01*
X124237662Y-73284983D01*
X124098590Y-73068859D01*
X123886390Y-72923869D01*
X123757500Y-72897768D01*
X123757500Y-72286680D01*
X124222187Y-71821992D01*
X124222190Y-71821990D01*
X124414033Y-71534875D01*
X124421806Y-71495800D01*
X124436987Y-71419479D01*
X124531238Y-71192499D01*
X124531562Y-70820533D01*
X124527599Y-70810942D01*
X124632838Y-70557499D01*
X124633162Y-70185533D01*
X124574820Y-70044335D01*
X124620138Y-69935199D01*
X124620462Y-69563233D01*
X124570300Y-69441831D01*
X124570300Y-69342000D01*
X124502933Y-69003325D01*
X124475259Y-68961908D01*
X124666842Y-68833896D01*
X124935300Y-68432120D01*
X125203758Y-68833896D01*
X125654093Y-69134800D01*
X126185300Y-69240464D01*
X126716507Y-69134800D01*
X127166842Y-68833896D01*
X127467746Y-68383561D01*
X127573410Y-67852354D01*
X127573410Y-66259646D01*
X127467746Y-65728439D01*
X127166842Y-65278104D01*
X126716507Y-64977200D01*
X126185300Y-64871536D01*
X125654093Y-64977200D01*
X125203758Y-65278104D01*
X124935300Y-65679880D01*
X124666842Y-65278104D01*
X124216507Y-64977200D01*
X123685300Y-64871536D01*
X123154093Y-64977200D01*
X122703758Y-65278104D01*
X122402854Y-65728439D01*
X122297190Y-66259646D01*
X122297190Y-67852354D01*
X122402854Y-68383561D01*
X122703758Y-68833896D01*
X122895341Y-68961908D01*
X122867667Y-69003325D01*
X122800300Y-69342000D01*
X122800300Y-69441578D01*
X122750462Y-69561601D01*
X122750138Y-69933567D01*
X122808480Y-70074765D01*
X122792693Y-70112784D01*
X122778767Y-70133625D01*
X122773920Y-70157994D01*
X122763162Y-70183901D01*
X122763137Y-70212200D01*
X122711399Y-70472300D01*
X122711400Y-70472305D01*
X122711400Y-70698878D01*
X122661562Y-70818901D01*
X122661509Y-70879511D01*
X122246710Y-71294310D01*
X122054867Y-71581425D01*
X122050016Y-71605811D01*
X121987499Y-71920100D01*
X121987500Y-71920105D01*
X121987500Y-72896004D01*
X121875183Y-72917138D01*
X121659059Y-73056210D01*
X121514069Y-73268410D01*
X121463060Y-73520300D01*
X121463060Y-75196700D01*
X121507338Y-75432017D01*
X121646410Y-75648141D01*
X121858610Y-75793131D01*
X121987500Y-75819232D01*
X121987500Y-78816195D01*
X121987499Y-78816200D01*
X122036761Y-79063850D01*
X122054867Y-79154875D01*
X122201948Y-79374999D01*
X122246710Y-79441990D01*
X122349860Y-79545140D01*
X122349860Y-79724200D01*
X122394138Y-79959517D01*
X122533210Y-80175641D01*
X122745410Y-80320631D01*
X122997300Y-80371640D01*
X123897300Y-80371640D01*
X124132617Y-80327362D01*
X124348741Y-80188290D01*
X124349860Y-80186652D01*
X124349860Y-80674200D01*
X124394138Y-80909517D01*
X124533210Y-81125641D01*
X124745410Y-81270631D01*
X124997300Y-81321640D01*
X125897300Y-81321640D01*
X126132617Y-81277362D01*
X126348741Y-81138290D01*
X126493731Y-80926090D01*
X126501911Y-80885695D01*
X126612801Y-80811601D01*
X127334201Y-80090201D01*
X127446558Y-79922046D01*
X127446558Y-80266365D01*
X127386588Y-80356116D01*
X127300800Y-80787400D01*
X127300800Y-82155793D01*
X121538429Y-82181701D01*
X121489064Y-82191929D01*
X121447568Y-82220557D01*
X121420479Y-82263073D01*
X121412000Y-82308700D01*
X121412000Y-97788100D01*
X120887100Y-97263200D01*
X120887100Y-71983600D01*
X120736610Y-71227035D01*
X120308050Y-70585650D01*
X117270950Y-67548550D01*
X116629565Y-67119990D01*
X115873000Y-66969500D01*
X110428300Y-66969500D01*
X109671734Y-67119990D01*
X109052551Y-67533716D01*
X108395900Y-67403100D01*
X102450900Y-67403100D01*
X102003969Y-67492000D01*
X100799900Y-67492000D01*
X100043335Y-67642490D01*
X99409854Y-68065769D01*
X99308565Y-67998090D01*
X98552000Y-67847600D01*
X98158300Y-67847600D01*
X97401735Y-67998090D01*
X96760350Y-68426650D01*
X96659190Y-68578046D01*
X96649452Y-68526293D01*
X96510380Y-68310169D01*
X96298180Y-68165179D01*
X96046290Y-68114170D01*
X94047310Y-68114170D01*
X93811993Y-68158448D01*
X93595869Y-68297520D01*
X93450879Y-68509720D01*
X93399870Y-68761610D01*
X93399870Y-70760590D01*
X93444148Y-70995907D01*
X93583220Y-71212031D01*
X93795420Y-71357021D01*
X94047310Y-71408030D01*
X96046290Y-71408030D01*
X96281607Y-71363752D01*
X96497731Y-71224680D01*
X96631226Y-71029303D01*
X96760350Y-71222550D01*
X97401735Y-71651110D01*
X98158300Y-71801600D01*
X98398558Y-71801600D01*
X98590100Y-71839700D01*
X99346666Y-71689210D01*
X99498150Y-71587991D01*
X99649635Y-71689210D01*
X100406200Y-71839700D01*
X101162765Y-71689210D01*
X101526754Y-71446000D01*
X102362000Y-71446000D01*
X102808931Y-71357100D01*
X107726502Y-71357100D01*
X107917334Y-71484610D01*
X108673900Y-71635100D01*
X109716700Y-71635100D01*
X110473265Y-71484610D01*
X111114650Y-71056050D01*
X111247200Y-70923500D01*
X115054100Y-70923500D01*
X116933100Y-72802500D01*
X116933100Y-76543488D01*
X116707565Y-76392790D01*
X115951000Y-76242300D01*
X112738247Y-76242300D01*
X112674400Y-76229600D01*
X111917835Y-76380090D01*
X111413947Y-76716778D01*
X110929065Y-76392790D01*
X110172500Y-76242300D01*
X107873800Y-76242300D01*
X107117235Y-76392790D01*
X106475850Y-76821350D01*
X106047290Y-77462735D01*
X105896800Y-78219300D01*
X106047290Y-78975865D01*
X106475850Y-79617250D01*
X107117235Y-80045810D01*
X107873800Y-80196300D01*
X110070205Y-80196300D01*
X110197900Y-80221700D01*
X110954465Y-80071210D01*
X111461507Y-79732415D01*
X111930535Y-80045810D01*
X112687100Y-80196300D01*
X115132100Y-80196300D01*
X116933100Y-81997300D01*
X116933100Y-98082100D01*
X117083590Y-98838665D01*
X117512150Y-99480050D01*
X119912450Y-101880350D01*
X120553835Y-102308910D01*
X121310400Y-102459400D01*
X127971800Y-102459400D01*
X128180150Y-102667750D01*
X128821535Y-103096310D01*
X129578100Y-103246800D01*
X192163700Y-103246800D01*
X192920265Y-103096310D01*
X193561650Y-102667750D01*
X194515100Y-101714300D01*
X209156300Y-101714300D01*
X209205710Y-101704294D01*
X209247335Y-101675853D01*
X209274615Y-101633459D01*
X209283300Y-101586972D01*
X209281082Y-100727930D01*
X209490501Y-100588001D01*
X209602800Y-100475702D01*
X209602800Y-114772598D01*
X209057398Y-115318000D01*
X206469388Y-115318000D01*
X206759251Y-115028643D01*
X206993433Y-114464670D01*
X206993965Y-113854009D01*
X206760768Y-113289629D01*
X206329343Y-112857449D01*
X205765370Y-112623267D01*
X205154709Y-112622735D01*
X204590329Y-112855932D01*
X204208412Y-113237182D01*
X203829343Y-112857449D01*
X203265370Y-112623267D01*
X202654709Y-112622735D01*
X202090329Y-112855932D01*
X201658149Y-113287357D01*
X201423967Y-113851330D01*
X201423435Y-114461991D01*
X201656632Y-115026371D01*
X201947752Y-115318000D01*
X191195802Y-115318000D01*
X188780822Y-112903020D01*
X188780862Y-112857533D01*
X188720109Y-112710500D01*
X198310500Y-112710500D01*
X198601339Y-112652648D01*
X198847901Y-112487901D01*
X201663280Y-109672522D01*
X201708767Y-109672562D01*
X202052543Y-109530517D01*
X202315792Y-109267727D01*
X202458438Y-108924199D01*
X202458762Y-108552233D01*
X202356087Y-108303739D01*
X202699696Y-107960728D01*
X202911469Y-107450724D01*
X202911951Y-106898499D01*
X202888730Y-106842299D01*
X203144743Y-106736517D01*
X203203362Y-106678000D01*
X205050537Y-106678000D01*
X205082673Y-106710192D01*
X205402817Y-106843128D01*
X205380831Y-106896076D01*
X205380349Y-107448301D01*
X205591231Y-107958674D01*
X205981372Y-108349496D01*
X206491376Y-108561269D01*
X207043601Y-108561751D01*
X207553974Y-108350869D01*
X207944796Y-107960728D01*
X208156569Y-107450724D01*
X208157051Y-106898499D01*
X207946169Y-106388126D01*
X207556028Y-105997304D01*
X207378241Y-105923480D01*
X207553974Y-105850869D01*
X207944796Y-105460728D01*
X208156569Y-104950724D01*
X208157051Y-104398499D01*
X207946169Y-103888126D01*
X207556028Y-103497304D01*
X207046024Y-103285531D01*
X206493799Y-103285049D01*
X205983426Y-103495931D01*
X205592604Y-103886072D01*
X205380831Y-104396076D01*
X205380349Y-104948301D01*
X205399463Y-104994560D01*
X205084057Y-105124883D01*
X205050882Y-105158000D01*
X203152907Y-105158000D01*
X203146127Y-105151208D01*
X202874973Y-105038615D01*
X202911469Y-104950724D01*
X202911951Y-104398499D01*
X202701069Y-103888126D01*
X202310928Y-103497304D01*
X201800924Y-103285531D01*
X201248699Y-103285049D01*
X200738326Y-103495931D01*
X200347504Y-103886072D01*
X200135731Y-104396076D01*
X200135249Y-104948301D01*
X200346131Y-105458674D01*
X200736272Y-105849496D01*
X200914059Y-105923320D01*
X200738326Y-105995931D01*
X200347504Y-106386072D01*
X200135731Y-106896076D01*
X200135249Y-107448301D01*
X200346131Y-107958674D01*
X200691071Y-108304216D01*
X200588762Y-108550601D01*
X200588721Y-108597477D01*
X197995698Y-111190500D01*
X197300502Y-111190500D01*
X198818480Y-109672522D01*
X198863967Y-109672562D01*
X199207743Y-109530517D01*
X199470992Y-109267727D01*
X199613638Y-108924199D01*
X199613962Y-108552233D01*
X199511287Y-108303739D01*
X199854896Y-107960728D01*
X200066669Y-107450724D01*
X200067151Y-106898499D01*
X199856269Y-106388126D01*
X199466128Y-105997304D01*
X199288341Y-105923480D01*
X199464074Y-105850869D01*
X199854896Y-105460728D01*
X200066669Y-104950724D01*
X200067151Y-104398499D01*
X199856269Y-103888126D01*
X199466128Y-103497304D01*
X198956124Y-103285531D01*
X198403899Y-103285049D01*
X197893526Y-103495931D01*
X197502704Y-103886072D01*
X197290931Y-104396076D01*
X197290449Y-104948301D01*
X197501331Y-105458674D01*
X197891472Y-105849496D01*
X198069259Y-105923320D01*
X197893526Y-105995931D01*
X197502704Y-106386072D01*
X197290931Y-106896076D01*
X197290449Y-107448301D01*
X197501331Y-107958674D01*
X197846271Y-108304216D01*
X197743962Y-108550601D01*
X197743921Y-108597477D01*
X195925598Y-110415800D01*
X195205002Y-110415800D01*
X195960980Y-109659822D01*
X196006467Y-109659862D01*
X196350243Y-109517817D01*
X196613492Y-109255027D01*
X196756138Y-108911499D01*
X196756462Y-108539533D01*
X196661210Y-108309006D01*
X197010096Y-107960728D01*
X197221869Y-107450724D01*
X197222351Y-106898499D01*
X197011469Y-106388126D01*
X196621328Y-105997304D01*
X196443541Y-105923480D01*
X196619274Y-105850869D01*
X197010096Y-105460728D01*
X197221869Y-104950724D01*
X197222351Y-104398499D01*
X197011469Y-103888126D01*
X196621328Y-103497304D01*
X196111324Y-103285531D01*
X195559099Y-103285049D01*
X195048726Y-103495931D01*
X194657904Y-103886072D01*
X194446131Y-104396076D01*
X194445649Y-104948301D01*
X194656531Y-105458674D01*
X195046672Y-105849496D01*
X195224459Y-105923320D01*
X195048726Y-105995931D01*
X194657904Y-106386072D01*
X194446131Y-106896076D01*
X194445649Y-107448301D01*
X194656531Y-107958674D01*
X194988777Y-108291500D01*
X194886462Y-108537901D01*
X194886421Y-108584777D01*
X193842798Y-109628400D01*
X193360757Y-109628400D01*
X193505443Y-109568617D01*
X193768692Y-109305827D01*
X193911338Y-108962299D01*
X193911662Y-108590333D01*
X193801550Y-108323840D01*
X194165296Y-107960728D01*
X194377069Y-107450724D01*
X194377551Y-106898499D01*
X194166669Y-106388126D01*
X193776528Y-105997304D01*
X193598741Y-105923480D01*
X193774474Y-105850869D01*
X194165296Y-105460728D01*
X194377069Y-104950724D01*
X194377551Y-104398499D01*
X194166669Y-103888126D01*
X193776528Y-103497304D01*
X193266524Y-103285531D01*
X192714299Y-103285049D01*
X192203926Y-103495931D01*
X191813104Y-103886072D01*
X191601331Y-104396076D01*
X191600849Y-104948301D01*
X191811731Y-105458674D01*
X192201872Y-105849496D01*
X192379659Y-105923320D01*
X192203926Y-105995931D01*
X191813104Y-106386072D01*
X191601331Y-106896076D01*
X191600849Y-107448301D01*
X191811731Y-107958674D01*
X192158874Y-108306423D01*
X192041662Y-108588701D01*
X192041621Y-108635577D01*
X191836198Y-108841000D01*
X169485163Y-108841000D01*
X169453027Y-108808808D01*
X169109499Y-108666162D01*
X168737533Y-108665838D01*
X168393757Y-108807883D01*
X168360582Y-108841000D01*
X147539541Y-108841000D01*
X147494727Y-108796108D01*
X147151199Y-108653462D01*
X146779233Y-108653138D01*
X146435457Y-108795183D01*
X146389560Y-108841000D01*
X125962196Y-108841000D01*
X125892027Y-108770708D01*
X125663871Y-108675969D01*
X123934622Y-106946720D01*
X123934662Y-106901233D01*
X123792617Y-106557457D01*
X123529827Y-106294208D01*
X123186299Y-106151562D01*
X122827900Y-106151250D01*
X122827900Y-106073073D01*
X122876840Y-105831400D01*
X122876840Y-105061601D01*
X125480249Y-105061601D01*
X125691131Y-105571974D01*
X126081272Y-105962796D01*
X126259059Y-106036620D01*
X126083326Y-106109231D01*
X125692504Y-106499372D01*
X125480731Y-107009376D01*
X125480249Y-107561601D01*
X125691131Y-108071974D01*
X126081272Y-108462796D01*
X126591276Y-108674569D01*
X127143501Y-108675051D01*
X127653874Y-108464169D01*
X128044696Y-108074028D01*
X128243828Y-107594466D01*
X128441131Y-108071974D01*
X128831272Y-108462796D01*
X129341276Y-108674569D01*
X129893501Y-108675051D01*
X130403874Y-108464169D01*
X130794696Y-108074028D01*
X131006469Y-107564024D01*
X131006951Y-107011799D01*
X130796069Y-106501426D01*
X130405928Y-106110604D01*
X130228141Y-106036780D01*
X130403874Y-105964169D01*
X130794696Y-105574028D01*
X131006469Y-105064024D01*
X131006471Y-105061601D01*
X131010249Y-105061601D01*
X131221131Y-105571974D01*
X131611272Y-105962796D01*
X131789059Y-106036620D01*
X131613326Y-106109231D01*
X131222504Y-106499372D01*
X131010731Y-107009376D01*
X131010249Y-107561601D01*
X131221131Y-108071974D01*
X131611272Y-108462796D01*
X132121276Y-108674569D01*
X132673501Y-108675051D01*
X133183874Y-108464169D01*
X133574696Y-108074028D01*
X133768816Y-107606537D01*
X133961131Y-108071974D01*
X134351272Y-108462796D01*
X134861276Y-108674569D01*
X135413501Y-108675051D01*
X135923874Y-108464169D01*
X136314696Y-108074028D01*
X136526469Y-107564024D01*
X136526945Y-107018224D01*
X136570467Y-107018262D01*
X136914243Y-106876217D01*
X137011029Y-106779600D01*
X138845437Y-106779600D01*
X138877573Y-106811792D01*
X139214655Y-106951761D01*
X139190731Y-107009376D01*
X139190249Y-107561601D01*
X139401131Y-108071974D01*
X139791272Y-108462796D01*
X140301276Y-108674569D01*
X140853501Y-108675051D01*
X141363874Y-108464169D01*
X141754696Y-108074028D01*
X141966469Y-107564024D01*
X141966951Y-107011799D01*
X141756069Y-106501426D01*
X141365928Y-106110604D01*
X141188141Y-106036780D01*
X141363874Y-105964169D01*
X141754696Y-105574028D01*
X141966469Y-105064024D01*
X141966475Y-105056501D01*
X147286749Y-105056501D01*
X147497631Y-105566874D01*
X147887772Y-105957696D01*
X148065559Y-106031520D01*
X147889826Y-106104131D01*
X147499004Y-106494272D01*
X147287231Y-107004276D01*
X147286749Y-107556501D01*
X147497631Y-108066874D01*
X147887772Y-108457696D01*
X148397776Y-108669469D01*
X148950001Y-108669951D01*
X149460374Y-108459069D01*
X149851196Y-108068928D01*
X150062969Y-107558924D01*
X150063451Y-107006699D01*
X149852569Y-106496326D01*
X149462428Y-106105504D01*
X149284641Y-106031680D01*
X149460374Y-105959069D01*
X149851196Y-105568928D01*
X150062969Y-105058924D01*
X150062971Y-105056501D01*
X150086749Y-105056501D01*
X150297631Y-105566874D01*
X150687772Y-105957696D01*
X150865559Y-106031520D01*
X150689826Y-106104131D01*
X150299004Y-106494272D01*
X150087231Y-107004276D01*
X150086749Y-107556501D01*
X150297631Y-108066874D01*
X150687772Y-108457696D01*
X151197776Y-108669469D01*
X151750001Y-108669951D01*
X152260374Y-108459069D01*
X152651196Y-108068928D01*
X152862969Y-107558924D01*
X152863451Y-107006699D01*
X152652569Y-106496326D01*
X152262428Y-106105504D01*
X152084641Y-106031680D01*
X152260374Y-105959069D01*
X152651196Y-105568928D01*
X152862969Y-105058924D01*
X152862971Y-105056501D01*
X152876749Y-105056501D01*
X153087631Y-105566874D01*
X153477772Y-105957696D01*
X153655559Y-106031520D01*
X153479826Y-106104131D01*
X153089004Y-106494272D01*
X152877231Y-107004276D01*
X152876749Y-107556501D01*
X153087631Y-108066874D01*
X153477772Y-108457696D01*
X153987776Y-108669469D01*
X154540001Y-108669951D01*
X155050374Y-108459069D01*
X155441196Y-108068928D01*
X155652969Y-107558924D01*
X155653451Y-107006699D01*
X155442569Y-106496326D01*
X155052428Y-106105504D01*
X154874641Y-106031680D01*
X155050374Y-105959069D01*
X155441196Y-105568928D01*
X155652969Y-105058924D01*
X155653014Y-105006501D01*
X155676749Y-105006501D01*
X155887631Y-105516874D01*
X156277772Y-105907696D01*
X156455559Y-105981520D01*
X156279826Y-106054131D01*
X155889004Y-106444272D01*
X155677231Y-106954276D01*
X155676749Y-107506501D01*
X155887631Y-108016874D01*
X156277772Y-108407696D01*
X156787776Y-108619469D01*
X157340001Y-108619951D01*
X157850374Y-108409069D01*
X158241196Y-108018928D01*
X158452969Y-107508924D01*
X158453442Y-106967430D01*
X158490667Y-106967462D01*
X158834443Y-106825417D01*
X158943951Y-106716100D01*
X160638637Y-106716100D01*
X160670773Y-106748292D01*
X161014301Y-106890938D01*
X161038608Y-106890959D01*
X161037231Y-106894276D01*
X161036749Y-107446501D01*
X161247631Y-107956874D01*
X161637772Y-108347696D01*
X162147776Y-108559469D01*
X162700001Y-108559951D01*
X163210374Y-108349069D01*
X163601196Y-107958928D01*
X163812969Y-107448924D01*
X163813451Y-106896699D01*
X163602569Y-106386326D01*
X163212428Y-105995504D01*
X163034641Y-105921680D01*
X163210374Y-105849069D01*
X163601196Y-105458928D01*
X163812969Y-104948924D01*
X163812973Y-104943501D01*
X169454049Y-104943501D01*
X169664931Y-105453874D01*
X170055072Y-105844696D01*
X170232859Y-105918520D01*
X170057126Y-105991131D01*
X169666304Y-106381272D01*
X169454531Y-106891276D01*
X169454049Y-107443501D01*
X169664931Y-107953874D01*
X170055072Y-108344696D01*
X170565076Y-108556469D01*
X171117301Y-108556951D01*
X171627674Y-108346069D01*
X172018496Y-107955928D01*
X172230269Y-107445924D01*
X172230751Y-106893699D01*
X172019869Y-106383326D01*
X171629728Y-105992504D01*
X171451941Y-105918680D01*
X171627674Y-105846069D01*
X172018496Y-105455928D01*
X172230269Y-104945924D01*
X172230271Y-104943501D01*
X172274049Y-104943501D01*
X172484931Y-105453874D01*
X172875072Y-105844696D01*
X173052859Y-105918520D01*
X172877126Y-105991131D01*
X172486304Y-106381272D01*
X172274531Y-106891276D01*
X172274049Y-107443501D01*
X172484931Y-107953874D01*
X172875072Y-108344696D01*
X173385076Y-108556469D01*
X173937301Y-108556951D01*
X174447674Y-108346069D01*
X174838496Y-107955928D01*
X175050269Y-107445924D01*
X175050751Y-106893699D01*
X174839869Y-106383326D01*
X174449728Y-105992504D01*
X174271941Y-105918680D01*
X174447674Y-105846069D01*
X174838496Y-105455928D01*
X175050269Y-104945924D01*
X175050271Y-104943501D01*
X175124049Y-104943501D01*
X175334931Y-105453874D01*
X175725072Y-105844696D01*
X175902859Y-105918520D01*
X175727126Y-105991131D01*
X175336304Y-106381272D01*
X175124531Y-106891276D01*
X175124049Y-107443501D01*
X175334931Y-107953874D01*
X175725072Y-108344696D01*
X176235076Y-108556469D01*
X176787301Y-108556951D01*
X177297674Y-108346069D01*
X177688496Y-107955928D01*
X177900269Y-107445924D01*
X177900751Y-106893699D01*
X177689869Y-106383326D01*
X177299728Y-105992504D01*
X177121941Y-105918680D01*
X177297674Y-105846069D01*
X177688496Y-105455928D01*
X177900269Y-104945924D01*
X177900271Y-104943501D01*
X177944049Y-104943501D01*
X178154931Y-105453874D01*
X178545072Y-105844696D01*
X178722859Y-105918520D01*
X178547126Y-105991131D01*
X178156304Y-106381272D01*
X177944531Y-106891276D01*
X177944049Y-107443501D01*
X178154931Y-107953874D01*
X178545072Y-108344696D01*
X179055076Y-108556469D01*
X179607301Y-108556951D01*
X180117674Y-108346069D01*
X180508496Y-107955928D01*
X180720269Y-107445924D01*
X180720751Y-106893699D01*
X180687182Y-106812456D01*
X180932443Y-106711117D01*
X181041951Y-106601800D01*
X183155737Y-106601800D01*
X183187873Y-106633992D01*
X183443190Y-106740009D01*
X183384531Y-106881276D01*
X183384049Y-107433501D01*
X183594931Y-107943874D01*
X183985072Y-108334696D01*
X184495076Y-108546469D01*
X185047301Y-108546951D01*
X185557674Y-108336069D01*
X185948496Y-107945928D01*
X186160269Y-107435924D01*
X186160751Y-106883699D01*
X185949869Y-106373326D01*
X185559728Y-105982504D01*
X185381941Y-105908680D01*
X185557674Y-105836069D01*
X185948496Y-105445928D01*
X186160269Y-104935924D01*
X186160751Y-104383699D01*
X185949869Y-103873326D01*
X185559728Y-103482504D01*
X185049724Y-103270731D01*
X184497499Y-103270249D01*
X183987126Y-103481131D01*
X183596304Y-103871272D01*
X183384531Y-104381276D01*
X183384049Y-104933501D01*
X183396294Y-104963137D01*
X183189257Y-105048683D01*
X183156082Y-105081800D01*
X180827844Y-105081800D01*
X180687966Y-105023717D01*
X180720269Y-104945924D01*
X180720751Y-104393699D01*
X180509869Y-103883326D01*
X180119728Y-103492504D01*
X179609724Y-103280731D01*
X179057499Y-103280249D01*
X178547126Y-103491131D01*
X178156304Y-103881272D01*
X177944531Y-104391276D01*
X177944049Y-104943501D01*
X177900271Y-104943501D01*
X177900751Y-104393699D01*
X177689869Y-103883326D01*
X177299728Y-103492504D01*
X176789724Y-103280731D01*
X176237499Y-103280249D01*
X175727126Y-103491131D01*
X175336304Y-103881272D01*
X175124531Y-104391276D01*
X175124049Y-104943501D01*
X175050271Y-104943501D01*
X175050751Y-104393699D01*
X174839869Y-103883326D01*
X174449728Y-103492504D01*
X173939724Y-103280731D01*
X173387499Y-103280249D01*
X172877126Y-103491131D01*
X172486304Y-103881272D01*
X172274531Y-104391276D01*
X172274049Y-104943501D01*
X172230271Y-104943501D01*
X172230751Y-104393699D01*
X172019869Y-103883326D01*
X171629728Y-103492504D01*
X171119724Y-103280731D01*
X170567499Y-103280249D01*
X170057126Y-103491131D01*
X169666304Y-103881272D01*
X169454531Y-104391276D01*
X169454049Y-104943501D01*
X163812973Y-104943501D01*
X163813451Y-104396699D01*
X163602569Y-103886326D01*
X163212428Y-103495504D01*
X162702424Y-103283731D01*
X162150199Y-103283249D01*
X161639826Y-103494131D01*
X161249004Y-103884272D01*
X161037231Y-104394276D01*
X161036749Y-104946501D01*
X161067524Y-105020983D01*
X161015933Y-105020938D01*
X160672157Y-105162983D01*
X160638982Y-105196100D01*
X158729844Y-105196100D01*
X158492299Y-105097462D01*
X158416232Y-105097396D01*
X158452969Y-105008924D01*
X158453451Y-104456699D01*
X158242569Y-103946326D01*
X157852428Y-103555504D01*
X157342424Y-103343731D01*
X156790199Y-103343249D01*
X156279826Y-103554131D01*
X155889004Y-103944272D01*
X155677231Y-104454276D01*
X155676749Y-105006501D01*
X155653014Y-105006501D01*
X155653451Y-104506699D01*
X155442569Y-103996326D01*
X155052428Y-103605504D01*
X154542424Y-103393731D01*
X153990199Y-103393249D01*
X153479826Y-103604131D01*
X153089004Y-103994272D01*
X152877231Y-104504276D01*
X152876749Y-105056501D01*
X152862971Y-105056501D01*
X152863451Y-104506699D01*
X152652569Y-103996326D01*
X152262428Y-103605504D01*
X151752424Y-103393731D01*
X151200199Y-103393249D01*
X150689826Y-103604131D01*
X150299004Y-103994272D01*
X150087231Y-104504276D01*
X150086749Y-105056501D01*
X150062971Y-105056501D01*
X150063451Y-104506699D01*
X149852569Y-103996326D01*
X149462428Y-103605504D01*
X148952424Y-103393731D01*
X148400199Y-103393249D01*
X147889826Y-103604131D01*
X147499004Y-103994272D01*
X147287231Y-104504276D01*
X147286749Y-105056501D01*
X141966475Y-105056501D01*
X141966951Y-104511799D01*
X141756069Y-104001426D01*
X141365928Y-103610604D01*
X140855924Y-103398831D01*
X140303699Y-103398349D01*
X139793326Y-103609231D01*
X139402504Y-103999372D01*
X139190731Y-104509376D01*
X139190249Y-105061601D01*
X139203046Y-105092572D01*
X138878957Y-105226483D01*
X138845782Y-105259600D01*
X136840229Y-105259600D01*
X136572099Y-105148262D01*
X136491519Y-105148192D01*
X136526469Y-105064024D01*
X136526951Y-104511799D01*
X136316069Y-104001426D01*
X135925928Y-103610604D01*
X135415924Y-103398831D01*
X134863699Y-103398349D01*
X134353326Y-103609231D01*
X133962504Y-103999372D01*
X133768384Y-104466863D01*
X133576069Y-104001426D01*
X133185928Y-103610604D01*
X132675924Y-103398831D01*
X132123699Y-103398349D01*
X131613326Y-103609231D01*
X131222504Y-103999372D01*
X131010731Y-104509376D01*
X131010249Y-105061601D01*
X131006471Y-105061601D01*
X131006951Y-104511799D01*
X130796069Y-104001426D01*
X130405928Y-103610604D01*
X129895924Y-103398831D01*
X129343699Y-103398349D01*
X128833326Y-103609231D01*
X128442504Y-103999372D01*
X128243372Y-104478934D01*
X128046069Y-104001426D01*
X127655928Y-103610604D01*
X127145924Y-103398831D01*
X126593699Y-103398349D01*
X126083326Y-103609231D01*
X125692504Y-103999372D01*
X125480731Y-104509376D01*
X125480249Y-105061601D01*
X122876840Y-105061601D01*
X122876840Y-104531400D01*
X122832562Y-104296083D01*
X122693490Y-104079959D01*
X122481290Y-103934969D01*
X122229400Y-103883960D01*
X121529400Y-103883960D01*
X121294083Y-103928238D01*
X121077959Y-104067310D01*
X120932969Y-104279510D01*
X120930319Y-104292597D01*
X120793490Y-104079959D01*
X120581290Y-103934969D01*
X120329400Y-103883960D01*
X119629400Y-103883960D01*
X119394083Y-103928238D01*
X119177959Y-104067310D01*
X119032969Y-104279510D01*
X119004236Y-104421400D01*
X118870732Y-104421400D01*
X118844762Y-104283383D01*
X118705690Y-104067259D01*
X118493490Y-103922269D01*
X118241600Y-103871260D01*
X117541600Y-103871260D01*
X117306283Y-103915538D01*
X117090159Y-104054610D01*
X116945169Y-104266810D01*
X116894160Y-104518700D01*
X116894160Y-105818700D01*
X116938438Y-106054017D01*
X117077510Y-106270141D01*
X117289710Y-106415131D01*
X117541600Y-106466140D01*
X118241600Y-106466140D01*
X118476917Y-106421862D01*
X118693041Y-106282790D01*
X118838031Y-106070590D01*
X118864193Y-105941400D01*
X119002658Y-105941400D01*
X119026238Y-106066717D01*
X119165310Y-106282841D01*
X119270389Y-106354639D01*
X119277252Y-106389139D01*
X119441999Y-106635701D01*
X120032378Y-107226080D01*
X120032338Y-107271567D01*
X120174383Y-107615343D01*
X120328930Y-107770160D01*
X119692900Y-107770160D01*
X119457583Y-107814438D01*
X119241459Y-107953510D01*
X119096469Y-108165710D01*
X119066550Y-108313454D01*
X118905336Y-108314423D01*
X118882862Y-108194983D01*
X118743790Y-107978859D01*
X118531590Y-107833869D01*
X118279700Y-107782860D01*
X117579700Y-107782860D01*
X117344383Y-107827138D01*
X117128259Y-107966210D01*
X116983269Y-108178410D01*
X116932260Y-108430300D01*
X116932260Y-109730300D01*
X116976538Y-109965617D01*
X117115610Y-110181741D01*
X117327810Y-110326731D01*
X117579700Y-110377740D01*
X118279700Y-110377740D01*
X118515017Y-110333462D01*
X118731141Y-110194390D01*
X118876131Y-109982190D01*
X118906050Y-109834446D01*
X119067264Y-109833477D01*
X119089738Y-109952917D01*
X119228810Y-110169041D01*
X119292960Y-110212873D01*
X119340752Y-110453139D01*
X119505499Y-110699701D01*
X120057778Y-111251980D01*
X120057738Y-111297467D01*
X120199783Y-111641243D01*
X120328974Y-111770660D01*
X119731000Y-111770660D01*
X119495683Y-111814938D01*
X119279559Y-111954010D01*
X119134569Y-112166210D01*
X119104650Y-112313954D01*
X118943436Y-112314923D01*
X118920962Y-112195483D01*
X118781890Y-111979359D01*
X118569690Y-111834369D01*
X118317800Y-111783360D01*
X117617800Y-111783360D01*
X117382483Y-111827638D01*
X117166359Y-111966710D01*
X117021369Y-112178910D01*
X116970360Y-112430800D01*
X116970360Y-113730800D01*
X117014638Y-113966117D01*
X117153710Y-114182241D01*
X117365910Y-114327231D01*
X117617800Y-114378240D01*
X118317800Y-114378240D01*
X118553117Y-114333962D01*
X118769241Y-114194890D01*
X118914231Y-113982690D01*
X118944150Y-113834946D01*
X119105364Y-113833977D01*
X119127838Y-113953417D01*
X119266910Y-114169541D01*
X119331060Y-114213373D01*
X119378852Y-114453639D01*
X119543599Y-114700201D01*
X120121278Y-115277880D01*
X120121238Y-115323367D01*
X120263283Y-115667143D01*
X120405152Y-115809260D01*
X119756400Y-115809260D01*
X119521083Y-115853538D01*
X119304959Y-115992610D01*
X119159969Y-116204810D01*
X119135210Y-116327074D01*
X118981516Y-116328015D01*
X118959062Y-116208683D01*
X118819990Y-115992559D01*
X118607790Y-115847569D01*
X118355900Y-115796560D01*
X117655900Y-115796560D01*
X117420583Y-115840838D01*
X117204459Y-115979910D01*
X117059469Y-116192110D01*
X117008460Y-116444000D01*
X117008460Y-117744000D01*
X117052738Y-117979317D01*
X117191810Y-118195441D01*
X117404010Y-118340431D01*
X117655900Y-118391440D01*
X118355900Y-118391440D01*
X118591217Y-118347162D01*
X118807341Y-118208090D01*
X118952331Y-117995890D01*
X118982272Y-117848039D01*
X119125981Y-117847159D01*
X119153238Y-117992017D01*
X119292310Y-118208141D01*
X119346400Y-118245099D01*
X119346400Y-118264900D01*
X119404252Y-118555739D01*
X119568999Y-118802301D01*
X120032378Y-119265680D01*
X120032338Y-119311167D01*
X120174383Y-119654943D01*
X120437173Y-119918192D01*
X120780701Y-120060838D01*
X121070128Y-120061090D01*
X121061362Y-120082201D01*
X121061038Y-120454167D01*
X121203083Y-120797943D01*
X121465873Y-121061192D01*
X121809401Y-121203838D01*
X122181367Y-121204162D01*
X122302769Y-121154000D01*
X124131520Y-121154000D01*
X127999808Y-125022287D01*
X127999810Y-125022290D01*
X128286925Y-125214133D01*
X128343116Y-125225310D01*
X128625600Y-125281501D01*
X128625605Y-125281500D01*
X210565995Y-125281500D01*
X210566000Y-125281501D01*
X210848484Y-125225310D01*
X210904675Y-125214133D01*
X211191790Y-125022290D01*
X213439687Y-122774392D01*
X213439690Y-122774390D01*
X213631533Y-122487275D01*
X213660646Y-122340917D01*
X213698901Y-122148600D01*
X213698900Y-122148595D01*
X213698900Y-68059305D01*
X213698901Y-68059300D01*
X213631533Y-67720626D01*
X213631533Y-67720625D01*
X213439690Y-67433510D01*
X213439687Y-67433508D01*
X209299490Y-63293310D01*
X209177987Y-63212125D01*
X209012375Y-63101467D01*
X208956184Y-63090290D01*
X208673700Y-63034099D01*
X208673695Y-63034100D01*
X195429622Y-63034100D01*
X195309599Y-62984262D01*
X194937633Y-62983938D01*
X194869057Y-63012273D01*
X194801599Y-62984262D01*
X194429633Y-62983938D01*
X194335594Y-63022794D01*
X194242799Y-62984262D01*
X193870833Y-62983938D01*
X193527057Y-63125983D01*
X193263808Y-63388773D01*
X193121162Y-63732301D01*
X193120967Y-63956499D01*
X192258342Y-63956499D01*
X192349238Y-63737599D01*
X192349562Y-63365633D01*
X192207517Y-63021857D01*
X191944727Y-62758608D01*
X191823414Y-62708234D01*
X191811217Y-62696037D01*
X191801987Y-62673700D01*
X213881500Y-62673700D01*
X213881500Y-128347000D01*
X90347000Y-128347000D01*
X90347000Y-126074123D01*
X90686227Y-126895115D01*
X91567347Y-127777774D01*
X92719174Y-128256054D01*
X93966354Y-128257143D01*
X95119015Y-127780873D01*
X96001674Y-126899753D01*
X96479954Y-125747926D01*
X96481043Y-124500746D01*
X96004773Y-123348085D01*
X95123653Y-122465426D01*
X93971826Y-121987146D01*
X92724646Y-121986057D01*
X91571985Y-122462327D01*
X90689326Y-123343447D01*
X90347000Y-124167860D01*
X90347000Y-95793800D01*
X97249658Y-95793800D01*
X97249658Y-97093800D01*
X97300351Y-97363210D01*
X97459572Y-97610646D01*
X97702515Y-97776643D01*
X97990900Y-97835042D01*
X98851310Y-97835042D01*
X98881250Y-97879850D01*
X99522635Y-98308410D01*
X100279200Y-98458900D01*
X100627194Y-98458900D01*
X101383759Y-98308410D01*
X101434337Y-98274615D01*
X101541935Y-98346510D01*
X102298500Y-98497000D01*
X102490042Y-98458900D01*
X103877293Y-98458900D01*
X104051085Y-104382622D01*
X103917610Y-120604905D01*
X103857069Y-120693510D01*
X103806060Y-120945400D01*
X103806060Y-122945400D01*
X103850338Y-123180717D01*
X103895835Y-123251421D01*
X103886004Y-124446255D01*
X103895603Y-124495746D01*
X103923701Y-124537603D01*
X103945075Y-124551607D01*
X103944708Y-124551973D01*
X103802062Y-124895501D01*
X103801738Y-125267467D01*
X103943783Y-125611243D01*
X104206573Y-125874492D01*
X104550101Y-126017138D01*
X104922067Y-126017462D01*
X105265843Y-125875417D01*
X105529092Y-125612627D01*
X105579466Y-125491314D01*
X106472035Y-124598744D01*
X111623476Y-124649939D01*
X111603234Y-124698687D01*
X111020310Y-125281610D01*
X111014864Y-125289760D01*
X110221100Y-125289760D01*
X109985783Y-125334038D01*
X109769659Y-125473110D01*
X109624669Y-125685310D01*
X109573660Y-125937200D01*
X109573660Y-127187200D01*
X109617938Y-127422517D01*
X109757010Y-127638641D01*
X109969210Y-127783631D01*
X110221100Y-127834640D01*
X113071100Y-127834640D01*
X113306417Y-127790362D01*
X113522541Y-127651290D01*
X113667531Y-127439090D01*
X113718540Y-127187200D01*
X113718540Y-125937200D01*
X113674262Y-125701883D01*
X113535190Y-125485759D01*
X113352930Y-125361226D01*
X113380638Y-125294499D01*
X113380962Y-124922533D01*
X113275111Y-124666352D01*
X114235238Y-124675894D01*
X114284745Y-124666379D01*
X114326650Y-124638354D01*
X114354350Y-124596233D01*
X114363500Y-124548545D01*
X114274600Y-92722345D01*
X114264456Y-92672963D01*
X114235899Y-92631418D01*
X114193428Y-92604257D01*
X114147750Y-92595700D01*
X103954547Y-92583665D01*
X103951916Y-92571037D01*
X103923243Y-92529572D01*
X103880697Y-92502529D01*
X103806901Y-92497293D01*
X103431722Y-92583048D01*
X103390849Y-92583000D01*
X103341427Y-92592948D01*
X103299770Y-92621340D01*
X103272440Y-92663702D01*
X103263700Y-92710000D01*
X103263700Y-92722700D01*
X103273706Y-92772110D01*
X103302147Y-92813735D01*
X103344541Y-92841015D01*
X103418999Y-92846507D01*
X103460233Y-92837082D01*
X103712367Y-92837380D01*
X103761289Y-94504900D01*
X102336600Y-94504900D01*
X101580035Y-94655390D01*
X101523634Y-94693076D01*
X101417194Y-94621955D01*
X100660629Y-94471465D01*
X100492540Y-94504900D01*
X100279200Y-94504900D01*
X99522635Y-94655390D01*
X98928231Y-95052558D01*
X97990900Y-95052558D01*
X97721490Y-95103251D01*
X97474054Y-95262472D01*
X97308057Y-95505415D01*
X97249658Y-95793800D01*
X90347000Y-95793800D01*
X90347000Y-62673700D01*
X138480331Y-62673700D01*
X138222008Y-62931573D01*
X138222008Y-62931573D01*
G37*
X138222008Y-62931573D02*
X138079362Y-63275101D01*
X138079038Y-63647067D01*
X138206892Y-63956499D01*
X135766501Y-63956499D01*
X135475662Y-64014351D01*
X135229100Y-64179098D01*
X130088506Y-69319692D01*
X130028100Y-69307460D01*
X129128100Y-69307460D01*
X128892783Y-69351738D01*
X128676659Y-69490810D01*
X128531669Y-69703010D01*
X128480660Y-69954900D01*
X128480660Y-70454900D01*
X128524938Y-70690217D01*
X128664010Y-70906341D01*
X128733811Y-70954034D01*
X128676659Y-70990810D01*
X128531669Y-71203010D01*
X128480660Y-71454900D01*
X128480660Y-71954900D01*
X128524938Y-72190217D01*
X128664010Y-72406341D01*
X128818100Y-72511626D01*
X128818100Y-75046998D01*
X126259399Y-77605699D01*
X126094652Y-77852261D01*
X126036800Y-78143100D01*
X126036800Y-79237998D01*
X126022653Y-79252145D01*
X125897300Y-79226760D01*
X124997300Y-79226760D01*
X124761983Y-79271038D01*
X124545859Y-79410110D01*
X124544740Y-79411748D01*
X124544740Y-78924200D01*
X124500462Y-78688883D01*
X124361390Y-78472759D01*
X124149190Y-78327769D01*
X123897300Y-78276760D01*
X123757500Y-78276760D01*
X123757500Y-75820996D01*
X123869817Y-75799862D01*
X124085941Y-75660790D01*
X124230931Y-75448590D01*
X124281940Y-75196700D01*
X124281940Y-73520300D01*
X124866660Y-73520300D01*
X124866660Y-75196700D01*
X124910938Y-75432017D01*
X125050010Y-75648141D01*
X125262210Y-75793131D01*
X125514100Y-75844140D01*
X127038100Y-75844140D01*
X127273417Y-75799862D01*
X127489541Y-75660790D01*
X127634531Y-75448590D01*
X127685540Y-75196700D01*
X127685540Y-73520300D01*
X127641262Y-73284983D01*
X127502190Y-73068859D01*
X127289990Y-72923869D01*
X127161100Y-72897768D01*
X127161100Y-71960222D01*
X127210938Y-71840199D01*
X127211262Y-71468233D01*
X127161100Y-71346831D01*
X127161100Y-71314852D01*
X127185538Y-71255999D01*
X127185862Y-70884033D01*
X127177121Y-70862878D01*
X127261738Y-70659099D01*
X127262062Y-70287133D01*
X127120017Y-69943357D01*
X126857227Y-69680108D01*
X126513699Y-69537462D01*
X126141733Y-69537138D01*
X125797957Y-69679183D01*
X125534708Y-69941973D01*
X125392062Y-70285501D01*
X125391858Y-70519283D01*
X125391099Y-70523100D01*
X125391100Y-70523105D01*
X125391100Y-70701209D01*
X125315862Y-70882401D01*
X125315538Y-71254367D01*
X125372323Y-71391798D01*
X125341262Y-71466601D01*
X125340938Y-71838567D01*
X125391100Y-71959969D01*
X125391100Y-72896004D01*
X125278783Y-72917138D01*
X125062659Y-73056210D01*
X124917669Y-73268410D01*
X124866660Y-73520300D01*
X124281940Y-73520300D01*
X124237662Y-73284983D01*
X124098590Y-73068859D01*
X123886390Y-72923869D01*
X123757500Y-72897768D01*
X123757500Y-72286680D01*
X124222187Y-71821992D01*
X124222190Y-71821990D01*
X124414033Y-71534875D01*
X124421806Y-71495800D01*
X124436987Y-71419479D01*
X124531238Y-71192499D01*
X124531562Y-70820533D01*
X124527599Y-70810942D01*
X124632838Y-70557499D01*
X124633162Y-70185533D01*
X124574820Y-70044335D01*
X124620138Y-69935199D01*
X124620462Y-69563233D01*
X124570300Y-69441831D01*
X124570300Y-69342000D01*
X124502933Y-69003325D01*
X124475259Y-68961908D01*
X124666842Y-68833896D01*
X124935300Y-68432120D01*
X125203758Y-68833896D01*
X125654093Y-69134800D01*
X126185300Y-69240464D01*
X126716507Y-69134800D01*
X127166842Y-68833896D01*
X127467746Y-68383561D01*
X127573410Y-67852354D01*
X127573410Y-66259646D01*
X127467746Y-65728439D01*
X127166842Y-65278104D01*
X126716507Y-64977200D01*
X126185300Y-64871536D01*
X125654093Y-64977200D01*
X125203758Y-65278104D01*
X124935300Y-65679880D01*
X124666842Y-65278104D01*
X124216507Y-64977200D01*
X123685300Y-64871536D01*
X123154093Y-64977200D01*
X122703758Y-65278104D01*
X122402854Y-65728439D01*
X122297190Y-66259646D01*
X122297190Y-67852354D01*
X122402854Y-68383561D01*
X122703758Y-68833896D01*
X122895341Y-68961908D01*
X122867667Y-69003325D01*
X122800300Y-69342000D01*
X122800300Y-69441578D01*
X122750462Y-69561601D01*
X122750138Y-69933567D01*
X122808480Y-70074765D01*
X122792693Y-70112784D01*
X122778767Y-70133625D01*
X122773920Y-70157994D01*
X122763162Y-70183901D01*
X122763137Y-70212200D01*
X122711399Y-70472300D01*
X122711400Y-70472305D01*
X122711400Y-70698878D01*
X122661562Y-70818901D01*
X122661509Y-70879511D01*
X122246710Y-71294310D01*
X122054867Y-71581425D01*
X122050016Y-71605811D01*
X121987499Y-71920100D01*
X121987500Y-71920105D01*
X121987500Y-72896004D01*
X121875183Y-72917138D01*
X121659059Y-73056210D01*
X121514069Y-73268410D01*
X121463060Y-73520300D01*
X121463060Y-75196700D01*
X121507338Y-75432017D01*
X121646410Y-75648141D01*
X121858610Y-75793131D01*
X121987500Y-75819232D01*
X121987500Y-78816195D01*
X121987499Y-78816200D01*
X122036761Y-79063850D01*
X122054867Y-79154875D01*
X122201948Y-79374999D01*
X122246710Y-79441990D01*
X122349860Y-79545140D01*
X122349860Y-79724200D01*
X122394138Y-79959517D01*
X122533210Y-80175641D01*
X122745410Y-80320631D01*
X122997300Y-80371640D01*
X123897300Y-80371640D01*
X124132617Y-80327362D01*
X124348741Y-80188290D01*
X124349860Y-80186652D01*
X124349860Y-80674200D01*
X124394138Y-80909517D01*
X124533210Y-81125641D01*
X124745410Y-81270631D01*
X124997300Y-81321640D01*
X125897300Y-81321640D01*
X126132617Y-81277362D01*
X126348741Y-81138290D01*
X126493731Y-80926090D01*
X126501911Y-80885695D01*
X126612801Y-80811601D01*
X127334201Y-80090201D01*
X127446558Y-79922046D01*
X127446558Y-80266365D01*
X127386588Y-80356116D01*
X127300800Y-80787400D01*
X127300800Y-82155793D01*
X121538429Y-82181701D01*
X121489064Y-82191929D01*
X121447568Y-82220557D01*
X121420479Y-82263073D01*
X121412000Y-82308700D01*
X121412000Y-97788100D01*
X120887100Y-97263200D01*
X120887100Y-71983600D01*
X120736610Y-71227035D01*
X120308050Y-70585650D01*
X117270950Y-67548550D01*
X116629565Y-67119990D01*
X115873000Y-66969500D01*
X110428300Y-66969500D01*
X109671734Y-67119990D01*
X109052551Y-67533716D01*
X108395900Y-67403100D01*
X102450900Y-67403100D01*
X102003969Y-67492000D01*
X100799900Y-67492000D01*
X100043335Y-67642490D01*
X99409854Y-68065769D01*
X99308565Y-67998090D01*
X98552000Y-67847600D01*
X98158300Y-67847600D01*
X97401735Y-67998090D01*
X96760350Y-68426650D01*
X96659190Y-68578046D01*
X96649452Y-68526293D01*
X96510380Y-68310169D01*
X96298180Y-68165179D01*
X96046290Y-68114170D01*
X94047310Y-68114170D01*
X93811993Y-68158448D01*
X93595869Y-68297520D01*
X93450879Y-68509720D01*
X93399870Y-68761610D01*
X93399870Y-70760590D01*
X93444148Y-70995907D01*
X93583220Y-71212031D01*
X93795420Y-71357021D01*
X94047310Y-71408030D01*
X96046290Y-71408030D01*
X96281607Y-71363752D01*
X96497731Y-71224680D01*
X96631226Y-71029303D01*
X96760350Y-71222550D01*
X97401735Y-71651110D01*
X98158300Y-71801600D01*
X98398558Y-71801600D01*
X98590100Y-71839700D01*
X99346666Y-71689210D01*
X99498150Y-71587991D01*
X99649635Y-71689210D01*
X100406200Y-71839700D01*
X101162765Y-71689210D01*
X101526754Y-71446000D01*
X102362000Y-71446000D01*
X102808931Y-71357100D01*
X107726502Y-71357100D01*
X107917334Y-71484610D01*
X108673900Y-71635100D01*
X109716700Y-71635100D01*
X110473265Y-71484610D01*
X111114650Y-71056050D01*
X111247200Y-70923500D01*
X115054100Y-70923500D01*
X116933100Y-72802500D01*
X116933100Y-76543488D01*
X116707565Y-76392790D01*
X115951000Y-76242300D01*
X112738247Y-76242300D01*
X112674400Y-76229600D01*
X111917835Y-76380090D01*
X111413947Y-76716778D01*
X110929065Y-76392790D01*
X110172500Y-76242300D01*
X107873800Y-76242300D01*
X107117235Y-76392790D01*
X106475850Y-76821350D01*
X106047290Y-77462735D01*
X105896800Y-78219300D01*
X106047290Y-78975865D01*
X106475850Y-79617250D01*
X107117235Y-80045810D01*
X107873800Y-80196300D01*
X110070205Y-80196300D01*
X110197900Y-80221700D01*
X110954465Y-80071210D01*
X111461507Y-79732415D01*
X111930535Y-80045810D01*
X112687100Y-80196300D01*
X115132100Y-80196300D01*
X116933100Y-81997300D01*
X116933100Y-98082100D01*
X117083590Y-98838665D01*
X117512150Y-99480050D01*
X119912450Y-101880350D01*
X120553835Y-102308910D01*
X121310400Y-102459400D01*
X127971800Y-102459400D01*
X128180150Y-102667750D01*
X128821535Y-103096310D01*
X129578100Y-103246800D01*
X192163700Y-103246800D01*
X192920265Y-103096310D01*
X193561650Y-102667750D01*
X194515100Y-101714300D01*
X209156300Y-101714300D01*
X209205710Y-101704294D01*
X209247335Y-101675853D01*
X209274615Y-101633459D01*
X209283300Y-101586972D01*
X209281082Y-100727930D01*
X209490501Y-100588001D01*
X209602800Y-100475702D01*
X209602800Y-114772598D01*
X209057398Y-115318000D01*
X206469388Y-115318000D01*
X206759251Y-115028643D01*
X206993433Y-114464670D01*
X206993965Y-113854009D01*
X206760768Y-113289629D01*
X206329343Y-112857449D01*
X205765370Y-112623267D01*
X205154709Y-112622735D01*
X204590329Y-112855932D01*
X204208412Y-113237182D01*
X203829343Y-112857449D01*
X203265370Y-112623267D01*
X202654709Y-112622735D01*
X202090329Y-112855932D01*
X201658149Y-113287357D01*
X201423967Y-113851330D01*
X201423435Y-114461991D01*
X201656632Y-115026371D01*
X201947752Y-115318000D01*
X191195802Y-115318000D01*
X188780822Y-112903020D01*
X188780862Y-112857533D01*
X188720109Y-112710500D01*
X198310500Y-112710500D01*
X198601339Y-112652648D01*
X198847901Y-112487901D01*
X201663280Y-109672522D01*
X201708767Y-109672562D01*
X202052543Y-109530517D01*
X202315792Y-109267727D01*
X202458438Y-108924199D01*
X202458762Y-108552233D01*
X202356087Y-108303739D01*
X202699696Y-107960728D01*
X202911469Y-107450724D01*
X202911951Y-106898499D01*
X202888730Y-106842299D01*
X203144743Y-106736517D01*
X203203362Y-106678000D01*
X205050537Y-106678000D01*
X205082673Y-106710192D01*
X205402817Y-106843128D01*
X205380831Y-106896076D01*
X205380349Y-107448301D01*
X205591231Y-107958674D01*
X205981372Y-108349496D01*
X206491376Y-108561269D01*
X207043601Y-108561751D01*
X207553974Y-108350869D01*
X207944796Y-107960728D01*
X208156569Y-107450724D01*
X208157051Y-106898499D01*
X207946169Y-106388126D01*
X207556028Y-105997304D01*
X207378241Y-105923480D01*
X207553974Y-105850869D01*
X207944796Y-105460728D01*
X208156569Y-104950724D01*
X208157051Y-104398499D01*
X207946169Y-103888126D01*
X207556028Y-103497304D01*
X207046024Y-103285531D01*
X206493799Y-103285049D01*
X205983426Y-103495931D01*
X205592604Y-103886072D01*
X205380831Y-104396076D01*
X205380349Y-104948301D01*
X205399463Y-104994560D01*
X205084057Y-105124883D01*
X205050882Y-105158000D01*
X203152907Y-105158000D01*
X203146127Y-105151208D01*
X202874973Y-105038615D01*
X202911469Y-104950724D01*
X202911951Y-104398499D01*
X202701069Y-103888126D01*
X202310928Y-103497304D01*
X201800924Y-103285531D01*
X201248699Y-103285049D01*
X200738326Y-103495931D01*
X200347504Y-103886072D01*
X200135731Y-104396076D01*
X200135249Y-104948301D01*
X200346131Y-105458674D01*
X200736272Y-105849496D01*
X200914059Y-105923320D01*
X200738326Y-105995931D01*
X200347504Y-106386072D01*
X200135731Y-106896076D01*
X200135249Y-107448301D01*
X200346131Y-107958674D01*
X200691071Y-108304216D01*
X200588762Y-108550601D01*
X200588721Y-108597477D01*
X197995698Y-111190500D01*
X197300502Y-111190500D01*
X198818480Y-109672522D01*
X198863967Y-109672562D01*
X199207743Y-109530517D01*
X199470992Y-109267727D01*
X199613638Y-108924199D01*
X199613962Y-108552233D01*
X199511287Y-108303739D01*
X199854896Y-107960728D01*
X200066669Y-107450724D01*
X200067151Y-106898499D01*
X199856269Y-106388126D01*
X199466128Y-105997304D01*
X199288341Y-105923480D01*
X199464074Y-105850869D01*
X199854896Y-105460728D01*
X200066669Y-104950724D01*
X200067151Y-104398499D01*
X199856269Y-103888126D01*
X199466128Y-103497304D01*
X198956124Y-103285531D01*
X198403899Y-103285049D01*
X197893526Y-103495931D01*
X197502704Y-103886072D01*
X197290931Y-104396076D01*
X197290449Y-104948301D01*
X197501331Y-105458674D01*
X197891472Y-105849496D01*
X198069259Y-105923320D01*
X197893526Y-105995931D01*
X197502704Y-106386072D01*
X197290931Y-106896076D01*
X197290449Y-107448301D01*
X197501331Y-107958674D01*
X197846271Y-108304216D01*
X197743962Y-108550601D01*
X197743921Y-108597477D01*
X195925598Y-110415800D01*
X195205002Y-110415800D01*
X195960980Y-109659822D01*
X196006467Y-109659862D01*
X196350243Y-109517817D01*
X196613492Y-109255027D01*
X196756138Y-108911499D01*
X196756462Y-108539533D01*
X196661210Y-108309006D01*
X197010096Y-107960728D01*
X197221869Y-107450724D01*
X197222351Y-106898499D01*
X197011469Y-106388126D01*
X196621328Y-105997304D01*
X196443541Y-105923480D01*
X196619274Y-105850869D01*
X197010096Y-105460728D01*
X197221869Y-104950724D01*
X197222351Y-104398499D01*
X197011469Y-103888126D01*
X196621328Y-103497304D01*
X196111324Y-103285531D01*
X195559099Y-103285049D01*
X195048726Y-103495931D01*
X194657904Y-103886072D01*
X194446131Y-104396076D01*
X194445649Y-104948301D01*
X194656531Y-105458674D01*
X195046672Y-105849496D01*
X195224459Y-105923320D01*
X195048726Y-105995931D01*
X194657904Y-106386072D01*
X194446131Y-106896076D01*
X194445649Y-107448301D01*
X194656531Y-107958674D01*
X194988777Y-108291500D01*
X194886462Y-108537901D01*
X194886421Y-108584777D01*
X193842798Y-109628400D01*
X193360757Y-109628400D01*
X193505443Y-109568617D01*
X193768692Y-109305827D01*
X193911338Y-108962299D01*
X193911662Y-108590333D01*
X193801550Y-108323840D01*
X194165296Y-107960728D01*
X194377069Y-107450724D01*
X194377551Y-106898499D01*
X194166669Y-106388126D01*
X193776528Y-105997304D01*
X193598741Y-105923480D01*
X193774474Y-105850869D01*
X194165296Y-105460728D01*
X194377069Y-104950724D01*
X194377551Y-104398499D01*
X194166669Y-103888126D01*
X193776528Y-103497304D01*
X193266524Y-103285531D01*
X192714299Y-103285049D01*
X192203926Y-103495931D01*
X191813104Y-103886072D01*
X191601331Y-104396076D01*
X191600849Y-104948301D01*
X191811731Y-105458674D01*
X192201872Y-105849496D01*
X192379659Y-105923320D01*
X192203926Y-105995931D01*
X191813104Y-106386072D01*
X191601331Y-106896076D01*
X191600849Y-107448301D01*
X191811731Y-107958674D01*
X192158874Y-108306423D01*
X192041662Y-108588701D01*
X192041621Y-108635577D01*
X191836198Y-108841000D01*
X169485163Y-108841000D01*
X169453027Y-108808808D01*
X169109499Y-108666162D01*
X168737533Y-108665838D01*
X168393757Y-108807883D01*
X168360582Y-108841000D01*
X147539541Y-108841000D01*
X147494727Y-108796108D01*
X147151199Y-108653462D01*
X146779233Y-108653138D01*
X146435457Y-108795183D01*
X146389560Y-108841000D01*
X125962196Y-108841000D01*
X125892027Y-108770708D01*
X125663871Y-108675969D01*
X123934622Y-106946720D01*
X123934662Y-106901233D01*
X123792617Y-106557457D01*
X123529827Y-106294208D01*
X123186299Y-106151562D01*
X122827900Y-106151250D01*
X122827900Y-106073073D01*
X122876840Y-105831400D01*
X122876840Y-105061601D01*
X125480249Y-105061601D01*
X125691131Y-105571974D01*
X126081272Y-105962796D01*
X126259059Y-106036620D01*
X126083326Y-106109231D01*
X125692504Y-106499372D01*
X125480731Y-107009376D01*
X125480249Y-107561601D01*
X125691131Y-108071974D01*
X126081272Y-108462796D01*
X126591276Y-108674569D01*
X127143501Y-108675051D01*
X127653874Y-108464169D01*
X128044696Y-108074028D01*
X128243828Y-107594466D01*
X128441131Y-108071974D01*
X128831272Y-108462796D01*
X129341276Y-108674569D01*
X129893501Y-108675051D01*
X130403874Y-108464169D01*
X130794696Y-108074028D01*
X131006469Y-107564024D01*
X131006951Y-107011799D01*
X130796069Y-106501426D01*
X130405928Y-106110604D01*
X130228141Y-106036780D01*
X130403874Y-105964169D01*
X130794696Y-105574028D01*
X131006469Y-105064024D01*
X131006471Y-105061601D01*
X131010249Y-105061601D01*
X131221131Y-105571974D01*
X131611272Y-105962796D01*
X131789059Y-106036620D01*
X131613326Y-106109231D01*
X131222504Y-106499372D01*
X131010731Y-107009376D01*
X131010249Y-107561601D01*
X131221131Y-108071974D01*
X131611272Y-108462796D01*
X132121276Y-108674569D01*
X132673501Y-108675051D01*
X133183874Y-108464169D01*
X133574696Y-108074028D01*
X133768816Y-107606537D01*
X133961131Y-108071974D01*
X134351272Y-108462796D01*
X134861276Y-108674569D01*
X135413501Y-108675051D01*
X135923874Y-108464169D01*
X136314696Y-108074028D01*
X136526469Y-107564024D01*
X136526945Y-107018224D01*
X136570467Y-107018262D01*
X136914243Y-106876217D01*
X137011029Y-106779600D01*
X138845437Y-106779600D01*
X138877573Y-106811792D01*
X139214655Y-106951761D01*
X139190731Y-107009376D01*
X139190249Y-107561601D01*
X139401131Y-108071974D01*
X139791272Y-108462796D01*
X140301276Y-108674569D01*
X140853501Y-108675051D01*
X141363874Y-108464169D01*
X141754696Y-108074028D01*
X141966469Y-107564024D01*
X141966951Y-107011799D01*
X141756069Y-106501426D01*
X141365928Y-106110604D01*
X141188141Y-106036780D01*
X141363874Y-105964169D01*
X141754696Y-105574028D01*
X141966469Y-105064024D01*
X141966475Y-105056501D01*
X147286749Y-105056501D01*
X147497631Y-105566874D01*
X147887772Y-105957696D01*
X148065559Y-106031520D01*
X147889826Y-106104131D01*
X147499004Y-106494272D01*
X147287231Y-107004276D01*
X147286749Y-107556501D01*
X147497631Y-108066874D01*
X147887772Y-108457696D01*
X148397776Y-108669469D01*
X148950001Y-108669951D01*
X149460374Y-108459069D01*
X149851196Y-108068928D01*
X150062969Y-107558924D01*
X150063451Y-107006699D01*
X149852569Y-106496326D01*
X149462428Y-106105504D01*
X149284641Y-106031680D01*
X149460374Y-105959069D01*
X149851196Y-105568928D01*
X150062969Y-105058924D01*
X150062971Y-105056501D01*
X150086749Y-105056501D01*
X150297631Y-105566874D01*
X150687772Y-105957696D01*
X150865559Y-106031520D01*
X150689826Y-106104131D01*
X150299004Y-106494272D01*
X150087231Y-107004276D01*
X150086749Y-107556501D01*
X150297631Y-108066874D01*
X150687772Y-108457696D01*
X151197776Y-108669469D01*
X151750001Y-108669951D01*
X152260374Y-108459069D01*
X152651196Y-108068928D01*
X152862969Y-107558924D01*
X152863451Y-107006699D01*
X152652569Y-106496326D01*
X152262428Y-106105504D01*
X152084641Y-106031680D01*
X152260374Y-105959069D01*
X152651196Y-105568928D01*
X152862969Y-105058924D01*
X152862971Y-105056501D01*
X152876749Y-105056501D01*
X153087631Y-105566874D01*
X153477772Y-105957696D01*
X153655559Y-106031520D01*
X153479826Y-106104131D01*
X153089004Y-106494272D01*
X152877231Y-107004276D01*
X152876749Y-107556501D01*
X153087631Y-108066874D01*
X153477772Y-108457696D01*
X153987776Y-108669469D01*
X154540001Y-108669951D01*
X155050374Y-108459069D01*
X155441196Y-108068928D01*
X155652969Y-107558924D01*
X155653451Y-107006699D01*
X155442569Y-106496326D01*
X155052428Y-106105504D01*
X154874641Y-106031680D01*
X155050374Y-105959069D01*
X155441196Y-105568928D01*
X155652969Y-105058924D01*
X155653014Y-105006501D01*
X155676749Y-105006501D01*
X155887631Y-105516874D01*
X156277772Y-105907696D01*
X156455559Y-105981520D01*
X156279826Y-106054131D01*
X155889004Y-106444272D01*
X155677231Y-106954276D01*
X155676749Y-107506501D01*
X155887631Y-108016874D01*
X156277772Y-108407696D01*
X156787776Y-108619469D01*
X157340001Y-108619951D01*
X157850374Y-108409069D01*
X158241196Y-108018928D01*
X158452969Y-107508924D01*
X158453442Y-106967430D01*
X158490667Y-106967462D01*
X158834443Y-106825417D01*
X158943951Y-106716100D01*
X160638637Y-106716100D01*
X160670773Y-106748292D01*
X161014301Y-106890938D01*
X161038608Y-106890959D01*
X161037231Y-106894276D01*
X161036749Y-107446501D01*
X161247631Y-107956874D01*
X161637772Y-108347696D01*
X162147776Y-108559469D01*
X162700001Y-108559951D01*
X163210374Y-108349069D01*
X163601196Y-107958928D01*
X163812969Y-107448924D01*
X163813451Y-106896699D01*
X163602569Y-106386326D01*
X163212428Y-105995504D01*
X163034641Y-105921680D01*
X163210374Y-105849069D01*
X163601196Y-105458928D01*
X163812969Y-104948924D01*
X163812973Y-104943501D01*
X169454049Y-104943501D01*
X169664931Y-105453874D01*
X170055072Y-105844696D01*
X170232859Y-105918520D01*
X170057126Y-105991131D01*
X169666304Y-106381272D01*
X169454531Y-106891276D01*
X169454049Y-107443501D01*
X169664931Y-107953874D01*
X170055072Y-108344696D01*
X170565076Y-108556469D01*
X171117301Y-108556951D01*
X171627674Y-108346069D01*
X172018496Y-107955928D01*
X172230269Y-107445924D01*
X172230751Y-106893699D01*
X172019869Y-106383326D01*
X171629728Y-105992504D01*
X171451941Y-105918680D01*
X171627674Y-105846069D01*
X172018496Y-105455928D01*
X172230269Y-104945924D01*
X172230271Y-104943501D01*
X172274049Y-104943501D01*
X172484931Y-105453874D01*
X172875072Y-105844696D01*
X173052859Y-105918520D01*
X172877126Y-105991131D01*
X172486304Y-106381272D01*
X172274531Y-106891276D01*
X172274049Y-107443501D01*
X172484931Y-107953874D01*
X172875072Y-108344696D01*
X173385076Y-108556469D01*
X173937301Y-108556951D01*
X174447674Y-108346069D01*
X174838496Y-107955928D01*
X175050269Y-107445924D01*
X175050751Y-106893699D01*
X174839869Y-106383326D01*
X174449728Y-105992504D01*
X174271941Y-105918680D01*
X174447674Y-105846069D01*
X174838496Y-105455928D01*
X175050269Y-104945924D01*
X175050271Y-104943501D01*
X175124049Y-104943501D01*
X175334931Y-105453874D01*
X175725072Y-105844696D01*
X175902859Y-105918520D01*
X175727126Y-105991131D01*
X175336304Y-106381272D01*
X175124531Y-106891276D01*
X175124049Y-107443501D01*
X175334931Y-107953874D01*
X175725072Y-108344696D01*
X176235076Y-108556469D01*
X176787301Y-108556951D01*
X177297674Y-108346069D01*
X177688496Y-107955928D01*
X177900269Y-107445924D01*
X177900751Y-106893699D01*
X177689869Y-106383326D01*
X177299728Y-105992504D01*
X177121941Y-105918680D01*
X177297674Y-105846069D01*
X177688496Y-105455928D01*
X177900269Y-104945924D01*
X177900271Y-104943501D01*
X177944049Y-104943501D01*
X178154931Y-105453874D01*
X178545072Y-105844696D01*
X178722859Y-105918520D01*
X178547126Y-105991131D01*
X178156304Y-106381272D01*
X177944531Y-106891276D01*
X177944049Y-107443501D01*
X178154931Y-107953874D01*
X178545072Y-108344696D01*
X179055076Y-108556469D01*
X179607301Y-108556951D01*
X180117674Y-108346069D01*
X180508496Y-107955928D01*
X180720269Y-107445924D01*
X180720751Y-106893699D01*
X180687182Y-106812456D01*
X180932443Y-106711117D01*
X181041951Y-106601800D01*
X183155737Y-106601800D01*
X183187873Y-106633992D01*
X183443190Y-106740009D01*
X183384531Y-106881276D01*
X183384049Y-107433501D01*
X183594931Y-107943874D01*
X183985072Y-108334696D01*
X184495076Y-108546469D01*
X185047301Y-108546951D01*
X185557674Y-108336069D01*
X185948496Y-107945928D01*
X186160269Y-107435924D01*
X186160751Y-106883699D01*
X185949869Y-106373326D01*
X185559728Y-105982504D01*
X185381941Y-105908680D01*
X185557674Y-105836069D01*
X185948496Y-105445928D01*
X186160269Y-104935924D01*
X186160751Y-104383699D01*
X185949869Y-103873326D01*
X185559728Y-103482504D01*
X185049724Y-103270731D01*
X184497499Y-103270249D01*
X183987126Y-103481131D01*
X183596304Y-103871272D01*
X183384531Y-104381276D01*
X183384049Y-104933501D01*
X183396294Y-104963137D01*
X183189257Y-105048683D01*
X183156082Y-105081800D01*
X180827844Y-105081800D01*
X180687966Y-105023717D01*
X180720269Y-104945924D01*
X180720751Y-104393699D01*
X180509869Y-103883326D01*
X180119728Y-103492504D01*
X179609724Y-103280731D01*
X179057499Y-103280249D01*
X178547126Y-103491131D01*
X178156304Y-103881272D01*
X177944531Y-104391276D01*
X177944049Y-104943501D01*
X177900271Y-104943501D01*
X177900751Y-104393699D01*
X177689869Y-103883326D01*
X177299728Y-103492504D01*
X176789724Y-103280731D01*
X176237499Y-103280249D01*
X175727126Y-103491131D01*
X175336304Y-103881272D01*
X175124531Y-104391276D01*
X175124049Y-104943501D01*
X175050271Y-104943501D01*
X175050751Y-104393699D01*
X174839869Y-103883326D01*
X174449728Y-103492504D01*
X173939724Y-103280731D01*
X173387499Y-103280249D01*
X172877126Y-103491131D01*
X172486304Y-103881272D01*
X172274531Y-104391276D01*
X172274049Y-104943501D01*
X172230271Y-104943501D01*
X172230751Y-104393699D01*
X172019869Y-103883326D01*
X171629728Y-103492504D01*
X171119724Y-103280731D01*
X170567499Y-103280249D01*
X170057126Y-103491131D01*
X169666304Y-103881272D01*
X169454531Y-104391276D01*
X169454049Y-104943501D01*
X163812973Y-104943501D01*
X163813451Y-104396699D01*
X163602569Y-103886326D01*
X163212428Y-103495504D01*
X162702424Y-103283731D01*
X162150199Y-103283249D01*
X161639826Y-103494131D01*
X161249004Y-103884272D01*
X161037231Y-104394276D01*
X161036749Y-104946501D01*
X161067524Y-105020983D01*
X161015933Y-105020938D01*
X160672157Y-105162983D01*
X160638982Y-105196100D01*
X158729844Y-105196100D01*
X158492299Y-105097462D01*
X158416232Y-105097396D01*
X158452969Y-105008924D01*
X158453451Y-104456699D01*
X158242569Y-103946326D01*
X157852428Y-103555504D01*
X157342424Y-103343731D01*
X156790199Y-103343249D01*
X156279826Y-103554131D01*
X155889004Y-103944272D01*
X155677231Y-104454276D01*
X155676749Y-105006501D01*
X155653014Y-105006501D01*
X155653451Y-104506699D01*
X155442569Y-103996326D01*
X155052428Y-103605504D01*
X154542424Y-103393731D01*
X153990199Y-103393249D01*
X153479826Y-103604131D01*
X153089004Y-103994272D01*
X152877231Y-104504276D01*
X152876749Y-105056501D01*
X152862971Y-105056501D01*
X152863451Y-104506699D01*
X152652569Y-103996326D01*
X152262428Y-103605504D01*
X151752424Y-103393731D01*
X151200199Y-103393249D01*
X150689826Y-103604131D01*
X150299004Y-103994272D01*
X150087231Y-104504276D01*
X150086749Y-105056501D01*
X150062971Y-105056501D01*
X150063451Y-104506699D01*
X149852569Y-103996326D01*
X149462428Y-103605504D01*
X148952424Y-103393731D01*
X148400199Y-103393249D01*
X147889826Y-103604131D01*
X147499004Y-103994272D01*
X147287231Y-104504276D01*
X147286749Y-105056501D01*
X141966475Y-105056501D01*
X141966951Y-104511799D01*
X141756069Y-104001426D01*
X141365928Y-103610604D01*
X140855924Y-103398831D01*
X140303699Y-103398349D01*
X139793326Y-103609231D01*
X139402504Y-103999372D01*
X139190731Y-104509376D01*
X139190249Y-105061601D01*
X139203046Y-105092572D01*
X138878957Y-105226483D01*
X138845782Y-105259600D01*
X136840229Y-105259600D01*
X136572099Y-105148262D01*
X136491519Y-105148192D01*
X136526469Y-105064024D01*
X136526951Y-104511799D01*
X136316069Y-104001426D01*
X135925928Y-103610604D01*
X135415924Y-103398831D01*
X134863699Y-103398349D01*
X134353326Y-103609231D01*
X133962504Y-103999372D01*
X133768384Y-104466863D01*
X133576069Y-104001426D01*
X133185928Y-103610604D01*
X132675924Y-103398831D01*
X132123699Y-103398349D01*
X131613326Y-103609231D01*
X131222504Y-103999372D01*
X131010731Y-104509376D01*
X131010249Y-105061601D01*
X131006471Y-105061601D01*
X131006951Y-104511799D01*
X130796069Y-104001426D01*
X130405928Y-103610604D01*
X129895924Y-103398831D01*
X129343699Y-103398349D01*
X128833326Y-103609231D01*
X128442504Y-103999372D01*
X128243372Y-104478934D01*
X128046069Y-104001426D01*
X127655928Y-103610604D01*
X127145924Y-103398831D01*
X126593699Y-103398349D01*
X126083326Y-103609231D01*
X125692504Y-103999372D01*
X125480731Y-104509376D01*
X125480249Y-105061601D01*
X122876840Y-105061601D01*
X122876840Y-104531400D01*
X122832562Y-104296083D01*
X122693490Y-104079959D01*
X122481290Y-103934969D01*
X122229400Y-103883960D01*
X121529400Y-103883960D01*
X121294083Y-103928238D01*
X121077959Y-104067310D01*
X120932969Y-104279510D01*
X120930319Y-104292597D01*
X120793490Y-104079959D01*
X120581290Y-103934969D01*
X120329400Y-103883960D01*
X119629400Y-103883960D01*
X119394083Y-103928238D01*
X119177959Y-104067310D01*
X119032969Y-104279510D01*
X119004236Y-104421400D01*
X118870732Y-104421400D01*
X118844762Y-104283383D01*
X118705690Y-104067259D01*
X118493490Y-103922269D01*
X118241600Y-103871260D01*
X117541600Y-103871260D01*
X117306283Y-103915538D01*
X117090159Y-104054610D01*
X116945169Y-104266810D01*
X116894160Y-104518700D01*
X116894160Y-105818700D01*
X116938438Y-106054017D01*
X117077510Y-106270141D01*
X117289710Y-106415131D01*
X117541600Y-106466140D01*
X118241600Y-106466140D01*
X118476917Y-106421862D01*
X118693041Y-106282790D01*
X118838031Y-106070590D01*
X118864193Y-105941400D01*
X119002658Y-105941400D01*
X119026238Y-106066717D01*
X119165310Y-106282841D01*
X119270389Y-106354639D01*
X119277252Y-106389139D01*
X119441999Y-106635701D01*
X120032378Y-107226080D01*
X120032338Y-107271567D01*
X120174383Y-107615343D01*
X120328930Y-107770160D01*
X119692900Y-107770160D01*
X119457583Y-107814438D01*
X119241459Y-107953510D01*
X119096469Y-108165710D01*
X119066550Y-108313454D01*
X118905336Y-108314423D01*
X118882862Y-108194983D01*
X118743790Y-107978859D01*
X118531590Y-107833869D01*
X118279700Y-107782860D01*
X117579700Y-107782860D01*
X117344383Y-107827138D01*
X117128259Y-107966210D01*
X116983269Y-108178410D01*
X116932260Y-108430300D01*
X116932260Y-109730300D01*
X116976538Y-109965617D01*
X117115610Y-110181741D01*
X117327810Y-110326731D01*
X117579700Y-110377740D01*
X118279700Y-110377740D01*
X118515017Y-110333462D01*
X118731141Y-110194390D01*
X118876131Y-109982190D01*
X118906050Y-109834446D01*
X119067264Y-109833477D01*
X119089738Y-109952917D01*
X119228810Y-110169041D01*
X119292960Y-110212873D01*
X119340752Y-110453139D01*
X119505499Y-110699701D01*
X120057778Y-111251980D01*
X120057738Y-111297467D01*
X120199783Y-111641243D01*
X120328974Y-111770660D01*
X119731000Y-111770660D01*
X119495683Y-111814938D01*
X119279559Y-111954010D01*
X119134569Y-112166210D01*
X119104650Y-112313954D01*
X118943436Y-112314923D01*
X118920962Y-112195483D01*
X118781890Y-111979359D01*
X118569690Y-111834369D01*
X118317800Y-111783360D01*
X117617800Y-111783360D01*
X117382483Y-111827638D01*
X117166359Y-111966710D01*
X117021369Y-112178910D01*
X116970360Y-112430800D01*
X116970360Y-113730800D01*
X117014638Y-113966117D01*
X117153710Y-114182241D01*
X117365910Y-114327231D01*
X117617800Y-114378240D01*
X118317800Y-114378240D01*
X118553117Y-114333962D01*
X118769241Y-114194890D01*
X118914231Y-113982690D01*
X118944150Y-113834946D01*
X119105364Y-113833977D01*
X119127838Y-113953417D01*
X119266910Y-114169541D01*
X119331060Y-114213373D01*
X119378852Y-114453639D01*
X119543599Y-114700201D01*
X120121278Y-115277880D01*
X120121238Y-115323367D01*
X120263283Y-115667143D01*
X120405152Y-115809260D01*
X119756400Y-115809260D01*
X119521083Y-115853538D01*
X119304959Y-115992610D01*
X119159969Y-116204810D01*
X119135210Y-116327074D01*
X118981516Y-116328015D01*
X118959062Y-116208683D01*
X118819990Y-115992559D01*
X118607790Y-115847569D01*
X118355900Y-115796560D01*
X117655900Y-115796560D01*
X117420583Y-115840838D01*
X117204459Y-115979910D01*
X117059469Y-116192110D01*
X117008460Y-116444000D01*
X117008460Y-117744000D01*
X117052738Y-117979317D01*
X117191810Y-118195441D01*
X117404010Y-118340431D01*
X117655900Y-118391440D01*
X118355900Y-118391440D01*
X118591217Y-118347162D01*
X118807341Y-118208090D01*
X118952331Y-117995890D01*
X118982272Y-117848039D01*
X119125981Y-117847159D01*
X119153238Y-117992017D01*
X119292310Y-118208141D01*
X119346400Y-118245099D01*
X119346400Y-118264900D01*
X119404252Y-118555739D01*
X119568999Y-118802301D01*
X120032378Y-119265680D01*
X120032338Y-119311167D01*
X120174383Y-119654943D01*
X120437173Y-119918192D01*
X120780701Y-120060838D01*
X121070128Y-120061090D01*
X121061362Y-120082201D01*
X121061038Y-120454167D01*
X121203083Y-120797943D01*
X121465873Y-121061192D01*
X121809401Y-121203838D01*
X122181367Y-121204162D01*
X122302769Y-121154000D01*
X124131520Y-121154000D01*
X127999808Y-125022287D01*
X127999810Y-125022290D01*
X128286925Y-125214133D01*
X128343116Y-125225310D01*
X128625600Y-125281501D01*
X128625605Y-125281500D01*
X210565995Y-125281500D01*
X210566000Y-125281501D01*
X210848484Y-125225310D01*
X210904675Y-125214133D01*
X211191790Y-125022290D01*
X213439687Y-122774392D01*
X213439690Y-122774390D01*
X213631533Y-122487275D01*
X213660646Y-122340917D01*
X213698901Y-122148600D01*
X213698900Y-122148595D01*
X213698900Y-68059305D01*
X213698901Y-68059300D01*
X213631533Y-67720626D01*
X213631533Y-67720625D01*
X213439690Y-67433510D01*
X213439687Y-67433508D01*
X209299490Y-63293310D01*
X209177987Y-63212125D01*
X209012375Y-63101467D01*
X208956184Y-63090290D01*
X208673700Y-63034099D01*
X208673695Y-63034100D01*
X195429622Y-63034100D01*
X195309599Y-62984262D01*
X194937633Y-62983938D01*
X194869057Y-63012273D01*
X194801599Y-62984262D01*
X194429633Y-62983938D01*
X194335594Y-63022794D01*
X194242799Y-62984262D01*
X193870833Y-62983938D01*
X193527057Y-63125983D01*
X193263808Y-63388773D01*
X193121162Y-63732301D01*
X193120967Y-63956499D01*
X192258342Y-63956499D01*
X192349238Y-63737599D01*
X192349562Y-63365633D01*
X192207517Y-63021857D01*
X191944727Y-62758608D01*
X191823414Y-62708234D01*
X191811217Y-62696037D01*
X191801987Y-62673700D01*
X213881500Y-62673700D01*
X213881500Y-128347000D01*
X90347000Y-128347000D01*
X90347000Y-126074123D01*
X90686227Y-126895115D01*
X91567347Y-127777774D01*
X92719174Y-128256054D01*
X93966354Y-128257143D01*
X95119015Y-127780873D01*
X96001674Y-126899753D01*
X96479954Y-125747926D01*
X96481043Y-124500746D01*
X96004773Y-123348085D01*
X95123653Y-122465426D01*
X93971826Y-121987146D01*
X92724646Y-121986057D01*
X91571985Y-122462327D01*
X90689326Y-123343447D01*
X90347000Y-124167860D01*
X90347000Y-95793800D01*
X97249658Y-95793800D01*
X97249658Y-97093800D01*
X97300351Y-97363210D01*
X97459572Y-97610646D01*
X97702515Y-97776643D01*
X97990900Y-97835042D01*
X98851310Y-97835042D01*
X98881250Y-97879850D01*
X99522635Y-98308410D01*
X100279200Y-98458900D01*
X100627194Y-98458900D01*
X101383759Y-98308410D01*
X101434337Y-98274615D01*
X101541935Y-98346510D01*
X102298500Y-98497000D01*
X102490042Y-98458900D01*
X103877293Y-98458900D01*
X104051085Y-104382622D01*
X103917610Y-120604905D01*
X103857069Y-120693510D01*
X103806060Y-120945400D01*
X103806060Y-122945400D01*
X103850338Y-123180717D01*
X103895835Y-123251421D01*
X103886004Y-124446255D01*
X103895603Y-124495746D01*
X103923701Y-124537603D01*
X103945075Y-124551607D01*
X103944708Y-124551973D01*
X103802062Y-124895501D01*
X103801738Y-125267467D01*
X103943783Y-125611243D01*
X104206573Y-125874492D01*
X104550101Y-126017138D01*
X104922067Y-126017462D01*
X105265843Y-125875417D01*
X105529092Y-125612627D01*
X105579466Y-125491314D01*
X106472035Y-124598744D01*
X111623476Y-124649939D01*
X111603234Y-124698687D01*
X111020310Y-125281610D01*
X111014864Y-125289760D01*
X110221100Y-125289760D01*
X109985783Y-125334038D01*
X109769659Y-125473110D01*
X109624669Y-125685310D01*
X109573660Y-125937200D01*
X109573660Y-127187200D01*
X109617938Y-127422517D01*
X109757010Y-127638641D01*
X109969210Y-127783631D01*
X110221100Y-127834640D01*
X113071100Y-127834640D01*
X113306417Y-127790362D01*
X113522541Y-127651290D01*
X113667531Y-127439090D01*
X113718540Y-127187200D01*
X113718540Y-125937200D01*
X113674262Y-125701883D01*
X113535190Y-125485759D01*
X113352930Y-125361226D01*
X113380638Y-125294499D01*
X113380962Y-124922533D01*
X113275111Y-124666352D01*
X114235238Y-124675894D01*
X114284745Y-124666379D01*
X114326650Y-124638354D01*
X114354350Y-124596233D01*
X114363500Y-124548545D01*
X114274600Y-92722345D01*
X114264456Y-92672963D01*
X114235899Y-92631418D01*
X114193428Y-92604257D01*
X114147750Y-92595700D01*
X103954547Y-92583665D01*
X103951916Y-92571037D01*
X103923243Y-92529572D01*
X103880697Y-92502529D01*
X103806901Y-92497293D01*
X103431722Y-92583048D01*
X103390849Y-92583000D01*
X103341427Y-92592948D01*
X103299770Y-92621340D01*
X103272440Y-92663702D01*
X103263700Y-92710000D01*
X103263700Y-92722700D01*
X103273706Y-92772110D01*
X103302147Y-92813735D01*
X103344541Y-92841015D01*
X103418999Y-92846507D01*
X103460233Y-92837082D01*
X103712367Y-92837380D01*
X103761289Y-94504900D01*
X102336600Y-94504900D01*
X101580035Y-94655390D01*
X101523634Y-94693076D01*
X101417194Y-94621955D01*
X100660629Y-94471465D01*
X100492540Y-94504900D01*
X100279200Y-94504900D01*
X99522635Y-94655390D01*
X98928231Y-95052558D01*
X97990900Y-95052558D01*
X97721490Y-95103251D01*
X97474054Y-95262472D01*
X97308057Y-95505415D01*
X97249658Y-95793800D01*
X90347000Y-95793800D01*
X90347000Y-62673700D01*
X138480331Y-62673700D01*
X138222008Y-62931573D01*
G36*
X130241573Y-112755392D02*
X130585101Y-112898038D01*
X130957067Y-112898362D01*
X131300843Y-112756317D01*
X131346740Y-112710500D01*
X135992549Y-112710500D01*
X135567349Y-113134957D01*
X135333167Y-113698930D01*
X135332635Y-114309591D01*
X135565832Y-114873971D01*
X135997257Y-115306151D01*
X136561230Y-115540333D01*
X137171891Y-115540865D01*
X137736271Y-115307668D01*
X138118188Y-114926418D01*
X138497257Y-115306151D01*
X139061230Y-115540333D01*
X139671891Y-115540865D01*
X140236271Y-115307668D01*
X140668451Y-114876243D01*
X140902633Y-114312270D01*
X140903165Y-113701609D01*
X140669968Y-113137229D01*
X140243984Y-112710500D01*
X142392690Y-112710500D01*
X142387608Y-112715573D01*
X142244962Y-113059101D01*
X142244638Y-113431067D01*
X142386683Y-113774843D01*
X142419800Y-113808018D01*
X142419800Y-114604800D01*
X142477652Y-114895639D01*
X142642399Y-115142201D01*
X145309399Y-117809201D01*
X145555961Y-117973948D01*
X145846800Y-118031800D01*
X166810837Y-118031800D01*
X166842973Y-118063992D01*
X167186501Y-118206638D01*
X167558467Y-118206962D01*
X167902243Y-118064917D01*
X168160256Y-117807353D01*
X168636282Y-118288768D01*
X168638089Y-118289990D01*
X168639299Y-118291801D01*
X168760759Y-118372958D01*
X168881913Y-118454900D01*
X168884049Y-118455337D01*
X168885861Y-118456548D01*
X169029193Y-118485059D01*
X169172422Y-118514388D01*
X169174562Y-118513975D01*
X169176700Y-118514400D01*
X169608327Y-118514400D01*
X169640250Y-118520750D01*
X210064350Y-118520750D01*
X210355189Y-118462898D01*
X210601751Y-118298151D01*
X211928900Y-116971002D01*
X211928900Y-121782021D01*
X210199420Y-123511500D01*
X128992179Y-123511500D01*
X126301994Y-120821314D01*
X126444284Y-120793010D01*
X126500475Y-120781833D01*
X126787590Y-120589990D01*
X127270187Y-120107392D01*
X127270190Y-120107390D01*
X127405020Y-119905600D01*
X130020460Y-119905600D01*
X130020460Y-122105600D01*
X130064738Y-122340917D01*
X130203810Y-122557041D01*
X130416010Y-122702031D01*
X130667900Y-122753040D01*
X132467900Y-122753040D01*
X132703217Y-122708762D01*
X132919341Y-122569690D01*
X133064331Y-122357490D01*
X133115340Y-122105600D01*
X133115340Y-119905600D01*
X140620460Y-119905600D01*
X140620460Y-122105600D01*
X140664738Y-122340917D01*
X140803810Y-122557041D01*
X141016010Y-122702031D01*
X141267900Y-122753040D01*
X143067900Y-122753040D01*
X143303217Y-122708762D01*
X143519341Y-122569690D01*
X143664331Y-122357490D01*
X143715340Y-122105600D01*
X143715340Y-119905600D01*
X143672326Y-119677000D01*
X151864460Y-119677000D01*
X151864460Y-121877000D01*
X151908738Y-122112317D01*
X152047810Y-122328441D01*
X152260010Y-122473431D01*
X152511900Y-122524440D01*
X154311900Y-122524440D01*
X154547217Y-122480162D01*
X154763341Y-122341090D01*
X154908331Y-122128890D01*
X154959340Y-121877000D01*
X154959340Y-119677000D01*
X162464460Y-119677000D01*
X162464460Y-121877000D01*
X162508738Y-122112317D01*
X162647810Y-122328441D01*
X162860010Y-122473431D01*
X163111900Y-122524440D01*
X164911900Y-122524440D01*
X165147217Y-122480162D01*
X165363341Y-122341090D01*
X165508331Y-122128890D01*
X165559340Y-121877000D01*
X165559340Y-120185000D01*
X174102160Y-120185000D01*
X174102160Y-122385000D01*
X174146438Y-122620317D01*
X174285510Y-122836441D01*
X174497710Y-122981431D01*
X174749600Y-123032440D01*
X176549600Y-123032440D01*
X176784917Y-122988162D01*
X177001041Y-122849090D01*
X177146031Y-122636890D01*
X177197040Y-122385000D01*
X177197040Y-120185000D01*
X184702160Y-120185000D01*
X184702160Y-122385000D01*
X184746438Y-122620317D01*
X184885510Y-122836441D01*
X185097710Y-122981431D01*
X185349600Y-123032440D01*
X187149600Y-123032440D01*
X187384917Y-122988162D01*
X187601041Y-122849090D01*
X187746031Y-122636890D01*
X187797040Y-122385000D01*
X187797040Y-120185000D01*
X187773144Y-120058000D01*
X196111260Y-120058000D01*
X196111260Y-122258000D01*
X196155538Y-122493317D01*
X196294610Y-122709441D01*
X196506810Y-122854431D01*
X196758700Y-122905440D01*
X198558700Y-122905440D01*
X198794017Y-122861162D01*
X199010141Y-122722090D01*
X199155131Y-122509890D01*
X199206140Y-122258000D01*
X199206140Y-120058000D01*
X206711260Y-120058000D01*
X206711260Y-122258000D01*
X206755538Y-122493317D01*
X206894610Y-122709441D01*
X207106810Y-122854431D01*
X207358700Y-122905440D01*
X209158700Y-122905440D01*
X209394017Y-122861162D01*
X209610141Y-122722090D01*
X209755131Y-122509890D01*
X209806140Y-122258000D01*
X209806140Y-120058000D01*
X209761862Y-119822683D01*
X209622790Y-119606559D01*
X209410590Y-119461569D01*
X209158700Y-119410560D01*
X207358700Y-119410560D01*
X207123383Y-119454838D01*
X206907259Y-119593910D01*
X206762269Y-119806110D01*
X206711260Y-120058000D01*
X199206140Y-120058000D01*
X199161862Y-119822683D01*
X199022790Y-119606559D01*
X198810590Y-119461569D01*
X198558700Y-119410560D01*
X196758700Y-119410560D01*
X196523383Y-119454838D01*
X196307259Y-119593910D01*
X196162269Y-119806110D01*
X196111260Y-120058000D01*
X187773144Y-120058000D01*
X187752762Y-119949683D01*
X187613690Y-119733559D01*
X187401490Y-119588569D01*
X187149600Y-119537560D01*
X185349600Y-119537560D01*
X185114283Y-119581838D01*
X184898159Y-119720910D01*
X184753169Y-119933110D01*
X184702160Y-120185000D01*
X177197040Y-120185000D01*
X177152762Y-119949683D01*
X177013690Y-119733559D01*
X176801490Y-119588569D01*
X176549600Y-119537560D01*
X174749600Y-119537560D01*
X174514283Y-119581838D01*
X174298159Y-119720910D01*
X174153169Y-119933110D01*
X174102160Y-120185000D01*
X165559340Y-120185000D01*
X165559340Y-119677000D01*
X165515062Y-119441683D01*
X165375990Y-119225559D01*
X165163790Y-119080569D01*
X164911900Y-119029560D01*
X163111900Y-119029560D01*
X162876583Y-119073838D01*
X162660459Y-119212910D01*
X162515469Y-119425110D01*
X162464460Y-119677000D01*
X154959340Y-119677000D01*
X154915062Y-119441683D01*
X154775990Y-119225559D01*
X154563790Y-119080569D01*
X154311900Y-119029560D01*
X152511900Y-119029560D01*
X152276583Y-119073838D01*
X152060459Y-119212910D01*
X151915469Y-119425110D01*
X151864460Y-119677000D01*
X143672326Y-119677000D01*
X143671062Y-119670283D01*
X143531990Y-119454159D01*
X143319790Y-119309169D01*
X143067900Y-119258160D01*
X141267900Y-119258160D01*
X141032583Y-119302438D01*
X140816459Y-119441510D01*
X140671469Y-119653710D01*
X140620460Y-119905600D01*
X133115340Y-119905600D01*
X133071062Y-119670283D01*
X132931990Y-119454159D01*
X132719790Y-119309169D01*
X132467900Y-119258160D01*
X130667900Y-119258160D01*
X130432583Y-119302438D01*
X130216459Y-119441510D01*
X130071469Y-119653710D01*
X130020460Y-119905600D01*
X127405020Y-119905600D01*
X127462033Y-119820275D01*
X127514021Y-119558915D01*
X127529717Y-119555962D01*
X127745841Y-119416890D01*
X127890831Y-119204690D01*
X127941840Y-118952800D01*
X127941840Y-118252800D01*
X127897562Y-118017483D01*
X127758490Y-117801359D01*
X127546290Y-117656369D01*
X127533203Y-117653719D01*
X127745841Y-117516890D01*
X127890831Y-117304690D01*
X127941840Y-117052800D01*
X127941840Y-116352800D01*
X127897562Y-116117483D01*
X127758490Y-115901359D01*
X127546290Y-115756369D01*
X127404400Y-115727636D01*
X127404400Y-115643502D01*
X128059202Y-114988700D01*
X128710862Y-114988700D01*
X128729738Y-115089017D01*
X128868810Y-115305141D01*
X129081010Y-115450131D01*
X129332900Y-115501140D01*
X130432900Y-115501140D01*
X130668217Y-115456862D01*
X130884341Y-115317790D01*
X131029331Y-115105590D01*
X131080340Y-114853700D01*
X131080340Y-113603700D01*
X131036062Y-113368383D01*
X130896990Y-113152259D01*
X130684790Y-113007269D01*
X130432900Y-112956260D01*
X129332900Y-112956260D01*
X129097583Y-113000538D01*
X128881459Y-113139610D01*
X128736469Y-113351810D01*
X128712798Y-113468700D01*
X127744400Y-113468700D01*
X127453561Y-113526552D01*
X127206999Y-113691299D01*
X126106999Y-114791299D01*
X125942252Y-115037861D01*
X125884400Y-115328700D01*
X125884400Y-115726058D01*
X125759083Y-115749638D01*
X125542959Y-115888710D01*
X125397969Y-116100910D01*
X125346960Y-116352800D01*
X125346960Y-117052800D01*
X125391238Y-117288117D01*
X125530310Y-117504241D01*
X125742510Y-117649231D01*
X125755597Y-117651881D01*
X125542959Y-117788710D01*
X125397969Y-118000910D01*
X125346960Y-118252800D01*
X125346960Y-118952800D01*
X125370744Y-119079200D01*
X124815600Y-119079200D01*
X124476925Y-119146567D01*
X124189810Y-119338410D01*
X124189808Y-119338413D01*
X124144221Y-119384000D01*
X123972579Y-119384000D01*
X124023238Y-119261999D01*
X124023279Y-119215123D01*
X124768801Y-118469601D01*
X124933548Y-118223039D01*
X124991400Y-117932200D01*
X124991400Y-114589402D01*
X126870302Y-112710500D01*
X130196759Y-112710500D01*
X130241573Y-112755392D01*
X130241573Y-112755392D01*
G37*
X130241573Y-112755392D02*
X130585101Y-112898038D01*
X130957067Y-112898362D01*
X131300843Y-112756317D01*
X131346740Y-112710500D01*
X135992549Y-112710500D01*
X135567349Y-113134957D01*
X135333167Y-113698930D01*
X135332635Y-114309591D01*
X135565832Y-114873971D01*
X135997257Y-115306151D01*
X136561230Y-115540333D01*
X137171891Y-115540865D01*
X137736271Y-115307668D01*
X138118188Y-114926418D01*
X138497257Y-115306151D01*
X139061230Y-115540333D01*
X139671891Y-115540865D01*
X140236271Y-115307668D01*
X140668451Y-114876243D01*
X140902633Y-114312270D01*
X140903165Y-113701609D01*
X140669968Y-113137229D01*
X140243984Y-112710500D01*
X142392690Y-112710500D01*
X142387608Y-112715573D01*
X142244962Y-113059101D01*
X142244638Y-113431067D01*
X142386683Y-113774843D01*
X142419800Y-113808018D01*
X142419800Y-114604800D01*
X142477652Y-114895639D01*
X142642399Y-115142201D01*
X145309399Y-117809201D01*
X145555961Y-117973948D01*
X145846800Y-118031800D01*
X166810837Y-118031800D01*
X166842973Y-118063992D01*
X167186501Y-118206638D01*
X167558467Y-118206962D01*
X167902243Y-118064917D01*
X168160256Y-117807353D01*
X168636282Y-118288768D01*
X168638089Y-118289990D01*
X168639299Y-118291801D01*
X168760759Y-118372958D01*
X168881913Y-118454900D01*
X168884049Y-118455337D01*
X168885861Y-118456548D01*
X169029193Y-118485059D01*
X169172422Y-118514388D01*
X169174562Y-118513975D01*
X169176700Y-118514400D01*
X169608327Y-118514400D01*
X169640250Y-118520750D01*
X210064350Y-118520750D01*
X210355189Y-118462898D01*
X210601751Y-118298151D01*
X211928900Y-116971002D01*
X211928900Y-121782021D01*
X210199420Y-123511500D01*
X128992179Y-123511500D01*
X126301994Y-120821314D01*
X126444284Y-120793010D01*
X126500475Y-120781833D01*
X126787590Y-120589990D01*
X127270187Y-120107392D01*
X127270190Y-120107390D01*
X127405020Y-119905600D01*
X130020460Y-119905600D01*
X130020460Y-122105600D01*
X130064738Y-122340917D01*
X130203810Y-122557041D01*
X130416010Y-122702031D01*
X130667900Y-122753040D01*
X132467900Y-122753040D01*
X132703217Y-122708762D01*
X132919341Y-122569690D01*
X133064331Y-122357490D01*
X133115340Y-122105600D01*
X133115340Y-119905600D01*
X140620460Y-119905600D01*
X140620460Y-122105600D01*
X140664738Y-122340917D01*
X140803810Y-122557041D01*
X141016010Y-122702031D01*
X141267900Y-122753040D01*
X143067900Y-122753040D01*
X143303217Y-122708762D01*
X143519341Y-122569690D01*
X143664331Y-122357490D01*
X143715340Y-122105600D01*
X143715340Y-119905600D01*
X143672326Y-119677000D01*
X151864460Y-119677000D01*
X151864460Y-121877000D01*
X151908738Y-122112317D01*
X152047810Y-122328441D01*
X152260010Y-122473431D01*
X152511900Y-122524440D01*
X154311900Y-122524440D01*
X154547217Y-122480162D01*
X154763341Y-122341090D01*
X154908331Y-122128890D01*
X154959340Y-121877000D01*
X154959340Y-119677000D01*
X162464460Y-119677000D01*
X162464460Y-121877000D01*
X162508738Y-122112317D01*
X162647810Y-122328441D01*
X162860010Y-122473431D01*
X163111900Y-122524440D01*
X164911900Y-122524440D01*
X165147217Y-122480162D01*
X165363341Y-122341090D01*
X165508331Y-122128890D01*
X165559340Y-121877000D01*
X165559340Y-120185000D01*
X174102160Y-120185000D01*
X174102160Y-122385000D01*
X174146438Y-122620317D01*
X174285510Y-122836441D01*
X174497710Y-122981431D01*
X174749600Y-123032440D01*
X176549600Y-123032440D01*
X176784917Y-122988162D01*
X177001041Y-122849090D01*
X177146031Y-122636890D01*
X177197040Y-122385000D01*
X177197040Y-120185000D01*
X184702160Y-120185000D01*
X184702160Y-122385000D01*
X184746438Y-122620317D01*
X184885510Y-122836441D01*
X185097710Y-122981431D01*
X185349600Y-123032440D01*
X187149600Y-123032440D01*
X187384917Y-122988162D01*
X187601041Y-122849090D01*
X187746031Y-122636890D01*
X187797040Y-122385000D01*
X187797040Y-120185000D01*
X187773144Y-120058000D01*
X196111260Y-120058000D01*
X196111260Y-122258000D01*
X196155538Y-122493317D01*
X196294610Y-122709441D01*
X196506810Y-122854431D01*
X196758700Y-122905440D01*
X198558700Y-122905440D01*
X198794017Y-122861162D01*
X199010141Y-122722090D01*
X199155131Y-122509890D01*
X199206140Y-122258000D01*
X199206140Y-120058000D01*
X206711260Y-120058000D01*
X206711260Y-122258000D01*
X206755538Y-122493317D01*
X206894610Y-122709441D01*
X207106810Y-122854431D01*
X207358700Y-122905440D01*
X209158700Y-122905440D01*
X209394017Y-122861162D01*
X209610141Y-122722090D01*
X209755131Y-122509890D01*
X209806140Y-122258000D01*
X209806140Y-120058000D01*
X209761862Y-119822683D01*
X209622790Y-119606559D01*
X209410590Y-119461569D01*
X209158700Y-119410560D01*
X207358700Y-119410560D01*
X207123383Y-119454838D01*
X206907259Y-119593910D01*
X206762269Y-119806110D01*
X206711260Y-120058000D01*
X199206140Y-120058000D01*
X199161862Y-119822683D01*
X199022790Y-119606559D01*
X198810590Y-119461569D01*
X198558700Y-119410560D01*
X196758700Y-119410560D01*
X196523383Y-119454838D01*
X196307259Y-119593910D01*
X196162269Y-119806110D01*
X196111260Y-120058000D01*
X187773144Y-120058000D01*
X187752762Y-119949683D01*
X187613690Y-119733559D01*
X187401490Y-119588569D01*
X187149600Y-119537560D01*
X185349600Y-119537560D01*
X185114283Y-119581838D01*
X184898159Y-119720910D01*
X184753169Y-119933110D01*
X184702160Y-120185000D01*
X177197040Y-120185000D01*
X177152762Y-119949683D01*
X177013690Y-119733559D01*
X176801490Y-119588569D01*
X176549600Y-119537560D01*
X174749600Y-119537560D01*
X174514283Y-119581838D01*
X174298159Y-119720910D01*
X174153169Y-119933110D01*
X174102160Y-120185000D01*
X165559340Y-120185000D01*
X165559340Y-119677000D01*
X165515062Y-119441683D01*
X165375990Y-119225559D01*
X165163790Y-119080569D01*
X164911900Y-119029560D01*
X163111900Y-119029560D01*
X162876583Y-119073838D01*
X162660459Y-119212910D01*
X162515469Y-119425110D01*
X162464460Y-119677000D01*
X154959340Y-119677000D01*
X154915062Y-119441683D01*
X154775990Y-119225559D01*
X154563790Y-119080569D01*
X154311900Y-119029560D01*
X152511900Y-119029560D01*
X152276583Y-119073838D01*
X152060459Y-119212910D01*
X151915469Y-119425110D01*
X151864460Y-119677000D01*
X143672326Y-119677000D01*
X143671062Y-119670283D01*
X143531990Y-119454159D01*
X143319790Y-119309169D01*
X143067900Y-119258160D01*
X141267900Y-119258160D01*
X141032583Y-119302438D01*
X140816459Y-119441510D01*
X140671469Y-119653710D01*
X140620460Y-119905600D01*
X133115340Y-119905600D01*
X133071062Y-119670283D01*
X132931990Y-119454159D01*
X132719790Y-119309169D01*
X132467900Y-119258160D01*
X130667900Y-119258160D01*
X130432583Y-119302438D01*
X130216459Y-119441510D01*
X130071469Y-119653710D01*
X130020460Y-119905600D01*
X127405020Y-119905600D01*
X127462033Y-119820275D01*
X127514021Y-119558915D01*
X127529717Y-119555962D01*
X127745841Y-119416890D01*
X127890831Y-119204690D01*
X127941840Y-118952800D01*
X127941840Y-118252800D01*
X127897562Y-118017483D01*
X127758490Y-117801359D01*
X127546290Y-117656369D01*
X127533203Y-117653719D01*
X127745841Y-117516890D01*
X127890831Y-117304690D01*
X127941840Y-117052800D01*
X127941840Y-116352800D01*
X127897562Y-116117483D01*
X127758490Y-115901359D01*
X127546290Y-115756369D01*
X127404400Y-115727636D01*
X127404400Y-115643502D01*
X128059202Y-114988700D01*
X128710862Y-114988700D01*
X128729738Y-115089017D01*
X128868810Y-115305141D01*
X129081010Y-115450131D01*
X129332900Y-115501140D01*
X130432900Y-115501140D01*
X130668217Y-115456862D01*
X130884341Y-115317790D01*
X131029331Y-115105590D01*
X131080340Y-114853700D01*
X131080340Y-113603700D01*
X131036062Y-113368383D01*
X130896990Y-113152259D01*
X130684790Y-113007269D01*
X130432900Y-112956260D01*
X129332900Y-112956260D01*
X129097583Y-113000538D01*
X128881459Y-113139610D01*
X128736469Y-113351810D01*
X128712798Y-113468700D01*
X127744400Y-113468700D01*
X127453561Y-113526552D01*
X127206999Y-113691299D01*
X126106999Y-114791299D01*
X125942252Y-115037861D01*
X125884400Y-115328700D01*
X125884400Y-115726058D01*
X125759083Y-115749638D01*
X125542959Y-115888710D01*
X125397969Y-116100910D01*
X125346960Y-116352800D01*
X125346960Y-117052800D01*
X125391238Y-117288117D01*
X125530310Y-117504241D01*
X125742510Y-117649231D01*
X125755597Y-117651881D01*
X125542959Y-117788710D01*
X125397969Y-118000910D01*
X125346960Y-118252800D01*
X125346960Y-118952800D01*
X125370744Y-119079200D01*
X124815600Y-119079200D01*
X124476925Y-119146567D01*
X124189810Y-119338410D01*
X124189808Y-119338413D01*
X124144221Y-119384000D01*
X123972579Y-119384000D01*
X124023238Y-119261999D01*
X124023279Y-119215123D01*
X124768801Y-118469601D01*
X124933548Y-118223039D01*
X124991400Y-117932200D01*
X124991400Y-114589402D01*
X126870302Y-112710500D01*
X130196759Y-112710500D01*
X130241573Y-112755392D01*
G36*
X153114273Y-112742692D02*
X153457801Y-112885338D01*
X153829767Y-112885662D01*
X154173543Y-112743617D01*
X154206718Y-112710500D01*
X157607549Y-112710500D01*
X157411349Y-112906357D01*
X157177167Y-113470330D01*
X157176635Y-114080991D01*
X157409832Y-114645371D01*
X157841257Y-115077551D01*
X158405230Y-115311733D01*
X159015891Y-115312265D01*
X159580271Y-115079068D01*
X159962188Y-114697818D01*
X160341257Y-115077551D01*
X160905230Y-115311733D01*
X161515891Y-115312265D01*
X162080271Y-115079068D01*
X162512451Y-114647643D01*
X162746633Y-114083670D01*
X162747165Y-113473009D01*
X162513968Y-112908629D01*
X162316185Y-112710500D01*
X175357937Y-112710500D01*
X175390073Y-112742692D01*
X175733601Y-112885338D01*
X176105567Y-112885662D01*
X176449343Y-112743617D01*
X176482518Y-112710500D01*
X186971238Y-112710500D01*
X186910862Y-112855901D01*
X186910538Y-113227867D01*
X187052583Y-113571643D01*
X187315373Y-113834892D01*
X187658901Y-113977538D01*
X187705777Y-113977579D01*
X189871698Y-116143500D01*
X169837100Y-116143500D01*
X169822313Y-116146441D01*
X169474133Y-116146138D01*
X169130357Y-116288183D01*
X168961940Y-116456306D01*
X167115528Y-114588991D01*
X179414335Y-114588991D01*
X179647532Y-115153371D01*
X180078957Y-115585551D01*
X180642930Y-115819733D01*
X181253591Y-115820265D01*
X181817971Y-115587068D01*
X182199888Y-115205818D01*
X182578957Y-115585551D01*
X183142930Y-115819733D01*
X183753591Y-115820265D01*
X184317971Y-115587068D01*
X184750151Y-115155643D01*
X184984333Y-114591670D01*
X184984865Y-113981009D01*
X184751668Y-113416629D01*
X184320243Y-112984449D01*
X183756270Y-112750267D01*
X183145609Y-112749735D01*
X182581229Y-112982932D01*
X182199312Y-113364182D01*
X181820243Y-112984449D01*
X181256270Y-112750267D01*
X180645609Y-112749735D01*
X180081229Y-112982932D01*
X179649049Y-113414357D01*
X179414867Y-113978330D01*
X179414335Y-114588991D01*
X167115528Y-114588991D01*
X166746318Y-114215602D01*
X166746362Y-114165633D01*
X166604317Y-113821857D01*
X166341527Y-113558608D01*
X165997999Y-113415962D01*
X165626033Y-113415638D01*
X165282257Y-113557683D01*
X165019008Y-113820473D01*
X164876362Y-114164001D01*
X164876038Y-114535967D01*
X165018083Y-114879743D01*
X165280873Y-115142992D01*
X165624401Y-115285638D01*
X165666807Y-115285675D01*
X166845850Y-116478066D01*
X166844357Y-116478683D01*
X166811182Y-116511800D01*
X146161602Y-116511800D01*
X143939800Y-114289998D01*
X143939800Y-113808363D01*
X143971992Y-113776227D01*
X144114638Y-113432699D01*
X144114962Y-113060733D01*
X143972917Y-112716957D01*
X143966471Y-112710500D01*
X153082137Y-112710500D01*
X153114273Y-112742692D01*
X153114273Y-112742692D01*
G37*
X153114273Y-112742692D02*
X153457801Y-112885338D01*
X153829767Y-112885662D01*
X154173543Y-112743617D01*
X154206718Y-112710500D01*
X157607549Y-112710500D01*
X157411349Y-112906357D01*
X157177167Y-113470330D01*
X157176635Y-114080991D01*
X157409832Y-114645371D01*
X157841257Y-115077551D01*
X158405230Y-115311733D01*
X159015891Y-115312265D01*
X159580271Y-115079068D01*
X159962188Y-114697818D01*
X160341257Y-115077551D01*
X160905230Y-115311733D01*
X161515891Y-115312265D01*
X162080271Y-115079068D01*
X162512451Y-114647643D01*
X162746633Y-114083670D01*
X162747165Y-113473009D01*
X162513968Y-112908629D01*
X162316185Y-112710500D01*
X175357937Y-112710500D01*
X175390073Y-112742692D01*
X175733601Y-112885338D01*
X176105567Y-112885662D01*
X176449343Y-112743617D01*
X176482518Y-112710500D01*
X186971238Y-112710500D01*
X186910862Y-112855901D01*
X186910538Y-113227867D01*
X187052583Y-113571643D01*
X187315373Y-113834892D01*
X187658901Y-113977538D01*
X187705777Y-113977579D01*
X189871698Y-116143500D01*
X169837100Y-116143500D01*
X169822313Y-116146441D01*
X169474133Y-116146138D01*
X169130357Y-116288183D01*
X168961940Y-116456306D01*
X167115528Y-114588991D01*
X179414335Y-114588991D01*
X179647532Y-115153371D01*
X180078957Y-115585551D01*
X180642930Y-115819733D01*
X181253591Y-115820265D01*
X181817971Y-115587068D01*
X182199888Y-115205818D01*
X182578957Y-115585551D01*
X183142930Y-115819733D01*
X183753591Y-115820265D01*
X184317971Y-115587068D01*
X184750151Y-115155643D01*
X184984333Y-114591670D01*
X184984865Y-113981009D01*
X184751668Y-113416629D01*
X184320243Y-112984449D01*
X183756270Y-112750267D01*
X183145609Y-112749735D01*
X182581229Y-112982932D01*
X182199312Y-113364182D01*
X181820243Y-112984449D01*
X181256270Y-112750267D01*
X180645609Y-112749735D01*
X180081229Y-112982932D01*
X179649049Y-113414357D01*
X179414867Y-113978330D01*
X179414335Y-114588991D01*
X167115528Y-114588991D01*
X166746318Y-114215602D01*
X166746362Y-114165633D01*
X166604317Y-113821857D01*
X166341527Y-113558608D01*
X165997999Y-113415962D01*
X165626033Y-113415638D01*
X165282257Y-113557683D01*
X165019008Y-113820473D01*
X164876362Y-114164001D01*
X164876038Y-114535967D01*
X165018083Y-114879743D01*
X165280873Y-115142992D01*
X165624401Y-115285638D01*
X165666807Y-115285675D01*
X166845850Y-116478066D01*
X166844357Y-116478683D01*
X166811182Y-116511800D01*
X146161602Y-116511800D01*
X143939800Y-114289998D01*
X143939800Y-113808363D01*
X143971992Y-113776227D01*
X144114638Y-113432699D01*
X144114962Y-113060733D01*
X143972917Y-112716957D01*
X143966471Y-112710500D01*
X153082137Y-112710500D01*
X153114273Y-112742692D01*
G36*
X211928900Y-68425879D02*
X211928900Y-80145698D01*
X210183361Y-78400159D01*
X210354892Y-78228927D01*
X210497538Y-77885399D01*
X210497862Y-77513433D01*
X210355817Y-77169657D01*
X210093027Y-76906408D01*
X209749499Y-76763762D01*
X209702623Y-76763721D01*
X209033301Y-76094399D01*
X208786739Y-75929652D01*
X208495900Y-75871800D01*
X204962602Y-75871800D01*
X203712350Y-74621548D01*
X203712350Y-74348492D01*
X203837667Y-74324912D01*
X204053791Y-74185840D01*
X204198781Y-73973640D01*
X204221343Y-73862227D01*
X204239188Y-73957067D01*
X204378260Y-74173191D01*
X204590460Y-74318181D01*
X204842350Y-74369190D01*
X206142350Y-74369190D01*
X206377667Y-74324912D01*
X206593791Y-74185840D01*
X206738781Y-73973640D01*
X206789790Y-73721750D01*
X206789790Y-73449112D01*
X207271071Y-72967831D01*
X207435818Y-72721269D01*
X207493670Y-72430430D01*
X207493670Y-65759799D01*
X207435818Y-65468960D01*
X207271071Y-65222398D01*
X206852773Y-64804100D01*
X208307120Y-64804100D01*
X211928900Y-68425879D01*
X211928900Y-68425879D01*
G37*
X211928900Y-68425879D02*
X211928900Y-80145698D01*
X210183361Y-78400159D01*
X210354892Y-78228927D01*
X210497538Y-77885399D01*
X210497862Y-77513433D01*
X210355817Y-77169657D01*
X210093027Y-76906408D01*
X209749499Y-76763762D01*
X209702623Y-76763721D01*
X209033301Y-76094399D01*
X208786739Y-75929652D01*
X208495900Y-75871800D01*
X204962602Y-75871800D01*
X203712350Y-74621548D01*
X203712350Y-74348492D01*
X203837667Y-74324912D01*
X204053791Y-74185840D01*
X204198781Y-73973640D01*
X204221343Y-73862227D01*
X204239188Y-73957067D01*
X204378260Y-74173191D01*
X204590460Y-74318181D01*
X204842350Y-74369190D01*
X206142350Y-74369190D01*
X206377667Y-74324912D01*
X206593791Y-74185840D01*
X206738781Y-73973640D01*
X206789790Y-73721750D01*
X206789790Y-73449112D01*
X207271071Y-72967831D01*
X207435818Y-72721269D01*
X207493670Y-72430430D01*
X207493670Y-65759799D01*
X207435818Y-65468960D01*
X207271071Y-65222398D01*
X206852773Y-64804100D01*
X208307120Y-64804100D01*
X211928900Y-68425879D01*
G36*
X186730808Y-65563854D02*
X186429904Y-66014189D01*
X186324240Y-66545396D01*
X186324240Y-68138104D01*
X186429904Y-68669311D01*
X186730808Y-69119646D01*
X187181143Y-69420550D01*
X187712350Y-69526214D01*
X188243557Y-69420550D01*
X188693892Y-69119646D01*
X188962350Y-68717870D01*
X189230808Y-69119646D01*
X189507303Y-69304394D01*
X189441108Y-69370473D01*
X189298462Y-69714001D01*
X189298138Y-70085967D01*
X189440183Y-70429743D01*
X189473300Y-70462918D01*
X189473300Y-70754398D01*
X188302152Y-71925546D01*
X188163490Y-71710059D01*
X187951290Y-71565069D01*
X187699400Y-71514060D01*
X186699400Y-71514060D01*
X186464083Y-71558338D01*
X186247959Y-71697410D01*
X186102969Y-71909610D01*
X186051960Y-72161500D01*
X186051960Y-73761500D01*
X186096238Y-73996817D01*
X186235310Y-74212941D01*
X186323084Y-74272914D01*
X185979049Y-74616949D01*
X185949699Y-74604762D01*
X185577733Y-74604438D01*
X185233957Y-74746483D01*
X184970708Y-75009273D01*
X184828062Y-75352801D01*
X184827738Y-75724767D01*
X184969783Y-76068543D01*
X185155016Y-76254100D01*
X182210692Y-76254100D01*
X177859016Y-71811050D01*
X177848431Y-71783881D01*
X177378531Y-71047282D01*
X177124358Y-70782095D01*
X177118337Y-70708789D01*
X177042137Y-70442089D01*
X177037135Y-70432355D01*
X176999712Y-70244216D01*
X176755409Y-69878591D01*
X176389784Y-69634288D01*
X176348185Y-69626014D01*
X176825396Y-69307152D01*
X177146243Y-68826970D01*
X177258910Y-68260556D01*
X177258910Y-66664244D01*
X177146243Y-66097830D01*
X176825396Y-65617648D01*
X176614151Y-65476499D01*
X186861544Y-65476499D01*
X186730808Y-65563854D01*
X186730808Y-65563854D01*
G37*
X186730808Y-65563854D02*
X186429904Y-66014189D01*
X186324240Y-66545396D01*
X186324240Y-68138104D01*
X186429904Y-68669311D01*
X186730808Y-69119646D01*
X187181143Y-69420550D01*
X187712350Y-69526214D01*
X188243557Y-69420550D01*
X188693892Y-69119646D01*
X188962350Y-68717870D01*
X189230808Y-69119646D01*
X189507303Y-69304394D01*
X189441108Y-69370473D01*
X189298462Y-69714001D01*
X189298138Y-70085967D01*
X189440183Y-70429743D01*
X189473300Y-70462918D01*
X189473300Y-70754398D01*
X188302152Y-71925546D01*
X188163490Y-71710059D01*
X187951290Y-71565069D01*
X187699400Y-71514060D01*
X186699400Y-71514060D01*
X186464083Y-71558338D01*
X186247959Y-71697410D01*
X186102969Y-71909610D01*
X186051960Y-72161500D01*
X186051960Y-73761500D01*
X186096238Y-73996817D01*
X186235310Y-74212941D01*
X186323084Y-74272914D01*
X185979049Y-74616949D01*
X185949699Y-74604762D01*
X185577733Y-74604438D01*
X185233957Y-74746483D01*
X184970708Y-75009273D01*
X184828062Y-75352801D01*
X184827738Y-75724767D01*
X184969783Y-76068543D01*
X185155016Y-76254100D01*
X182210692Y-76254100D01*
X177859016Y-71811050D01*
X177848431Y-71783881D01*
X177378531Y-71047282D01*
X177124358Y-70782095D01*
X177118337Y-70708789D01*
X177042137Y-70442089D01*
X177037135Y-70432355D01*
X176999712Y-70244216D01*
X176755409Y-69878591D01*
X176389784Y-69634288D01*
X176348185Y-69626014D01*
X176825396Y-69307152D01*
X177146243Y-68826970D01*
X177258910Y-68260556D01*
X177258910Y-66664244D01*
X177146243Y-66097830D01*
X176825396Y-65617648D01*
X176614151Y-65476499D01*
X186861544Y-65476499D01*
X186730808Y-65563854D01*
G36*
X137029358Y-65633704D02*
X136728454Y-66084039D01*
X136622790Y-66615246D01*
X136622790Y-68207954D01*
X136728454Y-68739161D01*
X137029358Y-69189496D01*
X137479693Y-69490400D01*
X138010900Y-69596064D01*
X138542107Y-69490400D01*
X138992442Y-69189496D01*
X139280900Y-68757788D01*
X139569358Y-69189496D01*
X140019693Y-69490400D01*
X140550900Y-69596064D01*
X140898626Y-69526897D01*
X140898438Y-69743067D01*
X141040483Y-70086843D01*
X141303273Y-70350092D01*
X141646801Y-70492738D01*
X142018767Y-70493062D01*
X142362543Y-70351017D01*
X142381593Y-70332000D01*
X146174021Y-70332000D01*
X146297210Y-70523441D01*
X146509410Y-70668431D01*
X146761300Y-70719440D01*
X148361300Y-70719440D01*
X148596617Y-70675162D01*
X148812741Y-70536090D01*
X148952190Y-70332000D01*
X149045800Y-70332000D01*
X149336639Y-70274148D01*
X149583201Y-70109401D01*
X151642001Y-68050601D01*
X151806748Y-67804039D01*
X151864600Y-67513200D01*
X151864600Y-66284963D01*
X151896792Y-66252827D01*
X152039438Y-65909299D01*
X152039762Y-65537333D01*
X152014626Y-65476499D01*
X154385949Y-65476499D01*
X154174704Y-65617648D01*
X153853857Y-66097830D01*
X153741190Y-66664244D01*
X153741190Y-68260556D01*
X153853857Y-68826970D01*
X154174704Y-69307152D01*
X154292450Y-69385827D01*
X153963745Y-69451211D01*
X153937216Y-69456488D01*
X153571590Y-69700791D01*
X153241391Y-70030991D01*
X152997088Y-70396616D01*
X152987653Y-70444047D01*
X152908516Y-70459788D01*
X152542891Y-70704090D01*
X151907891Y-71339091D01*
X151856746Y-71415635D01*
X150955282Y-72317100D01*
X133972300Y-72317100D01*
X133541016Y-72402888D01*
X133175391Y-72647190D01*
X130307638Y-75514944D01*
X130338100Y-75361800D01*
X130338100Y-72510005D01*
X130408195Y-72464900D01*
X131289714Y-72464900D01*
X131416210Y-72551331D01*
X131668100Y-72602340D01*
X132568100Y-72602340D01*
X132803417Y-72558062D01*
X133019541Y-72418990D01*
X133164531Y-72206790D01*
X133215540Y-71954900D01*
X133215540Y-71454900D01*
X133171262Y-71219583D01*
X133032190Y-71003459D01*
X132819990Y-70858469D01*
X132568100Y-70807460D01*
X131668100Y-70807460D01*
X131432783Y-70851738D01*
X131288005Y-70944900D01*
X130439276Y-70944900D01*
X130466403Y-70927444D01*
X130568939Y-70907048D01*
X130815501Y-70742301D01*
X136081303Y-65476499D01*
X137264632Y-65476499D01*
X137029358Y-65633704D01*
X137029358Y-65633704D01*
G37*
X137029358Y-65633704D02*
X136728454Y-66084039D01*
X136622790Y-66615246D01*
X136622790Y-68207954D01*
X136728454Y-68739161D01*
X137029358Y-69189496D01*
X137479693Y-69490400D01*
X138010900Y-69596064D01*
X138542107Y-69490400D01*
X138992442Y-69189496D01*
X139280900Y-68757788D01*
X139569358Y-69189496D01*
X140019693Y-69490400D01*
X140550900Y-69596064D01*
X140898626Y-69526897D01*
X140898438Y-69743067D01*
X141040483Y-70086843D01*
X141303273Y-70350092D01*
X141646801Y-70492738D01*
X142018767Y-70493062D01*
X142362543Y-70351017D01*
X142381593Y-70332000D01*
X146174021Y-70332000D01*
X146297210Y-70523441D01*
X146509410Y-70668431D01*
X146761300Y-70719440D01*
X148361300Y-70719440D01*
X148596617Y-70675162D01*
X148812741Y-70536090D01*
X148952190Y-70332000D01*
X149045800Y-70332000D01*
X149336639Y-70274148D01*
X149583201Y-70109401D01*
X151642001Y-68050601D01*
X151806748Y-67804039D01*
X151864600Y-67513200D01*
X151864600Y-66284963D01*
X151896792Y-66252827D01*
X152039438Y-65909299D01*
X152039762Y-65537333D01*
X152014626Y-65476499D01*
X154385949Y-65476499D01*
X154174704Y-65617648D01*
X153853857Y-66097830D01*
X153741190Y-66664244D01*
X153741190Y-68260556D01*
X153853857Y-68826970D01*
X154174704Y-69307152D01*
X154292450Y-69385827D01*
X153963745Y-69451211D01*
X153937216Y-69456488D01*
X153571590Y-69700791D01*
X153241391Y-70030991D01*
X152997088Y-70396616D01*
X152987653Y-70444047D01*
X152908516Y-70459788D01*
X152542891Y-70704090D01*
X151907891Y-71339091D01*
X151856746Y-71415635D01*
X150955282Y-72317100D01*
X133972300Y-72317100D01*
X133541016Y-72402888D01*
X133175391Y-72647190D01*
X130307638Y-75514944D01*
X130338100Y-75361800D01*
X130338100Y-72510005D01*
X130408195Y-72464900D01*
X131289714Y-72464900D01*
X131416210Y-72551331D01*
X131668100Y-72602340D01*
X132568100Y-72602340D01*
X132803417Y-72558062D01*
X133019541Y-72418990D01*
X133164531Y-72206790D01*
X133215540Y-71954900D01*
X133215540Y-71454900D01*
X133171262Y-71219583D01*
X133032190Y-71003459D01*
X132819990Y-70858469D01*
X132568100Y-70807460D01*
X131668100Y-70807460D01*
X131432783Y-70851738D01*
X131288005Y-70944900D01*
X130439276Y-70944900D01*
X130466403Y-70927444D01*
X130568939Y-70907048D01*
X130815501Y-70742301D01*
X136081303Y-65476499D01*
X137264632Y-65476499D01*
X137029358Y-65633704D01*
G36*
X150169762Y-65535701D02*
X150169438Y-65907667D01*
X150311483Y-66251443D01*
X150344600Y-66284618D01*
X150344600Y-67198398D01*
X148863388Y-68679610D01*
X148825390Y-68620559D01*
X148613190Y-68475569D01*
X148361300Y-68424560D01*
X146761300Y-68424560D01*
X146525983Y-68468838D01*
X146309859Y-68607910D01*
X146170410Y-68812000D01*
X142410138Y-68812000D01*
X142363927Y-68765708D01*
X142020399Y-68623062D01*
X141856468Y-68622919D01*
X141939010Y-68207954D01*
X141939010Y-66615246D01*
X141833346Y-66084039D01*
X141532442Y-65633704D01*
X141297168Y-65476499D01*
X150194345Y-65476499D01*
X150169762Y-65535701D01*
X150169762Y-65535701D01*
G37*
X150169762Y-65535701D02*
X150169438Y-65907667D01*
X150311483Y-66251443D01*
X150344600Y-66284618D01*
X150344600Y-67198398D01*
X148863388Y-68679610D01*
X148825390Y-68620559D01*
X148613190Y-68475569D01*
X148361300Y-68424560D01*
X146761300Y-68424560D01*
X146525983Y-68468838D01*
X146309859Y-68607910D01*
X146170410Y-68812000D01*
X142410138Y-68812000D01*
X142363927Y-68765708D01*
X142020399Y-68623062D01*
X141856468Y-68622919D01*
X141939010Y-68207954D01*
X141939010Y-66615246D01*
X141833346Y-66084039D01*
X141532442Y-65633704D01*
X141297168Y-65476499D01*
X150194345Y-65476499D01*
X150169762Y-65535701D01*
M02*
