%FSLAX46Y46*%
G04 Gerber Fmt 4.6, Leading zero omitted, Abs format (unit mm)*
G04 Created by KiCad (PCBNEW (2014-jul-16 BZR unknown)-product) date Tue 29 Sep 2015 04:30:32 PM CEST*
%MOMM*%
G01*
G04 APERTURE LIST*
%ADD10C,0.100000*%
%ADD11O,3.014980X1.506220*%
%ADD12C,1.699260*%
%ADD13C,1.524000*%
%ADD14C,1.500000*%
%ADD15O,1.998980X1.998980*%
%ADD16R,1.998980X1.998980*%
%ADD17O,1.500000X2.000000*%
%ADD18R,1.500000X2.000000*%
%ADD19C,5.000000*%
G04 APERTURE END LIST*
D10*
D11*
X65465000Y-46920000D03*
X65465000Y-49460000D03*
X65465000Y-52000000D03*
D12*
X82750000Y-103000000D03*
X80458920Y-103000000D03*
X85041080Y-103000000D03*
D13*
X67000000Y-119250000D03*
X67000000Y-124330000D03*
X67000000Y-114170000D03*
D14*
X175820400Y-122449800D03*
D13*
X178360400Y-66569800D03*
X175820400Y-66569800D03*
X178360400Y-69109800D03*
X175820400Y-69109800D03*
X178360400Y-71649800D03*
X175820400Y-71649800D03*
X178360400Y-86889800D03*
X178360400Y-74189800D03*
X175820400Y-74189800D03*
X175820400Y-112289800D03*
X175820400Y-114829800D03*
X175820400Y-117369800D03*
X175820400Y-119909800D03*
X175820400Y-76729800D03*
X175820400Y-79269800D03*
X178360400Y-76729800D03*
X178360400Y-79269800D03*
X178360400Y-81809800D03*
X178360400Y-84349800D03*
X178360400Y-89429800D03*
X175820400Y-81809800D03*
X178360400Y-91969800D03*
X178360400Y-94509800D03*
X175820400Y-84349800D03*
X178360400Y-97049800D03*
X175820400Y-86889800D03*
X178360400Y-99589800D03*
X175820400Y-89429800D03*
X178360400Y-102129800D03*
X175820400Y-91969800D03*
X178360400Y-104669800D03*
X175820400Y-94509800D03*
X178360400Y-107209800D03*
X175820400Y-97049800D03*
X178360400Y-109749800D03*
X175820400Y-99589800D03*
X178360400Y-112289800D03*
X175820400Y-102129800D03*
X178360400Y-114829800D03*
X175820400Y-104669800D03*
X178360400Y-117369800D03*
X175820400Y-107209800D03*
X178360400Y-119909800D03*
X175820400Y-109749800D03*
X178360400Y-122449800D03*
X130100400Y-122449800D03*
X127560400Y-109749800D03*
X130100400Y-119909800D03*
X127560400Y-107209800D03*
X130100400Y-117369800D03*
X127560400Y-104669800D03*
X130100400Y-114829800D03*
X127560400Y-102129800D03*
X130100400Y-112289800D03*
X127560400Y-99589800D03*
X130100400Y-109749800D03*
X127560400Y-97049800D03*
X130100400Y-107209800D03*
X127560400Y-94509800D03*
X130100400Y-104669800D03*
X127560400Y-91969800D03*
X130100400Y-102129800D03*
X127560400Y-89429800D03*
X130100400Y-99589800D03*
X127560400Y-86889800D03*
X130100400Y-97049800D03*
X127560400Y-84349800D03*
X130100400Y-94509800D03*
X130100400Y-91969800D03*
X127560400Y-81809800D03*
X130100400Y-89429800D03*
X130100400Y-84349800D03*
X130100400Y-81809800D03*
X130100400Y-79269800D03*
X130100400Y-76729800D03*
X127560400Y-79269800D03*
X127560400Y-76729800D03*
X127560400Y-119909800D03*
X127560400Y-117369800D03*
X127560400Y-114829800D03*
X127560400Y-112289800D03*
X127560400Y-74189800D03*
X130100400Y-74189800D03*
X130100400Y-86889800D03*
X127560400Y-71649800D03*
X130100400Y-71649800D03*
X127560400Y-69109800D03*
X130100400Y-69109800D03*
X127560400Y-66569800D03*
X130100400Y-66569800D03*
D14*
X127560400Y-122449800D03*
D15*
X65500000Y-79230000D03*
D16*
X65500000Y-81770000D03*
D15*
X210466000Y-97126000D03*
D16*
X210466000Y-94586000D03*
D15*
X66250000Y-128230000D03*
D16*
X66250000Y-130770000D03*
D15*
X210466000Y-108302000D03*
D16*
X210466000Y-100682000D03*
D15*
X210466000Y-103222000D03*
X210466000Y-105762000D03*
X210466000Y-130654000D03*
D16*
X210466000Y-123034000D03*
D15*
X210466000Y-125574000D03*
X210466000Y-128114000D03*
X82755000Y-41840000D03*
D16*
X75135000Y-41840000D03*
D15*
X77675000Y-41840000D03*
X80215000Y-41840000D03*
X85295000Y-41840000D03*
X87835000Y-41840000D03*
X210529500Y-68614500D03*
D16*
X210529500Y-60994500D03*
D15*
X210529500Y-63534500D03*
X210529500Y-66074500D03*
X210529500Y-71154500D03*
X210529500Y-73694500D03*
X210529500Y-84997500D03*
D16*
X210529500Y-77377500D03*
D15*
X210529500Y-79917500D03*
X210529500Y-82457500D03*
X182653000Y-135607000D03*
D16*
X190273000Y-135607000D03*
D15*
X187733000Y-135607000D03*
X185193000Y-135607000D03*
X65500000Y-64210000D03*
D16*
X65500000Y-69290000D03*
D15*
X65500000Y-66750000D03*
X193829000Y-135607000D03*
D16*
X201449000Y-135607000D03*
D15*
X198909000Y-135607000D03*
X196369000Y-135607000D03*
X210466000Y-119478000D03*
D16*
X210466000Y-111858000D03*
D15*
X210466000Y-114398000D03*
X210466000Y-116938000D03*
X65500000Y-55460000D03*
D16*
X65500000Y-60540000D03*
D15*
X65500000Y-58000000D03*
X210466000Y-91030000D03*
D16*
X210466000Y-88490000D03*
D15*
X65500000Y-72980000D03*
D16*
X65500000Y-75520000D03*
D17*
X208490000Y-44020000D03*
X208490000Y-40980000D03*
X205950000Y-40980000D03*
X205950000Y-44020000D03*
X203410000Y-44020000D03*
X203410000Y-40980000D03*
X200870000Y-40980000D03*
X200870000Y-44020000D03*
X198330000Y-44020000D03*
X198330000Y-40980000D03*
X195790000Y-40980000D03*
X195790000Y-44020000D03*
X193250000Y-44020000D03*
X193250000Y-40980000D03*
X190710000Y-40980000D03*
X190710000Y-44020000D03*
X188170000Y-44020000D03*
X188170000Y-40980000D03*
X185630000Y-40980000D03*
X185630000Y-44020000D03*
D18*
X178010000Y-44020000D03*
D17*
X178010000Y-40980000D03*
X180550000Y-44020000D03*
X180550000Y-40980000D03*
X183090000Y-44020000D03*
X183090000Y-40980000D03*
D19*
X66250000Y-41500000D03*
X209500000Y-136000000D03*
X69000000Y-135500000D03*
X212250000Y-51750000D03*
M02*
