M48
METRIC,TZ
T1C0.600
T2C0.762
T3C0.998
T4C1.000
T5C1.016
T6C1.020
T7C1.097
T8C1.199
T9C3.200
%
G90
G05
T1
X62250Y-67750
X62750Y-67250
X63000Y-47000
X63000Y-108000
X63000Y-116500
X65500Y-85000
X65500Y-86500
X65500Y-87750
X68500Y-115250
X69500Y-49500
X69500Y-52000
X69500Y-55500
X69500Y-58000
X69500Y-62500
X69500Y-64250
X69500Y-66750
X69500Y-73000
X70000Y-115250
X70250Y-62500
X71250Y-115250
X73750Y-103000
X74250Y-56250
X74500Y-135000
X74750Y-124250
X75000Y-103000
X75250Y-46000
X76250Y-103000
X76750Y-128250
X79000Y-50750
X79000Y-97750
X79750Y-132250
X80250Y-46000
X80500Y-137500
X82500Y-128250
X82750Y-104750
X84250Y-84500
X84750Y-63250
X84750Y-133250
X85250Y-46000
X85250Y-63750
X85500Y-58500
X85500Y-61500
X85500Y-84500
X85750Y-52750
X86250Y-100750
X86750Y-84500
X87000Y-68750
X88250Y-66750
X88250Y-84500
X88750Y-67250
X88750Y-123500
X89750Y-84500
X90250Y-70250
X90250Y-123250
X91250Y-58750
X91500Y-123250
X91750Y-52750
X91750Y-85250
X92750Y-61000
X92750Y-116250
X93000Y-79500
X93000Y-82250
X93000Y-123250
X93250Y-85250
X94000Y-82250
X94250Y-40000
X94250Y-115500
X94500Y-46750
X94750Y-82250
X94750Y-85250
X95000Y-58750
X95250Y-123750
X95500Y-82250
X95500Y-86250
X96250Y-100500
X96500Y-113250
X96500Y-118250
X96500Y-123750
X96750Y-121000
X97750Y-71750
X98000Y-100750
X98000Y-121000
X98000Y-123750
X98250Y-105250
X98250Y-113250
X98500Y-66750
X99000Y-70250
X99000Y-78750
X99000Y-84250
X99000Y-121000
X99000Y-124750
X99500Y-80500
X99500Y-81500
X99500Y-82500
X100000Y-78750
X100000Y-84250
X100500Y-80500
X100500Y-81500
X100500Y-82500
X100750Y-89500
X100750Y-90750
X100750Y-92000
X100750Y-93250
X101000Y-78750
X101000Y-84250
X102000Y-49750
X102000Y-61000
X102500Y-117250
X102500Y-123250
X103000Y-119250
X103000Y-120250
X103000Y-121250
X103500Y-117250
X103500Y-123250
X104000Y-119250
X104000Y-120250
X104000Y-121250
X104250Y-128750
X104250Y-129750
X104250Y-130750
X104250Y-131750
X104500Y-117250
X104500Y-123250
X106000Y-113250
X106250Y-69000
X106500Y-39000
X107500Y-73000
X107500Y-74500
X107500Y-78500
X107500Y-79750
X107750Y-44500
X107750Y-66750
X107750Y-113250
X111250Y-118000
X111250Y-119750
X113500Y-44250
X114250Y-75250
X115250Y-83250
X116250Y-82250
X117250Y-59500
X119250Y-51500
X122000Y-70250
X122250Y-78750
X122250Y-83000
X122250Y-94500
X122250Y-104750
X122250Y-106500
X122250Y-107750
X123500Y-119500
X124250Y-115000
X124250Y-131500
X125250Y-121750
X125750Y-80500
X129250Y-132250
X130000Y-137250
X130250Y-127500
X132000Y-62750
X132000Y-65500
X132750Y-114750
X134250Y-73000
X134250Y-74250
X134250Y-80750
X134250Y-88250
X134250Y-98000
X134250Y-107250
X134500Y-131250
X135250Y-99000
X135250Y-100750
X135250Y-104750
X136250Y-94750
X136750Y-59000
X136750Y-100750
X137250Y-95750
X137250Y-115750
X137500Y-109000
X137500Y-135500
X138750Y-125250
X139250Y-129750
X141000Y-104000
X142250Y-78750
X142750Y-107500
X143000Y-115500
X143000Y-122750
X143000Y-124250
X143000Y-125500
X144250Y-114250
X145250Y-113250
X147000Y-78750
X147250Y-84500
X147250Y-90750
X147250Y-96500
X147250Y-102750
X149000Y-115500
X150250Y-107750
X155000Y-82250
X155000Y-89750
X155000Y-95250
X155000Y-100250
X155000Y-104250
X156750Y-116000
X157250Y-75000
X158750Y-107750
X164500Y-80250
X164500Y-86250
X164500Y-94250
X164750Y-101000
X166750Y-106000
X167250Y-116000
X168750Y-67500
X168750Y-69000
X168750Y-70750
X168750Y-73000
X168750Y-77500
X168750Y-80250
X171750Y-114750
X171750Y-118750
X174000Y-78000
X174000Y-129750
X174000Y-135500
X175000Y-125250
X177750Y-133500
X178250Y-46250
X179000Y-46250
X179250Y-39000
X179750Y-39500
X180750Y-100500
X180750Y-125250
X181000Y-66000
X181000Y-67750
X181000Y-84000
X181000Y-85250
X181000Y-113250
X181000Y-114500
X181000Y-115750
X181000Y-117000
X181000Y-118250
X181500Y-104750
X181500Y-106500
X181500Y-108750
X181750Y-45750
X183000Y-46750
X183460Y-75003
X183500Y-80500
X183500Y-92500
X183500Y-102000
X184250Y-45750
X185193Y-122907
X185250Y-131000
X185500Y-46750
X185750Y-85500
X187000Y-45750
X187000Y-83000
X188000Y-46750
X189500Y-45750
X190250Y-131000
X190273Y-122907
X190500Y-46750
X190750Y-140500
X190908Y-96745
X191289Y-90141
X192000Y-45750
X193250Y-46750
X193575Y-117700
X193835Y-74859
X194500Y-45750
X195750Y-46750
X196250Y-131000
X196369Y-122907
X197000Y-45750
X198250Y-46750
X198750Y-104250
X199500Y-45750
X200750Y-46750
X201449Y-122907
X201500Y-131000
X202250Y-45750
X202750Y-91000
X203250Y-46750
X203250Y-87500
X203250Y-94459
X204000Y-91000
X204000Y-97750
X204250Y-94500
X204601Y-87601
X205000Y-39000
X205500Y-39500
X205500Y-88500
X205500Y-91000
X205500Y-94250
X205500Y-97750
X206000Y-46250
X206000Y-61000
X206000Y-66000
X206000Y-71250
X206000Y-77500
X206000Y-82500
X206250Y-97000
X206250Y-119500
X206500Y-125000
X206500Y-126250
X206500Y-130500
X206750Y-88500
X206750Y-91000
X206750Y-94500
X206750Y-100750
X207500Y-97126
X208000Y-88490
X208000Y-91030
X208000Y-94586
X213250Y-75500
X213250Y-88500
X213250Y-94500
X213750Y-116250
X214000Y-87750
X214250Y-93500
X214500Y-117000
X214875Y-86875
X215000Y-92750
T2
X67000Y-114170
X67000Y-119250
X67000Y-124330
T3
X65465Y-46920
X65465Y-49460
X65465Y-52000
T4
X178010Y-41230
X178010Y-43770
X180550Y-41230
X180550Y-43770
X183090Y-41230
X183090Y-43770
X185630Y-41230
X185630Y-43770
X188170Y-41230
X188170Y-43770
X190710Y-41230
X190710Y-43770
X193250Y-41230
X193250Y-43770
X195790Y-41230
X195790Y-43770
X198330Y-41230
X198330Y-43770
X200870Y-41230
X200870Y-43770
X203410Y-41230
X203410Y-43770
X205950Y-41230
X205950Y-43770
X208490Y-41230
X208490Y-43770
T5
X127560Y-66570
X127560Y-69110
X127560Y-71650
X127560Y-74190
X127560Y-76730
X127560Y-79270
X127560Y-81810
X127560Y-84350
X127560Y-86890
X127560Y-89430
X127560Y-91970
X127560Y-94510
X127560Y-97050
X127560Y-99590
X127560Y-102130
X127560Y-104670
X127560Y-107210
X127560Y-109750
X127560Y-112290
X127560Y-114830
X127560Y-117370
X127560Y-119910
X130100Y-66570
X130100Y-69110
X130100Y-71650
X130100Y-74190
X130100Y-76730
X130100Y-79270
X130100Y-81810
X130100Y-84350
X130100Y-86890
X130100Y-89430
X130100Y-91970
X130100Y-94510
X130100Y-97050
X130100Y-99590
X130100Y-102130
X130100Y-104670
X130100Y-107210
X130100Y-109750
X130100Y-112290
X130100Y-114830
X130100Y-117370
X130100Y-119910
X130100Y-122450
X175820Y-66570
X175820Y-69110
X175820Y-71650
X175820Y-74190
X175820Y-76730
X175820Y-79270
X175820Y-81810
X175820Y-84350
X175820Y-86890
X175820Y-89430
X175820Y-91970
X175820Y-94510
X175820Y-97050
X175820Y-99590
X175820Y-102130
X175820Y-104670
X175820Y-107210
X175820Y-109750
X175820Y-112290
X175820Y-114830
X175820Y-117370
X175820Y-119910
X178360Y-66570
X178360Y-69110
X178360Y-71650
X178360Y-74190
X178360Y-76730
X178360Y-79270
X178360Y-81810
X178360Y-84350
X178360Y-86890
X178360Y-89430
X178360Y-91970
X178360Y-94510
X178360Y-97050
X178360Y-99590
X178360Y-102130
X178360Y-104670
X178360Y-107210
X178360Y-109750
X178360Y-112290
X178360Y-114830
X178360Y-117370
X178360Y-119910
X178360Y-122450
T6
X127560Y-122450
X175820Y-122450
T7
X65500Y-55460
X65500Y-58000
X65500Y-60540
X65500Y-64210
X65500Y-66750
X65500Y-69290
X65500Y-72980
X65500Y-75520
X65500Y-79230
X65500Y-81770
X66250Y-128230
X66250Y-130770
X75135Y-41840
X77675Y-41840
X80215Y-41840
X82755Y-41840
X85295Y-41840
X87835Y-41840
X182653Y-135607
X185193Y-135607
X187733Y-135607
X190273Y-135607
X193829Y-135607
X196369Y-135607
X198909Y-135607
X201449Y-135607
X210466Y-88490
X210466Y-91030
X210466Y-94586
X210466Y-97126
X210466Y-100682
X210466Y-103222
X210466Y-105762
X210466Y-108302
X210466Y-111858
X210466Y-114398
X210466Y-116938
X210466Y-119478
X210466Y-123034
X210466Y-125574
X210466Y-128114
X210466Y-130654
X210530Y-60994
X210530Y-63534
X210530Y-66075
X210530Y-68615
X210530Y-71155
X210530Y-73694
X210530Y-77378
X210530Y-79918
X210530Y-82458
X210530Y-84998
T8
X80459Y-103000
X82750Y-103000
X85041Y-103000
T9
X66250Y-41500
X69000Y-135500
X209500Y-136000
X212250Y-51750
T0
M30
